G04 #@! TF.GenerationSoftware,KiCad,Pcbnew,7.0.6-7.0.6~ubuntu20.04.1*
G04 #@! TF.CreationDate,2024-05-17T12:06:41-07:00*
G04 #@! TF.ProjectId,harp_lick_detector_capactive,68617270-5f6c-4696-936b-5f6465746563,rev?*
G04 #@! TF.SameCoordinates,PX640a5a0PY7088980*
G04 #@! TF.FileFunction,Copper,L2,Inr*
G04 #@! TF.FilePolarity,Positive*
%FSLAX46Y46*%
G04 Gerber Fmt 4.6, Leading zero omitted, Abs format (unit mm)*
G04 Created by KiCad (PCBNEW 7.0.6-7.0.6~ubuntu20.04.1) date 2024-05-17 12:06:41*
%MOMM*%
%LPD*%
G01*
G04 APERTURE LIST*
G04 #@! TA.AperFunction,ComponentPad*
%ADD10R,2.600000X2.600000*%
G04 #@! TD*
G04 #@! TA.AperFunction,ComponentPad*
%ADD11C,2.600000*%
G04 #@! TD*
G04 #@! TA.AperFunction,ComponentPad*
%ADD12C,2.200000*%
G04 #@! TD*
G04 #@! TA.AperFunction,ComponentPad*
%ADD13C,2.300000*%
G04 #@! TD*
G04 #@! TA.AperFunction,ComponentPad*
%ADD14C,0.600000*%
G04 #@! TD*
G04 #@! TA.AperFunction,ComponentPad*
%ADD15C,0.457200*%
G04 #@! TD*
G04 #@! TA.AperFunction,ComponentPad*
%ADD16O,2.300000X1.300000*%
G04 #@! TD*
G04 #@! TA.AperFunction,ComponentPad*
%ADD17O,2.600000X1.300000*%
G04 #@! TD*
G04 #@! TA.AperFunction,ComponentPad*
%ADD18C,2.750000*%
G04 #@! TD*
G04 #@! TA.AperFunction,ComponentPad*
%ADD19R,1.700000X1.700000*%
G04 #@! TD*
G04 #@! TA.AperFunction,ComponentPad*
%ADD20O,1.700000X1.700000*%
G04 #@! TD*
G04 #@! TA.AperFunction,ComponentPad*
%ADD21C,3.000000*%
G04 #@! TD*
G04 #@! TA.AperFunction,ViaPad*
%ADD22C,0.457200*%
G04 #@! TD*
G04 APERTURE END LIST*
D10*
G04 #@! TO.N,+12V*
G04 #@! TO.C,J6*
X65800000Y11250000D03*
D11*
G04 #@! TO.N,GND2*
X71800000Y11250000D03*
G04 #@! TO.N,unconnected-(J6-Pad3)*
X68800000Y15950000D03*
G04 #@! TD*
D12*
G04 #@! TO.N,/Lick Detection Analog Front End/triax_core*
G04 #@! TO.C,J3*
X7000000Y25000000D03*
G04 #@! TO.N,/Lick Detection Analog Front End/triax_inner_shield*
X4460000Y25000000D03*
D13*
G04 #@! TO.N,GND*
X3190000Y21723400D03*
X9743200Y21723400D03*
X3190000Y28276600D03*
X9743200Y28276600D03*
G04 #@! TD*
D14*
G04 #@! TO.N,GND*
G04 #@! TO.C,U11*
X26500000Y7000000D03*
X25500000Y7000000D03*
X24500000Y7000000D03*
G04 #@! TD*
D15*
G04 #@! TO.N,GND*
G04 #@! TO.C,U4*
X47075000Y27037500D03*
X45800000Y27037500D03*
X44525000Y27037500D03*
X47075000Y25762500D03*
X45800000Y25762500D03*
X44525000Y25762500D03*
X47075000Y24487500D03*
X45800000Y24487500D03*
X44525000Y24487500D03*
G04 #@! TD*
D16*
G04 #@! TO.N,GND1*
G04 #@! TO.C,J5*
X73675000Y20680000D03*
D17*
X77500000Y20680000D03*
D16*
X73675000Y29320000D03*
D17*
X77500000Y29320000D03*
G04 #@! TD*
D18*
G04 #@! TO.N,GND*
G04 #@! TO.C,H1*
X10100000Y15750000D03*
X5100000Y15750000D03*
X10100000Y8250000D03*
X5100000Y8250000D03*
G04 #@! TD*
D19*
G04 #@! TO.N,/Harp Core RP2040 + Isolated USB/UART0_TXD*
G04 #@! TO.C,J2*
X49500000Y36000000D03*
D20*
G04 #@! TO.N,/Harp Core RP2040 + Isolated USB/UART0_RXD*
X52040000Y36000000D03*
G04 #@! TO.N,GND*
X54580000Y36000000D03*
G04 #@! TD*
D21*
G04 #@! TO.N,Net-(R43-Pad2)*
G04 #@! TO.C,TP1*
X34300000Y2200000D03*
G04 #@! TD*
D22*
G04 #@! TO.N,GND*
X59100000Y17400000D03*
X52000000Y49200000D03*
X800000Y34000000D03*
X33800000Y8400000D03*
X38000000Y49200000D03*
X62000000Y49200000D03*
X32000000Y800000D03*
X52000000Y800000D03*
X79200000Y42000000D03*
X28300000Y36700000D03*
X27650000Y18200000D03*
X22400000Y31900000D03*
X56000000Y49200000D03*
X74619498Y44000000D03*
X800000Y44000000D03*
X6000000Y800000D03*
X55000000Y49200000D03*
X41000000Y49200000D03*
X71000000Y49200000D03*
X800000Y40000000D03*
X800000Y33000000D03*
X54700000Y45200000D03*
X10000000Y800000D03*
X32000000Y30600000D03*
X29000000Y49200000D03*
X800000Y27000000D03*
X73000000Y800000D03*
X13000000Y800000D03*
X19600000Y27400000D03*
X23000000Y49200000D03*
X36000000Y49200000D03*
X43270866Y38500000D03*
X25255500Y8600000D03*
X800000Y30000000D03*
X800000Y7000000D03*
X800000Y8000000D03*
X800000Y16000000D03*
X45100000Y14950000D03*
X17000000Y49200000D03*
X66000000Y800000D03*
X62900000Y38400000D03*
X46000000Y800000D03*
X800000Y14000000D03*
X24000000Y49200000D03*
X800000Y13000000D03*
X75000000Y49200000D03*
X75000000Y800000D03*
X43000000Y49200000D03*
X11000000Y800000D03*
X30000000Y49200000D03*
X49400000Y21400000D03*
X8000000Y49200000D03*
X33500000Y33900000D03*
X800000Y29000000D03*
X79200000Y35000000D03*
X800000Y10000000D03*
X73000000Y49200000D03*
X78000000Y16900000D03*
X49000000Y800000D03*
X800000Y6000000D03*
X79200000Y5000000D03*
X48000000Y800000D03*
X35270866Y38500000D03*
X58000000Y800000D03*
X27650000Y31950000D03*
X79200000Y37000000D03*
X40450000Y14700000D03*
X79200000Y38000000D03*
X15000000Y800000D03*
X25000000Y800000D03*
X800000Y41000000D03*
X18900000Y22500000D03*
X56100000Y20425000D03*
X20000000Y800000D03*
X47000000Y800000D03*
X20000000Y49200000D03*
X54000000Y49200000D03*
X37200000Y8920000D03*
X45200000Y8400000D03*
X37200000Y18900000D03*
X32000000Y49200000D03*
X77900000Y31100000D03*
X13000000Y49200000D03*
X69000000Y800000D03*
X78100000Y34200000D03*
X34400000Y22800000D03*
X53900000Y28100000D03*
X26630366Y35988768D03*
X53900000Y26100000D03*
X63000000Y800000D03*
X65100000Y31300000D03*
X22000000Y49200000D03*
X40000000Y800000D03*
X79200000Y32000000D03*
X29000000Y800000D03*
X48000000Y49200000D03*
X800000Y19000000D03*
X37270866Y38500000D03*
X24500000Y26700000D03*
X44000000Y49200000D03*
X800000Y23000000D03*
X45000000Y800000D03*
X44000000Y800000D03*
X49000000Y49200000D03*
X57000000Y800000D03*
X800000Y21000000D03*
X79200000Y17000000D03*
X43000000Y800000D03*
X50900000Y32600000D03*
X42000000Y49200000D03*
X56175000Y6675000D03*
X52300000Y7737500D03*
X54000000Y800000D03*
X24000000Y800000D03*
X39070866Y38500000D03*
X79200000Y40000000D03*
X18000000Y800000D03*
X800000Y15000000D03*
X66000000Y49200000D03*
X70000000Y49200000D03*
X79200000Y36000000D03*
X21000000Y800000D03*
X63700000Y43000000D03*
X79200000Y15000000D03*
X62100000Y30000000D03*
X48200000Y15000000D03*
X79200000Y9000000D03*
X38900000Y24500000D03*
X41270866Y38500000D03*
X79200000Y41000000D03*
X35100000Y19400000D03*
X29650000Y9800000D03*
X56100000Y27900000D03*
X31000000Y49200000D03*
X27100000Y39000000D03*
X57000000Y49200000D03*
X39000000Y49200000D03*
X79200000Y6000000D03*
X25000000Y49200000D03*
X46000000Y49200000D03*
X64000000Y49200000D03*
X800000Y5000000D03*
X27000000Y49200000D03*
X37200000Y8200000D03*
X68000000Y800000D03*
X45000000Y49200000D03*
X5000000Y49200000D03*
X37000000Y800000D03*
X22200000Y19100000D03*
X800000Y24000000D03*
X53000000Y49200000D03*
X30900000Y23100000D03*
X61800000Y12600000D03*
X79200000Y39000000D03*
X36000000Y800000D03*
X79200000Y14000000D03*
X9000000Y49200000D03*
X59100000Y16400000D03*
X800000Y35000000D03*
X79200000Y31000000D03*
X56825000Y6675000D03*
X22000000Y800000D03*
X48200000Y34000000D03*
X11000000Y49200000D03*
X66380502Y40400000D03*
X14000000Y49200000D03*
X5000000Y800000D03*
X38800000Y26900000D03*
X32000000Y19450000D03*
X800000Y28000000D03*
X7000000Y49200000D03*
X800000Y42000000D03*
X26000000Y49200000D03*
X24770866Y37400000D03*
X56100000Y19700000D03*
X79200000Y44000000D03*
X75000000Y35200000D03*
X800000Y17000000D03*
X54700000Y42600000D03*
X7000000Y800000D03*
X38900000Y25500000D03*
X41000000Y800000D03*
X50800000Y17400000D03*
X19000000Y49200000D03*
X800000Y31000000D03*
X800000Y36000000D03*
X52900000Y23100000D03*
X79200000Y43000000D03*
X800000Y39000000D03*
X45200000Y6500000D03*
X61300000Y3350000D03*
X30200000Y36820000D03*
X800000Y43000000D03*
X9000000Y800000D03*
X800000Y20000000D03*
X6000000Y49200000D03*
X56000000Y800000D03*
X67000000Y49200000D03*
X59000000Y49200000D03*
X800000Y18000000D03*
X30900000Y26800000D03*
X61000000Y800000D03*
X61000000Y49200000D03*
X17200000Y20500000D03*
X12000000Y49200000D03*
X79200000Y34000000D03*
X71000000Y800000D03*
X39000000Y800000D03*
X47500000Y7300000D03*
X37000000Y49200000D03*
X23000000Y800000D03*
X59000000Y800000D03*
X800000Y9000000D03*
X74000000Y800000D03*
X53000000Y800000D03*
X39800000Y29200000D03*
X800000Y25000000D03*
X79200000Y33000000D03*
X10000000Y49200000D03*
X60800000Y7700000D03*
X64000000Y800000D03*
X35000000Y49200000D03*
X34000000Y49200000D03*
X41900000Y15850000D03*
X79200000Y7000000D03*
X28000000Y49200000D03*
X19000000Y800000D03*
X16000000Y800000D03*
X15000000Y49200000D03*
X73500000Y35100000D03*
X33600000Y23600000D03*
X79200000Y16000000D03*
X65000000Y49200000D03*
X79200000Y45000000D03*
X52300000Y21100000D03*
X31000000Y800000D03*
X51000000Y800000D03*
X60000000Y49200000D03*
X55000000Y800000D03*
X63000000Y49200000D03*
X45300000Y3300000D03*
X14000000Y800000D03*
X32500000Y25056700D03*
X60000000Y800000D03*
X42000000Y800000D03*
X60200000Y29000000D03*
X52900000Y22100000D03*
X800000Y11000000D03*
X62100000Y38400000D03*
X18800000Y21400000D03*
X27000000Y800000D03*
X72000000Y49200000D03*
X79200000Y11000000D03*
X8000000Y800000D03*
X23550000Y5900000D03*
X30000000Y800000D03*
X24200000Y23350000D03*
X48600000Y32400000D03*
X40000000Y49200000D03*
X16000000Y49200000D03*
X800000Y32000000D03*
X800000Y26000000D03*
X29070866Y36000000D03*
X56825000Y10125000D03*
X21000000Y49200000D03*
X44700000Y13200000D03*
X51000000Y49200000D03*
X33800000Y18600000D03*
X56175000Y10125000D03*
X79200000Y8000000D03*
X50800000Y16400000D03*
X60200000Y23300000D03*
X41200000Y21600000D03*
X28775000Y11025000D03*
X79200000Y13000000D03*
X18000000Y49200000D03*
X62000000Y800000D03*
X800000Y12000000D03*
X33000000Y49200000D03*
X48500000Y7300000D03*
X26000000Y800000D03*
X34400000Y27200000D03*
X46800000Y18200000D03*
X55900000Y29900000D03*
X12000000Y800000D03*
X64250000Y38300000D03*
X65000000Y800000D03*
X68000000Y49200000D03*
X50000000Y800000D03*
X74000000Y49200000D03*
X50000000Y49200000D03*
X79200000Y10000000D03*
X19100000Y28700000D03*
X69000000Y49200000D03*
X51200000Y12600000D03*
X47000000Y49200000D03*
X72000000Y800000D03*
X58000000Y49200000D03*
X800000Y38000000D03*
X800000Y45000000D03*
X800000Y22000000D03*
X40000000Y15300000D03*
X27307443Y8200000D03*
X53900000Y27100000D03*
X41200000Y22600000D03*
X800000Y37000000D03*
X70000000Y800000D03*
X28000000Y800000D03*
X17000000Y800000D03*
X79200000Y12000000D03*
X38000000Y800000D03*
X67000000Y800000D03*
X43500000Y30100000D03*
G04 #@! TO.N,GND1*
X79200000Y19000000D03*
X71800000Y24921900D03*
X71800000Y23769500D03*
X79200000Y18000000D03*
G04 #@! TO.N,+1V1*
X48300000Y24000000D03*
X43200000Y25100000D03*
X48300000Y25900000D03*
G04 #@! TO.N,+2V5*
X30400000Y6300000D03*
X37300000Y10100000D03*
X28619500Y25500000D03*
X24770866Y38525000D03*
X32520000Y26200000D03*
X21100000Y28700000D03*
X30200000Y37700000D03*
X30400000Y6900000D03*
X20700000Y26800000D03*
G04 #@! TO.N,-2V5*
X35100000Y16950000D03*
X23250000Y8600000D03*
X21000000Y21400000D03*
X32520000Y23800000D03*
X22100000Y8600000D03*
X29650000Y16950000D03*
X20900000Y22500000D03*
X27070866Y37200000D03*
X31300000Y33850354D03*
X26700000Y24500000D03*
G04 #@! TO.N,+5V*
X60800000Y12000000D03*
X24250000Y4900000D03*
X67000000Y41200000D03*
X25897936Y8596564D03*
X57475000Y12537500D03*
X58125000Y12537500D03*
X48500000Y4900000D03*
X27107443Y5492412D03*
X47500000Y4900000D03*
X60000000Y12600000D03*
G04 #@! TO.N,Net-(C30-Pad2)*
X24350000Y31956700D03*
X24350000Y30950000D03*
G04 #@! TO.N,VREF_1V25*
X34400000Y11000000D03*
X34400000Y16020000D03*
G04 #@! TO.N,/Lick Detection Analog Front End/triax_inner_shield*
X15900000Y26700000D03*
X7600000Y23300000D03*
X13400000Y26700000D03*
X9600000Y26700000D03*
X8600000Y26700000D03*
X10600000Y23300000D03*
X14900000Y26700000D03*
X11600000Y23300000D03*
X11600000Y26700000D03*
X7600000Y26700000D03*
X9600000Y23300000D03*
X6600000Y26700000D03*
X15900000Y23300000D03*
X8600000Y23300000D03*
X5700000Y26200000D03*
X10600000Y26700000D03*
X5700000Y23800000D03*
X13400000Y23300000D03*
X6600000Y23300000D03*
X14900000Y23300000D03*
G04 #@! TO.N,/Harp Core RP2040 + Isolated USB/HARP_CLK_SYNC*
X46200000Y31750000D03*
G04 #@! TO.N,Net-(U4-GPIO24)*
X62600000Y17900000D03*
X59900000Y17400000D03*
G04 #@! TO.N,Net-(U4-GPIO25)*
X59600000Y29700000D03*
X65100000Y32100000D03*
G04 #@! TO.N,/Harp Core RP2040 + Isolated USB/FREQ_SEL_DIP*
X49400000Y43500000D03*
X46900000Y33900000D03*
X45600000Y32300000D03*
X49400000Y41900000D03*
G04 #@! TO.N,/Harp Core RP2040 + Isolated USB/GAIN_SEL_DIP*
X46300000Y34500000D03*
X45000000Y32900000D03*
G04 #@! TO.N,Net-(C33-Pad2)*
X24450000Y18999500D03*
X24450000Y18000000D03*
G04 #@! TO.N,+3.3V*
X48600000Y30100000D03*
X56100000Y23935000D03*
X63100000Y42300000D03*
X51100000Y26100000D03*
X41200000Y15300000D03*
X48400000Y21400000D03*
X40780000Y29200000D03*
X45100000Y16950000D03*
X41400000Y24100000D03*
X49300000Y22300000D03*
X44700000Y30100000D03*
X50200000Y22800000D03*
X56100000Y21400000D03*
X51600000Y25800000D03*
X56100000Y22665000D03*
X56000000Y39400000D03*
X50100000Y21700000D03*
X56100000Y18855000D03*
X51300000Y39400000D03*
X48200000Y16900000D03*
X55300000Y39700000D03*
X54875000Y12537500D03*
X52300000Y11937500D03*
X53600000Y29900000D03*
X53000000Y12600000D03*
X41300000Y25550000D03*
X55525000Y12537500D03*
X72500000Y35100000D03*
X45340397Y19800000D03*
G04 #@! TO.N,Net-(R43-Pad2)*
X37500000Y13500000D03*
G04 #@! TO.N,FREQ_SEL_2V5*
X37200000Y24400000D03*
X30100000Y24400000D03*
G04 #@! TO.N,GAIN_SEL_2V5*
X27100000Y38200000D03*
X33300000Y32700000D03*
G04 #@! TD*
G04 #@! TA.AperFunction,Conductor*
G04 #@! TO.N,GND*
G36*
X77001735Y49618402D02*
G01*
X77132594Y49611054D01*
X77289712Y49602230D01*
X77296599Y49601454D01*
X77579234Y49553433D01*
X77586017Y49551885D01*
X77861495Y49472522D01*
X77868055Y49470225D01*
X77984861Y49421843D01*
X78132916Y49360517D01*
X78139173Y49357502D01*
X78390075Y49218833D01*
X78395967Y49215131D01*
X78629764Y49049243D01*
X78635205Y49044905D01*
X78848960Y48853881D01*
X78853880Y48848961D01*
X79044904Y48635206D01*
X79049242Y48629765D01*
X79215130Y48395968D01*
X79218832Y48390076D01*
X79357501Y48139174D01*
X79360521Y48132905D01*
X79470224Y47868056D01*
X79472523Y47861489D01*
X79551884Y47586018D01*
X79553432Y47579235D01*
X79601451Y47296617D01*
X79602230Y47289703D01*
X79618402Y47001737D01*
X79618500Y46998259D01*
X79618500Y19416744D01*
X79598815Y19349705D01*
X79546011Y19303950D01*
X79476853Y19294006D01*
X79436844Y19310244D01*
X79435731Y19308057D01*
X79319356Y19367352D01*
X79200002Y19386255D01*
X79199998Y19386255D01*
X79080643Y19367352D01*
X78972966Y19312489D01*
X78887511Y19227034D01*
X78832648Y19119357D01*
X78813745Y19000003D01*
X78813745Y18999998D01*
X78832648Y18880644D01*
X78887511Y18772967D01*
X78972966Y18687512D01*
X79080643Y18632649D01*
X79144891Y18622473D01*
X79198971Y18596837D01*
X79255108Y18622473D01*
X79319356Y18632649D01*
X79319357Y18632650D01*
X79319359Y18632650D01*
X79366369Y18656603D01*
X79435731Y18691943D01*
X79437168Y18689121D01*
X79487395Y18707053D01*
X79555452Y18691243D01*
X79604157Y18641147D01*
X79618500Y18583257D01*
X79618500Y18416744D01*
X79598815Y18349705D01*
X79546011Y18303950D01*
X79476853Y18294006D01*
X79436844Y18310244D01*
X79435731Y18308057D01*
X79319356Y18367352D01*
X79255108Y18377527D01*
X79201027Y18403164D01*
X79144891Y18377527D01*
X79080643Y18367352D01*
X78972966Y18312489D01*
X78887511Y18227034D01*
X78832648Y18119357D01*
X78813745Y18000003D01*
X78813745Y17999998D01*
X78832648Y17880644D01*
X78887511Y17772967D01*
X78972966Y17687512D01*
X79080643Y17632649D01*
X79199998Y17613745D01*
X79200000Y17613745D01*
X79200002Y17613745D01*
X79319356Y17632649D01*
X79319357Y17632650D01*
X79319359Y17632650D01*
X79398487Y17672967D01*
X79435731Y17691943D01*
X79437168Y17689121D01*
X79487395Y17707053D01*
X79555452Y17691243D01*
X79604157Y17641147D01*
X79618500Y17583257D01*
X79618500Y3001742D01*
X79618402Y2998264D01*
X79602230Y2710298D01*
X79601451Y2703384D01*
X79553432Y2420766D01*
X79551884Y2413983D01*
X79472523Y2138512D01*
X79470224Y2131945D01*
X79360521Y1867096D01*
X79357501Y1860827D01*
X79218832Y1609925D01*
X79215130Y1604033D01*
X79049242Y1370236D01*
X79044904Y1364795D01*
X78853880Y1151040D01*
X78848960Y1146120D01*
X78635205Y955096D01*
X78629764Y950758D01*
X78395967Y784870D01*
X78390075Y781168D01*
X78139173Y642499D01*
X78132904Y639479D01*
X77868055Y529776D01*
X77861488Y527477D01*
X77586017Y448116D01*
X77579234Y446568D01*
X77296616Y398549D01*
X77289702Y397770D01*
X77001736Y381598D01*
X76998258Y381500D01*
X34851576Y381500D01*
X34784537Y401185D01*
X34738782Y453989D01*
X34728838Y523147D01*
X34757863Y586703D01*
X34808315Y620156D01*
X34807853Y621273D01*
X35052721Y722701D01*
X35274551Y858639D01*
X35274551Y858640D01*
X35274554Y858641D01*
X35472391Y1027609D01*
X35641359Y1225446D01*
X35670195Y1272501D01*
X35777299Y1447279D01*
X35876862Y1687646D01*
X35892225Y1751636D01*
X35937598Y1940630D01*
X35958011Y2200000D01*
X35937598Y2459370D01*
X35918025Y2540897D01*
X35876862Y2712355D01*
X35777299Y2952722D01*
X35707660Y3066363D01*
X75268687Y3066363D01*
X75278846Y2801301D01*
X75329350Y2540894D01*
X75419009Y2291257D01*
X75419012Y2291250D01*
X75545726Y2058228D01*
X75545729Y2058223D01*
X75706530Y1847272D01*
X75706534Y1847267D01*
X75897657Y1663330D01*
X76114617Y1510723D01*
X76352331Y1393024D01*
X76605225Y1312991D01*
X76867372Y1272500D01*
X76867376Y1272500D01*
X77066219Y1272500D01*
X77066220Y1272500D01*
X77264478Y1287721D01*
X77522756Y1348161D01*
X77577528Y1370236D01*
X77768774Y1447314D01*
X77768779Y1447317D01*
X77768782Y1447318D01*
X77996788Y1582869D01*
X78201430Y1751636D01*
X78377912Y1949664D01*
X78448215Y2058224D01*
X78522094Y2172306D01*
X78522094Y2172308D01*
X78522096Y2172310D01*
X78630604Y2414357D01*
X78700892Y2670131D01*
X78731313Y2933637D01*
X78721153Y3198699D01*
X78670650Y3459103D01*
X78641107Y3541359D01*
X78580990Y3708744D01*
X78580987Y3708751D01*
X78454273Y3941773D01*
X78454270Y3941778D01*
X78293469Y4152729D01*
X78293466Y4152733D01*
X78102343Y4336670D01*
X78102339Y4336673D01*
X77885382Y4489278D01*
X77647670Y4606976D01*
X77647667Y4606977D01*
X77394777Y4687009D01*
X77289916Y4703206D01*
X77132628Y4727500D01*
X76933780Y4727500D01*
X76735522Y4712279D01*
X76735518Y4712279D01*
X76477246Y4651840D01*
X76477236Y4651837D01*
X76231225Y4552687D01*
X76231216Y4552682D01*
X76003213Y4417132D01*
X75798571Y4248365D01*
X75622088Y4050337D01*
X75622081Y4050328D01*
X75477905Y3827695D01*
X75477904Y3827691D01*
X75369395Y3585643D01*
X75299108Y3329872D01*
X75268687Y3066363D01*
X35707660Y3066363D01*
X35641361Y3174552D01*
X35641357Y3174557D01*
X35580547Y3245756D01*
X35472391Y3372391D01*
X35364233Y3464766D01*
X35274556Y3541358D01*
X35274551Y3541362D01*
X35052721Y3677300D01*
X34812354Y3776863D01*
X34559373Y3837598D01*
X34300000Y3858011D01*
X34040626Y3837598D01*
X33787645Y3776863D01*
X33547278Y3677300D01*
X33325448Y3541362D01*
X33325443Y3541358D01*
X33127609Y3372391D01*
X32958642Y3174557D01*
X32958638Y3174552D01*
X32822700Y2952722D01*
X32723137Y2712355D01*
X32662402Y2459374D01*
X32641989Y2200000D01*
X32662402Y1940627D01*
X32723137Y1687646D01*
X32822700Y1447279D01*
X32958638Y1225449D01*
X32958642Y1225444D01*
X33018145Y1155775D01*
X33127609Y1027609D01*
X33254244Y919453D01*
X33325443Y858643D01*
X33325448Y858639D01*
X33547278Y722701D01*
X33792147Y621273D01*
X33791650Y620076D01*
X33844419Y583992D01*
X33871616Y519633D01*
X33859701Y450787D01*
X33812456Y399312D01*
X33748424Y381500D01*
X3001742Y381500D01*
X2998265Y381598D01*
X2710297Y397770D01*
X2703385Y398549D01*
X2663072Y405399D01*
X2420765Y446568D01*
X2413982Y448116D01*
X2138511Y527477D01*
X2131944Y529776D01*
X1906546Y623138D01*
X1867091Y639481D01*
X1860826Y642499D01*
X1609924Y781168D01*
X1604032Y784870D01*
X1370235Y950758D01*
X1364794Y955096D01*
X1151039Y1146120D01*
X1146119Y1151040D01*
X955095Y1364795D01*
X950757Y1370236D01*
X784869Y1604033D01*
X781167Y1609925D01*
X642498Y1860827D01*
X639483Y1867084D01*
X560309Y2058228D01*
X529775Y2131945D01*
X527476Y2138512D01*
X517740Y2172306D01*
X448115Y2413983D01*
X446567Y2420766D01*
X440007Y2459374D01*
X398546Y2703401D01*
X397770Y2710288D01*
X385227Y2933638D01*
X381598Y2998265D01*
X381500Y3001742D01*
X381500Y3066363D01*
X1268687Y3066363D01*
X1278846Y2801301D01*
X1329350Y2540894D01*
X1419009Y2291257D01*
X1419012Y2291250D01*
X1545726Y2058228D01*
X1545729Y2058223D01*
X1706530Y1847272D01*
X1706534Y1847267D01*
X1897657Y1663330D01*
X2114617Y1510723D01*
X2352331Y1393024D01*
X2605225Y1312991D01*
X2867372Y1272500D01*
X2867376Y1272500D01*
X3066219Y1272500D01*
X3066220Y1272500D01*
X3264478Y1287721D01*
X3522756Y1348161D01*
X3577528Y1370236D01*
X3768774Y1447314D01*
X3768779Y1447317D01*
X3768782Y1447318D01*
X3996788Y1582869D01*
X4201430Y1751636D01*
X4377912Y1949664D01*
X4448215Y2058224D01*
X4522094Y2172306D01*
X4522094Y2172308D01*
X4522096Y2172310D01*
X4630604Y2414357D01*
X4700892Y2670131D01*
X4731313Y2933637D01*
X4721153Y3198699D01*
X4670650Y3459103D01*
X4641107Y3541359D01*
X4580990Y3708744D01*
X4580987Y3708751D01*
X4454273Y3941773D01*
X4454270Y3941778D01*
X4293469Y4152729D01*
X4293466Y4152733D01*
X4102343Y4336670D01*
X4102339Y4336673D01*
X3885382Y4489278D01*
X3647670Y4606976D01*
X3647667Y4606977D01*
X3394777Y4687009D01*
X3289916Y4703206D01*
X3132628Y4727500D01*
X2933780Y4727500D01*
X2735522Y4712279D01*
X2735518Y4712279D01*
X2477246Y4651840D01*
X2477236Y4651837D01*
X2231225Y4552687D01*
X2231216Y4552682D01*
X2003213Y4417132D01*
X1798571Y4248365D01*
X1622088Y4050337D01*
X1622081Y4050328D01*
X1477905Y3827695D01*
X1477904Y3827691D01*
X1369395Y3585643D01*
X1299108Y3329872D01*
X1268687Y3066363D01*
X381500Y3066363D01*
X381500Y4899998D01*
X23863744Y4899998D01*
X23882648Y4780644D01*
X23937511Y4672967D01*
X24022966Y4587512D01*
X24130643Y4532649D01*
X24249998Y4513745D01*
X24250000Y4513745D01*
X24250002Y4513745D01*
X24369356Y4532649D01*
X24369357Y4532650D01*
X24369359Y4532650D01*
X24477035Y4587513D01*
X24562487Y4672965D01*
X24617350Y4780641D01*
X24617350Y4780643D01*
X24617351Y4780644D01*
X24636255Y4899998D01*
X47113745Y4899998D01*
X47132648Y4780644D01*
X47187511Y4672967D01*
X47272966Y4587512D01*
X47380643Y4532649D01*
X47499998Y4513745D01*
X47500000Y4513745D01*
X47500002Y4513745D01*
X47619356Y4532649D01*
X47619357Y4532650D01*
X47619359Y4532650D01*
X47727035Y4587513D01*
X47812487Y4672965D01*
X47867350Y4780641D01*
X47867350Y4780643D01*
X47867351Y4780644D01*
X47877527Y4844892D01*
X47903163Y4898973D01*
X47902224Y4901029D01*
X48096836Y4901029D01*
X48122473Y4844892D01*
X48132648Y4780644D01*
X48187511Y4672967D01*
X48272966Y4587512D01*
X48380643Y4532649D01*
X48499998Y4513745D01*
X48500000Y4513745D01*
X48500002Y4513745D01*
X48619356Y4532649D01*
X48619357Y4532650D01*
X48619359Y4532650D01*
X48727035Y4587513D01*
X48812487Y4672965D01*
X48867350Y4780641D01*
X48867350Y4780643D01*
X48867351Y4780644D01*
X48886255Y4899998D01*
X48886255Y4900003D01*
X48867351Y5019357D01*
X48812488Y5127034D01*
X48727033Y5212489D01*
X48619356Y5267352D01*
X48500002Y5286255D01*
X48499998Y5286255D01*
X48380643Y5267352D01*
X48272966Y5212489D01*
X48187511Y5127034D01*
X48132648Y5019357D01*
X48122473Y4955109D01*
X48096836Y4901029D01*
X47902224Y4901029D01*
X47877527Y4955109D01*
X47867351Y5019357D01*
X47812488Y5127034D01*
X47727033Y5212489D01*
X47619356Y5267352D01*
X47500002Y5286255D01*
X47499998Y5286255D01*
X47380643Y5267352D01*
X47272966Y5212489D01*
X47187511Y5127034D01*
X47132648Y5019357D01*
X47113745Y4900003D01*
X47113745Y4899998D01*
X24636255Y4899998D01*
X24636255Y4900003D01*
X24617351Y5019357D01*
X24562488Y5127034D01*
X24477033Y5212489D01*
X24369356Y5267352D01*
X24250002Y5286255D01*
X24249998Y5286255D01*
X24130643Y5267352D01*
X24022966Y5212489D01*
X23937511Y5127034D01*
X23882648Y5019357D01*
X23863744Y4900003D01*
X23863744Y4899998D01*
X381500Y4899998D01*
X381500Y5492410D01*
X26721188Y5492410D01*
X26740091Y5373056D01*
X26794954Y5265379D01*
X26880409Y5179924D01*
X26988086Y5125061D01*
X27107441Y5106157D01*
X27107443Y5106157D01*
X27107445Y5106157D01*
X27226799Y5125061D01*
X27226800Y5125062D01*
X27226802Y5125062D01*
X27334478Y5179925D01*
X27419930Y5265377D01*
X27474793Y5373053D01*
X27474793Y5373055D01*
X27474794Y5373056D01*
X27493698Y5492410D01*
X27493698Y5492415D01*
X27474794Y5611769D01*
X27419931Y5719446D01*
X27334476Y5804901D01*
X27226799Y5859764D01*
X27107445Y5878667D01*
X27107441Y5878667D01*
X26988086Y5859764D01*
X26880409Y5804901D01*
X26794954Y5719446D01*
X26740091Y5611769D01*
X26721188Y5492415D01*
X26721188Y5492410D01*
X381500Y5492410D01*
X381500Y6299998D01*
X30013745Y6299998D01*
X30032648Y6180644D01*
X30087511Y6072967D01*
X30172966Y5987512D01*
X30280643Y5932649D01*
X30399998Y5913745D01*
X30400000Y5913745D01*
X30400002Y5913745D01*
X30519356Y5932649D01*
X30519357Y5932650D01*
X30519359Y5932650D01*
X30627035Y5987513D01*
X30712487Y6072965D01*
X30767350Y6180641D01*
X30767350Y6180643D01*
X30767351Y6180644D01*
X30786255Y6299998D01*
X30786255Y6300003D01*
X30767351Y6419357D01*
X30712489Y6527032D01*
X30712434Y6527108D01*
X30712395Y6527217D01*
X30708057Y6535731D01*
X30709156Y6536292D01*
X30688950Y6592913D01*
X30704770Y6660968D01*
X30712434Y6672892D01*
X30712484Y6672962D01*
X30712487Y6672965D01*
X30767350Y6780641D01*
X30767350Y6780643D01*
X30767351Y6780644D01*
X30786255Y6899998D01*
X30786255Y6900003D01*
X30767351Y7019357D01*
X30712488Y7127034D01*
X30627033Y7212489D01*
X30519356Y7267352D01*
X30400002Y7286255D01*
X30399998Y7286255D01*
X30280643Y7267352D01*
X30172966Y7212489D01*
X30087511Y7127034D01*
X30032648Y7019357D01*
X30013745Y6900003D01*
X30013745Y6899998D01*
X30032648Y6780644D01*
X30087512Y6672965D01*
X30087571Y6672884D01*
X30087611Y6672770D01*
X30091943Y6664269D01*
X30090844Y6663710D01*
X30111050Y6607077D01*
X30095224Y6539024D01*
X30087571Y6527116D01*
X30087512Y6527036D01*
X30032648Y6419357D01*
X30013745Y6300003D01*
X30013745Y6299998D01*
X381500Y6299998D01*
X381500Y6526904D01*
X24206506Y6526904D01*
X24220610Y6516082D01*
X24220613Y6516081D01*
X24355373Y6460262D01*
X24355378Y6460260D01*
X24499999Y6441220D01*
X24500001Y6441220D01*
X24644621Y6460260D01*
X24644626Y6460262D01*
X24779385Y6516080D01*
X24779386Y6516080D01*
X24793491Y6526904D01*
X25206506Y6526904D01*
X25220610Y6516082D01*
X25220613Y6516081D01*
X25355373Y6460262D01*
X25355378Y6460260D01*
X25499999Y6441220D01*
X25500001Y6441220D01*
X25644621Y6460260D01*
X25644626Y6460262D01*
X25779385Y6516080D01*
X25779386Y6516080D01*
X25793491Y6526904D01*
X26206506Y6526904D01*
X26220610Y6516082D01*
X26220613Y6516081D01*
X26355373Y6460262D01*
X26355378Y6460260D01*
X26499999Y6441220D01*
X26500001Y6441220D01*
X26644621Y6460260D01*
X26644626Y6460262D01*
X26779385Y6516080D01*
X26779386Y6516080D01*
X26793491Y6526904D01*
X26793491Y6526905D01*
X26500001Y6820395D01*
X26500000Y6820395D01*
X26206506Y6526904D01*
X25793491Y6526904D01*
X25793491Y6526905D01*
X25500001Y6820395D01*
X25500000Y6820395D01*
X25206506Y6526904D01*
X24793491Y6526904D01*
X24793491Y6526905D01*
X24500001Y6820395D01*
X24500000Y6820395D01*
X24206506Y6526904D01*
X381500Y6526904D01*
X381500Y8250000D01*
X3465963Y8250000D01*
X3486081Y7994377D01*
X3545938Y7745053D01*
X3644061Y7508163D01*
X3778032Y7289542D01*
X3778033Y7289540D01*
X3861826Y7191432D01*
X4362193Y7691800D01*
X4408805Y7627645D01*
X4539536Y7509934D01*
X4041430Y7011828D01*
X4139539Y6928034D01*
X4139541Y6928033D01*
X4358162Y6794062D01*
X4595052Y6695939D01*
X4844376Y6636082D01*
X5099999Y6615964D01*
X5355623Y6636082D01*
X5604947Y6695939D01*
X5841837Y6794062D01*
X6060458Y6928033D01*
X6060459Y6928034D01*
X6158568Y7011828D01*
X5660462Y7509933D01*
X5791195Y7627645D01*
X5837805Y7691799D01*
X6338172Y7191432D01*
X6421966Y7289541D01*
X6421967Y7289542D01*
X6555938Y7508163D01*
X6654061Y7745053D01*
X6713918Y7994377D01*
X6734036Y8250000D01*
X8465963Y8250000D01*
X8486081Y7994377D01*
X8545938Y7745053D01*
X8644061Y7508163D01*
X8778032Y7289542D01*
X8778033Y7289540D01*
X8861826Y7191432D01*
X9362193Y7691800D01*
X9408805Y7627645D01*
X9539536Y7509934D01*
X9041430Y7011828D01*
X9139539Y6928034D01*
X9139541Y6928033D01*
X9358162Y6794062D01*
X9595052Y6695939D01*
X9844376Y6636082D01*
X10100000Y6615964D01*
X10355623Y6636082D01*
X10604947Y6695939D01*
X10841837Y6794062D01*
X11060458Y6928033D01*
X11060459Y6928034D01*
X11144719Y7000000D01*
X23941220Y7000000D01*
X23960259Y6855379D01*
X23960260Y6855377D01*
X24016081Y6720613D01*
X24016086Y6720605D01*
X24026901Y6706509D01*
X24320395Y7000000D01*
X24344709Y7000000D01*
X24365514Y6922355D01*
X24422355Y6865514D01*
X24480254Y6850000D01*
X24519746Y6850000D01*
X24577645Y6865514D01*
X24634486Y6922354D01*
X24655291Y7000000D01*
X24655291Y7000001D01*
X24679604Y7000001D01*
X24679605Y6999999D01*
X24973095Y6706509D01*
X24995941Y6708006D01*
X25004061Y6708006D01*
X25026902Y6706509D01*
X25320395Y7000000D01*
X25344709Y7000000D01*
X25365514Y6922355D01*
X25422355Y6865514D01*
X25480254Y6850000D01*
X25519746Y6850000D01*
X25577645Y6865514D01*
X25634486Y6922354D01*
X25655291Y7000000D01*
X25679604Y7000000D01*
X25973095Y6706509D01*
X25995941Y6708006D01*
X26004061Y6708006D01*
X26026902Y6706509D01*
X26320395Y7000000D01*
X26344709Y7000000D01*
X26365514Y6922355D01*
X26422355Y6865514D01*
X26480254Y6850000D01*
X26519746Y6850000D01*
X26577645Y6865514D01*
X26634486Y6922354D01*
X26655291Y7000000D01*
X26679605Y7000000D01*
X26973095Y6706509D01*
X26973096Y6706509D01*
X26983920Y6720614D01*
X26983920Y6720615D01*
X27039738Y6855374D01*
X27039740Y6855379D01*
X27058780Y7000000D01*
X27058780Y7000001D01*
X27039740Y7144622D01*
X27039738Y7144627D01*
X26983919Y7279387D01*
X26983918Y7279390D01*
X26973096Y7293494D01*
X26679605Y7000001D01*
X26679605Y7000000D01*
X26655291Y7000000D01*
X26634486Y7077645D01*
X26577645Y7134486D01*
X26519746Y7150000D01*
X26480254Y7150000D01*
X26422355Y7134486D01*
X26365514Y7077646D01*
X26344709Y7000000D01*
X26320395Y7000000D01*
X26026901Y7293494D01*
X26004067Y7291996D01*
X25995946Y7291996D01*
X25973097Y7293494D01*
X25679605Y7000001D01*
X25679604Y7000000D01*
X25655291Y7000000D01*
X25634486Y7077645D01*
X25577645Y7134486D01*
X25519746Y7150000D01*
X25480254Y7150000D01*
X25422355Y7134486D01*
X25365514Y7077646D01*
X25344709Y7000000D01*
X25320395Y7000000D01*
X25026901Y7293494D01*
X25004067Y7291996D01*
X24995946Y7291996D01*
X24973097Y7293494D01*
X24679604Y7000001D01*
X24655291Y7000001D01*
X24634486Y7077645D01*
X24577645Y7134486D01*
X24519746Y7150000D01*
X24480254Y7150000D01*
X24422355Y7134486D01*
X24365514Y7077646D01*
X24344709Y7000000D01*
X24320395Y7000000D01*
X24026902Y7293493D01*
X24016080Y7279388D01*
X23960261Y7144627D01*
X23960259Y7144622D01*
X23941220Y7000001D01*
X23941220Y7000000D01*
X11144719Y7000000D01*
X11158568Y7011828D01*
X10660462Y7509933D01*
X10791195Y7627645D01*
X10837805Y7691799D01*
X11338172Y7191432D01*
X11421966Y7289541D01*
X11421967Y7289542D01*
X11534450Y7473098D01*
X24206507Y7473098D01*
X24500000Y7179605D01*
X24500001Y7179605D01*
X24793491Y7473098D01*
X25206507Y7473098D01*
X25500000Y7179605D01*
X25500001Y7179605D01*
X25793491Y7473098D01*
X26206507Y7473098D01*
X26500000Y7179605D01*
X26500001Y7179605D01*
X26793492Y7473099D01*
X26779395Y7483914D01*
X26779387Y7483919D01*
X26644623Y7539740D01*
X26644621Y7539741D01*
X26500001Y7558780D01*
X26499999Y7558780D01*
X26355378Y7539741D01*
X26355373Y7539739D01*
X26220612Y7483920D01*
X26206507Y7473098D01*
X25793491Y7473098D01*
X25793492Y7473099D01*
X25779395Y7483914D01*
X25779387Y7483919D01*
X25644623Y7539740D01*
X25644621Y7539741D01*
X25500001Y7558780D01*
X25499999Y7558780D01*
X25355378Y7539741D01*
X25355373Y7539739D01*
X25220612Y7483920D01*
X25206507Y7473098D01*
X24793491Y7473098D01*
X24793492Y7473099D01*
X24779395Y7483914D01*
X24779387Y7483919D01*
X24644623Y7539740D01*
X24644621Y7539741D01*
X24500001Y7558780D01*
X24499999Y7558780D01*
X24355378Y7539741D01*
X24355373Y7539739D01*
X24220612Y7483920D01*
X24206507Y7473098D01*
X11534450Y7473098D01*
X11555938Y7508163D01*
X11654061Y7745053D01*
X11713918Y7994377D01*
X11734036Y8250000D01*
X11713918Y8505624D01*
X11691261Y8599998D01*
X21713744Y8599998D01*
X21732648Y8480644D01*
X21787511Y8372967D01*
X21872966Y8287512D01*
X21980643Y8232649D01*
X22099998Y8213745D01*
X22100000Y8213745D01*
X22100002Y8213745D01*
X22219356Y8232649D01*
X22219357Y8232650D01*
X22219359Y8232650D01*
X22327035Y8287513D01*
X22412487Y8372965D01*
X22467350Y8480641D01*
X22467350Y8480643D01*
X22467351Y8480644D01*
X22486255Y8599998D01*
X22863744Y8599998D01*
X22882648Y8480644D01*
X22937511Y8372967D01*
X23022966Y8287512D01*
X23130643Y8232649D01*
X23249998Y8213745D01*
X23250000Y8213745D01*
X23250002Y8213745D01*
X23369356Y8232649D01*
X23369357Y8232650D01*
X23369359Y8232650D01*
X23477035Y8287513D01*
X23562487Y8372965D01*
X23617350Y8480641D01*
X23617350Y8480643D01*
X23617351Y8480644D01*
X23635711Y8596562D01*
X25511680Y8596562D01*
X25530584Y8477208D01*
X25585447Y8369531D01*
X25670902Y8284076D01*
X25778579Y8229213D01*
X25897934Y8210309D01*
X25897936Y8210309D01*
X25897938Y8210309D01*
X26017292Y8229213D01*
X26017293Y8229214D01*
X26017295Y8229214D01*
X26124971Y8284077D01*
X26210423Y8369529D01*
X26265286Y8477205D01*
X26265286Y8477207D01*
X26265287Y8477208D01*
X26284191Y8596562D01*
X26284191Y8596567D01*
X26265287Y8715921D01*
X26210424Y8823598D01*
X26124969Y8909053D01*
X26017292Y8963916D01*
X25897938Y8982819D01*
X25897934Y8982819D01*
X25778579Y8963916D01*
X25670902Y8909053D01*
X25585447Y8823598D01*
X25530584Y8715921D01*
X25511680Y8596567D01*
X25511680Y8596562D01*
X23635711Y8596562D01*
X23636255Y8599998D01*
X23636255Y8600003D01*
X23617351Y8719357D01*
X23562488Y8827034D01*
X23477033Y8912489D01*
X23369356Y8967352D01*
X23250002Y8986255D01*
X23249998Y8986255D01*
X23130643Y8967352D01*
X23022966Y8912489D01*
X22937511Y8827034D01*
X22882648Y8719357D01*
X22863744Y8600003D01*
X22863744Y8599998D01*
X22486255Y8599998D01*
X22486255Y8600003D01*
X22467351Y8719357D01*
X22412488Y8827034D01*
X22327033Y8912489D01*
X22219356Y8967352D01*
X22100002Y8986255D01*
X22099998Y8986255D01*
X21980643Y8967352D01*
X21872966Y8912489D01*
X21787511Y8827034D01*
X21732648Y8719357D01*
X21713744Y8600003D01*
X21713744Y8599998D01*
X11691261Y8599998D01*
X11654061Y8754948D01*
X11555938Y8991838D01*
X11421967Y9210459D01*
X11421966Y9210461D01*
X11338172Y9308570D01*
X10837804Y8808202D01*
X10791195Y8872355D01*
X10660462Y8990068D01*
X11158568Y9488174D01*
X11060460Y9571967D01*
X11060458Y9571968D01*
X10841837Y9705939D01*
X10604947Y9804062D01*
X10355623Y9863919D01*
X10100000Y9884037D01*
X9844376Y9863919D01*
X9595052Y9804062D01*
X9358162Y9705939D01*
X9139539Y9571966D01*
X9139534Y9571963D01*
X9041430Y9488174D01*
X9539537Y8990068D01*
X9408805Y8872355D01*
X9362194Y8808202D01*
X8861826Y9308570D01*
X8778037Y9210466D01*
X8778034Y9210461D01*
X8644061Y8991838D01*
X8545938Y8754948D01*
X8486081Y8505624D01*
X8465963Y8250000D01*
X6734036Y8250000D01*
X6713918Y8505624D01*
X6654061Y8754948D01*
X6555938Y8991838D01*
X6421967Y9210459D01*
X6421966Y9210461D01*
X6338172Y9308570D01*
X5837804Y8808203D01*
X5791195Y8872355D01*
X5660461Y8990068D01*
X6158568Y9488174D01*
X6060460Y9571967D01*
X6060458Y9571968D01*
X5841837Y9705939D01*
X5604947Y9804062D01*
X5355623Y9863919D01*
X5100000Y9884037D01*
X4844376Y9863919D01*
X4595052Y9804062D01*
X4358162Y9705939D01*
X4139539Y9571966D01*
X4139534Y9571963D01*
X4041430Y9488174D01*
X4539536Y8990067D01*
X4408805Y8872355D01*
X4362194Y8808202D01*
X3861826Y9308570D01*
X3778037Y9210466D01*
X3778034Y9210461D01*
X3644061Y8991838D01*
X3545938Y8754948D01*
X3486081Y8505624D01*
X3465963Y8250000D01*
X381500Y8250000D01*
X381500Y10099998D01*
X36913745Y10099998D01*
X36932648Y9980644D01*
X36987511Y9872967D01*
X37072966Y9787512D01*
X37180643Y9732649D01*
X37299998Y9713745D01*
X37300000Y9713745D01*
X37300002Y9713745D01*
X37419356Y9732649D01*
X37419357Y9732650D01*
X37419359Y9732650D01*
X37527035Y9787513D01*
X37612487Y9872965D01*
X37644068Y9934946D01*
X64347100Y9934946D01*
X64355972Y9890342D01*
X64355973Y9890339D01*
X64373627Y9863919D01*
X64389766Y9839766D01*
X64440342Y9805972D01*
X64440343Y9805972D01*
X64440345Y9805971D01*
X64462642Y9801536D01*
X64484943Y9797100D01*
X67115056Y9797101D01*
X67159658Y9805972D01*
X67210234Y9839766D01*
X67244028Y9890342D01*
X67252900Y9934943D01*
X67252900Y11249995D01*
X70342121Y11249995D01*
X70362004Y11010045D01*
X70421113Y10776627D01*
X70460202Y10687512D01*
X70517834Y10556126D01*
X70649529Y10354552D01*
X70812605Y10177404D01*
X70812608Y10177402D01*
X70812611Y10177399D01*
X71002607Y10029519D01*
X71002613Y10029515D01*
X71002616Y10029513D01*
X71214377Y9914913D01*
X71442112Y9836732D01*
X71679609Y9797100D01*
X71679610Y9797100D01*
X71920390Y9797100D01*
X71920391Y9797100D01*
X72157888Y9836732D01*
X72385623Y9914913D01*
X72597384Y10029513D01*
X72787395Y10177404D01*
X72950471Y10354552D01*
X73082166Y10556126D01*
X73178887Y10776627D01*
X73237995Y11010041D01*
X73257879Y11250000D01*
X73257779Y11251203D01*
X73237995Y11489956D01*
X73237995Y11489959D01*
X73178887Y11723373D01*
X73082166Y11943874D01*
X72950471Y12145448D01*
X72787395Y12322596D01*
X72787390Y12322600D01*
X72787388Y12322602D01*
X72597392Y12470482D01*
X72597386Y12470486D01*
X72385624Y12585087D01*
X72385619Y12585089D01*
X72157890Y12663268D01*
X71973545Y12694030D01*
X71920391Y12702900D01*
X71679609Y12702900D01*
X71626455Y12694030D01*
X71442109Y12663268D01*
X71214380Y12585089D01*
X71214375Y12585087D01*
X71002613Y12470486D01*
X71002607Y12470482D01*
X70812611Y12322602D01*
X70812608Y12322599D01*
X70812605Y12322597D01*
X70812605Y12322596D01*
X70801438Y12310465D01*
X70649529Y12145448D01*
X70517832Y11943871D01*
X70421113Y11723374D01*
X70362004Y11489956D01*
X70342121Y11250006D01*
X70342121Y11249995D01*
X67252900Y11249995D01*
X67252899Y12565056D01*
X67244028Y12609658D01*
X67244026Y12609660D01*
X67244026Y12609662D01*
X67210234Y12660234D01*
X67159659Y12694027D01*
X67159658Y12694028D01*
X67159657Y12694029D01*
X67159656Y12694029D01*
X67159654Y12694030D01*
X67115059Y12702900D01*
X64484945Y12702900D01*
X64440341Y12694028D01*
X64440338Y12694027D01*
X64389766Y12660235D01*
X64355971Y12609657D01*
X64355970Y12609655D01*
X64347100Y12565060D01*
X64347100Y9934946D01*
X37644068Y9934946D01*
X37667350Y9980641D01*
X37667350Y9980643D01*
X37667351Y9980644D01*
X37686255Y10099998D01*
X37686255Y10100003D01*
X37667351Y10219357D01*
X37612488Y10327034D01*
X37527033Y10412489D01*
X37419356Y10467352D01*
X37300002Y10486255D01*
X37299998Y10486255D01*
X37180643Y10467352D01*
X37072966Y10412489D01*
X36987511Y10327034D01*
X36932648Y10219357D01*
X36913745Y10100003D01*
X36913745Y10099998D01*
X381500Y10099998D01*
X381500Y10999998D01*
X34013745Y10999998D01*
X34032648Y10880644D01*
X34087511Y10772967D01*
X34172966Y10687512D01*
X34280643Y10632649D01*
X34399998Y10613745D01*
X34400000Y10613745D01*
X34400002Y10613745D01*
X34519356Y10632649D01*
X34519357Y10632650D01*
X34519359Y10632650D01*
X34627035Y10687513D01*
X34688319Y10748797D01*
X34749642Y10782282D01*
X34819334Y10777298D01*
X34875267Y10735426D01*
X34899684Y10669962D01*
X34900000Y10661116D01*
X34900000Y10550000D01*
X36000000Y10550000D01*
X36000000Y11937498D01*
X51913745Y11937498D01*
X51932648Y11818144D01*
X51987511Y11710467D01*
X52072966Y11625012D01*
X52180643Y11570149D01*
X52299998Y11551245D01*
X52300000Y11551245D01*
X52300002Y11551245D01*
X52419356Y11570149D01*
X52419357Y11570150D01*
X52419359Y11570150D01*
X52527035Y11625013D01*
X52612487Y11710465D01*
X52667350Y11818141D01*
X52667350Y11818143D01*
X52667351Y11818144D01*
X52686255Y11937498D01*
X52686255Y11937503D01*
X52676357Y11999998D01*
X60413745Y11999998D01*
X60432648Y11880644D01*
X60487511Y11772967D01*
X60572966Y11687512D01*
X60680643Y11632649D01*
X60799998Y11613745D01*
X60800000Y11613745D01*
X60800002Y11613745D01*
X60919356Y11632649D01*
X60919357Y11632650D01*
X60919359Y11632650D01*
X61027035Y11687513D01*
X61112487Y11772965D01*
X61167350Y11880641D01*
X61167350Y11880643D01*
X61167351Y11880644D01*
X61186255Y11999998D01*
X61186255Y12000003D01*
X61167351Y12119357D01*
X61112488Y12227034D01*
X61027033Y12312489D01*
X60919356Y12367352D01*
X60800002Y12386255D01*
X60799998Y12386255D01*
X60680643Y12367352D01*
X60572966Y12312489D01*
X60532660Y12272183D01*
X60477276Y12241943D01*
X60465505Y12183844D01*
X60432648Y12119357D01*
X60413745Y12000003D01*
X60413745Y11999998D01*
X52676357Y11999998D01*
X52667351Y12056855D01*
X52667350Y12056857D01*
X52667350Y12056859D01*
X52644838Y12101041D01*
X52631943Y12169708D01*
X52658220Y12234448D01*
X52715326Y12274705D01*
X52785132Y12277697D01*
X52811617Y12267819D01*
X52880641Y12232650D01*
X52880642Y12232650D01*
X52880644Y12232649D01*
X52999998Y12213745D01*
X53000000Y12213745D01*
X53000002Y12213745D01*
X53119356Y12232649D01*
X53119357Y12232650D01*
X53119359Y12232650D01*
X53227035Y12287513D01*
X53312487Y12372965D01*
X53367350Y12480641D01*
X53367350Y12480643D01*
X53367351Y12480644D01*
X53376356Y12537498D01*
X54488745Y12537498D01*
X54507648Y12418144D01*
X54562511Y12310467D01*
X54647966Y12225012D01*
X54755643Y12170149D01*
X54874998Y12151245D01*
X54875000Y12151245D01*
X54875002Y12151245D01*
X54994356Y12170149D01*
X54994357Y12170150D01*
X54994359Y12170150D01*
X55102035Y12225013D01*
X55112318Y12235298D01*
X55173642Y12268782D01*
X55243334Y12263798D01*
X55287681Y12235297D01*
X55297966Y12225012D01*
X55405643Y12170149D01*
X55524998Y12151245D01*
X55525000Y12151245D01*
X55525002Y12151245D01*
X55644356Y12170149D01*
X55644357Y12170150D01*
X55644359Y12170150D01*
X55752035Y12225013D01*
X55837487Y12310465D01*
X55892350Y12418141D01*
X55892350Y12418143D01*
X55892351Y12418144D01*
X55911255Y12537498D01*
X57088745Y12537498D01*
X57107648Y12418144D01*
X57162511Y12310467D01*
X57247966Y12225012D01*
X57355643Y12170149D01*
X57474998Y12151245D01*
X57475000Y12151245D01*
X57475002Y12151245D01*
X57594356Y12170149D01*
X57594357Y12170150D01*
X57594359Y12170150D01*
X57702035Y12225013D01*
X57712318Y12235298D01*
X57773642Y12268782D01*
X57843334Y12263798D01*
X57887681Y12235297D01*
X57897966Y12225012D01*
X58005643Y12170149D01*
X58124998Y12151245D01*
X58125000Y12151245D01*
X58125002Y12151245D01*
X58244356Y12170149D01*
X58244357Y12170150D01*
X58244359Y12170150D01*
X58352035Y12225013D01*
X58437487Y12310465D01*
X58492350Y12418141D01*
X58492350Y12418143D01*
X58492351Y12418144D01*
X58511255Y12537498D01*
X58511255Y12537503D01*
X58501357Y12599998D01*
X59613745Y12599998D01*
X59632648Y12480644D01*
X59687511Y12372967D01*
X59772966Y12287512D01*
X59880643Y12232649D01*
X59999998Y12213745D01*
X60000000Y12213745D01*
X60000002Y12213745D01*
X60119356Y12232649D01*
X60119357Y12232650D01*
X60119359Y12232650D01*
X60227035Y12287513D01*
X60267339Y12327818D01*
X60322722Y12358060D01*
X60334495Y12416159D01*
X60335505Y12418141D01*
X60367350Y12480641D01*
X60367350Y12480643D01*
X60367351Y12480644D01*
X60386255Y12599998D01*
X60386255Y12600003D01*
X60367351Y12719357D01*
X60312488Y12827034D01*
X60227033Y12912489D01*
X60119356Y12967352D01*
X60000002Y12986255D01*
X59999998Y12986255D01*
X59880643Y12967352D01*
X59772966Y12912489D01*
X59687511Y12827034D01*
X59632648Y12719357D01*
X59613745Y12600003D01*
X59613745Y12599998D01*
X58501357Y12599998D01*
X58492351Y12656857D01*
X58437488Y12764534D01*
X58352033Y12849989D01*
X58244356Y12904852D01*
X58125002Y12923755D01*
X58124998Y12923755D01*
X58005643Y12904852D01*
X57897967Y12849990D01*
X57887679Y12839701D01*
X57826355Y12806218D01*
X57756663Y12811204D01*
X57712321Y12839701D01*
X57702032Y12849990D01*
X57594356Y12904852D01*
X57475002Y12923755D01*
X57474998Y12923755D01*
X57355643Y12904852D01*
X57247966Y12849989D01*
X57162511Y12764534D01*
X57107648Y12656857D01*
X57088745Y12537503D01*
X57088745Y12537498D01*
X55911255Y12537498D01*
X55911255Y12537503D01*
X55892351Y12656857D01*
X55837488Y12764534D01*
X55752033Y12849989D01*
X55644356Y12904852D01*
X55525002Y12923755D01*
X55524998Y12923755D01*
X55405643Y12904852D01*
X55297965Y12849988D01*
X55297964Y12849988D01*
X55287675Y12839699D01*
X55226350Y12806217D01*
X55156659Y12811206D01*
X55112318Y12839704D01*
X55102033Y12849989D01*
X54994356Y12904852D01*
X54875002Y12923755D01*
X54874998Y12923755D01*
X54755643Y12904852D01*
X54647966Y12849989D01*
X54562511Y12764534D01*
X54507648Y12656857D01*
X54488745Y12537503D01*
X54488745Y12537498D01*
X53376356Y12537498D01*
X53386255Y12599998D01*
X53386255Y12600003D01*
X53367351Y12719357D01*
X53312488Y12827034D01*
X53227033Y12912489D01*
X53119356Y12967352D01*
X53000002Y12986255D01*
X52999998Y12986255D01*
X52880643Y12967352D01*
X52772966Y12912489D01*
X52687511Y12827034D01*
X52632648Y12719357D01*
X52613745Y12600003D01*
X52613745Y12599998D01*
X52632648Y12480644D01*
X52655160Y12436462D01*
X52668056Y12367792D01*
X52641779Y12303052D01*
X52584672Y12262796D01*
X52514866Y12259804D01*
X52488382Y12269682D01*
X52419355Y12304852D01*
X52300002Y12323755D01*
X52299998Y12323755D01*
X52180643Y12304852D01*
X52072966Y12249989D01*
X51987511Y12164534D01*
X51932648Y12056857D01*
X51913745Y11937503D01*
X51913745Y11937498D01*
X36000000Y11937498D01*
X36000000Y12250000D01*
X34900000Y12250000D01*
X34900000Y11338885D01*
X34880315Y11271846D01*
X34827511Y11226091D01*
X34758353Y11216147D01*
X34694797Y11245172D01*
X34688319Y11251203D01*
X34667676Y11271846D01*
X34627035Y11312487D01*
X34627032Y11312489D01*
X34627031Y11312490D01*
X34519356Y11367352D01*
X34400002Y11386255D01*
X34399998Y11386255D01*
X34280643Y11367352D01*
X34172966Y11312489D01*
X34087511Y11227034D01*
X34032648Y11119357D01*
X34013745Y11000003D01*
X34013745Y10999998D01*
X381500Y10999998D01*
X381500Y13499998D01*
X37113745Y13499998D01*
X37132648Y13380644D01*
X37187511Y13272967D01*
X37272966Y13187512D01*
X37380643Y13132649D01*
X37499998Y13113745D01*
X37500000Y13113745D01*
X37500002Y13113745D01*
X37619356Y13132649D01*
X37619357Y13132650D01*
X37619359Y13132650D01*
X37727035Y13187513D01*
X37812487Y13272965D01*
X37867350Y13380641D01*
X37867350Y13380643D01*
X37867351Y13380644D01*
X37886255Y13499998D01*
X37886255Y13500003D01*
X37867351Y13619357D01*
X37812488Y13727034D01*
X37727033Y13812489D01*
X37619356Y13867352D01*
X37500002Y13886255D01*
X37499998Y13886255D01*
X37380643Y13867352D01*
X37272966Y13812489D01*
X37187511Y13727034D01*
X37132648Y13619357D01*
X37113745Y13500003D01*
X37113745Y13499998D01*
X381500Y13499998D01*
X381500Y15750000D01*
X3465963Y15750000D01*
X3486081Y15494377D01*
X3545938Y15245053D01*
X3644061Y15008163D01*
X3778032Y14789542D01*
X3778033Y14789540D01*
X3861826Y14691432D01*
X4362193Y15191800D01*
X4408805Y15127645D01*
X4539536Y15009934D01*
X4041430Y14511828D01*
X4139539Y14428034D01*
X4139541Y14428033D01*
X4358162Y14294062D01*
X4595052Y14195939D01*
X4844376Y14136082D01*
X5100000Y14115964D01*
X5355623Y14136082D01*
X5604947Y14195939D01*
X5841837Y14294062D01*
X6060458Y14428033D01*
X6060459Y14428034D01*
X6158568Y14511828D01*
X5660462Y15009933D01*
X5791195Y15127645D01*
X5837805Y15191799D01*
X6338172Y14691432D01*
X6421966Y14789541D01*
X6421967Y14789542D01*
X6555938Y15008163D01*
X6654061Y15245053D01*
X6713918Y15494377D01*
X6734036Y15750000D01*
X8465963Y15750000D01*
X8486081Y15494377D01*
X8545938Y15245053D01*
X8644061Y15008163D01*
X8778032Y14789542D01*
X8778033Y14789540D01*
X8861826Y14691432D01*
X9362193Y15191800D01*
X9408805Y15127645D01*
X9539536Y15009934D01*
X9041430Y14511828D01*
X9139539Y14428034D01*
X9139541Y14428033D01*
X9358162Y14294062D01*
X9595052Y14195939D01*
X9844376Y14136082D01*
X10100000Y14115964D01*
X10355623Y14136082D01*
X10604947Y14195939D01*
X10841837Y14294062D01*
X11060458Y14428033D01*
X11060459Y14428034D01*
X11158568Y14511828D01*
X10660462Y15009933D01*
X10791195Y15127645D01*
X10837805Y15191799D01*
X11338172Y14691432D01*
X11421966Y14789541D01*
X11421967Y14789542D01*
X11555938Y15008163D01*
X11654061Y15245053D01*
X11713918Y15494377D01*
X11734036Y15750000D01*
X11713918Y16005624D01*
X11710467Y16019998D01*
X34013745Y16019998D01*
X34032648Y15900644D01*
X34087511Y15792967D01*
X34172966Y15707512D01*
X34280643Y15652649D01*
X34399998Y15633745D01*
X34400000Y15633745D01*
X34400002Y15633745D01*
X34519356Y15652649D01*
X34519357Y15652650D01*
X34519359Y15652650D01*
X34627035Y15707513D01*
X34712487Y15792965D01*
X34767350Y15900641D01*
X34767350Y15900643D01*
X34767351Y15900644D01*
X34786255Y16019998D01*
X34786255Y16020003D01*
X34767351Y16139357D01*
X34712488Y16247034D01*
X34627033Y16332489D01*
X34519356Y16387352D01*
X34400002Y16406255D01*
X34399998Y16406255D01*
X34280643Y16387352D01*
X34172966Y16332489D01*
X34087511Y16247034D01*
X34032648Y16139357D01*
X34013745Y16020003D01*
X34013745Y16019998D01*
X11710467Y16019998D01*
X11654061Y16254948D01*
X11573268Y16450000D01*
X35550000Y16450000D01*
X35550000Y14750000D01*
X36650000Y14750000D01*
X36650000Y15299998D01*
X40813745Y15299998D01*
X40832648Y15180644D01*
X40887511Y15072967D01*
X40972966Y14987512D01*
X41080643Y14932649D01*
X41199998Y14913745D01*
X41200000Y14913745D01*
X41200002Y14913745D01*
X41319356Y14932649D01*
X41319357Y14932650D01*
X41319359Y14932650D01*
X41427035Y14987513D01*
X41512487Y15072965D01*
X41567350Y15180641D01*
X41567350Y15180643D01*
X41567351Y15180644D01*
X41586255Y15299998D01*
X41586255Y15300003D01*
X41567351Y15419357D01*
X41512488Y15527034D01*
X41427033Y15612489D01*
X41319356Y15667352D01*
X41200002Y15686255D01*
X41199998Y15686255D01*
X41080643Y15667352D01*
X40972966Y15612489D01*
X40887511Y15527034D01*
X40832648Y15419357D01*
X40813745Y15300003D01*
X40813745Y15299998D01*
X36650000Y15299998D01*
X36650000Y15949995D01*
X67342121Y15949995D01*
X67362004Y15710045D01*
X67421113Y15476627D01*
X67505189Y15284952D01*
X67517834Y15256126D01*
X67649529Y15054552D01*
X67812605Y14877404D01*
X67812608Y14877402D01*
X67812611Y14877399D01*
X68002607Y14729519D01*
X68002613Y14729515D01*
X68002616Y14729513D01*
X68214377Y14614913D01*
X68442112Y14536732D01*
X68679609Y14497100D01*
X68679610Y14497100D01*
X68920390Y14497100D01*
X68920391Y14497100D01*
X69157888Y14536732D01*
X69385623Y14614913D01*
X69597384Y14729513D01*
X69787395Y14877404D01*
X69950471Y15054552D01*
X70082166Y15256126D01*
X70178887Y15476627D01*
X70237995Y15710041D01*
X70257879Y15950000D01*
X70252078Y16020003D01*
X70237995Y16189956D01*
X70237995Y16189959D01*
X70178887Y16423373D01*
X70082166Y16643874D01*
X69950471Y16845448D01*
X69787395Y17022596D01*
X69787390Y17022600D01*
X69787388Y17022602D01*
X69597392Y17170482D01*
X69597386Y17170486D01*
X69385624Y17285087D01*
X69385619Y17285089D01*
X69157890Y17363268D01*
X68937751Y17400003D01*
X68920391Y17402900D01*
X68679609Y17402900D01*
X68662249Y17400003D01*
X68442109Y17363268D01*
X68214380Y17285089D01*
X68214375Y17285087D01*
X68002613Y17170486D01*
X68002607Y17170482D01*
X67812611Y17022602D01*
X67812608Y17022599D01*
X67812605Y17022597D01*
X67812605Y17022596D01*
X67745779Y16950003D01*
X67649529Y16845448D01*
X67517832Y16643871D01*
X67421113Y16423374D01*
X67362004Y16189956D01*
X67342121Y15950006D01*
X67342121Y15949995D01*
X36650000Y15949995D01*
X36650000Y16450000D01*
X35550000Y16450000D01*
X11573268Y16450000D01*
X11555938Y16491838D01*
X11421967Y16710459D01*
X11421966Y16710461D01*
X11338172Y16808570D01*
X10837804Y16308202D01*
X10791195Y16372355D01*
X10660462Y16490068D01*
X11120392Y16949998D01*
X29263744Y16949998D01*
X29282648Y16830644D01*
X29337511Y16722967D01*
X29422966Y16637512D01*
X29530643Y16582649D01*
X29649998Y16563745D01*
X29650000Y16563745D01*
X29650002Y16563745D01*
X29769356Y16582649D01*
X29769357Y16582650D01*
X29769359Y16582650D01*
X29877035Y16637513D01*
X29962487Y16722965D01*
X30017350Y16830641D01*
X30017350Y16830643D01*
X30017351Y16830644D01*
X30036255Y16949998D01*
X34713745Y16949998D01*
X34732648Y16830644D01*
X34787511Y16722967D01*
X34872966Y16637512D01*
X34980643Y16582649D01*
X35099998Y16563745D01*
X35100000Y16563745D01*
X35100002Y16563745D01*
X35219356Y16582649D01*
X35219357Y16582650D01*
X35219359Y16582650D01*
X35327035Y16637513D01*
X35412487Y16722965D01*
X35467350Y16830641D01*
X35467350Y16830643D01*
X35467351Y16830644D01*
X35486255Y16949998D01*
X44713745Y16949998D01*
X44732648Y16830644D01*
X44787511Y16722967D01*
X44872966Y16637512D01*
X44980643Y16582649D01*
X45099998Y16563745D01*
X45100000Y16563745D01*
X45100002Y16563745D01*
X45219356Y16582649D01*
X45219357Y16582650D01*
X45219359Y16582650D01*
X45327035Y16637513D01*
X45412487Y16722965D01*
X45467350Y16830641D01*
X45467350Y16830643D01*
X45467351Y16830644D01*
X45478336Y16899998D01*
X47813745Y16899998D01*
X47832648Y16780644D01*
X47887511Y16672967D01*
X47972966Y16587512D01*
X48080643Y16532649D01*
X48199998Y16513745D01*
X48200000Y16513745D01*
X48200002Y16513745D01*
X48319356Y16532649D01*
X48319357Y16532650D01*
X48319359Y16532650D01*
X48427035Y16587513D01*
X48512487Y16672965D01*
X48567350Y16780641D01*
X48567350Y16780643D01*
X48567351Y16780644D01*
X48586255Y16899998D01*
X48586255Y16900003D01*
X48567351Y17019357D01*
X48512488Y17127034D01*
X48427033Y17212489D01*
X48319356Y17267352D01*
X48200002Y17286255D01*
X48199998Y17286255D01*
X48080643Y17267352D01*
X47972966Y17212489D01*
X47887511Y17127034D01*
X47832648Y17019357D01*
X47813745Y16900003D01*
X47813745Y16899998D01*
X45478336Y16899998D01*
X45486255Y16949998D01*
X45486255Y16950003D01*
X45467351Y17069357D01*
X45412488Y17177034D01*
X45327033Y17262489D01*
X45219356Y17317352D01*
X45100002Y17336255D01*
X45099998Y17336255D01*
X44980643Y17317352D01*
X44872966Y17262489D01*
X44787511Y17177034D01*
X44732648Y17069357D01*
X44713745Y16950003D01*
X44713745Y16949998D01*
X35486255Y16949998D01*
X35486255Y16950003D01*
X35467351Y17069357D01*
X35412488Y17177034D01*
X35327033Y17262489D01*
X35219356Y17317352D01*
X35100002Y17336255D01*
X35099998Y17336255D01*
X34980643Y17317352D01*
X34872966Y17262489D01*
X34787511Y17177034D01*
X34732648Y17069357D01*
X34713745Y16950003D01*
X34713745Y16949998D01*
X30036255Y16949998D01*
X30036255Y16950003D01*
X30017351Y17069357D01*
X29962488Y17177034D01*
X29877033Y17262489D01*
X29769356Y17317352D01*
X29650002Y17336255D01*
X29649998Y17336255D01*
X29530643Y17317352D01*
X29422966Y17262489D01*
X29337511Y17177034D01*
X29282648Y17069357D01*
X29263744Y16950003D01*
X29263744Y16949998D01*
X11120392Y16949998D01*
X11158568Y16988174D01*
X11060460Y17071967D01*
X11060458Y17071968D01*
X10841837Y17205939D01*
X10604947Y17304062D01*
X10355623Y17363919D01*
X10100000Y17384037D01*
X9844376Y17363919D01*
X9595052Y17304062D01*
X9358162Y17205939D01*
X9139539Y17071966D01*
X9139534Y17071963D01*
X9041430Y16988174D01*
X9539537Y16490068D01*
X9408805Y16372355D01*
X9362194Y16308202D01*
X8861826Y16808570D01*
X8778037Y16710466D01*
X8778034Y16710461D01*
X8644061Y16491838D01*
X8545938Y16254948D01*
X8486081Y16005624D01*
X8465963Y15750000D01*
X6734036Y15750000D01*
X6713918Y16005624D01*
X6654061Y16254948D01*
X6555938Y16491838D01*
X6421967Y16710459D01*
X6421966Y16710461D01*
X6338172Y16808570D01*
X5837804Y16308203D01*
X5791195Y16372355D01*
X5660462Y16490068D01*
X6158568Y16988174D01*
X6060460Y17071967D01*
X6060458Y17071968D01*
X5841837Y17205939D01*
X5604947Y17304062D01*
X5355623Y17363919D01*
X5099999Y17384037D01*
X4844376Y17363919D01*
X4595052Y17304062D01*
X4358162Y17205939D01*
X4139539Y17071966D01*
X4139534Y17071963D01*
X4041430Y16988174D01*
X4539537Y16490068D01*
X4408805Y16372355D01*
X4362194Y16308202D01*
X3861826Y16808570D01*
X3778037Y16710466D01*
X3778034Y16710461D01*
X3644061Y16491838D01*
X3545938Y16254948D01*
X3486081Y16005624D01*
X3465963Y15750000D01*
X381500Y15750000D01*
X381500Y17399998D01*
X59513745Y17399998D01*
X59532648Y17280644D01*
X59587511Y17172967D01*
X59672966Y17087512D01*
X59780643Y17032649D01*
X59899998Y17013745D01*
X59900000Y17013745D01*
X59900002Y17013745D01*
X60019356Y17032649D01*
X60019357Y17032650D01*
X60019359Y17032650D01*
X60127035Y17087513D01*
X60212487Y17172965D01*
X60267350Y17280641D01*
X60267350Y17280643D01*
X60267351Y17280644D01*
X60286255Y17399998D01*
X60286255Y17400003D01*
X60267351Y17519357D01*
X60212488Y17627034D01*
X60127033Y17712489D01*
X60019356Y17767352D01*
X59900002Y17786255D01*
X59899998Y17786255D01*
X59780643Y17767352D01*
X59672966Y17712489D01*
X59587511Y17627034D01*
X59532648Y17519357D01*
X59513745Y17400003D01*
X59513745Y17399998D01*
X381500Y17399998D01*
X381500Y17999998D01*
X24063744Y17999998D01*
X24082648Y17880644D01*
X24137511Y17772967D01*
X24222966Y17687512D01*
X24330643Y17632649D01*
X24449998Y17613745D01*
X24450000Y17613745D01*
X24450002Y17613745D01*
X24569356Y17632649D01*
X24569357Y17632650D01*
X24569359Y17632650D01*
X24677035Y17687513D01*
X24762487Y17772965D01*
X24817350Y17880641D01*
X24817350Y17880643D01*
X24817351Y17880644D01*
X24820416Y17899998D01*
X62213745Y17899998D01*
X62232648Y17780644D01*
X62287511Y17672967D01*
X62372966Y17587512D01*
X62480643Y17532649D01*
X62599998Y17513745D01*
X62600000Y17513745D01*
X62600002Y17513745D01*
X62719356Y17532649D01*
X62719357Y17532650D01*
X62719359Y17532650D01*
X62827035Y17587513D01*
X62912487Y17672965D01*
X62967350Y17780641D01*
X62967350Y17780643D01*
X62967351Y17780644D01*
X62986255Y17899998D01*
X62986255Y17900003D01*
X62967351Y18019357D01*
X62912488Y18127034D01*
X62827033Y18212489D01*
X62719356Y18267352D01*
X62600002Y18286255D01*
X62599998Y18286255D01*
X62480643Y18267352D01*
X62372966Y18212489D01*
X62287511Y18127034D01*
X62232648Y18019357D01*
X62213745Y17900003D01*
X62213745Y17899998D01*
X24820416Y17899998D01*
X24836255Y17999998D01*
X24836255Y18000003D01*
X24817351Y18119357D01*
X24762488Y18227034D01*
X24677033Y18312489D01*
X24569356Y18367352D01*
X24506686Y18377277D01*
X24451057Y18403648D01*
X24393313Y18377277D01*
X24330643Y18367352D01*
X24222966Y18312489D01*
X24137511Y18227034D01*
X24082648Y18119357D01*
X24063744Y18000003D01*
X24063744Y17999998D01*
X381500Y17999998D01*
X381500Y18999498D01*
X24063744Y18999498D01*
X24082648Y18880144D01*
X24137511Y18772467D01*
X24222966Y18687012D01*
X24330643Y18632149D01*
X24393313Y18622223D01*
X24448941Y18595853D01*
X24506686Y18622223D01*
X24569356Y18632149D01*
X24569357Y18632150D01*
X24569359Y18632150D01*
X24677035Y18687013D01*
X24762487Y18772465D01*
X24804539Y18854998D01*
X55713745Y18854998D01*
X55732648Y18735644D01*
X55787511Y18627967D01*
X55872966Y18542512D01*
X55980643Y18487649D01*
X56099998Y18468745D01*
X56100000Y18468745D01*
X56100002Y18468745D01*
X56219356Y18487649D01*
X56219357Y18487650D01*
X56219359Y18487650D01*
X56327035Y18542513D01*
X56412487Y18627965D01*
X56467350Y18735641D01*
X56467350Y18735643D01*
X56467351Y18735644D01*
X56486255Y18854998D01*
X56486255Y18855003D01*
X56467351Y18974357D01*
X56412488Y19082034D01*
X56327033Y19167489D01*
X56219356Y19222352D01*
X56100002Y19241255D01*
X56099998Y19241255D01*
X55980643Y19222352D01*
X55872966Y19167489D01*
X55787511Y19082034D01*
X55732648Y18974357D01*
X55713745Y18855003D01*
X55713745Y18854998D01*
X24804539Y18854998D01*
X24817350Y18880141D01*
X24817350Y18880143D01*
X24817351Y18880144D01*
X24836255Y18999498D01*
X24836255Y18999503D01*
X24817351Y19118857D01*
X24762488Y19226534D01*
X24677033Y19311989D01*
X24569356Y19366852D01*
X24450002Y19385755D01*
X24449998Y19385755D01*
X24330643Y19366852D01*
X24222966Y19311989D01*
X24137511Y19226534D01*
X24082648Y19118857D01*
X24063744Y18999503D01*
X24063744Y18999498D01*
X381500Y18999498D01*
X381500Y19799998D01*
X44954142Y19799998D01*
X44973045Y19680644D01*
X45027908Y19572967D01*
X45113363Y19487512D01*
X45221040Y19432649D01*
X45340395Y19413745D01*
X45340397Y19413745D01*
X45340399Y19413745D01*
X45459753Y19432649D01*
X45459754Y19432650D01*
X45459756Y19432650D01*
X45567432Y19487513D01*
X45652884Y19572965D01*
X45707747Y19680641D01*
X45707747Y19680643D01*
X45707748Y19680644D01*
X45726652Y19799998D01*
X45726652Y19800003D01*
X45707748Y19919357D01*
X45652885Y20027034D01*
X45567430Y20112489D01*
X45459753Y20167352D01*
X45340399Y20186255D01*
X45340395Y20186255D01*
X45221040Y20167352D01*
X45113363Y20112489D01*
X45027908Y20027034D01*
X44973045Y19919357D01*
X44954142Y19800003D01*
X44954142Y19799998D01*
X381500Y19799998D01*
X381500Y21723394D01*
X1781188Y21723394D01*
X1800401Y21491521D01*
X1857520Y21265962D01*
X1950987Y21052879D01*
X2078247Y20858093D01*
X2110283Y20823291D01*
X2110284Y20823291D01*
X2470091Y21183099D01*
X2517486Y21117866D01*
X2647239Y21001036D01*
X2290535Y20644332D01*
X2290535Y20644330D01*
X2419444Y20543996D01*
X2419455Y20543989D01*
X2624080Y20433252D01*
X2624094Y20433246D01*
X2844154Y20357698D01*
X3073661Y20319400D01*
X3306339Y20319400D01*
X3535845Y20357698D01*
X3755905Y20433246D01*
X3755919Y20433252D01*
X3960541Y20543987D01*
X3960544Y20543989D01*
X4089463Y20644332D01*
X3732760Y21001035D01*
X3862514Y21117866D01*
X3909907Y21183098D01*
X4269714Y20823291D01*
X4269715Y20823291D01*
X4301752Y20858093D01*
X4429012Y21052879D01*
X4522479Y21265962D01*
X4579598Y21491521D01*
X4598812Y21723394D01*
X4598812Y21723407D01*
X4579598Y21955280D01*
X4522479Y22180839D01*
X4429012Y22393920D01*
X4419698Y22408177D01*
X4399510Y22475066D01*
X4418689Y22542252D01*
X4471147Y22588403D01*
X4523506Y22600000D01*
X8409694Y22600000D01*
X8476733Y22580315D01*
X8522488Y22527511D01*
X8532432Y22458353D01*
X8513502Y22408177D01*
X8504187Y22393920D01*
X8410720Y22180839D01*
X8353601Y21955280D01*
X8334388Y21723407D01*
X8334388Y21723394D01*
X8353601Y21491521D01*
X8410720Y21265962D01*
X8504187Y21052879D01*
X8631447Y20858093D01*
X8663483Y20823291D01*
X8663484Y20823291D01*
X9023291Y21183099D01*
X9070686Y21117866D01*
X9200439Y21001036D01*
X8843735Y20644332D01*
X8843735Y20644330D01*
X8972644Y20543996D01*
X8972655Y20543989D01*
X9177280Y20433252D01*
X9177294Y20433246D01*
X9397354Y20357698D01*
X9626861Y20319400D01*
X9859539Y20319400D01*
X10089045Y20357698D01*
X10309105Y20433246D01*
X10309119Y20433252D01*
X10513741Y20543987D01*
X10513744Y20543989D01*
X10642663Y20644332D01*
X10606997Y20679998D01*
X72367020Y20679998D01*
X72387276Y20500211D01*
X72432690Y20370427D01*
X72447035Y20329431D01*
X72543296Y20176233D01*
X72671233Y20048296D01*
X72824431Y19952035D01*
X72954212Y19906623D01*
X72995210Y19892277D01*
X73081354Y19882572D01*
X73129909Y19877101D01*
X73129910Y19877100D01*
X73129914Y19877100D01*
X74220090Y19877100D01*
X74220090Y19877101D01*
X74281174Y19883984D01*
X74354789Y19892277D01*
X74354792Y19892278D01*
X74525569Y19952035D01*
X74678767Y20048296D01*
X74806704Y20176233D01*
X74902965Y20329431D01*
X74962722Y20500208D01*
X74962722Y20500209D01*
X74962723Y20500211D01*
X74982980Y20679998D01*
X76042020Y20679998D01*
X76062276Y20500211D01*
X76107690Y20370427D01*
X76122035Y20329431D01*
X76218296Y20176233D01*
X76346233Y20048296D01*
X76499431Y19952035D01*
X76629212Y19906623D01*
X76670210Y19892277D01*
X76756354Y19882572D01*
X76804909Y19877101D01*
X76804910Y19877100D01*
X76804914Y19877100D01*
X78195090Y19877100D01*
X78195090Y19877101D01*
X78256174Y19883984D01*
X78329789Y19892277D01*
X78329792Y19892278D01*
X78500569Y19952035D01*
X78653767Y20048296D01*
X78781704Y20176233D01*
X78877965Y20329431D01*
X78937722Y20500208D01*
X78937722Y20500209D01*
X78937723Y20500211D01*
X78957980Y20679998D01*
X78957980Y20680003D01*
X78937723Y20859790D01*
X78923377Y20900788D01*
X78877965Y21030569D01*
X78781704Y21183767D01*
X78653767Y21311704D01*
X78620432Y21332650D01*
X78500571Y21407964D01*
X78500570Y21407965D01*
X78500569Y21407965D01*
X78459573Y21422310D01*
X78329789Y21467724D01*
X78195090Y21482900D01*
X78195086Y21482900D01*
X76804914Y21482900D01*
X76804910Y21482900D01*
X76670210Y21467724D01*
X76499428Y21407964D01*
X76346232Y21311704D01*
X76218296Y21183768D01*
X76122036Y21030572D01*
X76062276Y20859790D01*
X76042020Y20680003D01*
X76042020Y20679998D01*
X74982980Y20679998D01*
X74982980Y20680003D01*
X74962723Y20859790D01*
X74948377Y20900788D01*
X74902965Y21030569D01*
X74806704Y21183767D01*
X74678767Y21311704D01*
X74555152Y21389377D01*
X74508862Y21441711D01*
X74498214Y21510765D01*
X74526589Y21574613D01*
X74567318Y21606087D01*
X74643540Y21642793D01*
X74738008Y21730447D01*
X74802444Y21842052D01*
X74831120Y21967692D01*
X74830783Y21972183D01*
X74821490Y22096201D01*
X74774408Y22216165D01*
X74694056Y22316922D01*
X74587581Y22389515D01*
X74587579Y22389516D01*
X74464436Y22427500D01*
X74464435Y22427500D01*
X74367961Y22427500D01*
X74367955Y22427500D01*
X74272569Y22413122D01*
X74156458Y22357207D01*
X74061992Y22269554D01*
X74061989Y22269549D01*
X73997557Y22157951D01*
X73997556Y22157948D01*
X73968880Y22032308D01*
X73968879Y22032307D01*
X73978509Y21903800D01*
X74025591Y21783836D01*
X74068164Y21730452D01*
X74105039Y21684212D01*
X74131447Y21619527D01*
X74118692Y21550831D01*
X74070821Y21499937D01*
X74008092Y21482900D01*
X73129910Y21482900D01*
X72995210Y21467724D01*
X72824428Y21407964D01*
X72671232Y21311704D01*
X72543296Y21183768D01*
X72447036Y21030572D01*
X72387276Y20859790D01*
X72367020Y20680003D01*
X72367020Y20679998D01*
X10606997Y20679998D01*
X10285960Y21001035D01*
X10415714Y21117866D01*
X10463107Y21183098D01*
X10822914Y20823291D01*
X10822915Y20823291D01*
X10854952Y20858093D01*
X10982212Y21052879D01*
X11075679Y21265962D01*
X11109621Y21399998D01*
X20613744Y21399998D01*
X20632648Y21280644D01*
X20687511Y21172967D01*
X20772966Y21087512D01*
X20880643Y21032649D01*
X20999998Y21013745D01*
X21000000Y21013745D01*
X21000002Y21013745D01*
X21119356Y21032649D01*
X21119357Y21032650D01*
X21119359Y21032650D01*
X21227035Y21087513D01*
X21312487Y21172965D01*
X21367350Y21280641D01*
X21367350Y21280643D01*
X21367351Y21280644D01*
X21386255Y21399998D01*
X21386255Y21400003D01*
X21367351Y21519357D01*
X21312488Y21627034D01*
X21227033Y21712489D01*
X21119356Y21767352D01*
X21000002Y21786255D01*
X20999998Y21786255D01*
X20880643Y21767352D01*
X20772966Y21712489D01*
X20687511Y21627034D01*
X20632648Y21519357D01*
X20613744Y21400003D01*
X20613744Y21399998D01*
X11109621Y21399998D01*
X11132798Y21491521D01*
X11152012Y21723394D01*
X11152012Y21723407D01*
X11132798Y21955280D01*
X11075679Y22180839D01*
X10982212Y22393920D01*
X10972898Y22408177D01*
X10952710Y22475066D01*
X10959827Y22499998D01*
X20513744Y22499998D01*
X20532648Y22380644D01*
X20587511Y22272967D01*
X20672966Y22187512D01*
X20780643Y22132649D01*
X20899998Y22113745D01*
X20900000Y22113745D01*
X20900002Y22113745D01*
X21019356Y22132649D01*
X21019357Y22132650D01*
X21019359Y22132650D01*
X21127035Y22187513D01*
X21212487Y22272965D01*
X21267350Y22380641D01*
X21267350Y22380643D01*
X21267351Y22380644D01*
X21286255Y22499998D01*
X21286255Y22500003D01*
X21267351Y22619357D01*
X21212488Y22727034D01*
X21127033Y22812489D01*
X21019356Y22867352D01*
X20900002Y22886255D01*
X20899998Y22886255D01*
X20780643Y22867352D01*
X20672966Y22812489D01*
X20587511Y22727034D01*
X20532648Y22619357D01*
X20513744Y22500003D01*
X20513744Y22499998D01*
X10959827Y22499998D01*
X10971889Y22542252D01*
X11024347Y22588403D01*
X11076706Y22600000D01*
X18600000Y22600000D01*
X18600000Y22900000D01*
X26100000Y22900000D01*
X26100000Y21350000D01*
X27250000Y21350000D01*
X27250000Y22900000D01*
X28050000Y22900000D01*
X28050000Y21350000D01*
X29200000Y21350000D01*
X29200000Y21399998D01*
X48013745Y21399998D01*
X48032648Y21280644D01*
X48087511Y21172967D01*
X48172966Y21087512D01*
X48280643Y21032649D01*
X48399998Y21013745D01*
X48400000Y21013745D01*
X48400002Y21013745D01*
X48519356Y21032649D01*
X48519357Y21032650D01*
X48519359Y21032650D01*
X48627035Y21087513D01*
X48712487Y21172965D01*
X48767350Y21280641D01*
X48767350Y21280643D01*
X48767351Y21280644D01*
X48786255Y21399998D01*
X48786255Y21400003D01*
X48767351Y21519357D01*
X48712488Y21627034D01*
X48639524Y21699998D01*
X49713745Y21699998D01*
X49732648Y21580644D01*
X49787511Y21472967D01*
X49872966Y21387512D01*
X49980643Y21332649D01*
X50099998Y21313745D01*
X50100000Y21313745D01*
X50100002Y21313745D01*
X50219356Y21332649D01*
X50219357Y21332650D01*
X50219359Y21332650D01*
X50327035Y21387513D01*
X50339520Y21399998D01*
X55713745Y21399998D01*
X55732648Y21280644D01*
X55787511Y21172967D01*
X55872966Y21087512D01*
X55980643Y21032649D01*
X56099998Y21013745D01*
X56100000Y21013745D01*
X56100002Y21013745D01*
X56219356Y21032649D01*
X56219357Y21032650D01*
X56219359Y21032650D01*
X56327035Y21087513D01*
X56412487Y21172965D01*
X56467350Y21280641D01*
X56467350Y21280643D01*
X56467351Y21280644D01*
X56486255Y21399998D01*
X56486255Y21400003D01*
X56467351Y21519357D01*
X56412488Y21627034D01*
X56327033Y21712489D01*
X56219356Y21767352D01*
X56100002Y21786255D01*
X56099998Y21786255D01*
X55980643Y21767352D01*
X55872966Y21712489D01*
X55787511Y21627034D01*
X55732648Y21519357D01*
X55713745Y21400003D01*
X55713745Y21399998D01*
X50339520Y21399998D01*
X50412487Y21472965D01*
X50467350Y21580641D01*
X50467350Y21580643D01*
X50467351Y21580644D01*
X50486255Y21699998D01*
X50486255Y21700003D01*
X50467351Y21819357D01*
X50412488Y21927034D01*
X50327033Y22012489D01*
X50219356Y22067352D01*
X50100002Y22086255D01*
X50099998Y22086255D01*
X49980643Y22067352D01*
X49872966Y22012489D01*
X49832660Y21972183D01*
X49777276Y21941943D01*
X49765505Y21883844D01*
X49732648Y21819357D01*
X49713745Y21700003D01*
X49713745Y21699998D01*
X48639524Y21699998D01*
X48627033Y21712489D01*
X48519356Y21767352D01*
X48400002Y21786255D01*
X48399998Y21786255D01*
X48280643Y21767352D01*
X48172966Y21712489D01*
X48087511Y21627034D01*
X48032648Y21519357D01*
X48013745Y21400003D01*
X48013745Y21399998D01*
X29200000Y21399998D01*
X29200000Y22299998D01*
X48913745Y22299998D01*
X48932648Y22180644D01*
X48987511Y22072967D01*
X49072966Y21987512D01*
X49180643Y21932649D01*
X49299998Y21913745D01*
X49300000Y21913745D01*
X49300002Y21913745D01*
X49419356Y21932649D01*
X49419357Y21932650D01*
X49419359Y21932650D01*
X49527035Y21987513D01*
X49567339Y22027818D01*
X49622722Y22058060D01*
X49634495Y22116159D01*
X49642897Y22132649D01*
X49667350Y22180641D01*
X49667350Y22180643D01*
X49667351Y22180644D01*
X49686255Y22299998D01*
X49686255Y22300003D01*
X49667351Y22419357D01*
X49612488Y22527034D01*
X49527033Y22612489D01*
X49419356Y22667352D01*
X49300002Y22686255D01*
X49299998Y22686255D01*
X49180643Y22667352D01*
X49072966Y22612489D01*
X48987511Y22527034D01*
X48932648Y22419357D01*
X48913745Y22300003D01*
X48913745Y22299998D01*
X29200000Y22299998D01*
X29200000Y22799998D01*
X49813745Y22799998D01*
X49832648Y22680644D01*
X49887511Y22572967D01*
X49972966Y22487512D01*
X50080643Y22432649D01*
X50199998Y22413745D01*
X50200000Y22413745D01*
X50200002Y22413745D01*
X50319356Y22432649D01*
X50319357Y22432650D01*
X50319359Y22432650D01*
X50427035Y22487513D01*
X50512487Y22572965D01*
X50559380Y22664998D01*
X55713745Y22664998D01*
X55732648Y22545644D01*
X55787511Y22437967D01*
X55872966Y22352512D01*
X55980643Y22297649D01*
X56099998Y22278745D01*
X56100000Y22278745D01*
X56100002Y22278745D01*
X56219356Y22297649D01*
X56219357Y22297650D01*
X56219359Y22297650D01*
X56327035Y22352513D01*
X56412487Y22437965D01*
X56467350Y22545641D01*
X56467350Y22545643D01*
X56467351Y22545644D01*
X56486255Y22664998D01*
X56486255Y22665003D01*
X56467351Y22784357D01*
X56412488Y22892034D01*
X56327033Y22977489D01*
X56219356Y23032352D01*
X56100002Y23051255D01*
X56099998Y23051255D01*
X55980643Y23032352D01*
X55872966Y22977489D01*
X55787511Y22892034D01*
X55732648Y22784357D01*
X55713745Y22665003D01*
X55713745Y22664998D01*
X50559380Y22664998D01*
X50567350Y22680641D01*
X50567350Y22680643D01*
X50567351Y22680644D01*
X50586255Y22799998D01*
X50586255Y22800003D01*
X50567351Y22919357D01*
X50512488Y23027034D01*
X50427033Y23112489D01*
X50319356Y23167352D01*
X50200002Y23186255D01*
X50199998Y23186255D01*
X50080643Y23167352D01*
X49972966Y23112489D01*
X49887511Y23027034D01*
X49832648Y22919357D01*
X49813745Y22800003D01*
X49813745Y22799998D01*
X29200000Y22799998D01*
X29200000Y22900000D01*
X28050000Y22900000D01*
X27250000Y22900000D01*
X26100000Y22900000D01*
X18600000Y22900000D01*
X18600000Y23799998D01*
X32133745Y23799998D01*
X32152648Y23680644D01*
X32207511Y23572967D01*
X32292966Y23487512D01*
X32400643Y23432649D01*
X32519998Y23413745D01*
X32520000Y23413745D01*
X32520002Y23413745D01*
X32639356Y23432649D01*
X32639357Y23432650D01*
X32639359Y23432650D01*
X32747035Y23487513D01*
X32832487Y23572965D01*
X32887350Y23680641D01*
X32887350Y23680643D01*
X32887351Y23680644D01*
X32906255Y23799998D01*
X32906255Y23800003D01*
X32887351Y23919357D01*
X32832488Y24027034D01*
X32747033Y24112489D01*
X32639356Y24167352D01*
X32520002Y24186255D01*
X32519998Y24186255D01*
X32400643Y24167352D01*
X32292966Y24112489D01*
X32207511Y24027034D01*
X32152648Y23919357D01*
X32133745Y23800003D01*
X32133745Y23799998D01*
X18600000Y23799998D01*
X18600000Y24499998D01*
X26313744Y24499998D01*
X26332648Y24380644D01*
X26387511Y24272967D01*
X26472966Y24187512D01*
X26580643Y24132649D01*
X26699998Y24113745D01*
X26700000Y24113745D01*
X26700002Y24113745D01*
X26819356Y24132649D01*
X26819357Y24132650D01*
X26819359Y24132650D01*
X26927035Y24187513D01*
X27012487Y24272965D01*
X27067350Y24380641D01*
X27067350Y24380643D01*
X27067351Y24380644D01*
X27070416Y24399998D01*
X29713745Y24399998D01*
X29732648Y24280644D01*
X29787511Y24172967D01*
X29872966Y24087512D01*
X29980643Y24032649D01*
X30099998Y24013745D01*
X30100000Y24013745D01*
X30100002Y24013745D01*
X30219356Y24032649D01*
X30219357Y24032650D01*
X30219359Y24032650D01*
X30327035Y24087513D01*
X30412487Y24172965D01*
X30467350Y24280641D01*
X30467350Y24280643D01*
X30467351Y24280644D01*
X30486255Y24399998D01*
X36813745Y24399998D01*
X36832648Y24280644D01*
X36887511Y24172967D01*
X36972966Y24087512D01*
X37080643Y24032649D01*
X37199998Y24013745D01*
X37200000Y24013745D01*
X37200002Y24013745D01*
X37319356Y24032649D01*
X37319357Y24032650D01*
X37319359Y24032650D01*
X37427035Y24087513D01*
X37439520Y24099998D01*
X41013745Y24099998D01*
X41032648Y23980644D01*
X41087511Y23872967D01*
X41172966Y23787512D01*
X41280643Y23732649D01*
X41399998Y23713745D01*
X41400000Y23713745D01*
X41400002Y23713745D01*
X41519356Y23732649D01*
X41519357Y23732650D01*
X41519359Y23732650D01*
X41627035Y23787513D01*
X41712487Y23872965D01*
X41767350Y23980641D01*
X41767350Y23980643D01*
X41767351Y23980644D01*
X41770416Y23999998D01*
X47913745Y23999998D01*
X47932648Y23880644D01*
X47987511Y23772967D01*
X48072966Y23687512D01*
X48180643Y23632649D01*
X48299998Y23613745D01*
X48300000Y23613745D01*
X48300002Y23613745D01*
X48419356Y23632649D01*
X48419357Y23632650D01*
X48419359Y23632650D01*
X48527035Y23687513D01*
X48612487Y23772965D01*
X48667350Y23880641D01*
X48667350Y23880643D01*
X48667351Y23880644D01*
X48675960Y23934998D01*
X55713745Y23934998D01*
X55732648Y23815644D01*
X55787511Y23707967D01*
X55872966Y23622512D01*
X55980643Y23567649D01*
X56099998Y23548745D01*
X56100000Y23548745D01*
X56100002Y23548745D01*
X56219356Y23567649D01*
X56219357Y23567650D01*
X56219359Y23567650D01*
X56327035Y23622513D01*
X56412487Y23707965D01*
X56443839Y23769498D01*
X71413745Y23769498D01*
X71432648Y23650144D01*
X71487511Y23542467D01*
X71572966Y23457012D01*
X71680643Y23402149D01*
X71799998Y23383245D01*
X71800000Y23383245D01*
X71800002Y23383245D01*
X71919356Y23402149D01*
X71919357Y23402150D01*
X71919359Y23402150D01*
X72027035Y23457013D01*
X72112487Y23542465D01*
X72167350Y23650141D01*
X72167350Y23650143D01*
X72167351Y23650144D01*
X72186255Y23769498D01*
X72186255Y23769503D01*
X72167351Y23888857D01*
X72112488Y23996534D01*
X72027033Y24081989D01*
X71919356Y24136852D01*
X71800002Y24155755D01*
X71799998Y24155755D01*
X71680643Y24136852D01*
X71572966Y24081989D01*
X71487511Y23996534D01*
X71432648Y23888857D01*
X71413745Y23769503D01*
X71413745Y23769498D01*
X56443839Y23769498D01*
X56467350Y23815641D01*
X56467350Y23815643D01*
X56467351Y23815644D01*
X56486255Y23934998D01*
X56486255Y23935003D01*
X56467351Y24054357D01*
X56412488Y24162034D01*
X56327033Y24247489D01*
X56219356Y24302352D01*
X56100002Y24321255D01*
X56099998Y24321255D01*
X55980643Y24302352D01*
X55872966Y24247489D01*
X55787511Y24162034D01*
X55732648Y24054357D01*
X55713745Y23935003D01*
X55713745Y23934998D01*
X48675960Y23934998D01*
X48686255Y23999998D01*
X48686255Y24000003D01*
X48667351Y24119357D01*
X48612488Y24227034D01*
X48527033Y24312489D01*
X48419356Y24367352D01*
X48300002Y24386255D01*
X48299998Y24386255D01*
X48180643Y24367352D01*
X48072966Y24312489D01*
X47987511Y24227034D01*
X47932648Y24119357D01*
X47913745Y24000003D01*
X47913745Y23999998D01*
X41770416Y23999998D01*
X41781187Y24068002D01*
X44285107Y24068002D01*
X44322460Y24043996D01*
X44455610Y24004901D01*
X44455612Y24004900D01*
X44594388Y24004900D01*
X44594389Y24004901D01*
X44727534Y24043995D01*
X44727540Y24043998D01*
X44764891Y24068002D01*
X45560107Y24068002D01*
X45597460Y24043996D01*
X45730610Y24004901D01*
X45730612Y24004900D01*
X45869388Y24004900D01*
X45869389Y24004901D01*
X46002534Y24043995D01*
X46002540Y24043998D01*
X46039891Y24068002D01*
X46835107Y24068002D01*
X46872460Y24043996D01*
X47005610Y24004901D01*
X47005612Y24004900D01*
X47144388Y24004900D01*
X47144389Y24004901D01*
X47277534Y24043995D01*
X47277540Y24043998D01*
X47314891Y24068002D01*
X47314892Y24068004D01*
X47075001Y24307895D01*
X47075000Y24307895D01*
X46835107Y24068003D01*
X46835107Y24068002D01*
X46039891Y24068002D01*
X46039892Y24068004D01*
X45800001Y24307895D01*
X45800000Y24307895D01*
X45560107Y24068003D01*
X45560107Y24068002D01*
X44764891Y24068002D01*
X44764892Y24068004D01*
X44525001Y24307895D01*
X44525000Y24307895D01*
X44285107Y24068003D01*
X44285107Y24068002D01*
X41781187Y24068002D01*
X41786255Y24099998D01*
X41786255Y24100003D01*
X41767351Y24219357D01*
X41712488Y24327034D01*
X41627033Y24412489D01*
X41519356Y24467352D01*
X41400002Y24486255D01*
X41399998Y24486255D01*
X41280643Y24467352D01*
X41172966Y24412489D01*
X41087511Y24327034D01*
X41032648Y24219357D01*
X41013745Y24100003D01*
X41013745Y24099998D01*
X37439520Y24099998D01*
X37512487Y24172965D01*
X37567350Y24280641D01*
X37567350Y24280643D01*
X37567351Y24280644D01*
X37586255Y24399998D01*
X37586255Y24400003D01*
X37572397Y24487500D01*
X44037437Y24487500D01*
X44057186Y24350138D01*
X44104477Y24246586D01*
X44104479Y24246585D01*
X44326557Y24468663D01*
X44393985Y24468663D01*
X44424967Y24400821D01*
X44487709Y24360500D01*
X44543261Y24360500D01*
X44596560Y24376150D01*
X44645401Y24432515D01*
X44653307Y24487501D01*
X44704605Y24487501D01*
X44945520Y24246586D01*
X44945521Y24246586D01*
X44992812Y24350137D01*
X44992813Y24350142D01*
X45012562Y24487500D01*
X45312437Y24487500D01*
X45332186Y24350138D01*
X45379477Y24246586D01*
X45379479Y24246585D01*
X45601557Y24468663D01*
X45668985Y24468663D01*
X45699967Y24400821D01*
X45762709Y24360500D01*
X45818261Y24360500D01*
X45871560Y24376150D01*
X45920401Y24432515D01*
X45928307Y24487501D01*
X45979605Y24487501D01*
X46220520Y24246586D01*
X46220521Y24246586D01*
X46267812Y24350137D01*
X46267813Y24350142D01*
X46287562Y24487500D01*
X46587437Y24487500D01*
X46607186Y24350138D01*
X46654477Y24246586D01*
X46654479Y24246585D01*
X46876557Y24468663D01*
X46943985Y24468663D01*
X46974967Y24400821D01*
X47037709Y24360500D01*
X47093261Y24360500D01*
X47146560Y24376150D01*
X47195401Y24432515D01*
X47203307Y24487501D01*
X47254605Y24487501D01*
X47495520Y24246586D01*
X47495521Y24246586D01*
X47542812Y24350137D01*
X47542813Y24350142D01*
X47562562Y24487500D01*
X47542813Y24624859D01*
X47542812Y24624864D01*
X47495521Y24728416D01*
X47254605Y24487501D01*
X47203307Y24487501D01*
X47206015Y24506337D01*
X47175033Y24574179D01*
X47112291Y24614500D01*
X47056739Y24614500D01*
X47003440Y24598850D01*
X46954599Y24542485D01*
X46943985Y24468663D01*
X46876557Y24468663D01*
X46895394Y24487500D01*
X46895394Y24487501D01*
X46654478Y24728417D01*
X46607186Y24624862D01*
X46587437Y24487500D01*
X46287562Y24487500D01*
X46267813Y24624859D01*
X46267812Y24624864D01*
X46220521Y24728416D01*
X45979605Y24487501D01*
X45928307Y24487501D01*
X45931015Y24506337D01*
X45900033Y24574179D01*
X45837291Y24614500D01*
X45781739Y24614500D01*
X45728440Y24598850D01*
X45679599Y24542485D01*
X45668985Y24468663D01*
X45601557Y24468663D01*
X45620394Y24487500D01*
X45620394Y24487501D01*
X45379478Y24728417D01*
X45332186Y24624862D01*
X45312437Y24487500D01*
X45012562Y24487500D01*
X44992813Y24624859D01*
X44992812Y24624864D01*
X44945521Y24728416D01*
X44704605Y24487501D01*
X44653307Y24487501D01*
X44656015Y24506337D01*
X44625033Y24574179D01*
X44562291Y24614500D01*
X44506739Y24614500D01*
X44453440Y24598850D01*
X44404599Y24542485D01*
X44393985Y24468663D01*
X44326557Y24468663D01*
X44345394Y24487500D01*
X44345394Y24487501D01*
X44104478Y24728417D01*
X44057186Y24624862D01*
X44037437Y24487500D01*
X37572397Y24487500D01*
X37567351Y24519357D01*
X37512488Y24627034D01*
X37427033Y24712489D01*
X37319356Y24767352D01*
X37200002Y24786255D01*
X37199998Y24786255D01*
X37080643Y24767352D01*
X36972966Y24712489D01*
X36887511Y24627034D01*
X36832648Y24519357D01*
X36813745Y24400003D01*
X36813745Y24399998D01*
X30486255Y24399998D01*
X30486255Y24400003D01*
X30467351Y24519357D01*
X30412488Y24627034D01*
X30327033Y24712489D01*
X30219356Y24767352D01*
X30100002Y24786255D01*
X30099998Y24786255D01*
X29980643Y24767352D01*
X29872966Y24712489D01*
X29787511Y24627034D01*
X29732648Y24519357D01*
X29713745Y24400003D01*
X29713745Y24399998D01*
X27070416Y24399998D01*
X27086255Y24499998D01*
X27086255Y24500003D01*
X27067351Y24619357D01*
X27012488Y24727034D01*
X26927033Y24812489D01*
X26819356Y24867352D01*
X26700002Y24886255D01*
X26699998Y24886255D01*
X26580643Y24867352D01*
X26472966Y24812489D01*
X26387511Y24727034D01*
X26332648Y24619357D01*
X26313744Y24500003D01*
X26313744Y24499998D01*
X18600000Y24499998D01*
X18600000Y25099998D01*
X42813745Y25099998D01*
X42832648Y24980644D01*
X42887511Y24872967D01*
X42972966Y24787512D01*
X43080643Y24732649D01*
X43199998Y24713745D01*
X43200000Y24713745D01*
X43200002Y24713745D01*
X43319356Y24732649D01*
X43319357Y24732650D01*
X43319359Y24732650D01*
X43427035Y24787513D01*
X43512487Y24872965D01*
X43529828Y24906999D01*
X44285106Y24906999D01*
X44524999Y24667107D01*
X44764890Y24906999D01*
X45560106Y24906999D01*
X45799999Y24667107D01*
X46039890Y24906999D01*
X46835106Y24906999D01*
X47074999Y24667107D01*
X47314891Y24907000D01*
X47291710Y24921898D01*
X71413745Y24921898D01*
X71432648Y24802544D01*
X71487511Y24694867D01*
X71572966Y24609412D01*
X71680643Y24554549D01*
X71799998Y24535645D01*
X71800000Y24535645D01*
X71800002Y24535645D01*
X71919356Y24554549D01*
X71919357Y24554550D01*
X71919359Y24554550D01*
X72027035Y24609413D01*
X72112487Y24694865D01*
X72167350Y24802541D01*
X72167350Y24802543D01*
X72167351Y24802544D01*
X72186255Y24921898D01*
X72186255Y24921903D01*
X72167351Y25041257D01*
X72112488Y25148934D01*
X72027033Y25234389D01*
X71919356Y25289252D01*
X71800002Y25308155D01*
X71799998Y25308155D01*
X71680643Y25289252D01*
X71572966Y25234389D01*
X71487511Y25148934D01*
X71432648Y25041257D01*
X71413745Y24921903D01*
X71413745Y24921898D01*
X47291710Y24921898D01*
X47277539Y24931005D01*
X47144389Y24970100D01*
X47005610Y24970100D01*
X46872463Y24931006D01*
X46872454Y24931001D01*
X46835106Y24907000D01*
X46835106Y24906999D01*
X46039890Y24906999D01*
X46039891Y24907000D01*
X46002539Y24931005D01*
X45869389Y24970100D01*
X45730610Y24970100D01*
X45597463Y24931006D01*
X45597454Y24931001D01*
X45560106Y24907000D01*
X45560106Y24906999D01*
X44764890Y24906999D01*
X44764891Y24907000D01*
X44727539Y24931005D01*
X44594389Y24970100D01*
X44455610Y24970100D01*
X44322463Y24931006D01*
X44322454Y24931001D01*
X44285106Y24907000D01*
X44285106Y24906999D01*
X43529828Y24906999D01*
X43567350Y24980641D01*
X43567350Y24980643D01*
X43567351Y24980644D01*
X43586255Y25099998D01*
X43586255Y25100003D01*
X43567351Y25219357D01*
X43512488Y25327034D01*
X43496520Y25343002D01*
X44285107Y25343002D01*
X44322460Y25318996D01*
X44455610Y25279901D01*
X44455612Y25279900D01*
X44594388Y25279900D01*
X44594389Y25279901D01*
X44727534Y25318995D01*
X44727540Y25318998D01*
X44764891Y25343002D01*
X45560107Y25343002D01*
X45597460Y25318996D01*
X45730610Y25279901D01*
X45730612Y25279900D01*
X45869388Y25279900D01*
X45869389Y25279901D01*
X46002534Y25318995D01*
X46002540Y25318998D01*
X46039891Y25343002D01*
X46835107Y25343002D01*
X46872460Y25318996D01*
X47005610Y25279901D01*
X47005612Y25279900D01*
X47144388Y25279900D01*
X47144389Y25279901D01*
X47277534Y25318995D01*
X47277540Y25318998D01*
X47314891Y25343002D01*
X47314892Y25343004D01*
X47075001Y25582895D01*
X47075000Y25582895D01*
X46835107Y25343003D01*
X46835107Y25343002D01*
X46039891Y25343002D01*
X46039892Y25343004D01*
X45800001Y25582895D01*
X45800000Y25582895D01*
X45560107Y25343003D01*
X45560107Y25343002D01*
X44764891Y25343002D01*
X44764892Y25343004D01*
X44525001Y25582895D01*
X44525000Y25582895D01*
X44285107Y25343003D01*
X44285107Y25343002D01*
X43496520Y25343002D01*
X43427033Y25412489D01*
X43319356Y25467352D01*
X43200002Y25486255D01*
X43199998Y25486255D01*
X43080643Y25467352D01*
X42972966Y25412489D01*
X42887511Y25327034D01*
X42832648Y25219357D01*
X42813745Y25100003D01*
X42813745Y25099998D01*
X18600000Y25099998D01*
X18600000Y25499998D01*
X28233244Y25499998D01*
X28252148Y25380644D01*
X28307011Y25272967D01*
X28392466Y25187512D01*
X28500143Y25132649D01*
X28619498Y25113745D01*
X28619500Y25113745D01*
X28619502Y25113745D01*
X28738856Y25132649D01*
X28738857Y25132650D01*
X28738859Y25132650D01*
X28846535Y25187513D01*
X28931987Y25272965D01*
X28986850Y25380641D01*
X28986850Y25380643D01*
X28986851Y25380644D01*
X29005755Y25499998D01*
X29005755Y25500003D01*
X28997836Y25549998D01*
X40913745Y25549998D01*
X40932648Y25430644D01*
X40987511Y25322967D01*
X41072966Y25237512D01*
X41180643Y25182649D01*
X41299998Y25163745D01*
X41300000Y25163745D01*
X41300002Y25163745D01*
X41419356Y25182649D01*
X41419357Y25182650D01*
X41419359Y25182650D01*
X41527035Y25237513D01*
X41612487Y25322965D01*
X41667350Y25430641D01*
X41667350Y25430643D01*
X41667351Y25430644D01*
X41686255Y25549998D01*
X41686255Y25550003D01*
X41667351Y25669357D01*
X41619893Y25762501D01*
X44037437Y25762501D01*
X44057186Y25625138D01*
X44104477Y25521586D01*
X44104479Y25521585D01*
X44326557Y25743663D01*
X44393985Y25743663D01*
X44424967Y25675821D01*
X44487709Y25635500D01*
X44543261Y25635500D01*
X44596560Y25651150D01*
X44645401Y25707515D01*
X44653307Y25762501D01*
X44704605Y25762501D01*
X44945521Y25521586D01*
X44992812Y25625137D01*
X44992813Y25625142D01*
X45012562Y25762500D01*
X45012562Y25762501D01*
X45312437Y25762501D01*
X45332186Y25625138D01*
X45379477Y25521586D01*
X45379478Y25521586D01*
X45601555Y25743663D01*
X45668985Y25743663D01*
X45699967Y25675821D01*
X45762709Y25635500D01*
X45818261Y25635500D01*
X45871560Y25651150D01*
X45920401Y25707515D01*
X45928307Y25762501D01*
X45979605Y25762501D01*
X46220521Y25521586D01*
X46267812Y25625137D01*
X46267813Y25625142D01*
X46287562Y25762501D01*
X46587437Y25762501D01*
X46607186Y25625138D01*
X46654477Y25521586D01*
X46654478Y25521586D01*
X46876555Y25743663D01*
X46943985Y25743663D01*
X46974967Y25675821D01*
X47037709Y25635500D01*
X47093261Y25635500D01*
X47146560Y25651150D01*
X47195401Y25707515D01*
X47203307Y25762501D01*
X47254605Y25762501D01*
X47495521Y25521586D01*
X47542812Y25625137D01*
X47542813Y25625142D01*
X47562562Y25762500D01*
X47542813Y25899859D01*
X47542812Y25899864D01*
X47542751Y25899998D01*
X47913745Y25899998D01*
X47932648Y25780644D01*
X47987511Y25672967D01*
X48072966Y25587512D01*
X48180643Y25532649D01*
X48299998Y25513745D01*
X48300000Y25513745D01*
X48300002Y25513745D01*
X48419356Y25532649D01*
X48419357Y25532650D01*
X48419359Y25532650D01*
X48527035Y25587513D01*
X48612487Y25672965D01*
X48667350Y25780641D01*
X48667350Y25780643D01*
X48667351Y25780644D01*
X48686255Y25899998D01*
X48686255Y25900003D01*
X48667351Y26019357D01*
X48626263Y26099998D01*
X50713745Y26099998D01*
X50732648Y25980644D01*
X50787511Y25872967D01*
X50872966Y25787512D01*
X50980643Y25732649D01*
X51058328Y25720346D01*
X51100000Y25713745D01*
X51118154Y25716621D01*
X51187443Y25707668D01*
X51240897Y25662674D01*
X51248033Y25650448D01*
X51263874Y25619359D01*
X51287512Y25572966D01*
X51372966Y25487512D01*
X51480643Y25432649D01*
X51599998Y25413745D01*
X51600000Y25413745D01*
X51600002Y25413745D01*
X51719356Y25432649D01*
X51719357Y25432650D01*
X51719359Y25432650D01*
X51827035Y25487513D01*
X51912487Y25572965D01*
X51967350Y25680641D01*
X51967350Y25680643D01*
X51967351Y25680644D01*
X51986255Y25799998D01*
X51986255Y25800003D01*
X51967351Y25919357D01*
X51912488Y26027034D01*
X51827033Y26112489D01*
X51719356Y26167352D01*
X51600002Y26186255D01*
X51599998Y26186255D01*
X51581842Y26183380D01*
X51512549Y26192337D01*
X51459098Y26237335D01*
X51451963Y26249560D01*
X51412488Y26327034D01*
X51327033Y26412489D01*
X51219356Y26467352D01*
X51100002Y26486255D01*
X51099998Y26486255D01*
X50980643Y26467352D01*
X50872966Y26412489D01*
X50787511Y26327034D01*
X50732648Y26219357D01*
X50713745Y26100003D01*
X50713745Y26099998D01*
X48626263Y26099998D01*
X48612488Y26127034D01*
X48527033Y26212489D01*
X48419356Y26267352D01*
X48300002Y26286255D01*
X48299998Y26286255D01*
X48180643Y26267352D01*
X48072966Y26212489D01*
X47987511Y26127034D01*
X47932648Y26019357D01*
X47913745Y25900003D01*
X47913745Y25899998D01*
X47542751Y25899998D01*
X47495521Y26003416D01*
X47495520Y26003416D01*
X47254605Y25762501D01*
X47203307Y25762501D01*
X47206015Y25781337D01*
X47175033Y25849179D01*
X47112291Y25889500D01*
X47056739Y25889500D01*
X47003440Y25873850D01*
X46954599Y25817485D01*
X46943985Y25743663D01*
X46876555Y25743663D01*
X46895394Y25762502D01*
X46654478Y26003417D01*
X46607186Y25899862D01*
X46587437Y25762501D01*
X46287562Y25762501D01*
X46267813Y25899859D01*
X46267812Y25899864D01*
X46220521Y26003416D01*
X46220520Y26003416D01*
X45979605Y25762501D01*
X45928307Y25762501D01*
X45931015Y25781337D01*
X45900033Y25849179D01*
X45837291Y25889500D01*
X45781739Y25889500D01*
X45728440Y25873850D01*
X45679599Y25817485D01*
X45668985Y25743663D01*
X45601555Y25743663D01*
X45620394Y25762502D01*
X45379478Y26003417D01*
X45332186Y25899862D01*
X45312437Y25762501D01*
X45012562Y25762501D01*
X44992813Y25899859D01*
X44992812Y25899864D01*
X44945521Y26003416D01*
X44945520Y26003416D01*
X44704605Y25762501D01*
X44653307Y25762501D01*
X44656015Y25781337D01*
X44625033Y25849179D01*
X44562291Y25889500D01*
X44506739Y25889500D01*
X44453440Y25873850D01*
X44404599Y25817485D01*
X44393985Y25743663D01*
X44326557Y25743663D01*
X44345394Y25762500D01*
X44345394Y25762501D01*
X44104478Y26003417D01*
X44057186Y25899862D01*
X44037437Y25762501D01*
X41619893Y25762501D01*
X41612488Y25777034D01*
X41527033Y25862489D01*
X41419356Y25917352D01*
X41300002Y25936255D01*
X41299998Y25936255D01*
X41180643Y25917352D01*
X41072966Y25862489D01*
X40987511Y25777034D01*
X40932648Y25669357D01*
X40913745Y25550003D01*
X40913745Y25549998D01*
X28997836Y25549998D01*
X28986851Y25619357D01*
X28931988Y25727034D01*
X28846533Y25812489D01*
X28738856Y25867352D01*
X28619502Y25886255D01*
X28619498Y25886255D01*
X28500143Y25867352D01*
X28392466Y25812489D01*
X28307011Y25727034D01*
X28252148Y25619357D01*
X28233244Y25500003D01*
X28233244Y25499998D01*
X18600000Y25499998D01*
X18600000Y26199998D01*
X32133745Y26199998D01*
X32152648Y26080644D01*
X32207511Y25972967D01*
X32292966Y25887512D01*
X32400643Y25832649D01*
X32519998Y25813745D01*
X32520000Y25813745D01*
X32520002Y25813745D01*
X32639356Y25832649D01*
X32639357Y25832650D01*
X32639359Y25832650D01*
X32747035Y25887513D01*
X32832487Y25972965D01*
X32887350Y26080641D01*
X32887350Y26080643D01*
X32887351Y26080644D01*
X32903404Y26181999D01*
X44285106Y26181999D01*
X44524999Y25942107D01*
X44764890Y26181999D01*
X45560106Y26181999D01*
X45799999Y25942107D01*
X46039890Y26181999D01*
X46835106Y26181999D01*
X47074999Y25942107D01*
X47314891Y26182000D01*
X47277539Y26206005D01*
X47144389Y26245100D01*
X47005610Y26245100D01*
X46872463Y26206006D01*
X46872454Y26206001D01*
X46835106Y26182000D01*
X46835106Y26181999D01*
X46039890Y26181999D01*
X46039891Y26182000D01*
X46002539Y26206005D01*
X45869389Y26245100D01*
X45730610Y26245100D01*
X45597463Y26206006D01*
X45597454Y26206001D01*
X45560106Y26182000D01*
X45560106Y26181999D01*
X44764890Y26181999D01*
X44764891Y26182000D01*
X44727539Y26206005D01*
X44594389Y26245100D01*
X44455610Y26245100D01*
X44322463Y26206006D01*
X44322454Y26206001D01*
X44285106Y26182000D01*
X44285106Y26181999D01*
X32903404Y26181999D01*
X32906255Y26199998D01*
X32906255Y26200003D01*
X32887351Y26319357D01*
X32832488Y26427034D01*
X32747033Y26512489D01*
X32639356Y26567352D01*
X32520002Y26586255D01*
X32519998Y26586255D01*
X32400643Y26567352D01*
X32292966Y26512489D01*
X32207511Y26427034D01*
X32152648Y26319357D01*
X32133745Y26200003D01*
X32133745Y26199998D01*
X18600000Y26199998D01*
X18600000Y26799998D01*
X20313744Y26799998D01*
X20332648Y26680644D01*
X20387511Y26572967D01*
X20472966Y26487512D01*
X20580643Y26432649D01*
X20699998Y26413745D01*
X20700000Y26413745D01*
X20700002Y26413745D01*
X20819356Y26432649D01*
X20819357Y26432650D01*
X20819359Y26432650D01*
X20927035Y26487513D01*
X21012487Y26572965D01*
X21035434Y26618002D01*
X44285107Y26618002D01*
X44322460Y26593996D01*
X44455610Y26554901D01*
X44455612Y26554900D01*
X44594388Y26554900D01*
X44594389Y26554901D01*
X44727534Y26593995D01*
X44727540Y26593998D01*
X44764891Y26618002D01*
X45560107Y26618002D01*
X45597460Y26593996D01*
X45730610Y26554901D01*
X45730612Y26554900D01*
X45869388Y26554900D01*
X45869389Y26554901D01*
X46002534Y26593995D01*
X46002540Y26593998D01*
X46039891Y26618002D01*
X46835107Y26618002D01*
X46872460Y26593996D01*
X47005610Y26554901D01*
X47005612Y26554900D01*
X47144388Y26554900D01*
X47144389Y26554901D01*
X47277534Y26593995D01*
X47277540Y26593998D01*
X47314891Y26618002D01*
X47314892Y26618004D01*
X47075001Y26857895D01*
X47075000Y26857895D01*
X46835107Y26618003D01*
X46835107Y26618002D01*
X46039891Y26618002D01*
X46039892Y26618004D01*
X45800001Y26857895D01*
X45800000Y26857895D01*
X45560107Y26618003D01*
X45560107Y26618002D01*
X44764891Y26618002D01*
X44764892Y26618004D01*
X44525001Y26857895D01*
X44525000Y26857895D01*
X44285107Y26618003D01*
X44285107Y26618002D01*
X21035434Y26618002D01*
X21067350Y26680641D01*
X21067350Y26680643D01*
X21067351Y26680644D01*
X21086255Y26799998D01*
X21086255Y26800003D01*
X21067351Y26919357D01*
X21012488Y27027034D01*
X21002022Y27037500D01*
X44037437Y27037500D01*
X44057186Y26900138D01*
X44104477Y26796586D01*
X44104479Y26796585D01*
X44326557Y27018663D01*
X44393985Y27018663D01*
X44424967Y26950821D01*
X44487709Y26910500D01*
X44543261Y26910500D01*
X44596560Y26926150D01*
X44645401Y26982515D01*
X44653307Y27037501D01*
X44704605Y27037501D01*
X44945520Y26796586D01*
X44945521Y26796586D01*
X44992812Y26900137D01*
X44992813Y26900142D01*
X45012562Y27037500D01*
X45312437Y27037500D01*
X45332186Y26900138D01*
X45379477Y26796586D01*
X45379479Y26796585D01*
X45601557Y27018663D01*
X45668985Y27018663D01*
X45699967Y26950821D01*
X45762709Y26910500D01*
X45818261Y26910500D01*
X45871560Y26926150D01*
X45920401Y26982515D01*
X45928307Y27037501D01*
X45979605Y27037501D01*
X46220520Y26796586D01*
X46220521Y26796586D01*
X46267812Y26900137D01*
X46267813Y26900142D01*
X46287562Y27037500D01*
X46587437Y27037500D01*
X46607186Y26900138D01*
X46654477Y26796586D01*
X46654479Y26796585D01*
X46876557Y27018663D01*
X46943985Y27018663D01*
X46974967Y26950821D01*
X47037709Y26910500D01*
X47093261Y26910500D01*
X47146560Y26926150D01*
X47195401Y26982515D01*
X47203307Y27037501D01*
X47254605Y27037501D01*
X47495520Y26796586D01*
X47495521Y26796586D01*
X47542812Y26900137D01*
X47542813Y26900142D01*
X47562562Y27037501D01*
X47542813Y27174859D01*
X47542812Y27174864D01*
X47495521Y27278416D01*
X47254605Y27037501D01*
X47203307Y27037501D01*
X47206015Y27056337D01*
X47175033Y27124179D01*
X47112291Y27164500D01*
X47056739Y27164500D01*
X47003440Y27148850D01*
X46954599Y27092485D01*
X46943985Y27018663D01*
X46876557Y27018663D01*
X46895394Y27037500D01*
X46895394Y27037501D01*
X46654478Y27278417D01*
X46607186Y27174862D01*
X46587437Y27037500D01*
X46287562Y27037500D01*
X46267813Y27174859D01*
X46267812Y27174864D01*
X46220521Y27278416D01*
X45979605Y27037501D01*
X45928307Y27037501D01*
X45931015Y27056337D01*
X45900033Y27124179D01*
X45837291Y27164500D01*
X45781739Y27164500D01*
X45728440Y27148850D01*
X45679599Y27092485D01*
X45668985Y27018663D01*
X45601557Y27018663D01*
X45620394Y27037500D01*
X45620394Y27037501D01*
X45379478Y27278417D01*
X45332186Y27174862D01*
X45312437Y27037500D01*
X45012562Y27037500D01*
X45012562Y27037501D01*
X44992813Y27174859D01*
X44992812Y27174864D01*
X44945521Y27278416D01*
X44704605Y27037501D01*
X44653307Y27037501D01*
X44656015Y27056337D01*
X44625033Y27124179D01*
X44562291Y27164500D01*
X44506739Y27164500D01*
X44453440Y27148850D01*
X44404599Y27092485D01*
X44393985Y27018663D01*
X44326557Y27018663D01*
X44345394Y27037500D01*
X44345394Y27037501D01*
X44104478Y27278417D01*
X44057186Y27174862D01*
X44037437Y27037500D01*
X21002022Y27037500D01*
X20927033Y27112489D01*
X20819356Y27167352D01*
X20700002Y27186255D01*
X20699998Y27186255D01*
X20580643Y27167352D01*
X20472966Y27112489D01*
X20387511Y27027034D01*
X20332648Y26919357D01*
X20313744Y26800003D01*
X20313744Y26799998D01*
X18600000Y26799998D01*
X18600000Y27500000D01*
X11125479Y27500000D01*
X11058440Y27519685D01*
X11012685Y27572489D01*
X11002741Y27641647D01*
X11011923Y27673810D01*
X11075678Y27819159D01*
X11132798Y28044721D01*
X11152012Y28276594D01*
X11152012Y28276607D01*
X11132798Y28508480D01*
X11084299Y28699998D01*
X20713744Y28699998D01*
X20732648Y28580644D01*
X20787511Y28472967D01*
X20872966Y28387512D01*
X20980643Y28332649D01*
X21099998Y28313745D01*
X21100000Y28313745D01*
X21100002Y28313745D01*
X21219356Y28332649D01*
X21219357Y28332650D01*
X21219359Y28332650D01*
X21327035Y28387513D01*
X21412487Y28472965D01*
X21467350Y28580641D01*
X21467350Y28580643D01*
X21467351Y28580644D01*
X21478336Y28650000D01*
X26100000Y28650000D01*
X26100000Y27100000D01*
X27250000Y27100000D01*
X27250000Y28650000D01*
X28050000Y28650000D01*
X28050000Y27100000D01*
X29200000Y27100000D01*
X29200000Y27456999D01*
X44285106Y27456999D01*
X44524999Y27217107D01*
X44764890Y27456999D01*
X45560106Y27456999D01*
X45799998Y27217106D01*
X45799999Y27217106D01*
X46039891Y27456999D01*
X46835106Y27456999D01*
X47074999Y27217107D01*
X47314891Y27457000D01*
X47277539Y27481005D01*
X47144389Y27520100D01*
X47005610Y27520100D01*
X46872463Y27481006D01*
X46872454Y27481001D01*
X46835106Y27457000D01*
X46835106Y27456999D01*
X46039891Y27456999D01*
X46039891Y27457000D01*
X46002539Y27481005D01*
X45869389Y27520100D01*
X45730610Y27520100D01*
X45597463Y27481006D01*
X45597454Y27481001D01*
X45560106Y27457000D01*
X45560106Y27456999D01*
X44764890Y27456999D01*
X44764891Y27457000D01*
X44727539Y27481005D01*
X44594389Y27520100D01*
X44455610Y27520100D01*
X44322463Y27481006D01*
X44322454Y27481001D01*
X44285106Y27457000D01*
X44285106Y27456999D01*
X29200000Y27456999D01*
X29200000Y28650000D01*
X28050000Y28650000D01*
X27250000Y28650000D01*
X26100000Y28650000D01*
X21478336Y28650000D01*
X21486255Y28699998D01*
X21486255Y28700003D01*
X21467351Y28819357D01*
X21412488Y28927034D01*
X21327033Y29012489D01*
X21219356Y29067352D01*
X21100002Y29086255D01*
X21099998Y29086255D01*
X20980643Y29067352D01*
X20872966Y29012489D01*
X20787511Y28927034D01*
X20732648Y28819357D01*
X20713744Y28700003D01*
X20713744Y28699998D01*
X11084299Y28699998D01*
X11075679Y28734039D01*
X10982212Y28947122D01*
X10854952Y29141908D01*
X10822915Y29176711D01*
X10822914Y29176711D01*
X10463106Y28816904D01*
X10415714Y28882134D01*
X10285959Y28998967D01*
X10486991Y29199998D01*
X40393745Y29199998D01*
X40412648Y29080644D01*
X40467511Y28972967D01*
X40552966Y28887512D01*
X40660643Y28832649D01*
X40779998Y28813745D01*
X40780000Y28813745D01*
X40780002Y28813745D01*
X40899356Y28832649D01*
X40899357Y28832650D01*
X40899359Y28832650D01*
X41007035Y28887513D01*
X41092487Y28972965D01*
X41147350Y29080641D01*
X41147350Y29080643D01*
X41147351Y29080644D01*
X41166255Y29199998D01*
X41166255Y29200003D01*
X41147351Y29319357D01*
X41092488Y29427034D01*
X41007033Y29512489D01*
X40899356Y29567352D01*
X40780002Y29586255D01*
X40779998Y29586255D01*
X40660643Y29567352D01*
X40552966Y29512489D01*
X40467511Y29427034D01*
X40412648Y29319357D01*
X40393745Y29200003D01*
X40393745Y29199998D01*
X10486991Y29199998D01*
X10642663Y29355670D01*
X10642663Y29355672D01*
X10513755Y29456005D01*
X10513744Y29456012D01*
X10309119Y29566749D01*
X10309105Y29566755D01*
X10089045Y29642303D01*
X9859539Y29680600D01*
X9626861Y29680600D01*
X9397354Y29642303D01*
X9177294Y29566755D01*
X9177280Y29566749D01*
X8972655Y29456012D01*
X8972651Y29456010D01*
X8843735Y29355671D01*
X8843735Y29355670D01*
X9200439Y28998965D01*
X9070686Y28882134D01*
X9023292Y28816904D01*
X8663484Y29176712D01*
X8663483Y29176712D01*
X8631454Y29141917D01*
X8504186Y28947119D01*
X8410720Y28734039D01*
X8353601Y28508480D01*
X8334388Y28276607D01*
X8334388Y28276594D01*
X8353601Y28044721D01*
X8410721Y27819159D01*
X8474477Y27673810D01*
X8483380Y27604510D01*
X8453403Y27541398D01*
X8394064Y27504511D01*
X8360921Y27500000D01*
X4572279Y27500000D01*
X4505240Y27519685D01*
X4459485Y27572489D01*
X4449541Y27641647D01*
X4458723Y27673810D01*
X4522478Y27819159D01*
X4579598Y28044721D01*
X4598812Y28276594D01*
X4598812Y28276607D01*
X4579598Y28508480D01*
X4522479Y28734039D01*
X4429012Y28947122D01*
X4301752Y29141908D01*
X4269715Y29176711D01*
X4269714Y29176711D01*
X3909906Y28816904D01*
X3862514Y28882134D01*
X3732759Y28998966D01*
X4089463Y29355670D01*
X4089463Y29355672D01*
X3960555Y29456005D01*
X3960544Y29456012D01*
X3755919Y29566749D01*
X3755905Y29566755D01*
X3535845Y29642303D01*
X3306339Y29680600D01*
X3073661Y29680600D01*
X2844154Y29642303D01*
X2624094Y29566755D01*
X2624080Y29566749D01*
X2419455Y29456012D01*
X2419451Y29456010D01*
X2290535Y29355671D01*
X2290535Y29355670D01*
X2647239Y28998966D01*
X2517486Y28882134D01*
X2470092Y28816904D01*
X2110284Y29176712D01*
X2110283Y29176712D01*
X2078254Y29141917D01*
X1950986Y28947119D01*
X1857520Y28734039D01*
X1800401Y28508480D01*
X1781188Y28276607D01*
X1781188Y28276594D01*
X1800401Y28044721D01*
X1857520Y27819162D01*
X1950987Y27606079D01*
X2078247Y27411293D01*
X2110283Y27376491D01*
X2110284Y27376491D01*
X2470091Y27736299D01*
X2517486Y27671066D01*
X2647239Y27554236D01*
X2290535Y27197532D01*
X2290535Y27197530D01*
X2419444Y27097196D01*
X2419455Y27097189D01*
X2624080Y26986452D01*
X2624094Y26986446D01*
X2844154Y26910898D01*
X2896409Y26902178D01*
X2959294Y26871728D01*
X2995734Y26812114D01*
X3000000Y26779869D01*
X3000000Y23220132D01*
X2980315Y23153093D01*
X2927511Y23107338D01*
X2896410Y23097823D01*
X2844154Y23089103D01*
X2624094Y23013555D01*
X2624080Y23013549D01*
X2419455Y22902812D01*
X2419451Y22902810D01*
X2290535Y22802471D01*
X2290535Y22802470D01*
X2647239Y22445766D01*
X2517486Y22328934D01*
X2470092Y22263704D01*
X2110284Y22623512D01*
X2110283Y22623512D01*
X2078254Y22588717D01*
X1950986Y22393919D01*
X1857520Y22180839D01*
X1800401Y21955280D01*
X1781188Y21723407D01*
X1781188Y21723394D01*
X381500Y21723394D01*
X381500Y30099998D01*
X44313745Y30099998D01*
X44332648Y29980644D01*
X44387511Y29872967D01*
X44472966Y29787512D01*
X44580643Y29732649D01*
X44699998Y29713745D01*
X44700000Y29713745D01*
X44700002Y29713745D01*
X44819356Y29732649D01*
X44819357Y29732650D01*
X44819359Y29732650D01*
X44927035Y29787513D01*
X45012487Y29872965D01*
X45067350Y29980641D01*
X45067350Y29980643D01*
X45067351Y29980644D01*
X45086255Y30099998D01*
X48213745Y30099998D01*
X48232648Y29980644D01*
X48287511Y29872967D01*
X48372966Y29787512D01*
X48480643Y29732649D01*
X48599998Y29713745D01*
X48600000Y29713745D01*
X48600002Y29713745D01*
X48719356Y29732649D01*
X48719357Y29732650D01*
X48719359Y29732650D01*
X48827035Y29787513D01*
X48912487Y29872965D01*
X48926261Y29899998D01*
X53213745Y29899998D01*
X53232648Y29780644D01*
X53287511Y29672967D01*
X53372966Y29587512D01*
X53480643Y29532649D01*
X53599998Y29513745D01*
X53600000Y29513745D01*
X53600002Y29513745D01*
X53719356Y29532649D01*
X53719357Y29532650D01*
X53719359Y29532650D01*
X53827035Y29587513D01*
X53912487Y29672965D01*
X53926261Y29699998D01*
X59213745Y29699998D01*
X59232648Y29580644D01*
X59287511Y29472967D01*
X59372966Y29387512D01*
X59480643Y29332649D01*
X59599998Y29313745D01*
X59600000Y29313745D01*
X59600002Y29313745D01*
X59639482Y29319998D01*
X72367020Y29319998D01*
X72387276Y29140211D01*
X72408120Y29080644D01*
X72445798Y28972965D01*
X72447036Y28969429D01*
X72532980Y28832650D01*
X72543296Y28816233D01*
X72671233Y28688296D01*
X72824431Y28592035D01*
X72929626Y28555226D01*
X72995210Y28532277D01*
X73081354Y28522572D01*
X73129909Y28517101D01*
X73129910Y28517100D01*
X73915304Y28517100D01*
X73982343Y28497415D01*
X74028098Y28444611D01*
X74038042Y28375453D01*
X74017759Y28323250D01*
X74010485Y28312582D01*
X74010484Y28312580D01*
X73972500Y28189437D01*
X73972500Y27842956D01*
X73986878Y27747570D01*
X74042793Y27631459D01*
X74089665Y27580944D01*
X74130447Y27536992D01*
X74242052Y27472556D01*
X74367692Y27443880D01*
X74496202Y27453510D01*
X74616164Y27500592D01*
X74716920Y27580942D01*
X74789515Y27687419D01*
X74827500Y27810565D01*
X74827500Y28157039D01*
X74813122Y28252431D01*
X74757207Y28368540D01*
X74757206Y28368541D01*
X74757206Y28368542D01*
X74669553Y28463008D01*
X74669546Y28463014D01*
X74665717Y28465224D01*
X74662362Y28468742D01*
X74662285Y28468804D01*
X74662293Y28468815D01*
X74617503Y28515792D01*
X74604282Y28584400D01*
X74630252Y28649264D01*
X74661744Y28677601D01*
X74678767Y28688296D01*
X74806704Y28816233D01*
X74902965Y28969431D01*
X74962722Y29140208D01*
X74962722Y29140209D01*
X74962723Y29140211D01*
X74982980Y29319998D01*
X76042020Y29319998D01*
X76062276Y29140211D01*
X76083120Y29080644D01*
X76120798Y28972965D01*
X76122036Y28969429D01*
X76207980Y28832650D01*
X76218296Y28816233D01*
X76346233Y28688296D01*
X76499431Y28592035D01*
X76604626Y28555226D01*
X76670210Y28532277D01*
X76756354Y28522572D01*
X76804909Y28517101D01*
X76804910Y28517100D01*
X76804914Y28517100D01*
X78195090Y28517100D01*
X78195090Y28517101D01*
X78256174Y28523984D01*
X78329789Y28532277D01*
X78329792Y28532278D01*
X78500569Y28592035D01*
X78653767Y28688296D01*
X78781704Y28816233D01*
X78877965Y28969431D01*
X78937722Y29140208D01*
X78937722Y29140209D01*
X78937723Y29140211D01*
X78957980Y29319998D01*
X78957980Y29320003D01*
X78937723Y29499790D01*
X78914291Y29566755D01*
X78877965Y29670569D01*
X78781704Y29823767D01*
X78653767Y29951704D01*
X78607714Y29980641D01*
X78500571Y30047964D01*
X78500570Y30047965D01*
X78500569Y30047965D01*
X78459573Y30062310D01*
X78329789Y30107724D01*
X78195090Y30122900D01*
X78195086Y30122900D01*
X76804914Y30122900D01*
X76804910Y30122900D01*
X76670210Y30107724D01*
X76499428Y30047964D01*
X76346232Y29951704D01*
X76218296Y29823768D01*
X76122036Y29670572D01*
X76062276Y29499790D01*
X76042020Y29320003D01*
X76042020Y29319998D01*
X74982980Y29319998D01*
X74982980Y29320003D01*
X74962723Y29499790D01*
X74939291Y29566755D01*
X74902965Y29670569D01*
X74806704Y29823767D01*
X74678767Y29951704D01*
X74632714Y29980641D01*
X74525571Y30047964D01*
X74525570Y30047965D01*
X74525569Y30047965D01*
X74484573Y30062310D01*
X74354789Y30107724D01*
X74220090Y30122900D01*
X74220086Y30122900D01*
X73129914Y30122900D01*
X73129910Y30122900D01*
X72995210Y30107724D01*
X72824428Y30047964D01*
X72671232Y29951704D01*
X72543296Y29823768D01*
X72447036Y29670572D01*
X72387276Y29499790D01*
X72367020Y29320003D01*
X72367020Y29319998D01*
X59639482Y29319998D01*
X59719356Y29332649D01*
X59719357Y29332650D01*
X59719359Y29332650D01*
X59827035Y29387513D01*
X59912487Y29472965D01*
X59967350Y29580641D01*
X59967350Y29580643D01*
X59967351Y29580644D01*
X59986255Y29699998D01*
X59986255Y29700003D01*
X59967351Y29819357D01*
X59912488Y29927034D01*
X59827033Y30012489D01*
X59719356Y30067352D01*
X59600002Y30086255D01*
X59599998Y30086255D01*
X59480643Y30067352D01*
X59372966Y30012489D01*
X59287511Y29927034D01*
X59232648Y29819357D01*
X59213745Y29700003D01*
X59213745Y29699998D01*
X53926261Y29699998D01*
X53967350Y29780641D01*
X53967350Y29780643D01*
X53967351Y29780644D01*
X53986255Y29899998D01*
X53986255Y29900003D01*
X53967351Y30019357D01*
X53912488Y30127034D01*
X53827033Y30212489D01*
X53719356Y30267352D01*
X53600002Y30286255D01*
X53599998Y30286255D01*
X53480643Y30267352D01*
X53372966Y30212489D01*
X53287511Y30127034D01*
X53232648Y30019357D01*
X53213745Y29900003D01*
X53213745Y29899998D01*
X48926261Y29899998D01*
X48967350Y29980641D01*
X48967350Y29980643D01*
X48967351Y29980644D01*
X48986255Y30099998D01*
X48986255Y30100003D01*
X48967351Y30219357D01*
X48912488Y30327034D01*
X48827033Y30412489D01*
X48719356Y30467352D01*
X48600002Y30486255D01*
X48599998Y30486255D01*
X48480643Y30467352D01*
X48372966Y30412489D01*
X48287511Y30327034D01*
X48232648Y30219357D01*
X48213745Y30100003D01*
X48213745Y30099998D01*
X45086255Y30099998D01*
X45086255Y30100003D01*
X45067351Y30219357D01*
X45012488Y30327034D01*
X44927033Y30412489D01*
X44819356Y30467352D01*
X44700002Y30486255D01*
X44699998Y30486255D01*
X44580643Y30467352D01*
X44472966Y30412489D01*
X44387511Y30327034D01*
X44332648Y30219357D01*
X44313745Y30100003D01*
X44313745Y30099998D01*
X381500Y30099998D01*
X381500Y30949998D01*
X23963744Y30949998D01*
X23982648Y30830644D01*
X24037511Y30722967D01*
X24122966Y30637512D01*
X24230643Y30582649D01*
X24349998Y30563745D01*
X24350000Y30563745D01*
X24350002Y30563745D01*
X24469356Y30582649D01*
X24469357Y30582650D01*
X24469359Y30582650D01*
X24577035Y30637513D01*
X24662487Y30722965D01*
X24717350Y30830641D01*
X24717350Y30830643D01*
X24717351Y30830644D01*
X24736255Y30949998D01*
X24736255Y30950003D01*
X24717351Y31069357D01*
X24662488Y31177034D01*
X24577033Y31262489D01*
X24469356Y31317352D01*
X24383957Y31330877D01*
X24350633Y31346675D01*
X24316042Y31330877D01*
X24230643Y31317352D01*
X24122966Y31262489D01*
X24037511Y31177034D01*
X23982648Y31069357D01*
X23963744Y30950003D01*
X23963744Y30949998D01*
X381500Y30949998D01*
X381500Y31956698D01*
X23963744Y31956698D01*
X23982648Y31837344D01*
X24037511Y31729667D01*
X24122966Y31644212D01*
X24230643Y31589349D01*
X24316042Y31575823D01*
X24349365Y31560026D01*
X24383957Y31575823D01*
X24469356Y31589349D01*
X24469357Y31589350D01*
X24469359Y31589350D01*
X24577035Y31644213D01*
X24662487Y31729665D01*
X24717350Y31837341D01*
X24717350Y31837343D01*
X24717351Y31837344D01*
X24736255Y31956698D01*
X24736255Y31956703D01*
X24717351Y32076057D01*
X24662488Y32183734D01*
X24577033Y32269189D01*
X24469356Y32324052D01*
X24350002Y32342955D01*
X24349998Y32342955D01*
X24230643Y32324052D01*
X24122966Y32269189D01*
X24037511Y32183734D01*
X23982648Y32076057D01*
X23963744Y31956703D01*
X23963744Y31956698D01*
X381500Y31956698D01*
X381500Y32699998D01*
X32913745Y32699998D01*
X32932648Y32580644D01*
X32987511Y32472967D01*
X33072966Y32387512D01*
X33180643Y32332649D01*
X33299998Y32313745D01*
X33300000Y32313745D01*
X33300002Y32313745D01*
X33419356Y32332649D01*
X33419357Y32332650D01*
X33419359Y32332650D01*
X33527035Y32387513D01*
X33612487Y32472965D01*
X33667350Y32580641D01*
X33667350Y32580643D01*
X33667351Y32580644D01*
X33686255Y32699998D01*
X33686255Y32700003D01*
X33667351Y32819357D01*
X33626263Y32899998D01*
X44613745Y32899998D01*
X44632648Y32780644D01*
X44687511Y32672967D01*
X44772966Y32587512D01*
X44880643Y32532649D01*
X44999998Y32513745D01*
X45000000Y32513745D01*
X45000002Y32513745D01*
X45085399Y32527271D01*
X45154692Y32518317D01*
X45208144Y32473321D01*
X45228784Y32406569D01*
X45227270Y32385401D01*
X45213745Y32300004D01*
X45213745Y32299998D01*
X45232648Y32180644D01*
X45287511Y32072967D01*
X45372966Y31987512D01*
X45480643Y31932649D01*
X45599998Y31913745D01*
X45600000Y31913745D01*
X45677277Y31925985D01*
X45746568Y31917031D01*
X45800021Y31872035D01*
X45820661Y31805284D01*
X45819148Y31784116D01*
X45814943Y31757569D01*
X45813746Y31750003D01*
X45813745Y31749999D01*
X45813745Y31749998D01*
X45832648Y31630644D01*
X45887511Y31522967D01*
X45972966Y31437512D01*
X46080643Y31382649D01*
X46199998Y31363745D01*
X46200000Y31363745D01*
X46200002Y31363745D01*
X46319356Y31382649D01*
X46319357Y31382650D01*
X46319359Y31382650D01*
X46427035Y31437513D01*
X46512487Y31522965D01*
X46567350Y31630641D01*
X46567350Y31630643D01*
X46567351Y31630644D01*
X46586255Y31749998D01*
X46586255Y31750003D01*
X46567351Y31869357D01*
X46512488Y31977034D01*
X46427033Y32062489D01*
X46353416Y32099998D01*
X64713745Y32099998D01*
X64732648Y31980644D01*
X64787511Y31872967D01*
X64872966Y31787512D01*
X64980643Y31732649D01*
X65099998Y31713745D01*
X65100000Y31713745D01*
X65100002Y31713745D01*
X65219356Y31732649D01*
X65219357Y31732650D01*
X65219359Y31732650D01*
X65327035Y31787513D01*
X65412487Y31872965D01*
X65467350Y31980641D01*
X65467350Y31980643D01*
X65467351Y31980644D01*
X65486255Y32099998D01*
X65486255Y32100003D01*
X65467351Y32219357D01*
X65412488Y32327034D01*
X65327033Y32412489D01*
X65219356Y32467352D01*
X65100002Y32486255D01*
X65099998Y32486255D01*
X64980643Y32467352D01*
X64872966Y32412489D01*
X64787511Y32327034D01*
X64732648Y32219357D01*
X64713745Y32100003D01*
X64713745Y32099998D01*
X46353416Y32099998D01*
X46319356Y32117352D01*
X46200002Y32136255D01*
X46199998Y32136255D01*
X46122723Y32124016D01*
X46053429Y32132971D01*
X45999977Y32177967D01*
X45979338Y32244719D01*
X45980852Y32265888D01*
X45986255Y32300000D01*
X45986255Y32300003D01*
X45967351Y32419357D01*
X45912488Y32527034D01*
X45827033Y32612489D01*
X45719356Y32667352D01*
X45600002Y32686255D01*
X45599996Y32686255D01*
X45514599Y32672730D01*
X45445306Y32681685D01*
X45391854Y32726682D01*
X45371215Y32793433D01*
X45372729Y32814601D01*
X45386255Y32899999D01*
X45386255Y32900003D01*
X45367351Y33019357D01*
X45312488Y33127034D01*
X45227033Y33212489D01*
X45119356Y33267352D01*
X45000002Y33286255D01*
X44999998Y33286255D01*
X44880643Y33267352D01*
X44772966Y33212489D01*
X44687511Y33127034D01*
X44632648Y33019357D01*
X44613745Y32900003D01*
X44613745Y32899998D01*
X33626263Y32899998D01*
X33612488Y32927034D01*
X33527033Y33012489D01*
X33419356Y33067352D01*
X33300002Y33086255D01*
X33299998Y33086255D01*
X33180643Y33067352D01*
X33072966Y33012489D01*
X32987511Y32927034D01*
X32932648Y32819357D01*
X32913745Y32700003D01*
X32913745Y32699998D01*
X381500Y32699998D01*
X381500Y33850352D01*
X30913745Y33850352D01*
X30932648Y33730998D01*
X30987511Y33623321D01*
X31072966Y33537866D01*
X31180643Y33483003D01*
X31299998Y33464099D01*
X31300000Y33464099D01*
X31300002Y33464099D01*
X31419356Y33483003D01*
X31419357Y33483004D01*
X31419359Y33483004D01*
X31527035Y33537867D01*
X31612487Y33623319D01*
X31667350Y33730995D01*
X31667350Y33730997D01*
X31667351Y33730998D01*
X31686255Y33850352D01*
X31686255Y33850357D01*
X31667351Y33969711D01*
X31612488Y34077388D01*
X31527033Y34162843D01*
X31419356Y34217706D01*
X31300002Y34236609D01*
X31299998Y34236609D01*
X31180643Y34217706D01*
X31072966Y34162843D01*
X30987511Y34077388D01*
X30932648Y33969711D01*
X30913745Y33850357D01*
X30913745Y33850352D01*
X381500Y33850352D01*
X381500Y34499998D01*
X45913745Y34499998D01*
X45932648Y34380644D01*
X45987511Y34272967D01*
X46072966Y34187512D01*
X46180643Y34132649D01*
X46299998Y34113745D01*
X46300000Y34113745D01*
X46300002Y34113745D01*
X46385399Y34127271D01*
X46454692Y34118317D01*
X46508144Y34073321D01*
X46528784Y34006569D01*
X46527270Y33985401D01*
X46513745Y33900004D01*
X46513745Y33899998D01*
X46532648Y33780644D01*
X46587511Y33672967D01*
X46672966Y33587512D01*
X46780643Y33532649D01*
X46899998Y33513745D01*
X46900000Y33513745D01*
X46900002Y33513745D01*
X47019356Y33532649D01*
X47019357Y33532650D01*
X47019359Y33532650D01*
X47127035Y33587513D01*
X47212487Y33672965D01*
X47267350Y33780641D01*
X47267350Y33780643D01*
X47267351Y33780644D01*
X47286255Y33899998D01*
X47286255Y33900003D01*
X47267351Y34019357D01*
X47212488Y34127034D01*
X47127033Y34212489D01*
X47019356Y34267352D01*
X46900002Y34286255D01*
X46899996Y34286255D01*
X46814599Y34272730D01*
X46745306Y34281685D01*
X46691854Y34326682D01*
X46671215Y34393433D01*
X46672729Y34414601D01*
X46686255Y34499999D01*
X46686255Y34500003D01*
X46667351Y34619357D01*
X46612488Y34727034D01*
X46527033Y34812489D01*
X46419356Y34867352D01*
X46300002Y34886255D01*
X46299998Y34886255D01*
X46180643Y34867352D01*
X46072966Y34812489D01*
X45987511Y34727034D01*
X45932648Y34619357D01*
X45913745Y34500003D01*
X45913745Y34499998D01*
X381500Y34499998D01*
X381500Y36050000D01*
X32500000Y36050000D01*
X32500000Y34650000D01*
X33150000Y34650000D01*
X33150000Y35134946D01*
X48497100Y35134946D01*
X48505972Y35090342D01*
X48505973Y35090339D01*
X48520260Y35068958D01*
X48539766Y35039766D01*
X48590342Y35005972D01*
X48590343Y35005972D01*
X48590345Y35005971D01*
X48612642Y35001536D01*
X48634943Y34997100D01*
X50365056Y34997101D01*
X50409658Y35005972D01*
X50460234Y35039766D01*
X50494028Y35090342D01*
X50502900Y35134943D01*
X50502899Y36000000D01*
X51032247Y36000000D01*
X51051610Y35803401D01*
X51051610Y35803399D01*
X51051611Y35803397D01*
X51108958Y35614350D01*
X51202084Y35440122D01*
X51202086Y35440119D01*
X51327410Y35287411D01*
X51480118Y35162087D01*
X51480122Y35162084D01*
X51654350Y35068958D01*
X51843397Y35011611D01*
X52040000Y34992247D01*
X52236603Y35011611D01*
X52425650Y35068958D01*
X52599878Y35162084D01*
X52752589Y35287411D01*
X52877916Y35440122D01*
X52971042Y35614350D01*
X53028389Y35803397D01*
X53047753Y36000000D01*
X53035244Y36127001D01*
X53483037Y36127001D01*
X53483038Y36127000D01*
X54096182Y36127000D01*
X54080000Y36071889D01*
X54080000Y35928111D01*
X54096182Y35873000D01*
X53483038Y35873000D01*
X53490147Y35796273D01*
X53546139Y35599484D01*
X53546144Y35599471D01*
X53637339Y35416329D01*
X53760640Y35253051D01*
X53911836Y35115218D01*
X53911842Y35115214D01*
X54085793Y35007508D01*
X54085808Y35007501D01*
X54276574Y34933597D01*
X54453000Y34900619D01*
X54453000Y35513119D01*
X54544237Y35500000D01*
X54615763Y35500000D01*
X54707000Y35513119D01*
X54707000Y34900619D01*
X54883425Y34933597D01*
X55074191Y35007501D01*
X55074206Y35007508D01*
X55223582Y35099998D01*
X72113745Y35099998D01*
X72132648Y34980644D01*
X72187511Y34872967D01*
X72272966Y34787512D01*
X72380643Y34732649D01*
X72499998Y34713745D01*
X72500000Y34713745D01*
X72500002Y34713745D01*
X72619356Y34732649D01*
X72619357Y34732650D01*
X72619359Y34732650D01*
X72727035Y34787513D01*
X72812487Y34872965D01*
X72867350Y34980641D01*
X72867350Y34980643D01*
X72867351Y34980644D01*
X72886255Y35099998D01*
X72886255Y35100003D01*
X72867351Y35219357D01*
X72812488Y35327034D01*
X72727033Y35412489D01*
X72619356Y35467352D01*
X72500002Y35486255D01*
X72499998Y35486255D01*
X72380643Y35467352D01*
X72272966Y35412489D01*
X72187511Y35327034D01*
X72132648Y35219357D01*
X72113745Y35100003D01*
X72113745Y35099998D01*
X55223582Y35099998D01*
X55248157Y35115214D01*
X55248163Y35115218D01*
X55399359Y35253051D01*
X55522660Y35416329D01*
X55613855Y35599471D01*
X55613860Y35599484D01*
X55669852Y35796273D01*
X55676962Y35873000D01*
X55063818Y35873000D01*
X55080000Y35928111D01*
X55080000Y36071889D01*
X55063818Y36127000D01*
X55676962Y36127000D01*
X55676962Y36127001D01*
X55669852Y36203728D01*
X55613860Y36400517D01*
X55613855Y36400530D01*
X55522660Y36583672D01*
X55399359Y36746950D01*
X55248163Y36884783D01*
X55248157Y36884787D01*
X55074206Y36992493D01*
X55074200Y36992495D01*
X54883415Y37066405D01*
X54707000Y37099383D01*
X54707000Y36486882D01*
X54615763Y36500000D01*
X54544237Y36500000D01*
X54453000Y36486882D01*
X54453000Y37099383D01*
X54276584Y37066405D01*
X54276583Y37066405D01*
X54085799Y36992495D01*
X54085793Y36992493D01*
X53911842Y36884787D01*
X53911836Y36884783D01*
X53760640Y36746950D01*
X53637339Y36583672D01*
X53546144Y36400530D01*
X53546139Y36400517D01*
X53490147Y36203728D01*
X53483037Y36127001D01*
X53035244Y36127001D01*
X53028389Y36196603D01*
X52971042Y36385650D01*
X52877916Y36559878D01*
X52858389Y36583672D01*
X52752589Y36712590D01*
X52599881Y36837914D01*
X52599879Y36837915D01*
X52599878Y36837916D01*
X52425650Y36931042D01*
X52236603Y36988389D01*
X52236601Y36988390D01*
X52236599Y36988390D01*
X52040000Y37007753D01*
X51843400Y36988390D01*
X51654350Y36931042D01*
X51480118Y36837914D01*
X51327410Y36712590D01*
X51202086Y36559882D01*
X51108958Y36385650D01*
X51051610Y36196600D01*
X51032247Y36000000D01*
X50502899Y36000000D01*
X50502899Y36865056D01*
X50494028Y36909658D01*
X50494026Y36909660D01*
X50494026Y36909662D01*
X50460234Y36960234D01*
X50418097Y36988389D01*
X50409658Y36994028D01*
X50409657Y36994029D01*
X50409656Y36994029D01*
X50409654Y36994030D01*
X50365059Y37002900D01*
X48634945Y37002900D01*
X48590341Y36994028D01*
X48590338Y36994027D01*
X48539766Y36960235D01*
X48505971Y36909657D01*
X48505970Y36909655D01*
X48497100Y36865060D01*
X48497100Y35134946D01*
X33150000Y35134946D01*
X33150000Y36050000D01*
X32500000Y36050000D01*
X381500Y36050000D01*
X381500Y37199998D01*
X26684611Y37199998D01*
X26703514Y37080644D01*
X26758377Y36972967D01*
X26843832Y36887512D01*
X26951509Y36832649D01*
X27070864Y36813745D01*
X27070866Y36813745D01*
X27070868Y36813745D01*
X27190222Y36832649D01*
X27190223Y36832650D01*
X27190225Y36832650D01*
X27297901Y36887513D01*
X27383353Y36972965D01*
X27438216Y37080641D01*
X27438216Y37080643D01*
X27438217Y37080644D01*
X27446429Y37132497D01*
X27457121Y37200000D01*
X27448907Y37251856D01*
X27438217Y37319357D01*
X27383354Y37427034D01*
X27297899Y37512489D01*
X27190222Y37567352D01*
X27140541Y37575220D01*
X27081501Y37603208D01*
X27030325Y37579835D01*
X26951509Y37567351D01*
X26843832Y37512489D01*
X26758377Y37427034D01*
X26703514Y37319357D01*
X26684611Y37200003D01*
X26684611Y37199998D01*
X381500Y37199998D01*
X381500Y37699998D01*
X29813745Y37699998D01*
X29832648Y37580644D01*
X29887511Y37472967D01*
X29972966Y37387512D01*
X30080643Y37332649D01*
X30199998Y37313745D01*
X30200000Y37313745D01*
X30200002Y37313745D01*
X30319356Y37332649D01*
X30319357Y37332650D01*
X30319359Y37332650D01*
X30427035Y37387513D01*
X30512487Y37472965D01*
X30567350Y37580641D01*
X30567350Y37580643D01*
X30567351Y37580644D01*
X30586255Y37699998D01*
X30586255Y37700003D01*
X30567351Y37819357D01*
X30512488Y37927034D01*
X30427033Y38012489D01*
X30319356Y38067352D01*
X30200002Y38086255D01*
X30199998Y38086255D01*
X30080643Y38067352D01*
X29972966Y38012489D01*
X29887511Y37927034D01*
X29832648Y37819357D01*
X29813745Y37700003D01*
X29813745Y37699998D01*
X381500Y37699998D01*
X381500Y38524998D01*
X24384611Y38524998D01*
X24403514Y38405644D01*
X24458377Y38297967D01*
X24543832Y38212512D01*
X24651509Y38157649D01*
X24770864Y38138745D01*
X24770866Y38138745D01*
X24770868Y38138745D01*
X24890222Y38157649D01*
X24890223Y38157650D01*
X24890225Y38157650D01*
X24973339Y38199998D01*
X26713744Y38199998D01*
X26732648Y38080644D01*
X26787511Y37972967D01*
X26872966Y37887512D01*
X26926803Y37860082D01*
X26980641Y37832650D01*
X27030326Y37824781D01*
X27089363Y37796795D01*
X27140541Y37820166D01*
X27219356Y37832649D01*
X27219357Y37832650D01*
X27219359Y37832650D01*
X27327035Y37887513D01*
X27412487Y37972965D01*
X27467350Y38080641D01*
X27467350Y38080643D01*
X27467351Y38080644D01*
X27486255Y38199998D01*
X27486255Y38200003D01*
X27467351Y38319357D01*
X27451738Y38350000D01*
X32500000Y38350000D01*
X32500000Y36950000D01*
X33150000Y36950000D01*
X33150000Y38350000D01*
X32500000Y38350000D01*
X27451738Y38350000D01*
X27412488Y38427034D01*
X27327033Y38512489D01*
X27219356Y38567352D01*
X27100002Y38586255D01*
X27099998Y38586255D01*
X26980643Y38567352D01*
X26872966Y38512489D01*
X26787511Y38427034D01*
X26732648Y38319357D01*
X26713744Y38200003D01*
X26713744Y38199998D01*
X24973339Y38199998D01*
X24997901Y38212513D01*
X25083353Y38297965D01*
X25138216Y38405641D01*
X25138216Y38405643D01*
X25138217Y38405644D01*
X25155139Y38512489D01*
X25157121Y38525000D01*
X25147419Y38586255D01*
X25138217Y38644357D01*
X25083354Y38752034D01*
X24997899Y38837489D01*
X24890222Y38892352D01*
X24770868Y38911255D01*
X24770864Y38911255D01*
X24651509Y38892352D01*
X24543832Y38837489D01*
X24458377Y38752034D01*
X24403514Y38644357D01*
X24384611Y38525003D01*
X24384611Y38524998D01*
X381500Y38524998D01*
X381500Y39399998D01*
X50913745Y39399998D01*
X50932648Y39280644D01*
X50987511Y39172967D01*
X51072966Y39087512D01*
X51180643Y39032649D01*
X51299998Y39013745D01*
X51300000Y39013745D01*
X51300002Y39013745D01*
X51419356Y39032649D01*
X51419357Y39032650D01*
X51419359Y39032650D01*
X51527035Y39087513D01*
X51612487Y39172965D01*
X51667350Y39280641D01*
X51667350Y39280643D01*
X51667351Y39280644D01*
X51686255Y39399998D01*
X51686255Y39400003D01*
X51667351Y39519357D01*
X51612488Y39627034D01*
X51539524Y39699998D01*
X54913745Y39699998D01*
X54932648Y39580644D01*
X54987511Y39472967D01*
X55072966Y39387512D01*
X55180643Y39332649D01*
X55299998Y39313745D01*
X55300000Y39313745D01*
X55300002Y39313745D01*
X55419354Y39332649D01*
X55419354Y39332650D01*
X55419359Y39332650D01*
X55458496Y39352592D01*
X55527164Y39365487D01*
X55591904Y39339210D01*
X55627368Y39288903D01*
X55628220Y39289336D01*
X55631236Y39283415D01*
X55632161Y39282104D01*
X55632642Y39280657D01*
X55687511Y39172967D01*
X55772966Y39087512D01*
X55880643Y39032649D01*
X55999998Y39013745D01*
X56000000Y39013745D01*
X56000002Y39013745D01*
X56119356Y39032649D01*
X56119357Y39032650D01*
X56119359Y39032650D01*
X56227035Y39087513D01*
X56312487Y39172965D01*
X56367350Y39280641D01*
X56367350Y39280643D01*
X56367351Y39280644D01*
X56386255Y39399998D01*
X56386255Y39400003D01*
X56367351Y39519357D01*
X56351618Y39550235D01*
X69018720Y39550235D01*
X69048823Y39353732D01*
X69048827Y39353716D01*
X69083996Y39258758D01*
X69117870Y39167295D01*
X69223030Y38998581D01*
X69223031Y38998580D01*
X69223033Y38998577D01*
X69359996Y38854492D01*
X69359998Y38854491D01*
X69360000Y38854489D01*
X69384425Y38837489D01*
X69523169Y38740920D01*
X69523170Y38740920D01*
X69523171Y38740919D01*
X69705863Y38662519D01*
X69900598Y38622500D01*
X70049572Y38622500D01*
X70197785Y38637572D01*
X70277297Y38662519D01*
X70387471Y38697086D01*
X70561294Y38793566D01*
X70676366Y38892352D01*
X70712138Y38923061D01*
X70712139Y38923062D01*
X70782333Y39013745D01*
X70833828Y39080271D01*
X70921380Y39258758D01*
X70945966Y39353716D01*
X70971209Y39451208D01*
X70971210Y39451214D01*
X70971211Y39451216D01*
X70976233Y39550235D01*
X76018720Y39550235D01*
X76048823Y39353732D01*
X76048827Y39353716D01*
X76083996Y39258758D01*
X76117870Y39167295D01*
X76223030Y38998581D01*
X76223031Y38998580D01*
X76223033Y38998577D01*
X76359996Y38854492D01*
X76359998Y38854491D01*
X76360000Y38854489D01*
X76384425Y38837489D01*
X76523169Y38740920D01*
X76523170Y38740920D01*
X76523171Y38740919D01*
X76705863Y38662519D01*
X76900598Y38622500D01*
X77049572Y38622500D01*
X77197785Y38637572D01*
X77277297Y38662519D01*
X77387471Y38697086D01*
X77561294Y38793566D01*
X77676366Y38892352D01*
X77712138Y38923061D01*
X77712139Y38923062D01*
X77782333Y39013745D01*
X77833828Y39080271D01*
X77921380Y39258758D01*
X77945966Y39353716D01*
X77971209Y39451208D01*
X77971210Y39451214D01*
X77971211Y39451216D01*
X77981280Y39649765D01*
X77951175Y39846276D01*
X77882130Y40032705D01*
X77776970Y40201419D01*
X77776967Y40201422D01*
X77776966Y40201424D01*
X77640003Y40345509D01*
X77640001Y40345510D01*
X77476830Y40459081D01*
X77294135Y40537482D01*
X77099402Y40577500D01*
X76950429Y40577500D01*
X76950428Y40577500D01*
X76802214Y40562429D01*
X76612536Y40502917D01*
X76612527Y40502913D01*
X76438704Y40406433D01*
X76438703Y40406433D01*
X76287861Y40276940D01*
X76287860Y40276939D01*
X76166173Y40119732D01*
X76166171Y40119728D01*
X76078618Y39941239D01*
X76028790Y39748793D01*
X76028789Y39748787D01*
X76018720Y39550235D01*
X70976233Y39550235D01*
X70981280Y39649765D01*
X70951175Y39846276D01*
X70882130Y40032705D01*
X70776970Y40201419D01*
X70776967Y40201422D01*
X70776966Y40201424D01*
X70640003Y40345509D01*
X70640001Y40345510D01*
X70476830Y40459081D01*
X70294135Y40537482D01*
X70099402Y40577500D01*
X69950429Y40577500D01*
X69950428Y40577500D01*
X69802214Y40562429D01*
X69612536Y40502917D01*
X69612527Y40502913D01*
X69438704Y40406433D01*
X69438703Y40406433D01*
X69287861Y40276940D01*
X69287860Y40276939D01*
X69166173Y40119732D01*
X69166171Y40119728D01*
X69078618Y39941239D01*
X69028790Y39748793D01*
X69028789Y39748787D01*
X69018720Y39550235D01*
X56351618Y39550235D01*
X56312488Y39627034D01*
X56227033Y39712489D01*
X56119356Y39767352D01*
X56000002Y39786255D01*
X55999998Y39786255D01*
X55880642Y39767351D01*
X55841502Y39747409D01*
X55772832Y39734514D01*
X55708093Y39760792D01*
X55672631Y39811099D01*
X55671780Y39810664D01*
X55668761Y39816589D01*
X55667837Y39817900D01*
X55667354Y39819350D01*
X55667350Y39819358D01*
X55667350Y39819359D01*
X55612487Y39927035D01*
X55527035Y40012487D01*
X55527033Y40012489D01*
X55419356Y40067352D01*
X55300002Y40086255D01*
X55299998Y40086255D01*
X55180643Y40067352D01*
X55072966Y40012489D01*
X54987511Y39927034D01*
X54932648Y39819357D01*
X54913745Y39700003D01*
X54913745Y39699998D01*
X51539524Y39699998D01*
X51527033Y39712489D01*
X51419356Y39767352D01*
X51300002Y39786255D01*
X51299998Y39786255D01*
X51180643Y39767352D01*
X51072966Y39712489D01*
X50987511Y39627034D01*
X50932648Y39519357D01*
X50913745Y39400003D01*
X50913745Y39399998D01*
X381500Y39399998D01*
X381500Y41199998D01*
X66613745Y41199998D01*
X66632648Y41080644D01*
X66687511Y40972967D01*
X66772966Y40887512D01*
X66880643Y40832649D01*
X66999998Y40813745D01*
X67000000Y40813745D01*
X67000002Y40813745D01*
X67119356Y40832649D01*
X67119357Y40832650D01*
X67119359Y40832650D01*
X67227035Y40887513D01*
X67312487Y40972965D01*
X67367350Y41080641D01*
X67367350Y41080643D01*
X67367351Y41080644D01*
X67386255Y41199998D01*
X67386255Y41200003D01*
X67367351Y41319357D01*
X67312488Y41427034D01*
X67227033Y41512489D01*
X67119356Y41567352D01*
X67000002Y41586255D01*
X66999998Y41586255D01*
X66880643Y41567352D01*
X66772966Y41512489D01*
X66687511Y41427034D01*
X66632648Y41319357D01*
X66613745Y41200003D01*
X66613745Y41199998D01*
X381500Y41199998D01*
X381500Y41899998D01*
X49013745Y41899998D01*
X49032648Y41780644D01*
X49087511Y41672967D01*
X49172966Y41587512D01*
X49280643Y41532649D01*
X49399998Y41513745D01*
X49400000Y41513745D01*
X49400002Y41513745D01*
X49519356Y41532649D01*
X49519357Y41532650D01*
X49519359Y41532650D01*
X49627035Y41587513D01*
X49712487Y41672965D01*
X49767350Y41780641D01*
X49767350Y41780643D01*
X49767351Y41780644D01*
X49786255Y41899998D01*
X49786255Y41900003D01*
X49767351Y42019357D01*
X49712488Y42127034D01*
X49627033Y42212489D01*
X49519356Y42267352D01*
X49400002Y42286255D01*
X49399998Y42286255D01*
X49280643Y42267352D01*
X49172966Y42212489D01*
X49087511Y42127034D01*
X49032648Y42019357D01*
X49013745Y41900003D01*
X49013745Y41899998D01*
X381500Y41899998D01*
X381500Y42299998D01*
X62713745Y42299998D01*
X62732648Y42180644D01*
X62787511Y42072967D01*
X62872966Y41987512D01*
X62980643Y41932649D01*
X63099998Y41913745D01*
X63100000Y41913745D01*
X63100002Y41913745D01*
X63219356Y41932649D01*
X63219357Y41932650D01*
X63219359Y41932650D01*
X63327035Y41987513D01*
X63412487Y42072965D01*
X63467350Y42180641D01*
X63467350Y42180643D01*
X63467351Y42180644D01*
X63486255Y42299998D01*
X63486255Y42300003D01*
X63467351Y42419357D01*
X63412488Y42527034D01*
X63327033Y42612489D01*
X63219356Y42667352D01*
X63100002Y42686255D01*
X63099998Y42686255D01*
X62980643Y42667352D01*
X62872966Y42612489D01*
X62787511Y42527034D01*
X62732648Y42419357D01*
X62713745Y42300003D01*
X62713745Y42299998D01*
X381500Y42299998D01*
X381500Y43499998D01*
X49013745Y43499998D01*
X49032648Y43380644D01*
X49087511Y43272967D01*
X49172966Y43187512D01*
X49280643Y43132649D01*
X49399998Y43113745D01*
X49400000Y43113745D01*
X49400002Y43113745D01*
X49519356Y43132649D01*
X49519357Y43132650D01*
X49519359Y43132650D01*
X49627035Y43187513D01*
X49712487Y43272965D01*
X49767350Y43380641D01*
X49767350Y43380643D01*
X49767351Y43380644D01*
X49786255Y43499998D01*
X49786255Y43500003D01*
X49767351Y43619357D01*
X49712488Y43727034D01*
X49627033Y43812489D01*
X49519356Y43867352D01*
X49400002Y43886255D01*
X49399998Y43886255D01*
X49280643Y43867352D01*
X49172966Y43812489D01*
X49087511Y43727034D01*
X49032648Y43619357D01*
X49013745Y43500003D01*
X49013745Y43499998D01*
X381500Y43499998D01*
X381500Y46998259D01*
X381598Y47001736D01*
X385227Y47066363D01*
X1268687Y47066363D01*
X1278846Y46801301D01*
X1329350Y46540894D01*
X1419009Y46291257D01*
X1419012Y46291250D01*
X1545726Y46058228D01*
X1545729Y46058223D01*
X1628480Y45949664D01*
X1706534Y45847267D01*
X1897657Y45663330D01*
X2114617Y45510723D01*
X2352331Y45393024D01*
X2605225Y45312991D01*
X2867372Y45272500D01*
X2867376Y45272500D01*
X3066219Y45272500D01*
X3066220Y45272500D01*
X3264478Y45287721D01*
X3522756Y45348161D01*
X3568836Y45366734D01*
X3768774Y45447314D01*
X3768779Y45447317D01*
X3768782Y45447318D01*
X3996788Y45582869D01*
X4201430Y45751636D01*
X4377912Y45949664D01*
X4448215Y46058224D01*
X4522094Y46172306D01*
X4522094Y46172308D01*
X4522096Y46172310D01*
X4630604Y46414357D01*
X4700892Y46670131D01*
X4731313Y46933637D01*
X4726226Y47066363D01*
X75268687Y47066363D01*
X75278846Y46801301D01*
X75329350Y46540894D01*
X75419009Y46291257D01*
X75419012Y46291250D01*
X75545726Y46058228D01*
X75545729Y46058223D01*
X75628480Y45949664D01*
X75706534Y45847267D01*
X75897657Y45663330D01*
X76114617Y45510723D01*
X76352331Y45393024D01*
X76605225Y45312991D01*
X76867372Y45272500D01*
X76867376Y45272500D01*
X77066219Y45272500D01*
X77066220Y45272500D01*
X77264478Y45287721D01*
X77522756Y45348161D01*
X77568836Y45366734D01*
X77768774Y45447314D01*
X77768779Y45447317D01*
X77768782Y45447318D01*
X77996788Y45582869D01*
X78201430Y45751636D01*
X78377912Y45949664D01*
X78448215Y46058224D01*
X78522094Y46172306D01*
X78522094Y46172308D01*
X78522096Y46172310D01*
X78630604Y46414357D01*
X78700892Y46670131D01*
X78731313Y46933637D01*
X78721153Y47198699D01*
X78702829Y47293179D01*
X78670649Y47459107D01*
X78580990Y47708744D01*
X78580987Y47708751D01*
X78454273Y47941773D01*
X78454270Y47941778D01*
X78293469Y48152729D01*
X78293466Y48152733D01*
X78102343Y48336670D01*
X78018040Y48395968D01*
X77885382Y48489278D01*
X77647670Y48606976D01*
X77647667Y48606977D01*
X77394777Y48687009D01*
X77289916Y48703206D01*
X77132628Y48727500D01*
X76933780Y48727500D01*
X76735522Y48712279D01*
X76735518Y48712279D01*
X76477246Y48651840D01*
X76477236Y48651837D01*
X76231225Y48552687D01*
X76231216Y48552682D01*
X76003213Y48417132D01*
X75798571Y48248365D01*
X75622088Y48050337D01*
X75622081Y48050328D01*
X75477905Y47827695D01*
X75477904Y47827691D01*
X75369395Y47585643D01*
X75299108Y47329872D01*
X75268687Y47066363D01*
X4726226Y47066363D01*
X4721153Y47198699D01*
X4702829Y47293179D01*
X4670649Y47459107D01*
X4580990Y47708744D01*
X4580987Y47708751D01*
X4454273Y47941773D01*
X4454270Y47941778D01*
X4293469Y48152729D01*
X4293466Y48152733D01*
X4102343Y48336670D01*
X4018040Y48395968D01*
X3885382Y48489278D01*
X3647670Y48606976D01*
X3647667Y48606977D01*
X3394777Y48687009D01*
X3289916Y48703206D01*
X3132628Y48727500D01*
X2933780Y48727500D01*
X2735522Y48712279D01*
X2735518Y48712279D01*
X2477246Y48651840D01*
X2477236Y48651837D01*
X2231225Y48552687D01*
X2231216Y48552682D01*
X2003213Y48417132D01*
X1798571Y48248365D01*
X1622088Y48050337D01*
X1622081Y48050328D01*
X1477905Y47827695D01*
X1477904Y47827691D01*
X1369395Y47585643D01*
X1299108Y47329872D01*
X1268687Y47066363D01*
X385227Y47066363D01*
X388212Y47119520D01*
X397770Y47289715D01*
X398545Y47296598D01*
X446567Y47579239D01*
X448115Y47586018D01*
X527480Y47861502D01*
X529775Y47868056D01*
X560311Y47941776D01*
X639486Y48132924D01*
X642498Y48139174D01*
X683568Y48213484D01*
X781169Y48390081D01*
X784865Y48395962D01*
X950757Y48629765D01*
X955089Y48635199D01*
X1146121Y48848964D01*
X1151039Y48853881D01*
X1364801Y49044911D01*
X1370235Y49049243D01*
X1439294Y49098244D01*
X1604038Y49215135D01*
X1609919Y49218831D01*
X1860827Y49357503D01*
X1867076Y49360514D01*
X2090547Y49453079D01*
X2131944Y49470225D01*
X2138498Y49472520D01*
X2413986Y49551886D01*
X2420761Y49553433D01*
X2703402Y49601455D01*
X2710285Y49602230D01*
X2873089Y49611373D01*
X2998265Y49618402D01*
X3001742Y49618500D01*
X3054851Y49618500D01*
X76945149Y49618500D01*
X76998258Y49618500D01*
X77001735Y49618402D01*
G37*
G04 #@! TD.AperFunction*
G04 #@! TD*
G04 #@! TA.AperFunction,Conductor*
G04 #@! TO.N,/Lick Detection Analog Front End/triax_inner_shield*
G36*
X9489286Y26995775D02*
G01*
X9516090Y26988593D01*
X9697777Y26972697D01*
X9743199Y26968723D01*
X9743200Y26968723D01*
X9743201Y26968723D01*
X9781051Y26972035D01*
X9970310Y26988593D01*
X9997113Y26995775D01*
X10029207Y27000000D01*
X16896951Y27000000D01*
X16903032Y26999701D01*
X16964067Y26993690D01*
X17082941Y26981982D01*
X17106769Y26977243D01*
X17271001Y26927424D01*
X17293453Y26918123D01*
X17444798Y26837228D01*
X17465010Y26823723D01*
X17597666Y26714855D01*
X17614854Y26697667D01*
X17723722Y26565011D01*
X17737227Y26544799D01*
X17818121Y26393457D01*
X17827424Y26370999D01*
X17877240Y26206776D01*
X17881982Y26182935D01*
X17899701Y26003033D01*
X17900000Y25996952D01*
X17900000Y24003049D01*
X17899701Y23996968D01*
X17881982Y23817066D01*
X17877240Y23793225D01*
X17827424Y23629002D01*
X17818121Y23606544D01*
X17737227Y23455202D01*
X17723722Y23434990D01*
X17614854Y23302334D01*
X17597666Y23285146D01*
X17465010Y23176278D01*
X17444798Y23162773D01*
X17293456Y23081879D01*
X17270999Y23072577D01*
X17214178Y23055340D01*
X17178182Y23050000D01*
X5621818Y23050000D01*
X5585822Y23055340D01*
X5529000Y23072577D01*
X5506543Y23081879D01*
X5355201Y23162773D01*
X5334989Y23176278D01*
X5202333Y23285146D01*
X5185145Y23302334D01*
X5076277Y23434990D01*
X5062772Y23455202D01*
X4981878Y23606544D01*
X4972575Y23629002D01*
X4932406Y23761423D01*
X4922757Y23793231D01*
X4918018Y23817059D01*
X4900299Y23996968D01*
X4900000Y24003049D01*
X4900000Y24999999D01*
X5742314Y24999999D01*
X5761420Y24781611D01*
X5761422Y24781601D01*
X5818159Y24569854D01*
X5818161Y24569850D01*
X5818162Y24569846D01*
X5864486Y24470502D01*
X5910811Y24371158D01*
X5910812Y24371157D01*
X6036557Y24191575D01*
X6191575Y24036557D01*
X6371157Y23910812D01*
X6569846Y23818162D01*
X6781605Y23761421D01*
X6937601Y23747774D01*
X6999998Y23742314D01*
X7000000Y23742314D01*
X7000002Y23742314D01*
X7054598Y23747091D01*
X7218395Y23761421D01*
X7430154Y23818162D01*
X7628843Y23910812D01*
X7808425Y24036557D01*
X7963443Y24191575D01*
X8089188Y24371157D01*
X8181838Y24569846D01*
X8238579Y24781605D01*
X8257686Y25000000D01*
X8238579Y25218395D01*
X8181838Y25430154D01*
X8089188Y25628843D01*
X7963443Y25808425D01*
X7808425Y25963443D01*
X7628843Y26089188D01*
X7628844Y26089188D01*
X7628842Y26089189D01*
X7529498Y26135513D01*
X7430154Y26181838D01*
X7430150Y26181839D01*
X7430146Y26181841D01*
X7218399Y26238578D01*
X7218397Y26238579D01*
X7218395Y26238579D01*
X7218393Y26238580D01*
X7218389Y26238580D01*
X7000002Y26257686D01*
X6999998Y26257686D01*
X6781610Y26238580D01*
X6781600Y26238578D01*
X6569853Y26181841D01*
X6569844Y26181837D01*
X6371157Y26089189D01*
X6251348Y26005298D01*
X6191575Y25963443D01*
X6191573Y25963442D01*
X6191570Y25963439D01*
X6036561Y25808430D01*
X5910811Y25628843D01*
X5818163Y25430156D01*
X5818159Y25430147D01*
X5761422Y25218400D01*
X5761420Y25218390D01*
X5742314Y25000002D01*
X5742314Y24999999D01*
X4900000Y24999999D01*
X4900000Y25996952D01*
X4900299Y26003033D01*
X4908784Y26089189D01*
X4918018Y26182944D01*
X4922757Y26206768D01*
X4972577Y26371006D01*
X4981875Y26393451D01*
X5062775Y26544805D01*
X5076272Y26565005D01*
X5185149Y26697672D01*
X5202328Y26714851D01*
X5334995Y26823728D01*
X5355195Y26837225D01*
X5506549Y26918125D01*
X5528994Y26927423D01*
X5693232Y26977243D01*
X5717056Y26981982D01*
X5831501Y26993254D01*
X5896969Y26999701D01*
X5903049Y27000000D01*
X9457193Y27000000D01*
X9489286Y26995775D01*
G37*
G04 #@! TD.AperFunction*
G04 #@! TD*
M02*
