%TF.GenerationSoftware,KiCad,Pcbnew,7.0.6-7.0.6~ubuntu20.04.1*%
%TF.CreationDate,2023-09-06T11:46:54-07:00*%
%TF.ProjectId,harp_lick_detector_capactive,68617270-5f6c-4696-936b-5f6465746563,rev?*%
%TF.SameCoordinates,PX640a5a0PY7088980*%
%TF.FileFunction,Paste,Top*%
%TF.FilePolarity,Positive*%
%FSLAX46Y46*%
G04 Gerber Fmt 4.6, Leading zero omitted, Abs format (unit mm)*
G04 Created by KiCad (PCBNEW 7.0.6-7.0.6~ubuntu20.04.1) date 2023-09-06 11:46:54*
%MOMM*%
%LPD*%
G01*
G04 APERTURE LIST*
G04 Aperture macros list*
%AMRoundRect*
0 Rectangle with rounded corners*
0 $1 Rounding radius*
0 $2 $3 $4 $5 $6 $7 $8 $9 X,Y pos of 4 corners*
0 Add a 4 corners polygon primitive as box body*
4,1,4,$2,$3,$4,$5,$6,$7,$8,$9,$2,$3,0*
0 Add four circle primitives for the rounded corners*
1,1,$1+$1,$2,$3*
1,1,$1+$1,$4,$5*
1,1,$1+$1,$6,$7*
1,1,$1+$1,$8,$9*
0 Add four rect primitives between the rounded corners*
20,1,$1+$1,$2,$3,$4,$5,0*
20,1,$1+$1,$4,$5,$6,$7,0*
20,1,$1+$1,$6,$7,$8,$9,0*
20,1,$1+$1,$8,$9,$2,$3,0*%
%AMFreePoly0*
4,1,40,6.515355,1.015355,6.530000,0.980000,6.530000,-1.460000,6.515355,-1.495355,6.480000,-1.510000,4.370000,-1.510000,4.367882,-1.509122,4.365698,-1.509814,4.350485,-1.501916,4.334645,-1.495355,4.333768,-1.493237,4.331734,-1.492182,4.233315,-1.375157,4.010127,-1.166713,3.760982,-0.990847,3.490207,-0.850543,3.202844,-0.748414,2.904254,-0.686367,2.599999,-0.665555,2.295745,-0.686367,
1.997154,-0.748415,1.709792,-0.850543,1.439022,-0.990844,1.189872,-1.166713,0.966684,-1.375157,0.868266,-1.492182,0.866231,-1.493237,0.865355,-1.495355,0.849514,-1.501916,0.834302,-1.509814,0.832117,-1.509122,0.830000,-1.510000,-1.280000,-1.510000,-1.315355,-1.495355,-1.330000,-1.460000,-1.330000,0.980000,-1.315355,1.015355,-1.280000,1.030000,6.480000,1.030000,6.515355,1.015355,
6.515355,1.015355,$1*%
%AMFreePoly1*
4,1,25,-1.500000,1.420000,-1.360000,1.280000,-1.205000,1.155000,-1.035000,1.045000,-0.860000,0.950000,-0.675000,0.875000,-0.480000,0.820000,-0.280000,0.780000,-0.085000,0.765000,0.085000,0.765000,0.280000,0.780000,0.480000,0.820000,0.675000,0.875000,0.860000,0.950000,1.035000,1.045000,1.205000,1.155000,1.360000,1.280000,1.500000,1.420000,1.645000,1.595000,3.555000,1.595000,
3.555000,-0.755000,-3.555000,-0.755000,-3.555000,1.595000,-1.645000,1.595000,-1.500000,1.420000,-1.500000,1.420000,$1*%
G04 Aperture macros list end*
%ADD10RoundRect,0.140000X-0.140000X-0.170000X0.140000X-0.170000X0.140000X0.170000X-0.140000X0.170000X0*%
%ADD11RoundRect,0.135000X0.185000X-0.135000X0.185000X0.135000X-0.185000X0.135000X-0.185000X-0.135000X0*%
%ADD12RoundRect,0.135000X-0.185000X0.135000X-0.185000X-0.135000X0.185000X-0.135000X0.185000X0.135000X0*%
%ADD13RoundRect,0.237500X0.287500X0.237500X-0.287500X0.237500X-0.287500X-0.237500X0.287500X-0.237500X0*%
%ADD14RoundRect,0.140000X0.140000X0.170000X-0.140000X0.170000X-0.140000X-0.170000X0.140000X-0.170000X0*%
%ADD15RoundRect,0.140000X-0.170000X0.140000X-0.170000X-0.140000X0.170000X-0.140000X0.170000X0.140000X0*%
%ADD16RoundRect,0.250000X-0.475000X0.250000X-0.475000X-0.250000X0.475000X-0.250000X0.475000X0.250000X0*%
%ADD17RoundRect,0.135000X-0.135000X-0.185000X0.135000X-0.185000X0.135000X0.185000X-0.135000X0.185000X0*%
%ADD18R,0.300000X0.300000*%
%ADD19RoundRect,0.250000X-0.625000X0.312500X-0.625000X-0.312500X0.625000X-0.312500X0.625000X0.312500X0*%
%ADD20RoundRect,0.140000X0.170000X-0.140000X0.170000X0.140000X-0.170000X0.140000X-0.170000X-0.140000X0*%
%ADD21R,0.800000X0.950000*%
%ADD22R,0.250000X0.500000*%
%ADD23RoundRect,0.250000X-0.250000X-0.475000X0.250000X-0.475000X0.250000X0.475000X-0.250000X0.475000X0*%
%ADD24RoundRect,0.250000X0.250000X0.475000X-0.250000X0.475000X-0.250000X-0.475000X0.250000X-0.475000X0*%
%ADD25RoundRect,0.150000X-0.725000X-0.150000X0.725000X-0.150000X0.725000X0.150000X-0.725000X0.150000X0*%
%ADD26R,0.800000X0.300000*%
%ADD27RoundRect,0.250000X-0.292217X0.292217X-0.292217X-0.292217X0.292217X-0.292217X0.292217X0.292217X0*%
%ADD28RoundRect,0.050000X-0.050000X0.387500X-0.050000X-0.387500X0.050000X-0.387500X0.050000X0.387500X0*%
%ADD29RoundRect,0.050000X-0.387500X0.050000X-0.387500X-0.050000X0.387500X-0.050000X0.387500X0.050000X0*%
%ADD30RoundRect,0.237500X-0.250000X-0.237500X0.250000X-0.237500X0.250000X0.237500X-0.250000X0.237500X0*%
%ADD31R,2.000000X1.000000*%
%ADD32R,1.000000X0.520000*%
%ADD33R,1.000000X0.270000*%
%ADD34RoundRect,0.135000X0.135000X0.185000X-0.135000X0.185000X-0.135000X-0.185000X0.135000X-0.185000X0*%
%ADD35R,0.900000X1.700000*%
%ADD36R,1.400000X0.300000*%
%ADD37RoundRect,0.075000X-0.650000X-0.075000X0.650000X-0.075000X0.650000X0.075000X-0.650000X0.075000X0*%
%ADD38R,0.900000X0.800000*%
%ADD39RoundRect,0.147500X-0.172500X0.147500X-0.172500X-0.147500X0.172500X-0.147500X0.172500X0.147500X0*%
%ADD40RoundRect,0.250000X-0.475000X0.337500X-0.475000X-0.337500X0.475000X-0.337500X0.475000X0.337500X0*%
%ADD41RoundRect,0.150000X0.875000X0.150000X-0.875000X0.150000X-0.875000X-0.150000X0.875000X-0.150000X0*%
%ADD42C,2.050000*%
%ADD43FreePoly0,180.000000*%
%ADD44FreePoly0,0.000000*%
%ADD45RoundRect,0.147500X0.147500X0.172500X-0.147500X0.172500X-0.147500X-0.172500X0.147500X-0.172500X0*%
%ADD46RoundRect,0.150000X-0.512500X-0.150000X0.512500X-0.150000X0.512500X0.150000X-0.512500X0.150000X0*%
%ADD47R,1.140000X1.200000*%
%ADD48R,0.450000X1.450000*%
%ADD49R,4.200000X3.000000*%
%ADD50RoundRect,0.160000X-0.197500X-0.160000X0.197500X-0.160000X0.197500X0.160000X-0.197500X0.160000X0*%
%ADD51C,1.730000*%
%ADD52FreePoly1,270.000000*%
%ADD53FreePoly1,90.000000*%
%ADD54RoundRect,0.225000X-0.225000X-0.250000X0.225000X-0.250000X0.225000X0.250000X-0.225000X0.250000X0*%
%ADD55R,0.300000X0.600000*%
%ADD56R,1.700000X0.300000*%
%ADD57RoundRect,0.100000X0.350000X0.100000X-0.350000X0.100000X-0.350000X-0.100000X0.350000X-0.100000X0*%
G04 APERTURE END LIST*
D10*
%TO.C,C6*%
X39620000Y24200000D03*
X40580000Y24200000D03*
%TD*%
%TO.C,C30*%
X25295000Y22100000D03*
X26255000Y22100000D03*
%TD*%
D11*
%TO.C,R28*%
X43600000Y19890000D03*
X43600000Y20910000D03*
%TD*%
D12*
%TO.C,R24*%
X32600000Y26410000D03*
X32600000Y25390000D03*
%TD*%
D13*
%TO.C,D1*%
X78775000Y17900000D03*
X77025000Y17900000D03*
%TD*%
D10*
%TO.C,C21*%
X21220000Y21800000D03*
X22180000Y21800000D03*
%TD*%
D14*
%TO.C,C19*%
X49380000Y20700000D03*
X48420000Y20700000D03*
%TD*%
D11*
%TO.C,R40*%
X60600000Y6590000D03*
X60600000Y7610000D03*
%TD*%
%TO.C,R44*%
X42600000Y19890000D03*
X42600000Y20910000D03*
%TD*%
D10*
%TO.C,C9*%
X51220000Y23100000D03*
X52180000Y23100000D03*
%TD*%
D14*
%TO.C,C27*%
X36680000Y2900000D03*
X35720000Y2900000D03*
%TD*%
D15*
%TO.C,C38*%
X33600000Y24380000D03*
X33600000Y23420000D03*
%TD*%
D16*
%TO.C,C45*%
X64100000Y4950000D03*
X64100000Y3050000D03*
%TD*%
D17*
%TO.C,R26*%
X28190000Y30700000D03*
X29210000Y30700000D03*
%TD*%
D12*
%TO.C,R38*%
X60600000Y9510000D03*
X60600000Y8490000D03*
%TD*%
D17*
%TO.C,R21*%
X28190000Y27800000D03*
X29210000Y27800000D03*
%TD*%
D10*
%TO.C,C13*%
X43220000Y30400000D03*
X44180000Y30400000D03*
%TD*%
D17*
%TO.C,R11*%
X51190000Y24100000D03*
X52210000Y24100000D03*
%TD*%
D10*
%TO.C,C8*%
X72020000Y33500000D03*
X72980000Y33500000D03*
%TD*%
D18*
%TO.C,U2*%
X70475000Y25350000D03*
X70475000Y24650000D03*
X71325000Y25000000D03*
%TD*%
D14*
%TO.C,C41*%
X28130000Y3650000D03*
X27170000Y3650000D03*
%TD*%
D11*
%TO.C,R29*%
X44600000Y19890000D03*
X44600000Y20910000D03*
%TD*%
D12*
%TO.C,R39*%
X52200000Y9510000D03*
X52200000Y8490000D03*
%TD*%
D19*
%TO.C,R14*%
X12300000Y28150000D03*
X12300000Y25225000D03*
%TD*%
D10*
%TO.C,C28*%
X35720000Y8425000D03*
X36680000Y8425000D03*
%TD*%
D20*
%TO.C,C56*%
X71500000Y18920000D03*
X71500000Y19880000D03*
%TD*%
D21*
%TO.C,U11*%
X28150000Y6150000D03*
X27150000Y6150000D03*
D22*
X28900000Y7100000D03*
X28400000Y7100000D03*
X27900000Y7100000D03*
X27400000Y7100000D03*
X26900000Y7100000D03*
X26400000Y7100000D03*
X26400000Y5200000D03*
X26900000Y5200000D03*
X27400000Y5200000D03*
X27900000Y5200000D03*
X28400000Y5200000D03*
X28900000Y5200000D03*
%TD*%
D23*
%TO.C,C22*%
X17750000Y28700000D03*
X19650000Y28700000D03*
%TD*%
D24*
%TO.C,C40*%
X25480000Y3550000D03*
X23580000Y3550000D03*
%TD*%
D20*
%TO.C,C54*%
X59600000Y39120000D03*
X59600000Y40080000D03*
%TD*%
D11*
%TO.C,R3*%
X70500000Y27290000D03*
X70500000Y28310000D03*
%TD*%
D15*
%TO.C,C24*%
X24100000Y27355000D03*
X24100000Y26395000D03*
%TD*%
D25*
%TO.C,U7*%
X17225000Y26905000D03*
X17225000Y25635000D03*
X17225000Y24365000D03*
X17225000Y23095000D03*
X22375000Y23095000D03*
X22375000Y24365000D03*
X22375000Y25635000D03*
X22375000Y26905000D03*
%TD*%
D26*
%TO.C,U1*%
X61050000Y40350000D03*
X61050000Y39850000D03*
X61050000Y39350000D03*
X61050000Y38850000D03*
X64150000Y38850000D03*
X64150000Y39350000D03*
X64150000Y39850000D03*
X64150000Y40350000D03*
%TD*%
D27*
%TO.C,U4*%
X46437500Y26400000D03*
X45162500Y26400000D03*
X46437500Y25125000D03*
X45162500Y25125000D03*
D28*
X48400000Y29200000D03*
X48000000Y29200000D03*
X47600000Y29200000D03*
X47200000Y29200000D03*
X46800000Y29200000D03*
X46400000Y29200000D03*
X46000000Y29200000D03*
X45600000Y29200000D03*
X45200000Y29200000D03*
X44800000Y29200000D03*
X44400000Y29200000D03*
X44000000Y29200000D03*
X43600000Y29200000D03*
X43200000Y29200000D03*
D29*
X42362500Y28362500D03*
X42362500Y27962500D03*
X42362500Y27562500D03*
X42362500Y27162500D03*
X42362500Y26762500D03*
X42362500Y26362500D03*
X42362500Y25962500D03*
X42362500Y25562500D03*
X42362500Y25162500D03*
X42362500Y24762500D03*
X42362500Y24362500D03*
X42362500Y23962500D03*
X42362500Y23562500D03*
X42362500Y23162500D03*
D28*
X43200000Y22325000D03*
X43600000Y22325000D03*
X44000000Y22325000D03*
X44400000Y22325000D03*
X44800000Y22325000D03*
X45200000Y22325000D03*
X45600000Y22325000D03*
X46000000Y22325000D03*
X46400000Y22325000D03*
X46800000Y22325000D03*
X47200000Y22325000D03*
X47600000Y22325000D03*
X48000000Y22325000D03*
X48400000Y22325000D03*
D29*
X49237500Y23162500D03*
X49237500Y23562500D03*
X49237500Y23962500D03*
X49237500Y24362500D03*
X49237500Y24762500D03*
X49237500Y25162500D03*
X49237500Y25562500D03*
X49237500Y25962500D03*
X49237500Y26362500D03*
X49237500Y26762500D03*
X49237500Y27162500D03*
X49237500Y27562500D03*
X49237500Y27962500D03*
X49237500Y28362500D03*
%TD*%
D20*
%TO.C,C3*%
X55400000Y20320000D03*
X55400000Y21280000D03*
%TD*%
D30*
%TO.C,R30*%
X68887500Y40400000D03*
X70712500Y40400000D03*
%TD*%
D31*
%TO.C,J5*%
X77500000Y23600000D03*
X77500000Y26400000D03*
D32*
X73300000Y21900000D03*
X73300000Y22650000D03*
D33*
X73300000Y23250000D03*
X73300000Y24750000D03*
X73300000Y25750000D03*
X73300000Y26750000D03*
D32*
X73300000Y27350000D03*
X73300000Y28100000D03*
X73300000Y28100000D03*
X73300000Y27350000D03*
D33*
X73300000Y26250000D03*
X73300000Y25250000D03*
X73300000Y24250000D03*
X73300000Y23750000D03*
D32*
X73300000Y22650000D03*
X73300000Y21900000D03*
%TD*%
D17*
%TO.C,R22*%
X30390000Y27800000D03*
X31410000Y27800000D03*
%TD*%
D24*
%TO.C,C23*%
X19550000Y21300000D03*
X17650000Y21300000D03*
%TD*%
D34*
%TO.C,R7*%
X55910000Y25300000D03*
X54890000Y25300000D03*
%TD*%
D35*
%TO.C,SW1*%
X63200000Y32300000D03*
X59800000Y32300000D03*
%TD*%
D36*
%TO.C,U9*%
X41000000Y33800000D03*
X41000000Y33300000D03*
X41000000Y32800000D03*
X41000000Y32300000D03*
X41000000Y31800000D03*
X45400000Y31800000D03*
X45400000Y32300000D03*
X45400000Y32800000D03*
X45400000Y33300000D03*
X45400000Y33800000D03*
%TD*%
D20*
%TO.C,C2*%
X68800000Y20120000D03*
X68800000Y21080000D03*
%TD*%
D37*
%TO.C,U6*%
X25650000Y26750000D03*
X25650000Y26250000D03*
X25650000Y25750000D03*
X25650000Y25250000D03*
X25650000Y24750000D03*
X25650000Y24250000D03*
X25650000Y23750000D03*
X25650000Y23250000D03*
X29950000Y23250000D03*
X29950000Y23750000D03*
X29950000Y24250000D03*
X29950000Y24750000D03*
X29950000Y25250000D03*
X29950000Y25750000D03*
X29950000Y26250000D03*
X29950000Y26750000D03*
%TD*%
D11*
%TO.C,R32*%
X30900000Y5240000D03*
X30900000Y6260000D03*
%TD*%
D38*
%TO.C,X1*%
X38400000Y27250000D03*
X39800000Y27250000D03*
X39800000Y28350000D03*
X38400000Y28350000D03*
%TD*%
D20*
%TO.C,C52*%
X36950000Y18570000D03*
X36950000Y19530000D03*
%TD*%
D34*
%TO.C,R6*%
X55910000Y26400000D03*
X54890000Y26400000D03*
%TD*%
D17*
%TO.C,R12*%
X74490000Y17900000D03*
X75510000Y17900000D03*
%TD*%
D14*
%TO.C,C50*%
X37680000Y16000000D03*
X36720000Y16000000D03*
%TD*%
D39*
%TO.C,D3*%
X71500000Y28285000D03*
X71500000Y27315000D03*
%TD*%
D14*
%TO.C,C14*%
X53280000Y26100000D03*
X52320000Y26100000D03*
%TD*%
D20*
%TO.C,C44*%
X25350000Y6120000D03*
X25350000Y7080000D03*
%TD*%
D40*
%TO.C,C33*%
X37000000Y32937500D03*
X37000000Y30862500D03*
%TD*%
D34*
%TO.C,R4*%
X69710000Y26000000D03*
X68690000Y26000000D03*
%TD*%
D13*
%TO.C,D2*%
X78775000Y32100000D03*
X77025000Y32100000D03*
%TD*%
D14*
%TO.C,C18*%
X53280000Y27100000D03*
X52320000Y27100000D03*
%TD*%
D10*
%TO.C,C10*%
X51220000Y22100000D03*
X52180000Y22100000D03*
%TD*%
D12*
%TO.C,R27*%
X26100000Y29710000D03*
X26100000Y28690000D03*
%TD*%
%TO.C,R18*%
X24100000Y24212500D03*
X24100000Y23192500D03*
%TD*%
D34*
%TO.C,R5*%
X69710000Y25000000D03*
X68690000Y25000000D03*
%TD*%
D24*
%TO.C,C48*%
X55150000Y13800000D03*
X53250000Y13800000D03*
%TD*%
D12*
%TO.C,R23*%
X32600000Y24410000D03*
X32600000Y23390000D03*
%TD*%
D10*
%TO.C,C51*%
X39420000Y16000000D03*
X40380000Y16000000D03*
%TD*%
D15*
%TO.C,C37*%
X69800000Y19880000D03*
X69800000Y18920000D03*
%TD*%
D12*
%TO.C,R9*%
X54000000Y32310000D03*
X54000000Y31290000D03*
%TD*%
D14*
%TO.C,C1*%
X55180000Y29900000D03*
X54220000Y29900000D03*
%TD*%
D10*
%TO.C,C31*%
X25295000Y21125000D03*
X26255000Y21125000D03*
%TD*%
D20*
%TO.C,C35*%
X39500000Y31020000D03*
X39500000Y31980000D03*
%TD*%
D24*
%TO.C,C11*%
X40850000Y14500000D03*
X38950000Y14500000D03*
%TD*%
%TO.C,C39*%
X63550000Y42900000D03*
X61650000Y42900000D03*
%TD*%
D11*
%TO.C,R41*%
X52200000Y6590000D03*
X52200000Y7610000D03*
%TD*%
D15*
%TO.C,C12*%
X48500000Y31780000D03*
X48500000Y30820000D03*
%TD*%
D10*
%TO.C,C15*%
X39620000Y25200000D03*
X40580000Y25200000D03*
%TD*%
D41*
%TO.C,U3*%
X66950000Y18855000D03*
X66950000Y20125000D03*
X66950000Y21395000D03*
X66950000Y22665000D03*
X66950000Y23935000D03*
X66950000Y25205000D03*
X66950000Y26475000D03*
X66950000Y27745000D03*
X57650000Y27745000D03*
X57650000Y26475000D03*
X57650000Y25205000D03*
X57650000Y23935000D03*
X57650000Y22665000D03*
X57650000Y21395000D03*
X57650000Y20125000D03*
X57650000Y18855000D03*
%TD*%
D10*
%TO.C,C46*%
X57620000Y12300000D03*
X58580000Y12300000D03*
%TD*%
%TO.C,C55*%
X62220000Y41400000D03*
X63180000Y41400000D03*
%TD*%
%TO.C,C26*%
X35720000Y3900000D03*
X36680000Y3900000D03*
%TD*%
D14*
%TO.C,C47*%
X55180000Y12300000D03*
X54220000Y12300000D03*
%TD*%
D26*
%TO.C,U13*%
X41350000Y17350000D03*
X41350000Y17850000D03*
X41350000Y18350000D03*
X41350000Y18850000D03*
X38250000Y18850000D03*
X38250000Y18350000D03*
X38250000Y17850000D03*
X38250000Y17350000D03*
%TD*%
D42*
%TO.C,J7*%
X75600000Y39600000D03*
D43*
X78200000Y36700000D03*
D44*
X73000000Y42500000D03*
%TD*%
D20*
%TO.C,C16*%
X45500000Y18020000D03*
X45500000Y18980000D03*
%TD*%
D11*
%TO.C,R37*%
X52200000Y3790000D03*
X52200000Y4810000D03*
%TD*%
D17*
%TO.C,R10*%
X51190000Y25050000D03*
X52210000Y25050000D03*
%TD*%
D20*
%TO.C,C34*%
X38500000Y32020000D03*
X38500000Y32980000D03*
%TD*%
D14*
%TO.C,C17*%
X51580000Y21100000D03*
X50620000Y21100000D03*
%TD*%
D17*
%TO.C,R13*%
X74490000Y32100000D03*
X75510000Y32100000D03*
%TD*%
D45*
%TO.C,D4*%
X72985000Y34500000D03*
X72015000Y34500000D03*
%TD*%
D12*
%TO.C,R2*%
X71500000Y23010000D03*
X71500000Y21990000D03*
%TD*%
D46*
%TO.C,U8*%
X35012500Y7100000D03*
X35012500Y6150000D03*
X35012500Y5200000D03*
X37287500Y5200000D03*
X37287500Y6150000D03*
X37287500Y7100000D03*
%TD*%
D14*
%TO.C,C20*%
X22180000Y28225000D03*
X21220000Y28225000D03*
%TD*%
D47*
%TO.C,U12*%
X57800000Y7412500D03*
X56400000Y7412500D03*
X55000000Y7412500D03*
X57800000Y5912500D03*
X56400000Y5912500D03*
X55000000Y5912500D03*
D48*
X59325000Y9612500D03*
X58675000Y9612500D03*
X58025000Y9612500D03*
X57375000Y9612500D03*
X56725000Y9612500D03*
X56075000Y9612500D03*
X55425000Y9612500D03*
X54775000Y9612500D03*
X54125000Y9612500D03*
X53475000Y9612500D03*
X53475000Y3712500D03*
X54125000Y3712500D03*
X54775000Y3712500D03*
X55425000Y3712500D03*
X56075000Y3712500D03*
X56725000Y3712500D03*
X57375000Y3712500D03*
X58025000Y3712500D03*
X58675000Y3712500D03*
X59325000Y3712500D03*
D49*
X56400000Y6662500D03*
%TD*%
D50*
%TO.C,R15*%
X14200000Y25700000D03*
X15395000Y25700000D03*
%TD*%
D34*
%TO.C,R34*%
X31210000Y7150000D03*
X30190000Y7150000D03*
%TD*%
D51*
%TO.C,J1*%
X28200000Y14000000D03*
D52*
X25400000Y14000000D03*
D53*
X31000000Y14000000D03*
%TD*%
D15*
%TO.C,C53*%
X58600000Y40080000D03*
X58600000Y39120000D03*
%TD*%
D54*
%TO.C,C42*%
X27025000Y8750000D03*
X28575000Y8750000D03*
%TD*%
D17*
%TO.C,R35*%
X24090000Y5150000D03*
X25110000Y5150000D03*
%TD*%
D34*
%TO.C,R19*%
X26285000Y20125000D03*
X25265000Y20125000D03*
%TD*%
D15*
%TO.C,C5*%
X54400000Y20380000D03*
X54400000Y19420000D03*
%TD*%
D11*
%TO.C,R20*%
X27500000Y21090000D03*
X27500000Y22110000D03*
%TD*%
D30*
%TO.C,R31*%
X68887500Y38800000D03*
X70712500Y38800000D03*
%TD*%
D11*
%TO.C,R36*%
X60600000Y3790000D03*
X60600000Y4810000D03*
%TD*%
D15*
%TO.C,C43*%
X29950000Y6180000D03*
X29950000Y5220000D03*
%TD*%
D20*
%TO.C,C25*%
X31500000Y25720000D03*
X31500000Y26680000D03*
%TD*%
D23*
%TO.C,C49*%
X57650000Y13800000D03*
X59550000Y13800000D03*
%TD*%
D17*
%TO.C,R43*%
X34930000Y18450000D03*
X35950000Y18450000D03*
%TD*%
%TO.C,R25*%
X28190000Y29700000D03*
X29210000Y29700000D03*
%TD*%
D55*
%TO.C,U5*%
X52850000Y32050000D03*
X52350000Y32050000D03*
X51850000Y32050000D03*
X51350000Y32050000D03*
X51350000Y29550000D03*
X51850000Y29550000D03*
X52350000Y29550000D03*
X52850000Y29550000D03*
D56*
X52100000Y30800000D03*
%TD*%
D57*
%TO.C,L1*%
X68700000Y3425000D03*
X68700000Y4575000D03*
X65900000Y4575000D03*
X65900000Y3425000D03*
%TD*%
D12*
%TO.C,R33*%
X24300000Y7160000D03*
X24300000Y6140000D03*
%TD*%
D15*
%TO.C,C36*%
X39500000Y34080000D03*
X39500000Y33120000D03*
%TD*%
%TO.C,C32*%
X27100000Y29680000D03*
X27100000Y28720000D03*
%TD*%
D14*
%TO.C,C29*%
X36680000Y9400000D03*
X35720000Y9400000D03*
%TD*%
%TO.C,C7*%
X53280000Y28100000D03*
X52320000Y28100000D03*
%TD*%
D20*
%TO.C,C4*%
X36800000Y27320000D03*
X36800000Y28280000D03*
%TD*%
D34*
%TO.C,R42*%
X35950000Y19550000D03*
X34930000Y19550000D03*
%TD*%
%TO.C,R1*%
X58410000Y32300000D03*
X57390000Y32300000D03*
%TD*%
M02*
