%TF.GenerationSoftware,KiCad,Pcbnew,7.0.6-7.0.6~ubuntu20.04.1*%
%TF.CreationDate,2023-09-06T11:46:54-07:00*%
%TF.ProjectId,harp_lick_detector_capactive,68617270-5f6c-4696-936b-5f6465746563,rev?*%
%TF.SameCoordinates,PX640a5a0PY7088980*%
%TF.FileFunction,Copper,L4,Bot*%
%TF.FilePolarity,Positive*%
%FSLAX46Y46*%
G04 Gerber Fmt 4.6, Leading zero omitted, Abs format (unit mm)*
G04 Created by KiCad (PCBNEW 7.0.6-7.0.6~ubuntu20.04.1) date 2023-09-06 11:46:54*
%MOMM*%
%LPD*%
G01*
G04 APERTURE LIST*
%TA.AperFunction,ComponentPad*%
%ADD10R,2.600000X2.600000*%
%TD*%
%TA.AperFunction,ComponentPad*%
%ADD11C,2.600000*%
%TD*%
%TA.AperFunction,ComponentPad*%
%ADD12C,2.300000*%
%TD*%
%TA.AperFunction,ComponentPad*%
%ADD13C,0.600000*%
%TD*%
%TA.AperFunction,SMDPad,CuDef*%
%ADD14R,2.650000X1.000000*%
%TD*%
%TA.AperFunction,ComponentPad*%
%ADD15O,2.300000X1.300000*%
%TD*%
%TA.AperFunction,ComponentPad*%
%ADD16O,2.600000X1.300000*%
%TD*%
%TA.AperFunction,ComponentPad*%
%ADD17C,2.750000*%
%TD*%
%TA.AperFunction,ComponentPad*%
%ADD18R,1.700000X1.700000*%
%TD*%
%TA.AperFunction,ComponentPad*%
%ADD19O,1.700000X1.700000*%
%TD*%
%TA.AperFunction,SMDPad,CuDef*%
%ADD20R,2.200000X2.800000*%
%TD*%
%TA.AperFunction,SMDPad,CuDef*%
%ADD21R,2.800000X2.800000*%
%TD*%
%TA.AperFunction,ViaPad*%
%ADD22C,0.457200*%
%TD*%
%TA.AperFunction,Conductor*%
%ADD23C,0.152400*%
%TD*%
%TA.AperFunction,Conductor*%
%ADD24C,0.254000*%
%TD*%
%TA.AperFunction,Conductor*%
%ADD25C,0.250000*%
%TD*%
G04 APERTURE END LIST*
D10*
%TO.P,J6,1*%
%TO.N,+12V*%
X65800000Y11250000D03*
D11*
%TO.P,J6,2*%
%TO.N,GND2*%
X71800000Y11250000D03*
%TO.P,J6,3*%
%TO.N,unconnected-(J6-Pad3)*%
X68800000Y15950000D03*
%TD*%
D12*
%TO.P,J3,1,In*%
%TO.N,/Lick Detection Analog Front End/triax_core*%
X7000000Y25000000D03*
%TO.P,J3,2,Guard*%
%TO.N,/Lick Detection Analog Front End/triax_inner_shield*%
X4460000Y25000000D03*
%TO.P,J3,3,Shield*%
%TO.N,GND*%
X3190000Y21723400D03*
X9743200Y21723400D03*
X3310000Y28276600D03*
X9743200Y28276600D03*
%TD*%
D13*
%TO.P,U11,13,PAD*%
%TO.N,GND*%
X28650000Y6150000D03*
X27650000Y6150000D03*
D14*
X27650000Y6150000D03*
D13*
X26650000Y6150000D03*
%TD*%
%TO.P,U4,57,GND*%
%TO.N,GND*%
X47075000Y27037500D03*
X45800000Y27037500D03*
X44525000Y27037500D03*
X47075000Y25762500D03*
X45800000Y25762500D03*
X44525000Y25762500D03*
X47075000Y24487500D03*
X45800000Y24487500D03*
X44525000Y24487500D03*
%TD*%
D15*
%TO.P,J5,S1,SHIELD*%
%TO.N,GND1*%
X73675000Y20680000D03*
D16*
X77500000Y20680000D03*
D15*
X73675000Y29320000D03*
D16*
X77500000Y29320000D03*
%TD*%
D17*
%TO.P,H1,1,1*%
%TO.N,GND*%
X10100000Y15750000D03*
X5100000Y15750000D03*
X10100000Y8250000D03*
X5100000Y8250000D03*
%TD*%
D18*
%TO.P,J2,1,Pin_1*%
%TO.N,/Harp Core RP2040 + Isolated USB/UART0_TXD*%
X49500000Y38400000D03*
D19*
%TO.P,J2,2,Pin_2*%
%TO.N,/Harp Core RP2040 + Isolated USB/UART0_RXD*%
X52040000Y38400000D03*
%TO.P,J2,3,Pin_3*%
%TO.N,GND*%
X54580000Y38400000D03*
%TD*%
D20*
%TO.P,J4,R*%
%TO.N,+3V3*%
X72600000Y43300000D03*
%TO.P,J4,S*%
%TO.N,GND*%
X74600000Y35900000D03*
D21*
%TO.P,J4,T*%
%TO.N,/Harp Core RP2040 + Isolated USB/HARP_CLK_SYNC*%
X65200000Y35900000D03*
%TD*%
D22*
%TO.N,GND*%
X35700000Y2200000D03*
X71100000Y42500000D03*
X16800000Y21300000D03*
X29297500Y31400000D03*
X38500000Y31300000D03*
X32100000Y14500000D03*
X59500000Y12300000D03*
X29600000Y8750000D03*
X39400000Y16700000D03*
X59500000Y38300000D03*
X16900000Y28700000D03*
X49400000Y21400000D03*
X78700000Y16900000D03*
X56200000Y20100000D03*
X54200000Y28100000D03*
X54200000Y26500000D03*
X50900000Y32600000D03*
X63800000Y33300000D03*
X56075000Y4937500D03*
X52200000Y6000000D03*
X22900000Y21800000D03*
X60700000Y42692500D03*
X39000000Y24100000D03*
X56100000Y27900000D03*
X25900000Y30500000D03*
X24500000Y14500000D03*
X56725000Y4937500D03*
X34200000Y19700000D03*
X61500000Y41200000D03*
X24075000Y28100000D03*
X71100000Y36700000D03*
X38900000Y25100000D03*
X52900000Y23100000D03*
X62900000Y3100000D03*
X34300000Y24600000D03*
X22530000Y3550000D03*
X32100000Y27200000D03*
X60600000Y6000000D03*
X73300000Y35300000D03*
X52300000Y21100000D03*
X39800000Y26300000D03*
X35800000Y30900000D03*
X52900000Y22100000D03*
X58700000Y38300000D03*
X28800000Y25750000D03*
X26775000Y24750000D03*
X48500000Y32600000D03*
X22900000Y28225000D03*
X56725000Y8387500D03*
X56075000Y8387500D03*
X42000000Y32300000D03*
X26400000Y19400000D03*
X37500000Y27200000D03*
X55900000Y29900000D03*
X61000000Y38100000D03*
X39500000Y30000000D03*
X38600000Y16000000D03*
X53300000Y12300000D03*
X35012500Y7855000D03*
X54200000Y27100000D03*
X42500000Y30300000D03*
%TO.N,+3V3*%
X48500000Y30100000D03*
X56100000Y23800000D03*
X56100000Y40400000D03*
X51100000Y26100000D03*
X48400000Y21400000D03*
X40400000Y16700000D03*
X37500000Y28280000D03*
X41362500Y23962500D03*
X44800000Y30100000D03*
X56200000Y21400000D03*
X51600000Y25800000D03*
X56100000Y22800000D03*
X50200000Y22800000D03*
X56000000Y43200000D03*
X50100000Y21700000D03*
X56200000Y18900000D03*
X54775000Y10800000D03*
X52200000Y10200000D03*
X53600000Y29900000D03*
X35800000Y32900000D03*
X41300000Y25562500D03*
X55425000Y10800000D03*
X71700000Y35289500D03*
X45300000Y19600000D03*
%TO.N,GND1*%
X71800000Y24921900D03*
X71800000Y23769500D03*
%TO.N,+2V5*%
X29950000Y4450000D03*
X20500000Y28300000D03*
X24100000Y25700000D03*
%TO.N,-2V5*%
X25400000Y7850000D03*
X20500000Y21700000D03*
X28600000Y24400000D03*
%TO.N,+5V*%
X60600000Y10200000D03*
X26400000Y3450000D03*
X63875000Y41275000D03*
X28025000Y7775000D03*
X57375000Y10800000D03*
X58025000Y10800000D03*
X29028350Y4478350D03*
X36700000Y2200000D03*
X26675000Y4475000D03*
%TO.N,Net-(C30-Pad2)*%
X27304236Y23404247D03*
X28100000Y27100000D03*
%TO.N,/Lick Detection Analog Front End/triax_inner_shield*%
X15900000Y26700000D03*
X7600000Y23300000D03*
X13400000Y26700000D03*
X9600000Y26700000D03*
X8600000Y26700000D03*
X10600000Y23300000D03*
X14900000Y26700000D03*
X11600000Y23300000D03*
X11600000Y26700000D03*
X7600000Y26700000D03*
X9600000Y23300000D03*
X6600000Y26700000D03*
X15900000Y23300000D03*
X8600000Y23300000D03*
X5700000Y26200000D03*
X10600000Y26700000D03*
X5700000Y23800000D03*
X13400000Y23300000D03*
X6600000Y23300000D03*
X14900000Y23300000D03*
%TO.N,/Harp Core RP2040 + Isolated USB/HARP_CLK_SYNC*%
X45900000Y30300000D03*
%TO.N,Net-(U4-GPIO24)*%
X62600000Y17900000D03*
X59900000Y17400000D03*
%TO.N,Net-(U4-GPIO25)*%
X59600000Y29700000D03*
X65000000Y32100000D03*
%TD*%
D23*
%TO.N,GND*%
X73300000Y35300000D02*
X73900000Y35900000D01*
X73900000Y35900000D02*
X74600000Y35900000D01*
D24*
%TO.N,+3V3*%
X72500000Y43200000D02*
X72600000Y43300000D01*
X56000000Y43200000D02*
X72500000Y43200000D01*
D23*
X71700000Y35289500D02*
X71700000Y42400000D01*
X71700000Y42400000D02*
X72600000Y43300000D01*
%TO.N,GND1*%
X77500000Y20680000D02*
X73675000Y20680000D01*
X71800000Y24921900D02*
X71800000Y23769500D01*
X77500000Y29320000D02*
X73675000Y29320000D01*
D25*
%TO.N,+5V*%
X29025000Y4475000D02*
X26675000Y4475000D01*
X28025000Y7775000D02*
X28925000Y7775000D01*
X28925000Y7775000D02*
X29252400Y7447600D01*
X29252400Y4702400D02*
X29028350Y4478350D01*
X29028350Y4478350D02*
X29025000Y4475000D01*
X29252400Y7447600D02*
X29252400Y4702400D01*
D23*
%TO.N,Net-(C30-Pad2)*%
X28100000Y24200000D02*
X28100000Y27100000D01*
X27304236Y23404247D02*
X27304247Y23404247D01*
X27304247Y23404247D02*
X28100000Y24200000D01*
D24*
%TO.N,/Lick Detection Analog Front End/triax_inner_shield*%
X8700000Y24814214D02*
X8700000Y25185786D01*
X7600000Y23300000D02*
X8407107Y24107107D01*
X5660000Y26200000D02*
X5700000Y26200000D01*
X4460000Y25000000D02*
X5660000Y26200000D01*
X4460000Y25000000D02*
X5660000Y23800000D01*
X6600000Y26700000D02*
X7600000Y26700000D01*
X5660000Y23800000D02*
X5700000Y23800000D01*
X6574214Y23300000D02*
X6600000Y23300000D01*
X5700000Y26240000D02*
X5867107Y26407107D01*
X5700000Y23760000D02*
X5867107Y23592893D01*
X6600000Y23300000D02*
X7600000Y23300000D01*
X5700000Y26200000D02*
X5700000Y26240000D01*
X6574214Y26700000D02*
X6600000Y26700000D01*
X7600000Y26700000D02*
X8407107Y25892893D01*
X5700000Y23800000D02*
X5700000Y23760000D01*
X5867100Y23592886D02*
G75*
G03*
X6574214Y23300000I707100J707114D01*
G01*
X8407114Y24107100D02*
G75*
G03*
X8700000Y24814214I-707114J707100D01*
G01*
X8699990Y25185786D02*
G75*
G03*
X8407107Y25892893I-999990J14D01*
G01*
X6574214Y26699990D02*
G75*
G03*
X5867107Y26407107I-14J-999990D01*
G01*
D23*
%TO.N,/Harp Core RP2040 + Isolated USB/HARP_CLK_SYNC*%
X63900000Y34600000D02*
X65200000Y35900000D01*
X46192893Y31292893D02*
X49207107Y34307107D01*
X45900000Y30300000D02*
X45900000Y30585786D01*
X49914214Y34600000D02*
X63900000Y34600000D01*
X49914214Y34599990D02*
G75*
G03*
X49207107Y34307107I-14J-999990D01*
G01*
X46192886Y31292900D02*
G75*
G03*
X45900000Y30585786I707114J-707100D01*
G01*
%TO.N,Net-(U4-GPIO24)*%
X60400000Y17900000D02*
X62600000Y17900000D01*
X59900000Y17400000D02*
X60400000Y17900000D01*
%TO.N,Net-(U4-GPIO25)*%
X62000000Y32100000D02*
X59600000Y29700000D01*
X65000000Y32100000D02*
X62000000Y32100000D01*
%TD*%
%TA.AperFunction,Conductor*%
%TO.N,GND*%
G36*
X77001735Y49618402D02*
G01*
X77132594Y49611054D01*
X77289712Y49602230D01*
X77296599Y49601454D01*
X77579234Y49553433D01*
X77586017Y49551885D01*
X77861495Y49472522D01*
X77868055Y49470225D01*
X77984861Y49421843D01*
X78132916Y49360517D01*
X78139173Y49357502D01*
X78390075Y49218833D01*
X78395967Y49215131D01*
X78629764Y49049243D01*
X78635205Y49044905D01*
X78848960Y48853881D01*
X78853880Y48848961D01*
X79044904Y48635206D01*
X79049242Y48629765D01*
X79215130Y48395968D01*
X79218832Y48390076D01*
X79357501Y48139174D01*
X79360521Y48132905D01*
X79470224Y47868056D01*
X79472523Y47861489D01*
X79551884Y47586018D01*
X79553432Y47579235D01*
X79601451Y47296617D01*
X79602230Y47289703D01*
X79618402Y47001737D01*
X79618500Y46998259D01*
X79618500Y3001742D01*
X79618402Y2998264D01*
X79602230Y2710298D01*
X79601451Y2703384D01*
X79553432Y2420766D01*
X79551884Y2413983D01*
X79472523Y2138512D01*
X79470224Y2131945D01*
X79360521Y1867096D01*
X79357501Y1860827D01*
X79218832Y1609925D01*
X79215130Y1604033D01*
X79049242Y1370236D01*
X79044904Y1364795D01*
X78853880Y1151040D01*
X78848960Y1146120D01*
X78635205Y955096D01*
X78629764Y950758D01*
X78395967Y784870D01*
X78390075Y781168D01*
X78139173Y642499D01*
X78132904Y639479D01*
X77868055Y529776D01*
X77861488Y527477D01*
X77586017Y448116D01*
X77579234Y446568D01*
X77296616Y398549D01*
X77289702Y397770D01*
X77001736Y381598D01*
X76998258Y381500D01*
X3001742Y381500D01*
X2998265Y381598D01*
X2710297Y397770D01*
X2703385Y398549D01*
X2663072Y405399D01*
X2420765Y446568D01*
X2413982Y448116D01*
X2138511Y527477D01*
X2131944Y529776D01*
X1908491Y622333D01*
X1867091Y639481D01*
X1860826Y642499D01*
X1609924Y781168D01*
X1604032Y784870D01*
X1370235Y950758D01*
X1364794Y955096D01*
X1151039Y1146120D01*
X1146119Y1151040D01*
X955095Y1364795D01*
X950757Y1370236D01*
X784869Y1604033D01*
X781167Y1609925D01*
X642498Y1860827D01*
X639483Y1867084D01*
X560309Y2058228D01*
X529775Y2131945D01*
X527476Y2138512D01*
X517740Y2172306D01*
X448115Y2413983D01*
X446567Y2420766D01*
X445502Y2427035D01*
X398546Y2703401D01*
X397770Y2710288D01*
X385227Y2933638D01*
X381598Y2998265D01*
X381500Y3001742D01*
X381500Y3066363D01*
X1268687Y3066363D01*
X1278846Y2801301D01*
X1329350Y2540894D01*
X1419009Y2291257D01*
X1419012Y2291250D01*
X1545726Y2058228D01*
X1545729Y2058223D01*
X1706530Y1847272D01*
X1706534Y1847267D01*
X1897657Y1663330D01*
X2114617Y1510723D01*
X2352331Y1393024D01*
X2605225Y1312991D01*
X2867372Y1272500D01*
X2867376Y1272500D01*
X3066219Y1272500D01*
X3066220Y1272500D01*
X3264478Y1287721D01*
X3522756Y1348161D01*
X3577528Y1370236D01*
X3768774Y1447314D01*
X3768779Y1447317D01*
X3768782Y1447318D01*
X3996788Y1582869D01*
X4201430Y1751636D01*
X4377912Y1949664D01*
X4448215Y2058224D01*
X4522094Y2172306D01*
X4522094Y2172308D01*
X4522096Y2172310D01*
X4534508Y2199998D01*
X36313745Y2199998D01*
X36332648Y2080644D01*
X36387511Y1972967D01*
X36472966Y1887512D01*
X36580643Y1832649D01*
X36699998Y1813745D01*
X36700000Y1813745D01*
X36700002Y1813745D01*
X36819356Y1832649D01*
X36819357Y1832650D01*
X36819359Y1832650D01*
X36927035Y1887513D01*
X37012487Y1972965D01*
X37067350Y2080641D01*
X37067350Y2080643D01*
X37067351Y2080644D01*
X37086255Y2199998D01*
X37086255Y2200003D01*
X37067351Y2319357D01*
X37012488Y2427034D01*
X36927033Y2512489D01*
X36819356Y2567352D01*
X36700002Y2586255D01*
X36699998Y2586255D01*
X36580643Y2567352D01*
X36472966Y2512489D01*
X36387511Y2427034D01*
X36332648Y2319357D01*
X36313745Y2200003D01*
X36313745Y2199998D01*
X4534508Y2199998D01*
X4630604Y2414357D01*
X4700892Y2670131D01*
X4731313Y2933637D01*
X4721153Y3198699D01*
X4716446Y3222967D01*
X4672416Y3449998D01*
X26013744Y3449998D01*
X26032648Y3330644D01*
X26087511Y3222967D01*
X26172966Y3137512D01*
X26280643Y3082649D01*
X26399998Y3063745D01*
X26400000Y3063745D01*
X26400002Y3063745D01*
X26416531Y3066363D01*
X75268687Y3066363D01*
X75278846Y2801301D01*
X75329350Y2540894D01*
X75419009Y2291257D01*
X75419012Y2291250D01*
X75545726Y2058228D01*
X75545729Y2058223D01*
X75706530Y1847272D01*
X75706534Y1847267D01*
X75897657Y1663330D01*
X76114617Y1510723D01*
X76352331Y1393024D01*
X76605225Y1312991D01*
X76867372Y1272500D01*
X76867376Y1272500D01*
X77066219Y1272500D01*
X77066220Y1272500D01*
X77264478Y1287721D01*
X77522756Y1348161D01*
X77577528Y1370236D01*
X77768774Y1447314D01*
X77768779Y1447317D01*
X77768782Y1447318D01*
X77996788Y1582869D01*
X78201430Y1751636D01*
X78377912Y1949664D01*
X78448215Y2058224D01*
X78522094Y2172306D01*
X78522094Y2172308D01*
X78522096Y2172310D01*
X78630604Y2414357D01*
X78700892Y2670131D01*
X78731313Y2933637D01*
X78721153Y3198699D01*
X78716446Y3222967D01*
X78670649Y3459107D01*
X78580990Y3708744D01*
X78580987Y3708751D01*
X78454273Y3941773D01*
X78454270Y3941778D01*
X78293469Y4152729D01*
X78293466Y4152733D01*
X78102343Y4336670D01*
X78075368Y4355644D01*
X77885382Y4489278D01*
X77647670Y4606976D01*
X77647667Y4606977D01*
X77394777Y4687009D01*
X77289916Y4703206D01*
X77132628Y4727500D01*
X76933780Y4727500D01*
X76735522Y4712279D01*
X76735518Y4712279D01*
X76477246Y4651840D01*
X76477236Y4651837D01*
X76231225Y4552687D01*
X76231216Y4552682D01*
X76003213Y4417132D01*
X75802150Y4251316D01*
X75798570Y4248364D01*
X75779369Y4226819D01*
X75622088Y4050337D01*
X75622081Y4050328D01*
X75477905Y3827695D01*
X75477904Y3827691D01*
X75369395Y3585643D01*
X75299108Y3329872D01*
X75268687Y3066363D01*
X26416531Y3066363D01*
X26519356Y3082649D01*
X26519357Y3082650D01*
X26519359Y3082650D01*
X26627035Y3137513D01*
X26712487Y3222965D01*
X26767350Y3330641D01*
X26767350Y3330643D01*
X26767351Y3330644D01*
X26786255Y3449998D01*
X26786255Y3450003D01*
X26767351Y3569357D01*
X26712488Y3677034D01*
X26627033Y3762489D01*
X26519356Y3817352D01*
X26400002Y3836255D01*
X26399998Y3836255D01*
X26280643Y3817352D01*
X26172966Y3762489D01*
X26087511Y3677034D01*
X26032648Y3569357D01*
X26013744Y3450003D01*
X26013744Y3449998D01*
X4672416Y3449998D01*
X4670649Y3459107D01*
X4580990Y3708744D01*
X4580987Y3708751D01*
X4454273Y3941773D01*
X4454270Y3941778D01*
X4293469Y4152729D01*
X4293466Y4152733D01*
X4102343Y4336670D01*
X4075368Y4355644D01*
X3905684Y4474998D01*
X26288744Y4474998D01*
X26307648Y4355644D01*
X26362511Y4247967D01*
X26447966Y4162512D01*
X26555643Y4107649D01*
X26674998Y4088745D01*
X26675000Y4088745D01*
X26675002Y4088745D01*
X26794356Y4107649D01*
X26794357Y4107650D01*
X26794359Y4107650D01*
X26902035Y4162513D01*
X26902037Y4162516D01*
X26909926Y4168246D01*
X26911075Y4166664D01*
X26961626Y4194266D01*
X26987984Y4197100D01*
X28718716Y4197100D01*
X28785755Y4177415D01*
X28793258Y4171369D01*
X28793424Y4171596D01*
X28801315Y4165863D01*
X28908993Y4110999D01*
X29028348Y4092095D01*
X29028350Y4092095D01*
X29028352Y4092095D01*
X29147706Y4110999D01*
X29147707Y4111000D01*
X29147709Y4111000D01*
X29255385Y4165863D01*
X29340837Y4251315D01*
X29371467Y4311432D01*
X29419440Y4362227D01*
X29487260Y4379023D01*
X29553396Y4356487D01*
X29592437Y4311431D01*
X29637511Y4222967D01*
X29722966Y4137512D01*
X29830643Y4082649D01*
X29949998Y4063745D01*
X29950000Y4063745D01*
X29950002Y4063745D01*
X30069356Y4082649D01*
X30069357Y4082650D01*
X30069359Y4082650D01*
X30177035Y4137513D01*
X30262487Y4222965D01*
X30317350Y4330641D01*
X30317350Y4330643D01*
X30317351Y4330644D01*
X30336255Y4449998D01*
X30336255Y4450003D01*
X30317351Y4569357D01*
X30262488Y4677034D01*
X30177033Y4762489D01*
X30069356Y4817352D01*
X29950002Y4836255D01*
X29949998Y4836255D01*
X29830643Y4817352D01*
X29714269Y4758057D01*
X29713023Y4760501D01*
X29661378Y4742074D01*
X29593324Y4757900D01*
X29544630Y4808006D01*
X29530300Y4865872D01*
X29530300Y7389156D01*
X29530895Y7397732D01*
X29532401Y7408535D01*
X29532403Y7408540D01*
X29530366Y7452606D01*
X29530300Y7455469D01*
X29530300Y7473351D01*
X29530300Y7473353D01*
X29529904Y7475467D01*
X29528914Y7484005D01*
X29527605Y7512327D01*
X29525454Y7517197D01*
X29517001Y7544497D01*
X29516768Y7545740D01*
X29516023Y7549728D01*
X29516020Y7549733D01*
X29501096Y7573837D01*
X29497088Y7581441D01*
X29485639Y7607371D01*
X29481876Y7611134D01*
X29464129Y7633540D01*
X29461329Y7638062D01*
X29438701Y7655150D01*
X29432216Y7660794D01*
X29162831Y7930179D01*
X29157187Y7936665D01*
X29150610Y7945374D01*
X29118018Y7975086D01*
X29115946Y7977064D01*
X29103293Y7989717D01*
X29101512Y7990937D01*
X29094777Y7996273D01*
X29073830Y8015368D01*
X29068862Y8017293D01*
X29043588Y8030615D01*
X29039194Y8033625D01*
X29039193Y8033626D01*
X29039192Y8033626D01*
X29011591Y8040119D01*
X29003383Y8042661D01*
X28976950Y8052900D01*
X28976949Y8052900D01*
X28971626Y8052900D01*
X28943236Y8056194D01*
X28938057Y8057412D01*
X28909975Y8053495D01*
X28901402Y8052900D01*
X28337984Y8052900D01*
X28270945Y8072585D01*
X28256271Y8084410D01*
X28252034Y8087488D01*
X28144356Y8142352D01*
X28025002Y8161255D01*
X28024998Y8161255D01*
X27905643Y8142352D01*
X27797966Y8087489D01*
X27712511Y8002034D01*
X27657648Y7894357D01*
X27638744Y7775003D01*
X27638744Y7774998D01*
X27657648Y7655644D01*
X27712511Y7547967D01*
X27797966Y7462512D01*
X27905643Y7407649D01*
X28024998Y7388745D01*
X28025000Y7388745D01*
X28025002Y7388745D01*
X28144356Y7407649D01*
X28144357Y7407650D01*
X28144359Y7407650D01*
X28252035Y7462513D01*
X28252037Y7462516D01*
X28259926Y7468246D01*
X28261075Y7466664D01*
X28311626Y7494266D01*
X28337984Y7497100D01*
X28758529Y7497100D01*
X28825568Y7477415D01*
X28846210Y7460781D01*
X28938181Y7368810D01*
X28971666Y7307487D01*
X28974500Y7281129D01*
X28974500Y7028000D01*
X28954815Y6960961D01*
X28902011Y6915206D01*
X28850500Y6904000D01*
X27777000Y6904000D01*
X27776999Y6235132D01*
X27727645Y6284486D01*
X27669746Y6300000D01*
X27630254Y6300000D01*
X27572355Y6284486D01*
X27515514Y6227646D01*
X27494709Y6150000D01*
X27515514Y6072355D01*
X27572355Y6015514D01*
X27630254Y6000000D01*
X27669746Y6000000D01*
X27727645Y6015514D01*
X27776999Y6064869D01*
X27777000Y5396001D01*
X28850500Y5396001D01*
X28917539Y5376316D01*
X28963294Y5323512D01*
X28974500Y5272001D01*
X28974500Y4955066D01*
X28954815Y4888027D01*
X28906794Y4844581D01*
X28801316Y4790839D01*
X28799697Y4789219D01*
X28797243Y4787880D01*
X28793424Y4785104D01*
X28793065Y4785598D01*
X28738374Y4755734D01*
X28712016Y4752900D01*
X26987984Y4752900D01*
X26920945Y4772585D01*
X26906271Y4784410D01*
X26902034Y4787488D01*
X26794356Y4842352D01*
X26675002Y4861255D01*
X26674998Y4861255D01*
X26555643Y4842352D01*
X26447966Y4787489D01*
X26362511Y4702034D01*
X26307648Y4594357D01*
X26288744Y4475003D01*
X26288744Y4474998D01*
X3905684Y4474998D01*
X3885382Y4489278D01*
X3647670Y4606976D01*
X3647667Y4606977D01*
X3394777Y4687009D01*
X3289916Y4703206D01*
X3132628Y4727500D01*
X2933780Y4727500D01*
X2735522Y4712279D01*
X2735518Y4712279D01*
X2477246Y4651840D01*
X2477236Y4651837D01*
X2231225Y4552687D01*
X2231216Y4552682D01*
X2003213Y4417132D01*
X1802150Y4251316D01*
X1798570Y4248364D01*
X1779369Y4226820D01*
X1622088Y4050337D01*
X1622081Y4050328D01*
X1477905Y3827695D01*
X1477904Y3827691D01*
X1369395Y3585643D01*
X1299108Y3329872D01*
X1268687Y3066363D01*
X381500Y3066363D01*
X381500Y6277000D01*
X26071000Y6277000D01*
X26564869Y6277000D01*
X26515514Y6227646D01*
X26494709Y6150000D01*
X26515514Y6072355D01*
X26564869Y6023000D01*
X26071001Y6023000D01*
X26071001Y5624986D01*
X26085737Y5550894D01*
X26085738Y5550891D01*
X26141876Y5466877D01*
X26225895Y5410737D01*
X26225896Y5410736D01*
X26299980Y5396001D01*
X27522999Y5396001D01*
X27523000Y5396002D01*
X27523000Y6023000D01*
X26735131Y6023000D01*
X26784486Y6072354D01*
X26805291Y6150000D01*
X26784486Y6227645D01*
X26735131Y6277000D01*
X27523000Y6277000D01*
X27523000Y6904000D01*
X26299985Y6904000D01*
X26225893Y6889263D01*
X26225890Y6889262D01*
X26141876Y6833124D01*
X26085736Y6749105D01*
X26085735Y6749104D01*
X26071000Y6675022D01*
X26071000Y6277000D01*
X381500Y6277000D01*
X381500Y8250000D01*
X3465963Y8250000D01*
X3486081Y7994377D01*
X3545938Y7745053D01*
X3644061Y7508163D01*
X3778032Y7289542D01*
X3778033Y7289540D01*
X3861826Y7191432D01*
X4362193Y7691800D01*
X4408805Y7627645D01*
X4539536Y7509934D01*
X4041430Y7011828D01*
X4139539Y6928034D01*
X4139541Y6928033D01*
X4358162Y6794062D01*
X4595052Y6695939D01*
X4844376Y6636082D01*
X5099999Y6615964D01*
X5355623Y6636082D01*
X5604947Y6695939D01*
X5841837Y6794062D01*
X6060458Y6928033D01*
X6060459Y6928034D01*
X6158568Y7011828D01*
X5660462Y7509933D01*
X5791195Y7627645D01*
X5837805Y7691799D01*
X6338172Y7191432D01*
X6421966Y7289541D01*
X6421967Y7289542D01*
X6555938Y7508163D01*
X6654061Y7745053D01*
X6713918Y7994377D01*
X6734036Y8250000D01*
X8465963Y8250000D01*
X8486081Y7994377D01*
X8545938Y7745053D01*
X8644061Y7508163D01*
X8778032Y7289542D01*
X8778033Y7289540D01*
X8861826Y7191432D01*
X9362193Y7691800D01*
X9408805Y7627645D01*
X9539536Y7509934D01*
X9041430Y7011828D01*
X9139539Y6928034D01*
X9139541Y6928033D01*
X9358162Y6794062D01*
X9595052Y6695939D01*
X9844376Y6636082D01*
X10100000Y6615964D01*
X10355623Y6636082D01*
X10604947Y6695939D01*
X10841837Y6794062D01*
X11060458Y6928033D01*
X11060459Y6928034D01*
X11158568Y7011828D01*
X10660462Y7509933D01*
X10791195Y7627645D01*
X10837805Y7691799D01*
X11338172Y7191432D01*
X11421966Y7289541D01*
X11421967Y7289542D01*
X11555938Y7508163D01*
X11654061Y7745053D01*
X11679256Y7849998D01*
X25013744Y7849998D01*
X25032648Y7730644D01*
X25087511Y7622967D01*
X25172966Y7537512D01*
X25280643Y7482649D01*
X25399998Y7463745D01*
X25400000Y7463745D01*
X25400002Y7463745D01*
X25519356Y7482649D01*
X25519357Y7482650D01*
X25519359Y7482650D01*
X25627035Y7537513D01*
X25712487Y7622965D01*
X25767350Y7730641D01*
X25767350Y7730643D01*
X25767351Y7730644D01*
X25786255Y7849998D01*
X25786255Y7850003D01*
X25767351Y7969357D01*
X25712488Y8077034D01*
X25627033Y8162489D01*
X25519356Y8217352D01*
X25400002Y8236255D01*
X25399998Y8236255D01*
X25280643Y8217352D01*
X25172966Y8162489D01*
X25087511Y8077034D01*
X25032648Y7969357D01*
X25013744Y7850003D01*
X25013744Y7849998D01*
X11679256Y7849998D01*
X11713918Y7994377D01*
X11734036Y8250000D01*
X11713918Y8505624D01*
X11654061Y8754948D01*
X11555938Y8991838D01*
X11421967Y9210459D01*
X11421966Y9210461D01*
X11338172Y9308570D01*
X10837804Y8808202D01*
X10791195Y8872355D01*
X10660462Y8990068D01*
X11158568Y9488174D01*
X11060460Y9571967D01*
X11060458Y9571968D01*
X10841837Y9705939D01*
X10604947Y9804062D01*
X10355623Y9863919D01*
X10100000Y9884037D01*
X9844376Y9863919D01*
X9595052Y9804062D01*
X9358162Y9705939D01*
X9139539Y9571966D01*
X9139534Y9571963D01*
X9041430Y9488174D01*
X9539537Y8990068D01*
X9408805Y8872355D01*
X9362194Y8808202D01*
X8861826Y9308570D01*
X8778037Y9210466D01*
X8778034Y9210461D01*
X8644061Y8991838D01*
X8545938Y8754948D01*
X8486081Y8505624D01*
X8465963Y8250000D01*
X6734036Y8250000D01*
X6713918Y8505624D01*
X6654061Y8754948D01*
X6555938Y8991838D01*
X6421967Y9210459D01*
X6421966Y9210461D01*
X6338172Y9308570D01*
X5837804Y8808203D01*
X5791195Y8872355D01*
X5660461Y8990068D01*
X6158568Y9488174D01*
X6060460Y9571967D01*
X6060458Y9571968D01*
X5841837Y9705939D01*
X5604947Y9804062D01*
X5355623Y9863919D01*
X5100000Y9884037D01*
X4844376Y9863919D01*
X4595052Y9804062D01*
X4358162Y9705939D01*
X4139539Y9571966D01*
X4139534Y9571963D01*
X4041430Y9488174D01*
X4539536Y8990067D01*
X4408805Y8872355D01*
X4362194Y8808202D01*
X3861826Y9308570D01*
X3778037Y9210466D01*
X3778034Y9210461D01*
X3644061Y8991838D01*
X3545938Y8754948D01*
X3486081Y8505624D01*
X3465963Y8250000D01*
X381500Y8250000D01*
X381500Y10199998D01*
X51813745Y10199998D01*
X51832648Y10080644D01*
X51887511Y9972967D01*
X51972966Y9887512D01*
X52080643Y9832649D01*
X52199998Y9813745D01*
X52200000Y9813745D01*
X52200002Y9813745D01*
X52319356Y9832649D01*
X52319357Y9832650D01*
X52319359Y9832650D01*
X52427035Y9887513D01*
X52512487Y9972965D01*
X52567350Y10080641D01*
X52567350Y10080643D01*
X52567351Y10080644D01*
X52586255Y10199998D01*
X60213745Y10199998D01*
X60232648Y10080644D01*
X60287511Y9972967D01*
X60372966Y9887512D01*
X60480643Y9832649D01*
X60599998Y9813745D01*
X60600000Y9813745D01*
X60600002Y9813745D01*
X60719356Y9832649D01*
X60719357Y9832650D01*
X60719359Y9832650D01*
X60827035Y9887513D01*
X60874468Y9934946D01*
X64347100Y9934946D01*
X64355972Y9890342D01*
X64355973Y9890339D01*
X64373627Y9863919D01*
X64389766Y9839766D01*
X64440342Y9805972D01*
X64440343Y9805972D01*
X64440345Y9805971D01*
X64462642Y9801536D01*
X64484943Y9797100D01*
X67115056Y9797101D01*
X67159658Y9805972D01*
X67210234Y9839766D01*
X67244028Y9890342D01*
X67252900Y9934943D01*
X67252900Y11249995D01*
X70342121Y11249995D01*
X70362004Y11010045D01*
X70421113Y10776627D01*
X70512910Y10567350D01*
X70517834Y10556126D01*
X70649529Y10354552D01*
X70812605Y10177404D01*
X70812608Y10177402D01*
X70812611Y10177399D01*
X71002607Y10029519D01*
X71002613Y10029515D01*
X71002616Y10029513D01*
X71214377Y9914913D01*
X71442112Y9836732D01*
X71679609Y9797100D01*
X71679610Y9797100D01*
X71920390Y9797100D01*
X71920391Y9797100D01*
X72157888Y9836732D01*
X72385623Y9914913D01*
X72597384Y10029513D01*
X72787395Y10177404D01*
X72950471Y10354552D01*
X73082166Y10556126D01*
X73178887Y10776627D01*
X73237995Y11010041D01*
X73251030Y11167350D01*
X73257879Y11249995D01*
X73257879Y11250006D01*
X73237995Y11489956D01*
X73237995Y11489959D01*
X73178887Y11723373D01*
X73082166Y11943874D01*
X72950471Y12145448D01*
X72787395Y12322596D01*
X72787390Y12322600D01*
X72787388Y12322602D01*
X72597392Y12470482D01*
X72597386Y12470486D01*
X72385624Y12585087D01*
X72385619Y12585089D01*
X72157890Y12663268D01*
X71973545Y12694030D01*
X71920391Y12702900D01*
X71679609Y12702900D01*
X71626455Y12694030D01*
X71442109Y12663268D01*
X71214380Y12585089D01*
X71214375Y12585087D01*
X71002613Y12470486D01*
X71002607Y12470482D01*
X70812611Y12322602D01*
X70812608Y12322599D01*
X70649529Y12145448D01*
X70517832Y11943871D01*
X70421113Y11723374D01*
X70362004Y11489956D01*
X70342121Y11250006D01*
X70342121Y11249995D01*
X67252900Y11249995D01*
X67252899Y12565056D01*
X67244028Y12609658D01*
X67244026Y12609660D01*
X67244026Y12609662D01*
X67210234Y12660234D01*
X67159659Y12694027D01*
X67159658Y12694028D01*
X67159657Y12694029D01*
X67159656Y12694029D01*
X67159654Y12694030D01*
X67115059Y12702900D01*
X64484945Y12702900D01*
X64440341Y12694028D01*
X64440338Y12694027D01*
X64389766Y12660235D01*
X64355971Y12609657D01*
X64355970Y12609655D01*
X64347100Y12565060D01*
X64347100Y9934946D01*
X60874468Y9934946D01*
X60912487Y9972965D01*
X60967350Y10080641D01*
X60967350Y10080643D01*
X60967351Y10080644D01*
X60986255Y10199998D01*
X60986255Y10200003D01*
X60967351Y10319357D01*
X60912488Y10427034D01*
X60827033Y10512489D01*
X60719356Y10567352D01*
X60600002Y10586255D01*
X60599998Y10586255D01*
X60480643Y10567352D01*
X60372966Y10512489D01*
X60287511Y10427034D01*
X60232648Y10319357D01*
X60213745Y10200003D01*
X60213745Y10199998D01*
X52586255Y10199998D01*
X52586255Y10200003D01*
X52567351Y10319357D01*
X52512488Y10427034D01*
X52427033Y10512489D01*
X52319356Y10567352D01*
X52200002Y10586255D01*
X52199998Y10586255D01*
X52080643Y10567352D01*
X51972966Y10512489D01*
X51887511Y10427034D01*
X51832648Y10319357D01*
X51813745Y10200003D01*
X51813745Y10199998D01*
X381500Y10199998D01*
X381500Y10799998D01*
X54388745Y10799998D01*
X54407648Y10680644D01*
X54462511Y10572967D01*
X54547966Y10487512D01*
X54655643Y10432649D01*
X54774998Y10413745D01*
X54775000Y10413745D01*
X54775002Y10413745D01*
X54894356Y10432649D01*
X54894357Y10432650D01*
X54894359Y10432650D01*
X55002035Y10487513D01*
X55012320Y10497799D01*
X55073638Y10531282D01*
X55143330Y10526300D01*
X55187678Y10497800D01*
X55197965Y10487513D01*
X55197969Y10487511D01*
X55305643Y10432649D01*
X55424998Y10413745D01*
X55425000Y10413745D01*
X55425002Y10413745D01*
X55544356Y10432649D01*
X55544357Y10432650D01*
X55544359Y10432650D01*
X55652035Y10487513D01*
X55737487Y10572965D01*
X55792350Y10680641D01*
X55792350Y10680643D01*
X55792351Y10680644D01*
X55811255Y10799998D01*
X56988745Y10799998D01*
X57007648Y10680644D01*
X57062511Y10572967D01*
X57147966Y10487512D01*
X57255643Y10432649D01*
X57374998Y10413745D01*
X57375000Y10413745D01*
X57375002Y10413745D01*
X57494356Y10432649D01*
X57494357Y10432650D01*
X57494359Y10432650D01*
X57602035Y10487513D01*
X57612318Y10497797D01*
X57673642Y10531282D01*
X57743334Y10526298D01*
X57787681Y10497797D01*
X57797966Y10487512D01*
X57905643Y10432649D01*
X58024998Y10413745D01*
X58025000Y10413745D01*
X58025002Y10413745D01*
X58144356Y10432649D01*
X58144357Y10432650D01*
X58144359Y10432650D01*
X58252035Y10487513D01*
X58337487Y10572965D01*
X58392350Y10680641D01*
X58392350Y10680643D01*
X58392351Y10680644D01*
X58411255Y10799998D01*
X58411255Y10800003D01*
X58392351Y10919357D01*
X58337488Y11027034D01*
X58252033Y11112489D01*
X58144356Y11167352D01*
X58025002Y11186255D01*
X58024998Y11186255D01*
X57905643Y11167352D01*
X57797967Y11112490D01*
X57787679Y11102201D01*
X57726355Y11068718D01*
X57656663Y11073704D01*
X57612321Y11102201D01*
X57602032Y11112490D01*
X57494356Y11167352D01*
X57375002Y11186255D01*
X57374998Y11186255D01*
X57255643Y11167352D01*
X57147966Y11112489D01*
X57062511Y11027034D01*
X57007648Y10919357D01*
X56988745Y10800003D01*
X56988745Y10799998D01*
X55811255Y10799998D01*
X55811255Y10800003D01*
X55792351Y10919357D01*
X55737488Y11027034D01*
X55652033Y11112489D01*
X55544356Y11167352D01*
X55425002Y11186255D01*
X55424998Y11186255D01*
X55305643Y11167352D01*
X55197967Y11112490D01*
X55187679Y11102201D01*
X55126355Y11068718D01*
X55056663Y11073704D01*
X55012321Y11102201D01*
X55002032Y11112490D01*
X54894356Y11167352D01*
X54775002Y11186255D01*
X54774998Y11186255D01*
X54655643Y11167352D01*
X54547966Y11112489D01*
X54462511Y11027034D01*
X54407648Y10919357D01*
X54388745Y10800003D01*
X54388745Y10799998D01*
X381500Y10799998D01*
X381500Y15750000D01*
X3465963Y15750000D01*
X3486081Y15494377D01*
X3545938Y15245053D01*
X3644061Y15008163D01*
X3778032Y14789542D01*
X3778033Y14789540D01*
X3861826Y14691432D01*
X4362193Y15191800D01*
X4408805Y15127645D01*
X4539536Y15009934D01*
X4041430Y14511828D01*
X4139539Y14428034D01*
X4139541Y14428033D01*
X4358162Y14294062D01*
X4595052Y14195939D01*
X4844376Y14136082D01*
X5100000Y14115964D01*
X5355623Y14136082D01*
X5604947Y14195939D01*
X5841837Y14294062D01*
X6060458Y14428033D01*
X6060459Y14428034D01*
X6158568Y14511828D01*
X5660462Y15009933D01*
X5791195Y15127645D01*
X5837805Y15191799D01*
X6338172Y14691432D01*
X6421966Y14789541D01*
X6421967Y14789542D01*
X6555938Y15008163D01*
X6654061Y15245053D01*
X6713918Y15494377D01*
X6734036Y15750000D01*
X8465963Y15750000D01*
X8486081Y15494377D01*
X8545938Y15245053D01*
X8644061Y15008163D01*
X8778032Y14789542D01*
X8778033Y14789540D01*
X8861826Y14691432D01*
X9362193Y15191800D01*
X9408805Y15127645D01*
X9539536Y15009934D01*
X9041430Y14511828D01*
X9139539Y14428034D01*
X9139541Y14428033D01*
X9358162Y14294062D01*
X9595052Y14195939D01*
X9844376Y14136082D01*
X10100000Y14115964D01*
X10355623Y14136082D01*
X10604947Y14195939D01*
X10841837Y14294062D01*
X11060458Y14428033D01*
X11060459Y14428034D01*
X11158568Y14511828D01*
X10660462Y15009933D01*
X10791195Y15127645D01*
X10837805Y15191799D01*
X11338172Y14691432D01*
X11421966Y14789541D01*
X11421967Y14789542D01*
X11555938Y15008163D01*
X11654061Y15245053D01*
X11713918Y15494377D01*
X11734036Y15750000D01*
X11718296Y15949995D01*
X67342121Y15949995D01*
X67362004Y15710045D01*
X67421113Y15476627D01*
X67505189Y15284952D01*
X67517834Y15256126D01*
X67649529Y15054552D01*
X67812605Y14877404D01*
X67812608Y14877402D01*
X67812611Y14877399D01*
X68002607Y14729519D01*
X68002613Y14729515D01*
X68002616Y14729513D01*
X68214377Y14614913D01*
X68442112Y14536732D01*
X68679609Y14497100D01*
X68679610Y14497100D01*
X68920390Y14497100D01*
X68920391Y14497100D01*
X69157888Y14536732D01*
X69385623Y14614913D01*
X69597384Y14729513D01*
X69787395Y14877404D01*
X69950471Y15054552D01*
X70082166Y15256126D01*
X70178887Y15476627D01*
X70237995Y15710041D01*
X70257879Y15950000D01*
X70250635Y16037415D01*
X70237995Y16189956D01*
X70237995Y16189959D01*
X70178887Y16423373D01*
X70082166Y16643874D01*
X69950471Y16845448D01*
X69787395Y17022596D01*
X69787390Y17022600D01*
X69787388Y17022602D01*
X69597392Y17170482D01*
X69597386Y17170486D01*
X69385624Y17285087D01*
X69385619Y17285089D01*
X69157890Y17363268D01*
X68937751Y17400003D01*
X68920391Y17402900D01*
X68679609Y17402900D01*
X68662249Y17400003D01*
X68442109Y17363268D01*
X68214380Y17285089D01*
X68214375Y17285087D01*
X68002613Y17170486D01*
X68002607Y17170482D01*
X67812611Y17022602D01*
X67812608Y17022599D01*
X67812605Y17022597D01*
X67812605Y17022596D01*
X67724635Y16927035D01*
X67649529Y16845448D01*
X67517832Y16643871D01*
X67421113Y16423374D01*
X67362004Y16189956D01*
X67342121Y15950006D01*
X67342121Y15949995D01*
X11718296Y15949995D01*
X11713918Y16005624D01*
X11654061Y16254948D01*
X11555938Y16491838D01*
X11428378Y16699998D01*
X40013745Y16699998D01*
X40032648Y16580644D01*
X40087511Y16472967D01*
X40172966Y16387512D01*
X40280643Y16332649D01*
X40399998Y16313745D01*
X40400000Y16313745D01*
X40400002Y16313745D01*
X40519356Y16332649D01*
X40519357Y16332650D01*
X40519359Y16332650D01*
X40627035Y16387513D01*
X40712487Y16472965D01*
X40767350Y16580641D01*
X40767350Y16580643D01*
X40767351Y16580644D01*
X40786255Y16699998D01*
X40786255Y16700003D01*
X40767351Y16819357D01*
X40712488Y16927034D01*
X40627033Y17012489D01*
X40519356Y17067352D01*
X40400002Y17086255D01*
X40399998Y17086255D01*
X40280643Y17067352D01*
X40172966Y17012489D01*
X40087511Y16927034D01*
X40032648Y16819357D01*
X40013745Y16700003D01*
X40013745Y16699998D01*
X11428378Y16699998D01*
X11421967Y16710459D01*
X11421966Y16710461D01*
X11338172Y16808570D01*
X10837804Y16308202D01*
X10791195Y16372355D01*
X10660462Y16490068D01*
X11158568Y16988174D01*
X11060460Y17071967D01*
X11060458Y17071968D01*
X10841837Y17205939D01*
X10604947Y17304062D01*
X10355623Y17363919D01*
X10100000Y17384037D01*
X9844376Y17363919D01*
X9595052Y17304062D01*
X9358162Y17205939D01*
X9139539Y17071966D01*
X9139534Y17071963D01*
X9041430Y16988174D01*
X9539537Y16490068D01*
X9408805Y16372355D01*
X9362194Y16308202D01*
X8861826Y16808570D01*
X8778037Y16710466D01*
X8778034Y16710461D01*
X8644061Y16491838D01*
X8545938Y16254948D01*
X8486081Y16005624D01*
X8465963Y15750000D01*
X6734036Y15750000D01*
X6713918Y16005624D01*
X6654061Y16254948D01*
X6555938Y16491838D01*
X6421967Y16710459D01*
X6421966Y16710461D01*
X6338172Y16808570D01*
X5837804Y16308203D01*
X5791195Y16372355D01*
X5660462Y16490068D01*
X6158568Y16988174D01*
X6060460Y17071967D01*
X6060458Y17071968D01*
X5841837Y17205939D01*
X5604947Y17304062D01*
X5355623Y17363919D01*
X5099999Y17384037D01*
X4844376Y17363919D01*
X4595052Y17304062D01*
X4358162Y17205939D01*
X4139539Y17071966D01*
X4139534Y17071963D01*
X4041430Y16988174D01*
X4539537Y16490068D01*
X4408805Y16372355D01*
X4362194Y16308202D01*
X3861826Y16808570D01*
X3778037Y16710466D01*
X3778034Y16710461D01*
X3644061Y16491838D01*
X3545938Y16254948D01*
X3486081Y16005624D01*
X3465963Y15750000D01*
X381500Y15750000D01*
X381500Y17399998D01*
X59513745Y17399998D01*
X59532648Y17280644D01*
X59587511Y17172967D01*
X59672966Y17087512D01*
X59780643Y17032649D01*
X59899998Y17013745D01*
X59900000Y17013745D01*
X59900002Y17013745D01*
X60019356Y17032649D01*
X60019357Y17032650D01*
X60019359Y17032650D01*
X60127035Y17087513D01*
X60212487Y17172965D01*
X60267350Y17280641D01*
X60267350Y17280643D01*
X60267351Y17280644D01*
X60286255Y17399998D01*
X60286255Y17409760D01*
X60290013Y17409760D01*
X60296557Y17460585D01*
X60322413Y17498418D01*
X60458579Y17634584D01*
X60519902Y17668066D01*
X60546259Y17670900D01*
X62238216Y17670900D01*
X62305255Y17651215D01*
X62325897Y17634581D01*
X62372966Y17587512D01*
X62480643Y17532649D01*
X62599998Y17513745D01*
X62600000Y17513745D01*
X62600002Y17513745D01*
X62719356Y17532649D01*
X62719357Y17532650D01*
X62719359Y17532650D01*
X62827035Y17587513D01*
X62912487Y17672965D01*
X62967350Y17780641D01*
X62967350Y17780643D01*
X62967351Y17780644D01*
X62986255Y17899998D01*
X62986255Y17900003D01*
X62967351Y18019357D01*
X62912488Y18127034D01*
X62827033Y18212489D01*
X62719356Y18267352D01*
X62600002Y18286255D01*
X62599998Y18286255D01*
X62480643Y18267352D01*
X62372966Y18212489D01*
X62325897Y18165419D01*
X62264574Y18131934D01*
X62238216Y18129100D01*
X60407619Y18129100D01*
X60404377Y18129185D01*
X60400960Y18129364D01*
X60363361Y18131335D01*
X60343838Y18123841D01*
X60325195Y18118319D01*
X60304732Y18113969D01*
X60302934Y18112662D01*
X60274511Y18097229D01*
X60272436Y18096433D01*
X60257648Y18081645D01*
X60242859Y18069015D01*
X60225943Y18056725D01*
X60225940Y18056722D01*
X60224832Y18054801D01*
X60205131Y18029129D01*
X59998420Y17822419D01*
X59937097Y17788934D01*
X59909758Y17788148D01*
X59909758Y17786255D01*
X59899997Y17786255D01*
X59780643Y17767352D01*
X59672966Y17712489D01*
X59587511Y17627034D01*
X59532648Y17519357D01*
X59513745Y17400003D01*
X59513745Y17399998D01*
X381500Y17399998D01*
X381500Y18899998D01*
X55813745Y18899998D01*
X55832648Y18780644D01*
X55887511Y18672967D01*
X55972966Y18587512D01*
X56080643Y18532649D01*
X56199998Y18513745D01*
X56200000Y18513745D01*
X56200002Y18513745D01*
X56319356Y18532649D01*
X56319357Y18532650D01*
X56319359Y18532650D01*
X56427035Y18587513D01*
X56512487Y18672965D01*
X56567350Y18780641D01*
X56567350Y18780643D01*
X56567351Y18780644D01*
X56586255Y18899998D01*
X56586255Y18900003D01*
X56567351Y19019357D01*
X56512488Y19127034D01*
X56427033Y19212489D01*
X56319356Y19267352D01*
X56200002Y19286255D01*
X56199998Y19286255D01*
X56080643Y19267352D01*
X55972966Y19212489D01*
X55887511Y19127034D01*
X55832648Y19019357D01*
X55813745Y18900003D01*
X55813745Y18899998D01*
X381500Y18899998D01*
X381500Y19599998D01*
X44913745Y19599998D01*
X44932648Y19480644D01*
X44987511Y19372967D01*
X45072966Y19287512D01*
X45180643Y19232649D01*
X45299998Y19213745D01*
X45300000Y19213745D01*
X45300002Y19213745D01*
X45419356Y19232649D01*
X45419357Y19232650D01*
X45419359Y19232650D01*
X45527035Y19287513D01*
X45612487Y19372965D01*
X45667350Y19480641D01*
X45667350Y19480643D01*
X45667351Y19480644D01*
X45686255Y19599998D01*
X45686255Y19600003D01*
X45667351Y19719357D01*
X45612488Y19827034D01*
X45527033Y19912489D01*
X45419356Y19967352D01*
X45300002Y19986255D01*
X45299998Y19986255D01*
X45180643Y19967352D01*
X45072966Y19912489D01*
X44987511Y19827034D01*
X44932648Y19719357D01*
X44913745Y19600003D01*
X44913745Y19599998D01*
X381500Y19599998D01*
X381500Y21723394D01*
X1781188Y21723394D01*
X1800401Y21491521D01*
X1857520Y21265962D01*
X1950987Y21052879D01*
X2078247Y20858093D01*
X2110283Y20823291D01*
X2110284Y20823291D01*
X2470091Y21183099D01*
X2517486Y21117866D01*
X2647239Y21001036D01*
X2290535Y20644332D01*
X2290535Y20644330D01*
X2419444Y20543996D01*
X2419455Y20543989D01*
X2624080Y20433252D01*
X2624094Y20433246D01*
X2844154Y20357698D01*
X3073661Y20319400D01*
X3306339Y20319400D01*
X3535845Y20357698D01*
X3755905Y20433246D01*
X3755919Y20433252D01*
X3960541Y20543987D01*
X3960544Y20543989D01*
X4089463Y20644332D01*
X3732760Y21001035D01*
X3862514Y21117866D01*
X3909907Y21183098D01*
X4269714Y20823291D01*
X4269715Y20823291D01*
X4301752Y20858093D01*
X4429012Y21052879D01*
X4522479Y21265962D01*
X4579598Y21491521D01*
X4598812Y21723394D01*
X4598812Y21723407D01*
X4579598Y21955280D01*
X4522479Y22180839D01*
X4429012Y22393920D01*
X4419698Y22408177D01*
X4399510Y22475066D01*
X4418689Y22542252D01*
X4471147Y22588403D01*
X4523506Y22600000D01*
X8409694Y22600000D01*
X8476733Y22580315D01*
X8522488Y22527511D01*
X8532432Y22458353D01*
X8513502Y22408177D01*
X8504187Y22393920D01*
X8410720Y22180839D01*
X8353601Y21955280D01*
X8334388Y21723407D01*
X8334388Y21723394D01*
X8353601Y21491521D01*
X8410720Y21265962D01*
X8504187Y21052879D01*
X8631447Y20858093D01*
X8663483Y20823291D01*
X8663484Y20823291D01*
X9023291Y21183099D01*
X9070686Y21117866D01*
X9200439Y21001036D01*
X8843735Y20644332D01*
X8843735Y20644330D01*
X8972644Y20543996D01*
X8972655Y20543989D01*
X9177280Y20433252D01*
X9177294Y20433246D01*
X9397354Y20357698D01*
X9626861Y20319400D01*
X9859539Y20319400D01*
X10089045Y20357698D01*
X10309105Y20433246D01*
X10309119Y20433252D01*
X10513741Y20543987D01*
X10513744Y20543989D01*
X10642663Y20644332D01*
X10606997Y20679998D01*
X72367020Y20679998D01*
X72387276Y20500211D01*
X72429896Y20378411D01*
X72447035Y20329431D01*
X72543296Y20176233D01*
X72671233Y20048296D01*
X72824431Y19952035D01*
X72937448Y19912489D01*
X72995210Y19892277D01*
X73081354Y19882572D01*
X73129909Y19877101D01*
X73129910Y19877100D01*
X73129914Y19877100D01*
X74220090Y19877100D01*
X74220090Y19877101D01*
X74281174Y19883984D01*
X74354789Y19892277D01*
X74354792Y19892278D01*
X74525569Y19952035D01*
X74678767Y20048296D01*
X74806704Y20176233D01*
X74902965Y20329431D01*
X74916409Y20367854D01*
X74957132Y20424630D01*
X75022084Y20450378D01*
X75033452Y20450900D01*
X75991548Y20450900D01*
X76058587Y20431215D01*
X76104342Y20378411D01*
X76108590Y20367854D01*
X76122034Y20329432D01*
X76122035Y20329431D01*
X76218296Y20176233D01*
X76346233Y20048296D01*
X76499431Y19952035D01*
X76612448Y19912489D01*
X76670210Y19892277D01*
X76756354Y19882572D01*
X76804909Y19877101D01*
X76804910Y19877100D01*
X76804914Y19877100D01*
X78195090Y19877100D01*
X78195090Y19877101D01*
X78256174Y19883984D01*
X78329789Y19892277D01*
X78329792Y19892278D01*
X78500569Y19952035D01*
X78653767Y20048296D01*
X78781704Y20176233D01*
X78877965Y20329431D01*
X78937722Y20500208D01*
X78937722Y20500209D01*
X78937723Y20500211D01*
X78957980Y20679998D01*
X78957980Y20680003D01*
X78937723Y20859790D01*
X78923377Y20900788D01*
X78877965Y21030569D01*
X78781704Y21183767D01*
X78653767Y21311704D01*
X78530153Y21389376D01*
X78500571Y21407964D01*
X78500570Y21407965D01*
X78500569Y21407965D01*
X78459573Y21422310D01*
X78329789Y21467724D01*
X78195090Y21482900D01*
X78195086Y21482900D01*
X76804914Y21482900D01*
X76804910Y21482900D01*
X76670210Y21467724D01*
X76499428Y21407964D01*
X76346232Y21311704D01*
X76218296Y21183768D01*
X76122034Y21030569D01*
X76108590Y20992146D01*
X76067868Y20935370D01*
X76002916Y20909622D01*
X75991548Y20909100D01*
X75033452Y20909100D01*
X74966413Y20928785D01*
X74920658Y20981589D01*
X74916410Y20992146D01*
X74902965Y21030569D01*
X74867185Y21087512D01*
X74806704Y21183767D01*
X74678767Y21311704D01*
X74555152Y21389377D01*
X74508862Y21441711D01*
X74498214Y21510765D01*
X74526589Y21574613D01*
X74567318Y21606087D01*
X74643540Y21642793D01*
X74738008Y21730447D01*
X74802444Y21842052D01*
X74831120Y21967692D01*
X74821490Y22096202D01*
X74774408Y22216164D01*
X74774408Y22216165D01*
X74694056Y22316922D01*
X74587581Y22389515D01*
X74587579Y22389516D01*
X74464436Y22427500D01*
X74464435Y22427500D01*
X74367961Y22427500D01*
X74367955Y22427500D01*
X74272569Y22413122D01*
X74156458Y22357207D01*
X74061992Y22269554D01*
X74061989Y22269549D01*
X73997557Y22157951D01*
X73997556Y22157948D01*
X73968880Y22032308D01*
X73968879Y22032307D01*
X73978509Y21903800D01*
X74025591Y21783836D01*
X74068164Y21730452D01*
X74105039Y21684212D01*
X74131447Y21619527D01*
X74118692Y21550831D01*
X74070821Y21499937D01*
X74008092Y21482900D01*
X73129910Y21482900D01*
X72995210Y21467724D01*
X72824428Y21407964D01*
X72671232Y21311704D01*
X72543296Y21183768D01*
X72447036Y21030572D01*
X72387276Y20859790D01*
X72367020Y20680003D01*
X72367020Y20679998D01*
X10606997Y20679998D01*
X10285960Y21001035D01*
X10415714Y21117866D01*
X10463107Y21183098D01*
X10822914Y20823291D01*
X10822915Y20823291D01*
X10854952Y20858093D01*
X10982212Y21052879D01*
X11075679Y21265962D01*
X11132798Y21491521D01*
X11150073Y21699998D01*
X20113744Y21699998D01*
X20132648Y21580644D01*
X20187511Y21472967D01*
X20272966Y21387512D01*
X20380643Y21332649D01*
X20499998Y21313745D01*
X20500000Y21313745D01*
X20500002Y21313745D01*
X20619356Y21332649D01*
X20619357Y21332650D01*
X20619359Y21332650D01*
X20727035Y21387513D01*
X20739520Y21399998D01*
X48013745Y21399998D01*
X48032648Y21280644D01*
X48087511Y21172967D01*
X48172966Y21087512D01*
X48280643Y21032649D01*
X48399998Y21013745D01*
X48400000Y21013745D01*
X48400002Y21013745D01*
X48519356Y21032649D01*
X48519357Y21032650D01*
X48519359Y21032650D01*
X48627035Y21087513D01*
X48712487Y21172965D01*
X48767350Y21280641D01*
X48767350Y21280643D01*
X48767351Y21280644D01*
X48786255Y21399998D01*
X48786255Y21400003D01*
X48767351Y21519357D01*
X48712488Y21627034D01*
X48639524Y21699998D01*
X49713745Y21699998D01*
X49732648Y21580644D01*
X49787511Y21472967D01*
X49872966Y21387512D01*
X49980643Y21332649D01*
X50099998Y21313745D01*
X50100000Y21313745D01*
X50100002Y21313745D01*
X50219356Y21332649D01*
X50219357Y21332650D01*
X50219359Y21332650D01*
X50327035Y21387513D01*
X50339520Y21399998D01*
X55813745Y21399998D01*
X55832648Y21280644D01*
X55887511Y21172967D01*
X55972966Y21087512D01*
X56080643Y21032649D01*
X56199998Y21013745D01*
X56200000Y21013745D01*
X56200002Y21013745D01*
X56319356Y21032649D01*
X56319357Y21032650D01*
X56319359Y21032650D01*
X56427035Y21087513D01*
X56512487Y21172965D01*
X56567350Y21280641D01*
X56567350Y21280643D01*
X56567351Y21280644D01*
X56586255Y21399998D01*
X56586255Y21400003D01*
X56567351Y21519357D01*
X56512488Y21627034D01*
X56427033Y21712489D01*
X56319356Y21767352D01*
X56200002Y21786255D01*
X56199998Y21786255D01*
X56080643Y21767352D01*
X55972966Y21712489D01*
X55887511Y21627034D01*
X55832648Y21519357D01*
X55813745Y21400003D01*
X55813745Y21399998D01*
X50339520Y21399998D01*
X50412487Y21472965D01*
X50467350Y21580641D01*
X50467350Y21580643D01*
X50467351Y21580644D01*
X50486255Y21699998D01*
X50486255Y21700003D01*
X50467351Y21819357D01*
X50412488Y21927034D01*
X50327033Y22012489D01*
X50219356Y22067352D01*
X50100002Y22086255D01*
X50099998Y22086255D01*
X49980643Y22067352D01*
X49872966Y22012489D01*
X49787511Y21927034D01*
X49732648Y21819357D01*
X49713745Y21700003D01*
X49713745Y21699998D01*
X48639524Y21699998D01*
X48627033Y21712489D01*
X48519356Y21767352D01*
X48400002Y21786255D01*
X48399998Y21786255D01*
X48280643Y21767352D01*
X48172966Y21712489D01*
X48087511Y21627034D01*
X48032648Y21519357D01*
X48013745Y21400003D01*
X48013745Y21399998D01*
X20739520Y21399998D01*
X20812487Y21472965D01*
X20867350Y21580641D01*
X20867350Y21580643D01*
X20867351Y21580644D01*
X20886255Y21699998D01*
X20886255Y21700003D01*
X20867351Y21819357D01*
X20812488Y21927034D01*
X20727033Y22012489D01*
X20619356Y22067352D01*
X20500002Y22086255D01*
X20499998Y22086255D01*
X20380643Y22067352D01*
X20272966Y22012489D01*
X20187511Y21927034D01*
X20132648Y21819357D01*
X20113744Y21700003D01*
X20113744Y21699998D01*
X11150073Y21699998D01*
X11152012Y21723394D01*
X11152012Y21723407D01*
X11132798Y21955280D01*
X11075679Y22180839D01*
X10982212Y22393920D01*
X10972898Y22408177D01*
X10952710Y22475066D01*
X10971889Y22542252D01*
X11024347Y22588403D01*
X11076706Y22600000D01*
X18600000Y22600000D01*
X18600000Y22799998D01*
X49813745Y22799998D01*
X49832648Y22680644D01*
X49887511Y22572967D01*
X49972966Y22487512D01*
X50080643Y22432649D01*
X50199998Y22413745D01*
X50200000Y22413745D01*
X50200002Y22413745D01*
X50319356Y22432649D01*
X50319357Y22432650D01*
X50319359Y22432650D01*
X50427035Y22487513D01*
X50512487Y22572965D01*
X50567350Y22680641D01*
X50567350Y22680643D01*
X50567351Y22680644D01*
X50586255Y22799998D01*
X55713745Y22799998D01*
X55732648Y22680644D01*
X55787511Y22572967D01*
X55872966Y22487512D01*
X55980643Y22432649D01*
X56099998Y22413745D01*
X56100000Y22413745D01*
X56100002Y22413745D01*
X56219356Y22432649D01*
X56219357Y22432650D01*
X56219359Y22432650D01*
X56327035Y22487513D01*
X56412487Y22572965D01*
X56467350Y22680641D01*
X56467350Y22680643D01*
X56467351Y22680644D01*
X56486255Y22799998D01*
X56486255Y22800003D01*
X56467351Y22919357D01*
X56412488Y23027034D01*
X56327033Y23112489D01*
X56219356Y23167352D01*
X56155108Y23177527D01*
X56101027Y23203164D01*
X56044891Y23177527D01*
X55980643Y23167352D01*
X55872966Y23112489D01*
X55787511Y23027034D01*
X55732648Y22919357D01*
X55713745Y22800003D01*
X55713745Y22799998D01*
X50586255Y22799998D01*
X50586255Y22800003D01*
X50567351Y22919357D01*
X50512488Y23027034D01*
X50427033Y23112489D01*
X50319356Y23167352D01*
X50200002Y23186255D01*
X50199998Y23186255D01*
X50080643Y23167352D01*
X49972966Y23112489D01*
X49887511Y23027034D01*
X49832648Y22919357D01*
X49813745Y22800003D01*
X49813745Y22799998D01*
X18600000Y22799998D01*
X18600000Y23404245D01*
X26917980Y23404245D01*
X26936884Y23284891D01*
X26991747Y23177214D01*
X27077202Y23091759D01*
X27184879Y23036896D01*
X27304234Y23017992D01*
X27304236Y23017992D01*
X27304238Y23017992D01*
X27423592Y23036896D01*
X27423593Y23036897D01*
X27423595Y23036897D01*
X27531271Y23091760D01*
X27616723Y23177212D01*
X27671586Y23284888D01*
X27671586Y23284890D01*
X27671587Y23284891D01*
X27690491Y23404245D01*
X27690491Y23414007D01*
X27694258Y23414007D01*
X27700773Y23464774D01*
X27726652Y23502658D01*
X28186493Y23962498D01*
X40976245Y23962498D01*
X40995148Y23843144D01*
X41050011Y23735467D01*
X41135466Y23650012D01*
X41243143Y23595149D01*
X41362498Y23576245D01*
X41362500Y23576245D01*
X41362502Y23576245D01*
X41481856Y23595149D01*
X41481857Y23595150D01*
X41481859Y23595150D01*
X41589535Y23650013D01*
X41674987Y23735465D01*
X41707868Y23799998D01*
X55713745Y23799998D01*
X55732648Y23680644D01*
X55787511Y23572967D01*
X55872966Y23487512D01*
X55980643Y23432649D01*
X56044891Y23422473D01*
X56098971Y23396837D01*
X56155108Y23422473D01*
X56219356Y23432649D01*
X56219357Y23432650D01*
X56219359Y23432650D01*
X56327035Y23487513D01*
X56412487Y23572965D01*
X56467350Y23680641D01*
X56467350Y23680643D01*
X56467351Y23680644D01*
X56481424Y23769498D01*
X71413745Y23769498D01*
X71432648Y23650144D01*
X71487511Y23542467D01*
X71572966Y23457012D01*
X71680643Y23402149D01*
X71799998Y23383245D01*
X71800000Y23383245D01*
X71800002Y23383245D01*
X71919356Y23402149D01*
X71919357Y23402150D01*
X71919359Y23402150D01*
X72027035Y23457013D01*
X72112487Y23542465D01*
X72167350Y23650141D01*
X72167350Y23650143D01*
X72167351Y23650144D01*
X72186255Y23769498D01*
X72186255Y23769503D01*
X72167351Y23888857D01*
X72112488Y23996534D01*
X72065419Y24043603D01*
X72031934Y24104926D01*
X72029100Y24131284D01*
X72029100Y24560116D01*
X72048785Y24627155D01*
X72065420Y24647798D01*
X72112483Y24694861D01*
X72112483Y24694862D01*
X72112487Y24694865D01*
X72167350Y24802541D01*
X72167350Y24802543D01*
X72167351Y24802544D01*
X72186255Y24921898D01*
X72186255Y24921903D01*
X72167351Y25041257D01*
X72112488Y25148934D01*
X72027033Y25234389D01*
X71919356Y25289252D01*
X71800002Y25308155D01*
X71799998Y25308155D01*
X71680643Y25289252D01*
X71572966Y25234389D01*
X71487511Y25148934D01*
X71432648Y25041257D01*
X71413745Y24921903D01*
X71413745Y24921898D01*
X71432648Y24802544D01*
X71487511Y24694867D01*
X71534581Y24647797D01*
X71568066Y24586474D01*
X71570900Y24560116D01*
X71570900Y24131284D01*
X71551215Y24064245D01*
X71534581Y24043603D01*
X71487511Y23996534D01*
X71432648Y23888857D01*
X71413745Y23769503D01*
X71413745Y23769498D01*
X56481424Y23769498D01*
X56486255Y23799998D01*
X56486255Y23800003D01*
X56467351Y23919357D01*
X56412488Y24027034D01*
X56327033Y24112489D01*
X56219356Y24167352D01*
X56100002Y24186255D01*
X56099998Y24186255D01*
X55980643Y24167352D01*
X55872966Y24112489D01*
X55787511Y24027034D01*
X55732648Y23919357D01*
X55713745Y23800003D01*
X55713745Y23799998D01*
X41707868Y23799998D01*
X41729850Y23843141D01*
X41729850Y23843143D01*
X41729851Y23843144D01*
X41748755Y23962498D01*
X41748755Y23962503D01*
X41740535Y24014404D01*
X44231506Y24014404D01*
X44245610Y24003582D01*
X44245613Y24003581D01*
X44380373Y23947762D01*
X44380378Y23947760D01*
X44524999Y23928720D01*
X44525001Y23928720D01*
X44669621Y23947760D01*
X44669626Y23947762D01*
X44804385Y24003580D01*
X44804386Y24003580D01*
X44818491Y24014404D01*
X45506506Y24014404D01*
X45520610Y24003582D01*
X45520613Y24003581D01*
X45655373Y23947762D01*
X45655378Y23947760D01*
X45799999Y23928720D01*
X45800001Y23928720D01*
X45944621Y23947760D01*
X45944626Y23947762D01*
X46079385Y24003580D01*
X46079386Y24003580D01*
X46093491Y24014404D01*
X46781506Y24014404D01*
X46795610Y24003582D01*
X46795613Y24003581D01*
X46930373Y23947762D01*
X46930378Y23947760D01*
X47074999Y23928720D01*
X47075001Y23928720D01*
X47219621Y23947760D01*
X47219626Y23947762D01*
X47354385Y24003580D01*
X47354386Y24003580D01*
X47368491Y24014404D01*
X47368491Y24014405D01*
X47075001Y24307895D01*
X47075000Y24307895D01*
X46781506Y24014404D01*
X46093491Y24014404D01*
X46093491Y24014405D01*
X45800001Y24307895D01*
X45800000Y24307895D01*
X45506506Y24014404D01*
X44818491Y24014404D01*
X44818491Y24014405D01*
X44525001Y24307895D01*
X44525000Y24307895D01*
X44231506Y24014404D01*
X41740535Y24014404D01*
X41729851Y24081857D01*
X41674988Y24189534D01*
X41589533Y24274989D01*
X41481856Y24329852D01*
X41362502Y24348755D01*
X41362498Y24348755D01*
X41243143Y24329852D01*
X41135466Y24274989D01*
X41050011Y24189534D01*
X40995148Y24081857D01*
X40976245Y23962503D01*
X40976245Y23962498D01*
X28186493Y23962498D01*
X28256650Y24032655D01*
X28258949Y24034836D01*
X28274184Y24048553D01*
X28337177Y24078781D01*
X28406512Y24070154D01*
X28413448Y24066886D01*
X28480643Y24032649D01*
X28599998Y24013745D01*
X28600000Y24013745D01*
X28600002Y24013745D01*
X28719356Y24032649D01*
X28719357Y24032650D01*
X28719359Y24032650D01*
X28827035Y24087513D01*
X28912487Y24172965D01*
X28967350Y24280641D01*
X28967350Y24280643D01*
X28967351Y24280644D01*
X28986255Y24399998D01*
X28986255Y24400003D01*
X28972397Y24487500D01*
X43966220Y24487500D01*
X43985259Y24342879D01*
X43985260Y24342877D01*
X44041081Y24208113D01*
X44041086Y24208105D01*
X44051901Y24194009D01*
X44345395Y24487500D01*
X44345395Y24487501D01*
X44323671Y24509225D01*
X44346077Y24509225D01*
X44356475Y24423587D01*
X44405481Y24352591D01*
X44481866Y24312500D01*
X44546247Y24312500D01*
X44608760Y24327908D01*
X44673332Y24385114D01*
X44703923Y24465775D01*
X44701285Y24487500D01*
X44704605Y24487500D01*
X44998095Y24194009D01*
X44998096Y24194009D01*
X45008918Y24208112D01*
X45047938Y24302316D01*
X45091779Y24356719D01*
X45158073Y24378785D01*
X45225772Y24361506D01*
X45273383Y24310370D01*
X45277061Y24302316D01*
X45316080Y24208115D01*
X45316086Y24208105D01*
X45326901Y24194009D01*
X45620395Y24487500D01*
X45598670Y24509225D01*
X45621077Y24509225D01*
X45631475Y24423587D01*
X45680481Y24352591D01*
X45756866Y24312500D01*
X45821247Y24312500D01*
X45883760Y24327908D01*
X45948332Y24385114D01*
X45978923Y24465775D01*
X45976285Y24487499D01*
X45979605Y24487499D01*
X46273095Y24194009D01*
X46273096Y24194009D01*
X46283918Y24208112D01*
X46322938Y24302316D01*
X46366779Y24356719D01*
X46433073Y24378785D01*
X46500772Y24361506D01*
X46548383Y24310370D01*
X46552061Y24302316D01*
X46591080Y24208115D01*
X46591086Y24208105D01*
X46601901Y24194009D01*
X46895395Y24487500D01*
X46895395Y24487501D01*
X46873671Y24509225D01*
X46896077Y24509225D01*
X46906475Y24423587D01*
X46955481Y24352591D01*
X47031866Y24312500D01*
X47096247Y24312500D01*
X47158760Y24327908D01*
X47223332Y24385114D01*
X47253923Y24465775D01*
X47251285Y24487499D01*
X47254605Y24487499D01*
X47548095Y24194009D01*
X47548096Y24194009D01*
X47558920Y24208114D01*
X47558920Y24208115D01*
X47614738Y24342874D01*
X47614740Y24342879D01*
X47633780Y24487500D01*
X47633780Y24487501D01*
X47614740Y24632122D01*
X47614738Y24632127D01*
X47558919Y24766887D01*
X47558918Y24766890D01*
X47548096Y24780994D01*
X47254605Y24487501D01*
X47254605Y24487499D01*
X47251285Y24487499D01*
X47243525Y24551413D01*
X47194519Y24622409D01*
X47118134Y24662500D01*
X47053753Y24662500D01*
X46991240Y24647092D01*
X46926668Y24589886D01*
X46896077Y24509225D01*
X46873671Y24509225D01*
X46601902Y24780993D01*
X46591081Y24766889D01*
X46552060Y24672684D01*
X46508219Y24618281D01*
X46441924Y24596216D01*
X46374225Y24613496D01*
X46326615Y24664633D01*
X46322937Y24672686D01*
X46283917Y24766890D01*
X46273096Y24780994D01*
X45979605Y24487501D01*
X45979605Y24487499D01*
X45976285Y24487499D01*
X45968525Y24551413D01*
X45919519Y24622409D01*
X45843134Y24662500D01*
X45778753Y24662500D01*
X45716240Y24647092D01*
X45651668Y24589886D01*
X45621077Y24509225D01*
X45598670Y24509225D01*
X45326902Y24780993D01*
X45316081Y24766889D01*
X45277060Y24672684D01*
X45233219Y24618281D01*
X45166924Y24596216D01*
X45099225Y24613496D01*
X45051615Y24664633D01*
X45047937Y24672686D01*
X45008917Y24766890D01*
X44998096Y24780994D01*
X44704605Y24487501D01*
X44704605Y24487500D01*
X44701285Y24487500D01*
X44693525Y24551413D01*
X44644519Y24622409D01*
X44568134Y24662500D01*
X44503753Y24662500D01*
X44441240Y24647092D01*
X44376668Y24589886D01*
X44346077Y24509225D01*
X44323671Y24509225D01*
X44051902Y24780993D01*
X44041080Y24766888D01*
X43985261Y24632127D01*
X43985259Y24632122D01*
X43966220Y24487501D01*
X43966220Y24487500D01*
X28972397Y24487500D01*
X28967351Y24519357D01*
X28912488Y24627034D01*
X28827033Y24712489D01*
X28719356Y24767352D01*
X28600002Y24786255D01*
X28599998Y24786255D01*
X28472498Y24766061D01*
X28403204Y24775016D01*
X28349752Y24820012D01*
X28329113Y24886763D01*
X28329100Y24888534D01*
X28329100Y25562498D01*
X40913745Y25562498D01*
X40932648Y25443144D01*
X40987511Y25335467D01*
X41072966Y25250012D01*
X41180643Y25195149D01*
X41299998Y25176245D01*
X41300000Y25176245D01*
X41300002Y25176245D01*
X41419356Y25195149D01*
X41419357Y25195150D01*
X41419359Y25195150D01*
X41527035Y25250013D01*
X41566426Y25289404D01*
X44231506Y25289404D01*
X44245610Y25278583D01*
X44339814Y25239563D01*
X44394218Y25195722D01*
X44416284Y25129428D01*
X44399005Y25061729D01*
X44347869Y25014118D01*
X44339816Y25010440D01*
X44245611Y24971419D01*
X44231507Y24960598D01*
X44525000Y24667105D01*
X44525001Y24667105D01*
X44818492Y24960599D01*
X44804395Y24971414D01*
X44804385Y24971420D01*
X44710184Y25010439D01*
X44655780Y25054280D01*
X44633715Y25120574D01*
X44650994Y25188273D01*
X44702131Y25235884D01*
X44710184Y25239562D01*
X44804388Y25278582D01*
X44818491Y25289404D01*
X45506506Y25289404D01*
X45520610Y25278583D01*
X45614814Y25239563D01*
X45669218Y25195722D01*
X45691284Y25129428D01*
X45674005Y25061729D01*
X45622869Y25014118D01*
X45614816Y25010440D01*
X45520611Y24971419D01*
X45506507Y24960598D01*
X45800000Y24667105D01*
X45800001Y24667105D01*
X46093492Y24960599D01*
X46079395Y24971414D01*
X46079385Y24971420D01*
X45985184Y25010439D01*
X45930780Y25054280D01*
X45908715Y25120574D01*
X45925994Y25188273D01*
X45977131Y25235884D01*
X45985184Y25239562D01*
X46079388Y25278582D01*
X46093491Y25289404D01*
X46781506Y25289404D01*
X46795610Y25278583D01*
X46889814Y25239563D01*
X46944218Y25195722D01*
X46966284Y25129428D01*
X46949005Y25061729D01*
X46897869Y25014118D01*
X46889816Y25010440D01*
X46795611Y24971419D01*
X46781507Y24960598D01*
X47075000Y24667105D01*
X47075001Y24667105D01*
X47368492Y24960599D01*
X47354395Y24971414D01*
X47354385Y24971420D01*
X47260184Y25010439D01*
X47205780Y25054280D01*
X47183715Y25120574D01*
X47200994Y25188273D01*
X47252131Y25235884D01*
X47260184Y25239562D01*
X47354388Y25278582D01*
X47368491Y25289404D01*
X47368491Y25289405D01*
X47075001Y25582895D01*
X47075000Y25582895D01*
X46781506Y25289404D01*
X46093491Y25289404D01*
X46093491Y25289405D01*
X45800001Y25582895D01*
X45800000Y25582895D01*
X45506506Y25289404D01*
X44818491Y25289404D01*
X44818491Y25289405D01*
X44525001Y25582895D01*
X44525000Y25582895D01*
X44231506Y25289404D01*
X41566426Y25289404D01*
X41612487Y25335465D01*
X41667350Y25443141D01*
X41667350Y25443143D01*
X41667351Y25443144D01*
X41686255Y25562498D01*
X41686255Y25562503D01*
X41667351Y25681857D01*
X41626262Y25762500D01*
X43966220Y25762500D01*
X43985259Y25617879D01*
X43985260Y25617877D01*
X44041081Y25483113D01*
X44041086Y25483105D01*
X44051901Y25469009D01*
X44345395Y25762500D01*
X44345395Y25762501D01*
X44323671Y25784225D01*
X44346077Y25784225D01*
X44356475Y25698587D01*
X44405481Y25627591D01*
X44481866Y25587500D01*
X44546247Y25587500D01*
X44608760Y25602908D01*
X44673332Y25660114D01*
X44703923Y25740775D01*
X44701285Y25762500D01*
X44704605Y25762500D01*
X44998095Y25469009D01*
X44998096Y25469009D01*
X45008918Y25483112D01*
X45047938Y25577316D01*
X45091779Y25631719D01*
X45158073Y25653785D01*
X45225772Y25636506D01*
X45273383Y25585370D01*
X45277061Y25577316D01*
X45316080Y25483115D01*
X45316086Y25483105D01*
X45326901Y25469009D01*
X45620395Y25762500D01*
X45598670Y25784225D01*
X45621077Y25784225D01*
X45631475Y25698587D01*
X45680481Y25627591D01*
X45756866Y25587500D01*
X45821247Y25587500D01*
X45883760Y25602908D01*
X45948332Y25660114D01*
X45978923Y25740775D01*
X45976285Y25762499D01*
X45979605Y25762499D01*
X46273095Y25469009D01*
X46273096Y25469009D01*
X46283918Y25483112D01*
X46322938Y25577316D01*
X46366779Y25631719D01*
X46433073Y25653785D01*
X46500772Y25636506D01*
X46548383Y25585370D01*
X46552061Y25577316D01*
X46591080Y25483115D01*
X46591086Y25483105D01*
X46601901Y25469009D01*
X46895395Y25762500D01*
X46895395Y25762501D01*
X46873671Y25784225D01*
X46896077Y25784225D01*
X46906475Y25698587D01*
X46955481Y25627591D01*
X47031866Y25587500D01*
X47096247Y25587500D01*
X47158760Y25602908D01*
X47223332Y25660114D01*
X47253923Y25740775D01*
X47251285Y25762499D01*
X47254605Y25762499D01*
X47548095Y25469009D01*
X47548096Y25469009D01*
X47558920Y25483114D01*
X47558920Y25483115D01*
X47614738Y25617874D01*
X47614740Y25617879D01*
X47633780Y25762500D01*
X47633780Y25762501D01*
X47614740Y25907122D01*
X47614738Y25907127D01*
X47558919Y26041887D01*
X47558918Y26041890D01*
X47548096Y26055994D01*
X47254605Y25762501D01*
X47254605Y25762499D01*
X47251285Y25762499D01*
X47243525Y25826413D01*
X47194519Y25897409D01*
X47118134Y25937500D01*
X47053753Y25937500D01*
X46991240Y25922092D01*
X46926668Y25864886D01*
X46896077Y25784225D01*
X46873671Y25784225D01*
X46601902Y26055993D01*
X46591081Y26041889D01*
X46552060Y25947684D01*
X46508219Y25893281D01*
X46441924Y25871216D01*
X46374225Y25888496D01*
X46326615Y25939633D01*
X46322937Y25947686D01*
X46283917Y26041890D01*
X46273096Y26055994D01*
X45979605Y25762501D01*
X45979605Y25762499D01*
X45976285Y25762499D01*
X45968525Y25826413D01*
X45919519Y25897409D01*
X45843134Y25937500D01*
X45778753Y25937500D01*
X45716240Y25922092D01*
X45651668Y25864886D01*
X45621077Y25784225D01*
X45598670Y25784225D01*
X45326902Y26055993D01*
X45316081Y26041889D01*
X45277060Y25947684D01*
X45233219Y25893281D01*
X45166924Y25871216D01*
X45099225Y25888496D01*
X45051615Y25939633D01*
X45047937Y25947686D01*
X45008917Y26041890D01*
X44998096Y26055994D01*
X44704605Y25762501D01*
X44704605Y25762500D01*
X44701285Y25762500D01*
X44693525Y25826413D01*
X44644519Y25897409D01*
X44568134Y25937500D01*
X44503753Y25937500D01*
X44441240Y25922092D01*
X44376668Y25864886D01*
X44346077Y25784225D01*
X44323671Y25784225D01*
X44051902Y26055993D01*
X44041080Y26041888D01*
X43985261Y25907127D01*
X43985259Y25907122D01*
X43966220Y25762501D01*
X43966220Y25762500D01*
X41626262Y25762500D01*
X41612488Y25789534D01*
X41527033Y25874989D01*
X41419356Y25929852D01*
X41300002Y25948755D01*
X41299998Y25948755D01*
X41180643Y25929852D01*
X41072966Y25874989D01*
X40987511Y25789534D01*
X40932648Y25681857D01*
X40913745Y25562503D01*
X40913745Y25562498D01*
X28329100Y25562498D01*
X28329100Y26564404D01*
X44231506Y26564404D01*
X44245610Y26553583D01*
X44339814Y26514563D01*
X44394218Y26470722D01*
X44416284Y26404428D01*
X44399005Y26336729D01*
X44347869Y26289118D01*
X44339816Y26285440D01*
X44245611Y26246419D01*
X44231507Y26235598D01*
X44525000Y25942105D01*
X44525001Y25942105D01*
X44818492Y26235599D01*
X44804395Y26246414D01*
X44804385Y26246420D01*
X44710184Y26285439D01*
X44655780Y26329280D01*
X44633715Y26395574D01*
X44650994Y26463273D01*
X44702131Y26510884D01*
X44710184Y26514562D01*
X44804388Y26553582D01*
X44818491Y26564404D01*
X45506506Y26564404D01*
X45520610Y26553583D01*
X45614814Y26514563D01*
X45669218Y26470722D01*
X45691284Y26404428D01*
X45674005Y26336729D01*
X45622869Y26289118D01*
X45614816Y26285440D01*
X45520611Y26246419D01*
X45506507Y26235598D01*
X45800000Y25942105D01*
X45800001Y25942105D01*
X46093492Y26235599D01*
X46079395Y26246414D01*
X46079385Y26246420D01*
X45985184Y26285439D01*
X45930780Y26329280D01*
X45908715Y26395574D01*
X45925994Y26463273D01*
X45977131Y26510884D01*
X45985184Y26514562D01*
X46079388Y26553582D01*
X46093491Y26564404D01*
X46781506Y26564404D01*
X46795610Y26553583D01*
X46889814Y26514563D01*
X46944218Y26470722D01*
X46966284Y26404428D01*
X46949005Y26336729D01*
X46897869Y26289118D01*
X46889816Y26285440D01*
X46795611Y26246419D01*
X46781507Y26235598D01*
X47075000Y25942105D01*
X47075001Y25942105D01*
X47232892Y26099998D01*
X50713745Y26099998D01*
X50732648Y25980644D01*
X50787511Y25872967D01*
X50872966Y25787512D01*
X50980643Y25732649D01*
X51058328Y25720346D01*
X51100000Y25713745D01*
X51118154Y25716621D01*
X51187443Y25707668D01*
X51240897Y25662674D01*
X51248033Y25650448D01*
X51264631Y25617874D01*
X51287512Y25572966D01*
X51372966Y25487512D01*
X51480643Y25432649D01*
X51599998Y25413745D01*
X51600000Y25413745D01*
X51600002Y25413745D01*
X51719356Y25432649D01*
X51719357Y25432650D01*
X51719359Y25432650D01*
X51827035Y25487513D01*
X51912487Y25572965D01*
X51967350Y25680641D01*
X51967350Y25680643D01*
X51967351Y25680644D01*
X51986255Y25799998D01*
X51986255Y25800003D01*
X51967351Y25919357D01*
X51912488Y26027034D01*
X51827033Y26112489D01*
X51719356Y26167352D01*
X51600002Y26186255D01*
X51599998Y26186255D01*
X51581842Y26183380D01*
X51512549Y26192337D01*
X51459098Y26237335D01*
X51451963Y26249560D01*
X51412488Y26327034D01*
X51327033Y26412489D01*
X51219356Y26467352D01*
X51100002Y26486255D01*
X51099998Y26486255D01*
X50980643Y26467352D01*
X50872966Y26412489D01*
X50787511Y26327034D01*
X50732648Y26219357D01*
X50713745Y26100003D01*
X50713745Y26099998D01*
X47232892Y26099998D01*
X47368492Y26235599D01*
X47354395Y26246414D01*
X47354385Y26246420D01*
X47260184Y26285439D01*
X47205780Y26329280D01*
X47183715Y26395574D01*
X47200994Y26463273D01*
X47252131Y26510884D01*
X47260184Y26514562D01*
X47354388Y26553582D01*
X47368491Y26564404D01*
X47368491Y26564405D01*
X47075001Y26857895D01*
X47075000Y26857895D01*
X46781506Y26564404D01*
X46093491Y26564404D01*
X46093491Y26564405D01*
X45800001Y26857895D01*
X45800000Y26857895D01*
X45506506Y26564404D01*
X44818491Y26564404D01*
X44818491Y26564405D01*
X44525001Y26857895D01*
X44525000Y26857895D01*
X44231506Y26564404D01*
X28329100Y26564404D01*
X28329100Y26738216D01*
X28348785Y26805255D01*
X28365419Y26825897D01*
X28365418Y26825898D01*
X28412487Y26872965D01*
X28467350Y26980641D01*
X28467350Y26980643D01*
X28467351Y26980644D01*
X28476356Y27037500D01*
X43966220Y27037500D01*
X43985259Y26892879D01*
X43985260Y26892877D01*
X44041081Y26758113D01*
X44041086Y26758105D01*
X44051901Y26744009D01*
X44345395Y27037500D01*
X44345395Y27037501D01*
X44323671Y27059225D01*
X44346077Y27059225D01*
X44356475Y26973587D01*
X44405481Y26902591D01*
X44481866Y26862500D01*
X44546247Y26862500D01*
X44608760Y26877908D01*
X44673332Y26935114D01*
X44703923Y27015775D01*
X44701285Y27037500D01*
X44704605Y27037500D01*
X44998095Y26744009D01*
X44998096Y26744009D01*
X45008918Y26758112D01*
X45047938Y26852316D01*
X45091779Y26906719D01*
X45158073Y26928785D01*
X45225772Y26911506D01*
X45273383Y26860370D01*
X45277061Y26852316D01*
X45316080Y26758115D01*
X45316086Y26758105D01*
X45326901Y26744009D01*
X45620395Y27037500D01*
X45598670Y27059225D01*
X45621077Y27059225D01*
X45631475Y26973587D01*
X45680481Y26902591D01*
X45756866Y26862500D01*
X45821247Y26862500D01*
X45883760Y26877908D01*
X45948332Y26935114D01*
X45978923Y27015775D01*
X45976285Y27037499D01*
X45979605Y27037499D01*
X46273095Y26744009D01*
X46273096Y26744009D01*
X46283918Y26758112D01*
X46322938Y26852316D01*
X46366779Y26906719D01*
X46433073Y26928785D01*
X46500772Y26911506D01*
X46548383Y26860370D01*
X46552061Y26852316D01*
X46591080Y26758115D01*
X46591086Y26758105D01*
X46601901Y26744009D01*
X46895395Y27037500D01*
X46895395Y27037501D01*
X46873671Y27059225D01*
X46896077Y27059225D01*
X46906475Y26973587D01*
X46955481Y26902591D01*
X47031866Y26862500D01*
X47096247Y26862500D01*
X47158760Y26877908D01*
X47223332Y26935114D01*
X47253923Y27015775D01*
X47251285Y27037499D01*
X47254605Y27037499D01*
X47548095Y26744009D01*
X47548096Y26744009D01*
X47558920Y26758114D01*
X47558920Y26758115D01*
X47614738Y26892874D01*
X47614740Y26892879D01*
X47633780Y27037500D01*
X47633780Y27037501D01*
X47614740Y27182122D01*
X47614738Y27182127D01*
X47558919Y27316887D01*
X47558918Y27316890D01*
X47548096Y27330994D01*
X47254605Y27037501D01*
X47254605Y27037499D01*
X47251285Y27037499D01*
X47243525Y27101413D01*
X47194519Y27172409D01*
X47118134Y27212500D01*
X47053753Y27212500D01*
X46991240Y27197092D01*
X46926668Y27139886D01*
X46896077Y27059225D01*
X46873671Y27059225D01*
X46601902Y27330993D01*
X46591081Y27316889D01*
X46552060Y27222684D01*
X46508219Y27168281D01*
X46441924Y27146216D01*
X46374225Y27163496D01*
X46326615Y27214633D01*
X46322937Y27222686D01*
X46283917Y27316890D01*
X46273096Y27330994D01*
X45979605Y27037501D01*
X45979605Y27037499D01*
X45976285Y27037499D01*
X45968525Y27101413D01*
X45919519Y27172409D01*
X45843134Y27212500D01*
X45778753Y27212500D01*
X45716240Y27197092D01*
X45651668Y27139886D01*
X45621077Y27059225D01*
X45598670Y27059225D01*
X45326902Y27330993D01*
X45316081Y27316889D01*
X45277060Y27222684D01*
X45233219Y27168281D01*
X45166924Y27146216D01*
X45099225Y27163496D01*
X45051615Y27214633D01*
X45047937Y27222686D01*
X45008917Y27316890D01*
X44998096Y27330994D01*
X44704605Y27037501D01*
X44704605Y27037500D01*
X44701285Y27037500D01*
X44693525Y27101413D01*
X44644519Y27172409D01*
X44568134Y27212500D01*
X44503753Y27212500D01*
X44441240Y27197092D01*
X44376668Y27139886D01*
X44346077Y27059225D01*
X44323671Y27059225D01*
X44051902Y27330993D01*
X44041080Y27316888D01*
X43985261Y27182127D01*
X43985259Y27182122D01*
X43966220Y27037501D01*
X43966220Y27037500D01*
X28476356Y27037500D01*
X28486255Y27099998D01*
X28486255Y27100003D01*
X28467351Y27219357D01*
X28412488Y27327034D01*
X28327033Y27412489D01*
X28219356Y27467352D01*
X28100002Y27486255D01*
X28099998Y27486255D01*
X27980643Y27467352D01*
X27872966Y27412489D01*
X27787511Y27327034D01*
X27732648Y27219357D01*
X27713744Y27100003D01*
X27713744Y27099998D01*
X27732648Y26980644D01*
X27787511Y26872967D01*
X27834581Y26825897D01*
X27868066Y26764574D01*
X27870900Y26738216D01*
X27870900Y24346260D01*
X27851215Y24279221D01*
X27834581Y24258579D01*
X27402667Y23826665D01*
X27341344Y23793180D01*
X27313995Y23792386D01*
X27313995Y23790502D01*
X27304234Y23790502D01*
X27184879Y23771599D01*
X27077202Y23716736D01*
X26991747Y23631281D01*
X26936884Y23523604D01*
X26917980Y23404250D01*
X26917980Y23404245D01*
X18600000Y23404245D01*
X18600000Y25699998D01*
X23713744Y25699998D01*
X23732648Y25580644D01*
X23787511Y25472967D01*
X23872966Y25387512D01*
X23980643Y25332649D01*
X24099998Y25313745D01*
X24100000Y25313745D01*
X24100002Y25313745D01*
X24219356Y25332649D01*
X24219357Y25332650D01*
X24219359Y25332650D01*
X24327035Y25387513D01*
X24412487Y25472965D01*
X24467350Y25580641D01*
X24467350Y25580643D01*
X24467351Y25580644D01*
X24486255Y25699998D01*
X24486255Y25700003D01*
X24467351Y25819357D01*
X24412488Y25927034D01*
X24327033Y26012489D01*
X24219356Y26067352D01*
X24100002Y26086255D01*
X24099998Y26086255D01*
X23980643Y26067352D01*
X23872966Y26012489D01*
X23787511Y25927034D01*
X23732648Y25819357D01*
X23713744Y25700003D01*
X23713744Y25699998D01*
X18600000Y25699998D01*
X18600000Y27500000D01*
X11125479Y27500000D01*
X11089387Y27510598D01*
X44231507Y27510598D01*
X44525000Y27217105D01*
X44525001Y27217105D01*
X44818491Y27510598D01*
X45506507Y27510598D01*
X45800000Y27217105D01*
X45800001Y27217105D01*
X46093491Y27510598D01*
X46781507Y27510598D01*
X47075000Y27217105D01*
X47075001Y27217105D01*
X47368492Y27510599D01*
X47354395Y27521414D01*
X47354387Y27521419D01*
X47219623Y27577240D01*
X47219621Y27577241D01*
X47075001Y27596280D01*
X47074999Y27596280D01*
X46930378Y27577241D01*
X46930373Y27577239D01*
X46795612Y27521420D01*
X46781507Y27510598D01*
X46093491Y27510598D01*
X46093492Y27510599D01*
X46079395Y27521414D01*
X46079387Y27521419D01*
X45944623Y27577240D01*
X45944621Y27577241D01*
X45800001Y27596280D01*
X45799999Y27596280D01*
X45655378Y27577241D01*
X45655373Y27577239D01*
X45520612Y27521420D01*
X45506507Y27510598D01*
X44818491Y27510598D01*
X44818492Y27510599D01*
X44804395Y27521414D01*
X44804387Y27521419D01*
X44669623Y27577240D01*
X44669621Y27577241D01*
X44525001Y27596280D01*
X44524999Y27596280D01*
X44380378Y27577241D01*
X44380373Y27577239D01*
X44245612Y27521420D01*
X44231507Y27510598D01*
X11089387Y27510598D01*
X11058440Y27519685D01*
X11012685Y27572489D01*
X11002741Y27641647D01*
X11011923Y27673810D01*
X11075678Y27819159D01*
X11132798Y28044721D01*
X11152012Y28276594D01*
X11152012Y28276607D01*
X11150074Y28299998D01*
X20113744Y28299998D01*
X20132648Y28180644D01*
X20187511Y28072967D01*
X20272966Y27987512D01*
X20380643Y27932649D01*
X20499998Y27913745D01*
X20500000Y27913745D01*
X20500002Y27913745D01*
X20619356Y27932649D01*
X20619357Y27932650D01*
X20619359Y27932650D01*
X20727035Y27987513D01*
X20812487Y28072965D01*
X20867350Y28180641D01*
X20867350Y28180643D01*
X20867351Y28180644D01*
X20883087Y28279998D01*
X37113745Y28279998D01*
X37132648Y28160644D01*
X37187511Y28052967D01*
X37272966Y27967512D01*
X37380643Y27912649D01*
X37499998Y27893745D01*
X37500000Y27893745D01*
X37500002Y27893745D01*
X37619356Y27912649D01*
X37619357Y27912650D01*
X37619359Y27912650D01*
X37727035Y27967513D01*
X37812487Y28052965D01*
X37867350Y28160641D01*
X37867350Y28160643D01*
X37867351Y28160644D01*
X37886255Y28279998D01*
X37886255Y28280003D01*
X37867351Y28399357D01*
X37812488Y28507034D01*
X37727033Y28592489D01*
X37619356Y28647352D01*
X37500002Y28666255D01*
X37499998Y28666255D01*
X37380643Y28647352D01*
X37272966Y28592489D01*
X37187511Y28507034D01*
X37132648Y28399357D01*
X37113745Y28280003D01*
X37113745Y28279998D01*
X20883087Y28279998D01*
X20886255Y28299998D01*
X20886255Y28300003D01*
X20867351Y28419357D01*
X20812488Y28527034D01*
X20727033Y28612489D01*
X20619356Y28667352D01*
X20500002Y28686255D01*
X20499998Y28686255D01*
X20380643Y28667352D01*
X20272966Y28612489D01*
X20187511Y28527034D01*
X20132648Y28419357D01*
X20113744Y28300003D01*
X20113744Y28299998D01*
X11150074Y28299998D01*
X11132798Y28508480D01*
X11075679Y28734039D01*
X10982212Y28947122D01*
X10854952Y29141908D01*
X10822915Y29176711D01*
X10822914Y29176711D01*
X10463106Y28816904D01*
X10415714Y28882134D01*
X10285959Y28998967D01*
X10642663Y29355670D01*
X10642663Y29355672D01*
X10513755Y29456005D01*
X10513744Y29456012D01*
X10309119Y29566749D01*
X10309105Y29566755D01*
X10089045Y29642303D01*
X9859539Y29680600D01*
X9626861Y29680600D01*
X9397354Y29642303D01*
X9177294Y29566755D01*
X9177280Y29566749D01*
X8972655Y29456012D01*
X8972651Y29456010D01*
X8843735Y29355671D01*
X8843735Y29355670D01*
X9200439Y28998965D01*
X9070686Y28882134D01*
X9023292Y28816904D01*
X8663484Y29176712D01*
X8663483Y29176712D01*
X8631454Y29141917D01*
X8504186Y28947119D01*
X8410720Y28734039D01*
X8353601Y28508480D01*
X8334388Y28276607D01*
X8334388Y28276594D01*
X8353601Y28044721D01*
X8410721Y27819159D01*
X8474477Y27673810D01*
X8483380Y27604510D01*
X8453403Y27541398D01*
X8394064Y27504511D01*
X8360921Y27500000D01*
X4692279Y27500000D01*
X4625240Y27519685D01*
X4579485Y27572489D01*
X4569541Y27641647D01*
X4578723Y27673810D01*
X4642478Y27819159D01*
X4699598Y28044721D01*
X4718812Y28276594D01*
X4718812Y28276607D01*
X4699598Y28508480D01*
X4642479Y28734039D01*
X4549012Y28947122D01*
X4421752Y29141908D01*
X4389715Y29176711D01*
X4389714Y29176711D01*
X4029906Y28816904D01*
X3982514Y28882134D01*
X3852759Y28998967D01*
X4209463Y29355670D01*
X4209463Y29355672D01*
X4080555Y29456005D01*
X4080544Y29456012D01*
X3875919Y29566749D01*
X3875905Y29566755D01*
X3655845Y29642303D01*
X3426339Y29680600D01*
X3193661Y29680600D01*
X2964154Y29642303D01*
X2744094Y29566755D01*
X2744080Y29566749D01*
X2539455Y29456012D01*
X2539451Y29456010D01*
X2410535Y29355671D01*
X2410535Y29355670D01*
X2767239Y28998965D01*
X2637486Y28882134D01*
X2590092Y28816904D01*
X2230284Y29176712D01*
X2230283Y29176712D01*
X2198254Y29141917D01*
X2070986Y28947119D01*
X1977520Y28734039D01*
X1920401Y28508480D01*
X1901188Y28276607D01*
X1901188Y28276594D01*
X1920401Y28044721D01*
X1977520Y27819162D01*
X2070987Y27606079D01*
X2198247Y27411293D01*
X2230283Y27376491D01*
X2230284Y27376491D01*
X2590091Y27736299D01*
X2637486Y27671066D01*
X2767239Y27554236D01*
X2410535Y27197532D01*
X2410535Y27197530D01*
X2539444Y27097196D01*
X2539455Y27097189D01*
X2744080Y26986452D01*
X2744094Y26986446D01*
X2916262Y26927339D01*
X2973278Y26886953D01*
X2999408Y26822154D01*
X2999999Y26810058D01*
X3000000Y23220132D01*
X2980315Y23153093D01*
X2927511Y23107338D01*
X2896410Y23097823D01*
X2844154Y23089103D01*
X2624094Y23013555D01*
X2624080Y23013549D01*
X2419455Y22902812D01*
X2419451Y22902810D01*
X2290535Y22802471D01*
X2290535Y22802470D01*
X2647239Y22445766D01*
X2517486Y22328934D01*
X2470092Y22263704D01*
X2110284Y22623512D01*
X2110283Y22623512D01*
X2078254Y22588717D01*
X1950986Y22393919D01*
X1857520Y22180839D01*
X1800401Y21955280D01*
X1781188Y21723407D01*
X1781188Y21723394D01*
X381500Y21723394D01*
X381500Y30099998D01*
X44413745Y30099998D01*
X44432648Y29980644D01*
X44487511Y29872967D01*
X44572966Y29787512D01*
X44680643Y29732649D01*
X44799998Y29713745D01*
X44800000Y29713745D01*
X44800002Y29713745D01*
X44919356Y29732649D01*
X44919357Y29732650D01*
X44919359Y29732650D01*
X45027035Y29787513D01*
X45112487Y29872965D01*
X45167350Y29980641D01*
X45167350Y29980643D01*
X45167351Y29980644D01*
X45186255Y30099998D01*
X45186255Y30100003D01*
X45167351Y30219357D01*
X45126263Y30299998D01*
X45513745Y30299998D01*
X45532648Y30180644D01*
X45587511Y30072967D01*
X45672966Y29987512D01*
X45780643Y29932649D01*
X45899998Y29913745D01*
X45900000Y29913745D01*
X45900002Y29913745D01*
X46019356Y29932649D01*
X46019357Y29932650D01*
X46019359Y29932650D01*
X46127035Y29987513D01*
X46212487Y30072965D01*
X46226261Y30099998D01*
X48113745Y30099998D01*
X48132648Y29980644D01*
X48187511Y29872967D01*
X48272966Y29787512D01*
X48380643Y29732649D01*
X48499998Y29713745D01*
X48500000Y29713745D01*
X48500002Y29713745D01*
X48619356Y29732649D01*
X48619357Y29732650D01*
X48619359Y29732650D01*
X48727035Y29787513D01*
X48812487Y29872965D01*
X48826261Y29899998D01*
X53213745Y29899998D01*
X53232648Y29780644D01*
X53287511Y29672967D01*
X53372966Y29587512D01*
X53480643Y29532649D01*
X53599998Y29513745D01*
X53600000Y29513745D01*
X53600002Y29513745D01*
X53719356Y29532649D01*
X53719357Y29532650D01*
X53719359Y29532650D01*
X53827035Y29587513D01*
X53912487Y29672965D01*
X53926261Y29699998D01*
X59213745Y29699998D01*
X59232648Y29580644D01*
X59287511Y29472967D01*
X59372966Y29387512D01*
X59480643Y29332649D01*
X59599998Y29313745D01*
X59600000Y29313745D01*
X59600002Y29313745D01*
X59639482Y29319998D01*
X72367020Y29319998D01*
X72387276Y29140211D01*
X72447036Y28969429D01*
X72543295Y28816234D01*
X72543296Y28816233D01*
X72671233Y28688296D01*
X72824431Y28592035D01*
X72929626Y28555226D01*
X72995210Y28532277D01*
X73081354Y28522572D01*
X73129909Y28517101D01*
X73129910Y28517100D01*
X73915304Y28517100D01*
X73982343Y28497415D01*
X74028098Y28444611D01*
X74038042Y28375453D01*
X74017759Y28323250D01*
X74010485Y28312582D01*
X74010484Y28312580D01*
X73972500Y28189437D01*
X73972500Y27842956D01*
X73986878Y27747570D01*
X74042793Y27631459D01*
X74075435Y27596280D01*
X74130447Y27536992D01*
X74242052Y27472556D01*
X74367692Y27443880D01*
X74496202Y27453510D01*
X74616164Y27500592D01*
X74716920Y27580942D01*
X74789515Y27687419D01*
X74827500Y27810565D01*
X74827500Y28157039D01*
X74813122Y28252431D01*
X74757207Y28368540D01*
X74757206Y28368541D01*
X74757206Y28368542D01*
X74669553Y28463008D01*
X74669546Y28463014D01*
X74665717Y28465224D01*
X74662362Y28468742D01*
X74662285Y28468804D01*
X74662293Y28468815D01*
X74617503Y28515792D01*
X74604282Y28584400D01*
X74630252Y28649264D01*
X74661744Y28677601D01*
X74678767Y28688296D01*
X74806704Y28816233D01*
X74902965Y28969431D01*
X74916409Y29007854D01*
X74957132Y29064630D01*
X75022084Y29090378D01*
X75033452Y29090900D01*
X75991548Y29090900D01*
X76058587Y29071215D01*
X76104342Y29018411D01*
X76108590Y29007854D01*
X76122034Y28969432D01*
X76218295Y28816233D01*
X76218296Y28816233D01*
X76346233Y28688296D01*
X76499431Y28592035D01*
X76604626Y28555226D01*
X76670210Y28532277D01*
X76756354Y28522572D01*
X76804909Y28517101D01*
X76804910Y28517100D01*
X76804914Y28517100D01*
X78195090Y28517100D01*
X78195090Y28517101D01*
X78256174Y28523984D01*
X78329789Y28532277D01*
X78329792Y28532278D01*
X78500569Y28592035D01*
X78653767Y28688296D01*
X78781704Y28816233D01*
X78877965Y28969431D01*
X78937722Y29140208D01*
X78937722Y29140209D01*
X78937723Y29140211D01*
X78957980Y29319998D01*
X78957980Y29320003D01*
X78937723Y29499790D01*
X78923377Y29540788D01*
X78877965Y29670569D01*
X78781704Y29823767D01*
X78653767Y29951704D01*
X78607714Y29980641D01*
X78500571Y30047964D01*
X78500570Y30047965D01*
X78500569Y30047965D01*
X78459573Y30062310D01*
X78329789Y30107724D01*
X78195090Y30122900D01*
X78195086Y30122900D01*
X76804914Y30122900D01*
X76804910Y30122900D01*
X76670210Y30107724D01*
X76499428Y30047964D01*
X76346232Y29951704D01*
X76218296Y29823768D01*
X76122034Y29670569D01*
X76108590Y29632146D01*
X76067868Y29575370D01*
X76002916Y29549622D01*
X75991548Y29549100D01*
X75033452Y29549100D01*
X74966413Y29568785D01*
X74920658Y29621589D01*
X74916410Y29632146D01*
X74902965Y29670569D01*
X74863957Y29732650D01*
X74806704Y29823767D01*
X74678767Y29951704D01*
X74632714Y29980641D01*
X74525571Y30047964D01*
X74525570Y30047965D01*
X74525569Y30047965D01*
X74484573Y30062310D01*
X74354789Y30107724D01*
X74220090Y30122900D01*
X74220086Y30122900D01*
X73129914Y30122900D01*
X73129910Y30122900D01*
X72995210Y30107724D01*
X72824428Y30047964D01*
X72671232Y29951704D01*
X72543296Y29823768D01*
X72447036Y29670572D01*
X72387276Y29499790D01*
X72367020Y29320003D01*
X72367020Y29319998D01*
X59639482Y29319998D01*
X59719356Y29332649D01*
X59719357Y29332650D01*
X59719359Y29332650D01*
X59827035Y29387513D01*
X59912487Y29472965D01*
X59967350Y29580641D01*
X59967350Y29580643D01*
X59967351Y29580644D01*
X59986255Y29699998D01*
X59986255Y29709759D01*
X59990008Y29709759D01*
X59996573Y29760622D01*
X60022415Y29798421D01*
X62058576Y31834581D01*
X62119900Y31868066D01*
X62146258Y31870900D01*
X64638216Y31870900D01*
X64705255Y31851215D01*
X64725897Y31834581D01*
X64772966Y31787512D01*
X64880643Y31732649D01*
X64999998Y31713745D01*
X65000000Y31713745D01*
X65000002Y31713745D01*
X65119356Y31732649D01*
X65119357Y31732650D01*
X65119359Y31732650D01*
X65227035Y31787513D01*
X65312487Y31872965D01*
X65367350Y31980641D01*
X65367350Y31980643D01*
X65367351Y31980644D01*
X65386255Y32099998D01*
X65386255Y32100003D01*
X65367351Y32219357D01*
X65312488Y32327034D01*
X65227033Y32412489D01*
X65119356Y32467352D01*
X65000002Y32486255D01*
X64999998Y32486255D01*
X64880643Y32467352D01*
X64772966Y32412489D01*
X64725897Y32365419D01*
X64664574Y32331934D01*
X64638216Y32329100D01*
X62007631Y32329100D01*
X62004388Y32329185D01*
X61983469Y32330282D01*
X61963362Y32331335D01*
X61963358Y32331335D01*
X61943833Y32323840D01*
X61925185Y32318317D01*
X61904736Y32313970D01*
X61904735Y32313970D01*
X61902940Y32312665D01*
X61874510Y32297229D01*
X61872438Y32296434D01*
X61872431Y32296430D01*
X61857648Y32281646D01*
X61842858Y32269013D01*
X61825940Y32256722D01*
X61824832Y32254801D01*
X61805131Y32229129D01*
X59698420Y30122419D01*
X59637097Y30088934D01*
X59609758Y30088148D01*
X59609758Y30086255D01*
X59599997Y30086255D01*
X59480643Y30067352D01*
X59372966Y30012489D01*
X59287511Y29927034D01*
X59232648Y29819357D01*
X59213745Y29700003D01*
X59213745Y29699998D01*
X53926261Y29699998D01*
X53967350Y29780641D01*
X53967350Y29780643D01*
X53967351Y29780644D01*
X53986255Y29899998D01*
X53986255Y29900003D01*
X53967351Y30019357D01*
X53912488Y30127034D01*
X53827033Y30212489D01*
X53719356Y30267352D01*
X53600002Y30286255D01*
X53599998Y30286255D01*
X53480643Y30267352D01*
X53372966Y30212489D01*
X53287511Y30127034D01*
X53232648Y30019357D01*
X53213745Y29900003D01*
X53213745Y29899998D01*
X48826261Y29899998D01*
X48867350Y29980641D01*
X48867350Y29980643D01*
X48867351Y29980644D01*
X48886255Y30099998D01*
X48886255Y30100003D01*
X48867351Y30219357D01*
X48812488Y30327034D01*
X48727033Y30412489D01*
X48619356Y30467352D01*
X48500002Y30486255D01*
X48499998Y30486255D01*
X48380643Y30467352D01*
X48272966Y30412489D01*
X48187511Y30327034D01*
X48132648Y30219357D01*
X48113745Y30100003D01*
X48113745Y30099998D01*
X46226261Y30099998D01*
X46267350Y30180641D01*
X46267350Y30180643D01*
X46267351Y30180644D01*
X46286255Y30299998D01*
X46286255Y30300003D01*
X46267351Y30419357D01*
X46212488Y30527034D01*
X46172777Y30566745D01*
X46139292Y30628068D01*
X46137055Y30666574D01*
X46142714Y30724036D01*
X46147456Y30747871D01*
X46157913Y30782347D01*
X46184234Y30869120D01*
X46193530Y30891565D01*
X46253260Y31003316D01*
X46266758Y31023518D01*
X46352901Y31128486D01*
X46356960Y31132964D01*
X46369175Y31145180D01*
X49354820Y34130825D01*
X49366969Y34142974D01*
X49371438Y34147023D01*
X49476485Y34233232D01*
X49496689Y34246731D01*
X49608439Y34306461D01*
X49630880Y34315756D01*
X49752140Y34352539D01*
X49775963Y34357277D01*
X49911276Y34370602D01*
X49917356Y34370900D01*
X49954607Y34370900D01*
X63680385Y34370900D01*
X63727568Y34357046D01*
X63729060Y34360645D01*
X63740340Y34355974D01*
X63740342Y34355972D01*
X63784943Y34347100D01*
X66615056Y34347101D01*
X66659658Y34355972D01*
X66710234Y34389766D01*
X66744028Y34440342D01*
X66752900Y34484943D01*
X66752899Y37315056D01*
X66744028Y37359658D01*
X66744026Y37359660D01*
X66744026Y37359662D01*
X66710234Y37410234D01*
X66659659Y37444027D01*
X66659658Y37444028D01*
X66659657Y37444029D01*
X66659656Y37444029D01*
X66659654Y37444030D01*
X66615059Y37452900D01*
X63784945Y37452900D01*
X63740341Y37444028D01*
X63740338Y37444027D01*
X63689766Y37410235D01*
X63655971Y37359657D01*
X63655970Y37359655D01*
X63647100Y37315060D01*
X63647101Y34953100D01*
X63627416Y34886061D01*
X63574613Y34840306D01*
X63523101Y34829100D01*
X49886822Y34829100D01*
X49886639Y34829092D01*
X49817487Y34829092D01*
X49817486Y34829092D01*
X49817485Y34829092D01*
X49626403Y34798830D01*
X49626399Y34798829D01*
X49626394Y34798828D01*
X49442412Y34739051D01*
X49270026Y34651220D01*
X49113510Y34537506D01*
X49079543Y34503540D01*
X49079543Y34503539D01*
X49045110Y34469107D01*
X49026467Y34450463D01*
X47862259Y33286255D01*
X46065262Y31489260D01*
X46065233Y31489245D01*
X45962488Y31386498D01*
X45962484Y31386493D01*
X45848771Y31229977D01*
X45760944Y31057603D01*
X45760939Y31057591D01*
X45701160Y30873602D01*
X45670898Y30682516D01*
X45670898Y30661784D01*
X45651213Y30594745D01*
X45634581Y30574104D01*
X45587510Y30527033D01*
X45532648Y30419357D01*
X45513745Y30300003D01*
X45513745Y30299998D01*
X45126263Y30299998D01*
X45112488Y30327034D01*
X45027033Y30412489D01*
X44919356Y30467352D01*
X44800002Y30486255D01*
X44799998Y30486255D01*
X44680643Y30467352D01*
X44572966Y30412489D01*
X44487511Y30327034D01*
X44432648Y30219357D01*
X44413745Y30100003D01*
X44413745Y30099998D01*
X381500Y30099998D01*
X381500Y32899998D01*
X35413745Y32899998D01*
X35432648Y32780644D01*
X35487511Y32672967D01*
X35572966Y32587512D01*
X35680643Y32532649D01*
X35799998Y32513745D01*
X35800000Y32513745D01*
X35800002Y32513745D01*
X35919356Y32532649D01*
X35919357Y32532650D01*
X35919359Y32532650D01*
X36027035Y32587513D01*
X36112487Y32672965D01*
X36167350Y32780641D01*
X36167350Y32780643D01*
X36167351Y32780644D01*
X36186255Y32899998D01*
X36186255Y32900003D01*
X36167351Y33019357D01*
X36112488Y33127034D01*
X36027033Y33212489D01*
X35919356Y33267352D01*
X35800002Y33286255D01*
X35799998Y33286255D01*
X35680643Y33267352D01*
X35572966Y33212489D01*
X35487511Y33127034D01*
X35432648Y33019357D01*
X35413745Y32900003D01*
X35413745Y32899998D01*
X381500Y32899998D01*
X381500Y37534946D01*
X48497100Y37534946D01*
X48505972Y37490342D01*
X48505973Y37490339D01*
X48539765Y37439767D01*
X48539766Y37439766D01*
X48590342Y37405972D01*
X48590343Y37405972D01*
X48590345Y37405971D01*
X48612642Y37401536D01*
X48634943Y37397100D01*
X50365056Y37397101D01*
X50409658Y37405972D01*
X50460234Y37439766D01*
X50494028Y37490342D01*
X50502900Y37534943D01*
X50502899Y38400000D01*
X51032247Y38400000D01*
X51051610Y38203401D01*
X51051610Y38203399D01*
X51051611Y38203397D01*
X51108958Y38014350D01*
X51170079Y37900000D01*
X51202086Y37840119D01*
X51327410Y37687411D01*
X51480118Y37562087D01*
X51480122Y37562084D01*
X51654350Y37468958D01*
X51843397Y37411611D01*
X52040000Y37392247D01*
X52236603Y37411611D01*
X52425650Y37468958D01*
X52599878Y37562084D01*
X52752589Y37687411D01*
X52877916Y37840122D01*
X52971042Y38014350D01*
X53028389Y38203397D01*
X53047753Y38400000D01*
X53035244Y38527001D01*
X53483037Y38527001D01*
X53483038Y38527000D01*
X54096182Y38527000D01*
X54080000Y38471889D01*
X54080000Y38328111D01*
X54096182Y38273000D01*
X53483038Y38273000D01*
X53490147Y38196273D01*
X53546139Y37999484D01*
X53546144Y37999471D01*
X53637339Y37816329D01*
X53760640Y37653051D01*
X53911836Y37515218D01*
X53911842Y37515214D01*
X54085793Y37407508D01*
X54085808Y37407501D01*
X54276574Y37333597D01*
X54453000Y37300619D01*
X54453000Y37913119D01*
X54544237Y37900000D01*
X54615763Y37900000D01*
X54707000Y37913119D01*
X54707000Y37300619D01*
X54883425Y37333597D01*
X55074191Y37407501D01*
X55074206Y37407508D01*
X55248157Y37515214D01*
X55248163Y37515218D01*
X55399359Y37653051D01*
X55522660Y37816329D01*
X55613855Y37999471D01*
X55613860Y37999484D01*
X55669852Y38196273D01*
X55676962Y38273000D01*
X55063818Y38273000D01*
X55080000Y38328111D01*
X55080000Y38471889D01*
X55063818Y38527000D01*
X55676962Y38527000D01*
X55676962Y38527001D01*
X55669852Y38603728D01*
X55613860Y38800517D01*
X55613855Y38800530D01*
X55522660Y38983672D01*
X55399359Y39146950D01*
X55248163Y39284783D01*
X55248157Y39284787D01*
X55074206Y39392493D01*
X55074200Y39392495D01*
X54883415Y39466405D01*
X54707000Y39499383D01*
X54707000Y38886882D01*
X54615763Y38900000D01*
X54544237Y38900000D01*
X54453000Y38886882D01*
X54453000Y39499383D01*
X54276584Y39466405D01*
X54276583Y39466405D01*
X54085799Y39392495D01*
X54085793Y39392493D01*
X53911842Y39284787D01*
X53911836Y39284783D01*
X53760640Y39146950D01*
X53637339Y38983672D01*
X53546144Y38800530D01*
X53546139Y38800517D01*
X53490147Y38603728D01*
X53483037Y38527001D01*
X53035244Y38527001D01*
X53028389Y38596603D01*
X52971042Y38785650D01*
X52877916Y38959878D01*
X52858389Y38983672D01*
X52752589Y39112590D01*
X52599881Y39237914D01*
X52599879Y39237915D01*
X52599878Y39237916D01*
X52425650Y39331042D01*
X52236603Y39388389D01*
X52236601Y39388390D01*
X52236599Y39388390D01*
X52040000Y39407753D01*
X51843400Y39388390D01*
X51654350Y39331042D01*
X51480118Y39237914D01*
X51327410Y39112590D01*
X51202086Y38959882D01*
X51108958Y38785650D01*
X51051610Y38596600D01*
X51032247Y38400000D01*
X50502899Y38400000D01*
X50502899Y39265056D01*
X50494028Y39309658D01*
X50494026Y39309660D01*
X50494026Y39309662D01*
X50460234Y39360234D01*
X50418097Y39388389D01*
X50409658Y39394028D01*
X50409657Y39394029D01*
X50409656Y39394029D01*
X50409654Y39394030D01*
X50365059Y39402900D01*
X48634945Y39402900D01*
X48590341Y39394028D01*
X48590338Y39394027D01*
X48539766Y39360235D01*
X48505971Y39309657D01*
X48505970Y39309655D01*
X48497100Y39265060D01*
X48497100Y37534946D01*
X381500Y37534946D01*
X381500Y39550235D01*
X65518720Y39550235D01*
X65548823Y39353732D01*
X65548827Y39353716D01*
X65617867Y39167303D01*
X65617870Y39167295D01*
X65723030Y38998581D01*
X65723031Y38998580D01*
X65723033Y38998577D01*
X65859996Y38854492D01*
X65859998Y38854491D01*
X65860000Y38854489D01*
X65937525Y38800530D01*
X66023169Y38740920D01*
X66023170Y38740920D01*
X66023171Y38740919D01*
X66205863Y38662519D01*
X66400598Y38622500D01*
X66549572Y38622500D01*
X66697785Y38637572D01*
X66777297Y38662519D01*
X66887471Y38697086D01*
X67061294Y38793566D01*
X67212139Y38923062D01*
X67333828Y39080271D01*
X67421380Y39258758D01*
X67445966Y39353716D01*
X67471209Y39451208D01*
X67471210Y39451214D01*
X67471211Y39451216D01*
X67481280Y39649765D01*
X67451175Y39846276D01*
X67382130Y40032705D01*
X67276970Y40201419D01*
X67276967Y40201422D01*
X67276966Y40201424D01*
X67140003Y40345509D01*
X67140001Y40345510D01*
X66976830Y40459081D01*
X66794135Y40537482D01*
X66599402Y40577500D01*
X66450429Y40577500D01*
X66450428Y40577500D01*
X66302214Y40562429D01*
X66112536Y40502917D01*
X66112527Y40502913D01*
X65938704Y40406433D01*
X65938703Y40406433D01*
X65787861Y40276940D01*
X65787860Y40276939D01*
X65666173Y40119732D01*
X65666171Y40119728D01*
X65578618Y39941239D01*
X65528790Y39748793D01*
X65528789Y39748787D01*
X65518720Y39550235D01*
X381500Y39550235D01*
X381500Y40399998D01*
X55713745Y40399998D01*
X55732648Y40280644D01*
X55787511Y40172967D01*
X55872966Y40087512D01*
X55980643Y40032649D01*
X56099998Y40013745D01*
X56100000Y40013745D01*
X56100002Y40013745D01*
X56219356Y40032649D01*
X56219357Y40032650D01*
X56219359Y40032650D01*
X56327035Y40087513D01*
X56412487Y40172965D01*
X56467350Y40280641D01*
X56467350Y40280643D01*
X56467351Y40280644D01*
X56486255Y40399998D01*
X56486255Y40400003D01*
X56467351Y40519357D01*
X56412488Y40627034D01*
X56327033Y40712489D01*
X56219356Y40767352D01*
X56100002Y40786255D01*
X56099998Y40786255D01*
X55980643Y40767352D01*
X55872966Y40712489D01*
X55787511Y40627034D01*
X55732648Y40519357D01*
X55713745Y40400003D01*
X55713745Y40399998D01*
X381500Y40399998D01*
X381500Y41274998D01*
X63488745Y41274998D01*
X63507648Y41155644D01*
X63562511Y41047967D01*
X63647966Y40962512D01*
X63755643Y40907649D01*
X63874998Y40888745D01*
X63875000Y40888745D01*
X63875002Y40888745D01*
X63994356Y40907649D01*
X63994357Y40907650D01*
X63994359Y40907650D01*
X64102035Y40962513D01*
X64187487Y41047965D01*
X64242350Y41155641D01*
X64242350Y41155643D01*
X64242351Y41155644D01*
X64261255Y41274998D01*
X64261255Y41275003D01*
X64242351Y41394357D01*
X64187488Y41502034D01*
X64102033Y41587489D01*
X63994356Y41642352D01*
X63875002Y41661255D01*
X63874998Y41661255D01*
X63755643Y41642352D01*
X63647966Y41587489D01*
X63562511Y41502034D01*
X63507648Y41394357D01*
X63488745Y41275003D01*
X63488745Y41274998D01*
X381500Y41274998D01*
X381500Y43199998D01*
X55613745Y43199998D01*
X55632648Y43080644D01*
X55687511Y42972967D01*
X55772966Y42887512D01*
X55880643Y42832649D01*
X55999998Y42813745D01*
X56000000Y42813745D01*
X56000002Y42813745D01*
X56119356Y42832649D01*
X56119357Y42832650D01*
X56119359Y42832650D01*
X56227035Y42887513D01*
X56227037Y42887516D01*
X56234926Y42893246D01*
X56236548Y42891014D01*
X56284626Y42917266D01*
X56310984Y42920100D01*
X71223101Y42920100D01*
X71290140Y42900415D01*
X71335895Y42847611D01*
X71347101Y42796100D01*
X71347101Y41884944D01*
X71347102Y41884941D01*
X71355972Y41840342D01*
X71355973Y41840339D01*
X71389765Y41789766D01*
X71415789Y41772378D01*
X71460595Y41718767D01*
X71470900Y41669275D01*
X71470900Y35651286D01*
X71451215Y35584247D01*
X71434583Y35563606D01*
X71387510Y35516533D01*
X71332648Y35408857D01*
X71313745Y35289503D01*
X71313745Y35289498D01*
X71332648Y35170144D01*
X71387511Y35062467D01*
X71472966Y34977012D01*
X71580643Y34922149D01*
X71699998Y34903245D01*
X71700000Y34903245D01*
X71700002Y34903245D01*
X71819356Y34922149D01*
X71819357Y34922150D01*
X71819359Y34922150D01*
X71927035Y34977013D01*
X72012487Y35062465D01*
X72067350Y35170141D01*
X72067350Y35170143D01*
X72067351Y35170144D01*
X72086255Y35289498D01*
X72086255Y35289503D01*
X72067351Y35408857D01*
X72012488Y35516534D01*
X71965419Y35563603D01*
X71931934Y35624926D01*
X71929100Y35651284D01*
X71929100Y35773000D01*
X73246001Y35773000D01*
X73246001Y34474986D01*
X73260737Y34400894D01*
X73260738Y34400891D01*
X73316876Y34316877D01*
X73400895Y34260737D01*
X73400896Y34260736D01*
X73474980Y34246001D01*
X74472999Y34246001D01*
X74472999Y34246002D01*
X74473000Y35773000D01*
X74727000Y35773000D01*
X74727000Y34246001D01*
X75725015Y34246001D01*
X75799106Y34260738D01*
X75799109Y34260739D01*
X75883123Y34316877D01*
X75939263Y34400896D01*
X75939264Y34400897D01*
X75953999Y34474979D01*
X75953999Y34474983D01*
X75954000Y35773000D01*
X74727000Y35773000D01*
X74473000Y35773000D01*
X73246001Y35773000D01*
X71929100Y35773000D01*
X71929100Y36027000D01*
X73246000Y36027000D01*
X74473000Y36027000D01*
X74473000Y37554000D01*
X74727000Y37554000D01*
X74727000Y36027000D01*
X75953999Y36027000D01*
X75953999Y37325015D01*
X75939262Y37399107D01*
X75939261Y37399110D01*
X75883123Y37483124D01*
X75799104Y37539264D01*
X75799103Y37539265D01*
X75725021Y37554000D01*
X74727000Y37554000D01*
X74473000Y37554000D01*
X73474985Y37554000D01*
X73400893Y37539263D01*
X73400890Y37539262D01*
X73316876Y37483124D01*
X73260736Y37399105D01*
X73260735Y37399104D01*
X73246000Y37325022D01*
X73246000Y36027000D01*
X71929100Y36027000D01*
X71929100Y39550235D01*
X72518720Y39550235D01*
X72548823Y39353732D01*
X72548827Y39353716D01*
X72617867Y39167303D01*
X72617870Y39167295D01*
X72723030Y38998581D01*
X72723031Y38998580D01*
X72723033Y38998577D01*
X72859996Y38854492D01*
X72859998Y38854491D01*
X72860000Y38854489D01*
X72937525Y38800530D01*
X73023169Y38740920D01*
X73023170Y38740920D01*
X73023171Y38740919D01*
X73205863Y38662519D01*
X73400598Y38622500D01*
X73549572Y38622500D01*
X73697785Y38637572D01*
X73777297Y38662519D01*
X73887471Y38697086D01*
X74061294Y38793566D01*
X74212139Y38923062D01*
X74333828Y39080271D01*
X74421380Y39258758D01*
X74445966Y39353716D01*
X74471209Y39451208D01*
X74471210Y39451214D01*
X74471211Y39451216D01*
X74481280Y39649765D01*
X74451175Y39846276D01*
X74382130Y40032705D01*
X74276970Y40201419D01*
X74276967Y40201422D01*
X74276966Y40201424D01*
X74140003Y40345509D01*
X74140001Y40345510D01*
X73976830Y40459081D01*
X73794135Y40537482D01*
X73599402Y40577500D01*
X73450429Y40577500D01*
X73450428Y40577500D01*
X73302214Y40562429D01*
X73112536Y40502917D01*
X73112527Y40502913D01*
X72938704Y40406433D01*
X72938703Y40406433D01*
X72787861Y40276940D01*
X72787860Y40276939D01*
X72666173Y40119732D01*
X72666171Y40119728D01*
X72578618Y39941239D01*
X72528790Y39748793D01*
X72528789Y39748787D01*
X72518720Y39550235D01*
X71929100Y39550235D01*
X71929100Y41623101D01*
X71948785Y41690140D01*
X72001589Y41735895D01*
X72053100Y41747101D01*
X73715055Y41747101D01*
X73715056Y41747101D01*
X73759658Y41755972D01*
X73810234Y41789766D01*
X73844028Y41840342D01*
X73852900Y41884943D01*
X73852899Y44715056D01*
X73844028Y44759658D01*
X73844026Y44759660D01*
X73844026Y44759662D01*
X73810234Y44810234D01*
X73759659Y44844027D01*
X73759658Y44844028D01*
X73759657Y44844029D01*
X73759656Y44844029D01*
X73759654Y44844030D01*
X73715059Y44852900D01*
X71484945Y44852900D01*
X71440341Y44844028D01*
X71440338Y44844027D01*
X71389766Y44810235D01*
X71355971Y44759657D01*
X71355970Y44759655D01*
X71347100Y44715060D01*
X71347100Y43603900D01*
X71327415Y43536861D01*
X71274611Y43491106D01*
X71223100Y43479900D01*
X56310984Y43479900D01*
X56243945Y43499585D01*
X56234971Y43506817D01*
X56234926Y43506754D01*
X56227034Y43512488D01*
X56119356Y43567352D01*
X56000002Y43586255D01*
X55999998Y43586255D01*
X55880643Y43567352D01*
X55772966Y43512489D01*
X55687511Y43427034D01*
X55632648Y43319357D01*
X55613745Y43200003D01*
X55613745Y43199998D01*
X381500Y43199998D01*
X381500Y46998259D01*
X381598Y47001736D01*
X385227Y47066363D01*
X1268687Y47066363D01*
X1278846Y46801301D01*
X1329350Y46540894D01*
X1419009Y46291257D01*
X1419012Y46291250D01*
X1545726Y46058228D01*
X1545729Y46058223D01*
X1628480Y45949664D01*
X1706534Y45847267D01*
X1897657Y45663330D01*
X2114617Y45510723D01*
X2352331Y45393024D01*
X2605225Y45312991D01*
X2867372Y45272500D01*
X2867376Y45272500D01*
X3066219Y45272500D01*
X3066220Y45272500D01*
X3264478Y45287721D01*
X3522756Y45348161D01*
X3568836Y45366734D01*
X3768774Y45447314D01*
X3768779Y45447317D01*
X3768782Y45447318D01*
X3996788Y45582869D01*
X4201430Y45751636D01*
X4377912Y45949664D01*
X4448215Y46058224D01*
X4522094Y46172306D01*
X4522094Y46172308D01*
X4522096Y46172310D01*
X4630604Y46414357D01*
X4700892Y46670131D01*
X4731313Y46933637D01*
X4726226Y47066363D01*
X75268687Y47066363D01*
X75278846Y46801301D01*
X75329350Y46540894D01*
X75419009Y46291257D01*
X75419012Y46291250D01*
X75545726Y46058228D01*
X75545729Y46058223D01*
X75628480Y45949664D01*
X75706534Y45847267D01*
X75897657Y45663330D01*
X76114617Y45510723D01*
X76352331Y45393024D01*
X76605225Y45312991D01*
X76867372Y45272500D01*
X76867376Y45272500D01*
X77066219Y45272500D01*
X77066220Y45272500D01*
X77264478Y45287721D01*
X77522756Y45348161D01*
X77568836Y45366734D01*
X77768774Y45447314D01*
X77768779Y45447317D01*
X77768782Y45447318D01*
X77996788Y45582869D01*
X78201430Y45751636D01*
X78377912Y45949664D01*
X78448215Y46058224D01*
X78522094Y46172306D01*
X78522094Y46172308D01*
X78522096Y46172310D01*
X78630604Y46414357D01*
X78700892Y46670131D01*
X78731313Y46933637D01*
X78721153Y47198699D01*
X78702829Y47293179D01*
X78670649Y47459107D01*
X78580990Y47708744D01*
X78580987Y47708751D01*
X78454273Y47941773D01*
X78454270Y47941778D01*
X78293469Y48152729D01*
X78293466Y48152733D01*
X78102343Y48336670D01*
X78018040Y48395968D01*
X77885382Y48489278D01*
X77647670Y48606976D01*
X77647667Y48606977D01*
X77394777Y48687009D01*
X77289916Y48703206D01*
X77132628Y48727500D01*
X76933780Y48727500D01*
X76735522Y48712279D01*
X76735518Y48712279D01*
X76477246Y48651840D01*
X76477236Y48651837D01*
X76231225Y48552687D01*
X76231216Y48552682D01*
X76003213Y48417132D01*
X75798571Y48248365D01*
X75622088Y48050337D01*
X75622081Y48050328D01*
X75477905Y47827695D01*
X75477904Y47827691D01*
X75369395Y47585643D01*
X75299108Y47329872D01*
X75268687Y47066363D01*
X4726226Y47066363D01*
X4721153Y47198699D01*
X4702829Y47293179D01*
X4670649Y47459107D01*
X4580990Y47708744D01*
X4580987Y47708751D01*
X4454273Y47941773D01*
X4454270Y47941778D01*
X4293469Y48152729D01*
X4293466Y48152733D01*
X4102343Y48336670D01*
X4018040Y48395968D01*
X3885382Y48489278D01*
X3647670Y48606976D01*
X3647667Y48606977D01*
X3394777Y48687009D01*
X3289916Y48703206D01*
X3132628Y48727500D01*
X2933780Y48727500D01*
X2735522Y48712279D01*
X2735518Y48712279D01*
X2477246Y48651840D01*
X2477236Y48651837D01*
X2231225Y48552687D01*
X2231216Y48552682D01*
X2003213Y48417132D01*
X1798571Y48248365D01*
X1622088Y48050337D01*
X1622081Y48050328D01*
X1477905Y47827695D01*
X1477904Y47827691D01*
X1369395Y47585643D01*
X1299108Y47329872D01*
X1268687Y47066363D01*
X385227Y47066363D01*
X388212Y47119520D01*
X397770Y47289715D01*
X398545Y47296598D01*
X446567Y47579239D01*
X448115Y47586018D01*
X527480Y47861502D01*
X529775Y47868056D01*
X560311Y47941776D01*
X639486Y48132924D01*
X642498Y48139174D01*
X683568Y48213484D01*
X781169Y48390081D01*
X784865Y48395962D01*
X950757Y48629765D01*
X955089Y48635199D01*
X1146121Y48848964D01*
X1151039Y48853881D01*
X1364801Y49044911D01*
X1370235Y49049243D01*
X1439294Y49098244D01*
X1604038Y49215135D01*
X1609919Y49218831D01*
X1860827Y49357503D01*
X1867076Y49360514D01*
X2090547Y49453079D01*
X2131944Y49470225D01*
X2138498Y49472520D01*
X2413986Y49551886D01*
X2420761Y49553433D01*
X2703402Y49601455D01*
X2710285Y49602230D01*
X2873089Y49611373D01*
X2998265Y49618402D01*
X3001742Y49618500D01*
X3054851Y49618500D01*
X76945149Y49618500D01*
X76998258Y49618500D01*
X77001735Y49618402D01*
G37*
%TD.AperFunction*%
%TD*%
M02*
