%TF.GenerationSoftware,KiCad,Pcbnew,7.0.6-7.0.6~ubuntu20.04.1*%
%TF.CreationDate,2023-09-06T11:46:54-07:00*%
%TF.ProjectId,harp_lick_detector_capactive,68617270-5f6c-4696-936b-5f6465746563,rev?*%
%TF.SameCoordinates,PX640a5a0PY7088980*%
%TF.FileFunction,Copper,L3,Inr*%
%TF.FilePolarity,Positive*%
%FSLAX46Y46*%
G04 Gerber Fmt 4.6, Leading zero omitted, Abs format (unit mm)*
G04 Created by KiCad (PCBNEW 7.0.6-7.0.6~ubuntu20.04.1) date 2023-09-06 11:46:54*
%MOMM*%
%LPD*%
G01*
G04 APERTURE LIST*
%TA.AperFunction,ComponentPad*%
%ADD10R,2.600000X2.600000*%
%TD*%
%TA.AperFunction,ComponentPad*%
%ADD11C,2.600000*%
%TD*%
%TA.AperFunction,ComponentPad*%
%ADD12C,2.300000*%
%TD*%
%TA.AperFunction,ComponentPad*%
%ADD13C,0.600000*%
%TD*%
%TA.AperFunction,ComponentPad*%
%ADD14O,2.300000X1.300000*%
%TD*%
%TA.AperFunction,ComponentPad*%
%ADD15O,2.600000X1.300000*%
%TD*%
%TA.AperFunction,ComponentPad*%
%ADD16C,2.750000*%
%TD*%
%TA.AperFunction,ComponentPad*%
%ADD17R,1.700000X1.700000*%
%TD*%
%TA.AperFunction,ComponentPad*%
%ADD18O,1.700000X1.700000*%
%TD*%
%TA.AperFunction,ViaPad*%
%ADD19C,0.457200*%
%TD*%
G04 APERTURE END LIST*
D10*
%TO.N,+12V*%
%TO.C,J6*%
X65800000Y11250000D03*
D11*
%TO.N,GND2*%
X71800000Y11250000D03*
%TO.N,unconnected-(J6-Pad3)*%
X68800000Y15950000D03*
%TD*%
D12*
%TO.N,/Lick Detection Analog Front End/triax_core*%
%TO.C,J3*%
X7000000Y25000000D03*
%TO.N,/Lick Detection Analog Front End/triax_inner_shield*%
X4460000Y25000000D03*
%TO.N,GND*%
X3190000Y21723400D03*
X9743200Y21723400D03*
X3310000Y28276600D03*
X9743200Y28276600D03*
%TD*%
D13*
%TO.N,GND*%
%TO.C,U11*%
X28650000Y6150000D03*
X27650000Y6150000D03*
X26650000Y6150000D03*
%TD*%
%TO.N,GND*%
%TO.C,U4*%
X47075000Y27037500D03*
X45800000Y27037500D03*
X44525000Y27037500D03*
X47075000Y25762500D03*
X45800000Y25762500D03*
X44525000Y25762500D03*
X47075000Y24487500D03*
X45800000Y24487500D03*
X44525000Y24487500D03*
%TD*%
D14*
%TO.N,GND1*%
%TO.C,J5*%
X73675000Y20680000D03*
D15*
X77500000Y20680000D03*
D14*
X73675000Y29320000D03*
D15*
X77500000Y29320000D03*
%TD*%
D16*
%TO.N,GND*%
%TO.C,H1*%
X10100000Y15750000D03*
X5100000Y15750000D03*
X10100000Y8250000D03*
X5100000Y8250000D03*
%TD*%
D17*
%TO.N,/Harp Core RP2040 + Isolated USB/UART0_TXD*%
%TO.C,J2*%
X49500000Y38400000D03*
D18*
%TO.N,/Harp Core RP2040 + Isolated USB/UART0_RXD*%
X52040000Y38400000D03*
%TO.N,GND*%
X54580000Y38400000D03*
%TD*%
D19*
%TO.N,GND*%
X35700000Y2200000D03*
X71100000Y42500000D03*
X16800000Y21300000D03*
X29297500Y31400000D03*
X38500000Y31300000D03*
X32100000Y14500000D03*
X59500000Y12300000D03*
X29600000Y8750000D03*
X39400000Y16700000D03*
X59500000Y38300000D03*
X16900000Y28700000D03*
X49400000Y21400000D03*
X78700000Y16900000D03*
X56200000Y20100000D03*
X54200000Y28100000D03*
X54200000Y26500000D03*
X50900000Y32600000D03*
X63800000Y33300000D03*
X56075000Y4937500D03*
X52200000Y6000000D03*
X22900000Y21800000D03*
X60700000Y42692500D03*
X39000000Y24100000D03*
X56100000Y27900000D03*
X25900000Y30500000D03*
X24500000Y14500000D03*
X56725000Y4937500D03*
X34200000Y19700000D03*
X61500000Y41200000D03*
X24075000Y28100000D03*
X71100000Y36700000D03*
X38900000Y25100000D03*
X52900000Y23100000D03*
X62900000Y3100000D03*
X34300000Y24600000D03*
X22530000Y3550000D03*
X32100000Y27200000D03*
X60600000Y6000000D03*
X73300000Y35300000D03*
X52300000Y21100000D03*
X39800000Y26300000D03*
X35800000Y30900000D03*
X52900000Y22100000D03*
X58700000Y38300000D03*
X28800000Y25750000D03*
X26775000Y24750000D03*
X48500000Y32600000D03*
X22900000Y28225000D03*
X56725000Y8387500D03*
X56075000Y8387500D03*
X42000000Y32300000D03*
X26400000Y19400000D03*
X37500000Y27200000D03*
X55900000Y29900000D03*
X61000000Y38100000D03*
X39500000Y30000000D03*
X38600000Y16000000D03*
X53300000Y12300000D03*
X35012500Y7855000D03*
X54200000Y27100000D03*
X42500000Y30300000D03*
%TO.N,+3V3*%
X48500000Y30100000D03*
X56100000Y23800000D03*
X56100000Y40400000D03*
X51100000Y26100000D03*
X48400000Y21400000D03*
X40400000Y16700000D03*
X37500000Y28280000D03*
X41362500Y23962500D03*
X44800000Y30100000D03*
X56200000Y21400000D03*
X51600000Y25800000D03*
X56100000Y22800000D03*
X50200000Y22800000D03*
X56000000Y43200000D03*
X50100000Y21700000D03*
X56200000Y18900000D03*
X54775000Y10800000D03*
X52200000Y10200000D03*
X53600000Y29900000D03*
X35800000Y32900000D03*
X41300000Y25562500D03*
X55425000Y10800000D03*
X71700000Y35289500D03*
X45300000Y19600000D03*
%TO.N,GND1*%
X71800000Y24921900D03*
X71800000Y23769500D03*
%TO.N,+2V5*%
X29950000Y4450000D03*
X20500000Y28300000D03*
X24100000Y25700000D03*
%TO.N,-2V5*%
X25400000Y7850000D03*
X20500000Y21700000D03*
X28600000Y24400000D03*
%TO.N,+5V*%
X60600000Y10200000D03*
X26400000Y3450000D03*
X63875000Y41275000D03*
X28025000Y7775000D03*
X57375000Y10800000D03*
X58025000Y10800000D03*
X29028350Y4478350D03*
X36700000Y2200000D03*
X26675000Y4475000D03*
%TO.N,Net-(C30-Pad2)*%
X27304236Y23404247D03*
X28100000Y27100000D03*
%TO.N,/Lick Detection Analog Front End/triax_inner_shield*%
X15900000Y26700000D03*
X7600000Y23300000D03*
X13400000Y26700000D03*
X9600000Y26700000D03*
X8600000Y26700000D03*
X10600000Y23300000D03*
X14900000Y26700000D03*
X11600000Y23300000D03*
X11600000Y26700000D03*
X7600000Y26700000D03*
X9600000Y23300000D03*
X6600000Y26700000D03*
X15900000Y23300000D03*
X8600000Y23300000D03*
X5700000Y26200000D03*
X10600000Y26700000D03*
X5700000Y23800000D03*
X13400000Y23300000D03*
X6600000Y23300000D03*
X14900000Y23300000D03*
%TO.N,/Harp Core RP2040 + Isolated USB/HARP_CLK_SYNC*%
X45900000Y30300000D03*
%TO.N,Net-(U4-GPIO24)*%
X62600000Y17900000D03*
X59900000Y17400000D03*
%TO.N,Net-(U4-GPIO25)*%
X59600000Y29700000D03*
X65000000Y32100000D03*
%TD*%
%TA.AperFunction,Conductor*%
%TO.N,+3V3*%
G36*
X56343039Y49598815D02*
G01*
X56388794Y49546011D01*
X56400000Y49494500D01*
X56400000Y30238884D01*
X56380315Y30171845D01*
X56327511Y30126090D01*
X56258353Y30116146D01*
X56194797Y30145171D01*
X56188319Y30151203D01*
X56127033Y30212489D01*
X56019356Y30267352D01*
X55900002Y30286255D01*
X55899998Y30286255D01*
X55780643Y30267352D01*
X55672966Y30212489D01*
X55587511Y30127034D01*
X55532648Y30019357D01*
X55513745Y29900003D01*
X55513745Y29899998D01*
X55532648Y29780644D01*
X55587511Y29672967D01*
X55672966Y29587512D01*
X55780643Y29532649D01*
X55899998Y29513745D01*
X55900000Y29513745D01*
X55900002Y29513745D01*
X56019356Y29532649D01*
X56019357Y29532650D01*
X56019359Y29532650D01*
X56127035Y29587513D01*
X56188319Y29648797D01*
X56249642Y29682282D01*
X56319334Y29677298D01*
X56375267Y29635426D01*
X56399684Y29569962D01*
X56400000Y29561116D01*
X56400000Y28377659D01*
X56380315Y28310620D01*
X56327511Y28264865D01*
X56258353Y28254921D01*
X56228636Y28264342D01*
X56228635Y28264336D01*
X56227924Y28264568D01*
X56219716Y28267169D01*
X56219361Y28267350D01*
X56219357Y28267351D01*
X56100002Y28286255D01*
X56099998Y28286255D01*
X55980643Y28267352D01*
X55872966Y28212489D01*
X55787511Y28127034D01*
X55732648Y28019357D01*
X55713745Y27900003D01*
X55713745Y27899998D01*
X55732648Y27780644D01*
X55787511Y27672967D01*
X55872966Y27587512D01*
X55980643Y27532649D01*
X56099998Y27513745D01*
X56100000Y27513745D01*
X56100002Y27513745D01*
X56188857Y27527819D01*
X56219359Y27532650D01*
X56219702Y27532826D01*
X56220167Y27532913D01*
X56228635Y27535664D01*
X56228990Y27534571D01*
X56288365Y27545725D01*
X56353107Y27519454D01*
X56393369Y27462350D01*
X56400000Y27422343D01*
X56400000Y20599764D01*
X56380315Y20532725D01*
X56327511Y20486970D01*
X56258353Y20477026D01*
X56256603Y20477290D01*
X56238678Y20480129D01*
X56200000Y20486255D01*
X56199998Y20486255D01*
X56199997Y20486255D01*
X56080643Y20467352D01*
X55972966Y20412489D01*
X55887511Y20327034D01*
X55832648Y20219357D01*
X55813745Y20100003D01*
X55813745Y20099998D01*
X55832648Y19980644D01*
X55887511Y19872967D01*
X55972966Y19787512D01*
X56080643Y19732649D01*
X56199998Y19713745D01*
X56200000Y19713745D01*
X56200001Y19713745D01*
X56235158Y19719314D01*
X56256601Y19722710D01*
X56325895Y19713756D01*
X56379347Y19668760D01*
X56399987Y19602008D01*
X56400000Y19600237D01*
X56400000Y8852421D01*
X56380315Y8785382D01*
X56327511Y8739627D01*
X56258353Y8729683D01*
X56219708Y8741935D01*
X56194357Y8754851D01*
X56075002Y8773755D01*
X56074998Y8773755D01*
X55955643Y8754852D01*
X55847966Y8699989D01*
X55762511Y8614534D01*
X55707648Y8506857D01*
X55688745Y8387503D01*
X55688745Y8387498D01*
X55707648Y8268144D01*
X55762511Y8160467D01*
X55847966Y8075012D01*
X55955643Y8020149D01*
X56074998Y8001245D01*
X56075000Y8001245D01*
X56075002Y8001245D01*
X56194356Y8020149D01*
X56194357Y8020150D01*
X56194359Y8020150D01*
X56219706Y8033066D01*
X56288375Y8045961D01*
X56353115Y8019684D01*
X56393372Y7962577D01*
X56400000Y7922580D01*
X56400000Y5402421D01*
X56380315Y5335382D01*
X56327511Y5289627D01*
X56258353Y5279683D01*
X56219708Y5291935D01*
X56194357Y5304851D01*
X56075002Y5323755D01*
X56074998Y5323755D01*
X55955643Y5304852D01*
X55847966Y5249989D01*
X55762511Y5164534D01*
X55707648Y5056857D01*
X55688745Y4937503D01*
X55688745Y4937498D01*
X55707648Y4818144D01*
X55762511Y4710467D01*
X55847966Y4625012D01*
X55955643Y4570149D01*
X56074998Y4551245D01*
X56075000Y4551245D01*
X56075002Y4551245D01*
X56194356Y4570149D01*
X56194357Y4570150D01*
X56194359Y4570150D01*
X56219706Y4583066D01*
X56288375Y4595961D01*
X56353115Y4569684D01*
X56393372Y4512577D01*
X56400000Y4472580D01*
X56400000Y4224000D01*
X56380315Y4156961D01*
X56327511Y4111206D01*
X56276000Y4100000D01*
X34624000Y4100000D01*
X34556961Y4119685D01*
X34511206Y4172489D01*
X34500000Y4224000D01*
X34500000Y5999998D01*
X51813745Y5999998D01*
X51832648Y5880644D01*
X51887511Y5772967D01*
X51972966Y5687512D01*
X52080643Y5632649D01*
X52199998Y5613745D01*
X52200000Y5613745D01*
X52200002Y5613745D01*
X52319356Y5632649D01*
X52319357Y5632650D01*
X52319359Y5632650D01*
X52427035Y5687513D01*
X52512487Y5772965D01*
X52567350Y5880641D01*
X52567350Y5880643D01*
X52567351Y5880644D01*
X52586255Y5999998D01*
X52586255Y6000003D01*
X52567351Y6119357D01*
X52512488Y6227034D01*
X52427033Y6312489D01*
X52319356Y6367352D01*
X52200002Y6386255D01*
X52199998Y6386255D01*
X52080643Y6367352D01*
X51972966Y6312489D01*
X51887511Y6227034D01*
X51832648Y6119357D01*
X51813745Y6000003D01*
X51813745Y5999998D01*
X34500000Y5999998D01*
X34500000Y7528617D01*
X34519685Y7595656D01*
X34572489Y7641411D01*
X34641647Y7651355D01*
X34705203Y7622330D01*
X34711653Y7616325D01*
X34785465Y7542513D01*
X34785467Y7542512D01*
X34785468Y7542511D01*
X34893143Y7487649D01*
X35012498Y7468745D01*
X35012500Y7468745D01*
X35012502Y7468745D01*
X35131856Y7487649D01*
X35131857Y7487650D01*
X35131859Y7487650D01*
X35239535Y7542513D01*
X35324987Y7627965D01*
X35379850Y7735641D01*
X35379850Y7735643D01*
X35379851Y7735644D01*
X35398755Y7854998D01*
X35398755Y7855003D01*
X35379851Y7974357D01*
X35324988Y8082034D01*
X35239533Y8167489D01*
X35131856Y8222352D01*
X35012502Y8241255D01*
X35012498Y8241255D01*
X34893143Y8222352D01*
X34785466Y8167489D01*
X34711681Y8093703D01*
X34650358Y8060218D01*
X34580666Y8065202D01*
X34524733Y8107074D01*
X34500316Y8172538D01*
X34500000Y8181384D01*
X34500000Y12299998D01*
X52913745Y12299998D01*
X52932648Y12180644D01*
X52987511Y12072967D01*
X53072966Y11987512D01*
X53180643Y11932649D01*
X53299998Y11913745D01*
X53300000Y11913745D01*
X53300002Y11913745D01*
X53419356Y11932649D01*
X53419357Y11932650D01*
X53419359Y11932650D01*
X53527035Y11987513D01*
X53612487Y12072965D01*
X53667350Y12180641D01*
X53667350Y12180643D01*
X53667351Y12180644D01*
X53686255Y12299998D01*
X53686255Y12300003D01*
X53667351Y12419357D01*
X53612488Y12527034D01*
X53527033Y12612489D01*
X53419356Y12667352D01*
X53300002Y12686255D01*
X53299998Y12686255D01*
X53180643Y12667352D01*
X53072966Y12612489D01*
X52987511Y12527034D01*
X52932648Y12419357D01*
X52913745Y12300003D01*
X52913745Y12299998D01*
X34500000Y12299998D01*
X34500000Y15999998D01*
X38213745Y15999998D01*
X38232648Y15880644D01*
X38287511Y15772967D01*
X38372966Y15687512D01*
X38480643Y15632649D01*
X38599998Y15613745D01*
X38600000Y15613745D01*
X38600002Y15613745D01*
X38719356Y15632649D01*
X38719357Y15632650D01*
X38719359Y15632650D01*
X38827035Y15687513D01*
X38912487Y15772965D01*
X38967350Y15880641D01*
X38967350Y15880643D01*
X38967351Y15880644D01*
X38986255Y15999998D01*
X38986255Y16000003D01*
X38967351Y16119357D01*
X38912488Y16227034D01*
X38827033Y16312489D01*
X38719356Y16367352D01*
X38600002Y16386255D01*
X38599998Y16386255D01*
X38480643Y16367352D01*
X38372966Y16312489D01*
X38287511Y16227034D01*
X38232648Y16119357D01*
X38213745Y16000003D01*
X38213745Y15999998D01*
X34500000Y15999998D01*
X34500000Y16699998D01*
X39013745Y16699998D01*
X39032648Y16580644D01*
X39087511Y16472967D01*
X39172966Y16387512D01*
X39280643Y16332649D01*
X39399998Y16313745D01*
X39400000Y16313745D01*
X39400002Y16313745D01*
X39519356Y16332649D01*
X39519357Y16332650D01*
X39519359Y16332650D01*
X39627035Y16387513D01*
X39712487Y16472965D01*
X39767350Y16580641D01*
X39767350Y16580643D01*
X39767351Y16580644D01*
X39786255Y16699998D01*
X39786255Y16700003D01*
X39767351Y16819357D01*
X39712488Y16927034D01*
X39627033Y17012489D01*
X39519356Y17067352D01*
X39400002Y17086255D01*
X39399998Y17086255D01*
X39280643Y17067352D01*
X39172966Y17012489D01*
X39087511Y16927034D01*
X39032648Y16819357D01*
X39013745Y16700003D01*
X39013745Y16699998D01*
X34500000Y16699998D01*
X34500000Y19418688D01*
X34513515Y19474982D01*
X34532990Y19513205D01*
X34567350Y19580641D01*
X34567350Y19580643D01*
X34567351Y19580644D01*
X34586255Y19699998D01*
X34586255Y19700003D01*
X34567351Y19819357D01*
X34513515Y19925018D01*
X34500000Y19981312D01*
X34500000Y21399998D01*
X49013745Y21399998D01*
X49032648Y21280644D01*
X49087511Y21172967D01*
X49172966Y21087512D01*
X49280643Y21032649D01*
X49399998Y21013745D01*
X49400000Y21013745D01*
X49400002Y21013745D01*
X49519356Y21032649D01*
X49519357Y21032650D01*
X49519359Y21032650D01*
X49627035Y21087513D01*
X49639520Y21099998D01*
X51913745Y21099998D01*
X51932648Y20980644D01*
X51987511Y20872967D01*
X52072966Y20787512D01*
X52180643Y20732649D01*
X52299998Y20713745D01*
X52300000Y20713745D01*
X52300002Y20713745D01*
X52419356Y20732649D01*
X52419357Y20732650D01*
X52419359Y20732650D01*
X52527035Y20787513D01*
X52612487Y20872965D01*
X52667350Y20980641D01*
X52667350Y20980643D01*
X52667351Y20980644D01*
X52686255Y21099998D01*
X52686255Y21100003D01*
X52667351Y21219357D01*
X52612488Y21327034D01*
X52527033Y21412489D01*
X52419356Y21467352D01*
X52300002Y21486255D01*
X52299998Y21486255D01*
X52180643Y21467352D01*
X52072966Y21412489D01*
X51987511Y21327034D01*
X51932648Y21219357D01*
X51913745Y21100003D01*
X51913745Y21099998D01*
X49639520Y21099998D01*
X49712487Y21172965D01*
X49767350Y21280641D01*
X49767350Y21280643D01*
X49767351Y21280644D01*
X49786255Y21399998D01*
X49786255Y21400003D01*
X49767351Y21519357D01*
X49712488Y21627034D01*
X49627033Y21712489D01*
X49519356Y21767352D01*
X49400002Y21786255D01*
X49399998Y21786255D01*
X49280643Y21767352D01*
X49172966Y21712489D01*
X49087511Y21627034D01*
X49032648Y21519357D01*
X49013745Y21400003D01*
X49013745Y21399998D01*
X34500000Y21399998D01*
X34500000Y22099998D01*
X52513745Y22099998D01*
X52532648Y21980644D01*
X52587511Y21872967D01*
X52672966Y21787512D01*
X52780643Y21732649D01*
X52899998Y21713745D01*
X52900000Y21713745D01*
X52900002Y21713745D01*
X53019356Y21732649D01*
X53019357Y21732650D01*
X53019359Y21732650D01*
X53127035Y21787513D01*
X53212487Y21872965D01*
X53267350Y21980641D01*
X53267350Y21980643D01*
X53267351Y21980644D01*
X53286255Y22099998D01*
X53286255Y22100003D01*
X53267351Y22219357D01*
X53212488Y22327034D01*
X53127033Y22412489D01*
X53019356Y22467352D01*
X52955108Y22477527D01*
X52901027Y22503164D01*
X52844891Y22477527D01*
X52780643Y22467352D01*
X52672966Y22412489D01*
X52587511Y22327034D01*
X52532648Y22219357D01*
X52513745Y22100003D01*
X52513745Y22099998D01*
X34500000Y22099998D01*
X34500000Y23099998D01*
X52513745Y23099998D01*
X52532648Y22980644D01*
X52587511Y22872967D01*
X52672966Y22787512D01*
X52780643Y22732649D01*
X52844891Y22722473D01*
X52898971Y22696837D01*
X52955108Y22722473D01*
X53019356Y22732649D01*
X53019357Y22732650D01*
X53019359Y22732650D01*
X53127035Y22787513D01*
X53212487Y22872965D01*
X53267350Y22980641D01*
X53267350Y22980643D01*
X53267351Y22980644D01*
X53286255Y23099998D01*
X53286255Y23100003D01*
X53267351Y23219357D01*
X53212488Y23327034D01*
X53127033Y23412489D01*
X53019356Y23467352D01*
X52900002Y23486255D01*
X52899998Y23486255D01*
X52780643Y23467352D01*
X52672966Y23412489D01*
X52587511Y23327034D01*
X52532648Y23219357D01*
X52513745Y23100003D01*
X52513745Y23099998D01*
X34500000Y23099998D01*
X34500000Y24099998D01*
X38613745Y24099998D01*
X38632648Y23980644D01*
X38687511Y23872967D01*
X38772966Y23787512D01*
X38880643Y23732649D01*
X38999998Y23713745D01*
X39000000Y23713745D01*
X39000002Y23713745D01*
X39119356Y23732649D01*
X39119357Y23732650D01*
X39119359Y23732650D01*
X39227035Y23787513D01*
X39312487Y23872965D01*
X39367350Y23980641D01*
X39367350Y23980643D01*
X39367351Y23980644D01*
X39386255Y24099998D01*
X39386255Y24100003D01*
X39367351Y24219357D01*
X39312488Y24327034D01*
X39227033Y24412489D01*
X39157059Y24448142D01*
X39119359Y24467350D01*
X39119357Y24467351D01*
X39119356Y24467351D01*
X39005107Y24485447D01*
X39000774Y24487501D01*
X44067443Y24487501D01*
X44085976Y24358592D01*
X44123625Y24276155D01*
X44140079Y24240126D01*
X44225364Y24141701D01*
X44225366Y24141700D01*
X44225366Y24141699D01*
X44269188Y24113538D01*
X44334924Y24071292D01*
X44436765Y24041388D01*
X44459882Y24034600D01*
X44459883Y24034600D01*
X44590118Y24034600D01*
X44609625Y24040329D01*
X44715076Y24071292D01*
X44824636Y24141701D01*
X44909921Y24240126D01*
X44964023Y24358591D01*
X44982557Y24487500D01*
X44982557Y24487501D01*
X45342443Y24487501D01*
X45360976Y24358592D01*
X45398625Y24276155D01*
X45415079Y24240126D01*
X45500364Y24141701D01*
X45500366Y24141700D01*
X45500366Y24141699D01*
X45544188Y24113538D01*
X45609924Y24071292D01*
X45711765Y24041388D01*
X45734882Y24034600D01*
X45734883Y24034600D01*
X45865118Y24034600D01*
X45884625Y24040329D01*
X45990076Y24071292D01*
X46099636Y24141701D01*
X46184921Y24240126D01*
X46239023Y24358591D01*
X46257557Y24487500D01*
X46617443Y24487500D01*
X46635976Y24358592D01*
X46673625Y24276155D01*
X46690079Y24240126D01*
X46775364Y24141701D01*
X46775366Y24141700D01*
X46775366Y24141699D01*
X46819187Y24113538D01*
X46884924Y24071292D01*
X46986765Y24041388D01*
X47009882Y24034600D01*
X47009883Y24034600D01*
X47140118Y24034600D01*
X47159625Y24040329D01*
X47265076Y24071292D01*
X47374636Y24141701D01*
X47459921Y24240126D01*
X47514023Y24358591D01*
X47532557Y24487500D01*
X47514023Y24616409D01*
X47459921Y24734874D01*
X47374636Y24833299D01*
X47374633Y24833301D01*
X47374633Y24833302D01*
X47308900Y24875545D01*
X47265076Y24903708D01*
X47181770Y24928170D01*
X47140118Y24940400D01*
X47140117Y24940400D01*
X47009883Y24940400D01*
X47009882Y24940400D01*
X46947403Y24922055D01*
X46884924Y24903708D01*
X46884920Y24903706D01*
X46884921Y24903706D01*
X46775366Y24833302D01*
X46775366Y24833301D01*
X46690079Y24734875D01*
X46690078Y24734873D01*
X46635976Y24616409D01*
X46617443Y24487500D01*
X46257557Y24487500D01*
X46239023Y24616409D01*
X46184921Y24734874D01*
X46099636Y24833299D01*
X46099633Y24833301D01*
X46099633Y24833302D01*
X46033899Y24875545D01*
X45990076Y24903708D01*
X45906770Y24928170D01*
X45865118Y24940400D01*
X45865117Y24940400D01*
X45734883Y24940400D01*
X45734882Y24940400D01*
X45672403Y24922055D01*
X45609924Y24903708D01*
X45609920Y24903706D01*
X45609921Y24903706D01*
X45500366Y24833302D01*
X45500366Y24833301D01*
X45415079Y24734875D01*
X45415078Y24734873D01*
X45360976Y24616409D01*
X45342443Y24487501D01*
X44982557Y24487501D01*
X44964023Y24616409D01*
X44909921Y24734874D01*
X44824636Y24833299D01*
X44824633Y24833301D01*
X44824633Y24833302D01*
X44758900Y24875545D01*
X44715076Y24903708D01*
X44631770Y24928170D01*
X44590118Y24940400D01*
X44590117Y24940400D01*
X44459883Y24940400D01*
X44459882Y24940400D01*
X44397403Y24922055D01*
X44334924Y24903708D01*
X44334920Y24903706D01*
X44334921Y24903706D01*
X44225366Y24833302D01*
X44225366Y24833301D01*
X44140079Y24734875D01*
X44140078Y24734873D01*
X44085976Y24616409D01*
X44067443Y24487501D01*
X39000774Y24487501D01*
X38961310Y24506210D01*
X38955349Y24497218D01*
X38894893Y24469608D01*
X38880642Y24467351D01*
X38772966Y24412489D01*
X38687511Y24327034D01*
X38632648Y24219357D01*
X38613745Y24100003D01*
X38613745Y24099998D01*
X34500000Y24099998D01*
X34500000Y24209116D01*
X34519685Y24276155D01*
X34536319Y24296797D01*
X34566557Y24327035D01*
X34612487Y24372965D01*
X34667350Y24480641D01*
X34667350Y24480643D01*
X34667351Y24480644D01*
X34686255Y24599998D01*
X34686255Y24600003D01*
X34667351Y24719357D01*
X34612489Y24827032D01*
X34612488Y24827033D01*
X34612487Y24827035D01*
X34536318Y24903205D01*
X34502834Y24964528D01*
X34500000Y24990885D01*
X34500000Y25099998D01*
X38513745Y25099998D01*
X38532648Y24980644D01*
X38587511Y24872967D01*
X38672966Y24787512D01*
X38780643Y24732649D01*
X38894891Y24714554D01*
X38938688Y24693792D01*
X38944650Y24702783D01*
X39005110Y24730394D01*
X39019359Y24732650D01*
X39127035Y24787513D01*
X39212487Y24872965D01*
X39267350Y24980641D01*
X39267350Y24980643D01*
X39267351Y24980644D01*
X39286255Y25099998D01*
X39286255Y25100003D01*
X39267351Y25219357D01*
X39212488Y25327034D01*
X39127033Y25412489D01*
X39019356Y25467352D01*
X38900002Y25486255D01*
X38899998Y25486255D01*
X38780643Y25467352D01*
X38672966Y25412489D01*
X38587511Y25327034D01*
X38532648Y25219357D01*
X38513745Y25100003D01*
X38513745Y25099998D01*
X34500000Y25099998D01*
X34500000Y25762500D01*
X44067443Y25762500D01*
X44085976Y25633592D01*
X44140078Y25515128D01*
X44140079Y25515126D01*
X44225364Y25416701D01*
X44225366Y25416700D01*
X44225366Y25416699D01*
X44269187Y25388538D01*
X44334924Y25346292D01*
X44436765Y25316388D01*
X44459882Y25309600D01*
X44459883Y25309600D01*
X44590118Y25309600D01*
X44609625Y25315329D01*
X44715076Y25346292D01*
X44824636Y25416701D01*
X44909921Y25515126D01*
X44964023Y25633591D01*
X44982557Y25762500D01*
X45342443Y25762500D01*
X45360976Y25633592D01*
X45415078Y25515128D01*
X45415079Y25515126D01*
X45500364Y25416701D01*
X45500366Y25416700D01*
X45500366Y25416699D01*
X45544188Y25388538D01*
X45609924Y25346292D01*
X45711765Y25316388D01*
X45734882Y25309600D01*
X45734883Y25309600D01*
X45865118Y25309600D01*
X45884625Y25315329D01*
X45990076Y25346292D01*
X46099636Y25416701D01*
X46184921Y25515126D01*
X46239023Y25633591D01*
X46257557Y25762500D01*
X46257557Y25762501D01*
X46617443Y25762501D01*
X46635976Y25633592D01*
X46690078Y25515128D01*
X46690079Y25515126D01*
X46775364Y25416701D01*
X46775366Y25416700D01*
X46775366Y25416699D01*
X46819187Y25388538D01*
X46884924Y25346292D01*
X46986765Y25316388D01*
X47009882Y25309600D01*
X47009883Y25309600D01*
X47140118Y25309600D01*
X47159625Y25315329D01*
X47265076Y25346292D01*
X47374636Y25416701D01*
X47459921Y25515126D01*
X47514023Y25633591D01*
X47532557Y25762500D01*
X47514023Y25891409D01*
X47459921Y26009874D01*
X47374636Y26108299D01*
X47374633Y26108301D01*
X47374633Y26108302D01*
X47308900Y26150545D01*
X47265076Y26178708D01*
X47181770Y26203170D01*
X47140118Y26215400D01*
X47140117Y26215400D01*
X47009883Y26215400D01*
X47009882Y26215400D01*
X46947403Y26197054D01*
X46884924Y26178708D01*
X46884920Y26178706D01*
X46884921Y26178706D01*
X46775366Y26108302D01*
X46775366Y26108301D01*
X46690079Y26009875D01*
X46690078Y26009873D01*
X46635976Y25891409D01*
X46617443Y25762501D01*
X46257557Y25762501D01*
X46239023Y25891409D01*
X46184921Y26009874D01*
X46099636Y26108299D01*
X46099633Y26108301D01*
X46099633Y26108302D01*
X46033899Y26150545D01*
X45990076Y26178708D01*
X45906770Y26203170D01*
X45865118Y26215400D01*
X45865117Y26215400D01*
X45734883Y26215400D01*
X45734882Y26215400D01*
X45672403Y26197054D01*
X45609924Y26178708D01*
X45609920Y26178706D01*
X45609921Y26178706D01*
X45500366Y26108302D01*
X45500366Y26108301D01*
X45415079Y26009875D01*
X45415078Y26009873D01*
X45360976Y25891409D01*
X45342443Y25762500D01*
X44982557Y25762500D01*
X44964023Y25891409D01*
X44909921Y26009874D01*
X44824636Y26108299D01*
X44824633Y26108301D01*
X44824633Y26108302D01*
X44758900Y26150545D01*
X44715076Y26178708D01*
X44631769Y26203170D01*
X44590118Y26215400D01*
X44590117Y26215400D01*
X44459883Y26215400D01*
X44459882Y26215400D01*
X44397403Y26197054D01*
X44334924Y26178708D01*
X44334920Y26178706D01*
X44334921Y26178706D01*
X44225366Y26108302D01*
X44225366Y26108301D01*
X44140079Y26009875D01*
X44140078Y26009873D01*
X44085976Y25891409D01*
X44067443Y25762500D01*
X34500000Y25762500D01*
X34500000Y26299998D01*
X39413745Y26299998D01*
X39432648Y26180644D01*
X39487511Y26072967D01*
X39572966Y25987512D01*
X39680643Y25932649D01*
X39799998Y25913745D01*
X39800000Y25913745D01*
X39800002Y25913745D01*
X39919356Y25932649D01*
X39919357Y25932650D01*
X39919359Y25932650D01*
X40027035Y25987513D01*
X40112487Y26072965D01*
X40167350Y26180641D01*
X40167350Y26180643D01*
X40167351Y26180644D01*
X40186255Y26299998D01*
X40186255Y26300003D01*
X40167351Y26419357D01*
X40126263Y26499998D01*
X53813745Y26499998D01*
X53832648Y26380644D01*
X53887511Y26272967D01*
X53972966Y26187512D01*
X54080643Y26132649D01*
X54199998Y26113745D01*
X54200000Y26113745D01*
X54200002Y26113745D01*
X54319356Y26132649D01*
X54319357Y26132650D01*
X54319359Y26132650D01*
X54427035Y26187513D01*
X54512487Y26272965D01*
X54567350Y26380641D01*
X54567350Y26380643D01*
X54567351Y26380644D01*
X54586255Y26499998D01*
X54586255Y26500003D01*
X54567351Y26619357D01*
X54512489Y26727032D01*
X54512434Y26727108D01*
X54512395Y26727217D01*
X54508057Y26735731D01*
X54509156Y26736292D01*
X54488950Y26792913D01*
X54504770Y26860968D01*
X54512434Y26872892D01*
X54512484Y26872962D01*
X54512487Y26872965D01*
X54567350Y26980641D01*
X54567350Y26980643D01*
X54567351Y26980644D01*
X54586255Y27099998D01*
X54586255Y27100003D01*
X54567351Y27219357D01*
X54512488Y27327034D01*
X54427033Y27412489D01*
X54319356Y27467352D01*
X54255108Y27477527D01*
X54201027Y27503164D01*
X54144891Y27477527D01*
X54080643Y27467352D01*
X53972966Y27412489D01*
X53887511Y27327034D01*
X53832648Y27219357D01*
X53813745Y27100003D01*
X53813745Y27099998D01*
X53832648Y26980644D01*
X53887512Y26872965D01*
X53887571Y26872884D01*
X53887611Y26872770D01*
X53891943Y26864269D01*
X53890844Y26863710D01*
X53911050Y26807077D01*
X53895224Y26739024D01*
X53887571Y26727116D01*
X53887512Y26727036D01*
X53832648Y26619357D01*
X53813745Y26500003D01*
X53813745Y26499998D01*
X40126263Y26499998D01*
X40112488Y26527034D01*
X40027033Y26612489D01*
X39919356Y26667352D01*
X39800002Y26686255D01*
X39799998Y26686255D01*
X39680643Y26667352D01*
X39572966Y26612489D01*
X39487511Y26527034D01*
X39432648Y26419357D01*
X39413745Y26300003D01*
X39413745Y26299998D01*
X34500000Y26299998D01*
X34500000Y27199998D01*
X37113745Y27199998D01*
X37132648Y27080644D01*
X37187511Y26972967D01*
X37272966Y26887512D01*
X37380643Y26832649D01*
X37499998Y26813745D01*
X37500000Y26813745D01*
X37500002Y26813745D01*
X37619356Y26832649D01*
X37619357Y26832650D01*
X37619359Y26832650D01*
X37727035Y26887513D01*
X37812487Y26972965D01*
X37845369Y27037501D01*
X44067443Y27037501D01*
X44085976Y26908592D01*
X44135570Y26800000D01*
X44140079Y26790126D01*
X44225364Y26691701D01*
X44225366Y26691700D01*
X44225366Y26691699D01*
X44263252Y26667352D01*
X44334924Y26621292D01*
X44436765Y26591388D01*
X44459882Y26584600D01*
X44459883Y26584600D01*
X44590118Y26584600D01*
X44609625Y26590329D01*
X44715076Y26621292D01*
X44824636Y26691701D01*
X44909921Y26790126D01*
X44964023Y26908591D01*
X44982557Y27037500D01*
X44982557Y27037501D01*
X45342443Y27037501D01*
X45360976Y26908592D01*
X45410570Y26800000D01*
X45415079Y26790126D01*
X45500364Y26691701D01*
X45500366Y26691700D01*
X45500366Y26691699D01*
X45538252Y26667352D01*
X45609924Y26621292D01*
X45711765Y26591388D01*
X45734882Y26584600D01*
X45734883Y26584600D01*
X45865118Y26584600D01*
X45884625Y26590329D01*
X45990076Y26621292D01*
X46099636Y26691701D01*
X46184921Y26790126D01*
X46239023Y26908591D01*
X46257557Y27037500D01*
X46617443Y27037500D01*
X46635976Y26908592D01*
X46685570Y26800000D01*
X46690079Y26790126D01*
X46775364Y26691701D01*
X46775366Y26691700D01*
X46775366Y26691699D01*
X46813252Y26667352D01*
X46884924Y26621292D01*
X46986765Y26591388D01*
X47009882Y26584600D01*
X47009883Y26584600D01*
X47140118Y26584600D01*
X47159625Y26590329D01*
X47265076Y26621292D01*
X47374636Y26691701D01*
X47459921Y26790126D01*
X47514023Y26908591D01*
X47532557Y27037500D01*
X47514023Y27166409D01*
X47459921Y27284874D01*
X47374636Y27383299D01*
X47374633Y27383301D01*
X47374633Y27383302D01*
X47306582Y27427034D01*
X47265076Y27453708D01*
X47181770Y27478170D01*
X47140118Y27490400D01*
X47140117Y27490400D01*
X47009883Y27490400D01*
X47009882Y27490400D01*
X46966042Y27477527D01*
X46884924Y27453708D01*
X46884920Y27453706D01*
X46884921Y27453706D01*
X46775366Y27383302D01*
X46775366Y27383301D01*
X46690079Y27284875D01*
X46690078Y27284873D01*
X46635976Y27166409D01*
X46617443Y27037500D01*
X46257557Y27037500D01*
X46239023Y27166409D01*
X46184921Y27284874D01*
X46099636Y27383299D01*
X46099633Y27383301D01*
X46099633Y27383302D01*
X46031582Y27427034D01*
X45990076Y27453708D01*
X45906769Y27478170D01*
X45865118Y27490400D01*
X45865117Y27490400D01*
X45734883Y27490400D01*
X45734882Y27490400D01*
X45691042Y27477527D01*
X45609924Y27453708D01*
X45609920Y27453706D01*
X45609921Y27453706D01*
X45500366Y27383302D01*
X45500366Y27383301D01*
X45415079Y27284875D01*
X45415078Y27284873D01*
X45360976Y27166409D01*
X45342443Y27037501D01*
X44982557Y27037501D01*
X44964023Y27166409D01*
X44909921Y27284874D01*
X44824636Y27383299D01*
X44824633Y27383301D01*
X44824633Y27383302D01*
X44756582Y27427034D01*
X44715076Y27453708D01*
X44631769Y27478170D01*
X44590118Y27490400D01*
X44590117Y27490400D01*
X44459883Y27490400D01*
X44459882Y27490400D01*
X44416042Y27477527D01*
X44334924Y27453708D01*
X44334920Y27453706D01*
X44334921Y27453706D01*
X44225366Y27383302D01*
X44225366Y27383301D01*
X44140079Y27284875D01*
X44140078Y27284873D01*
X44085976Y27166409D01*
X44067443Y27037501D01*
X37845369Y27037501D01*
X37867350Y27080641D01*
X37867350Y27080643D01*
X37867351Y27080644D01*
X37886255Y27199998D01*
X37886255Y27200003D01*
X37867351Y27319357D01*
X37812488Y27427034D01*
X37727033Y27512489D01*
X37619356Y27567352D01*
X37500002Y27586255D01*
X37499998Y27586255D01*
X37380643Y27567352D01*
X37272966Y27512489D01*
X37187511Y27427034D01*
X37132648Y27319357D01*
X37113745Y27200003D01*
X37113745Y27199998D01*
X34500000Y27199998D01*
X34500000Y28099998D01*
X53813745Y28099998D01*
X53832648Y27980644D01*
X53887511Y27872967D01*
X53972966Y27787512D01*
X54080643Y27732649D01*
X54144891Y27722473D01*
X54198971Y27696837D01*
X54255108Y27722473D01*
X54319356Y27732649D01*
X54319357Y27732650D01*
X54319359Y27732650D01*
X54427035Y27787513D01*
X54512487Y27872965D01*
X54567350Y27980641D01*
X54567350Y27980643D01*
X54567351Y27980644D01*
X54586255Y28099998D01*
X54586255Y28100003D01*
X54567351Y28219357D01*
X54512488Y28327034D01*
X54427033Y28412489D01*
X54319356Y28467352D01*
X54200002Y28486255D01*
X54199998Y28486255D01*
X54080643Y28467352D01*
X53972966Y28412489D01*
X53887511Y28327034D01*
X53832648Y28219357D01*
X53813745Y28100003D01*
X53813745Y28099998D01*
X34500000Y28099998D01*
X34500000Y29999998D01*
X39113745Y29999998D01*
X39132648Y29880644D01*
X39187511Y29772967D01*
X39272966Y29687512D01*
X39380643Y29632649D01*
X39499998Y29613745D01*
X39500000Y29613745D01*
X39500002Y29613745D01*
X39619356Y29632649D01*
X39619357Y29632650D01*
X39619359Y29632650D01*
X39727035Y29687513D01*
X39812487Y29772965D01*
X39867350Y29880641D01*
X39867350Y29880643D01*
X39867351Y29880644D01*
X39886255Y29999998D01*
X39886255Y30000003D01*
X39867351Y30119357D01*
X39812488Y30227034D01*
X39739524Y30299998D01*
X42113745Y30299998D01*
X42132648Y30180644D01*
X42187511Y30072967D01*
X42272966Y29987512D01*
X42380643Y29932649D01*
X42499998Y29913745D01*
X42500000Y29913745D01*
X42500002Y29913745D01*
X42619356Y29932649D01*
X42619357Y29932650D01*
X42619359Y29932650D01*
X42727035Y29987513D01*
X42812487Y30072965D01*
X42867350Y30180641D01*
X42867350Y30180643D01*
X42867351Y30180644D01*
X42886255Y30299998D01*
X45513745Y30299998D01*
X45532648Y30180644D01*
X45587511Y30072967D01*
X45672966Y29987512D01*
X45780643Y29932649D01*
X45899998Y29913745D01*
X45900000Y29913745D01*
X45900002Y29913745D01*
X46019356Y29932649D01*
X46019357Y29932650D01*
X46019359Y29932650D01*
X46127035Y29987513D01*
X46212487Y30072965D01*
X46267350Y30180641D01*
X46267350Y30180643D01*
X46267351Y30180644D01*
X46286255Y30299998D01*
X46286255Y30300003D01*
X46267351Y30419357D01*
X46212488Y30527034D01*
X46127033Y30612489D01*
X46019356Y30667352D01*
X45900002Y30686255D01*
X45899998Y30686255D01*
X45780643Y30667352D01*
X45672966Y30612489D01*
X45587511Y30527034D01*
X45532648Y30419357D01*
X45513745Y30300003D01*
X45513745Y30299998D01*
X42886255Y30299998D01*
X42886255Y30300003D01*
X42867351Y30419357D01*
X42812488Y30527034D01*
X42727033Y30612489D01*
X42619356Y30667352D01*
X42500002Y30686255D01*
X42499998Y30686255D01*
X42380643Y30667352D01*
X42272966Y30612489D01*
X42187511Y30527034D01*
X42132648Y30419357D01*
X42113745Y30300003D01*
X42113745Y30299998D01*
X39739524Y30299998D01*
X39727033Y30312489D01*
X39619356Y30367352D01*
X39500002Y30386255D01*
X39499998Y30386255D01*
X39380643Y30367352D01*
X39272966Y30312489D01*
X39187511Y30227034D01*
X39132648Y30119357D01*
X39113745Y30000003D01*
X39113745Y29999998D01*
X34500000Y29999998D01*
X34500000Y30899998D01*
X35413745Y30899998D01*
X35432648Y30780644D01*
X35487511Y30672967D01*
X35572966Y30587512D01*
X35680643Y30532649D01*
X35799998Y30513745D01*
X35800000Y30513745D01*
X35800002Y30513745D01*
X35919356Y30532649D01*
X35919357Y30532650D01*
X35919359Y30532650D01*
X36027035Y30587513D01*
X36112487Y30672965D01*
X36167350Y30780641D01*
X36167350Y30780643D01*
X36167351Y30780644D01*
X36186255Y30899998D01*
X36186255Y30900003D01*
X36167351Y31019357D01*
X36112488Y31127034D01*
X36027033Y31212489D01*
X35919356Y31267352D01*
X35800002Y31286255D01*
X35799998Y31286255D01*
X35680643Y31267352D01*
X35572966Y31212489D01*
X35487511Y31127034D01*
X35432648Y31019357D01*
X35413745Y30900003D01*
X35413745Y30899998D01*
X34500000Y30899998D01*
X34500000Y31299998D01*
X38113745Y31299998D01*
X38132648Y31180644D01*
X38187511Y31072967D01*
X38272966Y30987512D01*
X38380643Y30932649D01*
X38499998Y30913745D01*
X38500000Y30913745D01*
X38500002Y30913745D01*
X38619356Y30932649D01*
X38619357Y30932650D01*
X38619359Y30932650D01*
X38727035Y30987513D01*
X38812487Y31072965D01*
X38867350Y31180641D01*
X38867350Y31180643D01*
X38867351Y31180644D01*
X38886255Y31299998D01*
X38886255Y31300003D01*
X38867351Y31419357D01*
X38812488Y31527034D01*
X38727033Y31612489D01*
X38619356Y31667352D01*
X38500002Y31686255D01*
X38499998Y31686255D01*
X38380643Y31667352D01*
X38272966Y31612489D01*
X38187511Y31527034D01*
X38132648Y31419357D01*
X38113745Y31300003D01*
X38113745Y31299998D01*
X34500000Y31299998D01*
X34500000Y32299998D01*
X41613745Y32299998D01*
X41632648Y32180644D01*
X41687511Y32072967D01*
X41772966Y31987512D01*
X41880643Y31932649D01*
X41999998Y31913745D01*
X42000000Y31913745D01*
X42000002Y31913745D01*
X42119356Y31932649D01*
X42119357Y31932650D01*
X42119359Y31932650D01*
X42227035Y31987513D01*
X42312487Y32072965D01*
X42367350Y32180641D01*
X42367350Y32180643D01*
X42367351Y32180644D01*
X42386255Y32299998D01*
X42386255Y32300003D01*
X42367351Y32419357D01*
X42312488Y32527034D01*
X42239524Y32599998D01*
X48113745Y32599998D01*
X48132648Y32480644D01*
X48187511Y32372967D01*
X48272966Y32287512D01*
X48380643Y32232649D01*
X48499998Y32213745D01*
X48500000Y32213745D01*
X48500002Y32213745D01*
X48619356Y32232649D01*
X48619357Y32232650D01*
X48619359Y32232650D01*
X48727035Y32287513D01*
X48812487Y32372965D01*
X48867350Y32480641D01*
X48867350Y32480643D01*
X48867351Y32480644D01*
X48886255Y32599998D01*
X50513745Y32599998D01*
X50532648Y32480644D01*
X50587511Y32372967D01*
X50672966Y32287512D01*
X50780643Y32232649D01*
X50899998Y32213745D01*
X50900000Y32213745D01*
X50900002Y32213745D01*
X51019356Y32232649D01*
X51019357Y32232650D01*
X51019359Y32232650D01*
X51127035Y32287513D01*
X51212487Y32372965D01*
X51267350Y32480641D01*
X51267350Y32480643D01*
X51267351Y32480644D01*
X51286255Y32599998D01*
X51286255Y32600003D01*
X51267351Y32719357D01*
X51212488Y32827034D01*
X51127033Y32912489D01*
X51019356Y32967352D01*
X50900002Y32986255D01*
X50899998Y32986255D01*
X50780643Y32967352D01*
X50672966Y32912489D01*
X50587511Y32827034D01*
X50532648Y32719357D01*
X50513745Y32600003D01*
X50513745Y32599998D01*
X48886255Y32599998D01*
X48886255Y32600003D01*
X48867351Y32719357D01*
X48812488Y32827034D01*
X48727033Y32912489D01*
X48619356Y32967352D01*
X48500002Y32986255D01*
X48499998Y32986255D01*
X48380643Y32967352D01*
X48272966Y32912489D01*
X48187511Y32827034D01*
X48132648Y32719357D01*
X48113745Y32600003D01*
X48113745Y32599998D01*
X42239524Y32599998D01*
X42227033Y32612489D01*
X42119356Y32667352D01*
X42000002Y32686255D01*
X41999998Y32686255D01*
X41880643Y32667352D01*
X41772966Y32612489D01*
X41687511Y32527034D01*
X41632648Y32419357D01*
X41613745Y32300003D01*
X41613745Y32299998D01*
X34500000Y32299998D01*
X34500000Y37534946D01*
X48497100Y37534946D01*
X48505972Y37490342D01*
X48505973Y37490339D01*
X48520260Y37468958D01*
X48539766Y37439766D01*
X48590342Y37405972D01*
X48590343Y37405972D01*
X48590345Y37405971D01*
X48612642Y37401536D01*
X48634943Y37397100D01*
X50365056Y37397101D01*
X50409658Y37405972D01*
X50460234Y37439766D01*
X50494028Y37490342D01*
X50502900Y37534943D01*
X50502899Y38400000D01*
X51032247Y38400000D01*
X51051610Y38203401D01*
X51051610Y38203399D01*
X51051611Y38203397D01*
X51108958Y38014350D01*
X51202084Y37840122D01*
X51202086Y37840119D01*
X51327410Y37687411D01*
X51480118Y37562087D01*
X51480122Y37562084D01*
X51654350Y37468958D01*
X51843397Y37411611D01*
X52040000Y37392247D01*
X52236603Y37411611D01*
X52425650Y37468958D01*
X52599878Y37562084D01*
X52752589Y37687411D01*
X52877916Y37840122D01*
X52971042Y38014350D01*
X53028389Y38203397D01*
X53047753Y38400000D01*
X53572247Y38400000D01*
X53591610Y38203401D01*
X53591610Y38203399D01*
X53591611Y38203397D01*
X53648958Y38014350D01*
X53742084Y37840122D01*
X53742086Y37840119D01*
X53867410Y37687411D01*
X54020118Y37562087D01*
X54020122Y37562084D01*
X54194350Y37468958D01*
X54383397Y37411611D01*
X54580000Y37392247D01*
X54776603Y37411611D01*
X54965650Y37468958D01*
X55139878Y37562084D01*
X55292589Y37687411D01*
X55417916Y37840122D01*
X55511042Y38014350D01*
X55568389Y38203397D01*
X55587753Y38400000D01*
X55568389Y38596603D01*
X55511042Y38785650D01*
X55417916Y38959878D01*
X55417913Y38959882D01*
X55292589Y39112590D01*
X55139881Y39237914D01*
X55139879Y39237915D01*
X55139878Y39237916D01*
X54965650Y39331042D01*
X54776603Y39388389D01*
X54776601Y39388390D01*
X54776599Y39388390D01*
X54580000Y39407753D01*
X54383400Y39388390D01*
X54194350Y39331042D01*
X54020118Y39237914D01*
X53867410Y39112590D01*
X53742086Y38959882D01*
X53648958Y38785650D01*
X53591610Y38596600D01*
X53572247Y38400000D01*
X53047753Y38400000D01*
X53028389Y38596603D01*
X52971042Y38785650D01*
X52877916Y38959878D01*
X52877913Y38959882D01*
X52752589Y39112590D01*
X52599881Y39237914D01*
X52599879Y39237915D01*
X52599878Y39237916D01*
X52425650Y39331042D01*
X52236603Y39388389D01*
X52236601Y39388390D01*
X52236599Y39388390D01*
X52040000Y39407753D01*
X51843400Y39388390D01*
X51654350Y39331042D01*
X51480118Y39237914D01*
X51327410Y39112590D01*
X51202086Y38959882D01*
X51108958Y38785650D01*
X51051610Y38596600D01*
X51032247Y38400000D01*
X50502899Y38400000D01*
X50502899Y39265056D01*
X50494028Y39309658D01*
X50494026Y39309660D01*
X50494026Y39309662D01*
X50460234Y39360234D01*
X50418097Y39388389D01*
X50409658Y39394028D01*
X50409657Y39394029D01*
X50409656Y39394029D01*
X50409654Y39394030D01*
X50365059Y39402900D01*
X48634945Y39402900D01*
X48590341Y39394028D01*
X48590338Y39394027D01*
X48539766Y39360235D01*
X48505971Y39309657D01*
X48505970Y39309655D01*
X48497100Y39265060D01*
X48497100Y37534946D01*
X34500000Y37534946D01*
X34500000Y49494500D01*
X34519685Y49561539D01*
X34572489Y49607294D01*
X34624000Y49618500D01*
X56276000Y49618500D01*
X56343039Y49598815D01*
G37*
%TD.AperFunction*%
%TD*%
%TA.AperFunction,Conductor*%
%TO.N,+2V5*%
G36*
X34043039Y49598815D02*
G01*
X34088794Y49546011D01*
X34100000Y49494500D01*
X34100000Y24990885D01*
X34080315Y24923846D01*
X34063682Y24903204D01*
X33987510Y24827032D01*
X33932648Y24719357D01*
X33913745Y24600003D01*
X33913745Y24599998D01*
X33932648Y24480644D01*
X33987511Y24372967D01*
X34063681Y24296797D01*
X34097166Y24235474D01*
X34100000Y24209116D01*
X34100000Y20153202D01*
X34080315Y20086163D01*
X34032294Y20042717D01*
X33972966Y20012489D01*
X33887511Y19927034D01*
X33832648Y19819357D01*
X33813745Y19700003D01*
X33813745Y19699998D01*
X33832648Y19580644D01*
X33887511Y19472967D01*
X33972966Y19387512D01*
X34032294Y19357283D01*
X34083090Y19309309D01*
X34100000Y19246798D01*
X34100000Y4224000D01*
X34080315Y4156961D01*
X34027511Y4111206D01*
X33976000Y4100000D01*
X29466088Y4100000D01*
X29399049Y4119685D01*
X29353294Y4172489D01*
X29343350Y4241647D01*
X29355602Y4280293D01*
X29360657Y4290216D01*
X29395700Y4358991D01*
X29414075Y4475000D01*
X29414605Y4478348D01*
X29414605Y4478353D01*
X29395701Y4597707D01*
X29340839Y4705382D01*
X29340838Y4705383D01*
X29340837Y4705385D01*
X29255385Y4790837D01*
X29251115Y4793939D01*
X29208449Y4849269D01*
X29200000Y4894258D01*
X29200000Y8323294D01*
X29219685Y8390333D01*
X29272489Y8436088D01*
X29341647Y8446032D01*
X29380292Y8433780D01*
X29465562Y8390333D01*
X29480643Y8382649D01*
X29599998Y8363745D01*
X29600000Y8363745D01*
X29600002Y8363745D01*
X29719356Y8382649D01*
X29719357Y8382650D01*
X29719359Y8382650D01*
X29827035Y8437513D01*
X29912487Y8522965D01*
X29967350Y8630641D01*
X29967350Y8630643D01*
X29967351Y8630644D01*
X29986255Y8749998D01*
X29986255Y8750003D01*
X29967351Y8869357D01*
X29912488Y8977034D01*
X29827033Y9062489D01*
X29719356Y9117352D01*
X29600002Y9136255D01*
X29599998Y9136255D01*
X29480642Y9117351D01*
X29480641Y9117351D01*
X29380293Y9066222D01*
X29311624Y9053326D01*
X29246884Y9079603D01*
X29206628Y9136710D01*
X29200000Y9176707D01*
X29200000Y14499998D01*
X31713745Y14499998D01*
X31732648Y14380644D01*
X31787511Y14272967D01*
X31872966Y14187512D01*
X31980643Y14132649D01*
X32099998Y14113745D01*
X32100000Y14113745D01*
X32100002Y14113745D01*
X32219356Y14132649D01*
X32219357Y14132650D01*
X32219359Y14132650D01*
X32327035Y14187513D01*
X32412487Y14272965D01*
X32467350Y14380641D01*
X32467350Y14380643D01*
X32467351Y14380644D01*
X32486255Y14499998D01*
X32486255Y14500003D01*
X32467351Y14619357D01*
X32412488Y14727034D01*
X32327033Y14812489D01*
X32219356Y14867352D01*
X32100002Y14886255D01*
X32099998Y14886255D01*
X31980643Y14867352D01*
X31872966Y14812489D01*
X31787511Y14727034D01*
X31732648Y14619357D01*
X31713745Y14500003D01*
X31713745Y14499998D01*
X29200000Y14499998D01*
X29200000Y25200000D01*
X29077387Y25200000D01*
X29010348Y25219685D01*
X28964593Y25272489D01*
X28954649Y25341647D01*
X28983674Y25405203D01*
X29021095Y25434486D01*
X29027033Y25437512D01*
X29027032Y25437512D01*
X29027035Y25437513D01*
X29112487Y25522965D01*
X29167350Y25630641D01*
X29167350Y25630643D01*
X29167351Y25630644D01*
X29186255Y25749998D01*
X29186255Y25750003D01*
X29167351Y25869357D01*
X29112488Y25977034D01*
X29027033Y26062489D01*
X28919356Y26117352D01*
X28800002Y26136255D01*
X28799998Y26136255D01*
X28680643Y26117352D01*
X28572966Y26062489D01*
X28487511Y25977034D01*
X28432648Y25869357D01*
X28413744Y25750003D01*
X28413744Y25749998D01*
X28432648Y25630644D01*
X28487511Y25522967D01*
X28572966Y25437512D01*
X28578905Y25434486D01*
X28629702Y25386513D01*
X28646499Y25318692D01*
X28623963Y25252557D01*
X28569249Y25209104D01*
X28522613Y25200000D01*
X18724000Y25200000D01*
X18656961Y25219685D01*
X18611206Y25272489D01*
X18600000Y25324000D01*
X18600000Y27099998D01*
X27713744Y27099998D01*
X27732648Y26980644D01*
X27787511Y26872967D01*
X27872966Y26787512D01*
X27980643Y26732649D01*
X28099998Y26713745D01*
X28100000Y26713745D01*
X28100002Y26713745D01*
X28219356Y26732649D01*
X28219357Y26732650D01*
X28219359Y26732650D01*
X28327035Y26787513D01*
X28412487Y26872965D01*
X28467350Y26980641D01*
X28467350Y26980643D01*
X28467351Y26980644D01*
X28486255Y27099998D01*
X28486255Y27100003D01*
X28470417Y27199998D01*
X31713745Y27199998D01*
X31732648Y27080644D01*
X31787511Y26972967D01*
X31872966Y26887512D01*
X31980643Y26832649D01*
X32099998Y26813745D01*
X32100000Y26813745D01*
X32100002Y26813745D01*
X32219356Y26832649D01*
X32219357Y26832650D01*
X32219359Y26832650D01*
X32327035Y26887513D01*
X32412487Y26972965D01*
X32467350Y27080641D01*
X32467350Y27080643D01*
X32467351Y27080644D01*
X32486255Y27199998D01*
X32486255Y27200003D01*
X32467351Y27319357D01*
X32412488Y27427034D01*
X32327033Y27512489D01*
X32219356Y27567352D01*
X32100002Y27586255D01*
X32099998Y27586255D01*
X31980643Y27567352D01*
X31872966Y27512489D01*
X31787511Y27427034D01*
X31732648Y27319357D01*
X31713745Y27200003D01*
X31713745Y27199998D01*
X28470417Y27199998D01*
X28467351Y27219357D01*
X28412488Y27327034D01*
X28327033Y27412489D01*
X28219356Y27467352D01*
X28100002Y27486255D01*
X28099998Y27486255D01*
X27980643Y27467352D01*
X27872966Y27412489D01*
X27787511Y27327034D01*
X27732648Y27219357D01*
X27713744Y27100003D01*
X27713744Y27099998D01*
X18600000Y27099998D01*
X18600000Y27500000D01*
X11013298Y27500000D01*
X10946259Y27519685D01*
X10900504Y27572489D01*
X10890560Y27641647D01*
X10900916Y27676404D01*
X10972199Y27829274D01*
X10972202Y27829280D01*
X11031207Y28049490D01*
X11046562Y28224998D01*
X22513744Y28224998D01*
X22532648Y28105644D01*
X22587511Y27997967D01*
X22672966Y27912512D01*
X22780643Y27857649D01*
X22899998Y27838745D01*
X22900000Y27838745D01*
X22900002Y27838745D01*
X23019356Y27857649D01*
X23019357Y27857650D01*
X23019359Y27857650D01*
X23127035Y27912513D01*
X23212487Y27997965D01*
X23264475Y28099998D01*
X23688744Y28099998D01*
X23707648Y27980644D01*
X23762511Y27872967D01*
X23847966Y27787512D01*
X23955643Y27732649D01*
X24074998Y27713745D01*
X24075000Y27713745D01*
X24075002Y27713745D01*
X24194356Y27732649D01*
X24194357Y27732650D01*
X24194359Y27732650D01*
X24302035Y27787513D01*
X24387487Y27872965D01*
X24442350Y27980641D01*
X24442350Y27980643D01*
X24442351Y27980644D01*
X24461255Y28099998D01*
X24461255Y28100003D01*
X24442351Y28219357D01*
X24387488Y28327034D01*
X24302033Y28412489D01*
X24194356Y28467352D01*
X24075002Y28486255D01*
X24074998Y28486255D01*
X23955643Y28467352D01*
X23847966Y28412489D01*
X23762511Y28327034D01*
X23707648Y28219357D01*
X23688744Y28100003D01*
X23688744Y28099998D01*
X23264475Y28099998D01*
X23267350Y28105641D01*
X23267350Y28105643D01*
X23267351Y28105644D01*
X23286255Y28224998D01*
X23286255Y28225003D01*
X23267351Y28344357D01*
X23212488Y28452034D01*
X23127033Y28537489D01*
X23019356Y28592352D01*
X22900002Y28611255D01*
X22899998Y28611255D01*
X22780643Y28592352D01*
X22672966Y28537489D01*
X22587511Y28452034D01*
X22532648Y28344357D01*
X22513744Y28225003D01*
X22513744Y28224998D01*
X11046562Y28224998D01*
X11051077Y28276600D01*
X11031207Y28503710D01*
X10978612Y28699998D01*
X16513744Y28699998D01*
X16532648Y28580644D01*
X16587511Y28472967D01*
X16672966Y28387512D01*
X16780643Y28332649D01*
X16899998Y28313745D01*
X16900000Y28313745D01*
X16900002Y28313745D01*
X17019356Y28332649D01*
X17019357Y28332650D01*
X17019359Y28332650D01*
X17127035Y28387513D01*
X17212487Y28472965D01*
X17267350Y28580641D01*
X17267350Y28580643D01*
X17267351Y28580644D01*
X17286255Y28699998D01*
X17286255Y28700003D01*
X17267351Y28819357D01*
X17212488Y28927034D01*
X17127033Y29012489D01*
X17019356Y29067352D01*
X16900002Y29086255D01*
X16899998Y29086255D01*
X16780643Y29067352D01*
X16672966Y29012489D01*
X16587511Y28927034D01*
X16532648Y28819357D01*
X16513744Y28700003D01*
X16513744Y28699998D01*
X10978612Y28699998D01*
X10972202Y28723920D01*
X10875855Y28930538D01*
X10875853Y28930541D01*
X10875852Y28930543D01*
X10745095Y29117283D01*
X10745090Y29117289D01*
X10583887Y29278492D01*
X10583881Y29278496D01*
X10397139Y29409255D01*
X10397135Y29409257D01*
X10190526Y29505600D01*
X10190512Y29505605D01*
X9970315Y29564606D01*
X9970305Y29564608D01*
X9743201Y29584477D01*
X9743199Y29584477D01*
X9516094Y29564608D01*
X9516084Y29564606D01*
X9295887Y29505605D01*
X9295873Y29505600D01*
X9089265Y29409257D01*
X9089257Y29409253D01*
X8902517Y29278496D01*
X8902511Y29278491D01*
X8741309Y29117289D01*
X8741304Y29117283D01*
X8610547Y28930543D01*
X8610543Y28930535D01*
X8514200Y28723927D01*
X8514195Y28723913D01*
X8455194Y28503716D01*
X8455192Y28503706D01*
X8435323Y28276601D01*
X8435323Y28276600D01*
X8455192Y28049495D01*
X8455194Y28049485D01*
X8514195Y27829288D01*
X8514200Y27829274D01*
X8585484Y27676404D01*
X8595976Y27607327D01*
X8567456Y27543543D01*
X8508979Y27505304D01*
X8473102Y27500000D01*
X4580098Y27500000D01*
X4513059Y27519685D01*
X4467304Y27572489D01*
X4457360Y27641647D01*
X4467716Y27676404D01*
X4538999Y27829274D01*
X4539002Y27829280D01*
X4598007Y28049490D01*
X4617877Y28276600D01*
X4598007Y28503710D01*
X4539002Y28723920D01*
X4442655Y28930538D01*
X4442653Y28930541D01*
X4442652Y28930543D01*
X4311895Y29117283D01*
X4311890Y29117289D01*
X4150687Y29278492D01*
X4150681Y29278496D01*
X3963939Y29409255D01*
X3963935Y29409257D01*
X3757326Y29505600D01*
X3757312Y29505605D01*
X3537115Y29564606D01*
X3537105Y29564608D01*
X3310001Y29584477D01*
X3309999Y29584477D01*
X3082894Y29564608D01*
X3082884Y29564606D01*
X2862687Y29505605D01*
X2862673Y29505600D01*
X2656065Y29409257D01*
X2656057Y29409253D01*
X2469317Y29278496D01*
X2469311Y29278491D01*
X2308109Y29117289D01*
X2308104Y29117283D01*
X2177347Y28930543D01*
X2177343Y28930535D01*
X2081000Y28723927D01*
X2080995Y28723913D01*
X2021994Y28503716D01*
X2021992Y28503706D01*
X2002123Y28276601D01*
X2002123Y28276600D01*
X2021992Y28049495D01*
X2021994Y28049485D01*
X2080995Y27829288D01*
X2081000Y27829274D01*
X2126057Y27732649D01*
X2177345Y27622661D01*
X2308108Y27435913D01*
X2469313Y27274708D01*
X2656061Y27143945D01*
X2862680Y27047598D01*
X2862687Y27047597D01*
X2862690Y27047595D01*
X2908092Y27035430D01*
X2967753Y26999066D01*
X2998283Y26936219D01*
X3000000Y26915655D01*
X3000000Y25324000D01*
X2980315Y25256961D01*
X2927511Y25211206D01*
X2876000Y25200000D01*
X505500Y25200000D01*
X438461Y25219685D01*
X392706Y25272489D01*
X381500Y25324000D01*
X381500Y30499998D01*
X25513744Y30499998D01*
X25532648Y30380644D01*
X25587511Y30272967D01*
X25672966Y30187512D01*
X25780643Y30132649D01*
X25899998Y30113745D01*
X25900000Y30113745D01*
X25900002Y30113745D01*
X26019356Y30132649D01*
X26019357Y30132650D01*
X26019359Y30132650D01*
X26127035Y30187513D01*
X26212487Y30272965D01*
X26267350Y30380641D01*
X26267350Y30380643D01*
X26267351Y30380644D01*
X26286255Y30499998D01*
X26286255Y30500003D01*
X26267351Y30619357D01*
X26212488Y30727034D01*
X26127033Y30812489D01*
X26019356Y30867352D01*
X25900002Y30886255D01*
X25899998Y30886255D01*
X25780643Y30867352D01*
X25672966Y30812489D01*
X25587511Y30727034D01*
X25532648Y30619357D01*
X25513744Y30500003D01*
X25513744Y30499998D01*
X381500Y30499998D01*
X381500Y31399998D01*
X28911244Y31399998D01*
X28930148Y31280644D01*
X28985011Y31172967D01*
X29070466Y31087512D01*
X29178143Y31032649D01*
X29297498Y31013745D01*
X29297500Y31013745D01*
X29297502Y31013745D01*
X29416856Y31032649D01*
X29416857Y31032650D01*
X29416859Y31032650D01*
X29524535Y31087513D01*
X29609987Y31172965D01*
X29664850Y31280641D01*
X29664850Y31280643D01*
X29664851Y31280644D01*
X29683755Y31399998D01*
X29683755Y31400003D01*
X29664851Y31519357D01*
X29609988Y31627034D01*
X29524533Y31712489D01*
X29416856Y31767352D01*
X29297502Y31786255D01*
X29297498Y31786255D01*
X29178143Y31767352D01*
X29070466Y31712489D01*
X28985011Y31627034D01*
X28930148Y31519357D01*
X28911244Y31400003D01*
X28911244Y31399998D01*
X381500Y31399998D01*
X381500Y31786255D01*
X381500Y46998295D01*
X381596Y47001718D01*
X385226Y47066363D01*
X1268687Y47066363D01*
X1278846Y46801301D01*
X1329350Y46540894D01*
X1419009Y46291257D01*
X1419012Y46291250D01*
X1545726Y46058228D01*
X1545729Y46058223D01*
X1628480Y45949664D01*
X1706534Y45847267D01*
X1897657Y45663330D01*
X2114617Y45510723D01*
X2352331Y45393024D01*
X2605225Y45312991D01*
X2867372Y45272500D01*
X2867376Y45272500D01*
X3066219Y45272500D01*
X3066220Y45272500D01*
X3264478Y45287721D01*
X3522756Y45348161D01*
X3568836Y45366734D01*
X3768774Y45447314D01*
X3768779Y45447317D01*
X3768782Y45447318D01*
X3996788Y45582869D01*
X4201430Y45751636D01*
X4377912Y45949664D01*
X4448215Y46058224D01*
X4522094Y46172306D01*
X4522094Y46172308D01*
X4522096Y46172310D01*
X4630604Y46414357D01*
X4700892Y46670131D01*
X4731313Y46933637D01*
X4721153Y47198699D01*
X4702829Y47293179D01*
X4670649Y47459107D01*
X4580990Y47708744D01*
X4580987Y47708751D01*
X4454273Y47941773D01*
X4454270Y47941778D01*
X4293469Y48152729D01*
X4293466Y48152733D01*
X4102343Y48336670D01*
X4018040Y48395968D01*
X3885382Y48489278D01*
X3647670Y48606976D01*
X3647667Y48606977D01*
X3394777Y48687009D01*
X3289916Y48703206D01*
X3132628Y48727500D01*
X2933780Y48727500D01*
X2735522Y48712279D01*
X2735518Y48712279D01*
X2477246Y48651840D01*
X2477236Y48651837D01*
X2231225Y48552687D01*
X2231216Y48552682D01*
X2003213Y48417132D01*
X1798571Y48248365D01*
X1622088Y48050337D01*
X1622081Y48050328D01*
X1477905Y47827695D01*
X1477904Y47827691D01*
X1369395Y47585643D01*
X1299108Y47329872D01*
X1268687Y47066363D01*
X385226Y47066363D01*
X397770Y47289717D01*
X398545Y47296598D01*
X446567Y47579239D01*
X448115Y47586018D01*
X527480Y47861502D01*
X529775Y47868056D01*
X560311Y47941776D01*
X639486Y48132924D01*
X642498Y48139174D01*
X683568Y48213484D01*
X781169Y48390081D01*
X784865Y48395962D01*
X950757Y48629765D01*
X955089Y48635199D01*
X1146121Y48848964D01*
X1151039Y48853881D01*
X1364801Y49044911D01*
X1370235Y49049243D01*
X1439294Y49098244D01*
X1604038Y49215135D01*
X1609919Y49218831D01*
X1860827Y49357503D01*
X1867076Y49360514D01*
X2090547Y49453079D01*
X2131944Y49470225D01*
X2138498Y49472520D01*
X2413986Y49551886D01*
X2420761Y49553433D01*
X2703402Y49601455D01*
X2710285Y49602230D01*
X2873089Y49611373D01*
X2998265Y49618402D01*
X3001742Y49618500D01*
X33976000Y49618500D01*
X34043039Y49598815D01*
G37*
%TD.AperFunction*%
%TD*%
%TA.AperFunction,Conductor*%
%TO.N,-2V5*%
G36*
X2943039Y24780315D02*
G01*
X2988794Y24727511D01*
X3000000Y24676000D01*
X2999999Y23116500D01*
X2980314Y23049460D01*
X2927510Y23003706D01*
X2908093Y22996725D01*
X2742685Y22952404D01*
X2742673Y22952400D01*
X2536065Y22856057D01*
X2536057Y22856053D01*
X2349317Y22725296D01*
X2349311Y22725291D01*
X2188109Y22564089D01*
X2188104Y22564083D01*
X2057347Y22377343D01*
X2057343Y22377335D01*
X1961000Y22170727D01*
X1960995Y22170713D01*
X1901994Y21950516D01*
X1901992Y21950506D01*
X1882123Y21723401D01*
X1882123Y21723400D01*
X1901992Y21496295D01*
X1901994Y21496285D01*
X1960995Y21276088D01*
X1961000Y21276074D01*
X2005500Y21180644D01*
X2057345Y21069461D01*
X2188108Y20882713D01*
X2349313Y20721508D01*
X2536061Y20590745D01*
X2660369Y20532780D01*
X2742673Y20494401D01*
X2742675Y20494401D01*
X2742680Y20494398D01*
X2962890Y20435393D01*
X3144578Y20419497D01*
X3189999Y20415523D01*
X3190000Y20415523D01*
X3190001Y20415523D01*
X3227851Y20418835D01*
X3417110Y20435393D01*
X3637320Y20494398D01*
X3843939Y20590745D01*
X4030687Y20721508D01*
X4191892Y20882713D01*
X4322655Y21069461D01*
X4419002Y21276080D01*
X4478007Y21496290D01*
X4497877Y21723400D01*
X4478007Y21950510D01*
X4419905Y22167350D01*
X4419004Y22170713D01*
X4418999Y22170727D01*
X4322656Y22377335D01*
X4322655Y22377338D01*
X4303373Y22404876D01*
X4281045Y22471082D01*
X4298055Y22538849D01*
X4349002Y22586663D01*
X4404947Y22600000D01*
X8528253Y22600000D01*
X8595292Y22580315D01*
X8641047Y22527511D01*
X8650991Y22458353D01*
X8629827Y22404876D01*
X8610549Y22377345D01*
X8610543Y22377335D01*
X8514200Y22170727D01*
X8514195Y22170713D01*
X8455194Y21950516D01*
X8455192Y21950506D01*
X8435323Y21723401D01*
X8435323Y21723400D01*
X8455192Y21496295D01*
X8455194Y21496285D01*
X8514195Y21276088D01*
X8514200Y21276074D01*
X8558700Y21180644D01*
X8610545Y21069461D01*
X8741308Y20882713D01*
X8902513Y20721508D01*
X9089261Y20590745D01*
X9213569Y20532780D01*
X9295873Y20494401D01*
X9295875Y20494401D01*
X9295880Y20494398D01*
X9516090Y20435393D01*
X9697777Y20419497D01*
X9743199Y20415523D01*
X9743200Y20415523D01*
X9743201Y20415523D01*
X9781051Y20418835D01*
X9970310Y20435393D01*
X10190520Y20494398D01*
X10397139Y20590745D01*
X10583887Y20721508D01*
X10745092Y20882713D01*
X10875855Y21069461D01*
X10972202Y21276080D01*
X10978611Y21299998D01*
X16413744Y21299998D01*
X16432648Y21180644D01*
X16487511Y21072967D01*
X16572966Y20987512D01*
X16680643Y20932649D01*
X16799998Y20913745D01*
X16800000Y20913745D01*
X16800002Y20913745D01*
X16919356Y20932649D01*
X16919357Y20932650D01*
X16919359Y20932650D01*
X17027035Y20987513D01*
X17112487Y21072965D01*
X17167350Y21180641D01*
X17167350Y21180643D01*
X17167351Y21180644D01*
X17186255Y21299998D01*
X17186255Y21300003D01*
X17167351Y21419357D01*
X17112488Y21527034D01*
X17027033Y21612489D01*
X16919356Y21667352D01*
X16800002Y21686255D01*
X16799998Y21686255D01*
X16680643Y21667352D01*
X16572966Y21612489D01*
X16487511Y21527034D01*
X16432648Y21419357D01*
X16413744Y21300003D01*
X16413744Y21299998D01*
X10978611Y21299998D01*
X11031207Y21496290D01*
X11051077Y21723400D01*
X11044375Y21799998D01*
X22513744Y21799998D01*
X22532648Y21680644D01*
X22587511Y21572967D01*
X22672966Y21487512D01*
X22780643Y21432649D01*
X22899998Y21413745D01*
X22900000Y21413745D01*
X22900002Y21413745D01*
X23019356Y21432649D01*
X23019357Y21432650D01*
X23019359Y21432650D01*
X23127035Y21487513D01*
X23212487Y21572965D01*
X23267350Y21680641D01*
X23267350Y21680643D01*
X23267351Y21680644D01*
X23286255Y21799998D01*
X23286255Y21800003D01*
X23267351Y21919357D01*
X23212488Y22027034D01*
X23127033Y22112489D01*
X23019356Y22167352D01*
X22900002Y22186255D01*
X22899998Y22186255D01*
X22780643Y22167352D01*
X22672966Y22112489D01*
X22587511Y22027034D01*
X22532648Y21919357D01*
X22513744Y21800003D01*
X22513744Y21799998D01*
X11044375Y21799998D01*
X11031207Y21950510D01*
X10973105Y22167350D01*
X10972204Y22170713D01*
X10972199Y22170727D01*
X10875856Y22377335D01*
X10875855Y22377338D01*
X10856573Y22404876D01*
X10834245Y22471082D01*
X10851255Y22538849D01*
X10902202Y22586663D01*
X10958147Y22600000D01*
X18600000Y22600000D01*
X18600000Y23404245D01*
X26917980Y23404245D01*
X26936884Y23284891D01*
X26991747Y23177214D01*
X27077202Y23091759D01*
X27184879Y23036896D01*
X27304234Y23017992D01*
X27304236Y23017992D01*
X27304238Y23017992D01*
X27423592Y23036896D01*
X27423593Y23036897D01*
X27423595Y23036897D01*
X27531271Y23091760D01*
X27616723Y23177212D01*
X27671586Y23284888D01*
X27671586Y23284890D01*
X27671587Y23284891D01*
X27690491Y23404245D01*
X27690491Y23404250D01*
X27671587Y23523604D01*
X27616724Y23631281D01*
X27531269Y23716736D01*
X27423592Y23771599D01*
X27304238Y23790502D01*
X27304234Y23790502D01*
X27184879Y23771599D01*
X27077202Y23716736D01*
X26991747Y23631281D01*
X26936884Y23523604D01*
X26917980Y23404250D01*
X26917980Y23404245D01*
X18600000Y23404245D01*
X18600000Y24676000D01*
X18619685Y24743039D01*
X18672489Y24788794D01*
X18724000Y24800000D01*
X26274920Y24800000D01*
X26341959Y24780315D01*
X26387714Y24727511D01*
X26397393Y24695398D01*
X26407648Y24630644D01*
X26462511Y24522967D01*
X26547966Y24437512D01*
X26655643Y24382649D01*
X26774998Y24363745D01*
X26775000Y24363745D01*
X26775002Y24363745D01*
X26894356Y24382649D01*
X26894357Y24382650D01*
X26894359Y24382650D01*
X27002035Y24437513D01*
X27087487Y24522965D01*
X27142350Y24630641D01*
X27142350Y24630643D01*
X27142351Y24630644D01*
X27152607Y24695398D01*
X27182536Y24758532D01*
X27241847Y24795464D01*
X27275080Y24800000D01*
X28676000Y24800000D01*
X28743039Y24780315D01*
X28788794Y24727511D01*
X28800000Y24676000D01*
X28800000Y6726900D01*
X28780315Y6659861D01*
X28727511Y6614106D01*
X28676000Y6602900D01*
X28584882Y6602900D01*
X28522403Y6584555D01*
X28459924Y6566208D01*
X28459920Y6566206D01*
X28459921Y6566206D01*
X28350366Y6495802D01*
X28350366Y6495801D01*
X28265079Y6397375D01*
X28265078Y6397373D01*
X28262794Y6392371D01*
X28217039Y6339567D01*
X28149999Y6319883D01*
X28082960Y6339568D01*
X28037206Y6392371D01*
X28034921Y6397373D01*
X28034920Y6397375D01*
X27949636Y6495799D01*
X27949633Y6495801D01*
X27949633Y6495802D01*
X27883900Y6538045D01*
X27840076Y6566208D01*
X27756770Y6590670D01*
X27715118Y6602900D01*
X27715117Y6602900D01*
X27584883Y6602900D01*
X27584882Y6602900D01*
X27522403Y6584555D01*
X27459924Y6566208D01*
X27459920Y6566206D01*
X27459921Y6566206D01*
X27350366Y6495802D01*
X27350366Y6495801D01*
X27265079Y6397375D01*
X27265078Y6397373D01*
X27262794Y6392371D01*
X27217039Y6339567D01*
X27149999Y6319883D01*
X27082960Y6339568D01*
X27037206Y6392371D01*
X27034921Y6397373D01*
X27034920Y6397375D01*
X26949636Y6495799D01*
X26949633Y6495801D01*
X26949633Y6495802D01*
X26883900Y6538045D01*
X26840076Y6566208D01*
X26756770Y6590670D01*
X26715118Y6602900D01*
X26715117Y6602900D01*
X26584883Y6602900D01*
X26584882Y6602900D01*
X26522403Y6584555D01*
X26459924Y6566208D01*
X26459920Y6566206D01*
X26459921Y6566206D01*
X26350366Y6495802D01*
X26350366Y6495801D01*
X26265079Y6397375D01*
X26265078Y6397373D01*
X26210976Y6278909D01*
X26192443Y6150001D01*
X26210976Y6021092D01*
X26229689Y5980118D01*
X26265079Y5902626D01*
X26350364Y5804201D01*
X26350366Y5804200D01*
X26350366Y5804199D01*
X26394188Y5776038D01*
X26459924Y5733792D01*
X26561765Y5703888D01*
X26584882Y5697100D01*
X26584883Y5697100D01*
X26715118Y5697100D01*
X26734625Y5702829D01*
X26840076Y5733792D01*
X26949636Y5804201D01*
X27034921Y5902626D01*
X27037204Y5907627D01*
X27082958Y5960432D01*
X27149997Y5980118D01*
X27217037Y5960435D01*
X27262793Y5907632D01*
X27262795Y5907627D01*
X27265077Y5902629D01*
X27265078Y5902628D01*
X27265079Y5902626D01*
X27350364Y5804201D01*
X27350366Y5804200D01*
X27350366Y5804199D01*
X27394188Y5776038D01*
X27459924Y5733792D01*
X27561765Y5703888D01*
X27584882Y5697100D01*
X27584883Y5697100D01*
X27715118Y5697100D01*
X27734625Y5702829D01*
X27840076Y5733792D01*
X27949636Y5804201D01*
X28034921Y5902626D01*
X28037204Y5907627D01*
X28082958Y5960432D01*
X28149997Y5980118D01*
X28217037Y5960435D01*
X28262793Y5907632D01*
X28262795Y5907627D01*
X28265077Y5902629D01*
X28265078Y5902628D01*
X28265079Y5902626D01*
X28350364Y5804201D01*
X28350366Y5804200D01*
X28350366Y5804199D01*
X28394188Y5776038D01*
X28459924Y5733792D01*
X28561765Y5703888D01*
X28584882Y5697100D01*
X28676000Y5697100D01*
X28743039Y5677415D01*
X28788794Y5624611D01*
X28800000Y5573100D01*
X28800000Y4840884D01*
X28780315Y4773845D01*
X28763681Y4753203D01*
X28715861Y4705384D01*
X28660998Y4597707D01*
X28642095Y4478353D01*
X28642095Y4478348D01*
X28660998Y4358995D01*
X28701098Y4280293D01*
X28713993Y4211624D01*
X28687716Y4146884D01*
X28630609Y4106628D01*
X28590612Y4100000D01*
X27114445Y4100000D01*
X27047406Y4119685D01*
X27001651Y4172489D01*
X26991707Y4241647D01*
X27003959Y4280293D01*
X27032683Y4336669D01*
X27042350Y4355641D01*
X27042882Y4358995D01*
X27061255Y4474998D01*
X27061255Y4475003D01*
X27042351Y4594357D01*
X26987488Y4702034D01*
X26902033Y4787489D01*
X26794356Y4842352D01*
X26675002Y4861255D01*
X26674998Y4861255D01*
X26555643Y4842352D01*
X26447966Y4787489D01*
X26362511Y4702034D01*
X26307648Y4594357D01*
X26288744Y4475003D01*
X26288744Y4474998D01*
X26307648Y4355645D01*
X26346041Y4280293D01*
X26358936Y4211624D01*
X26332658Y4146884D01*
X26275551Y4106628D01*
X26235555Y4100000D01*
X4395059Y4100000D01*
X4328020Y4119685D01*
X4296443Y4148828D01*
X4293469Y4152729D01*
X4293466Y4152733D01*
X4102343Y4336670D01*
X4075372Y4355641D01*
X3885382Y4489278D01*
X3647670Y4606976D01*
X3647667Y4606977D01*
X3394777Y4687009D01*
X3275805Y4705385D01*
X3132628Y4727500D01*
X2933780Y4727500D01*
X2735522Y4712279D01*
X2735518Y4712279D01*
X2477246Y4651840D01*
X2477236Y4651837D01*
X2231225Y4552687D01*
X2231216Y4552682D01*
X2003213Y4417132D01*
X1798570Y4248365D01*
X1703332Y4141499D01*
X1644034Y4104548D01*
X1610760Y4100000D01*
X505500Y4100000D01*
X438461Y4119685D01*
X392706Y4172489D01*
X381500Y4224000D01*
X381500Y8250001D01*
X3567375Y8250001D01*
X3586243Y8010248D01*
X3642385Y7776396D01*
X3734418Y7554207D01*
X3734420Y7554204D01*
X3860078Y7349149D01*
X3860081Y7349144D01*
X3930880Y7266249D01*
X4016270Y7166270D01*
X4133329Y7066293D01*
X4199143Y7010082D01*
X4199148Y7010079D01*
X4404203Y6884421D01*
X4404206Y6884419D01*
X4626395Y6792386D01*
X4724426Y6768852D01*
X4860245Y6736244D01*
X5100000Y6717375D01*
X5339755Y6736244D01*
X5508181Y6776680D01*
X5573604Y6792386D01*
X5573605Y6792387D01*
X5573607Y6792387D01*
X5665637Y6830508D01*
X5795793Y6884419D01*
X5795794Y6884420D01*
X5795797Y6884421D01*
X6000854Y7010080D01*
X6183730Y7166270D01*
X6339920Y7349146D01*
X6465579Y7554203D01*
X6557613Y7776393D01*
X6613756Y8010245D01*
X6632625Y8250000D01*
X6632625Y8250001D01*
X8567375Y8250001D01*
X8586243Y8010248D01*
X8642385Y7776396D01*
X8734418Y7554207D01*
X8734420Y7554204D01*
X8860078Y7349149D01*
X8860081Y7349144D01*
X8930880Y7266249D01*
X9016270Y7166270D01*
X9133329Y7066293D01*
X9199143Y7010082D01*
X9199148Y7010079D01*
X9404203Y6884421D01*
X9404206Y6884419D01*
X9626395Y6792386D01*
X9724426Y6768852D01*
X9860245Y6736244D01*
X10100000Y6717375D01*
X10339755Y6736244D01*
X10508181Y6776680D01*
X10573604Y6792386D01*
X10573605Y6792387D01*
X10573607Y6792387D01*
X10665637Y6830508D01*
X10795793Y6884419D01*
X10795794Y6884420D01*
X10795797Y6884421D01*
X11000854Y7010080D01*
X11183730Y7166270D01*
X11339920Y7349146D01*
X11465579Y7554203D01*
X11557035Y7774998D01*
X27638744Y7774998D01*
X27657648Y7655644D01*
X27712511Y7547967D01*
X27797966Y7462512D01*
X27905643Y7407649D01*
X28024998Y7388745D01*
X28025000Y7388745D01*
X28025002Y7388745D01*
X28144356Y7407649D01*
X28144357Y7407650D01*
X28144359Y7407650D01*
X28252035Y7462513D01*
X28337487Y7547965D01*
X28392350Y7655641D01*
X28392350Y7655643D01*
X28392351Y7655644D01*
X28411255Y7774998D01*
X28411255Y7775003D01*
X28392351Y7894357D01*
X28337488Y8002034D01*
X28252033Y8087489D01*
X28144356Y8142352D01*
X28025002Y8161255D01*
X28024998Y8161255D01*
X27905643Y8142352D01*
X27797966Y8087489D01*
X27712511Y8002034D01*
X27657648Y7894357D01*
X27638744Y7775003D01*
X27638744Y7774998D01*
X11557035Y7774998D01*
X11557613Y7776393D01*
X11613756Y8010245D01*
X11632625Y8250000D01*
X11613756Y8489755D01*
X11586798Y8602039D01*
X11557614Y8723605D01*
X11465581Y8945794D01*
X11465579Y8945797D01*
X11339921Y9150852D01*
X11339918Y9150857D01*
X11283707Y9216671D01*
X11183730Y9333730D01*
X11083751Y9419120D01*
X11000856Y9489919D01*
X11000851Y9489922D01*
X10795796Y9615580D01*
X10795793Y9615582D01*
X10573604Y9707615D01*
X10339751Y9763757D01*
X10339752Y9763757D01*
X10100000Y9782625D01*
X9860247Y9763757D01*
X9626395Y9707615D01*
X9404206Y9615582D01*
X9404203Y9615580D01*
X9199148Y9489922D01*
X9199143Y9489919D01*
X9016270Y9333730D01*
X8860081Y9150857D01*
X8860078Y9150852D01*
X8734420Y8945797D01*
X8734418Y8945794D01*
X8642385Y8723605D01*
X8586243Y8489753D01*
X8567375Y8250001D01*
X6632625Y8250001D01*
X6613756Y8489755D01*
X6586798Y8602039D01*
X6557614Y8723605D01*
X6465581Y8945794D01*
X6465579Y8945797D01*
X6339921Y9150852D01*
X6339918Y9150857D01*
X6283707Y9216671D01*
X6183730Y9333730D01*
X6083751Y9419120D01*
X6000856Y9489919D01*
X6000851Y9489922D01*
X5795796Y9615580D01*
X5795793Y9615582D01*
X5573604Y9707615D01*
X5339751Y9763757D01*
X5339752Y9763757D01*
X5100000Y9782625D01*
X4860247Y9763757D01*
X4626395Y9707615D01*
X4404206Y9615582D01*
X4404203Y9615580D01*
X4199148Y9489922D01*
X4199143Y9489919D01*
X4016270Y9333730D01*
X3860081Y9150857D01*
X3860078Y9150852D01*
X3734420Y8945797D01*
X3734418Y8945794D01*
X3642385Y8723605D01*
X3586243Y8489753D01*
X3567375Y8250001D01*
X381500Y8250001D01*
X381500Y15750000D01*
X3567375Y15750000D01*
X3586243Y15510248D01*
X3642385Y15276396D01*
X3734418Y15054207D01*
X3734420Y15054204D01*
X3860078Y14849149D01*
X3860081Y14849144D01*
X3930880Y14766249D01*
X4016270Y14666270D01*
X4133329Y14566293D01*
X4199143Y14510082D01*
X4199145Y14510081D01*
X4199146Y14510080D01*
X4404203Y14384421D01*
X4404206Y14384419D01*
X4626395Y14292386D01*
X4707283Y14272967D01*
X4860245Y14236244D01*
X5100000Y14217375D01*
X5339755Y14236244D01*
X5508181Y14276680D01*
X5573604Y14292386D01*
X5573605Y14292387D01*
X5573607Y14292387D01*
X5665637Y14330508D01*
X5795793Y14384419D01*
X5795794Y14384420D01*
X5795797Y14384421D01*
X6000854Y14510080D01*
X6183730Y14666270D01*
X6339920Y14849146D01*
X6465579Y15054203D01*
X6557613Y15276393D01*
X6613756Y15510245D01*
X6632625Y15750000D01*
X6632625Y15750001D01*
X8567375Y15750001D01*
X8586243Y15510248D01*
X8642385Y15276396D01*
X8734418Y15054207D01*
X8734420Y15054204D01*
X8860078Y14849149D01*
X8860081Y14849144D01*
X8930880Y14766249D01*
X9016270Y14666270D01*
X9133329Y14566293D01*
X9199143Y14510082D01*
X9199145Y14510081D01*
X9199146Y14510080D01*
X9404202Y14384421D01*
X9404203Y14384421D01*
X9404206Y14384419D01*
X9626395Y14292386D01*
X9707283Y14272967D01*
X9860245Y14236244D01*
X10100000Y14217375D01*
X10339755Y14236244D01*
X10508180Y14276680D01*
X10573604Y14292386D01*
X10573605Y14292387D01*
X10573607Y14292387D01*
X10665637Y14330508D01*
X10795793Y14384419D01*
X10795794Y14384420D01*
X10795797Y14384421D01*
X10984402Y14499998D01*
X24113744Y14499998D01*
X24132648Y14380644D01*
X24187511Y14272967D01*
X24272966Y14187512D01*
X24380643Y14132649D01*
X24499998Y14113745D01*
X24500000Y14113745D01*
X24500002Y14113745D01*
X24619356Y14132649D01*
X24619357Y14132650D01*
X24619359Y14132650D01*
X24727035Y14187513D01*
X24812487Y14272965D01*
X24867350Y14380641D01*
X24867350Y14380643D01*
X24867351Y14380644D01*
X24886255Y14499998D01*
X24886255Y14500003D01*
X24867351Y14619357D01*
X24812488Y14727034D01*
X24727033Y14812489D01*
X24619356Y14867352D01*
X24500002Y14886255D01*
X24499998Y14886255D01*
X24380643Y14867352D01*
X24272966Y14812489D01*
X24187511Y14727034D01*
X24132648Y14619357D01*
X24113744Y14500003D01*
X24113744Y14499998D01*
X10984402Y14499998D01*
X11000854Y14510080D01*
X11183730Y14666270D01*
X11339920Y14849146D01*
X11465579Y15054203D01*
X11557613Y15276393D01*
X11613756Y15510245D01*
X11632625Y15750000D01*
X11613756Y15989755D01*
X11586798Y16102039D01*
X11557614Y16223605D01*
X11465581Y16445794D01*
X11465579Y16445797D01*
X11339921Y16650852D01*
X11339918Y16650857D01*
X11283707Y16716671D01*
X11183730Y16833730D01*
X11083751Y16919120D01*
X11000856Y16989919D01*
X11000851Y16989922D01*
X10795796Y17115580D01*
X10795793Y17115582D01*
X10573604Y17207615D01*
X10339751Y17263757D01*
X10339752Y17263757D01*
X10100000Y17282625D01*
X9860247Y17263757D01*
X9626395Y17207615D01*
X9404206Y17115582D01*
X9404203Y17115580D01*
X9199148Y16989922D01*
X9199143Y16989919D01*
X9016270Y16833730D01*
X8860081Y16650857D01*
X8860078Y16650852D01*
X8734420Y16445797D01*
X8734418Y16445794D01*
X8642385Y16223605D01*
X8586243Y15989753D01*
X8567375Y15750001D01*
X6632625Y15750001D01*
X6613756Y15989755D01*
X6586798Y16102039D01*
X6557614Y16223605D01*
X6465581Y16445794D01*
X6465579Y16445797D01*
X6339921Y16650852D01*
X6339918Y16650857D01*
X6283707Y16716671D01*
X6183730Y16833730D01*
X6083751Y16919120D01*
X6000856Y16989919D01*
X6000851Y16989922D01*
X5795796Y17115580D01*
X5795793Y17115582D01*
X5573604Y17207615D01*
X5339751Y17263757D01*
X5339752Y17263757D01*
X5100000Y17282625D01*
X4860247Y17263757D01*
X4626395Y17207615D01*
X4404206Y17115582D01*
X4404203Y17115580D01*
X4199148Y16989922D01*
X4199143Y16989919D01*
X4016270Y16833730D01*
X3860081Y16650857D01*
X3860078Y16650852D01*
X3734420Y16445797D01*
X3734418Y16445794D01*
X3642385Y16223605D01*
X3586243Y15989753D01*
X3567375Y15750000D01*
X381500Y15750000D01*
X381500Y19399998D01*
X26013744Y19399998D01*
X26032648Y19280644D01*
X26087511Y19172967D01*
X26172966Y19087512D01*
X26280643Y19032649D01*
X26399998Y19013745D01*
X26400000Y19013745D01*
X26400002Y19013745D01*
X26519356Y19032649D01*
X26519357Y19032650D01*
X26519359Y19032650D01*
X26627035Y19087513D01*
X26712487Y19172965D01*
X26767350Y19280641D01*
X26767350Y19280643D01*
X26767351Y19280644D01*
X26786255Y19399998D01*
X26786255Y19400003D01*
X26767351Y19519357D01*
X26712488Y19627034D01*
X26627033Y19712489D01*
X26519356Y19767352D01*
X26400002Y19786255D01*
X26399998Y19786255D01*
X26280643Y19767352D01*
X26172966Y19712489D01*
X26087511Y19627034D01*
X26032648Y19519357D01*
X26013744Y19400003D01*
X26013744Y19399998D01*
X381500Y19399998D01*
X381500Y24676000D01*
X401185Y24743039D01*
X453989Y24788794D01*
X505500Y24800000D01*
X2876000Y24800000D01*
X2943039Y24780315D01*
G37*
%TD.AperFunction*%
%TD*%
%TA.AperFunction,Conductor*%
%TO.N,+5V*%
G36*
X77001735Y49618402D02*
G01*
X77132594Y49611054D01*
X77289712Y49602230D01*
X77296599Y49601454D01*
X77579234Y49553433D01*
X77586017Y49551885D01*
X77861495Y49472522D01*
X77868055Y49470225D01*
X77984861Y49421843D01*
X78132916Y49360517D01*
X78139173Y49357502D01*
X78390075Y49218833D01*
X78395967Y49215131D01*
X78629764Y49049243D01*
X78635205Y49044905D01*
X78848960Y48853881D01*
X78853880Y48848961D01*
X79044904Y48635206D01*
X79049242Y48629765D01*
X79215130Y48395968D01*
X79218832Y48390076D01*
X79357501Y48139174D01*
X79360521Y48132905D01*
X79470224Y47868056D01*
X79472523Y47861489D01*
X79551884Y47586018D01*
X79553432Y47579235D01*
X79601451Y47296617D01*
X79602230Y47289703D01*
X79618402Y47001737D01*
X79618500Y46998259D01*
X79618500Y3001742D01*
X79618402Y2998264D01*
X79602230Y2710298D01*
X79601451Y2703384D01*
X79553432Y2420766D01*
X79551884Y2413983D01*
X79472523Y2138512D01*
X79470224Y2131945D01*
X79360521Y1867096D01*
X79357501Y1860827D01*
X79218832Y1609925D01*
X79215130Y1604033D01*
X79049242Y1370236D01*
X79044904Y1364795D01*
X78853880Y1151040D01*
X78848960Y1146120D01*
X78635205Y955096D01*
X78629764Y950758D01*
X78395967Y784870D01*
X78390075Y781168D01*
X78139173Y642499D01*
X78132904Y639479D01*
X77868055Y529776D01*
X77861488Y527477D01*
X77586017Y448116D01*
X77579234Y446568D01*
X77296616Y398549D01*
X77289702Y397770D01*
X77001736Y381598D01*
X76998258Y381500D01*
X3001742Y381500D01*
X2998265Y381598D01*
X2710297Y397770D01*
X2703385Y398549D01*
X2663072Y405399D01*
X2420765Y446568D01*
X2413982Y448116D01*
X2138511Y527477D01*
X2131944Y529776D01*
X1908491Y622333D01*
X1867091Y639481D01*
X1860826Y642499D01*
X1609924Y781168D01*
X1604032Y784870D01*
X1370235Y950758D01*
X1364794Y955096D01*
X1151039Y1146120D01*
X1146119Y1151040D01*
X955095Y1364795D01*
X950757Y1370236D01*
X784869Y1604033D01*
X781167Y1609925D01*
X642498Y1860827D01*
X639483Y1867084D01*
X560309Y2058228D01*
X529775Y2131945D01*
X527476Y2138512D01*
X517740Y2172306D01*
X448115Y2413983D01*
X446567Y2420766D01*
X445502Y2427035D01*
X398546Y2703401D01*
X397770Y2710288D01*
X385227Y2933638D01*
X381598Y2998265D01*
X381500Y3001742D01*
X381500Y3576000D01*
X401185Y3643039D01*
X453989Y3688794D01*
X505500Y3700000D01*
X1238149Y3700000D01*
X1305188Y3680315D01*
X1350943Y3627511D01*
X1360887Y3558353D01*
X1357716Y3543142D01*
X1299108Y3329872D01*
X1268687Y3066363D01*
X1278846Y2801301D01*
X1329350Y2540894D01*
X1419009Y2291257D01*
X1419012Y2291250D01*
X1545726Y2058228D01*
X1545729Y2058223D01*
X1706530Y1847272D01*
X1706534Y1847267D01*
X1897657Y1663330D01*
X2114617Y1510723D01*
X2352331Y1393024D01*
X2605225Y1312991D01*
X2867372Y1272500D01*
X2867376Y1272500D01*
X3066219Y1272500D01*
X3066220Y1272500D01*
X3264478Y1287721D01*
X3522756Y1348161D01*
X3577528Y1370236D01*
X3768774Y1447314D01*
X3768779Y1447317D01*
X3768782Y1447318D01*
X3996788Y1582869D01*
X4201430Y1751636D01*
X4377912Y1949664D01*
X4448215Y2058224D01*
X4522094Y2172306D01*
X4522094Y2172308D01*
X4522096Y2172310D01*
X4534508Y2199998D01*
X35313745Y2199998D01*
X35332648Y2080644D01*
X35387511Y1972967D01*
X35472966Y1887512D01*
X35580643Y1832649D01*
X35699998Y1813745D01*
X35700000Y1813745D01*
X35700002Y1813745D01*
X35819356Y1832649D01*
X35819357Y1832650D01*
X35819359Y1832650D01*
X35927035Y1887513D01*
X36012487Y1972965D01*
X36067350Y2080641D01*
X36067350Y2080643D01*
X36067351Y2080644D01*
X36086255Y2199998D01*
X36086255Y2200003D01*
X36067351Y2319357D01*
X36012488Y2427034D01*
X35927033Y2512489D01*
X35819356Y2567352D01*
X35700002Y2586255D01*
X35699998Y2586255D01*
X35580643Y2567352D01*
X35472966Y2512489D01*
X35387511Y2427034D01*
X35332648Y2319357D01*
X35313745Y2200003D01*
X35313745Y2199998D01*
X4534508Y2199998D01*
X4630604Y2414357D01*
X4700892Y2670131D01*
X4731313Y2933637D01*
X4724936Y3099998D01*
X62513745Y3099998D01*
X62532648Y2980644D01*
X62587511Y2872967D01*
X62672966Y2787512D01*
X62780643Y2732649D01*
X62899998Y2713745D01*
X62900000Y2713745D01*
X62900002Y2713745D01*
X63019356Y2732649D01*
X63019357Y2732650D01*
X63019359Y2732650D01*
X63127035Y2787513D01*
X63212487Y2872965D01*
X63267350Y2980641D01*
X63267350Y2980643D01*
X63267351Y2980644D01*
X63280928Y3066363D01*
X75268687Y3066363D01*
X75278846Y2801301D01*
X75329350Y2540894D01*
X75419009Y2291257D01*
X75419012Y2291250D01*
X75545726Y2058228D01*
X75545729Y2058223D01*
X75706530Y1847272D01*
X75706534Y1847267D01*
X75897657Y1663330D01*
X76114617Y1510723D01*
X76352331Y1393024D01*
X76605225Y1312991D01*
X76867372Y1272500D01*
X76867376Y1272500D01*
X77066219Y1272500D01*
X77066220Y1272500D01*
X77264478Y1287721D01*
X77522756Y1348161D01*
X77577528Y1370236D01*
X77768774Y1447314D01*
X77768779Y1447317D01*
X77768782Y1447318D01*
X77996788Y1582869D01*
X78201430Y1751636D01*
X78377912Y1949664D01*
X78448215Y2058224D01*
X78522094Y2172306D01*
X78522094Y2172308D01*
X78522096Y2172310D01*
X78630604Y2414357D01*
X78700892Y2670131D01*
X78731313Y2933637D01*
X78721153Y3198699D01*
X78713625Y3237513D01*
X78670649Y3459107D01*
X78580990Y3708744D01*
X78580987Y3708751D01*
X78454273Y3941773D01*
X78454270Y3941778D01*
X78293469Y4152729D01*
X78293466Y4152733D01*
X78102343Y4336670D01*
X78102339Y4336673D01*
X77885382Y4489278D01*
X77647670Y4606976D01*
X77647667Y4606977D01*
X77394777Y4687009D01*
X77289916Y4703206D01*
X77132628Y4727500D01*
X76933780Y4727500D01*
X76735522Y4712279D01*
X76735518Y4712279D01*
X76477246Y4651840D01*
X76477236Y4651837D01*
X76231225Y4552687D01*
X76231216Y4552682D01*
X76003213Y4417132D01*
X75798571Y4248365D01*
X75622088Y4050337D01*
X75622081Y4050328D01*
X75477905Y3827695D01*
X75477904Y3827691D01*
X75369395Y3585643D01*
X75299108Y3329872D01*
X75268687Y3066363D01*
X63280928Y3066363D01*
X63286255Y3099998D01*
X63286255Y3100003D01*
X63267351Y3219357D01*
X63212488Y3327034D01*
X63127033Y3412489D01*
X63019356Y3467352D01*
X62900002Y3486255D01*
X62899998Y3486255D01*
X62780643Y3467352D01*
X62672966Y3412489D01*
X62587511Y3327034D01*
X62532648Y3219357D01*
X62513745Y3100003D01*
X62513745Y3099998D01*
X4724936Y3099998D01*
X4721153Y3198699D01*
X4713625Y3237513D01*
X4670649Y3459107D01*
X4643720Y3534086D01*
X4639585Y3603833D01*
X4673815Y3664744D01*
X4735542Y3697479D01*
X4760421Y3700000D01*
X22022317Y3700000D01*
X22089356Y3680315D01*
X22135111Y3627511D01*
X22145055Y3558353D01*
X22144791Y3556604D01*
X22143745Y3549999D01*
X22143744Y3549998D01*
X22162648Y3430644D01*
X22217511Y3322967D01*
X22302966Y3237512D01*
X22410643Y3182649D01*
X22529998Y3163745D01*
X22530000Y3163745D01*
X22530002Y3163745D01*
X22649356Y3182649D01*
X22649357Y3182650D01*
X22649359Y3182650D01*
X22757035Y3237513D01*
X22842487Y3322965D01*
X22897350Y3430641D01*
X22897350Y3430643D01*
X22897351Y3430644D01*
X22916255Y3549998D01*
X22916255Y3549999D01*
X22915209Y3556604D01*
X22924166Y3625898D01*
X22969163Y3679349D01*
X23035915Y3699987D01*
X23037683Y3700000D01*
X56800000Y3700000D01*
X56800000Y4471561D01*
X56819685Y4538600D01*
X56867705Y4582046D01*
X56952035Y4625013D01*
X57037487Y4710465D01*
X57092350Y4818141D01*
X57092350Y4818143D01*
X57092351Y4818144D01*
X57111255Y4937498D01*
X57111255Y4937503D01*
X57092351Y5056857D01*
X57037488Y5164534D01*
X56952033Y5249989D01*
X56867706Y5292955D01*
X56816910Y5340929D01*
X56800000Y5403440D01*
X56800000Y5999998D01*
X60213745Y5999998D01*
X60232648Y5880644D01*
X60287511Y5772967D01*
X60372966Y5687512D01*
X60480643Y5632649D01*
X60599998Y5613745D01*
X60600000Y5613745D01*
X60600002Y5613745D01*
X60719356Y5632649D01*
X60719357Y5632650D01*
X60719359Y5632650D01*
X60827035Y5687513D01*
X60912487Y5772965D01*
X60967350Y5880641D01*
X60967350Y5880643D01*
X60967351Y5880644D01*
X60986255Y5999998D01*
X60986255Y6000003D01*
X60967351Y6119357D01*
X60912488Y6227034D01*
X60827033Y6312489D01*
X60719356Y6367352D01*
X60600002Y6386255D01*
X60599998Y6386255D01*
X60480643Y6367352D01*
X60372966Y6312489D01*
X60287511Y6227034D01*
X60232648Y6119357D01*
X60213745Y6000003D01*
X60213745Y5999998D01*
X56800000Y5999998D01*
X56800000Y7921561D01*
X56819685Y7988600D01*
X56867705Y8032046D01*
X56952035Y8075013D01*
X57037487Y8160465D01*
X57092350Y8268141D01*
X57092350Y8268143D01*
X57092351Y8268144D01*
X57111255Y8387498D01*
X57111255Y8387503D01*
X57092351Y8506857D01*
X57037488Y8614534D01*
X56952033Y8699989D01*
X56867706Y8742955D01*
X56816910Y8790929D01*
X56800000Y8853440D01*
X56800000Y9934946D01*
X64347100Y9934946D01*
X64355972Y9890342D01*
X64355973Y9890339D01*
X64389765Y9839767D01*
X64389766Y9839766D01*
X64440342Y9805972D01*
X64440343Y9805972D01*
X64440345Y9805971D01*
X64462642Y9801536D01*
X64484943Y9797100D01*
X67115056Y9797101D01*
X67159658Y9805972D01*
X67210234Y9839766D01*
X67244028Y9890342D01*
X67252900Y9934943D01*
X67252900Y11249995D01*
X70342121Y11249995D01*
X70362004Y11010045D01*
X70421113Y10776627D01*
X70512910Y10567350D01*
X70517834Y10556126D01*
X70649529Y10354552D01*
X70812605Y10177404D01*
X70812608Y10177402D01*
X70812611Y10177399D01*
X71002607Y10029519D01*
X71002613Y10029515D01*
X71002616Y10029513D01*
X71214377Y9914913D01*
X71442112Y9836732D01*
X71679609Y9797100D01*
X71679610Y9797100D01*
X71920390Y9797100D01*
X71920391Y9797100D01*
X72157888Y9836732D01*
X72385623Y9914913D01*
X72597384Y10029513D01*
X72787395Y10177404D01*
X72950471Y10354552D01*
X73082166Y10556126D01*
X73178887Y10776627D01*
X73237995Y11010041D01*
X73257879Y11250000D01*
X73237995Y11489959D01*
X73178887Y11723373D01*
X73082166Y11943874D01*
X72950471Y12145448D01*
X72787395Y12322596D01*
X72787390Y12322600D01*
X72787388Y12322602D01*
X72597392Y12470482D01*
X72597386Y12470486D01*
X72385624Y12585087D01*
X72385619Y12585089D01*
X72157890Y12663268D01*
X71973545Y12694030D01*
X71920391Y12702900D01*
X71679609Y12702900D01*
X71626455Y12694030D01*
X71442109Y12663268D01*
X71214380Y12585089D01*
X71214375Y12585087D01*
X71002613Y12470486D01*
X71002607Y12470482D01*
X70812611Y12322602D01*
X70812608Y12322599D01*
X70649529Y12145448D01*
X70517832Y11943871D01*
X70421113Y11723374D01*
X70362004Y11489956D01*
X70342121Y11250006D01*
X70342121Y11249995D01*
X67252900Y11249995D01*
X67252899Y12565056D01*
X67244028Y12609658D01*
X67244026Y12609660D01*
X67244026Y12609662D01*
X67210234Y12660234D01*
X67159659Y12694027D01*
X67159658Y12694028D01*
X67159657Y12694029D01*
X67159656Y12694029D01*
X67159654Y12694030D01*
X67115059Y12702900D01*
X64484945Y12702900D01*
X64440341Y12694028D01*
X64440338Y12694027D01*
X64389766Y12660235D01*
X64355971Y12609657D01*
X64355970Y12609655D01*
X64347100Y12565060D01*
X64347100Y9934946D01*
X56800000Y9934946D01*
X56800000Y12299998D01*
X59113745Y12299998D01*
X59132648Y12180644D01*
X59187511Y12072967D01*
X59272966Y11987512D01*
X59380643Y11932649D01*
X59499998Y11913745D01*
X59500000Y11913745D01*
X59500002Y11913745D01*
X59619356Y11932649D01*
X59619357Y11932650D01*
X59619359Y11932650D01*
X59727035Y11987513D01*
X59812487Y12072965D01*
X59867350Y12180641D01*
X59867350Y12180643D01*
X59867351Y12180644D01*
X59886255Y12299998D01*
X59886255Y12300003D01*
X59867351Y12419357D01*
X59812488Y12527034D01*
X59727033Y12612489D01*
X59619356Y12667352D01*
X59500002Y12686255D01*
X59499998Y12686255D01*
X59380643Y12667352D01*
X59272966Y12612489D01*
X59187511Y12527034D01*
X59132648Y12419357D01*
X59113745Y12300003D01*
X59113745Y12299998D01*
X56800000Y12299998D01*
X56800000Y15949995D01*
X67342121Y15949995D01*
X67362004Y15710045D01*
X67362004Y15710042D01*
X67362005Y15710041D01*
X67421113Y15476627D01*
X67517834Y15256126D01*
X67649529Y15054552D01*
X67812605Y14877404D01*
X67812608Y14877402D01*
X67812611Y14877399D01*
X68002607Y14729519D01*
X68002613Y14729515D01*
X68002616Y14729513D01*
X68119478Y14666270D01*
X68206161Y14619359D01*
X68214377Y14614913D01*
X68442112Y14536732D01*
X68679609Y14497100D01*
X68679610Y14497100D01*
X68920390Y14497100D01*
X68920391Y14497100D01*
X69157888Y14536732D01*
X69385623Y14614913D01*
X69597384Y14729513D01*
X69787395Y14877404D01*
X69950471Y15054552D01*
X70082166Y15256126D01*
X70178887Y15476627D01*
X70237995Y15710041D01*
X70257879Y15950000D01*
X70237995Y16189959D01*
X70178887Y16423373D01*
X70082166Y16643874D01*
X69950471Y16845448D01*
X69900254Y16899998D01*
X78313745Y16899998D01*
X78332648Y16780644D01*
X78387511Y16672967D01*
X78472966Y16587512D01*
X78580643Y16532649D01*
X78699998Y16513745D01*
X78700000Y16513745D01*
X78700002Y16513745D01*
X78819356Y16532649D01*
X78819357Y16532650D01*
X78819359Y16532650D01*
X78927035Y16587513D01*
X79012487Y16672965D01*
X79067350Y16780641D01*
X79067350Y16780643D01*
X79067351Y16780644D01*
X79086255Y16899998D01*
X79086255Y16900003D01*
X79067351Y17019357D01*
X79012488Y17127034D01*
X78927033Y17212489D01*
X78819356Y17267352D01*
X78700002Y17286255D01*
X78699998Y17286255D01*
X78580643Y17267352D01*
X78472966Y17212489D01*
X78387511Y17127034D01*
X78332648Y17019357D01*
X78313745Y16900003D01*
X78313745Y16899998D01*
X69900254Y16899998D01*
X69787395Y17022596D01*
X69787390Y17022600D01*
X69787388Y17022602D01*
X69597392Y17170482D01*
X69597386Y17170486D01*
X69385624Y17285087D01*
X69385619Y17285089D01*
X69157890Y17363268D01*
X68937751Y17400003D01*
X68920391Y17402900D01*
X68679609Y17402900D01*
X68662249Y17400003D01*
X68442109Y17363268D01*
X68214380Y17285089D01*
X68214375Y17285087D01*
X68002613Y17170486D01*
X68002607Y17170482D01*
X67812611Y17022602D01*
X67812608Y17022599D01*
X67812605Y17022597D01*
X67812605Y17022596D01*
X67804457Y17013745D01*
X67649529Y16845448D01*
X67517832Y16643871D01*
X67421113Y16423374D01*
X67362004Y16189956D01*
X67342121Y15950006D01*
X67342121Y15949995D01*
X56800000Y15949995D01*
X56800000Y17399998D01*
X59513745Y17399998D01*
X59532648Y17280644D01*
X59587511Y17172967D01*
X59672966Y17087512D01*
X59780643Y17032649D01*
X59899998Y17013745D01*
X59900000Y17013745D01*
X59900002Y17013745D01*
X60019356Y17032649D01*
X60019357Y17032650D01*
X60019359Y17032650D01*
X60127035Y17087513D01*
X60212487Y17172965D01*
X60267350Y17280641D01*
X60267350Y17280643D01*
X60267351Y17280644D01*
X60286255Y17399998D01*
X60286255Y17400003D01*
X60267351Y17519357D01*
X60212488Y17627034D01*
X60127033Y17712489D01*
X60019356Y17767352D01*
X59900002Y17786255D01*
X59899998Y17786255D01*
X59780643Y17767352D01*
X59672966Y17712489D01*
X59587511Y17627034D01*
X59532648Y17519357D01*
X59513745Y17400003D01*
X59513745Y17399998D01*
X56800000Y17399998D01*
X56800000Y17899998D01*
X62213745Y17899998D01*
X62232648Y17780644D01*
X62287511Y17672967D01*
X62372966Y17587512D01*
X62480643Y17532649D01*
X62599998Y17513745D01*
X62600000Y17513745D01*
X62600002Y17513745D01*
X62719356Y17532649D01*
X62719357Y17532650D01*
X62719359Y17532650D01*
X62827035Y17587513D01*
X62912487Y17672965D01*
X62967350Y17780641D01*
X62967350Y17780643D01*
X62967351Y17780644D01*
X62986255Y17899998D01*
X62986255Y17900003D01*
X62967351Y18019357D01*
X62912488Y18127034D01*
X62827033Y18212489D01*
X62719356Y18267352D01*
X62600002Y18286255D01*
X62599998Y18286255D01*
X62480643Y18267352D01*
X62372966Y18212489D01*
X62287511Y18127034D01*
X62232648Y18019357D01*
X62213745Y17900003D01*
X62213745Y17899998D01*
X56800000Y17899998D01*
X56800000Y20679998D01*
X72367020Y20679998D01*
X72387276Y20500211D01*
X72447036Y20329429D01*
X72516198Y20219359D01*
X72543296Y20176233D01*
X72671233Y20048296D01*
X72824431Y19952035D01*
X72937454Y19912487D01*
X72995210Y19892277D01*
X73081354Y19882572D01*
X73129909Y19877101D01*
X73129910Y19877100D01*
X73129914Y19877100D01*
X74220090Y19877100D01*
X74220090Y19877101D01*
X74281174Y19883984D01*
X74354789Y19892277D01*
X74354792Y19892278D01*
X74525569Y19952035D01*
X74678767Y20048296D01*
X74806704Y20176233D01*
X74902965Y20329431D01*
X74962722Y20500208D01*
X74962722Y20500209D01*
X74962723Y20500211D01*
X74982980Y20679998D01*
X76042020Y20679998D01*
X76062276Y20500211D01*
X76122036Y20329429D01*
X76191198Y20219359D01*
X76218296Y20176233D01*
X76346233Y20048296D01*
X76499431Y19952035D01*
X76612454Y19912487D01*
X76670210Y19892277D01*
X76756354Y19882572D01*
X76804909Y19877101D01*
X76804910Y19877100D01*
X76804914Y19877100D01*
X78195090Y19877100D01*
X78195090Y19877101D01*
X78256174Y19883984D01*
X78329789Y19892277D01*
X78329792Y19892278D01*
X78500569Y19952035D01*
X78653767Y20048296D01*
X78781704Y20176233D01*
X78877965Y20329431D01*
X78937722Y20500208D01*
X78937722Y20500209D01*
X78937723Y20500211D01*
X78957980Y20679998D01*
X78957980Y20680003D01*
X78937723Y20859790D01*
X78895435Y20980641D01*
X78877965Y21030569D01*
X78781704Y21183767D01*
X78653767Y21311704D01*
X78530153Y21389376D01*
X78500571Y21407964D01*
X78500570Y21407965D01*
X78500569Y21407965D01*
X78430023Y21432650D01*
X78329789Y21467724D01*
X78195090Y21482900D01*
X78195086Y21482900D01*
X76804914Y21482900D01*
X76804910Y21482900D01*
X76670210Y21467724D01*
X76499428Y21407964D01*
X76346232Y21311704D01*
X76218296Y21183768D01*
X76122036Y21030572D01*
X76062276Y20859790D01*
X76042020Y20680003D01*
X76042020Y20679998D01*
X74982980Y20679998D01*
X74982980Y20680003D01*
X74962723Y20859790D01*
X74920435Y20980641D01*
X74902965Y21030569D01*
X74806704Y21183767D01*
X74678767Y21311704D01*
X74555152Y21389377D01*
X74508862Y21441711D01*
X74498214Y21510765D01*
X74526589Y21574613D01*
X74567318Y21606087D01*
X74643540Y21642793D01*
X74738008Y21730447D01*
X74802444Y21842052D01*
X74831120Y21967692D01*
X74821490Y22096202D01*
X74774408Y22216164D01*
X74774408Y22216165D01*
X74694056Y22316922D01*
X74587581Y22389515D01*
X74587579Y22389516D01*
X74464436Y22427500D01*
X74464435Y22427500D01*
X74367961Y22427500D01*
X74367955Y22427500D01*
X74272569Y22413122D01*
X74156458Y22357207D01*
X74061992Y22269554D01*
X74061989Y22269549D01*
X73997557Y22157951D01*
X73997556Y22157948D01*
X73968880Y22032308D01*
X73968879Y22032307D01*
X73978509Y21903800D01*
X74025591Y21783836D01*
X74066411Y21732650D01*
X74105039Y21684212D01*
X74131447Y21619527D01*
X74118692Y21550831D01*
X74070821Y21499937D01*
X74008092Y21482900D01*
X73129910Y21482900D01*
X72995210Y21467724D01*
X72824428Y21407964D01*
X72671232Y21311704D01*
X72543296Y21183768D01*
X72447036Y21030572D01*
X72387276Y20859790D01*
X72367020Y20680003D01*
X72367020Y20679998D01*
X56800000Y20679998D01*
X56800000Y23769498D01*
X71413745Y23769498D01*
X71432648Y23650144D01*
X71487511Y23542467D01*
X71572966Y23457012D01*
X71680643Y23402149D01*
X71799998Y23383245D01*
X71800000Y23383245D01*
X71800002Y23383245D01*
X71919356Y23402149D01*
X71919357Y23402150D01*
X71919359Y23402150D01*
X72027035Y23457013D01*
X72112487Y23542465D01*
X72167350Y23650141D01*
X72167350Y23650143D01*
X72167351Y23650144D01*
X72186255Y23769498D01*
X72186255Y23769503D01*
X72167351Y23888857D01*
X72112488Y23996534D01*
X72027033Y24081989D01*
X71919356Y24136852D01*
X71800002Y24155755D01*
X71799998Y24155755D01*
X71680643Y24136852D01*
X71572966Y24081989D01*
X71487511Y23996534D01*
X71432648Y23888857D01*
X71413745Y23769503D01*
X71413745Y23769498D01*
X56800000Y23769498D01*
X56800000Y24921898D01*
X71413745Y24921898D01*
X71432648Y24802544D01*
X71487511Y24694867D01*
X71572966Y24609412D01*
X71680643Y24554549D01*
X71799998Y24535645D01*
X71800000Y24535645D01*
X71800002Y24535645D01*
X71919356Y24554549D01*
X71919357Y24554550D01*
X71919359Y24554550D01*
X72027035Y24609413D01*
X72112487Y24694865D01*
X72167350Y24802541D01*
X72167350Y24802543D01*
X72167351Y24802544D01*
X72186255Y24921898D01*
X72186255Y24921903D01*
X72167351Y25041257D01*
X72112488Y25148934D01*
X72027033Y25234389D01*
X71919356Y25289252D01*
X71800002Y25308155D01*
X71799998Y25308155D01*
X71680643Y25289252D01*
X71572966Y25234389D01*
X71487511Y25148934D01*
X71432648Y25041257D01*
X71413745Y24921903D01*
X71413745Y24921898D01*
X56800000Y24921898D01*
X56800000Y29699998D01*
X59213745Y29699998D01*
X59232648Y29580644D01*
X59287511Y29472967D01*
X59372966Y29387512D01*
X59480643Y29332649D01*
X59599998Y29313745D01*
X59600000Y29313745D01*
X59600002Y29313745D01*
X59639482Y29319998D01*
X72367020Y29319998D01*
X72387276Y29140211D01*
X72412772Y29067350D01*
X72447035Y28969431D01*
X72543296Y28816233D01*
X72671233Y28688296D01*
X72824431Y28592035D01*
X72929626Y28555226D01*
X72995210Y28532277D01*
X73081354Y28522572D01*
X73129909Y28517101D01*
X73129910Y28517100D01*
X73915304Y28517100D01*
X73982343Y28497415D01*
X74028098Y28444611D01*
X74038042Y28375453D01*
X74017759Y28323250D01*
X74010485Y28312582D01*
X74010484Y28312580D01*
X73972500Y28189437D01*
X73972500Y27842956D01*
X73986878Y27747570D01*
X74042793Y27631459D01*
X74130446Y27536993D01*
X74130447Y27536992D01*
X74242052Y27472556D01*
X74367692Y27443880D01*
X74496202Y27453510D01*
X74616164Y27500592D01*
X74716920Y27580942D01*
X74789515Y27687419D01*
X74827500Y27810565D01*
X74827500Y28157039D01*
X74813122Y28252431D01*
X74757207Y28368540D01*
X74757206Y28368541D01*
X74757206Y28368542D01*
X74669553Y28463008D01*
X74669546Y28463014D01*
X74665717Y28465224D01*
X74662362Y28468742D01*
X74662285Y28468804D01*
X74662293Y28468815D01*
X74617503Y28515792D01*
X74604282Y28584400D01*
X74630252Y28649264D01*
X74661744Y28677601D01*
X74678767Y28688296D01*
X74806704Y28816233D01*
X74902965Y28969431D01*
X74962722Y29140208D01*
X74962722Y29140209D01*
X74962723Y29140211D01*
X74982980Y29319998D01*
X76042020Y29319998D01*
X76062276Y29140211D01*
X76087772Y29067350D01*
X76122035Y28969431D01*
X76218296Y28816233D01*
X76346233Y28688296D01*
X76499431Y28592035D01*
X76604626Y28555226D01*
X76670210Y28532277D01*
X76756354Y28522572D01*
X76804909Y28517101D01*
X76804910Y28517100D01*
X76804914Y28517100D01*
X78195090Y28517100D01*
X78195090Y28517101D01*
X78256174Y28523984D01*
X78329789Y28532277D01*
X78329792Y28532278D01*
X78500569Y28592035D01*
X78653767Y28688296D01*
X78781704Y28816233D01*
X78877965Y28969431D01*
X78937722Y29140208D01*
X78937722Y29140209D01*
X78937723Y29140211D01*
X78957980Y29319998D01*
X78957980Y29320003D01*
X78937723Y29499790D01*
X78909431Y29580644D01*
X78877965Y29670569D01*
X78781704Y29823767D01*
X78653767Y29951704D01*
X78607714Y29980641D01*
X78500571Y30047964D01*
X78500570Y30047965D01*
X78500569Y30047965D01*
X78459573Y30062310D01*
X78329789Y30107724D01*
X78195090Y30122900D01*
X78195086Y30122900D01*
X76804914Y30122900D01*
X76804910Y30122900D01*
X76670210Y30107724D01*
X76499428Y30047964D01*
X76346232Y29951704D01*
X76218296Y29823768D01*
X76122036Y29670572D01*
X76062276Y29499790D01*
X76042020Y29320003D01*
X76042020Y29319998D01*
X74982980Y29319998D01*
X74982980Y29320003D01*
X74962723Y29499790D01*
X74934431Y29580644D01*
X74902965Y29670569D01*
X74806704Y29823767D01*
X74678767Y29951704D01*
X74632714Y29980641D01*
X74525571Y30047964D01*
X74525570Y30047965D01*
X74525569Y30047965D01*
X74484573Y30062310D01*
X74354789Y30107724D01*
X74220090Y30122900D01*
X74220086Y30122900D01*
X73129914Y30122900D01*
X73129910Y30122900D01*
X72995210Y30107724D01*
X72824428Y30047964D01*
X72671232Y29951704D01*
X72543296Y29823768D01*
X72447036Y29670572D01*
X72387276Y29499790D01*
X72367020Y29320003D01*
X72367020Y29319998D01*
X59639482Y29319998D01*
X59719356Y29332649D01*
X59719357Y29332650D01*
X59719359Y29332650D01*
X59827035Y29387513D01*
X59912487Y29472965D01*
X59967350Y29580641D01*
X59967350Y29580643D01*
X59967351Y29580644D01*
X59986255Y29699998D01*
X59986255Y29700003D01*
X59967351Y29819357D01*
X59912488Y29927034D01*
X59827033Y30012489D01*
X59719356Y30067352D01*
X59600002Y30086255D01*
X59599998Y30086255D01*
X59480643Y30067352D01*
X59372966Y30012489D01*
X59287511Y29927034D01*
X59232648Y29819357D01*
X59213745Y29700003D01*
X59213745Y29699998D01*
X56800000Y29699998D01*
X56800000Y32099998D01*
X64613745Y32099998D01*
X64632648Y31980644D01*
X64687511Y31872967D01*
X64772966Y31787512D01*
X64880643Y31732649D01*
X64999998Y31713745D01*
X65000000Y31713745D01*
X65000002Y31713745D01*
X65119356Y31732649D01*
X65119357Y31732650D01*
X65119359Y31732650D01*
X65227035Y31787513D01*
X65312487Y31872965D01*
X65367350Y31980641D01*
X65367350Y31980643D01*
X65367351Y31980644D01*
X65386255Y32099998D01*
X65386255Y32100003D01*
X65367351Y32219357D01*
X65312488Y32327034D01*
X65227033Y32412489D01*
X65119356Y32467352D01*
X65000002Y32486255D01*
X64999998Y32486255D01*
X64880643Y32467352D01*
X64772966Y32412489D01*
X64687511Y32327034D01*
X64632648Y32219357D01*
X64613745Y32100003D01*
X64613745Y32099998D01*
X56800000Y32099998D01*
X56800000Y33299998D01*
X63413745Y33299998D01*
X63432648Y33180644D01*
X63487511Y33072967D01*
X63572966Y32987512D01*
X63680643Y32932649D01*
X63799998Y32913745D01*
X63800000Y32913745D01*
X63800002Y32913745D01*
X63919356Y32932649D01*
X63919357Y32932650D01*
X63919359Y32932650D01*
X64027035Y32987513D01*
X64112487Y33072965D01*
X64167350Y33180641D01*
X64167350Y33180643D01*
X64167351Y33180644D01*
X64186255Y33299998D01*
X64186255Y33300003D01*
X64167351Y33419357D01*
X64112488Y33527034D01*
X64027033Y33612489D01*
X63919356Y33667352D01*
X63800002Y33686255D01*
X63799998Y33686255D01*
X63680643Y33667352D01*
X63572966Y33612489D01*
X63487511Y33527034D01*
X63432648Y33419357D01*
X63413745Y33300003D01*
X63413745Y33299998D01*
X56800000Y33299998D01*
X56800000Y35289498D01*
X71313745Y35289498D01*
X71332648Y35170144D01*
X71387511Y35062467D01*
X71472966Y34977012D01*
X71580643Y34922149D01*
X71699998Y34903245D01*
X71700000Y34903245D01*
X71700002Y34903245D01*
X71819356Y34922149D01*
X71819357Y34922150D01*
X71819359Y34922150D01*
X71927035Y34977013D01*
X72012487Y35062465D01*
X72067350Y35170141D01*
X72067350Y35170143D01*
X72067351Y35170144D01*
X72086255Y35289498D01*
X72086255Y35289503D01*
X72084593Y35299998D01*
X72913745Y35299998D01*
X72932648Y35180644D01*
X72987511Y35072967D01*
X73072966Y34987512D01*
X73180643Y34932649D01*
X73299998Y34913745D01*
X73300000Y34913745D01*
X73300002Y34913745D01*
X73419356Y34932649D01*
X73419357Y34932650D01*
X73419359Y34932650D01*
X73527035Y34987513D01*
X73612487Y35072965D01*
X73667350Y35180641D01*
X73667350Y35180643D01*
X73667351Y35180644D01*
X73686255Y35299998D01*
X73686255Y35300003D01*
X73667351Y35419357D01*
X73612488Y35527034D01*
X73527033Y35612489D01*
X73419356Y35667352D01*
X73300002Y35686255D01*
X73299998Y35686255D01*
X73180643Y35667352D01*
X73072966Y35612489D01*
X72987511Y35527034D01*
X72932648Y35419357D01*
X72913745Y35300003D01*
X72913745Y35299998D01*
X72084593Y35299998D01*
X72067351Y35408857D01*
X72012488Y35516534D01*
X71927033Y35601989D01*
X71819356Y35656852D01*
X71700002Y35675755D01*
X71699998Y35675755D01*
X71580643Y35656852D01*
X71472966Y35601989D01*
X71387511Y35516534D01*
X71332648Y35408857D01*
X71313745Y35289503D01*
X71313745Y35289498D01*
X56800000Y35289498D01*
X56800000Y36699998D01*
X70713745Y36699998D01*
X70732648Y36580644D01*
X70787511Y36472967D01*
X70872966Y36387512D01*
X70980643Y36332649D01*
X71099998Y36313745D01*
X71100000Y36313745D01*
X71100002Y36313745D01*
X71219356Y36332649D01*
X71219357Y36332650D01*
X71219359Y36332650D01*
X71327035Y36387513D01*
X71412487Y36472965D01*
X71467350Y36580641D01*
X71467350Y36580643D01*
X71467351Y36580644D01*
X71486255Y36699998D01*
X71486255Y36700003D01*
X71467351Y36819357D01*
X71412488Y36927034D01*
X71327033Y37012489D01*
X71219356Y37067352D01*
X71100002Y37086255D01*
X71099998Y37086255D01*
X70980643Y37067352D01*
X70872966Y37012489D01*
X70787511Y36927034D01*
X70732648Y36819357D01*
X70713745Y36700003D01*
X70713745Y36699998D01*
X56800000Y36699998D01*
X56800000Y38299998D01*
X58313745Y38299998D01*
X58332648Y38180644D01*
X58387511Y38072967D01*
X58472966Y37987512D01*
X58580643Y37932649D01*
X58699998Y37913745D01*
X58700000Y37913745D01*
X58700002Y37913745D01*
X58819356Y37932649D01*
X58819357Y37932650D01*
X58819359Y37932650D01*
X58927035Y37987513D01*
X59012319Y38072797D01*
X59073642Y38106282D01*
X59143334Y38101298D01*
X59187681Y38072797D01*
X59272966Y37987512D01*
X59380643Y37932649D01*
X59499998Y37913745D01*
X59500000Y37913745D01*
X59500002Y37913745D01*
X59619356Y37932649D01*
X59619357Y37932650D01*
X59619359Y37932650D01*
X59727035Y37987513D01*
X59812487Y38072965D01*
X59826261Y38099998D01*
X60613745Y38099998D01*
X60632648Y37980644D01*
X60687511Y37872967D01*
X60772966Y37787512D01*
X60880643Y37732649D01*
X60999998Y37713745D01*
X61000000Y37713745D01*
X61000002Y37713745D01*
X61119356Y37732649D01*
X61119357Y37732650D01*
X61119359Y37732650D01*
X61227035Y37787513D01*
X61312487Y37872965D01*
X61367350Y37980641D01*
X61367350Y37980643D01*
X61367351Y37980644D01*
X61386255Y38099998D01*
X61386255Y38100003D01*
X61367351Y38219357D01*
X61312488Y38327034D01*
X61227033Y38412489D01*
X61119356Y38467352D01*
X61000002Y38486255D01*
X60999998Y38486255D01*
X60880643Y38467352D01*
X60772966Y38412489D01*
X60687511Y38327034D01*
X60632648Y38219357D01*
X60613745Y38100003D01*
X60613745Y38099998D01*
X59826261Y38099998D01*
X59867350Y38180641D01*
X59867350Y38180643D01*
X59867351Y38180644D01*
X59886255Y38299998D01*
X59886255Y38300003D01*
X59867351Y38419357D01*
X59812488Y38527034D01*
X59727033Y38612489D01*
X59619356Y38667352D01*
X59500002Y38686255D01*
X59499998Y38686255D01*
X59380643Y38667352D01*
X59272968Y38612490D01*
X59187681Y38527203D01*
X59126357Y38493719D01*
X59056666Y38498703D01*
X59012319Y38527203D01*
X59012319Y38527204D01*
X58927035Y38612487D01*
X58927032Y38612489D01*
X58927031Y38612490D01*
X58819356Y38667352D01*
X58700002Y38686255D01*
X58699998Y38686255D01*
X58580643Y38667352D01*
X58472966Y38612489D01*
X58387511Y38527034D01*
X58332648Y38419357D01*
X58313745Y38300003D01*
X58313745Y38299998D01*
X56800000Y38299998D01*
X56800000Y39550235D01*
X65518720Y39550235D01*
X65548823Y39353732D01*
X65548827Y39353716D01*
X65583996Y39258758D01*
X65617870Y39167295D01*
X65723030Y38998581D01*
X65723031Y38998580D01*
X65723033Y38998577D01*
X65859996Y38854492D01*
X65859998Y38854491D01*
X65860000Y38854489D01*
X65947528Y38793568D01*
X66023169Y38740920D01*
X66023170Y38740920D01*
X66023171Y38740919D01*
X66205863Y38662519D01*
X66400598Y38622500D01*
X66549572Y38622500D01*
X66697785Y38637572D01*
X66792694Y38667350D01*
X66887471Y38697086D01*
X67061294Y38793566D01*
X67212139Y38923062D01*
X67333828Y39080271D01*
X67421380Y39258758D01*
X67445966Y39353716D01*
X67471209Y39451208D01*
X67471210Y39451214D01*
X67471211Y39451216D01*
X67476233Y39550235D01*
X72518720Y39550235D01*
X72548823Y39353732D01*
X72548827Y39353716D01*
X72583996Y39258758D01*
X72617870Y39167295D01*
X72723030Y38998581D01*
X72723031Y38998580D01*
X72723033Y38998577D01*
X72859996Y38854492D01*
X72859998Y38854491D01*
X72860000Y38854489D01*
X72947528Y38793568D01*
X73023169Y38740920D01*
X73023170Y38740920D01*
X73023171Y38740919D01*
X73205863Y38662519D01*
X73400598Y38622500D01*
X73549572Y38622500D01*
X73697785Y38637572D01*
X73792694Y38667350D01*
X73887471Y38697086D01*
X74061294Y38793566D01*
X74212139Y38923062D01*
X74333828Y39080271D01*
X74421380Y39258758D01*
X74445966Y39353716D01*
X74471209Y39451208D01*
X74471210Y39451214D01*
X74471211Y39451216D01*
X74481280Y39649765D01*
X74451175Y39846276D01*
X74382130Y40032705D01*
X74276970Y40201419D01*
X74276967Y40201422D01*
X74276966Y40201424D01*
X74140003Y40345509D01*
X74140001Y40345510D01*
X73976830Y40459081D01*
X73794135Y40537482D01*
X73599402Y40577500D01*
X73450429Y40577500D01*
X73450428Y40577500D01*
X73302214Y40562429D01*
X73112536Y40502917D01*
X73112527Y40502913D01*
X72938704Y40406433D01*
X72938703Y40406433D01*
X72787861Y40276940D01*
X72787860Y40276939D01*
X72666173Y40119732D01*
X72666171Y40119728D01*
X72578618Y39941239D01*
X72528790Y39748793D01*
X72528789Y39748787D01*
X72518720Y39550235D01*
X67476233Y39550235D01*
X67481280Y39649765D01*
X67451175Y39846276D01*
X67382130Y40032705D01*
X67276970Y40201419D01*
X67276967Y40201422D01*
X67276966Y40201424D01*
X67140003Y40345509D01*
X67140001Y40345510D01*
X66976830Y40459081D01*
X66794135Y40537482D01*
X66599402Y40577500D01*
X66450429Y40577500D01*
X66450428Y40577500D01*
X66302214Y40562429D01*
X66112536Y40502917D01*
X66112527Y40502913D01*
X65938704Y40406433D01*
X65938703Y40406433D01*
X65787861Y40276940D01*
X65787860Y40276939D01*
X65666173Y40119732D01*
X65666171Y40119728D01*
X65578618Y39941239D01*
X65528790Y39748793D01*
X65528789Y39748787D01*
X65518720Y39550235D01*
X56800000Y39550235D01*
X56800000Y41199998D01*
X61113745Y41199998D01*
X61132648Y41080644D01*
X61187511Y40972967D01*
X61272966Y40887512D01*
X61380643Y40832649D01*
X61499998Y40813745D01*
X61500000Y40813745D01*
X61500002Y40813745D01*
X61619356Y40832649D01*
X61619357Y40832650D01*
X61619359Y40832650D01*
X61727035Y40887513D01*
X61812487Y40972965D01*
X61867350Y41080641D01*
X61867350Y41080643D01*
X61867351Y41080644D01*
X61886255Y41199998D01*
X61886255Y41200003D01*
X61867351Y41319357D01*
X61812488Y41427034D01*
X61727033Y41512489D01*
X61619356Y41567352D01*
X61500002Y41586255D01*
X61499998Y41586255D01*
X61380643Y41567352D01*
X61272966Y41512489D01*
X61187511Y41427034D01*
X61132648Y41319357D01*
X61113745Y41200003D01*
X61113745Y41199998D01*
X56800000Y41199998D01*
X56800000Y42692498D01*
X60313745Y42692498D01*
X60332648Y42573144D01*
X60387511Y42465467D01*
X60472966Y42380012D01*
X60580643Y42325149D01*
X60699998Y42306245D01*
X60700000Y42306245D01*
X60700002Y42306245D01*
X60819356Y42325149D01*
X60819357Y42325150D01*
X60819359Y42325150D01*
X60927035Y42380013D01*
X61012487Y42465465D01*
X61030082Y42499998D01*
X70713745Y42499998D01*
X70732648Y42380644D01*
X70787511Y42272967D01*
X70872966Y42187512D01*
X70980643Y42132649D01*
X71099998Y42113745D01*
X71100000Y42113745D01*
X71100002Y42113745D01*
X71219356Y42132649D01*
X71219357Y42132650D01*
X71219359Y42132650D01*
X71327035Y42187513D01*
X71412487Y42272965D01*
X71467350Y42380641D01*
X71467350Y42380643D01*
X71467351Y42380644D01*
X71486255Y42499998D01*
X71486255Y42500003D01*
X71467351Y42619357D01*
X71412488Y42727034D01*
X71327033Y42812489D01*
X71219356Y42867352D01*
X71100002Y42886255D01*
X71099998Y42886255D01*
X70980643Y42867352D01*
X70872966Y42812489D01*
X70787511Y42727034D01*
X70732648Y42619357D01*
X70713745Y42500003D01*
X70713745Y42499998D01*
X61030082Y42499998D01*
X61067350Y42573141D01*
X61067350Y42573143D01*
X61067351Y42573144D01*
X61086255Y42692498D01*
X61086255Y42692503D01*
X61067351Y42811857D01*
X61012488Y42919534D01*
X60927033Y43004989D01*
X60819356Y43059852D01*
X60700002Y43078755D01*
X60699998Y43078755D01*
X60580643Y43059852D01*
X60472966Y43004989D01*
X60387511Y42919534D01*
X60332648Y42811857D01*
X60313745Y42692503D01*
X60313745Y42692498D01*
X56800000Y42692498D01*
X56800000Y47066363D01*
X75268687Y47066363D01*
X75278846Y46801301D01*
X75329350Y46540894D01*
X75419009Y46291257D01*
X75419012Y46291250D01*
X75545726Y46058228D01*
X75545729Y46058223D01*
X75628480Y45949664D01*
X75706534Y45847267D01*
X75897657Y45663330D01*
X76114617Y45510723D01*
X76352331Y45393024D01*
X76605225Y45312991D01*
X76867372Y45272500D01*
X76867376Y45272500D01*
X77066219Y45272500D01*
X77066220Y45272500D01*
X77264478Y45287721D01*
X77522756Y45348161D01*
X77568836Y45366734D01*
X77768774Y45447314D01*
X77768779Y45447317D01*
X77768782Y45447318D01*
X77996788Y45582869D01*
X78201430Y45751636D01*
X78377912Y45949664D01*
X78448215Y46058224D01*
X78522094Y46172306D01*
X78522094Y46172308D01*
X78522096Y46172310D01*
X78630604Y46414357D01*
X78700892Y46670131D01*
X78731313Y46933637D01*
X78721153Y47198699D01*
X78702829Y47293179D01*
X78670649Y47459107D01*
X78580990Y47708744D01*
X78580987Y47708751D01*
X78454273Y47941773D01*
X78454270Y47941778D01*
X78293469Y48152729D01*
X78293466Y48152733D01*
X78102343Y48336670D01*
X78018040Y48395968D01*
X77885382Y48489278D01*
X77647670Y48606976D01*
X77647667Y48606977D01*
X77394777Y48687009D01*
X77289916Y48703206D01*
X77132628Y48727500D01*
X76933780Y48727500D01*
X76735522Y48712279D01*
X76735518Y48712279D01*
X76477246Y48651840D01*
X76477236Y48651837D01*
X76231225Y48552687D01*
X76231216Y48552682D01*
X76003213Y48417132D01*
X75798571Y48248365D01*
X75622088Y48050337D01*
X75622081Y48050328D01*
X75477905Y47827695D01*
X75477904Y47827691D01*
X75369395Y47585643D01*
X75299108Y47329872D01*
X75268687Y47066363D01*
X56800000Y47066363D01*
X56800000Y49494500D01*
X56819685Y49561539D01*
X56872489Y49607294D01*
X56924000Y49618500D01*
X76945149Y49618500D01*
X76998258Y49618500D01*
X77001735Y49618402D01*
G37*
%TD.AperFunction*%
%TD*%
M02*
