G04 #@! TF.GenerationSoftware,KiCad,Pcbnew,7.0.6-7.0.6~ubuntu20.04.1*
G04 #@! TF.CreationDate,2024-04-09T16:12:21-07:00*
G04 #@! TF.ProjectId,harp_lick_detector_capactive,68617270-5f6c-4696-936b-5f6465746563,rev?*
G04 #@! TF.SameCoordinates,PX640a5a0PY7088980*
G04 #@! TF.FileFunction,Copper,L4,Bot*
G04 #@! TF.FilePolarity,Positive*
%FSLAX46Y46*%
G04 Gerber Fmt 4.6, Leading zero omitted, Abs format (unit mm)*
G04 Created by KiCad (PCBNEW 7.0.6-7.0.6~ubuntu20.04.1) date 2024-04-09 16:12:21*
%MOMM*%
%LPD*%
G01*
G04 APERTURE LIST*
G04 #@! TA.AperFunction,ComponentPad*
%ADD10R,2.600000X2.600000*%
G04 #@! TD*
G04 #@! TA.AperFunction,ComponentPad*
%ADD11C,2.600000*%
G04 #@! TD*
G04 #@! TA.AperFunction,ComponentPad*
%ADD12C,2.200000*%
G04 #@! TD*
G04 #@! TA.AperFunction,ComponentPad*
%ADD13C,2.300000*%
G04 #@! TD*
G04 #@! TA.AperFunction,ComponentPad*
%ADD14C,0.600000*%
G04 #@! TD*
G04 #@! TA.AperFunction,SMDPad,CuDef*
%ADD15R,2.650000X1.000000*%
G04 #@! TD*
G04 #@! TA.AperFunction,ComponentPad*
%ADD16C,0.457200*%
G04 #@! TD*
G04 #@! TA.AperFunction,ComponentPad*
%ADD17O,2.300000X1.300000*%
G04 #@! TD*
G04 #@! TA.AperFunction,ComponentPad*
%ADD18O,2.600000X1.300000*%
G04 #@! TD*
G04 #@! TA.AperFunction,ComponentPad*
%ADD19C,2.750000*%
G04 #@! TD*
G04 #@! TA.AperFunction,ComponentPad*
%ADD20R,1.700000X1.700000*%
G04 #@! TD*
G04 #@! TA.AperFunction,ComponentPad*
%ADD21O,1.700000X1.700000*%
G04 #@! TD*
G04 #@! TA.AperFunction,ComponentPad*
%ADD22C,3.000000*%
G04 #@! TD*
G04 #@! TA.AperFunction,SMDPad,CuDef*
%ADD23R,2.200000X2.800000*%
G04 #@! TD*
G04 #@! TA.AperFunction,SMDPad,CuDef*
%ADD24R,2.800000X2.800000*%
G04 #@! TD*
G04 #@! TA.AperFunction,ViaPad*
%ADD25C,0.457200*%
G04 #@! TD*
G04 #@! TA.AperFunction,Conductor*
%ADD26C,0.152400*%
G04 #@! TD*
G04 #@! TA.AperFunction,Conductor*
%ADD27C,0.400000*%
G04 #@! TD*
G04 #@! TA.AperFunction,Conductor*
%ADD28C,0.254000*%
G04 #@! TD*
G04 #@! TA.AperFunction,Conductor*
%ADD29C,0.250000*%
G04 #@! TD*
G04 APERTURE END LIST*
D10*
G04 #@! TO.P,J6,1*
G04 #@! TO.N,+12V*
X65800000Y11250000D03*
D11*
G04 #@! TO.P,J6,2*
G04 #@! TO.N,GND2*
X71800000Y11250000D03*
G04 #@! TO.P,J6,3*
G04 #@! TO.N,unconnected-(J6-Pad3)*
X68800000Y15950000D03*
G04 #@! TD*
D12*
G04 #@! TO.P,J3,1,In*
G04 #@! TO.N,/Lick Detection Analog Front End/triax_core*
X7000000Y25000000D03*
G04 #@! TO.P,J3,2,Guard*
G04 #@! TO.N,/Lick Detection Analog Front End/triax_inner_shield*
X4460000Y25000000D03*
D13*
G04 #@! TO.P,J3,3,Shield*
G04 #@! TO.N,GND*
X3190000Y21723400D03*
X9743200Y21723400D03*
X3190000Y28276600D03*
X9743200Y28276600D03*
G04 #@! TD*
D14*
G04 #@! TO.P,U11,13,PAD*
G04 #@! TO.N,GND*
X28650000Y7400000D03*
X27650000Y7400000D03*
D15*
X27650000Y7400000D03*
D14*
X26650000Y7400000D03*
G04 #@! TD*
D16*
G04 #@! TO.P,U4,57,GND*
G04 #@! TO.N,GND*
X47075000Y27037500D03*
X45800000Y27037500D03*
X44525000Y27037500D03*
X47075000Y25762500D03*
X45800000Y25762500D03*
X44525000Y25762500D03*
X47075000Y24487500D03*
X45800000Y24487500D03*
X44525000Y24487500D03*
G04 #@! TD*
D17*
G04 #@! TO.P,J5,S1,SHIELD*
G04 #@! TO.N,GND1*
X73675000Y20680000D03*
D18*
X77500000Y20680000D03*
D17*
X73675000Y29320000D03*
D18*
X77500000Y29320000D03*
G04 #@! TD*
D19*
G04 #@! TO.P,H1,1,1*
G04 #@! TO.N,GND*
X10100000Y15750000D03*
X5100000Y15750000D03*
X10100000Y8250000D03*
X5100000Y8250000D03*
G04 #@! TD*
D20*
G04 #@! TO.P,J2,1,Pin_1*
G04 #@! TO.N,/Harp Core RP2040 + Isolated USB/UART0_TXD*
X49500000Y36000000D03*
D21*
G04 #@! TO.P,J2,2,Pin_2*
G04 #@! TO.N,/Harp Core RP2040 + Isolated USB/UART0_RXD*
X52040000Y36000000D03*
G04 #@! TO.P,J2,3,Pin_3*
G04 #@! TO.N,GND*
X54580000Y36000000D03*
G04 #@! TD*
D22*
G04 #@! TO.P,TP1,1,1*
G04 #@! TO.N,Net-(R22-Pad2)*
X34300000Y2200000D03*
G04 #@! TD*
D23*
G04 #@! TO.P,J4,R*
G04 #@! TO.N,+3V3*
X76100000Y43300000D03*
G04 #@! TO.P,J4,S*
G04 #@! TO.N,GND*
X78100000Y35900000D03*
D24*
G04 #@! TO.P,J4,T*
G04 #@! TO.N,/Harp Core RP2040 + Isolated USB/HARP_CLK_SYNC*
X68700000Y35900000D03*
G04 #@! TD*
D25*
G04 #@! TO.N,GND*
X59100000Y17400000D03*
X52000000Y49200000D03*
X34200000Y12500000D03*
X800000Y34000000D03*
X27100000Y31300000D03*
X38000000Y49200000D03*
X62000000Y49200000D03*
X32000000Y800000D03*
X52000000Y800000D03*
X79200000Y42000000D03*
X56000000Y49200000D03*
X74619498Y44000000D03*
X800000Y44000000D03*
X6000000Y800000D03*
X55000000Y49200000D03*
X41000000Y49200000D03*
X71000000Y49200000D03*
X800000Y40000000D03*
X800000Y33000000D03*
X54700000Y45200000D03*
X10000000Y800000D03*
X29000000Y49200000D03*
X800000Y27000000D03*
X73000000Y800000D03*
X13000000Y800000D03*
X23000000Y49200000D03*
X36000000Y49200000D03*
X44200000Y36400000D03*
X27405500Y9000000D03*
X800000Y30000000D03*
X800000Y7000000D03*
X800000Y8000000D03*
X800000Y16000000D03*
X45100000Y14950000D03*
X17000000Y49200000D03*
X66000000Y800000D03*
X26200000Y36100000D03*
X62900000Y38400000D03*
X46000000Y800000D03*
X800000Y14000000D03*
X24000000Y49200000D03*
X800000Y13000000D03*
X75000000Y49200000D03*
X75000000Y800000D03*
X43000000Y49200000D03*
X11000000Y800000D03*
X30000000Y49200000D03*
X49400000Y21400000D03*
X8000000Y49200000D03*
X32800000Y32600000D03*
X800000Y29000000D03*
X79200000Y35000000D03*
X800000Y10000000D03*
X73000000Y49200000D03*
X78000000Y16900000D03*
X49000000Y800000D03*
X800000Y6000000D03*
X79200000Y5000000D03*
X48000000Y800000D03*
X34900000Y37200000D03*
X58000000Y800000D03*
X79200000Y37000000D03*
X79200000Y38000000D03*
X15000000Y800000D03*
X25000000Y800000D03*
X800000Y41000000D03*
X20500000Y22200000D03*
X56100000Y20425000D03*
X20000000Y800000D03*
X47000000Y800000D03*
X20000000Y49200000D03*
X54000000Y49200000D03*
X45200000Y8400000D03*
X32000000Y49200000D03*
X77900000Y31100000D03*
X13000000Y49200000D03*
X69000000Y800000D03*
X78100000Y34200000D03*
X53900000Y28100000D03*
X53900000Y26100000D03*
X63000000Y800000D03*
X65100000Y31300000D03*
X22000000Y49200000D03*
X40000000Y800000D03*
X79200000Y32000000D03*
X29000000Y800000D03*
X48000000Y49200000D03*
X800000Y19000000D03*
X37100000Y37200000D03*
X44000000Y49200000D03*
X800000Y23000000D03*
X45000000Y800000D03*
X44000000Y800000D03*
X49000000Y49200000D03*
X57000000Y800000D03*
X800000Y21000000D03*
X79200000Y17000000D03*
X43000000Y800000D03*
X50900000Y32600000D03*
X42000000Y49200000D03*
X56175000Y6675000D03*
X52300000Y7737500D03*
X54000000Y800000D03*
X24000000Y800000D03*
X39100000Y37100000D03*
X79200000Y40000000D03*
X36800000Y24700000D03*
X18000000Y800000D03*
X800000Y15000000D03*
X66000000Y49200000D03*
X70000000Y49200000D03*
X79200000Y36000000D03*
X21000000Y800000D03*
X63600000Y43000000D03*
X79200000Y15000000D03*
X62100000Y30000000D03*
X48200000Y15000000D03*
X79200000Y9000000D03*
X38900000Y24600000D03*
X41500000Y37200000D03*
X79200000Y41000000D03*
X32000000Y10300000D03*
X56100000Y27900000D03*
X24800000Y26900000D03*
X31000000Y49200000D03*
X57000000Y49200000D03*
X39000000Y49200000D03*
X79200000Y6000000D03*
X25000000Y49200000D03*
X46000000Y49200000D03*
X64000000Y49200000D03*
X800000Y5000000D03*
X27000000Y49200000D03*
X37100000Y19950000D03*
X68000000Y800000D03*
X45000000Y49200000D03*
X5000000Y49200000D03*
X37000000Y800000D03*
X800000Y24000000D03*
X53000000Y49200000D03*
X61800000Y12600000D03*
X79200000Y39000000D03*
X36000000Y800000D03*
X79200000Y14000000D03*
X9000000Y49200000D03*
X21500000Y29200000D03*
X59100000Y16400000D03*
X800000Y35000000D03*
X79200000Y31000000D03*
X56825000Y6675000D03*
X22000000Y800000D03*
X47900000Y33800000D03*
X11000000Y49200000D03*
X26743300Y38086654D03*
X64600000Y41200000D03*
X14000000Y49200000D03*
X5000000Y800000D03*
X38800000Y26900000D03*
X800000Y28000000D03*
X7000000Y49200000D03*
X800000Y42000000D03*
X26000000Y49200000D03*
X56100000Y19700000D03*
X79200000Y44000000D03*
X75000000Y35200000D03*
X800000Y17000000D03*
X54700000Y42600000D03*
X7000000Y800000D03*
X38900000Y25500000D03*
X35980000Y15480000D03*
X41000000Y800000D03*
X50800000Y17400000D03*
X32300000Y26600000D03*
X19000000Y49200000D03*
X800000Y31000000D03*
X25000000Y25000000D03*
X800000Y36000000D03*
X52900000Y23100000D03*
X79200000Y43000000D03*
X800000Y39000000D03*
X45200000Y6500000D03*
X61300000Y3350000D03*
X29800000Y35900000D03*
X800000Y43000000D03*
X9000000Y800000D03*
X800000Y20000000D03*
X6000000Y49200000D03*
X56000000Y800000D03*
X67000000Y49200000D03*
X59000000Y49200000D03*
X800000Y18000000D03*
X61000000Y800000D03*
X61000000Y49200000D03*
X17200000Y19700000D03*
X12000000Y49200000D03*
X79200000Y34000000D03*
X71000000Y800000D03*
X39000000Y800000D03*
X47500000Y7300000D03*
X37000000Y49200000D03*
X23000000Y800000D03*
X59000000Y800000D03*
X800000Y9000000D03*
X74000000Y800000D03*
X53000000Y800000D03*
X39800000Y29200000D03*
X800000Y25000000D03*
X79200000Y33000000D03*
X10000000Y49200000D03*
X34800000Y24700000D03*
X60800000Y7700000D03*
X64000000Y800000D03*
X35000000Y49200000D03*
X34000000Y49200000D03*
X42000000Y15850000D03*
X79200000Y7000000D03*
X28000000Y49200000D03*
X19000000Y800000D03*
X16000000Y800000D03*
X15000000Y49200000D03*
X73500000Y35100000D03*
X79200000Y16000000D03*
X65000000Y49200000D03*
X79200000Y45000000D03*
X52300000Y21100000D03*
X31000000Y800000D03*
X51000000Y800000D03*
X60000000Y49200000D03*
X55000000Y800000D03*
X63000000Y49200000D03*
X14000000Y800000D03*
X29800000Y19100000D03*
X60000000Y800000D03*
X42000000Y800000D03*
X60200000Y29000000D03*
X52900000Y22100000D03*
X800000Y11000000D03*
X62100000Y38400000D03*
X20500000Y20900000D03*
X27000000Y800000D03*
X72000000Y49200000D03*
X79200000Y11000000D03*
X8000000Y800000D03*
X21500000Y27800000D03*
X25700000Y6300000D03*
X30000000Y800000D03*
X48600000Y32400000D03*
X40000000Y49200000D03*
X16000000Y49200000D03*
X800000Y32000000D03*
X800000Y26000000D03*
X56825000Y10125000D03*
X21000000Y49200000D03*
X45100000Y13200000D03*
X51000000Y49200000D03*
X56175000Y10125000D03*
X79200000Y8000000D03*
X50800000Y16400000D03*
X60200000Y23300000D03*
X30800000Y11500000D03*
X79200000Y13000000D03*
X18000000Y49200000D03*
X62000000Y800000D03*
X800000Y12000000D03*
X33000000Y49200000D03*
X34800000Y26900000D03*
X48500000Y7300000D03*
X26000000Y800000D03*
X46800000Y18100000D03*
X55900000Y29900000D03*
X27000000Y26320000D03*
X12000000Y800000D03*
X64200000Y38100000D03*
X65000000Y800000D03*
X68000000Y49200000D03*
X50000000Y800000D03*
X26100000Y20900000D03*
X74000000Y49200000D03*
X50000000Y49200000D03*
X79200000Y10000000D03*
X69000000Y49200000D03*
X51200000Y12600000D03*
X47000000Y49200000D03*
X72000000Y800000D03*
X58000000Y49200000D03*
X800000Y38000000D03*
X800000Y45000000D03*
X800000Y22000000D03*
X29457443Y8600000D03*
X53900000Y27100000D03*
X33243300Y19900000D03*
X800000Y37000000D03*
X70000000Y800000D03*
X28000000Y800000D03*
X17000000Y800000D03*
X79200000Y12000000D03*
X38000000Y800000D03*
X67000000Y800000D03*
X43500000Y30100000D03*
G04 #@! TO.N,+3V3*
X48600000Y30100000D03*
X56100000Y23935000D03*
X63900000Y41900000D03*
X51100000Y26100000D03*
X26743300Y38695757D03*
X48400000Y21400000D03*
X40780000Y29200000D03*
X45100000Y16950000D03*
X37700000Y26400000D03*
X41400000Y24100000D03*
X49300000Y22300000D03*
X44700000Y30100000D03*
X50200000Y22800000D03*
X56100000Y21400000D03*
X51600000Y25800000D03*
X56100000Y22665000D03*
X56200000Y39500000D03*
X50100000Y21700000D03*
X56100000Y18855000D03*
X51300000Y39400000D03*
X48200000Y16900000D03*
X55300000Y39400000D03*
X54875000Y12537500D03*
X35800000Y20700000D03*
X52300000Y11937500D03*
X53600000Y29900000D03*
X53000000Y12600000D03*
X37700000Y20700000D03*
X41300000Y25550000D03*
X31950000Y20650000D03*
X55525000Y12537500D03*
X72500000Y35100000D03*
X45340397Y19800000D03*
G04 #@! TO.N,GND1*
X79200000Y19000000D03*
X71800000Y24921900D03*
X71800000Y23769500D03*
X79200000Y18000000D03*
G04 #@! TO.N,+1V1*
X48300000Y24000000D03*
X43200000Y25100000D03*
X48300000Y25900000D03*
G04 #@! TO.N,+2V5*
X31890000Y6390000D03*
X27000000Y27900000D03*
X33200000Y12500000D03*
X20500000Y29200000D03*
X29800000Y37137500D03*
X20520000Y27800000D03*
G04 #@! TO.N,-2V5*
X29800000Y22500000D03*
X30500000Y14500000D03*
X25400000Y9000000D03*
X21500000Y20900000D03*
X21480000Y22200000D03*
X31800000Y32600000D03*
G04 #@! TO.N,+5V*
X60800000Y12000000D03*
X26400000Y5300000D03*
X67000000Y41200000D03*
X28047936Y8996564D03*
X57475000Y12537500D03*
X58125000Y12537500D03*
X48500000Y4900000D03*
X29257443Y5892412D03*
X47500000Y4900000D03*
X60000000Y12600000D03*
G04 #@! TO.N,VREF_1V25*
X31200000Y17700000D03*
X43200000Y6300000D03*
G04 #@! TO.N,/Lick Detection Analog Front End/triax_inner_shield*
X15900000Y26700000D03*
X7600000Y23300000D03*
X13400000Y26700000D03*
X9600000Y26700000D03*
X8600000Y26700000D03*
X10600000Y23300000D03*
X14900000Y26700000D03*
X11600000Y23300000D03*
X11600000Y26700000D03*
X7600000Y26700000D03*
X9600000Y23300000D03*
X6600000Y26700000D03*
X15900000Y23300000D03*
X8600000Y23300000D03*
X5700000Y26200000D03*
X10600000Y26700000D03*
X5700000Y23800000D03*
X13400000Y23300000D03*
X6600000Y23300000D03*
X14900000Y23300000D03*
G04 #@! TO.N,/Harp Core RP2040 + Isolated USB/HARP_CLK_SYNC*
X46200000Y30300000D03*
G04 #@! TO.N,Net-(U4-GPIO24)*
X62600000Y17900000D03*
X59900000Y17400000D03*
G04 #@! TO.N,Net-(U4-GPIO25)*
X59600000Y29700000D03*
X65100000Y32100000D03*
G04 #@! TO.N,Net-(U16-+)*
X33800000Y16800000D03*
X33800000Y15500000D03*
G04 #@! TO.N,Net-(U15A--)*
X27000000Y22500000D03*
X28200000Y22500000D03*
G04 #@! TO.N,/Harp Core RP2040 + Isolated USB/FREQ_SEL_DIP*
X49400000Y43500000D03*
X46900000Y33100000D03*
X45800000Y32000000D03*
X49400000Y41900000D03*
G04 #@! TO.N,/Harp Core RP2040 + Isolated USB/GAIN_SEL_DIP*
X46243300Y33700000D03*
X45202064Y32602064D03*
G04 #@! TO.N,Net-(U15B--)*
X28900000Y29500000D03*
X27700000Y29500000D03*
G04 #@! TO.N,GAIN_SEL*
X37600000Y18900000D03*
X35000000Y18900000D03*
X41900000Y22100000D03*
X26800000Y39400000D03*
X31200000Y18900000D03*
G04 #@! TD*
D26*
G04 #@! TO.N,GND*
X78100000Y35900000D02*
X78100000Y34200000D01*
D27*
G04 #@! TO.N,+3V3*
X35800000Y20700000D02*
X37700000Y20700000D01*
D28*
X76000000Y42800000D02*
X72500000Y39300000D01*
X72500000Y39300000D02*
X72500000Y35100000D01*
X58600000Y41900000D02*
X74700000Y41900000D01*
X74700000Y41900000D02*
X76000000Y43200000D01*
X76000000Y43200000D02*
X76000000Y42800000D01*
X56200000Y39500000D02*
X58600000Y41900000D01*
D27*
X32000000Y20700000D02*
X31950000Y20650000D01*
X35800000Y20700000D02*
X32000000Y20700000D01*
D28*
X76000000Y43200000D02*
X76100000Y43300000D01*
D26*
G04 #@! TO.N,GND1*
X77500000Y20680000D02*
X73675000Y20680000D01*
X71800000Y24921900D02*
X71800000Y23769500D01*
X77500000Y29320000D02*
X73675000Y29320000D01*
D27*
G04 #@! TO.N,-2V5*
X30800000Y31600000D02*
X30800000Y23500000D01*
X31800000Y32600000D02*
X30800000Y31600000D01*
X30800000Y23500000D02*
X29800000Y22500000D01*
D29*
G04 #@! TO.N,+5V*
X29300000Y5934969D02*
X29300000Y8000000D01*
X28303436Y8996564D02*
X28047936Y8996564D01*
X29257443Y5892412D02*
X29300000Y5934969D01*
X29300000Y8000000D02*
X28303436Y8996564D01*
D27*
G04 #@! TO.N,VREF_1V25*
X43200000Y6300000D02*
X42700000Y6300000D01*
X42700000Y6300000D02*
X39400000Y9600000D01*
X39400000Y9600000D02*
X39400000Y14000000D01*
X39400000Y14000000D02*
X35700000Y17700000D01*
X35700000Y17700000D02*
X31200000Y17700000D01*
D28*
G04 #@! TO.N,/Lick Detection Analog Front End/triax_inner_shield*
X8407107Y23707107D02*
X8146446Y23446446D01*
X8146447Y26553553D02*
X8407107Y26292893D01*
X5660000Y26200000D02*
X5700000Y26200000D01*
X4460000Y25000000D02*
X5660000Y26200000D01*
X4460000Y25000000D02*
X5660000Y23800000D01*
X8700000Y25585786D02*
X8700000Y24414214D01*
X6600000Y26700000D02*
X7600000Y26700000D01*
X5660000Y23800000D02*
X5700000Y23800000D01*
X6574214Y23300000D02*
X6600000Y23300000D01*
X7600000Y26700000D02*
X7792893Y26700000D01*
X5700000Y26240000D02*
X5867107Y26407107D01*
X5700000Y23760000D02*
X5867107Y23592893D01*
X6600000Y23300000D02*
X7600000Y23300000D01*
X5700000Y26200000D02*
X5700000Y26240000D01*
X6574214Y26700000D02*
X6600000Y26700000D01*
X7792893Y23300000D02*
X7600000Y23300000D01*
X5700000Y23800000D02*
X5700000Y23760000D01*
X5867100Y23592886D02*
G75*
G03*
X6574214Y23300000I707100J707114D01*
G01*
X8407114Y23707100D02*
G75*
G03*
X8700000Y24414214I-707114J707100D01*
G01*
X6574214Y26699990D02*
G75*
G03*
X5867107Y26407107I-14J-999990D01*
G01*
X8146450Y26553556D02*
G75*
G03*
X7792893Y26700000I-353550J-353556D01*
G01*
X7792893Y23300005D02*
G75*
G03*
X8146446Y23446446I7J499995D01*
G01*
X8699990Y25585786D02*
G75*
G03*
X8407107Y26292893I-999990J14D01*
G01*
D26*
G04 #@! TO.N,/Harp Core RP2040 + Isolated USB/HARP_CLK_SYNC*
X49914214Y34600000D02*
X67400000Y34600000D01*
X46200000Y31300000D02*
X49207107Y34307107D01*
X67400000Y34600000D02*
X68700000Y35900000D01*
X46200000Y30300000D02*
X46200000Y31300000D01*
X49914214Y34599990D02*
G75*
G03*
X49207107Y34307107I-14J-999990D01*
G01*
G04 #@! TO.N,Net-(U4-GPIO24)*
X60400000Y17900000D02*
X62600000Y17900000D01*
X59900000Y17400000D02*
X60400000Y17900000D01*
G04 #@! TO.N,Net-(U4-GPIO25)*
X62000000Y32100000D02*
X59600000Y29700000D01*
X65100000Y32100000D02*
X62000000Y32100000D01*
G04 #@! TO.N,Net-(U16-+)*
X33800000Y16800000D02*
X33800000Y15500000D01*
G04 #@! TO.N,Net-(U15A--)*
X27000000Y22500000D02*
X28200000Y22500000D01*
G04 #@! TO.N,/Harp Core RP2040 + Isolated USB/FREQ_SEL_DIP*
X46900000Y33100000D02*
X45800000Y32000000D01*
X49400000Y43500000D02*
X49400000Y41900000D01*
G04 #@! TO.N,/Harp Core RP2040 + Isolated USB/GAIN_SEL_DIP*
X45202064Y32658764D02*
X46243300Y33700000D01*
X45202064Y32602064D02*
X45202064Y32658764D01*
G04 #@! TO.N,Net-(U15B--)*
X28900000Y29500000D02*
X27700000Y29500000D01*
G04 #@! TO.N,GAIN_SEL*
X35000000Y18900000D02*
X37600000Y18900000D01*
X40300000Y39400000D02*
X41957200Y37742800D01*
X26800000Y39400000D02*
X40300000Y39400000D01*
X41957200Y22157200D02*
X41900000Y22100000D01*
X31200000Y18900000D02*
X35000000Y18900000D01*
X41957200Y37742800D02*
X41957200Y22157200D01*
G04 #@! TD*
G04 #@! TA.AperFunction,Conductor*
G04 #@! TO.N,GND*
G36*
X77001735Y49618402D02*
G01*
X77132594Y49611054D01*
X77289712Y49602230D01*
X77296599Y49601454D01*
X77579234Y49553433D01*
X77586017Y49551885D01*
X77861495Y49472522D01*
X77868055Y49470225D01*
X77984861Y49421843D01*
X78132916Y49360517D01*
X78139173Y49357502D01*
X78390075Y49218833D01*
X78395967Y49215131D01*
X78629764Y49049243D01*
X78635205Y49044905D01*
X78848960Y48853881D01*
X78853880Y48848961D01*
X79044904Y48635206D01*
X79049242Y48629765D01*
X79215130Y48395968D01*
X79218832Y48390076D01*
X79357501Y48139174D01*
X79360521Y48132905D01*
X79470224Y47868056D01*
X79472523Y47861489D01*
X79551884Y47586018D01*
X79553432Y47579235D01*
X79601451Y47296617D01*
X79602230Y47289703D01*
X79618402Y47001737D01*
X79618500Y46998259D01*
X79618500Y37539632D01*
X79598815Y37472593D01*
X79546011Y37426838D01*
X79476853Y37416894D01*
X79413297Y37445919D01*
X79391398Y37470740D01*
X79383122Y37483125D01*
X79299104Y37539264D01*
X79299103Y37539265D01*
X79225021Y37554000D01*
X78227000Y37554000D01*
X78227000Y34246001D01*
X79225015Y34246001D01*
X79299106Y34260738D01*
X79299109Y34260739D01*
X79383123Y34316877D01*
X79391397Y34329258D01*
X79445009Y34374064D01*
X79514333Y34382773D01*
X79577361Y34352619D01*
X79614081Y34293176D01*
X79618500Y34260369D01*
X79618500Y19416744D01*
X79598815Y19349705D01*
X79546011Y19303950D01*
X79476853Y19294006D01*
X79436844Y19310244D01*
X79435731Y19308057D01*
X79319356Y19367352D01*
X79200002Y19386255D01*
X79199998Y19386255D01*
X79080643Y19367352D01*
X78972966Y19312489D01*
X78887511Y19227034D01*
X78832648Y19119357D01*
X78813745Y19000003D01*
X78813745Y18999998D01*
X78832648Y18880644D01*
X78887511Y18772967D01*
X78972966Y18687512D01*
X79080643Y18632649D01*
X79144891Y18622473D01*
X79198971Y18596837D01*
X79255108Y18622473D01*
X79319356Y18632649D01*
X79319357Y18632650D01*
X79319359Y18632650D01*
X79398487Y18672967D01*
X79435731Y18691943D01*
X79437168Y18689121D01*
X79487395Y18707053D01*
X79555452Y18691243D01*
X79604157Y18641147D01*
X79618500Y18583257D01*
X79618500Y18416744D01*
X79598815Y18349705D01*
X79546011Y18303950D01*
X79476853Y18294006D01*
X79436844Y18310244D01*
X79435731Y18308057D01*
X79319356Y18367352D01*
X79255108Y18377527D01*
X79201027Y18403164D01*
X79144891Y18377527D01*
X79080643Y18367352D01*
X78972966Y18312489D01*
X78887511Y18227034D01*
X78832648Y18119357D01*
X78813745Y18000003D01*
X78813745Y17999998D01*
X78832648Y17880644D01*
X78887511Y17772967D01*
X78972966Y17687512D01*
X79080643Y17632649D01*
X79199998Y17613745D01*
X79200000Y17613745D01*
X79200002Y17613745D01*
X79319356Y17632649D01*
X79319357Y17632650D01*
X79319359Y17632650D01*
X79398487Y17672967D01*
X79435731Y17691943D01*
X79437168Y17689121D01*
X79487395Y17707053D01*
X79555452Y17691243D01*
X79604157Y17641147D01*
X79618500Y17583257D01*
X79618500Y3001742D01*
X79618402Y2998264D01*
X79602230Y2710298D01*
X79601451Y2703384D01*
X79553432Y2420766D01*
X79551884Y2413983D01*
X79472523Y2138512D01*
X79470224Y2131945D01*
X79360521Y1867096D01*
X79357501Y1860827D01*
X79218832Y1609925D01*
X79215130Y1604033D01*
X79049242Y1370236D01*
X79044904Y1364795D01*
X78853880Y1151040D01*
X78848960Y1146120D01*
X78635205Y955096D01*
X78629764Y950758D01*
X78395967Y784870D01*
X78390075Y781168D01*
X78139173Y642499D01*
X78132904Y639479D01*
X77868055Y529776D01*
X77861488Y527477D01*
X77586017Y448116D01*
X77579234Y446568D01*
X77296616Y398549D01*
X77289702Y397770D01*
X77001736Y381598D01*
X76998258Y381500D01*
X34851576Y381500D01*
X34784537Y401185D01*
X34738782Y453989D01*
X34728838Y523147D01*
X34757863Y586703D01*
X34808315Y620156D01*
X34807853Y621273D01*
X35052721Y722701D01*
X35274551Y858639D01*
X35274551Y858640D01*
X35274554Y858641D01*
X35472391Y1027609D01*
X35641359Y1225446D01*
X35670195Y1272501D01*
X35777299Y1447279D01*
X35876862Y1687646D01*
X35892225Y1751636D01*
X35937598Y1940630D01*
X35958011Y2200000D01*
X35937598Y2459370D01*
X35918025Y2540897D01*
X35876862Y2712355D01*
X35777299Y2952722D01*
X35707660Y3066363D01*
X75268687Y3066363D01*
X75278846Y2801301D01*
X75329350Y2540894D01*
X75419009Y2291257D01*
X75419012Y2291250D01*
X75545726Y2058228D01*
X75545729Y2058223D01*
X75706530Y1847272D01*
X75706534Y1847267D01*
X75897657Y1663330D01*
X76114617Y1510723D01*
X76352331Y1393024D01*
X76605225Y1312991D01*
X76867372Y1272500D01*
X76867376Y1272500D01*
X77066219Y1272500D01*
X77066220Y1272500D01*
X77264478Y1287721D01*
X77522756Y1348161D01*
X77577528Y1370236D01*
X77768774Y1447314D01*
X77768779Y1447317D01*
X77768782Y1447318D01*
X77996788Y1582869D01*
X78201430Y1751636D01*
X78377912Y1949664D01*
X78448215Y2058224D01*
X78522094Y2172306D01*
X78522094Y2172308D01*
X78522096Y2172310D01*
X78630604Y2414357D01*
X78700892Y2670131D01*
X78731313Y2933637D01*
X78721153Y3198699D01*
X78670650Y3459103D01*
X78641107Y3541359D01*
X78580990Y3708744D01*
X78580987Y3708751D01*
X78454273Y3941773D01*
X78454270Y3941778D01*
X78293469Y4152729D01*
X78293466Y4152733D01*
X78102343Y4336670D01*
X78102339Y4336673D01*
X77885382Y4489278D01*
X77647670Y4606976D01*
X77647667Y4606977D01*
X77394777Y4687009D01*
X77289916Y4703206D01*
X77132628Y4727500D01*
X76933780Y4727500D01*
X76735522Y4712279D01*
X76735518Y4712279D01*
X76477246Y4651840D01*
X76477236Y4651837D01*
X76231225Y4552687D01*
X76231216Y4552682D01*
X76003213Y4417132D01*
X75798571Y4248365D01*
X75622088Y4050337D01*
X75622081Y4050328D01*
X75477905Y3827695D01*
X75477904Y3827691D01*
X75369395Y3585643D01*
X75299108Y3329872D01*
X75268687Y3066363D01*
X35707660Y3066363D01*
X35641361Y3174552D01*
X35641357Y3174557D01*
X35580547Y3245756D01*
X35472391Y3372391D01*
X35364233Y3464766D01*
X35274556Y3541358D01*
X35274551Y3541362D01*
X35052721Y3677300D01*
X34812354Y3776863D01*
X34559373Y3837598D01*
X34300000Y3858011D01*
X34040626Y3837598D01*
X33787645Y3776863D01*
X33547278Y3677300D01*
X33325448Y3541362D01*
X33325443Y3541358D01*
X33127609Y3372391D01*
X32958642Y3174557D01*
X32958638Y3174552D01*
X32822700Y2952722D01*
X32723137Y2712355D01*
X32662402Y2459374D01*
X32641989Y2200000D01*
X32662402Y1940627D01*
X32723137Y1687646D01*
X32822700Y1447279D01*
X32958638Y1225449D01*
X32958642Y1225444D01*
X33018145Y1155775D01*
X33127609Y1027609D01*
X33254244Y919453D01*
X33325443Y858643D01*
X33325448Y858639D01*
X33547278Y722701D01*
X33792147Y621273D01*
X33791650Y620076D01*
X33844419Y583992D01*
X33871616Y519633D01*
X33859701Y450787D01*
X33812456Y399312D01*
X33748424Y381500D01*
X3001742Y381500D01*
X2998265Y381598D01*
X2710297Y397770D01*
X2703385Y398549D01*
X2663072Y405399D01*
X2420765Y446568D01*
X2413982Y448116D01*
X2138511Y527477D01*
X2131944Y529776D01*
X1906546Y623138D01*
X1867091Y639481D01*
X1860826Y642499D01*
X1609924Y781168D01*
X1604032Y784870D01*
X1370235Y950758D01*
X1364794Y955096D01*
X1151039Y1146120D01*
X1146119Y1151040D01*
X955095Y1364795D01*
X950757Y1370236D01*
X784869Y1604033D01*
X781167Y1609925D01*
X642498Y1860827D01*
X639483Y1867084D01*
X560309Y2058228D01*
X529775Y2131945D01*
X527476Y2138512D01*
X517740Y2172306D01*
X448115Y2413983D01*
X446567Y2420766D01*
X440007Y2459374D01*
X398546Y2703401D01*
X397770Y2710288D01*
X385227Y2933638D01*
X381598Y2998265D01*
X381500Y3001742D01*
X381500Y3066363D01*
X1268687Y3066363D01*
X1278846Y2801301D01*
X1329350Y2540894D01*
X1419009Y2291257D01*
X1419012Y2291250D01*
X1545726Y2058228D01*
X1545729Y2058223D01*
X1706530Y1847272D01*
X1706534Y1847267D01*
X1897657Y1663330D01*
X2114617Y1510723D01*
X2352331Y1393024D01*
X2605225Y1312991D01*
X2867372Y1272500D01*
X2867376Y1272500D01*
X3066219Y1272500D01*
X3066220Y1272500D01*
X3264478Y1287721D01*
X3522756Y1348161D01*
X3577528Y1370236D01*
X3768774Y1447314D01*
X3768779Y1447317D01*
X3768782Y1447318D01*
X3996788Y1582869D01*
X4201430Y1751636D01*
X4377912Y1949664D01*
X4448215Y2058224D01*
X4522094Y2172306D01*
X4522094Y2172308D01*
X4522096Y2172310D01*
X4630604Y2414357D01*
X4700892Y2670131D01*
X4731313Y2933637D01*
X4721153Y3198699D01*
X4670650Y3459103D01*
X4641107Y3541359D01*
X4580990Y3708744D01*
X4580987Y3708751D01*
X4454273Y3941773D01*
X4454270Y3941778D01*
X4293469Y4152729D01*
X4293466Y4152733D01*
X4102343Y4336670D01*
X4102339Y4336673D01*
X3885382Y4489278D01*
X3647670Y4606976D01*
X3647667Y4606977D01*
X3394777Y4687009D01*
X3289916Y4703206D01*
X3132628Y4727500D01*
X2933780Y4727500D01*
X2735522Y4712279D01*
X2735518Y4712279D01*
X2477246Y4651840D01*
X2477236Y4651837D01*
X2231225Y4552687D01*
X2231216Y4552682D01*
X2003213Y4417132D01*
X1798571Y4248365D01*
X1622088Y4050337D01*
X1622081Y4050328D01*
X1477905Y3827695D01*
X1477904Y3827691D01*
X1369395Y3585643D01*
X1299108Y3329872D01*
X1268687Y3066363D01*
X381500Y3066363D01*
X381500Y4899998D01*
X47113745Y4899998D01*
X47132648Y4780644D01*
X47187511Y4672967D01*
X47272966Y4587512D01*
X47380643Y4532649D01*
X47499998Y4513745D01*
X47500000Y4513745D01*
X47500002Y4513745D01*
X47619356Y4532649D01*
X47619357Y4532650D01*
X47619359Y4532650D01*
X47727035Y4587513D01*
X47812487Y4672965D01*
X47867350Y4780641D01*
X47867350Y4780643D01*
X47867351Y4780644D01*
X47877527Y4844892D01*
X47903163Y4898973D01*
X47902224Y4901029D01*
X48096836Y4901029D01*
X48122473Y4844892D01*
X48132648Y4780644D01*
X48187511Y4672967D01*
X48272966Y4587512D01*
X48380643Y4532649D01*
X48499998Y4513745D01*
X48500000Y4513745D01*
X48500002Y4513745D01*
X48619356Y4532649D01*
X48619357Y4532650D01*
X48619359Y4532650D01*
X48727035Y4587513D01*
X48812487Y4672965D01*
X48867350Y4780641D01*
X48867350Y4780643D01*
X48867351Y4780644D01*
X48886255Y4899998D01*
X48886255Y4900003D01*
X48867351Y5019357D01*
X48812488Y5127034D01*
X48727033Y5212489D01*
X48619356Y5267352D01*
X48500002Y5286255D01*
X48499998Y5286255D01*
X48380643Y5267352D01*
X48272966Y5212489D01*
X48187511Y5127034D01*
X48132648Y5019357D01*
X48122473Y4955109D01*
X48096836Y4901029D01*
X47902224Y4901029D01*
X47877527Y4955109D01*
X47867351Y5019357D01*
X47812488Y5127034D01*
X47727033Y5212489D01*
X47619356Y5267352D01*
X47500002Y5286255D01*
X47499998Y5286255D01*
X47380643Y5267352D01*
X47272966Y5212489D01*
X47187511Y5127034D01*
X47132648Y5019357D01*
X47113745Y4900003D01*
X47113745Y4899998D01*
X381500Y4899998D01*
X381500Y5299998D01*
X26013744Y5299998D01*
X26032648Y5180644D01*
X26087511Y5072967D01*
X26172966Y4987512D01*
X26280643Y4932649D01*
X26399998Y4913745D01*
X26400000Y4913745D01*
X26400002Y4913745D01*
X26519356Y4932649D01*
X26519357Y4932650D01*
X26519359Y4932650D01*
X26627035Y4987513D01*
X26712487Y5072965D01*
X26767350Y5180641D01*
X26767350Y5180643D01*
X26767351Y5180644D01*
X26786255Y5299998D01*
X26786255Y5300003D01*
X26767351Y5419357D01*
X26712488Y5527034D01*
X26627033Y5612489D01*
X26519356Y5667352D01*
X26400002Y5686255D01*
X26399998Y5686255D01*
X26280643Y5667352D01*
X26172966Y5612489D01*
X26087511Y5527034D01*
X26032648Y5419357D01*
X26013744Y5300003D01*
X26013744Y5299998D01*
X381500Y5299998D01*
X381500Y8250000D01*
X3465963Y8250000D01*
X3486081Y7994377D01*
X3545938Y7745053D01*
X3644061Y7508163D01*
X3778032Y7289542D01*
X3778033Y7289540D01*
X3861826Y7191432D01*
X4362193Y7691800D01*
X4408805Y7627645D01*
X4539536Y7509934D01*
X4041430Y7011828D01*
X4139539Y6928034D01*
X4139541Y6928033D01*
X4358162Y6794062D01*
X4595052Y6695939D01*
X4844376Y6636082D01*
X5099999Y6615964D01*
X5355623Y6636082D01*
X5604947Y6695939D01*
X5841837Y6794062D01*
X6060458Y6928033D01*
X6060459Y6928034D01*
X6158568Y7011828D01*
X5660462Y7509933D01*
X5791195Y7627645D01*
X5837805Y7691799D01*
X6338172Y7191432D01*
X6421966Y7289541D01*
X6421967Y7289542D01*
X6555938Y7508163D01*
X6654061Y7745053D01*
X6713918Y7994377D01*
X6734036Y8250000D01*
X8465963Y8250000D01*
X8486081Y7994377D01*
X8545938Y7745053D01*
X8644061Y7508163D01*
X8778032Y7289542D01*
X8778033Y7289540D01*
X8861826Y7191432D01*
X9362193Y7691800D01*
X9408805Y7627645D01*
X9539536Y7509934D01*
X9041430Y7011828D01*
X9139539Y6928034D01*
X9139541Y6928033D01*
X9358162Y6794062D01*
X9595052Y6695939D01*
X9844376Y6636082D01*
X10100000Y6615964D01*
X10355623Y6636082D01*
X10604947Y6695939D01*
X10841837Y6794062D01*
X11060458Y6928033D01*
X11060459Y6928034D01*
X11158568Y7011828D01*
X10660462Y7509933D01*
X10791195Y7627645D01*
X10837805Y7691799D01*
X11338172Y7191432D01*
X11421966Y7289541D01*
X11421967Y7289542D01*
X11555938Y7508163D01*
X11563741Y7527000D01*
X26071000Y7527000D01*
X26564869Y7527000D01*
X26515514Y7477646D01*
X26494709Y7400000D01*
X26515514Y7322355D01*
X26564869Y7273000D01*
X26071001Y7273000D01*
X26071001Y6874986D01*
X26085737Y6800894D01*
X26085738Y6800891D01*
X26141876Y6716877D01*
X26225895Y6660737D01*
X26225896Y6660736D01*
X26299980Y6646001D01*
X27522999Y6646001D01*
X27523000Y6646002D01*
X27523000Y7273000D01*
X26735131Y7273000D01*
X26784486Y7322354D01*
X26805291Y7400000D01*
X27494709Y7400000D01*
X27515514Y7322355D01*
X27572355Y7265514D01*
X27630254Y7250000D01*
X27669746Y7250000D01*
X27727645Y7265514D01*
X27776999Y7314869D01*
X27777000Y6646001D01*
X28898100Y6646001D01*
X28965139Y6626316D01*
X29010894Y6573512D01*
X29022100Y6522001D01*
X29022100Y6247955D01*
X29002415Y6180916D01*
X28985783Y6160276D01*
X28944954Y6119447D01*
X28890091Y6011769D01*
X28871188Y5892415D01*
X28871188Y5892410D01*
X28890091Y5773056D01*
X28944954Y5665379D01*
X29030409Y5579924D01*
X29138086Y5525061D01*
X29257441Y5506157D01*
X29257443Y5506157D01*
X29257445Y5506157D01*
X29376799Y5525061D01*
X29376800Y5525062D01*
X29376802Y5525062D01*
X29484478Y5579925D01*
X29569930Y5665377D01*
X29624793Y5773053D01*
X29624793Y5773055D01*
X29624794Y5773056D01*
X29643698Y5892410D01*
X29643698Y5892415D01*
X29624794Y6011769D01*
X29591415Y6077280D01*
X29577900Y6133574D01*
X29577900Y6389998D01*
X31503745Y6389998D01*
X31522648Y6270644D01*
X31577511Y6162967D01*
X31662966Y6077512D01*
X31770643Y6022649D01*
X31889998Y6003745D01*
X31890000Y6003745D01*
X31890002Y6003745D01*
X32009356Y6022649D01*
X32009357Y6022650D01*
X32009359Y6022650D01*
X32117035Y6077513D01*
X32202487Y6162965D01*
X32257350Y6270641D01*
X32257350Y6270643D01*
X32257351Y6270644D01*
X32276255Y6389998D01*
X32276255Y6390003D01*
X32257351Y6509357D01*
X32202488Y6617034D01*
X32117033Y6702489D01*
X32009356Y6757352D01*
X31890002Y6776255D01*
X31889998Y6776255D01*
X31770643Y6757352D01*
X31662966Y6702489D01*
X31577511Y6617034D01*
X31522648Y6509357D01*
X31503745Y6390003D01*
X31503745Y6389998D01*
X29577900Y6389998D01*
X29577900Y7941558D01*
X29578495Y7950134D01*
X29580001Y7960936D01*
X29580003Y7960941D01*
X29577966Y8005000D01*
X29577900Y8007863D01*
X29577900Y8025751D01*
X29577900Y8025753D01*
X29577503Y8027872D01*
X29576513Y8036410D01*
X29575204Y8064727D01*
X29573052Y8069599D01*
X29564600Y8096896D01*
X29563623Y8102128D01*
X29548688Y8126248D01*
X29544694Y8133824D01*
X29533238Y8159772D01*
X29529474Y8163536D01*
X29511728Y8185940D01*
X29508928Y8190463D01*
X29486298Y8207552D01*
X29479816Y8213194D01*
X28541267Y9151743D01*
X28535623Y9158229D01*
X28529046Y9166938D01*
X28496454Y9196650D01*
X28494382Y9198628D01*
X28481729Y9211281D01*
X28479948Y9212501D01*
X28473213Y9217837D01*
X28452266Y9236932D01*
X28447298Y9238857D01*
X28422024Y9252179D01*
X28417630Y9255189D01*
X28417629Y9255190D01*
X28417628Y9255190D01*
X28390027Y9261683D01*
X28381819Y9264225D01*
X28355385Y9274465D01*
X28344092Y9276575D01*
X28344593Y9279259D01*
X28293881Y9294149D01*
X28279207Y9305974D01*
X28274970Y9309052D01*
X28167292Y9363916D01*
X28047938Y9382819D01*
X28047934Y9382819D01*
X27928579Y9363916D01*
X27820902Y9309053D01*
X27735447Y9223598D01*
X27680584Y9115921D01*
X27661680Y8996567D01*
X27661680Y8996562D01*
X27680584Y8877208D01*
X27735447Y8769531D01*
X27820902Y8684076D01*
X27928579Y8629213D01*
X28047934Y8610309D01*
X28047936Y8610309D01*
X28047938Y8610309D01*
X28107615Y8619762D01*
X28167295Y8629214D01*
X28167298Y8629216D01*
X28176571Y8632228D01*
X28177660Y8628874D01*
X28228812Y8638510D01*
X28293568Y8612270D01*
X28304188Y8602803D01*
X28541310Y8365681D01*
X28574795Y8304358D01*
X28569811Y8234666D01*
X28527939Y8178733D01*
X28462475Y8154316D01*
X28453629Y8154000D01*
X27777000Y8154000D01*
X27776999Y7485132D01*
X27727645Y7534486D01*
X27669746Y7550000D01*
X27630254Y7550000D01*
X27572355Y7534486D01*
X27515514Y7477646D01*
X27494709Y7400000D01*
X26805291Y7400000D01*
X26784486Y7477645D01*
X26735131Y7527000D01*
X27523000Y7527000D01*
X27523000Y8154000D01*
X26299985Y8154000D01*
X26225893Y8139263D01*
X26225890Y8139262D01*
X26141876Y8083124D01*
X26085736Y7999105D01*
X26085735Y7999104D01*
X26071000Y7925022D01*
X26071000Y7527000D01*
X11563741Y7527000D01*
X11654061Y7745053D01*
X11713918Y7994377D01*
X11734036Y8250000D01*
X11713918Y8505624D01*
X11654061Y8754948D01*
X11555938Y8991838D01*
X11550938Y8999998D01*
X25013744Y8999998D01*
X25032648Y8880644D01*
X25087511Y8772967D01*
X25172966Y8687512D01*
X25280643Y8632649D01*
X25399998Y8613745D01*
X25400000Y8613745D01*
X25400002Y8613745D01*
X25519356Y8632649D01*
X25519357Y8632650D01*
X25519359Y8632650D01*
X25627035Y8687513D01*
X25712487Y8772965D01*
X25767350Y8880641D01*
X25767350Y8880643D01*
X25767351Y8880644D01*
X25786255Y8999998D01*
X25786255Y9000003D01*
X25767351Y9119357D01*
X25712488Y9227034D01*
X25627033Y9312489D01*
X25519356Y9367352D01*
X25400002Y9386255D01*
X25399998Y9386255D01*
X25280643Y9367352D01*
X25172966Y9312489D01*
X25087511Y9227034D01*
X25032648Y9119357D01*
X25013744Y9000003D01*
X25013744Y8999998D01*
X11550938Y8999998D01*
X11421967Y9210459D01*
X11421966Y9210461D01*
X11338172Y9308570D01*
X10837804Y8808202D01*
X10791195Y8872355D01*
X10660462Y8990068D01*
X11158568Y9488174D01*
X11060460Y9571967D01*
X11060458Y9571968D01*
X10841837Y9705939D01*
X10604947Y9804062D01*
X10355623Y9863919D01*
X10100000Y9884037D01*
X9844376Y9863919D01*
X9595052Y9804062D01*
X9358162Y9705939D01*
X9139539Y9571966D01*
X9139534Y9571963D01*
X9041430Y9488174D01*
X9539537Y8990068D01*
X9408805Y8872355D01*
X9362194Y8808202D01*
X8861826Y9308570D01*
X8778037Y9210466D01*
X8778034Y9210461D01*
X8644061Y8991838D01*
X8545938Y8754948D01*
X8486081Y8505624D01*
X8465963Y8250000D01*
X6734036Y8250000D01*
X6713918Y8505624D01*
X6654061Y8754948D01*
X6555938Y8991838D01*
X6421967Y9210459D01*
X6421966Y9210461D01*
X6338172Y9308570D01*
X5837804Y8808203D01*
X5791195Y8872355D01*
X5660461Y8990068D01*
X6158568Y9488174D01*
X6060460Y9571967D01*
X6060458Y9571968D01*
X5841837Y9705939D01*
X5604947Y9804062D01*
X5355623Y9863919D01*
X5100000Y9884037D01*
X4844376Y9863919D01*
X4595052Y9804062D01*
X4358162Y9705939D01*
X4139539Y9571966D01*
X4139534Y9571963D01*
X4041430Y9488174D01*
X4539536Y8990067D01*
X4408805Y8872355D01*
X4362194Y8808202D01*
X3861826Y9308570D01*
X3778037Y9210466D01*
X3778034Y9210461D01*
X3644061Y8991838D01*
X3545938Y8754948D01*
X3486081Y8505624D01*
X3465963Y8250000D01*
X381500Y8250000D01*
X381500Y12499998D01*
X32813745Y12499998D01*
X32832648Y12380644D01*
X32887511Y12272967D01*
X32972966Y12187512D01*
X33080643Y12132649D01*
X33199998Y12113745D01*
X33200000Y12113745D01*
X33200002Y12113745D01*
X33319356Y12132649D01*
X33319357Y12132650D01*
X33319359Y12132650D01*
X33427035Y12187513D01*
X33512487Y12272965D01*
X33567350Y12380641D01*
X33567350Y12380643D01*
X33567351Y12380644D01*
X33586255Y12499998D01*
X33586255Y12500003D01*
X33567351Y12619357D01*
X33512488Y12727034D01*
X33427033Y12812489D01*
X33319356Y12867352D01*
X33200002Y12886255D01*
X33199998Y12886255D01*
X33080643Y12867352D01*
X32972966Y12812489D01*
X32887511Y12727034D01*
X32832648Y12619357D01*
X32813745Y12500003D01*
X32813745Y12499998D01*
X381500Y12499998D01*
X381500Y15750000D01*
X3465963Y15750000D01*
X3486081Y15494377D01*
X3545938Y15245053D01*
X3644061Y15008163D01*
X3778032Y14789542D01*
X3778033Y14789540D01*
X3861826Y14691432D01*
X4362193Y15191800D01*
X4408805Y15127645D01*
X4539536Y15009934D01*
X4041430Y14511828D01*
X4139539Y14428034D01*
X4139541Y14428033D01*
X4358162Y14294062D01*
X4595052Y14195939D01*
X4844376Y14136082D01*
X5100000Y14115964D01*
X5355623Y14136082D01*
X5604947Y14195939D01*
X5841837Y14294062D01*
X6060458Y14428033D01*
X6060459Y14428034D01*
X6158568Y14511828D01*
X5660462Y15009933D01*
X5791195Y15127645D01*
X5837805Y15191799D01*
X6338172Y14691432D01*
X6421966Y14789541D01*
X6421967Y14789542D01*
X6555938Y15008163D01*
X6654061Y15245053D01*
X6713918Y15494377D01*
X6734036Y15750000D01*
X8465963Y15750000D01*
X8486081Y15494377D01*
X8545938Y15245053D01*
X8644061Y15008163D01*
X8778032Y14789542D01*
X8778033Y14789540D01*
X8861826Y14691432D01*
X9362193Y15191800D01*
X9408805Y15127645D01*
X9539536Y15009934D01*
X9041430Y14511828D01*
X9139539Y14428034D01*
X9139541Y14428033D01*
X9358162Y14294062D01*
X9595052Y14195939D01*
X9844376Y14136082D01*
X10100000Y14115964D01*
X10355623Y14136082D01*
X10604947Y14195939D01*
X10841837Y14294062D01*
X11060458Y14428033D01*
X11060459Y14428034D01*
X11144717Y14499998D01*
X30113745Y14499998D01*
X30132648Y14380644D01*
X30187511Y14272967D01*
X30272966Y14187512D01*
X30380643Y14132649D01*
X30499998Y14113745D01*
X30500000Y14113745D01*
X30500002Y14113745D01*
X30619356Y14132649D01*
X30619357Y14132650D01*
X30619359Y14132650D01*
X30727035Y14187513D01*
X30812487Y14272965D01*
X30867350Y14380641D01*
X30867350Y14380643D01*
X30867351Y14380644D01*
X30886255Y14499998D01*
X30886255Y14500003D01*
X30867351Y14619357D01*
X30812488Y14727034D01*
X30727033Y14812489D01*
X30619356Y14867352D01*
X30500002Y14886255D01*
X30499998Y14886255D01*
X30380643Y14867352D01*
X30272966Y14812489D01*
X30187511Y14727034D01*
X30132648Y14619357D01*
X30113745Y14500003D01*
X30113745Y14499998D01*
X11144717Y14499998D01*
X11158568Y14511828D01*
X10660462Y15009933D01*
X10791195Y15127645D01*
X10837805Y15191799D01*
X11338172Y14691432D01*
X11421966Y14789541D01*
X11421967Y14789542D01*
X11555938Y15008163D01*
X11654061Y15245053D01*
X11713918Y15494377D01*
X11734036Y15750000D01*
X11713918Y16005624D01*
X11654061Y16254948D01*
X11555938Y16491838D01*
X11421967Y16710459D01*
X11421966Y16710461D01*
X11338172Y16808570D01*
X10837804Y16308202D01*
X10791195Y16372355D01*
X10660462Y16490068D01*
X11158568Y16988174D01*
X11060460Y17071967D01*
X11060458Y17071968D01*
X10841837Y17205939D01*
X10604947Y17304062D01*
X10355623Y17363919D01*
X10100000Y17384037D01*
X9844376Y17363919D01*
X9595052Y17304062D01*
X9358162Y17205939D01*
X9139539Y17071966D01*
X9139534Y17071963D01*
X9041430Y16988174D01*
X9539537Y16490068D01*
X9408805Y16372355D01*
X9362194Y16308202D01*
X8861826Y16808570D01*
X8778037Y16710466D01*
X8778034Y16710461D01*
X8644061Y16491838D01*
X8545938Y16254948D01*
X8486081Y16005624D01*
X8465963Y15750000D01*
X6734036Y15750000D01*
X6713918Y16005624D01*
X6654061Y16254948D01*
X6555938Y16491838D01*
X6421967Y16710459D01*
X6421966Y16710461D01*
X6338172Y16808570D01*
X5837804Y16308203D01*
X5791195Y16372355D01*
X5660462Y16490068D01*
X6158568Y16988174D01*
X6060460Y17071967D01*
X6060458Y17071968D01*
X5841837Y17205939D01*
X5604947Y17304062D01*
X5355623Y17363919D01*
X5099999Y17384037D01*
X4844376Y17363919D01*
X4595052Y17304062D01*
X4358162Y17205939D01*
X4139539Y17071966D01*
X4139534Y17071963D01*
X4041430Y16988174D01*
X4539537Y16490068D01*
X4408805Y16372355D01*
X4362194Y16308202D01*
X3861826Y16808570D01*
X3778037Y16710466D01*
X3778034Y16710461D01*
X3644061Y16491838D01*
X3545938Y16254948D01*
X3486081Y16005624D01*
X3465963Y15750000D01*
X381500Y15750000D01*
X381500Y17699998D01*
X30813745Y17699998D01*
X30832648Y17580644D01*
X30887511Y17472967D01*
X30972966Y17387512D01*
X31080643Y17332649D01*
X31199998Y17313745D01*
X31200000Y17313745D01*
X31200002Y17313745D01*
X31247743Y17321308D01*
X31319359Y17332650D01*
X31321196Y17333587D01*
X31325194Y17334546D01*
X31328635Y17335664D01*
X31328723Y17335394D01*
X31377488Y17347100D01*
X33516921Y17347100D01*
X33583960Y17327415D01*
X33629715Y17274611D01*
X33639659Y17205453D01*
X33610634Y17141897D01*
X33580690Y17118466D01*
X33580864Y17118227D01*
X33574188Y17113377D01*
X33573214Y17112614D01*
X33572965Y17112488D01*
X33487511Y17027034D01*
X33432648Y16919357D01*
X33413745Y16800003D01*
X33413745Y16799998D01*
X33432648Y16680644D01*
X33487511Y16572967D01*
X33534581Y16525897D01*
X33568066Y16464574D01*
X33570900Y16438216D01*
X33570900Y15861785D01*
X33551215Y15794746D01*
X33534582Y15774105D01*
X33487511Y15727034D01*
X33432648Y15619357D01*
X33413745Y15500003D01*
X33413745Y15499998D01*
X33432648Y15380644D01*
X33487511Y15272967D01*
X33572966Y15187512D01*
X33680643Y15132649D01*
X33799998Y15113745D01*
X33800000Y15113745D01*
X33800002Y15113745D01*
X33919356Y15132649D01*
X33919357Y15132650D01*
X33919359Y15132650D01*
X34027035Y15187513D01*
X34112487Y15272965D01*
X34167350Y15380641D01*
X34167350Y15380643D01*
X34167351Y15380644D01*
X34186255Y15499998D01*
X34186255Y15500003D01*
X34167351Y15619357D01*
X34112489Y15727033D01*
X34065417Y15774106D01*
X34031933Y15835430D01*
X34029100Y15861786D01*
X34029100Y16438217D01*
X34048785Y16505256D01*
X34065415Y16525894D01*
X34112487Y16572965D01*
X34167350Y16680641D01*
X34167350Y16680643D01*
X34167351Y16680644D01*
X34186255Y16799998D01*
X34186255Y16800003D01*
X34167351Y16919357D01*
X34112488Y17027034D01*
X34027034Y17112488D01*
X34026786Y17112614D01*
X34026535Y17112851D01*
X34019136Y17118227D01*
X34019830Y17119183D01*
X33975989Y17160588D01*
X33959193Y17228408D01*
X33981729Y17294544D01*
X34036443Y17337996D01*
X34083079Y17347100D01*
X35502462Y17347100D01*
X35569501Y17327415D01*
X35590143Y17310781D01*
X39010781Y13890143D01*
X39044266Y13828820D01*
X39047100Y13802462D01*
X39047100Y9649461D01*
X39044461Y9624013D01*
X39042525Y9614785D01*
X39046623Y9581912D01*
X39047100Y9574236D01*
X39047100Y9570757D01*
X39050712Y9549111D01*
X39057094Y9497909D01*
X39059194Y9490854D01*
X39059204Y9490827D01*
X39059211Y9490803D01*
X39061604Y9483833D01*
X39061605Y9483830D01*
X39061606Y9483829D01*
X39086160Y9438456D01*
X39108821Y9392103D01*
X39108822Y9392102D01*
X39113128Y9386070D01*
X39117659Y9380249D01*
X39155624Y9345300D01*
X42415487Y6085437D01*
X42431611Y6065582D01*
X42436773Y6057682D01*
X42436774Y6057681D01*
X42436775Y6057680D01*
X42462918Y6037333D01*
X42468681Y6032243D01*
X42471140Y6029784D01*
X42488999Y6017033D01*
X42529716Y5985342D01*
X42529720Y5985341D01*
X42536167Y5981852D01*
X42536215Y5981828D01*
X42536258Y5981805D01*
X42542862Y5978576D01*
X42542865Y5978574D01*
X42542867Y5978574D01*
X42542868Y5978573D01*
X42592317Y5963851D01*
X42641111Y5947100D01*
X42648395Y5945885D01*
X42648407Y5945883D01*
X42648429Y5945880D01*
X42655744Y5944968D01*
X42655745Y5944967D01*
X42655745Y5944968D01*
X42655746Y5944967D01*
X42707307Y5947100D01*
X43022512Y5947100D01*
X43071276Y5935394D01*
X43071365Y5935664D01*
X43074805Y5934546D01*
X43078803Y5933587D01*
X43080641Y5932650D01*
X43140320Y5923198D01*
X43199998Y5913745D01*
X43200000Y5913745D01*
X43200002Y5913745D01*
X43319356Y5932649D01*
X43319357Y5932650D01*
X43319359Y5932650D01*
X43427035Y5987513D01*
X43512487Y6072965D01*
X43567350Y6180641D01*
X43567350Y6180643D01*
X43567351Y6180644D01*
X43586255Y6299998D01*
X43586255Y6300003D01*
X43567351Y6419357D01*
X43512488Y6527034D01*
X43427033Y6612489D01*
X43319356Y6667352D01*
X43200002Y6686255D01*
X43199998Y6686255D01*
X43080643Y6667351D01*
X43078804Y6666414D01*
X43074805Y6665455D01*
X43071365Y6664336D01*
X43071276Y6664607D01*
X43022512Y6652900D01*
X42897538Y6652900D01*
X42830499Y6672585D01*
X42809857Y6689219D01*
X39789219Y9709858D01*
X39755734Y9771181D01*
X39752900Y9797539D01*
X39752900Y9934946D01*
X64347100Y9934946D01*
X64355972Y9890342D01*
X64355973Y9890339D01*
X64373627Y9863919D01*
X64389766Y9839766D01*
X64440342Y9805972D01*
X64440343Y9805972D01*
X64440345Y9805971D01*
X64462642Y9801536D01*
X64484943Y9797100D01*
X67115056Y9797101D01*
X67159658Y9805972D01*
X67210234Y9839766D01*
X67244028Y9890342D01*
X67252900Y9934943D01*
X67252900Y11249995D01*
X70342121Y11249995D01*
X70362004Y11010045D01*
X70362004Y11010042D01*
X70362005Y11010041D01*
X70421113Y10776627D01*
X70517834Y10556126D01*
X70649529Y10354552D01*
X70812605Y10177404D01*
X70812608Y10177402D01*
X70812611Y10177399D01*
X71002607Y10029519D01*
X71002613Y10029515D01*
X71002616Y10029513D01*
X71214377Y9914913D01*
X71442112Y9836732D01*
X71679609Y9797100D01*
X71679610Y9797100D01*
X71920390Y9797100D01*
X71920391Y9797100D01*
X72157888Y9836732D01*
X72385623Y9914913D01*
X72597384Y10029513D01*
X72787395Y10177404D01*
X72950471Y10354552D01*
X73082166Y10556126D01*
X73178887Y10776627D01*
X73237995Y11010041D01*
X73257879Y11250000D01*
X73237995Y11489959D01*
X73178887Y11723373D01*
X73082166Y11943874D01*
X72950471Y12145448D01*
X72787395Y12322596D01*
X72787390Y12322600D01*
X72787388Y12322602D01*
X72597392Y12470482D01*
X72597386Y12470486D01*
X72385624Y12585087D01*
X72385619Y12585089D01*
X72157890Y12663268D01*
X71973545Y12694030D01*
X71920391Y12702900D01*
X71679609Y12702900D01*
X71626455Y12694030D01*
X71442109Y12663268D01*
X71214380Y12585089D01*
X71214375Y12585087D01*
X71002613Y12470486D01*
X71002607Y12470482D01*
X70812611Y12322602D01*
X70812608Y12322599D01*
X70812605Y12322597D01*
X70812605Y12322596D01*
X70766917Y12272965D01*
X70649529Y12145448D01*
X70517832Y11943871D01*
X70421113Y11723374D01*
X70362004Y11489956D01*
X70342121Y11250006D01*
X70342121Y11249995D01*
X67252900Y11249995D01*
X67252899Y12565056D01*
X67244028Y12609658D01*
X67244026Y12609660D01*
X67244026Y12609662D01*
X67210234Y12660234D01*
X67159659Y12694027D01*
X67159658Y12694028D01*
X67159657Y12694029D01*
X67159656Y12694029D01*
X67159654Y12694030D01*
X67115059Y12702900D01*
X64484945Y12702900D01*
X64440341Y12694028D01*
X64440338Y12694027D01*
X64389766Y12660235D01*
X64355971Y12609657D01*
X64355970Y12609655D01*
X64347100Y12565060D01*
X64347100Y9934946D01*
X39752900Y9934946D01*
X39752900Y11937498D01*
X51913745Y11937498D01*
X51932648Y11818144D01*
X51987511Y11710467D01*
X52072966Y11625012D01*
X52180643Y11570149D01*
X52299998Y11551245D01*
X52300000Y11551245D01*
X52300002Y11551245D01*
X52419356Y11570149D01*
X52419357Y11570150D01*
X52419359Y11570150D01*
X52527035Y11625013D01*
X52612487Y11710465D01*
X52667350Y11818141D01*
X52667350Y11818143D01*
X52667351Y11818144D01*
X52686255Y11937498D01*
X52686255Y11937503D01*
X52676357Y11999998D01*
X60413745Y11999998D01*
X60432648Y11880644D01*
X60487511Y11772967D01*
X60572966Y11687512D01*
X60680643Y11632649D01*
X60799998Y11613745D01*
X60800000Y11613745D01*
X60800002Y11613745D01*
X60919356Y11632649D01*
X60919357Y11632650D01*
X60919359Y11632650D01*
X61027035Y11687513D01*
X61112487Y11772965D01*
X61167350Y11880641D01*
X61167350Y11880643D01*
X61167351Y11880644D01*
X61186255Y11999998D01*
X61186255Y12000003D01*
X61167351Y12119357D01*
X61112488Y12227034D01*
X61027033Y12312489D01*
X60919356Y12367352D01*
X60800002Y12386255D01*
X60799998Y12386255D01*
X60680643Y12367352D01*
X60572966Y12312489D01*
X60532660Y12272183D01*
X60477276Y12241943D01*
X60465505Y12183844D01*
X60432648Y12119357D01*
X60413745Y12000003D01*
X60413745Y11999998D01*
X52676357Y11999998D01*
X52667351Y12056855D01*
X52667350Y12056857D01*
X52667350Y12056859D01*
X52644838Y12101041D01*
X52631943Y12169708D01*
X52658220Y12234448D01*
X52715326Y12274705D01*
X52785132Y12277697D01*
X52811617Y12267819D01*
X52880641Y12232650D01*
X52880642Y12232650D01*
X52880644Y12232649D01*
X52999998Y12213745D01*
X53000000Y12213745D01*
X53000002Y12213745D01*
X53119356Y12232649D01*
X53119357Y12232650D01*
X53119359Y12232650D01*
X53227035Y12287513D01*
X53312487Y12372965D01*
X53367350Y12480641D01*
X53367350Y12480643D01*
X53367351Y12480644D01*
X53376356Y12537498D01*
X54488745Y12537498D01*
X54507648Y12418144D01*
X54562511Y12310467D01*
X54647966Y12225012D01*
X54755643Y12170149D01*
X54874998Y12151245D01*
X54875000Y12151245D01*
X54875002Y12151245D01*
X54994356Y12170149D01*
X54994357Y12170150D01*
X54994359Y12170150D01*
X55102035Y12225013D01*
X55112318Y12235298D01*
X55173642Y12268782D01*
X55243334Y12263798D01*
X55287681Y12235297D01*
X55297966Y12225012D01*
X55405643Y12170149D01*
X55524998Y12151245D01*
X55525000Y12151245D01*
X55525002Y12151245D01*
X55644356Y12170149D01*
X55644357Y12170150D01*
X55644359Y12170150D01*
X55752035Y12225013D01*
X55837487Y12310465D01*
X55892350Y12418141D01*
X55892350Y12418143D01*
X55892351Y12418144D01*
X55911255Y12537498D01*
X57088745Y12537498D01*
X57107648Y12418144D01*
X57162511Y12310467D01*
X57247966Y12225012D01*
X57355643Y12170149D01*
X57474998Y12151245D01*
X57475000Y12151245D01*
X57475002Y12151245D01*
X57594356Y12170149D01*
X57594357Y12170150D01*
X57594359Y12170150D01*
X57702035Y12225013D01*
X57712318Y12235298D01*
X57773642Y12268782D01*
X57843334Y12263798D01*
X57887681Y12235297D01*
X57897966Y12225012D01*
X58005643Y12170149D01*
X58124998Y12151245D01*
X58125000Y12151245D01*
X58125002Y12151245D01*
X58244356Y12170149D01*
X58244357Y12170150D01*
X58244359Y12170150D01*
X58352035Y12225013D01*
X58437487Y12310465D01*
X58492350Y12418141D01*
X58492350Y12418143D01*
X58492351Y12418144D01*
X58511255Y12537498D01*
X58511255Y12537503D01*
X58501357Y12599998D01*
X59613745Y12599998D01*
X59632648Y12480644D01*
X59687511Y12372967D01*
X59772966Y12287512D01*
X59880643Y12232649D01*
X59999998Y12213745D01*
X60000000Y12213745D01*
X60000002Y12213745D01*
X60119356Y12232649D01*
X60119357Y12232650D01*
X60119359Y12232650D01*
X60227035Y12287513D01*
X60267339Y12327818D01*
X60322722Y12358060D01*
X60334495Y12416159D01*
X60335505Y12418141D01*
X60367350Y12480641D01*
X60367350Y12480643D01*
X60367351Y12480644D01*
X60386255Y12599998D01*
X60386255Y12600003D01*
X60367351Y12719357D01*
X60312488Y12827034D01*
X60227033Y12912489D01*
X60119356Y12967352D01*
X60000002Y12986255D01*
X59999998Y12986255D01*
X59880643Y12967352D01*
X59772966Y12912489D01*
X59687511Y12827034D01*
X59632648Y12719357D01*
X59613745Y12600003D01*
X59613745Y12599998D01*
X58501357Y12599998D01*
X58492351Y12656857D01*
X58437488Y12764534D01*
X58352033Y12849989D01*
X58244356Y12904852D01*
X58125002Y12923755D01*
X58124998Y12923755D01*
X58005643Y12904852D01*
X57897967Y12849990D01*
X57887679Y12839701D01*
X57826355Y12806218D01*
X57756663Y12811204D01*
X57712321Y12839701D01*
X57702032Y12849990D01*
X57594356Y12904852D01*
X57475002Y12923755D01*
X57474998Y12923755D01*
X57355643Y12904852D01*
X57247966Y12849989D01*
X57162511Y12764534D01*
X57107648Y12656857D01*
X57088745Y12537503D01*
X57088745Y12537498D01*
X55911255Y12537498D01*
X55911255Y12537503D01*
X55892351Y12656857D01*
X55837488Y12764534D01*
X55752033Y12849989D01*
X55644356Y12904852D01*
X55525002Y12923755D01*
X55524998Y12923755D01*
X55405643Y12904852D01*
X55297965Y12849988D01*
X55297964Y12849988D01*
X55287675Y12839699D01*
X55226350Y12806217D01*
X55156659Y12811206D01*
X55112318Y12839704D01*
X55102033Y12849989D01*
X54994356Y12904852D01*
X54875002Y12923755D01*
X54874998Y12923755D01*
X54755643Y12904852D01*
X54647966Y12849989D01*
X54562511Y12764534D01*
X54507648Y12656857D01*
X54488745Y12537503D01*
X54488745Y12537498D01*
X53376356Y12537498D01*
X53386255Y12599998D01*
X53386255Y12600003D01*
X53367351Y12719357D01*
X53312488Y12827034D01*
X53227033Y12912489D01*
X53119356Y12967352D01*
X53000002Y12986255D01*
X52999998Y12986255D01*
X52880643Y12967352D01*
X52772966Y12912489D01*
X52687511Y12827034D01*
X52632648Y12719357D01*
X52613745Y12600003D01*
X52613745Y12599998D01*
X52632648Y12480644D01*
X52655160Y12436462D01*
X52668056Y12367792D01*
X52641779Y12303052D01*
X52584672Y12262796D01*
X52514866Y12259804D01*
X52488382Y12269682D01*
X52419355Y12304852D01*
X52300002Y12323755D01*
X52299998Y12323755D01*
X52180643Y12304852D01*
X52072966Y12249989D01*
X51987511Y12164534D01*
X51932648Y12056857D01*
X51913745Y11937503D01*
X51913745Y11937498D01*
X39752900Y11937498D01*
X39752900Y13950541D01*
X39755539Y13975986D01*
X39755854Y13977490D01*
X39757474Y13985215D01*
X39755388Y14001949D01*
X39753377Y14018089D01*
X39752900Y14025766D01*
X39752900Y14029243D01*
X39752899Y14029250D01*
X39749288Y14050888D01*
X39742906Y14102086D01*
X39742906Y14102088D01*
X39742904Y14102092D01*
X39740820Y14109091D01*
X39740803Y14109142D01*
X39740783Y14109209D01*
X39738395Y14116164D01*
X39738394Y14116171D01*
X39713839Y14161545D01*
X39691179Y14207897D01*
X39691178Y14207900D01*
X39686915Y14213870D01*
X39686879Y14213917D01*
X39686849Y14213958D01*
X39682339Y14219754D01*
X39644375Y14254701D01*
X37949081Y15949995D01*
X67342121Y15949995D01*
X67362004Y15710045D01*
X67421113Y15476627D01*
X67510447Y15272965D01*
X67517834Y15256126D01*
X67649529Y15054552D01*
X67812605Y14877404D01*
X67812608Y14877402D01*
X67812611Y14877399D01*
X68002607Y14729519D01*
X68002613Y14729515D01*
X68002616Y14729513D01*
X68176366Y14635484D01*
X68206161Y14619359D01*
X68214377Y14614913D01*
X68442112Y14536732D01*
X68679609Y14497100D01*
X68679610Y14497100D01*
X68920390Y14497100D01*
X68920391Y14497100D01*
X69157888Y14536732D01*
X69385623Y14614913D01*
X69597384Y14729513D01*
X69787395Y14877404D01*
X69950471Y15054552D01*
X70082166Y15256126D01*
X70178887Y15476627D01*
X70237995Y15710041D01*
X70257879Y15950000D01*
X70250635Y16037415D01*
X70237995Y16189956D01*
X70237995Y16189959D01*
X70178887Y16423373D01*
X70082166Y16643874D01*
X69950471Y16845448D01*
X69787395Y17022596D01*
X69787390Y17022600D01*
X69787388Y17022602D01*
X69597392Y17170482D01*
X69597386Y17170486D01*
X69385624Y17285087D01*
X69385619Y17285089D01*
X69157890Y17363268D01*
X68937751Y17400003D01*
X68920391Y17402900D01*
X68679609Y17402900D01*
X68662249Y17400003D01*
X68442109Y17363268D01*
X68214380Y17285089D01*
X68214375Y17285087D01*
X68002613Y17170486D01*
X68002607Y17170482D01*
X67812611Y17022602D01*
X67812608Y17022599D01*
X67812605Y17022597D01*
X67812605Y17022596D01*
X67745779Y16950003D01*
X67649529Y16845448D01*
X67517832Y16643871D01*
X67421113Y16423374D01*
X67362004Y16189956D01*
X67342121Y15950006D01*
X67342121Y15949995D01*
X37949081Y15949995D01*
X36949078Y16949998D01*
X44713745Y16949998D01*
X44732648Y16830644D01*
X44787511Y16722967D01*
X44872966Y16637512D01*
X44980643Y16582649D01*
X45099998Y16563745D01*
X45100000Y16563745D01*
X45100002Y16563745D01*
X45219356Y16582649D01*
X45219357Y16582650D01*
X45219359Y16582650D01*
X45327035Y16637513D01*
X45412487Y16722965D01*
X45467350Y16830641D01*
X45467350Y16830643D01*
X45467351Y16830644D01*
X45478336Y16899998D01*
X47813745Y16899998D01*
X47832648Y16780644D01*
X47887511Y16672967D01*
X47972966Y16587512D01*
X48080643Y16532649D01*
X48199998Y16513745D01*
X48200000Y16513745D01*
X48200002Y16513745D01*
X48319356Y16532649D01*
X48319357Y16532650D01*
X48319359Y16532650D01*
X48427035Y16587513D01*
X48512487Y16672965D01*
X48567350Y16780641D01*
X48567350Y16780643D01*
X48567351Y16780644D01*
X48586255Y16899998D01*
X48586255Y16900003D01*
X48567351Y17019357D01*
X48512488Y17127034D01*
X48427033Y17212489D01*
X48319356Y17267352D01*
X48200002Y17286255D01*
X48199998Y17286255D01*
X48080643Y17267352D01*
X47972966Y17212489D01*
X47887511Y17127034D01*
X47832648Y17019357D01*
X47813745Y16900003D01*
X47813745Y16899998D01*
X45478336Y16899998D01*
X45486255Y16949998D01*
X45486255Y16950003D01*
X45467351Y17069357D01*
X45412488Y17177034D01*
X45327033Y17262489D01*
X45219356Y17317352D01*
X45100002Y17336255D01*
X45099998Y17336255D01*
X44980643Y17317352D01*
X44872966Y17262489D01*
X44787511Y17177034D01*
X44732648Y17069357D01*
X44713745Y16950003D01*
X44713745Y16949998D01*
X36949078Y16949998D01*
X36499078Y17399998D01*
X59513745Y17399998D01*
X59532648Y17280644D01*
X59587511Y17172967D01*
X59672966Y17087512D01*
X59780643Y17032649D01*
X59899998Y17013745D01*
X59900000Y17013745D01*
X59900002Y17013745D01*
X60019356Y17032649D01*
X60019357Y17032650D01*
X60019359Y17032650D01*
X60127035Y17087513D01*
X60212487Y17172965D01*
X60267350Y17280641D01*
X60267350Y17280643D01*
X60267351Y17280644D01*
X60286255Y17399998D01*
X60286255Y17409760D01*
X60290013Y17409760D01*
X60296557Y17460585D01*
X60322413Y17498418D01*
X60458579Y17634584D01*
X60519902Y17668066D01*
X60546259Y17670900D01*
X62238216Y17670900D01*
X62305255Y17651215D01*
X62325897Y17634581D01*
X62372966Y17587512D01*
X62480643Y17532649D01*
X62599998Y17513745D01*
X62600000Y17513745D01*
X62600002Y17513745D01*
X62719356Y17532649D01*
X62719357Y17532650D01*
X62719359Y17532650D01*
X62827035Y17587513D01*
X62912487Y17672965D01*
X62967350Y17780641D01*
X62967350Y17780643D01*
X62967351Y17780644D01*
X62986255Y17899998D01*
X62986255Y17900003D01*
X62967351Y18019357D01*
X62912488Y18127034D01*
X62827033Y18212489D01*
X62719356Y18267352D01*
X62600002Y18286255D01*
X62599998Y18286255D01*
X62480643Y18267352D01*
X62372966Y18212489D01*
X62325897Y18165419D01*
X62264574Y18131934D01*
X62238216Y18129100D01*
X60407619Y18129100D01*
X60404377Y18129185D01*
X60400960Y18129364D01*
X60363361Y18131335D01*
X60343838Y18123841D01*
X60325195Y18118319D01*
X60304732Y18113969D01*
X60302934Y18112662D01*
X60274511Y18097229D01*
X60272436Y18096433D01*
X60257648Y18081645D01*
X60242859Y18069015D01*
X60225943Y18056725D01*
X60225940Y18056722D01*
X60224832Y18054801D01*
X60205131Y18029129D01*
X59998420Y17822419D01*
X59937097Y17788934D01*
X59909758Y17788148D01*
X59909758Y17786255D01*
X59899997Y17786255D01*
X59780643Y17767352D01*
X59672966Y17712489D01*
X59587511Y17627034D01*
X59532648Y17519357D01*
X59513745Y17400003D01*
X59513745Y17399998D01*
X36499078Y17399998D01*
X35984512Y17914564D01*
X35968386Y17934421D01*
X35963227Y17942318D01*
X35937080Y17962669D01*
X35931323Y17967754D01*
X35928861Y17970216D01*
X35911001Y17982968D01*
X35873073Y18012487D01*
X35870284Y18014658D01*
X35870282Y18014659D01*
X35863792Y18018172D01*
X35857136Y18021426D01*
X35807682Y18036150D01*
X35794512Y18040671D01*
X35758889Y18052900D01*
X35758888Y18052900D01*
X35758885Y18052901D01*
X35751594Y18054118D01*
X35744253Y18055034D01*
X35692693Y18052900D01*
X31377488Y18052900D01*
X31328723Y18064607D01*
X31328635Y18064336D01*
X31325194Y18065455D01*
X31321196Y18066414D01*
X31319359Y18067350D01*
X31319357Y18067351D01*
X31319356Y18067351D01*
X31200002Y18086255D01*
X31199998Y18086255D01*
X31080643Y18067352D01*
X30972966Y18012489D01*
X30887511Y17927034D01*
X30832648Y17819357D01*
X30813745Y17700003D01*
X30813745Y17699998D01*
X381500Y17699998D01*
X381500Y18899998D01*
X30813745Y18899998D01*
X30832648Y18780644D01*
X30887511Y18672967D01*
X30972966Y18587512D01*
X31080643Y18532649D01*
X31199998Y18513745D01*
X31200000Y18513745D01*
X31200002Y18513745D01*
X31319356Y18532649D01*
X31319357Y18532650D01*
X31319359Y18532650D01*
X31427035Y18587513D01*
X31474103Y18634581D01*
X31535426Y18668066D01*
X31561784Y18670900D01*
X34638216Y18670900D01*
X34705255Y18651215D01*
X34725897Y18634581D01*
X34772966Y18587512D01*
X34880643Y18532649D01*
X34999998Y18513745D01*
X35000000Y18513745D01*
X35000002Y18513745D01*
X35119356Y18532649D01*
X35119357Y18532650D01*
X35119359Y18532650D01*
X35227035Y18587513D01*
X35274102Y18634581D01*
X35335426Y18668066D01*
X35361784Y18670900D01*
X37238216Y18670900D01*
X37305255Y18651215D01*
X37325897Y18634581D01*
X37372966Y18587512D01*
X37480643Y18532649D01*
X37599998Y18513745D01*
X37600000Y18513745D01*
X37600002Y18513745D01*
X37719356Y18532649D01*
X37719357Y18532650D01*
X37719359Y18532650D01*
X37827035Y18587513D01*
X37912487Y18672965D01*
X37967350Y18780641D01*
X37967350Y18780643D01*
X37967351Y18780644D01*
X37979128Y18854998D01*
X55713745Y18854998D01*
X55732648Y18735644D01*
X55787511Y18627967D01*
X55872966Y18542512D01*
X55980643Y18487649D01*
X56099998Y18468745D01*
X56100000Y18468745D01*
X56100002Y18468745D01*
X56219356Y18487649D01*
X56219357Y18487650D01*
X56219359Y18487650D01*
X56327035Y18542513D01*
X56412487Y18627965D01*
X56467350Y18735641D01*
X56467350Y18735643D01*
X56467351Y18735644D01*
X56486255Y18854998D01*
X56486255Y18855003D01*
X56467351Y18974357D01*
X56412488Y19082034D01*
X56327033Y19167489D01*
X56219356Y19222352D01*
X56100002Y19241255D01*
X56099998Y19241255D01*
X55980643Y19222352D01*
X55872966Y19167489D01*
X55787511Y19082034D01*
X55732648Y18974357D01*
X55713745Y18855003D01*
X55713745Y18854998D01*
X37979128Y18854998D01*
X37986255Y18899998D01*
X37986255Y18900003D01*
X37967351Y19019357D01*
X37912488Y19127034D01*
X37827033Y19212489D01*
X37719356Y19267352D01*
X37600002Y19286255D01*
X37599998Y19286255D01*
X37480643Y19267352D01*
X37372966Y19212489D01*
X37325897Y19165419D01*
X37264574Y19131934D01*
X37238216Y19129100D01*
X35361784Y19129100D01*
X35294745Y19148785D01*
X35274103Y19165419D01*
X35227033Y19212489D01*
X35119356Y19267352D01*
X35000002Y19286255D01*
X34999998Y19286255D01*
X34880643Y19267352D01*
X34772966Y19212489D01*
X34725897Y19165419D01*
X34664574Y19131934D01*
X34638216Y19129100D01*
X31561784Y19129100D01*
X31494745Y19148785D01*
X31474103Y19165419D01*
X31427033Y19212489D01*
X31319356Y19267352D01*
X31200002Y19286255D01*
X31199998Y19286255D01*
X31080643Y19267352D01*
X30972966Y19212489D01*
X30887511Y19127034D01*
X30832648Y19019357D01*
X30813745Y18900003D01*
X30813745Y18899998D01*
X381500Y18899998D01*
X381500Y19799998D01*
X44954142Y19799998D01*
X44973045Y19680644D01*
X45027908Y19572967D01*
X45113363Y19487512D01*
X45221040Y19432649D01*
X45340395Y19413745D01*
X45340397Y19413745D01*
X45340399Y19413745D01*
X45459753Y19432649D01*
X45459754Y19432650D01*
X45459756Y19432650D01*
X45567432Y19487513D01*
X45652884Y19572965D01*
X45707747Y19680641D01*
X45707747Y19680643D01*
X45707748Y19680644D01*
X45726652Y19799998D01*
X45726652Y19800003D01*
X45707748Y19919357D01*
X45652885Y20027034D01*
X45567430Y20112489D01*
X45459753Y20167352D01*
X45340399Y20186255D01*
X45340395Y20186255D01*
X45221040Y20167352D01*
X45113363Y20112489D01*
X45027908Y20027034D01*
X44973045Y19919357D01*
X44954142Y19800003D01*
X44954142Y19799998D01*
X381500Y19799998D01*
X381500Y21723394D01*
X1781188Y21723394D01*
X1800401Y21491521D01*
X1857520Y21265962D01*
X1950987Y21052879D01*
X2078247Y20858093D01*
X2110283Y20823291D01*
X2110284Y20823291D01*
X2470091Y21183099D01*
X2517486Y21117866D01*
X2647239Y21001036D01*
X2290535Y20644332D01*
X2290535Y20644330D01*
X2419444Y20543996D01*
X2419455Y20543989D01*
X2624080Y20433252D01*
X2624094Y20433246D01*
X2844154Y20357698D01*
X3073661Y20319400D01*
X3306339Y20319400D01*
X3535845Y20357698D01*
X3755905Y20433246D01*
X3755919Y20433252D01*
X3960541Y20543987D01*
X3960544Y20543989D01*
X4089463Y20644332D01*
X3732760Y21001035D01*
X3862514Y21117866D01*
X3909907Y21183098D01*
X4269714Y20823291D01*
X4269715Y20823291D01*
X4301752Y20858093D01*
X4429012Y21052879D01*
X4522479Y21265962D01*
X4579598Y21491521D01*
X4598812Y21723394D01*
X4598812Y21723407D01*
X4579598Y21955280D01*
X4522479Y22180839D01*
X4429012Y22393920D01*
X4419698Y22408177D01*
X4399510Y22475066D01*
X4418689Y22542252D01*
X4471147Y22588403D01*
X4523506Y22600000D01*
X8409694Y22600000D01*
X8476733Y22580315D01*
X8522488Y22527511D01*
X8532432Y22458353D01*
X8513502Y22408177D01*
X8504187Y22393920D01*
X8410720Y22180839D01*
X8353601Y21955280D01*
X8334388Y21723407D01*
X8334388Y21723394D01*
X8353601Y21491521D01*
X8410720Y21265962D01*
X8504187Y21052879D01*
X8631447Y20858093D01*
X8663483Y20823291D01*
X8663484Y20823291D01*
X9023291Y21183099D01*
X9070686Y21117866D01*
X9200439Y21001036D01*
X8843735Y20644332D01*
X8843735Y20644330D01*
X8972644Y20543996D01*
X8972655Y20543989D01*
X9177280Y20433252D01*
X9177294Y20433246D01*
X9397354Y20357698D01*
X9626861Y20319400D01*
X9859539Y20319400D01*
X10089045Y20357698D01*
X10309105Y20433246D01*
X10309119Y20433252D01*
X10513741Y20543987D01*
X10513744Y20543989D01*
X10642663Y20644332D01*
X10285960Y21001035D01*
X10415714Y21117866D01*
X10463107Y21183098D01*
X10822914Y20823291D01*
X10822915Y20823291D01*
X10854952Y20858093D01*
X10882330Y20899998D01*
X21113744Y20899998D01*
X21132648Y20780644D01*
X21187511Y20672967D01*
X21272966Y20587512D01*
X21380643Y20532649D01*
X21499998Y20513745D01*
X21500000Y20513745D01*
X21500002Y20513745D01*
X21619356Y20532649D01*
X21619357Y20532650D01*
X21619359Y20532650D01*
X21727035Y20587513D01*
X21789520Y20649998D01*
X31563745Y20649998D01*
X31582648Y20530644D01*
X31637511Y20422967D01*
X31722966Y20337512D01*
X31830643Y20282649D01*
X31949998Y20263745D01*
X31950000Y20263745D01*
X31950002Y20263745D01*
X32069356Y20282649D01*
X32069357Y20282650D01*
X32069359Y20282650D01*
X32141486Y20319400D01*
X32169327Y20333585D01*
X32225621Y20347100D01*
X35622512Y20347100D01*
X35671276Y20335394D01*
X35671365Y20335664D01*
X35674805Y20334546D01*
X35678803Y20333587D01*
X35680641Y20332650D01*
X35740320Y20323198D01*
X35799998Y20313745D01*
X35800000Y20313745D01*
X35800002Y20313745D01*
X35847743Y20321308D01*
X35919359Y20332650D01*
X35921196Y20333587D01*
X35925194Y20334546D01*
X35928635Y20335664D01*
X35928723Y20335394D01*
X35977488Y20347100D01*
X37522512Y20347100D01*
X37571276Y20335394D01*
X37571365Y20335664D01*
X37574805Y20334546D01*
X37578803Y20333587D01*
X37580641Y20332650D01*
X37640320Y20323198D01*
X37699998Y20313745D01*
X37700000Y20313745D01*
X37700002Y20313745D01*
X37819356Y20332649D01*
X37819357Y20332650D01*
X37819359Y20332650D01*
X37927035Y20387513D01*
X38012487Y20472965D01*
X38067350Y20580641D01*
X38067350Y20580643D01*
X38067351Y20580644D01*
X38083087Y20679998D01*
X72367020Y20679998D01*
X72387276Y20500211D01*
X72414306Y20422965D01*
X72445581Y20333585D01*
X72447036Y20329429D01*
X72476430Y20282649D01*
X72543296Y20176233D01*
X72671233Y20048296D01*
X72824431Y19952035D01*
X72954212Y19906623D01*
X72995210Y19892277D01*
X73081354Y19882572D01*
X73129909Y19877101D01*
X73129910Y19877100D01*
X73129914Y19877100D01*
X74220090Y19877100D01*
X74220090Y19877101D01*
X74281174Y19883984D01*
X74354789Y19892277D01*
X74354792Y19892278D01*
X74525569Y19952035D01*
X74678767Y20048296D01*
X74806704Y20176233D01*
X74902965Y20329431D01*
X74916409Y20367854D01*
X74957132Y20424630D01*
X75022084Y20450378D01*
X75033452Y20450900D01*
X75991548Y20450900D01*
X76058587Y20431215D01*
X76104342Y20378411D01*
X76108590Y20367854D01*
X76122034Y20329432D01*
X76151430Y20282649D01*
X76218296Y20176233D01*
X76346233Y20048296D01*
X76499431Y19952035D01*
X76629212Y19906623D01*
X76670210Y19892277D01*
X76756354Y19882572D01*
X76804909Y19877101D01*
X76804910Y19877100D01*
X76804914Y19877100D01*
X78195090Y19877100D01*
X78195090Y19877101D01*
X78256174Y19883984D01*
X78329789Y19892277D01*
X78329792Y19892278D01*
X78500569Y19952035D01*
X78653767Y20048296D01*
X78781704Y20176233D01*
X78877965Y20329431D01*
X78937722Y20500208D01*
X78937722Y20500209D01*
X78937723Y20500211D01*
X78957980Y20679998D01*
X78957980Y20680003D01*
X78937723Y20859790D01*
X78923377Y20900788D01*
X78877965Y21030569D01*
X78781704Y21183767D01*
X78653767Y21311704D01*
X78530153Y21389376D01*
X78500571Y21407964D01*
X78500570Y21407965D01*
X78500569Y21407965D01*
X78459573Y21422310D01*
X78329789Y21467724D01*
X78195090Y21482900D01*
X78195086Y21482900D01*
X76804914Y21482900D01*
X76804910Y21482900D01*
X76670210Y21467724D01*
X76499428Y21407964D01*
X76346232Y21311704D01*
X76218296Y21183768D01*
X76122034Y21030569D01*
X76108590Y20992146D01*
X76067868Y20935370D01*
X76002916Y20909622D01*
X75991548Y20909100D01*
X75033452Y20909100D01*
X74966413Y20928785D01*
X74920658Y20981589D01*
X74916410Y20992146D01*
X74902965Y21030569D01*
X74867185Y21087512D01*
X74806704Y21183767D01*
X74678767Y21311704D01*
X74555152Y21389377D01*
X74508862Y21441711D01*
X74498214Y21510765D01*
X74526589Y21574613D01*
X74567318Y21606087D01*
X74643540Y21642793D01*
X74738008Y21730447D01*
X74802444Y21842052D01*
X74831120Y21967692D01*
X74830783Y21972183D01*
X74821490Y22096201D01*
X74774408Y22216165D01*
X74694056Y22316922D01*
X74587581Y22389515D01*
X74587579Y22389516D01*
X74464436Y22427500D01*
X74464435Y22427500D01*
X74367961Y22427500D01*
X74367955Y22427500D01*
X74272569Y22413122D01*
X74156458Y22357207D01*
X74061992Y22269554D01*
X74061989Y22269549D01*
X73997557Y22157951D01*
X73997556Y22157948D01*
X73968880Y22032308D01*
X73968879Y22032307D01*
X73978509Y21903800D01*
X74025591Y21783836D01*
X74066411Y21732650D01*
X74105039Y21684212D01*
X74131447Y21619527D01*
X74118692Y21550831D01*
X74070821Y21499937D01*
X74008092Y21482900D01*
X73129910Y21482900D01*
X72995210Y21467724D01*
X72824428Y21407964D01*
X72671232Y21311704D01*
X72543296Y21183768D01*
X72447036Y21030572D01*
X72387276Y20859790D01*
X72367020Y20680003D01*
X72367020Y20679998D01*
X38083087Y20679998D01*
X38086255Y20699998D01*
X38086255Y20700003D01*
X38067351Y20819357D01*
X38012488Y20927034D01*
X37927033Y21012489D01*
X37819356Y21067352D01*
X37700002Y21086255D01*
X37699998Y21086255D01*
X37580643Y21067351D01*
X37578804Y21066414D01*
X37574805Y21065455D01*
X37571365Y21064336D01*
X37571276Y21064607D01*
X37522512Y21052900D01*
X35977488Y21052900D01*
X35928723Y21064607D01*
X35928635Y21064336D01*
X35925194Y21065455D01*
X35921196Y21066414D01*
X35919359Y21067350D01*
X35919357Y21067351D01*
X35919356Y21067351D01*
X35800002Y21086255D01*
X35799998Y21086255D01*
X35680643Y21067351D01*
X35678804Y21066414D01*
X35674805Y21065455D01*
X35671365Y21064336D01*
X35671276Y21064607D01*
X35622512Y21052900D01*
X32049464Y21052900D01*
X32024020Y21055539D01*
X32014787Y21057475D01*
X32014782Y21057475D01*
X31981904Y21053377D01*
X31974228Y21052900D01*
X31970757Y21052900D01*
X31954530Y21050193D01*
X31949120Y21049290D01*
X31897910Y21042907D01*
X31890847Y21040805D01*
X31883827Y21038394D01*
X31869514Y21030649D01*
X31839844Y21020599D01*
X31839921Y21020365D01*
X31830637Y21017349D01*
X31722966Y20962489D01*
X31637511Y20877034D01*
X31582648Y20769357D01*
X31563745Y20650003D01*
X31563745Y20649998D01*
X21789520Y20649998D01*
X21812487Y20672965D01*
X21867350Y20780641D01*
X21867350Y20780643D01*
X21867351Y20780644D01*
X21886255Y20899998D01*
X21886255Y20900003D01*
X21867351Y21019357D01*
X21812488Y21127034D01*
X21727033Y21212489D01*
X21619356Y21267352D01*
X21500002Y21286255D01*
X21499998Y21286255D01*
X21380643Y21267352D01*
X21272966Y21212489D01*
X21187511Y21127034D01*
X21132648Y21019357D01*
X21113744Y20900003D01*
X21113744Y20899998D01*
X10882330Y20899998D01*
X10982212Y21052879D01*
X11075679Y21265962D01*
X11109621Y21399998D01*
X48013745Y21399998D01*
X48032648Y21280644D01*
X48087511Y21172967D01*
X48172966Y21087512D01*
X48280643Y21032649D01*
X48399998Y21013745D01*
X48400000Y21013745D01*
X48400002Y21013745D01*
X48519356Y21032649D01*
X48519357Y21032650D01*
X48519359Y21032650D01*
X48627035Y21087513D01*
X48712487Y21172965D01*
X48767350Y21280641D01*
X48767350Y21280643D01*
X48767351Y21280644D01*
X48786255Y21399998D01*
X48786255Y21400003D01*
X48767351Y21519357D01*
X48712488Y21627034D01*
X48639524Y21699998D01*
X49713745Y21699998D01*
X49732648Y21580644D01*
X49787511Y21472967D01*
X49872966Y21387512D01*
X49980643Y21332649D01*
X50099998Y21313745D01*
X50100000Y21313745D01*
X50100002Y21313745D01*
X50219356Y21332649D01*
X50219357Y21332650D01*
X50219359Y21332650D01*
X50327035Y21387513D01*
X50339520Y21399998D01*
X55713745Y21399998D01*
X55732648Y21280644D01*
X55787511Y21172967D01*
X55872966Y21087512D01*
X55980643Y21032649D01*
X56099998Y21013745D01*
X56100000Y21013745D01*
X56100002Y21013745D01*
X56219356Y21032649D01*
X56219357Y21032650D01*
X56219359Y21032650D01*
X56327035Y21087513D01*
X56412487Y21172965D01*
X56467350Y21280641D01*
X56467350Y21280643D01*
X56467351Y21280644D01*
X56486255Y21399998D01*
X56486255Y21400003D01*
X56467351Y21519357D01*
X56412488Y21627034D01*
X56327033Y21712489D01*
X56219356Y21767352D01*
X56100002Y21786255D01*
X56099998Y21786255D01*
X55980643Y21767352D01*
X55872966Y21712489D01*
X55787511Y21627034D01*
X55732648Y21519357D01*
X55713745Y21400003D01*
X55713745Y21399998D01*
X50339520Y21399998D01*
X50412487Y21472965D01*
X50467350Y21580641D01*
X50467350Y21580643D01*
X50467351Y21580644D01*
X50486255Y21699998D01*
X50486255Y21700003D01*
X50467351Y21819357D01*
X50412488Y21927034D01*
X50327033Y22012489D01*
X50219356Y22067352D01*
X50100002Y22086255D01*
X50099998Y22086255D01*
X49980643Y22067352D01*
X49872966Y22012489D01*
X49832660Y21972183D01*
X49777276Y21941943D01*
X49765505Y21883844D01*
X49732648Y21819357D01*
X49713745Y21700003D01*
X49713745Y21699998D01*
X48639524Y21699998D01*
X48627033Y21712489D01*
X48519356Y21767352D01*
X48400002Y21786255D01*
X48399998Y21786255D01*
X48280643Y21767352D01*
X48172966Y21712489D01*
X48087511Y21627034D01*
X48032648Y21519357D01*
X48013745Y21400003D01*
X48013745Y21399998D01*
X11109621Y21399998D01*
X11132798Y21491521D01*
X11152012Y21723394D01*
X11152012Y21723407D01*
X11132798Y21955280D01*
X11075679Y22180839D01*
X11067275Y22199998D01*
X21093744Y22199998D01*
X21112648Y22080644D01*
X21167511Y21972967D01*
X21252966Y21887512D01*
X21360643Y21832649D01*
X21479998Y21813745D01*
X21480000Y21813745D01*
X21480002Y21813745D01*
X21599356Y21832649D01*
X21599357Y21832650D01*
X21599359Y21832650D01*
X21707035Y21887513D01*
X21792487Y21972965D01*
X21847350Y22080641D01*
X21847350Y22080643D01*
X21847351Y22080644D01*
X21866255Y22199998D01*
X21866255Y22200003D01*
X21847351Y22319357D01*
X21792488Y22427034D01*
X21719524Y22499998D01*
X26613744Y22499998D01*
X26632648Y22380644D01*
X26687511Y22272967D01*
X26772966Y22187512D01*
X26880643Y22132649D01*
X26999998Y22113745D01*
X27000000Y22113745D01*
X27000002Y22113745D01*
X27119356Y22132649D01*
X27119357Y22132650D01*
X27119359Y22132650D01*
X27227035Y22187513D01*
X27274103Y22234581D01*
X27335426Y22268066D01*
X27361784Y22270900D01*
X27838216Y22270900D01*
X27905255Y22251215D01*
X27925897Y22234581D01*
X27972966Y22187512D01*
X28080643Y22132649D01*
X28199998Y22113745D01*
X28200000Y22113745D01*
X28200002Y22113745D01*
X28319356Y22132649D01*
X28319357Y22132650D01*
X28319359Y22132650D01*
X28427035Y22187513D01*
X28512487Y22272965D01*
X28567350Y22380641D01*
X28567350Y22380643D01*
X28567351Y22380644D01*
X28586255Y22499998D01*
X29413745Y22499998D01*
X29432648Y22380644D01*
X29487511Y22272967D01*
X29572966Y22187512D01*
X29680643Y22132649D01*
X29799998Y22113745D01*
X29800000Y22113745D01*
X29800002Y22113745D01*
X29919356Y22132649D01*
X29919357Y22132650D01*
X29919359Y22132650D01*
X30027035Y22187513D01*
X30112487Y22272965D01*
X30145588Y22337932D01*
X30168388Y22369314D01*
X31014565Y23215491D01*
X31034422Y23231615D01*
X31042318Y23236773D01*
X31062680Y23262936D01*
X31067748Y23268674D01*
X31070216Y23271140D01*
X31074026Y23276478D01*
X31082968Y23289000D01*
X31098812Y23309358D01*
X31114658Y23329716D01*
X31114659Y23329722D01*
X31118143Y23336158D01*
X31118168Y23336208D01*
X31118196Y23336261D01*
X31121421Y23342859D01*
X31121426Y23342865D01*
X31136149Y23392318D01*
X31152900Y23441111D01*
X31152900Y23441121D01*
X31154108Y23448359D01*
X31154117Y23448429D01*
X31154131Y23448514D01*
X31155033Y23455747D01*
X31152900Y23507308D01*
X31152900Y26399998D01*
X37313745Y26399998D01*
X37332648Y26280644D01*
X37387511Y26172967D01*
X37472966Y26087512D01*
X37580643Y26032649D01*
X37699998Y26013745D01*
X37700000Y26013745D01*
X37700002Y26013745D01*
X37819356Y26032649D01*
X37819357Y26032650D01*
X37819359Y26032650D01*
X37927035Y26087513D01*
X38012487Y26172965D01*
X38067350Y26280641D01*
X38067350Y26280643D01*
X38067351Y26280644D01*
X38086255Y26399998D01*
X38086255Y26400003D01*
X38067351Y26519357D01*
X38012488Y26627034D01*
X37927033Y26712489D01*
X37819356Y26767352D01*
X37700002Y26786255D01*
X37699998Y26786255D01*
X37580643Y26767352D01*
X37472966Y26712489D01*
X37387511Y26627034D01*
X37332648Y26519357D01*
X37313745Y26400003D01*
X37313745Y26399998D01*
X31152900Y26399998D01*
X31152900Y29199998D01*
X40393745Y29199998D01*
X40412648Y29080644D01*
X40467511Y28972967D01*
X40552966Y28887512D01*
X40660643Y28832649D01*
X40779998Y28813745D01*
X40780000Y28813745D01*
X40780002Y28813745D01*
X40899356Y28832649D01*
X40899357Y28832650D01*
X40899359Y28832650D01*
X41007035Y28887513D01*
X41092487Y28972965D01*
X41147350Y29080641D01*
X41147350Y29080643D01*
X41147351Y29080644D01*
X41166255Y29199998D01*
X41166255Y29200003D01*
X41147351Y29319357D01*
X41092488Y29427034D01*
X41007033Y29512489D01*
X40899356Y29567352D01*
X40780002Y29586255D01*
X40779998Y29586255D01*
X40660643Y29567352D01*
X40552966Y29512489D01*
X40467511Y29427034D01*
X40412648Y29319357D01*
X40393745Y29200003D01*
X40393745Y29199998D01*
X31152900Y29199998D01*
X31152900Y31402463D01*
X31172585Y31469502D01*
X31189215Y31490140D01*
X31930686Y32231612D01*
X31962068Y32254412D01*
X32027035Y32287513D01*
X32112487Y32372965D01*
X32167350Y32480641D01*
X32167350Y32480643D01*
X32167351Y32480644D01*
X32186255Y32599998D01*
X32186255Y32600003D01*
X32167351Y32719357D01*
X32112488Y32827034D01*
X32027033Y32912489D01*
X31919356Y32967352D01*
X31800002Y32986255D01*
X31799998Y32986255D01*
X31680643Y32967352D01*
X31572968Y32912490D01*
X31487514Y32827037D01*
X31487512Y32827034D01*
X31454411Y32762071D01*
X31431608Y32730686D01*
X30585435Y31884513D01*
X30565584Y31868391D01*
X30557682Y31863228D01*
X30537336Y31837089D01*
X30532259Y31831338D01*
X30529794Y31828873D01*
X30529781Y31828858D01*
X30517033Y31811002D01*
X30485340Y31770282D01*
X30481825Y31763788D01*
X30478573Y31757134D01*
X30463850Y31707683D01*
X30447100Y31658890D01*
X30445877Y31651563D01*
X30444966Y31644254D01*
X30447100Y31592693D01*
X30447100Y23697539D01*
X30427415Y23630500D01*
X30410781Y23609858D01*
X29669314Y22868392D01*
X29637929Y22845589D01*
X29572966Y22812488D01*
X29572963Y22812486D01*
X29487510Y22727032D01*
X29432648Y22619357D01*
X29413745Y22500003D01*
X29413745Y22499998D01*
X28586255Y22499998D01*
X28586255Y22500003D01*
X28567351Y22619357D01*
X28512488Y22727034D01*
X28427033Y22812489D01*
X28319356Y22867352D01*
X28200002Y22886255D01*
X28199998Y22886255D01*
X28080643Y22867352D01*
X27972966Y22812489D01*
X27925897Y22765419D01*
X27864574Y22731934D01*
X27838216Y22729100D01*
X27361784Y22729100D01*
X27294745Y22748785D01*
X27274103Y22765419D01*
X27227033Y22812489D01*
X27119356Y22867352D01*
X27000002Y22886255D01*
X26999998Y22886255D01*
X26880643Y22867352D01*
X26772966Y22812489D01*
X26687511Y22727034D01*
X26632648Y22619357D01*
X26613744Y22500003D01*
X26613744Y22499998D01*
X21719524Y22499998D01*
X21707033Y22512489D01*
X21599356Y22567352D01*
X21480002Y22586255D01*
X21479998Y22586255D01*
X21360643Y22567352D01*
X21252966Y22512489D01*
X21167511Y22427034D01*
X21112648Y22319357D01*
X21093744Y22200003D01*
X21093744Y22199998D01*
X11067275Y22199998D01*
X10982212Y22393920D01*
X10972898Y22408177D01*
X10952710Y22475066D01*
X10971889Y22542252D01*
X11024347Y22588403D01*
X11076706Y22600000D01*
X18600000Y22600000D01*
X18600000Y27500000D01*
X11125479Y27500000D01*
X11058440Y27519685D01*
X11012685Y27572489D01*
X11002741Y27641647D01*
X11011923Y27673810D01*
X11067273Y27799998D01*
X20133744Y27799998D01*
X20152648Y27680644D01*
X20207511Y27572967D01*
X20292966Y27487512D01*
X20400643Y27432649D01*
X20519998Y27413745D01*
X20520000Y27413745D01*
X20520002Y27413745D01*
X20639356Y27432649D01*
X20639357Y27432650D01*
X20639359Y27432650D01*
X20747035Y27487513D01*
X20832487Y27572965D01*
X20887350Y27680641D01*
X20887350Y27680643D01*
X20887351Y27680644D01*
X20906255Y27799998D01*
X20906255Y27800003D01*
X20890417Y27899998D01*
X26613744Y27899998D01*
X26632648Y27780644D01*
X26687511Y27672967D01*
X26772966Y27587512D01*
X26880643Y27532649D01*
X26999998Y27513745D01*
X27000000Y27513745D01*
X27000002Y27513745D01*
X27119356Y27532649D01*
X27119357Y27532650D01*
X27119359Y27532650D01*
X27227035Y27587513D01*
X27312487Y27672965D01*
X27367350Y27780641D01*
X27367350Y27780643D01*
X27367351Y27780644D01*
X27386255Y27899998D01*
X27386255Y27900003D01*
X27367351Y28019357D01*
X27312488Y28127034D01*
X27227033Y28212489D01*
X27119356Y28267352D01*
X27000002Y28286255D01*
X26999998Y28286255D01*
X26880643Y28267352D01*
X26772966Y28212489D01*
X26687511Y28127034D01*
X26632648Y28019357D01*
X26613744Y27900003D01*
X26613744Y27899998D01*
X20890417Y27899998D01*
X20887351Y27919357D01*
X20832488Y28027034D01*
X20747033Y28112489D01*
X20639356Y28167352D01*
X20520002Y28186255D01*
X20519998Y28186255D01*
X20400643Y28167352D01*
X20292966Y28112489D01*
X20207511Y28027034D01*
X20152648Y27919357D01*
X20133744Y27800003D01*
X20133744Y27799998D01*
X11067273Y27799998D01*
X11075678Y27819159D01*
X11132798Y28044721D01*
X11152012Y28276594D01*
X11152012Y28276607D01*
X11132798Y28508480D01*
X11075679Y28734039D01*
X10982212Y28947122D01*
X10854952Y29141908D01*
X10822915Y29176711D01*
X10822914Y29176711D01*
X10463106Y28816904D01*
X10415714Y28882134D01*
X10285959Y28998967D01*
X10486991Y29199998D01*
X20113744Y29199998D01*
X20132648Y29080644D01*
X20187511Y28972967D01*
X20272966Y28887512D01*
X20380643Y28832649D01*
X20499998Y28813745D01*
X20500000Y28813745D01*
X20500002Y28813745D01*
X20619356Y28832649D01*
X20619357Y28832650D01*
X20619359Y28832650D01*
X20727035Y28887513D01*
X20812487Y28972965D01*
X20867350Y29080641D01*
X20867350Y29080643D01*
X20867351Y29080644D01*
X20886255Y29199998D01*
X20886255Y29200003D01*
X20867351Y29319357D01*
X20812488Y29427034D01*
X20739524Y29499998D01*
X27313744Y29499998D01*
X27332648Y29380644D01*
X27387511Y29272967D01*
X27472966Y29187512D01*
X27580643Y29132649D01*
X27699998Y29113745D01*
X27700000Y29113745D01*
X27700002Y29113745D01*
X27819356Y29132649D01*
X27819357Y29132650D01*
X27819359Y29132650D01*
X27927035Y29187513D01*
X27974103Y29234581D01*
X28035426Y29268066D01*
X28061784Y29270900D01*
X28538216Y29270900D01*
X28605255Y29251215D01*
X28625897Y29234581D01*
X28672966Y29187512D01*
X28780643Y29132649D01*
X28899998Y29113745D01*
X28900000Y29113745D01*
X28900002Y29113745D01*
X29019356Y29132649D01*
X29019357Y29132650D01*
X29019359Y29132650D01*
X29127035Y29187513D01*
X29212487Y29272965D01*
X29267350Y29380641D01*
X29267350Y29380643D01*
X29267351Y29380644D01*
X29286255Y29499998D01*
X29286255Y29500003D01*
X29267351Y29619357D01*
X29212488Y29727034D01*
X29127033Y29812489D01*
X29019356Y29867352D01*
X28900002Y29886255D01*
X28899998Y29886255D01*
X28780643Y29867352D01*
X28672966Y29812489D01*
X28625897Y29765419D01*
X28564574Y29731934D01*
X28538216Y29729100D01*
X28061784Y29729100D01*
X27994745Y29748785D01*
X27974103Y29765419D01*
X27927033Y29812489D01*
X27819356Y29867352D01*
X27700002Y29886255D01*
X27699998Y29886255D01*
X27580643Y29867352D01*
X27472966Y29812489D01*
X27387511Y29727034D01*
X27332648Y29619357D01*
X27313744Y29500003D01*
X27313744Y29499998D01*
X20739524Y29499998D01*
X20727033Y29512489D01*
X20619356Y29567352D01*
X20500002Y29586255D01*
X20499998Y29586255D01*
X20380643Y29567352D01*
X20272966Y29512489D01*
X20187511Y29427034D01*
X20132648Y29319357D01*
X20113744Y29200003D01*
X20113744Y29199998D01*
X10486991Y29199998D01*
X10642663Y29355670D01*
X10642663Y29355672D01*
X10513755Y29456005D01*
X10513744Y29456012D01*
X10309119Y29566749D01*
X10309105Y29566755D01*
X10089045Y29642303D01*
X9859539Y29680600D01*
X9626861Y29680600D01*
X9397354Y29642303D01*
X9177294Y29566755D01*
X9177280Y29566749D01*
X8972655Y29456012D01*
X8972651Y29456010D01*
X8843735Y29355671D01*
X8843735Y29355670D01*
X9200439Y28998965D01*
X9070686Y28882134D01*
X9023292Y28816904D01*
X8663484Y29176712D01*
X8663483Y29176712D01*
X8631454Y29141917D01*
X8504186Y28947119D01*
X8410720Y28734039D01*
X8353601Y28508480D01*
X8334388Y28276607D01*
X8334388Y28276594D01*
X8353601Y28044721D01*
X8410721Y27819159D01*
X8474477Y27673810D01*
X8483380Y27604510D01*
X8453403Y27541398D01*
X8394064Y27504511D01*
X8360921Y27500000D01*
X4572279Y27500000D01*
X4505240Y27519685D01*
X4459485Y27572489D01*
X4449541Y27641647D01*
X4458723Y27673810D01*
X4522478Y27819159D01*
X4579598Y28044721D01*
X4598812Y28276594D01*
X4598812Y28276607D01*
X4579598Y28508480D01*
X4522479Y28734039D01*
X4429012Y28947122D01*
X4301752Y29141908D01*
X4269715Y29176711D01*
X4269714Y29176711D01*
X3909906Y28816904D01*
X3862514Y28882134D01*
X3732759Y28998966D01*
X4089463Y29355670D01*
X4089463Y29355672D01*
X3960555Y29456005D01*
X3960544Y29456012D01*
X3755919Y29566749D01*
X3755905Y29566755D01*
X3535845Y29642303D01*
X3306339Y29680600D01*
X3073661Y29680600D01*
X2844154Y29642303D01*
X2624094Y29566755D01*
X2624080Y29566749D01*
X2419455Y29456012D01*
X2419451Y29456010D01*
X2290535Y29355671D01*
X2290535Y29355670D01*
X2647239Y28998966D01*
X2517486Y28882134D01*
X2470092Y28816904D01*
X2110284Y29176712D01*
X2110283Y29176712D01*
X2078254Y29141917D01*
X1950986Y28947119D01*
X1857520Y28734039D01*
X1800401Y28508480D01*
X1781188Y28276607D01*
X1781188Y28276594D01*
X1800401Y28044721D01*
X1857520Y27819162D01*
X1950987Y27606079D01*
X2078247Y27411293D01*
X2110283Y27376491D01*
X2110284Y27376491D01*
X2470091Y27736299D01*
X2517486Y27671066D01*
X2647239Y27554236D01*
X2290535Y27197532D01*
X2290535Y27197530D01*
X2419444Y27097196D01*
X2419455Y27097189D01*
X2624080Y26986452D01*
X2624094Y26986446D01*
X2844154Y26910898D01*
X2896409Y26902178D01*
X2959294Y26871728D01*
X2995734Y26812114D01*
X3000000Y26779869D01*
X3000000Y23220132D01*
X2980315Y23153093D01*
X2927511Y23107338D01*
X2896410Y23097823D01*
X2844154Y23089103D01*
X2624094Y23013555D01*
X2624080Y23013549D01*
X2419455Y22902812D01*
X2419451Y22902810D01*
X2290535Y22802471D01*
X2290535Y22802470D01*
X2647239Y22445766D01*
X2517486Y22328934D01*
X2470092Y22263704D01*
X2110284Y22623512D01*
X2110283Y22623512D01*
X2078254Y22588717D01*
X1950986Y22393919D01*
X1857520Y22180839D01*
X1800401Y21955280D01*
X1781188Y21723407D01*
X1781188Y21723394D01*
X381500Y21723394D01*
X381500Y37137498D01*
X29413745Y37137498D01*
X29432648Y37018144D01*
X29487511Y36910467D01*
X29572966Y36825012D01*
X29680643Y36770149D01*
X29799998Y36751245D01*
X29800000Y36751245D01*
X29800002Y36751245D01*
X29919356Y36770149D01*
X29919357Y36770150D01*
X29919359Y36770150D01*
X30027035Y36825013D01*
X30112487Y36910465D01*
X30167350Y37018141D01*
X30167350Y37018143D01*
X30167351Y37018144D01*
X30186255Y37137498D01*
X30186255Y37137503D01*
X30167351Y37256857D01*
X30112488Y37364534D01*
X30027033Y37449989D01*
X29919356Y37504852D01*
X29800002Y37523755D01*
X29799998Y37523755D01*
X29680643Y37504852D01*
X29572966Y37449989D01*
X29487511Y37364534D01*
X29432648Y37256857D01*
X29413745Y37137503D01*
X29413745Y37137498D01*
X381500Y37137498D01*
X381500Y38695755D01*
X26357044Y38695755D01*
X26375948Y38576401D01*
X26430811Y38468724D01*
X26516266Y38383269D01*
X26623943Y38328406D01*
X26743298Y38309502D01*
X26743300Y38309502D01*
X26743302Y38309502D01*
X26862656Y38328406D01*
X26862657Y38328407D01*
X26862659Y38328407D01*
X26970335Y38383270D01*
X27055787Y38468722D01*
X27110650Y38576398D01*
X27110650Y38576400D01*
X27110651Y38576401D01*
X27129555Y38695755D01*
X27129555Y38695760D01*
X27110651Y38815114D01*
X27055788Y38922791D01*
X27046731Y38931848D01*
X27013246Y38993171D01*
X27018230Y39062863D01*
X27046728Y39107207D01*
X27074106Y39134585D01*
X27135428Y39168067D01*
X27161784Y39170900D01*
X40153742Y39170900D01*
X40220781Y39151215D01*
X40241423Y39134581D01*
X41691781Y37684223D01*
X41725266Y37622900D01*
X41728100Y37596542D01*
X41728100Y25959769D01*
X41708415Y25892730D01*
X41655611Y25846975D01*
X41586453Y25837031D01*
X41531215Y25859451D01*
X41527036Y25862488D01*
X41419356Y25917352D01*
X41300002Y25936255D01*
X41299998Y25936255D01*
X41180643Y25917352D01*
X41072966Y25862489D01*
X40987511Y25777034D01*
X40932648Y25669357D01*
X40913745Y25550003D01*
X40913745Y25549998D01*
X40932648Y25430644D01*
X40987511Y25322967D01*
X41072966Y25237512D01*
X41180643Y25182649D01*
X41299998Y25163745D01*
X41300000Y25163745D01*
X41300002Y25163745D01*
X41419356Y25182649D01*
X41419357Y25182650D01*
X41419359Y25182650D01*
X41527035Y25237513D01*
X41527038Y25237517D01*
X41531209Y25240546D01*
X41597014Y25264029D01*
X41665069Y25248208D01*
X41713767Y25198105D01*
X41728100Y25140232D01*
X41728100Y24563341D01*
X41708415Y24496302D01*
X41655611Y24450547D01*
X41586453Y24440603D01*
X41547807Y24452855D01*
X41519355Y24467352D01*
X41400002Y24486255D01*
X41399998Y24486255D01*
X41280643Y24467352D01*
X41172966Y24412489D01*
X41087511Y24327034D01*
X41032648Y24219357D01*
X41013745Y24100003D01*
X41013745Y24099998D01*
X41032648Y23980644D01*
X41087511Y23872967D01*
X41172966Y23787512D01*
X41280643Y23732649D01*
X41399998Y23713745D01*
X41400000Y23713745D01*
X41400002Y23713745D01*
X41519354Y23732649D01*
X41519354Y23732650D01*
X41519359Y23732650D01*
X41547808Y23747146D01*
X41616474Y23760041D01*
X41681214Y23733765D01*
X41721472Y23676659D01*
X41728100Y23636660D01*
X41728100Y22515727D01*
X41708415Y22448688D01*
X41676988Y22415411D01*
X41672968Y22412491D01*
X41587510Y22327032D01*
X41532648Y22219357D01*
X41513745Y22100003D01*
X41513745Y22099998D01*
X41532648Y21980644D01*
X41587511Y21872967D01*
X41672966Y21787512D01*
X41780643Y21732649D01*
X41899998Y21713745D01*
X41900000Y21713745D01*
X41900002Y21713745D01*
X42019356Y21732649D01*
X42019357Y21732650D01*
X42019359Y21732650D01*
X42127035Y21787513D01*
X42212487Y21872965D01*
X42267350Y21980641D01*
X42267350Y21980643D01*
X42267351Y21980644D01*
X42286255Y22099998D01*
X42286255Y22100003D01*
X42267351Y22219357D01*
X42226263Y22299998D01*
X48913745Y22299998D01*
X48932648Y22180644D01*
X48987511Y22072967D01*
X49072966Y21987512D01*
X49180643Y21932649D01*
X49299998Y21913745D01*
X49300000Y21913745D01*
X49300002Y21913745D01*
X49419356Y21932649D01*
X49419357Y21932650D01*
X49419359Y21932650D01*
X49527035Y21987513D01*
X49567339Y22027818D01*
X49622722Y22058060D01*
X49634495Y22116159D01*
X49642897Y22132649D01*
X49667350Y22180641D01*
X49667350Y22180643D01*
X49667351Y22180644D01*
X49686255Y22299998D01*
X49686255Y22300003D01*
X49667351Y22419357D01*
X49612488Y22527034D01*
X49527033Y22612489D01*
X49419356Y22667352D01*
X49300002Y22686255D01*
X49299998Y22686255D01*
X49180643Y22667352D01*
X49072966Y22612489D01*
X48987511Y22527034D01*
X48932648Y22419357D01*
X48913745Y22300003D01*
X48913745Y22299998D01*
X42226263Y22299998D01*
X42212488Y22327034D01*
X42209979Y22330487D01*
X42208228Y22335393D01*
X42208057Y22335730D01*
X42208100Y22335753D01*
X42186502Y22396294D01*
X42186300Y22403369D01*
X42186300Y22799998D01*
X49813745Y22799998D01*
X49832648Y22680644D01*
X49887511Y22572967D01*
X49972966Y22487512D01*
X50080643Y22432649D01*
X50199998Y22413745D01*
X50200000Y22413745D01*
X50200002Y22413745D01*
X50319356Y22432649D01*
X50319357Y22432650D01*
X50319359Y22432650D01*
X50427035Y22487513D01*
X50512487Y22572965D01*
X50559380Y22664998D01*
X55713745Y22664998D01*
X55732648Y22545644D01*
X55787511Y22437967D01*
X55872966Y22352512D01*
X55980643Y22297649D01*
X56099998Y22278745D01*
X56100000Y22278745D01*
X56100002Y22278745D01*
X56219356Y22297649D01*
X56219357Y22297650D01*
X56219359Y22297650D01*
X56327035Y22352513D01*
X56412487Y22437965D01*
X56467350Y22545641D01*
X56467350Y22545643D01*
X56467351Y22545644D01*
X56486255Y22664998D01*
X56486255Y22665003D01*
X56467351Y22784357D01*
X56412488Y22892034D01*
X56327033Y22977489D01*
X56219356Y23032352D01*
X56100002Y23051255D01*
X56099998Y23051255D01*
X55980643Y23032352D01*
X55872966Y22977489D01*
X55787511Y22892034D01*
X55732648Y22784357D01*
X55713745Y22665003D01*
X55713745Y22664998D01*
X50559380Y22664998D01*
X50567350Y22680641D01*
X50567350Y22680643D01*
X50567351Y22680644D01*
X50586255Y22799998D01*
X50586255Y22800003D01*
X50567351Y22919357D01*
X50512488Y23027034D01*
X50427033Y23112489D01*
X50319356Y23167352D01*
X50200002Y23186255D01*
X50199998Y23186255D01*
X50080643Y23167352D01*
X49972966Y23112489D01*
X49887511Y23027034D01*
X49832648Y22919357D01*
X49813745Y22800003D01*
X49813745Y22799998D01*
X42186300Y22799998D01*
X42186300Y23999998D01*
X47913745Y23999998D01*
X47932648Y23880644D01*
X47987511Y23772967D01*
X48072966Y23687512D01*
X48180643Y23632649D01*
X48299998Y23613745D01*
X48300000Y23613745D01*
X48300002Y23613745D01*
X48419356Y23632649D01*
X48419357Y23632650D01*
X48419359Y23632650D01*
X48527035Y23687513D01*
X48612487Y23772965D01*
X48667350Y23880641D01*
X48667350Y23880643D01*
X48667351Y23880644D01*
X48675960Y23934998D01*
X55713745Y23934998D01*
X55732648Y23815644D01*
X55787511Y23707967D01*
X55872966Y23622512D01*
X55980643Y23567649D01*
X56099998Y23548745D01*
X56100000Y23548745D01*
X56100002Y23548745D01*
X56219356Y23567649D01*
X56219357Y23567650D01*
X56219359Y23567650D01*
X56327035Y23622513D01*
X56412487Y23707965D01*
X56443839Y23769498D01*
X71413745Y23769498D01*
X71432648Y23650144D01*
X71487511Y23542467D01*
X71572966Y23457012D01*
X71680643Y23402149D01*
X71799998Y23383245D01*
X71800000Y23383245D01*
X71800002Y23383245D01*
X71919356Y23402149D01*
X71919357Y23402150D01*
X71919359Y23402150D01*
X72027035Y23457013D01*
X72112487Y23542465D01*
X72167350Y23650141D01*
X72167350Y23650143D01*
X72167351Y23650144D01*
X72186255Y23769498D01*
X72186255Y23769503D01*
X72167351Y23888857D01*
X72112488Y23996534D01*
X72065419Y24043603D01*
X72031934Y24104926D01*
X72029100Y24131284D01*
X72029100Y24560116D01*
X72048785Y24627155D01*
X72065420Y24647798D01*
X72112483Y24694861D01*
X72112483Y24694862D01*
X72112487Y24694865D01*
X72167350Y24802541D01*
X72167350Y24802543D01*
X72167351Y24802544D01*
X72186255Y24921898D01*
X72186255Y24921903D01*
X72167351Y25041257D01*
X72112488Y25148934D01*
X72027033Y25234389D01*
X71919356Y25289252D01*
X71800002Y25308155D01*
X71799998Y25308155D01*
X71680643Y25289252D01*
X71572966Y25234389D01*
X71487511Y25148934D01*
X71432648Y25041257D01*
X71413745Y24921903D01*
X71413745Y24921898D01*
X71432648Y24802544D01*
X71487511Y24694867D01*
X71534581Y24647797D01*
X71568066Y24586474D01*
X71570900Y24560116D01*
X71570900Y24131284D01*
X71551215Y24064245D01*
X71534581Y24043603D01*
X71487511Y23996534D01*
X71432648Y23888857D01*
X71413745Y23769503D01*
X71413745Y23769498D01*
X56443839Y23769498D01*
X56467350Y23815641D01*
X56467350Y23815643D01*
X56467351Y23815644D01*
X56486255Y23934998D01*
X56486255Y23935003D01*
X56467351Y24054357D01*
X56412488Y24162034D01*
X56327033Y24247489D01*
X56219356Y24302352D01*
X56100002Y24321255D01*
X56099998Y24321255D01*
X55980643Y24302352D01*
X55872966Y24247489D01*
X55787511Y24162034D01*
X55732648Y24054357D01*
X55713745Y23935003D01*
X55713745Y23934998D01*
X48675960Y23934998D01*
X48686255Y23999998D01*
X48686255Y24000003D01*
X48667351Y24119357D01*
X48612488Y24227034D01*
X48527033Y24312489D01*
X48419356Y24367352D01*
X48300002Y24386255D01*
X48299998Y24386255D01*
X48180643Y24367352D01*
X48072966Y24312489D01*
X47987511Y24227034D01*
X47932648Y24119357D01*
X47913745Y24000003D01*
X47913745Y23999998D01*
X42186300Y23999998D01*
X42186300Y24068002D01*
X44285107Y24068002D01*
X44322460Y24043996D01*
X44455610Y24004901D01*
X44455612Y24004900D01*
X44594388Y24004900D01*
X44594389Y24004901D01*
X44727534Y24043995D01*
X44727540Y24043998D01*
X44764891Y24068002D01*
X45560107Y24068002D01*
X45597460Y24043996D01*
X45730610Y24004901D01*
X45730612Y24004900D01*
X45869388Y24004900D01*
X45869389Y24004901D01*
X46002534Y24043995D01*
X46002540Y24043998D01*
X46039891Y24068002D01*
X46835107Y24068002D01*
X46872460Y24043996D01*
X47005610Y24004901D01*
X47005612Y24004900D01*
X47144388Y24004900D01*
X47144389Y24004901D01*
X47277534Y24043995D01*
X47277540Y24043998D01*
X47314891Y24068002D01*
X47314892Y24068004D01*
X47075001Y24307895D01*
X47075000Y24307895D01*
X46835107Y24068003D01*
X46835107Y24068002D01*
X46039891Y24068002D01*
X46039892Y24068004D01*
X45800001Y24307895D01*
X45800000Y24307895D01*
X45560107Y24068003D01*
X45560107Y24068002D01*
X44764891Y24068002D01*
X44764892Y24068004D01*
X44525001Y24307895D01*
X44525000Y24307895D01*
X44285107Y24068003D01*
X44285107Y24068002D01*
X42186300Y24068002D01*
X42186300Y24487500D01*
X44037437Y24487500D01*
X44057186Y24350138D01*
X44104477Y24246586D01*
X44104479Y24246585D01*
X44326557Y24468663D01*
X44393985Y24468663D01*
X44424967Y24400821D01*
X44487709Y24360500D01*
X44543261Y24360500D01*
X44596560Y24376150D01*
X44645401Y24432515D01*
X44653307Y24487501D01*
X44704605Y24487501D01*
X44945520Y24246586D01*
X44945521Y24246586D01*
X44992812Y24350137D01*
X44992813Y24350142D01*
X45012562Y24487500D01*
X45312437Y24487500D01*
X45332186Y24350138D01*
X45379477Y24246586D01*
X45379479Y24246585D01*
X45601557Y24468663D01*
X45668985Y24468663D01*
X45699967Y24400821D01*
X45762709Y24360500D01*
X45818261Y24360500D01*
X45871560Y24376150D01*
X45920401Y24432515D01*
X45928307Y24487501D01*
X45979605Y24487501D01*
X46220520Y24246586D01*
X46220521Y24246586D01*
X46267812Y24350137D01*
X46267813Y24350142D01*
X46287562Y24487500D01*
X46587437Y24487500D01*
X46607186Y24350138D01*
X46654477Y24246586D01*
X46654479Y24246585D01*
X46876557Y24468663D01*
X46943985Y24468663D01*
X46974967Y24400821D01*
X47037709Y24360500D01*
X47093261Y24360500D01*
X47146560Y24376150D01*
X47195401Y24432515D01*
X47203307Y24487501D01*
X47254605Y24487501D01*
X47495520Y24246586D01*
X47495521Y24246586D01*
X47542812Y24350137D01*
X47542813Y24350142D01*
X47562562Y24487500D01*
X47542813Y24624859D01*
X47542812Y24624864D01*
X47495521Y24728416D01*
X47254605Y24487501D01*
X47203307Y24487501D01*
X47206015Y24506337D01*
X47175033Y24574179D01*
X47112291Y24614500D01*
X47056739Y24614500D01*
X47003440Y24598850D01*
X46954599Y24542485D01*
X46943985Y24468663D01*
X46876557Y24468663D01*
X46895394Y24487500D01*
X46895394Y24487501D01*
X46654478Y24728417D01*
X46607186Y24624862D01*
X46587437Y24487500D01*
X46287562Y24487500D01*
X46267813Y24624859D01*
X46267812Y24624864D01*
X46220521Y24728416D01*
X45979605Y24487501D01*
X45928307Y24487501D01*
X45931015Y24506337D01*
X45900033Y24574179D01*
X45837291Y24614500D01*
X45781739Y24614500D01*
X45728440Y24598850D01*
X45679599Y24542485D01*
X45668985Y24468663D01*
X45601557Y24468663D01*
X45620394Y24487500D01*
X45620394Y24487501D01*
X45379478Y24728417D01*
X45332186Y24624862D01*
X45312437Y24487500D01*
X45012562Y24487500D01*
X44992813Y24624859D01*
X44992812Y24624864D01*
X44945521Y24728416D01*
X44704605Y24487501D01*
X44653307Y24487501D01*
X44656015Y24506337D01*
X44625033Y24574179D01*
X44562291Y24614500D01*
X44506739Y24614500D01*
X44453440Y24598850D01*
X44404599Y24542485D01*
X44393985Y24468663D01*
X44326557Y24468663D01*
X44345394Y24487500D01*
X44345394Y24487501D01*
X44104478Y24728417D01*
X44057186Y24624862D01*
X44037437Y24487500D01*
X42186300Y24487500D01*
X42186300Y25099998D01*
X42813745Y25099998D01*
X42832648Y24980644D01*
X42887511Y24872967D01*
X42972966Y24787512D01*
X43080643Y24732649D01*
X43199998Y24713745D01*
X43200000Y24713745D01*
X43200002Y24713745D01*
X43319356Y24732649D01*
X43319357Y24732650D01*
X43319359Y24732650D01*
X43427035Y24787513D01*
X43512487Y24872965D01*
X43529828Y24906999D01*
X44285106Y24906999D01*
X44524999Y24667107D01*
X44764890Y24906999D01*
X45560106Y24906999D01*
X45799999Y24667107D01*
X46039890Y24906999D01*
X46835106Y24906999D01*
X47074999Y24667107D01*
X47314891Y24907000D01*
X47277539Y24931005D01*
X47144389Y24970100D01*
X47005610Y24970100D01*
X46872463Y24931006D01*
X46872454Y24931001D01*
X46835106Y24907000D01*
X46835106Y24906999D01*
X46039890Y24906999D01*
X46039891Y24907000D01*
X46002539Y24931005D01*
X45869389Y24970100D01*
X45730610Y24970100D01*
X45597463Y24931006D01*
X45597454Y24931001D01*
X45560106Y24907000D01*
X45560106Y24906999D01*
X44764890Y24906999D01*
X44764891Y24907000D01*
X44727539Y24931005D01*
X44594389Y24970100D01*
X44455610Y24970100D01*
X44322463Y24931006D01*
X44322454Y24931001D01*
X44285106Y24907000D01*
X44285106Y24906999D01*
X43529828Y24906999D01*
X43567350Y24980641D01*
X43567350Y24980643D01*
X43567351Y24980644D01*
X43586255Y25099998D01*
X43586255Y25100003D01*
X43567351Y25219357D01*
X43512488Y25327034D01*
X43496520Y25343002D01*
X44285107Y25343002D01*
X44322460Y25318996D01*
X44455610Y25279901D01*
X44455612Y25279900D01*
X44594388Y25279900D01*
X44594389Y25279901D01*
X44727534Y25318995D01*
X44727540Y25318998D01*
X44764891Y25343002D01*
X45560107Y25343002D01*
X45597460Y25318996D01*
X45730610Y25279901D01*
X45730612Y25279900D01*
X45869388Y25279900D01*
X45869389Y25279901D01*
X46002534Y25318995D01*
X46002540Y25318998D01*
X46039891Y25343002D01*
X46835107Y25343002D01*
X46872460Y25318996D01*
X47005610Y25279901D01*
X47005612Y25279900D01*
X47144388Y25279900D01*
X47144389Y25279901D01*
X47277534Y25318995D01*
X47277540Y25318998D01*
X47314891Y25343002D01*
X47314892Y25343004D01*
X47075001Y25582895D01*
X47075000Y25582895D01*
X46835107Y25343003D01*
X46835107Y25343002D01*
X46039891Y25343002D01*
X46039892Y25343004D01*
X45800001Y25582895D01*
X45800000Y25582895D01*
X45560107Y25343003D01*
X45560107Y25343002D01*
X44764891Y25343002D01*
X44764892Y25343004D01*
X44525001Y25582895D01*
X44525000Y25582895D01*
X44285107Y25343003D01*
X44285107Y25343002D01*
X43496520Y25343002D01*
X43427033Y25412489D01*
X43319356Y25467352D01*
X43200002Y25486255D01*
X43199998Y25486255D01*
X43080643Y25467352D01*
X42972966Y25412489D01*
X42887511Y25327034D01*
X42832648Y25219357D01*
X42813745Y25100003D01*
X42813745Y25099998D01*
X42186300Y25099998D01*
X42186300Y25762501D01*
X44037437Y25762501D01*
X44057186Y25625138D01*
X44104477Y25521586D01*
X44104479Y25521585D01*
X44326557Y25743663D01*
X44393985Y25743663D01*
X44424967Y25675821D01*
X44487709Y25635500D01*
X44543261Y25635500D01*
X44596560Y25651150D01*
X44645401Y25707515D01*
X44653307Y25762501D01*
X44704605Y25762501D01*
X44945521Y25521586D01*
X44992812Y25625137D01*
X44992813Y25625142D01*
X45012562Y25762500D01*
X45012562Y25762501D01*
X45312437Y25762501D01*
X45332186Y25625138D01*
X45379477Y25521586D01*
X45379478Y25521586D01*
X45601555Y25743663D01*
X45668985Y25743663D01*
X45699967Y25675821D01*
X45762709Y25635500D01*
X45818261Y25635500D01*
X45871560Y25651150D01*
X45920401Y25707515D01*
X45928307Y25762501D01*
X45979605Y25762501D01*
X46220521Y25521586D01*
X46267812Y25625137D01*
X46267813Y25625142D01*
X46287562Y25762501D01*
X46587437Y25762501D01*
X46607186Y25625138D01*
X46654477Y25521586D01*
X46654478Y25521586D01*
X46876555Y25743663D01*
X46943985Y25743663D01*
X46974967Y25675821D01*
X47037709Y25635500D01*
X47093261Y25635500D01*
X47146560Y25651150D01*
X47195401Y25707515D01*
X47203307Y25762501D01*
X47254605Y25762501D01*
X47495521Y25521586D01*
X47542812Y25625137D01*
X47542813Y25625142D01*
X47562562Y25762500D01*
X47542813Y25899859D01*
X47542812Y25899864D01*
X47542751Y25899998D01*
X47913745Y25899998D01*
X47932648Y25780644D01*
X47987511Y25672967D01*
X48072966Y25587512D01*
X48180643Y25532649D01*
X48299998Y25513745D01*
X48300000Y25513745D01*
X48300002Y25513745D01*
X48419356Y25532649D01*
X48419357Y25532650D01*
X48419359Y25532650D01*
X48527035Y25587513D01*
X48612487Y25672965D01*
X48667350Y25780641D01*
X48667350Y25780643D01*
X48667351Y25780644D01*
X48686255Y25899998D01*
X48686255Y25900003D01*
X48667351Y26019357D01*
X48626263Y26099998D01*
X50713745Y26099998D01*
X50732648Y25980644D01*
X50787511Y25872967D01*
X50872966Y25787512D01*
X50980643Y25732649D01*
X51058328Y25720346D01*
X51100000Y25713745D01*
X51118154Y25716621D01*
X51187443Y25707668D01*
X51240897Y25662674D01*
X51248033Y25650448D01*
X51268297Y25610678D01*
X51287512Y25572966D01*
X51372966Y25487512D01*
X51480643Y25432649D01*
X51599998Y25413745D01*
X51600000Y25413745D01*
X51600002Y25413745D01*
X51719356Y25432649D01*
X51719357Y25432650D01*
X51719359Y25432650D01*
X51827035Y25487513D01*
X51912487Y25572965D01*
X51967350Y25680641D01*
X51967350Y25680643D01*
X51967351Y25680644D01*
X51986255Y25799998D01*
X51986255Y25800003D01*
X51967351Y25919357D01*
X51912488Y26027034D01*
X51827033Y26112489D01*
X51719356Y26167352D01*
X51600002Y26186255D01*
X51599998Y26186255D01*
X51581842Y26183380D01*
X51512549Y26192337D01*
X51459098Y26237335D01*
X51451963Y26249560D01*
X51412488Y26327034D01*
X51327033Y26412489D01*
X51219356Y26467352D01*
X51100002Y26486255D01*
X51099998Y26486255D01*
X50980643Y26467352D01*
X50872966Y26412489D01*
X50787511Y26327034D01*
X50732648Y26219357D01*
X50713745Y26100003D01*
X50713745Y26099998D01*
X48626263Y26099998D01*
X48612488Y26127034D01*
X48527033Y26212489D01*
X48419356Y26267352D01*
X48300002Y26286255D01*
X48299998Y26286255D01*
X48180643Y26267352D01*
X48072966Y26212489D01*
X47987511Y26127034D01*
X47932648Y26019357D01*
X47913745Y25900003D01*
X47913745Y25899998D01*
X47542751Y25899998D01*
X47495521Y26003416D01*
X47495520Y26003416D01*
X47254605Y25762501D01*
X47203307Y25762501D01*
X47206015Y25781337D01*
X47175033Y25849179D01*
X47112291Y25889500D01*
X47056739Y25889500D01*
X47003440Y25873850D01*
X46954599Y25817485D01*
X46943985Y25743663D01*
X46876555Y25743663D01*
X46895394Y25762502D01*
X46654478Y26003417D01*
X46607186Y25899862D01*
X46587437Y25762501D01*
X46287562Y25762501D01*
X46267813Y25899859D01*
X46267812Y25899864D01*
X46220521Y26003416D01*
X46220520Y26003416D01*
X45979605Y25762501D01*
X45928307Y25762501D01*
X45931015Y25781337D01*
X45900033Y25849179D01*
X45837291Y25889500D01*
X45781739Y25889500D01*
X45728440Y25873850D01*
X45679599Y25817485D01*
X45668985Y25743663D01*
X45601555Y25743663D01*
X45620394Y25762502D01*
X45379478Y26003417D01*
X45332186Y25899862D01*
X45312437Y25762501D01*
X45012562Y25762501D01*
X44992813Y25899859D01*
X44992812Y25899864D01*
X44945521Y26003416D01*
X44945520Y26003416D01*
X44704605Y25762501D01*
X44653307Y25762501D01*
X44656015Y25781337D01*
X44625033Y25849179D01*
X44562291Y25889500D01*
X44506739Y25889500D01*
X44453440Y25873850D01*
X44404599Y25817485D01*
X44393985Y25743663D01*
X44326557Y25743663D01*
X44345394Y25762500D01*
X44345394Y25762501D01*
X44104478Y26003417D01*
X44057186Y25899862D01*
X44037437Y25762501D01*
X42186300Y25762501D01*
X42186300Y26181999D01*
X44285106Y26181999D01*
X44524999Y25942107D01*
X44764890Y26181999D01*
X45560106Y26181999D01*
X45799999Y25942107D01*
X46039890Y26181999D01*
X46835106Y26181999D01*
X47074999Y25942107D01*
X47314891Y26182000D01*
X47277539Y26206005D01*
X47144389Y26245100D01*
X47005610Y26245100D01*
X46872463Y26206006D01*
X46872454Y26206001D01*
X46835106Y26182000D01*
X46835106Y26181999D01*
X46039890Y26181999D01*
X46039891Y26182000D01*
X46002539Y26206005D01*
X45869389Y26245100D01*
X45730610Y26245100D01*
X45597463Y26206006D01*
X45597454Y26206001D01*
X45560106Y26182000D01*
X45560106Y26181999D01*
X44764890Y26181999D01*
X44764891Y26182000D01*
X44727539Y26206005D01*
X44594389Y26245100D01*
X44455610Y26245100D01*
X44322463Y26206006D01*
X44322454Y26206001D01*
X44285106Y26182000D01*
X44285106Y26181999D01*
X42186300Y26181999D01*
X42186300Y26618002D01*
X44285107Y26618002D01*
X44322460Y26593996D01*
X44455610Y26554901D01*
X44455612Y26554900D01*
X44594388Y26554900D01*
X44594389Y26554901D01*
X44727534Y26593995D01*
X44727540Y26593998D01*
X44764891Y26618002D01*
X45560107Y26618002D01*
X45597460Y26593996D01*
X45730610Y26554901D01*
X45730612Y26554900D01*
X45869388Y26554900D01*
X45869389Y26554901D01*
X46002534Y26593995D01*
X46002540Y26593998D01*
X46039891Y26618002D01*
X46835107Y26618002D01*
X46872460Y26593996D01*
X47005610Y26554901D01*
X47005612Y26554900D01*
X47144388Y26554900D01*
X47144389Y26554901D01*
X47277534Y26593995D01*
X47277540Y26593998D01*
X47314891Y26618002D01*
X47314892Y26618004D01*
X47075001Y26857895D01*
X47075000Y26857895D01*
X46835107Y26618003D01*
X46835107Y26618002D01*
X46039891Y26618002D01*
X46039892Y26618004D01*
X45800001Y26857895D01*
X45800000Y26857895D01*
X45560107Y26618003D01*
X45560107Y26618002D01*
X44764891Y26618002D01*
X44764892Y26618004D01*
X44525001Y26857895D01*
X44525000Y26857895D01*
X44285107Y26618003D01*
X44285107Y26618002D01*
X42186300Y26618002D01*
X42186300Y27037500D01*
X44037437Y27037500D01*
X44057186Y26900138D01*
X44104477Y26796586D01*
X44104479Y26796585D01*
X44326557Y27018663D01*
X44393985Y27018663D01*
X44424967Y26950821D01*
X44487709Y26910500D01*
X44543261Y26910500D01*
X44596560Y26926150D01*
X44645401Y26982515D01*
X44653307Y27037501D01*
X44704605Y27037501D01*
X44945520Y26796586D01*
X44945521Y26796586D01*
X44992812Y26900137D01*
X44992813Y26900142D01*
X45012562Y27037500D01*
X45312437Y27037500D01*
X45332186Y26900138D01*
X45379477Y26796586D01*
X45379479Y26796585D01*
X45601557Y27018663D01*
X45668985Y27018663D01*
X45699967Y26950821D01*
X45762709Y26910500D01*
X45818261Y26910500D01*
X45871560Y26926150D01*
X45920401Y26982515D01*
X45928307Y27037501D01*
X45979605Y27037501D01*
X46220520Y26796586D01*
X46220521Y26796586D01*
X46267812Y26900137D01*
X46267813Y26900142D01*
X46287562Y27037500D01*
X46587437Y27037500D01*
X46607186Y26900138D01*
X46654477Y26796586D01*
X46654479Y26796585D01*
X46876557Y27018663D01*
X46943985Y27018663D01*
X46974967Y26950821D01*
X47037709Y26910500D01*
X47093261Y26910500D01*
X47146560Y26926150D01*
X47195401Y26982515D01*
X47203307Y27037501D01*
X47254605Y27037501D01*
X47495520Y26796586D01*
X47495521Y26796586D01*
X47542812Y26900137D01*
X47542813Y26900142D01*
X47562562Y27037501D01*
X47542813Y27174859D01*
X47542812Y27174864D01*
X47495521Y27278416D01*
X47254605Y27037501D01*
X47203307Y27037501D01*
X47206015Y27056337D01*
X47175033Y27124179D01*
X47112291Y27164500D01*
X47056739Y27164500D01*
X47003440Y27148850D01*
X46954599Y27092485D01*
X46943985Y27018663D01*
X46876557Y27018663D01*
X46895394Y27037500D01*
X46895394Y27037501D01*
X46654478Y27278417D01*
X46607186Y27174862D01*
X46587437Y27037500D01*
X46287562Y27037500D01*
X46267813Y27174859D01*
X46267812Y27174864D01*
X46220521Y27278416D01*
X45979605Y27037501D01*
X45928307Y27037501D01*
X45931015Y27056337D01*
X45900033Y27124179D01*
X45837291Y27164500D01*
X45781739Y27164500D01*
X45728440Y27148850D01*
X45679599Y27092485D01*
X45668985Y27018663D01*
X45601557Y27018663D01*
X45620394Y27037500D01*
X45620394Y27037501D01*
X45379478Y27278417D01*
X45332186Y27174862D01*
X45312437Y27037500D01*
X45012562Y27037500D01*
X45012562Y27037501D01*
X44992813Y27174859D01*
X44992812Y27174864D01*
X44945521Y27278416D01*
X44704605Y27037501D01*
X44653307Y27037501D01*
X44656015Y27056337D01*
X44625033Y27124179D01*
X44562291Y27164500D01*
X44506739Y27164500D01*
X44453440Y27148850D01*
X44404599Y27092485D01*
X44393985Y27018663D01*
X44326557Y27018663D01*
X44345394Y27037500D01*
X44345394Y27037501D01*
X44104478Y27278417D01*
X44057186Y27174862D01*
X44037437Y27037500D01*
X42186300Y27037500D01*
X42186300Y27456999D01*
X44285106Y27456999D01*
X44524999Y27217107D01*
X44764890Y27456999D01*
X45560106Y27456999D01*
X45799998Y27217106D01*
X45799999Y27217106D01*
X46039891Y27456999D01*
X46835106Y27456999D01*
X47074999Y27217107D01*
X47314891Y27457000D01*
X47277539Y27481005D01*
X47144389Y27520100D01*
X47005610Y27520100D01*
X46872463Y27481006D01*
X46872454Y27481001D01*
X46835106Y27457000D01*
X46835106Y27456999D01*
X46039891Y27456999D01*
X46039891Y27457000D01*
X46002539Y27481005D01*
X45869389Y27520100D01*
X45730610Y27520100D01*
X45597463Y27481006D01*
X45597454Y27481001D01*
X45560106Y27457000D01*
X45560106Y27456999D01*
X44764890Y27456999D01*
X44764891Y27457000D01*
X44727539Y27481005D01*
X44594389Y27520100D01*
X44455610Y27520100D01*
X44322463Y27481006D01*
X44322454Y27481001D01*
X44285106Y27457000D01*
X44285106Y27456999D01*
X42186300Y27456999D01*
X42186300Y30099998D01*
X44313745Y30099998D01*
X44332648Y29980644D01*
X44387511Y29872967D01*
X44472966Y29787512D01*
X44580643Y29732649D01*
X44699998Y29713745D01*
X44700000Y29713745D01*
X44700002Y29713745D01*
X44819356Y29732649D01*
X44819357Y29732650D01*
X44819359Y29732650D01*
X44927035Y29787513D01*
X45012487Y29872965D01*
X45067350Y29980641D01*
X45067350Y29980643D01*
X45067351Y29980644D01*
X45086255Y30099998D01*
X45086255Y30100003D01*
X45067351Y30219357D01*
X45012488Y30327034D01*
X44927033Y30412489D01*
X44819356Y30467352D01*
X44700002Y30486255D01*
X44699998Y30486255D01*
X44580643Y30467352D01*
X44472966Y30412489D01*
X44387511Y30327034D01*
X44332648Y30219357D01*
X44313745Y30100003D01*
X44313745Y30099998D01*
X42186300Y30099998D01*
X42186300Y32602062D01*
X44815809Y32602062D01*
X44834712Y32482708D01*
X44889575Y32375031D01*
X44975030Y32289576D01*
X45082707Y32234713D01*
X45202062Y32215809D01*
X45202064Y32215809D01*
X45202065Y32215809D01*
X45234311Y32220917D01*
X45285680Y32229053D01*
X45354974Y32220099D01*
X45408426Y32175103D01*
X45429066Y32108352D01*
X45427553Y32087183D01*
X45413745Y31999998D01*
X45432648Y31880644D01*
X45487511Y31772967D01*
X45572966Y31687512D01*
X45680643Y31632649D01*
X45799998Y31613745D01*
X45800000Y31613745D01*
X45886772Y31627489D01*
X45956064Y31618535D01*
X46009517Y31573539D01*
X46030157Y31506788D01*
X46014414Y31450194D01*
X46015813Y31449571D01*
X46011626Y31440170D01*
X46011433Y31439474D01*
X46011089Y31438964D01*
X46002003Y31418559D01*
X45992727Y31401474D01*
X45981340Y31383938D01*
X45981337Y31383931D01*
X45980991Y31381744D01*
X45971805Y31350733D01*
X45970900Y31348702D01*
X45970900Y31327787D01*
X45969373Y31308389D01*
X45966102Y31287743D01*
X45966102Y31287741D01*
X45966675Y31285606D01*
X45970900Y31253513D01*
X45970900Y30661786D01*
X45951215Y30594747D01*
X45934583Y30574106D01*
X45887510Y30527033D01*
X45832648Y30419357D01*
X45813745Y30300003D01*
X45813745Y30299998D01*
X45832648Y30180644D01*
X45887511Y30072967D01*
X45972966Y29987512D01*
X46080643Y29932649D01*
X46199998Y29913745D01*
X46200000Y29913745D01*
X46200002Y29913745D01*
X46319356Y29932649D01*
X46319357Y29932650D01*
X46319359Y29932650D01*
X46427035Y29987513D01*
X46512487Y30072965D01*
X46526261Y30099998D01*
X48213745Y30099998D01*
X48232648Y29980644D01*
X48287511Y29872967D01*
X48372966Y29787512D01*
X48480643Y29732649D01*
X48599998Y29713745D01*
X48600000Y29713745D01*
X48600002Y29713745D01*
X48719356Y29732649D01*
X48719357Y29732650D01*
X48719359Y29732650D01*
X48827035Y29787513D01*
X48912487Y29872965D01*
X48926261Y29899998D01*
X53213745Y29899998D01*
X53232648Y29780644D01*
X53287511Y29672967D01*
X53372966Y29587512D01*
X53480643Y29532649D01*
X53599998Y29513745D01*
X53600000Y29513745D01*
X53600002Y29513745D01*
X53719356Y29532649D01*
X53719357Y29532650D01*
X53719359Y29532650D01*
X53827035Y29587513D01*
X53912487Y29672965D01*
X53926261Y29699998D01*
X59213745Y29699998D01*
X59232648Y29580644D01*
X59287511Y29472967D01*
X59372966Y29387512D01*
X59480643Y29332649D01*
X59599998Y29313745D01*
X59600000Y29313745D01*
X59600002Y29313745D01*
X59639482Y29319998D01*
X72367020Y29319998D01*
X72387276Y29140211D01*
X72429896Y29018411D01*
X72445798Y28972965D01*
X72447036Y28969429D01*
X72532980Y28832650D01*
X72543296Y28816233D01*
X72671233Y28688296D01*
X72824431Y28592035D01*
X72929626Y28555226D01*
X72995210Y28532277D01*
X73081354Y28522572D01*
X73129909Y28517101D01*
X73129910Y28517100D01*
X73915304Y28517100D01*
X73982343Y28497415D01*
X74028098Y28444611D01*
X74038042Y28375453D01*
X74017759Y28323250D01*
X74010485Y28312582D01*
X74010484Y28312580D01*
X73972500Y28189437D01*
X73972500Y27842956D01*
X73986878Y27747570D01*
X74042793Y27631459D01*
X74097510Y27572489D01*
X74130447Y27536992D01*
X74242052Y27472556D01*
X74367692Y27443880D01*
X74496202Y27453510D01*
X74616164Y27500592D01*
X74716920Y27580942D01*
X74789515Y27687419D01*
X74827500Y27810565D01*
X74827500Y28157039D01*
X74813122Y28252431D01*
X74757207Y28368540D01*
X74757206Y28368541D01*
X74757206Y28368542D01*
X74669553Y28463008D01*
X74669546Y28463014D01*
X74665717Y28465224D01*
X74662362Y28468742D01*
X74662285Y28468804D01*
X74662293Y28468815D01*
X74617503Y28515792D01*
X74604282Y28584400D01*
X74630252Y28649264D01*
X74661744Y28677601D01*
X74678767Y28688296D01*
X74806704Y28816233D01*
X74902965Y28969431D01*
X74916409Y29007854D01*
X74957132Y29064630D01*
X75022084Y29090378D01*
X75033452Y29090900D01*
X75991548Y29090900D01*
X76058587Y29071215D01*
X76104342Y29018411D01*
X76108590Y29007854D01*
X76122034Y28969432D01*
X76207980Y28832650D01*
X76218296Y28816233D01*
X76346233Y28688296D01*
X76499431Y28592035D01*
X76604626Y28555226D01*
X76670210Y28532277D01*
X76756354Y28522572D01*
X76804909Y28517101D01*
X76804910Y28517100D01*
X76804914Y28517100D01*
X78195090Y28517100D01*
X78195090Y28517101D01*
X78256174Y28523984D01*
X78329789Y28532277D01*
X78329792Y28532278D01*
X78500569Y28592035D01*
X78653767Y28688296D01*
X78781704Y28816233D01*
X78877965Y28969431D01*
X78937722Y29140208D01*
X78937722Y29140209D01*
X78937723Y29140211D01*
X78957980Y29319998D01*
X78957980Y29320003D01*
X78937723Y29499790D01*
X78923377Y29540788D01*
X78877965Y29670569D01*
X78781704Y29823767D01*
X78653767Y29951704D01*
X78607714Y29980641D01*
X78500571Y30047964D01*
X78500570Y30047965D01*
X78500569Y30047965D01*
X78459573Y30062310D01*
X78329789Y30107724D01*
X78195090Y30122900D01*
X78195086Y30122900D01*
X76804914Y30122900D01*
X76804910Y30122900D01*
X76670210Y30107724D01*
X76499428Y30047964D01*
X76346232Y29951704D01*
X76218296Y29823768D01*
X76122034Y29670569D01*
X76108590Y29632146D01*
X76067868Y29575370D01*
X76002916Y29549622D01*
X75991548Y29549100D01*
X75033452Y29549100D01*
X74966413Y29568785D01*
X74920658Y29621589D01*
X74916410Y29632146D01*
X74902965Y29670569D01*
X74875836Y29713745D01*
X74806704Y29823767D01*
X74678767Y29951704D01*
X74632714Y29980641D01*
X74525571Y30047964D01*
X74525570Y30047965D01*
X74525569Y30047965D01*
X74484573Y30062310D01*
X74354789Y30107724D01*
X74220090Y30122900D01*
X74220086Y30122900D01*
X73129914Y30122900D01*
X73129910Y30122900D01*
X72995210Y30107724D01*
X72824428Y30047964D01*
X72671232Y29951704D01*
X72543296Y29823768D01*
X72447036Y29670572D01*
X72387276Y29499790D01*
X72367020Y29320003D01*
X72367020Y29319998D01*
X59639482Y29319998D01*
X59719356Y29332649D01*
X59719357Y29332650D01*
X59719359Y29332650D01*
X59827035Y29387513D01*
X59912487Y29472965D01*
X59967350Y29580641D01*
X59967350Y29580643D01*
X59967351Y29580644D01*
X59986255Y29699998D01*
X59986255Y29709759D01*
X59990008Y29709759D01*
X59996573Y29760622D01*
X60022415Y29798421D01*
X62058576Y31834581D01*
X62119900Y31868066D01*
X62146258Y31870900D01*
X64738216Y31870900D01*
X64805255Y31851215D01*
X64825897Y31834581D01*
X64872966Y31787512D01*
X64980643Y31732649D01*
X65099998Y31713745D01*
X65100000Y31713745D01*
X65100002Y31713745D01*
X65219356Y31732649D01*
X65219357Y31732650D01*
X65219359Y31732650D01*
X65327035Y31787513D01*
X65412487Y31872965D01*
X65467350Y31980641D01*
X65467350Y31980643D01*
X65467351Y31980644D01*
X65486255Y32099998D01*
X65486255Y32100003D01*
X65467351Y32219357D01*
X65412488Y32327034D01*
X65327033Y32412489D01*
X65219356Y32467352D01*
X65100002Y32486255D01*
X65099998Y32486255D01*
X64980643Y32467352D01*
X64872966Y32412489D01*
X64825897Y32365419D01*
X64764574Y32331934D01*
X64738216Y32329100D01*
X62007631Y32329100D01*
X62004388Y32329185D01*
X61983469Y32330282D01*
X61963362Y32331335D01*
X61963358Y32331335D01*
X61943833Y32323840D01*
X61925185Y32318317D01*
X61904736Y32313970D01*
X61904735Y32313970D01*
X61902940Y32312665D01*
X61874510Y32297229D01*
X61872438Y32296434D01*
X61872431Y32296430D01*
X61857648Y32281646D01*
X61842858Y32269013D01*
X61825940Y32256722D01*
X61824832Y32254801D01*
X61805131Y32229129D01*
X59698420Y30122419D01*
X59637097Y30088934D01*
X59609758Y30088148D01*
X59609758Y30086255D01*
X59599997Y30086255D01*
X59480643Y30067352D01*
X59372966Y30012489D01*
X59287511Y29927034D01*
X59232648Y29819357D01*
X59213745Y29700003D01*
X59213745Y29699998D01*
X53926261Y29699998D01*
X53967350Y29780641D01*
X53967350Y29780643D01*
X53967351Y29780644D01*
X53986255Y29899998D01*
X53986255Y29900003D01*
X53967351Y30019357D01*
X53912488Y30127034D01*
X53827033Y30212489D01*
X53719356Y30267352D01*
X53600002Y30286255D01*
X53599998Y30286255D01*
X53480643Y30267352D01*
X53372966Y30212489D01*
X53287511Y30127034D01*
X53232648Y30019357D01*
X53213745Y29900003D01*
X53213745Y29899998D01*
X48926261Y29899998D01*
X48967350Y29980641D01*
X48967350Y29980643D01*
X48967351Y29980644D01*
X48986255Y30099998D01*
X48986255Y30100003D01*
X48967351Y30219357D01*
X48912488Y30327034D01*
X48827033Y30412489D01*
X48719356Y30467352D01*
X48600002Y30486255D01*
X48599998Y30486255D01*
X48480643Y30467352D01*
X48372966Y30412489D01*
X48287511Y30327034D01*
X48232648Y30219357D01*
X48213745Y30100003D01*
X48213745Y30099998D01*
X46526261Y30099998D01*
X46567350Y30180641D01*
X46567350Y30180643D01*
X46567351Y30180644D01*
X46586255Y30299998D01*
X46586255Y30300003D01*
X46567351Y30419357D01*
X46512488Y30527034D01*
X46465418Y30574105D01*
X46431934Y30635428D01*
X46429100Y30661785D01*
X46429100Y31153743D01*
X46448785Y31220782D01*
X46465419Y31241424D01*
X49354839Y34130846D01*
X49366968Y34142972D01*
X49371438Y34147023D01*
X49476485Y34233232D01*
X49496689Y34246731D01*
X49608439Y34306461D01*
X49630880Y34315756D01*
X49752140Y34352539D01*
X49775963Y34357277D01*
X49911276Y34370602D01*
X49917356Y34370900D01*
X49954607Y34370900D01*
X67180385Y34370900D01*
X67227568Y34357046D01*
X67229060Y34360645D01*
X67240340Y34355974D01*
X67240342Y34355972D01*
X67284943Y34347100D01*
X70115056Y34347101D01*
X70159658Y34355972D01*
X70210234Y34389766D01*
X70244028Y34440342D01*
X70252900Y34484943D01*
X70252899Y37315056D01*
X70244028Y37359658D01*
X70244026Y37359660D01*
X70244026Y37359662D01*
X70210234Y37410234D01*
X70200267Y37416894D01*
X70159658Y37444028D01*
X70159657Y37444029D01*
X70159656Y37444029D01*
X70159654Y37444030D01*
X70115059Y37452900D01*
X67284945Y37452900D01*
X67240341Y37444028D01*
X67240338Y37444027D01*
X67189766Y37410235D01*
X67155971Y37359657D01*
X67155970Y37359655D01*
X67147100Y37315060D01*
X67147100Y37315058D01*
X67147100Y37315057D01*
X67147100Y36127000D01*
X67147101Y34953100D01*
X67127416Y34886061D01*
X67074613Y34840306D01*
X67023101Y34829100D01*
X55221883Y34829100D01*
X55154844Y34848785D01*
X55109089Y34901589D01*
X55099145Y34970747D01*
X55128170Y35034303D01*
X55156605Y35058527D01*
X55248162Y35115217D01*
X55248163Y35115218D01*
X55399359Y35253051D01*
X55522660Y35416329D01*
X55613855Y35599471D01*
X55613860Y35599484D01*
X55669852Y35796273D01*
X55676962Y35873000D01*
X55063818Y35873000D01*
X55080000Y35928111D01*
X55080000Y36071889D01*
X55063818Y36127000D01*
X55676962Y36127000D01*
X55676962Y36127001D01*
X55669852Y36203728D01*
X55613860Y36400517D01*
X55613855Y36400530D01*
X55522660Y36583672D01*
X55399359Y36746950D01*
X55248163Y36884783D01*
X55248157Y36884787D01*
X55074206Y36992493D01*
X55074200Y36992495D01*
X54883415Y37066405D01*
X54707000Y37099383D01*
X54707000Y36486882D01*
X54615763Y36500000D01*
X54544237Y36500000D01*
X54453000Y36486882D01*
X54453000Y37099383D01*
X54276584Y37066405D01*
X54276583Y37066405D01*
X54085799Y36992495D01*
X54085793Y36992493D01*
X53911842Y36884787D01*
X53911836Y36884783D01*
X53760640Y36746950D01*
X53637339Y36583672D01*
X53546144Y36400530D01*
X53546139Y36400517D01*
X53490147Y36203728D01*
X53483037Y36127001D01*
X53483038Y36127000D01*
X54096182Y36127000D01*
X54080000Y36071889D01*
X54080000Y35928111D01*
X54096182Y35873000D01*
X53483038Y35873000D01*
X53490147Y35796273D01*
X53546139Y35599484D01*
X53546144Y35599471D01*
X53637339Y35416329D01*
X53760640Y35253051D01*
X53911836Y35115218D01*
X53911837Y35115217D01*
X54003395Y35058527D01*
X54050030Y35006499D01*
X54061134Y34937517D01*
X54033181Y34873483D01*
X53975046Y34834727D01*
X53938117Y34829100D01*
X52469971Y34829100D01*
X52402932Y34848785D01*
X52357177Y34901589D01*
X52347233Y34970747D01*
X52376258Y35034303D01*
X52420293Y35066057D01*
X52420277Y35066087D01*
X52420500Y35066207D01*
X52422519Y35067662D01*
X52425637Y35068955D01*
X52425650Y35068958D01*
X52599878Y35162084D01*
X52752589Y35287411D01*
X52877916Y35440122D01*
X52971042Y35614350D01*
X53028389Y35803397D01*
X53047753Y36000000D01*
X53028389Y36196603D01*
X52971042Y36385650D01*
X52877916Y36559878D01*
X52858389Y36583672D01*
X52752589Y36712590D01*
X52599881Y36837914D01*
X52599879Y36837915D01*
X52599878Y36837916D01*
X52425650Y36931042D01*
X52236603Y36988389D01*
X52236601Y36988390D01*
X52236599Y36988390D01*
X52040000Y37007753D01*
X51843400Y36988390D01*
X51654350Y36931042D01*
X51480118Y36837914D01*
X51327410Y36712590D01*
X51202086Y36559882D01*
X51108958Y36385650D01*
X51051610Y36196600D01*
X51032247Y36000000D01*
X51051610Y35803401D01*
X51051610Y35803399D01*
X51051611Y35803397D01*
X51108958Y35614350D01*
X51170079Y35500000D01*
X51202086Y35440119D01*
X51327410Y35287411D01*
X51480118Y35162087D01*
X51480122Y35162084D01*
X51654350Y35068958D01*
X51654359Y35068956D01*
X51657481Y35067662D01*
X51658869Y35066544D01*
X51659723Y35066087D01*
X51659636Y35065926D01*
X51711885Y35023821D01*
X51733950Y34957527D01*
X51716671Y34889828D01*
X51665535Y34842217D01*
X51610029Y34829100D01*
X50548931Y34829100D01*
X50481892Y34848785D01*
X50436137Y34901589D01*
X50426193Y34970747D01*
X50455218Y35034303D01*
X50460053Y35039497D01*
X50460231Y35039765D01*
X50460234Y35039766D01*
X50494028Y35090342D01*
X50502900Y35134943D01*
X50502899Y36865056D01*
X50494028Y36909658D01*
X50494026Y36909660D01*
X50494026Y36909662D01*
X50460234Y36960234D01*
X50418097Y36988389D01*
X50409658Y36994028D01*
X50409657Y36994029D01*
X50409656Y36994029D01*
X50409654Y36994030D01*
X50365059Y37002900D01*
X48634945Y37002900D01*
X48590341Y36994028D01*
X48590338Y36994027D01*
X48539766Y36960235D01*
X48505971Y36909657D01*
X48505970Y36909655D01*
X48497100Y36865060D01*
X48497100Y35134946D01*
X48505972Y35090342D01*
X48505973Y35090339D01*
X48522286Y35065926D01*
X48539766Y35039766D01*
X48590342Y35005972D01*
X48590343Y35005972D01*
X48590345Y35005971D01*
X48612642Y35001536D01*
X48634943Y34997100D01*
X49453708Y34997101D01*
X49520746Y34977417D01*
X49566501Y34924613D01*
X49576445Y34855454D01*
X49547420Y34791898D01*
X49492025Y34755170D01*
X49442411Y34739050D01*
X49270026Y34651220D01*
X49113510Y34537506D01*
X49079543Y34503540D01*
X49079543Y34503539D01*
X49045110Y34469107D01*
X49026467Y34450463D01*
X48241038Y33665035D01*
X47482762Y32906760D01*
X47421439Y32873275D01*
X47351747Y32878259D01*
X47295814Y32920131D01*
X47271397Y32985595D01*
X47272608Y33013840D01*
X47286255Y33100000D01*
X47286255Y33100003D01*
X47267351Y33219357D01*
X47212488Y33327034D01*
X47127033Y33412489D01*
X47019356Y33467352D01*
X46900002Y33486255D01*
X46899998Y33486255D01*
X46780641Y33467351D01*
X46774958Y33465504D01*
X46705117Y33463507D01*
X46645283Y33499587D01*
X46614454Y33562287D01*
X46614165Y33602832D01*
X46629555Y33699999D01*
X46629555Y33700003D01*
X46610651Y33819357D01*
X46555788Y33927034D01*
X46470333Y34012489D01*
X46362656Y34067352D01*
X46243302Y34086255D01*
X46243298Y34086255D01*
X46123943Y34067352D01*
X46016266Y34012489D01*
X45930811Y33927034D01*
X45875948Y33819357D01*
X45857045Y33700004D01*
X45857045Y33690242D01*
X45853302Y33690242D01*
X45846692Y33639304D01*
X45820881Y33601579D01*
X45237156Y33017855D01*
X45175833Y32984370D01*
X45168874Y32983063D01*
X45082707Y32969415D01*
X44975030Y32914553D01*
X44889575Y32829098D01*
X44834712Y32721421D01*
X44815809Y32602067D01*
X44815809Y32602062D01*
X42186300Y32602062D01*
X42186300Y37735183D01*
X42186385Y37738428D01*
X42188534Y37779439D01*
X42181042Y37798956D01*
X42175515Y37817615D01*
X42171169Y37838065D01*
X42169866Y37839858D01*
X42154425Y37868299D01*
X42153633Y37870362D01*
X42153632Y37870363D01*
X42153632Y37870364D01*
X42138848Y37885148D01*
X42126212Y37899942D01*
X42113922Y37916858D01*
X42113918Y37916862D01*
X42112006Y37917965D01*
X42086326Y37937670D01*
X40623999Y39399998D01*
X50913745Y39399998D01*
X50932648Y39280644D01*
X50987511Y39172967D01*
X51072966Y39087512D01*
X51180643Y39032649D01*
X51299998Y39013745D01*
X51300000Y39013745D01*
X51300002Y39013745D01*
X51419356Y39032649D01*
X51419357Y39032650D01*
X51419359Y39032650D01*
X51527035Y39087513D01*
X51612487Y39172965D01*
X51667350Y39280641D01*
X51667350Y39280643D01*
X51667351Y39280644D01*
X51686255Y39399998D01*
X54913745Y39399998D01*
X54932648Y39280644D01*
X54987511Y39172967D01*
X55072966Y39087512D01*
X55180643Y39032649D01*
X55299998Y39013745D01*
X55300000Y39013745D01*
X55300002Y39013745D01*
X55419356Y39032649D01*
X55419357Y39032650D01*
X55419359Y39032650D01*
X55527035Y39087513D01*
X55612487Y39172965D01*
X55664992Y39276014D01*
X55712963Y39326807D01*
X55780783Y39343603D01*
X55846919Y39321067D01*
X55881762Y39280857D01*
X55881773Y39280864D01*
X55881863Y39280740D01*
X55885959Y39276013D01*
X55887511Y39272967D01*
X55972966Y39187512D01*
X56080643Y39132649D01*
X56199998Y39113745D01*
X56200000Y39113745D01*
X56200002Y39113745D01*
X56319356Y39132649D01*
X56319357Y39132650D01*
X56319359Y39132650D01*
X56427035Y39187513D01*
X56512487Y39272965D01*
X56567350Y39380641D01*
X56578148Y39448823D01*
X56608076Y39511954D01*
X56612922Y39517086D01*
X56646071Y39550235D01*
X69018720Y39550235D01*
X69048823Y39353732D01*
X69048827Y39353716D01*
X69111660Y39184062D01*
X69117870Y39167295D01*
X69223030Y38998581D01*
X69223031Y38998580D01*
X69223033Y38998577D01*
X69359996Y38854492D01*
X69359998Y38854491D01*
X69360000Y38854489D01*
X69416569Y38815116D01*
X69523169Y38740920D01*
X69523170Y38740920D01*
X69523171Y38740919D01*
X69705863Y38662519D01*
X69900598Y38622500D01*
X70049572Y38622500D01*
X70197785Y38637572D01*
X70277297Y38662519D01*
X70387471Y38697086D01*
X70561294Y38793566D01*
X70711823Y38922791D01*
X70712138Y38923061D01*
X70712139Y38923062D01*
X70782333Y39013745D01*
X70833828Y39080271D01*
X70921380Y39258758D01*
X70945966Y39353716D01*
X70971209Y39451208D01*
X70971210Y39451214D01*
X70971211Y39451216D01*
X70981280Y39649765D01*
X70951175Y39846276D01*
X70943369Y39867352D01*
X70916004Y39941242D01*
X70882130Y40032705D01*
X70776970Y40201419D01*
X70776967Y40201422D01*
X70776966Y40201424D01*
X70640003Y40345509D01*
X70640001Y40345510D01*
X70476830Y40459081D01*
X70294135Y40537482D01*
X70099402Y40577500D01*
X69950429Y40577500D01*
X69950428Y40577500D01*
X69802214Y40562429D01*
X69612536Y40502917D01*
X69612527Y40502913D01*
X69438704Y40406433D01*
X69438703Y40406433D01*
X69287861Y40276940D01*
X69287860Y40276939D01*
X69166173Y40119732D01*
X69166171Y40119728D01*
X69078618Y39941239D01*
X69028790Y39748793D01*
X69028789Y39748787D01*
X69018720Y39550235D01*
X56646071Y39550235D01*
X58679618Y41583781D01*
X58740942Y41617266D01*
X58767300Y41620100D01*
X63589016Y41620100D01*
X63656055Y41600415D01*
X63665028Y41593184D01*
X63665074Y41593246D01*
X63672965Y41587513D01*
X63780643Y41532649D01*
X63899998Y41513745D01*
X63900000Y41513745D01*
X63900002Y41513745D01*
X64019356Y41532649D01*
X64019357Y41532650D01*
X64019359Y41532650D01*
X64127035Y41587513D01*
X64127037Y41587516D01*
X64134926Y41593246D01*
X64136548Y41591014D01*
X64184626Y41617266D01*
X64210984Y41620100D01*
X66584419Y41620100D01*
X66651458Y41600415D01*
X66697213Y41547611D01*
X66707157Y41478453D01*
X66690180Y41436630D01*
X66691943Y41435731D01*
X66632648Y41319357D01*
X66613745Y41200003D01*
X66613745Y41199998D01*
X66632648Y41080644D01*
X66687511Y40972967D01*
X66772966Y40887512D01*
X66880643Y40832649D01*
X66999998Y40813745D01*
X67000000Y40813745D01*
X67000002Y40813745D01*
X67119356Y40832649D01*
X67119357Y40832650D01*
X67119359Y40832650D01*
X67227035Y40887513D01*
X67312487Y40972965D01*
X67367350Y41080641D01*
X67367350Y41080643D01*
X67367351Y41080644D01*
X67386255Y41199998D01*
X67386255Y41200003D01*
X67367351Y41319357D01*
X67308057Y41435731D01*
X67310376Y41436913D01*
X67291784Y41489014D01*
X67307605Y41557069D01*
X67357708Y41605767D01*
X67415581Y41620100D01*
X74124900Y41620100D01*
X74191939Y41600415D01*
X74237694Y41547611D01*
X74247638Y41478453D01*
X74218613Y41414897D01*
X74212581Y41408419D01*
X72343680Y39539520D01*
X72337198Y39533878D01*
X72328399Y39527234D01*
X72298468Y39494401D01*
X72296494Y39492333D01*
X72283741Y39479579D01*
X72283731Y39479568D01*
X72282486Y39477750D01*
X72277161Y39471030D01*
X72257903Y39449904D01*
X72257902Y39449902D01*
X72255925Y39444799D01*
X72242605Y39419530D01*
X72239518Y39415024D01*
X72239514Y39415015D01*
X72232969Y39387189D01*
X72230426Y39378980D01*
X72220100Y39352325D01*
X72220100Y39346858D01*
X72216807Y39318471D01*
X72215556Y39313154D01*
X72215556Y39313151D01*
X72219505Y39284844D01*
X72220100Y39276268D01*
X72220100Y35410985D01*
X72200415Y35343946D01*
X72193183Y35334972D01*
X72193246Y35334926D01*
X72187512Y35327035D01*
X72132648Y35219357D01*
X72113745Y35100003D01*
X72113745Y35099998D01*
X72132648Y34980644D01*
X72187511Y34872967D01*
X72272966Y34787512D01*
X72380643Y34732649D01*
X72499998Y34713745D01*
X72500000Y34713745D01*
X72500002Y34713745D01*
X72619356Y34732649D01*
X72619357Y34732650D01*
X72619359Y34732650D01*
X72727035Y34787513D01*
X72812487Y34872965D01*
X72867350Y34980641D01*
X72867350Y34980643D01*
X72867351Y34980644D01*
X72886255Y35099998D01*
X72886255Y35100003D01*
X72867351Y35219357D01*
X72812487Y35327035D01*
X72806754Y35334926D01*
X72808984Y35336547D01*
X72782730Y35384646D01*
X72779900Y35410985D01*
X72779900Y35773000D01*
X76746001Y35773000D01*
X76746001Y34474986D01*
X76760737Y34400894D01*
X76760738Y34400891D01*
X76816876Y34316877D01*
X76900895Y34260737D01*
X76900896Y34260736D01*
X76974980Y34246001D01*
X77972999Y34246001D01*
X77973000Y34246002D01*
X77973000Y35773000D01*
X76746001Y35773000D01*
X72779900Y35773000D01*
X72779900Y37325018D01*
X76745999Y37325018D01*
X76746000Y36027001D01*
X76746000Y36027000D01*
X77973000Y36027000D01*
X77973000Y37554000D01*
X76974985Y37554000D01*
X76900893Y37539263D01*
X76900890Y37539262D01*
X76816876Y37483124D01*
X76760736Y37399105D01*
X76760735Y37399104D01*
X76746000Y37325022D01*
X76745999Y37325018D01*
X72779900Y37325018D01*
X72779900Y39132701D01*
X72799585Y39199740D01*
X72816214Y39220377D01*
X73146072Y39550235D01*
X76018720Y39550235D01*
X76048823Y39353732D01*
X76048827Y39353716D01*
X76111660Y39184062D01*
X76117870Y39167295D01*
X76223030Y38998581D01*
X76223031Y38998580D01*
X76223033Y38998577D01*
X76359996Y38854492D01*
X76359998Y38854491D01*
X76360000Y38854489D01*
X76416569Y38815116D01*
X76523169Y38740920D01*
X76523170Y38740920D01*
X76523171Y38740919D01*
X76705863Y38662519D01*
X76900598Y38622500D01*
X77049572Y38622500D01*
X77197785Y38637572D01*
X77277297Y38662519D01*
X77387471Y38697086D01*
X77561294Y38793566D01*
X77711823Y38922791D01*
X77712138Y38923061D01*
X77712139Y38923062D01*
X77782333Y39013745D01*
X77833828Y39080271D01*
X77921380Y39258758D01*
X77945966Y39353716D01*
X77971209Y39451208D01*
X77971210Y39451214D01*
X77971211Y39451216D01*
X77981280Y39649765D01*
X77951175Y39846276D01*
X77943369Y39867352D01*
X77916004Y39941242D01*
X77882130Y40032705D01*
X77776970Y40201419D01*
X77776967Y40201422D01*
X77776966Y40201424D01*
X77640003Y40345509D01*
X77640001Y40345510D01*
X77476830Y40459081D01*
X77294135Y40537482D01*
X77099402Y40577500D01*
X76950429Y40577500D01*
X76950428Y40577500D01*
X76802214Y40562429D01*
X76612536Y40502917D01*
X76612527Y40502913D01*
X76438704Y40406433D01*
X76438703Y40406433D01*
X76287861Y40276940D01*
X76287860Y40276939D01*
X76166173Y40119732D01*
X76166171Y40119728D01*
X76078618Y39941239D01*
X76028790Y39748793D01*
X76028789Y39748787D01*
X76018720Y39550235D01*
X73146072Y39550235D01*
X75306619Y41710783D01*
X75367942Y41744267D01*
X75394300Y41747101D01*
X77215055Y41747101D01*
X77215056Y41747101D01*
X77259658Y41755972D01*
X77310234Y41789766D01*
X77344028Y41840342D01*
X77352900Y41884943D01*
X77352899Y44715056D01*
X77344028Y44759658D01*
X77344026Y44759660D01*
X77344026Y44759662D01*
X77310234Y44810234D01*
X77259659Y44844027D01*
X77259658Y44844028D01*
X77259657Y44844029D01*
X77259656Y44844029D01*
X77259654Y44844030D01*
X77215059Y44852900D01*
X74984945Y44852900D01*
X74940341Y44844028D01*
X74940338Y44844027D01*
X74889766Y44810235D01*
X74855971Y44759657D01*
X74855970Y44759655D01*
X74847100Y44715060D01*
X74847100Y42494303D01*
X74827415Y42427264D01*
X74810782Y42406622D01*
X74665946Y42261784D01*
X74620381Y42216219D01*
X74559058Y42182734D01*
X74532699Y42179900D01*
X64210984Y42179900D01*
X64143945Y42199585D01*
X64134971Y42206817D01*
X64134926Y42206754D01*
X64127034Y42212488D01*
X64019356Y42267352D01*
X63900002Y42286255D01*
X63899998Y42286255D01*
X63780643Y42267352D01*
X63672965Y42212488D01*
X63665074Y42206754D01*
X63663451Y42208987D01*
X63615374Y42182734D01*
X63589016Y42179900D01*
X58658831Y42179900D01*
X58650255Y42180495D01*
X58639340Y42182018D01*
X58594954Y42179966D01*
X58592091Y42179900D01*
X58574065Y42179900D01*
X58574047Y42179899D01*
X58571879Y42179494D01*
X58563369Y42178508D01*
X58534808Y42177187D01*
X58534806Y42177186D01*
X58529797Y42174974D01*
X58502517Y42166527D01*
X58497139Y42165522D01*
X58497137Y42165521D01*
X58472833Y42150473D01*
X58465230Y42146465D01*
X58439079Y42134918D01*
X58435207Y42131046D01*
X58412812Y42113308D01*
X58408167Y42110433D01*
X58408165Y42110431D01*
X58390940Y42087622D01*
X58385299Y42081139D01*
X56217102Y39912942D01*
X56155779Y39879457D01*
X56148820Y39878150D01*
X56080643Y39867352D01*
X55972966Y39812489D01*
X55887511Y39727034D01*
X55835009Y39623990D01*
X55787035Y39573194D01*
X55719214Y39556398D01*
X55653079Y39578935D01*
X55618238Y39619145D01*
X55618227Y39619136D01*
X55618130Y39619270D01*
X55614038Y39623992D01*
X55612488Y39627034D01*
X55527033Y39712489D01*
X55419356Y39767352D01*
X55300002Y39786255D01*
X55299998Y39786255D01*
X55180643Y39767352D01*
X55072966Y39712489D01*
X54987511Y39627034D01*
X54932648Y39519357D01*
X54913745Y39400003D01*
X54913745Y39399998D01*
X51686255Y39399998D01*
X51686255Y39400003D01*
X51667351Y39519357D01*
X51612488Y39627034D01*
X51527033Y39712489D01*
X51419356Y39767352D01*
X51300002Y39786255D01*
X51299998Y39786255D01*
X51180643Y39767352D01*
X51072966Y39712489D01*
X50987511Y39627034D01*
X50932648Y39519357D01*
X50913745Y39400003D01*
X50913745Y39399998D01*
X40623999Y39399998D01*
X40467382Y39556615D01*
X40465147Y39558970D01*
X40437671Y39589485D01*
X40437669Y39589487D01*
X40418567Y39597992D01*
X40401475Y39607272D01*
X40383934Y39618662D01*
X40383933Y39618663D01*
X40381745Y39619009D01*
X40350724Y39628198D01*
X40348698Y39629100D01*
X40348697Y39629100D01*
X40327786Y39629100D01*
X40308387Y39630627D01*
X40287742Y39633897D01*
X40285606Y39633325D01*
X40253515Y39629100D01*
X27161784Y39629100D01*
X27094745Y39648785D01*
X27074103Y39665419D01*
X27027033Y39712489D01*
X26919356Y39767352D01*
X26800002Y39786255D01*
X26799998Y39786255D01*
X26680643Y39767352D01*
X26572966Y39712489D01*
X26487511Y39627034D01*
X26432648Y39519357D01*
X26413744Y39400003D01*
X26413744Y39399998D01*
X26432648Y39280644D01*
X26487511Y39172967D01*
X26496568Y39163910D01*
X26530053Y39102587D01*
X26525069Y39032895D01*
X26496569Y38988548D01*
X26430810Y38922789D01*
X26375948Y38815114D01*
X26357044Y38695760D01*
X26357044Y38695755D01*
X381500Y38695755D01*
X381500Y41899998D01*
X49013745Y41899998D01*
X49032648Y41780644D01*
X49087511Y41672967D01*
X49172966Y41587512D01*
X49280643Y41532649D01*
X49399998Y41513745D01*
X49400000Y41513745D01*
X49400002Y41513745D01*
X49519356Y41532649D01*
X49519357Y41532650D01*
X49519359Y41532650D01*
X49627035Y41587513D01*
X49712487Y41672965D01*
X49767350Y41780641D01*
X49767350Y41780643D01*
X49767351Y41780644D01*
X49786255Y41899998D01*
X49786255Y41900003D01*
X49767351Y42019357D01*
X49712488Y42127034D01*
X49665419Y42174103D01*
X49631934Y42235426D01*
X49629100Y42261784D01*
X49629100Y43138216D01*
X49648785Y43205255D01*
X49665420Y43225898D01*
X49712483Y43272961D01*
X49712483Y43272962D01*
X49712487Y43272965D01*
X49767350Y43380641D01*
X49767350Y43380643D01*
X49767351Y43380644D01*
X49786255Y43499998D01*
X49786255Y43500003D01*
X49767351Y43619357D01*
X49712488Y43727034D01*
X49627033Y43812489D01*
X49519356Y43867352D01*
X49400002Y43886255D01*
X49399998Y43886255D01*
X49280643Y43867352D01*
X49172966Y43812489D01*
X49087511Y43727034D01*
X49032648Y43619357D01*
X49013745Y43500003D01*
X49013745Y43499998D01*
X49032648Y43380644D01*
X49087511Y43272967D01*
X49134581Y43225897D01*
X49168066Y43164574D01*
X49170900Y43138216D01*
X49170900Y42261784D01*
X49151215Y42194745D01*
X49134581Y42174103D01*
X49087511Y42127034D01*
X49032648Y42019357D01*
X49013745Y41900003D01*
X49013745Y41899998D01*
X381500Y41899998D01*
X381500Y46998259D01*
X381598Y47001736D01*
X385227Y47066363D01*
X1268687Y47066363D01*
X1278846Y46801301D01*
X1329350Y46540894D01*
X1419009Y46291257D01*
X1419012Y46291250D01*
X1545726Y46058228D01*
X1545729Y46058223D01*
X1628480Y45949664D01*
X1706534Y45847267D01*
X1897657Y45663330D01*
X2114617Y45510723D01*
X2352331Y45393024D01*
X2605225Y45312991D01*
X2867372Y45272500D01*
X2867376Y45272500D01*
X3066219Y45272500D01*
X3066220Y45272500D01*
X3264478Y45287721D01*
X3522756Y45348161D01*
X3568836Y45366734D01*
X3768774Y45447314D01*
X3768779Y45447317D01*
X3768782Y45447318D01*
X3996788Y45582869D01*
X4201430Y45751636D01*
X4377912Y45949664D01*
X4448215Y46058224D01*
X4522094Y46172306D01*
X4522094Y46172308D01*
X4522096Y46172310D01*
X4630604Y46414357D01*
X4700892Y46670131D01*
X4731313Y46933637D01*
X4726226Y47066363D01*
X75268687Y47066363D01*
X75278846Y46801301D01*
X75329350Y46540894D01*
X75419009Y46291257D01*
X75419012Y46291250D01*
X75545726Y46058228D01*
X75545729Y46058223D01*
X75628480Y45949664D01*
X75706534Y45847267D01*
X75897657Y45663330D01*
X76114617Y45510723D01*
X76352331Y45393024D01*
X76605225Y45312991D01*
X76867372Y45272500D01*
X76867376Y45272500D01*
X77066219Y45272500D01*
X77066220Y45272500D01*
X77264478Y45287721D01*
X77522756Y45348161D01*
X77568836Y45366734D01*
X77768774Y45447314D01*
X77768779Y45447317D01*
X77768782Y45447318D01*
X77996788Y45582869D01*
X78201430Y45751636D01*
X78377912Y45949664D01*
X78448215Y46058224D01*
X78522094Y46172306D01*
X78522094Y46172308D01*
X78522096Y46172310D01*
X78630604Y46414357D01*
X78700892Y46670131D01*
X78731313Y46933637D01*
X78721153Y47198699D01*
X78702829Y47293179D01*
X78670649Y47459107D01*
X78580990Y47708744D01*
X78580987Y47708751D01*
X78454273Y47941773D01*
X78454270Y47941778D01*
X78293469Y48152729D01*
X78293466Y48152733D01*
X78102343Y48336670D01*
X78018040Y48395968D01*
X77885382Y48489278D01*
X77647670Y48606976D01*
X77647667Y48606977D01*
X77394777Y48687009D01*
X77289916Y48703206D01*
X77132628Y48727500D01*
X76933780Y48727500D01*
X76735522Y48712279D01*
X76735518Y48712279D01*
X76477246Y48651840D01*
X76477236Y48651837D01*
X76231225Y48552687D01*
X76231216Y48552682D01*
X76003213Y48417132D01*
X75798571Y48248365D01*
X75622088Y48050337D01*
X75622081Y48050328D01*
X75477905Y47827695D01*
X75477904Y47827691D01*
X75369395Y47585643D01*
X75299108Y47329872D01*
X75268687Y47066363D01*
X4726226Y47066363D01*
X4721153Y47198699D01*
X4702829Y47293179D01*
X4670649Y47459107D01*
X4580990Y47708744D01*
X4580987Y47708751D01*
X4454273Y47941773D01*
X4454270Y47941778D01*
X4293469Y48152729D01*
X4293466Y48152733D01*
X4102343Y48336670D01*
X4018040Y48395968D01*
X3885382Y48489278D01*
X3647670Y48606976D01*
X3647667Y48606977D01*
X3394777Y48687009D01*
X3289916Y48703206D01*
X3132628Y48727500D01*
X2933780Y48727500D01*
X2735522Y48712279D01*
X2735518Y48712279D01*
X2477246Y48651840D01*
X2477236Y48651837D01*
X2231225Y48552687D01*
X2231216Y48552682D01*
X2003213Y48417132D01*
X1798571Y48248365D01*
X1622088Y48050337D01*
X1622081Y48050328D01*
X1477905Y47827695D01*
X1477904Y47827691D01*
X1369395Y47585643D01*
X1299108Y47329872D01*
X1268687Y47066363D01*
X385227Y47066363D01*
X388212Y47119520D01*
X397770Y47289715D01*
X398545Y47296598D01*
X446567Y47579239D01*
X448115Y47586018D01*
X527480Y47861502D01*
X529775Y47868056D01*
X560311Y47941776D01*
X639486Y48132924D01*
X642498Y48139174D01*
X683568Y48213484D01*
X781169Y48390081D01*
X784865Y48395962D01*
X950757Y48629765D01*
X955089Y48635199D01*
X1146121Y48848964D01*
X1151039Y48853881D01*
X1364801Y49044911D01*
X1370235Y49049243D01*
X1439294Y49098244D01*
X1604038Y49215135D01*
X1609919Y49218831D01*
X1860827Y49357503D01*
X1867076Y49360514D01*
X2090547Y49453079D01*
X2131944Y49470225D01*
X2138498Y49472520D01*
X2413986Y49551886D01*
X2420761Y49553433D01*
X2703402Y49601455D01*
X2710285Y49602230D01*
X2873089Y49611373D01*
X2998265Y49618402D01*
X3001742Y49618500D01*
X3054851Y49618500D01*
X76945149Y49618500D01*
X76998258Y49618500D01*
X77001735Y49618402D01*
G37*
G04 #@! TD.AperFunction*
G04 #@! TD*
M02*
