G04 #@! TF.GenerationSoftware,KiCad,Pcbnew,7.0.6-7.0.6~ubuntu20.04.1*
G04 #@! TF.CreationDate,2024-04-09T16:12:21-07:00*
G04 #@! TF.ProjectId,harp_lick_detector_capactive,68617270-5f6c-4696-936b-5f6465746563,rev?*
G04 #@! TF.SameCoordinates,PX640a5a0PY7088980*
G04 #@! TF.FileFunction,Paste,Top*
G04 #@! TF.FilePolarity,Positive*
%FSLAX46Y46*%
G04 Gerber Fmt 4.6, Leading zero omitted, Abs format (unit mm)*
G04 Created by KiCad (PCBNEW 7.0.6-7.0.6~ubuntu20.04.1) date 2024-04-09 16:12:21*
%MOMM*%
%LPD*%
G01*
G04 APERTURE LIST*
G04 Aperture macros list*
%AMRoundRect*
0 Rectangle with rounded corners*
0 $1 Rounding radius*
0 $2 $3 $4 $5 $6 $7 $8 $9 X,Y pos of 4 corners*
0 Add a 4 corners polygon primitive as box body*
4,1,4,$2,$3,$4,$5,$6,$7,$8,$9,$2,$3,0*
0 Add four circle primitives for the rounded corners*
1,1,$1+$1,$2,$3*
1,1,$1+$1,$4,$5*
1,1,$1+$1,$6,$7*
1,1,$1+$1,$8,$9*
0 Add four rect primitives between the rounded corners*
20,1,$1+$1,$2,$3,$4,$5,0*
20,1,$1+$1,$4,$5,$6,$7,0*
20,1,$1+$1,$6,$7,$8,$9,0*
20,1,$1+$1,$8,$9,$2,$3,0*%
%AMFreePoly0*
4,1,40,6.515355,1.015355,6.530000,0.980000,6.530000,-1.460000,6.515355,-1.495355,6.480000,-1.510000,4.370000,-1.510000,4.367882,-1.509122,4.365698,-1.509814,4.350485,-1.501916,4.334645,-1.495355,4.333768,-1.493237,4.331734,-1.492182,4.233315,-1.375157,4.010127,-1.166713,3.760982,-0.990847,3.490207,-0.850543,3.202844,-0.748414,2.904254,-0.686367,2.599999,-0.665555,2.295745,-0.686367,
1.997154,-0.748415,1.709792,-0.850543,1.439022,-0.990844,1.189872,-1.166713,0.966684,-1.375157,0.868266,-1.492182,0.866231,-1.493237,0.865355,-1.495355,0.849514,-1.501916,0.834302,-1.509814,0.832117,-1.509122,0.830000,-1.510000,-1.280000,-1.510000,-1.315355,-1.495355,-1.330000,-1.460000,-1.330000,0.980000,-1.315355,1.015355,-1.280000,1.030000,6.480000,1.030000,6.515355,1.015355,
6.515355,1.015355,$1*%
G04 Aperture macros list end*
%ADD10RoundRect,0.250000X-0.475000X0.250000X-0.475000X-0.250000X0.475000X-0.250000X0.475000X0.250000X0*%
%ADD11RoundRect,0.140000X-0.140000X-0.170000X0.140000X-0.170000X0.140000X0.170000X-0.140000X0.170000X0*%
%ADD12RoundRect,0.140000X0.170000X-0.140000X0.170000X0.140000X-0.170000X0.140000X-0.170000X-0.140000X0*%
%ADD13RoundRect,0.135000X0.185000X-0.135000X0.185000X0.135000X-0.185000X0.135000X-0.185000X-0.135000X0*%
%ADD14RoundRect,0.135000X-0.185000X0.135000X-0.185000X-0.135000X0.185000X-0.135000X0.185000X0.135000X0*%
%ADD15RoundRect,0.237500X0.287500X0.237500X-0.287500X0.237500X-0.287500X-0.237500X0.287500X-0.237500X0*%
%ADD16RoundRect,0.140000X0.140000X0.170000X-0.140000X0.170000X-0.140000X-0.170000X0.140000X-0.170000X0*%
%ADD17RoundRect,0.135000X-0.135000X-0.185000X0.135000X-0.185000X0.135000X0.185000X-0.135000X0.185000X0*%
%ADD18RoundRect,0.160000X0.160000X-0.197500X0.160000X0.197500X-0.160000X0.197500X-0.160000X-0.197500X0*%
%ADD19RoundRect,0.150000X0.512500X0.150000X-0.512500X0.150000X-0.512500X-0.150000X0.512500X-0.150000X0*%
%ADD20R,2.440000X1.120000*%
%ADD21RoundRect,0.100000X0.225000X0.100000X-0.225000X0.100000X-0.225000X-0.100000X0.225000X-0.100000X0*%
%ADD22RoundRect,0.075000X-0.075000X0.075000X-0.075000X-0.075000X0.075000X-0.075000X0.075000X0.075000X0*%
%ADD23RoundRect,0.250000X-0.625000X0.312500X-0.625000X-0.312500X0.625000X-0.312500X0.625000X0.312500X0*%
%ADD24R,0.800000X0.950000*%
%ADD25RoundRect,0.062500X-0.062500X0.187500X-0.062500X-0.187500X0.062500X-0.187500X0.062500X0.187500X0*%
%ADD26RoundRect,0.250000X0.250000X0.475000X-0.250000X0.475000X-0.250000X-0.475000X0.250000X-0.475000X0*%
%ADD27RoundRect,0.250000X-0.250000X-0.475000X0.250000X-0.475000X0.250000X0.475000X-0.250000X0.475000X0*%
%ADD28RoundRect,0.100000X0.100000X-0.225000X0.100000X0.225000X-0.100000X0.225000X-0.100000X-0.225000X0*%
%ADD29RoundRect,0.135000X0.135000X0.185000X-0.135000X0.185000X-0.135000X-0.185000X0.135000X-0.185000X0*%
%ADD30RoundRect,0.150000X-0.725000X-0.150000X0.725000X-0.150000X0.725000X0.150000X-0.725000X0.150000X0*%
%ADD31R,0.800000X0.300000*%
%ADD32RoundRect,0.250000X-0.292217X0.292217X-0.292217X-0.292217X0.292217X-0.292217X0.292217X0.292217X0*%
%ADD33RoundRect,0.050000X-0.050000X0.387500X-0.050000X-0.387500X0.050000X-0.387500X0.050000X0.387500X0*%
%ADD34RoundRect,0.050000X-0.387500X0.050000X-0.387500X-0.050000X0.387500X-0.050000X0.387500X0.050000X0*%
%ADD35RoundRect,0.237500X-0.250000X-0.237500X0.250000X-0.237500X0.250000X0.237500X-0.250000X0.237500X0*%
%ADD36R,2.000000X1.000000*%
%ADD37R,1.000000X0.520000*%
%ADD38R,1.000000X0.270000*%
%ADD39R,0.900000X1.000000*%
%ADD40R,1.700000X0.550000*%
%ADD41RoundRect,0.100000X-0.225000X-0.100000X0.225000X-0.100000X0.225000X0.100000X-0.225000X0.100000X0*%
%ADD42RoundRect,0.100000X0.100000X-0.712500X0.100000X0.712500X-0.100000X0.712500X-0.100000X-0.712500X0*%
%ADD43R,0.800000X0.900000*%
%ADD44RoundRect,0.147500X-0.172500X0.147500X-0.172500X-0.147500X0.172500X-0.147500X0.172500X0.147500X0*%
%ADD45RoundRect,0.140000X-0.170000X0.140000X-0.170000X-0.140000X0.170000X-0.140000X0.170000X0.140000X0*%
%ADD46RoundRect,0.150000X0.875000X0.150000X-0.875000X0.150000X-0.875000X-0.150000X0.875000X-0.150000X0*%
%ADD47R,0.300000X0.800000*%
%ADD48C,2.050000*%
%ADD49FreePoly0,180.000000*%
%ADD50FreePoly0,0.000000*%
%ADD51RoundRect,0.147500X0.147500X0.172500X-0.147500X0.172500X-0.147500X-0.172500X0.147500X-0.172500X0*%
%ADD52R,1.140000X1.200000*%
%ADD53R,0.450000X1.450000*%
%ADD54R,4.200000X3.000000*%
%ADD55RoundRect,0.160000X-0.197500X-0.160000X0.197500X-0.160000X0.197500X0.160000X-0.197500X0.160000X0*%
%ADD56RoundRect,0.225000X-0.225000X-0.250000X0.225000X-0.250000X0.225000X0.250000X-0.225000X0.250000X0*%
%ADD57RoundRect,0.150000X0.150000X-0.512500X0.150000X0.512500X-0.150000X0.512500X-0.150000X-0.512500X0*%
%ADD58R,0.300000X0.600000*%
%ADD59R,1.700000X0.300000*%
%ADD60RoundRect,0.100000X0.350000X0.100000X-0.350000X0.100000X-0.350000X-0.100000X0.350000X-0.100000X0*%
G04 APERTURE END LIST*
D10*
G04 #@! TO.C,C67*
X68600000Y5250000D03*
X68600000Y3350000D03*
G04 #@! TD*
D11*
G04 #@! TO.C,C6*
X39620000Y24600000D03*
X40580000Y24600000D03*
G04 #@! TD*
D12*
G04 #@! TO.C,C30*
X24000000Y29520000D03*
X24000000Y30480000D03*
G04 #@! TD*
D13*
G04 #@! TO.C,R28*
X43600000Y19990000D03*
X43600000Y21010000D03*
G04 #@! TD*
D14*
G04 #@! TO.C,R24*
X25000000Y24310000D03*
X25000000Y23290000D03*
G04 #@! TD*
D15*
G04 #@! TO.C,D1*
X77975000Y17900000D03*
X76225000Y17900000D03*
G04 #@! TD*
D14*
G04 #@! TO.C,R56*
X28200000Y35810000D03*
X28200000Y34790000D03*
G04 #@! TD*
D16*
G04 #@! TO.C,C21*
X21480000Y21500000D03*
X20520000Y21500000D03*
G04 #@! TD*
G04 #@! TO.C,C19*
X49380000Y20700000D03*
X48420000Y20700000D03*
G04 #@! TD*
D13*
G04 #@! TO.C,R40*
X60800000Y8327500D03*
X60800000Y9347500D03*
G04 #@! TD*
G04 #@! TO.C,R44*
X42600000Y19990000D03*
X42600000Y21010000D03*
G04 #@! TD*
D11*
G04 #@! TO.C,C9*
X51220000Y23100000D03*
X52180000Y23100000D03*
G04 #@! TD*
D17*
G04 #@! TO.C,R58*
X53590000Y39400000D03*
X54610000Y39400000D03*
G04 #@! TD*
D12*
G04 #@! TO.C,C61*
X29200000Y36020000D03*
X29200000Y36980000D03*
G04 #@! TD*
G04 #@! TO.C,C27*
X48500000Y5520000D03*
X48500000Y6480000D03*
G04 #@! TD*
D16*
G04 #@! TO.C,C38*
X32880000Y17800000D03*
X31920000Y17800000D03*
G04 #@! TD*
D10*
G04 #@! TO.C,C45*
X62400000Y5250000D03*
X62400000Y3350000D03*
G04 #@! TD*
D18*
G04 #@! TO.C,R59*
X17200000Y20502500D03*
X17200000Y21697500D03*
G04 #@! TD*
D19*
G04 #@! TO.C,U16*
X34837500Y13550000D03*
X34837500Y14500000D03*
X34837500Y15450000D03*
X32562500Y15450000D03*
X32562500Y13550000D03*
G04 #@! TD*
D14*
G04 #@! TO.C,R26*
X25000000Y22410000D03*
X25000000Y21390000D03*
G04 #@! TD*
G04 #@! TO.C,R38*
X60800000Y11247500D03*
X60800000Y10227500D03*
G04 #@! TD*
D17*
G04 #@! TO.C,R21*
X31890000Y16800000D03*
X32910000Y16800000D03*
G04 #@! TD*
D20*
G04 #@! TO.C,SW2*
X47695000Y45170000D03*
X47695000Y42630000D03*
X56305000Y42630000D03*
X56305000Y45170000D03*
G04 #@! TD*
D11*
G04 #@! TO.C,C13*
X43520000Y30800000D03*
X44480000Y30800000D03*
G04 #@! TD*
D17*
G04 #@! TO.C,R11*
X51190000Y24100000D03*
X52210000Y24100000D03*
G04 #@! TD*
D11*
G04 #@! TO.C,C8*
X72520000Y33400000D03*
X73480000Y33400000D03*
G04 #@! TD*
D21*
G04 #@! TO.C,U14*
X32950000Y25350000D03*
X32950000Y26000000D03*
X32950000Y26650000D03*
X31050000Y26650000D03*
X31050000Y26000000D03*
X31050000Y25350000D03*
G04 #@! TD*
D22*
G04 #@! TO.C,U2*
X70475000Y25350000D03*
X70475000Y24650000D03*
X71325000Y25000000D03*
G04 #@! TD*
D13*
G04 #@! TO.C,R53*
X34800000Y22990000D03*
X34800000Y24010000D03*
G04 #@! TD*
D16*
G04 #@! TO.C,C41*
X28130000Y5300000D03*
X27170000Y5300000D03*
G04 #@! TD*
D13*
G04 #@! TO.C,R29*
X44600000Y19990000D03*
X44600000Y21010000D03*
G04 #@! TD*
G04 #@! TO.C,R51*
X31000000Y22990000D03*
X31000000Y24010000D03*
G04 #@! TD*
D14*
G04 #@! TO.C,R39*
X52300000Y11247500D03*
X52300000Y10227500D03*
G04 #@! TD*
D23*
G04 #@! TO.C,R14*
X12300000Y28150000D03*
X12300000Y25225000D03*
G04 #@! TD*
D16*
G04 #@! TO.C,C28*
X45180000Y9200000D03*
X44220000Y9200000D03*
G04 #@! TD*
D12*
G04 #@! TO.C,C56*
X71500000Y18920000D03*
X71500000Y19880000D03*
G04 #@! TD*
D24*
G04 #@! TO.C,U11*
X28150000Y7400000D03*
X27150000Y7400000D03*
D25*
X28900000Y8350000D03*
X28400000Y8350000D03*
X27900000Y8350000D03*
X27400000Y8350000D03*
X26900000Y8350000D03*
X26400000Y8350000D03*
X26400000Y6450000D03*
X26900000Y6450000D03*
X27400000Y6450000D03*
X27900000Y6450000D03*
X28400000Y6450000D03*
X28900000Y6450000D03*
G04 #@! TD*
D26*
G04 #@! TO.C,C22*
X21950000Y30300000D03*
X20050000Y30300000D03*
G04 #@! TD*
D27*
G04 #@! TO.C,C40*
X28950000Y10200000D03*
X30850000Y10200000D03*
G04 #@! TD*
D12*
G04 #@! TO.C,C54*
X62900000Y39120000D03*
X62900000Y40080000D03*
G04 #@! TD*
D13*
G04 #@! TO.C,R3*
X70500000Y27090000D03*
X70500000Y28110000D03*
G04 #@! TD*
D12*
G04 #@! TO.C,C24*
X26300000Y26320000D03*
X26300000Y27280000D03*
G04 #@! TD*
D28*
G04 #@! TO.C,U6*
X35150000Y19950000D03*
X35800000Y19950000D03*
X36450000Y19950000D03*
X36450000Y21850000D03*
X35800000Y21850000D03*
X35150000Y21850000D03*
G04 #@! TD*
D29*
G04 #@! TO.C,R54*
X27210000Y36800000D03*
X26190000Y36800000D03*
G04 #@! TD*
D30*
G04 #@! TO.C,U7*
X17225000Y26905000D03*
X17225000Y25635000D03*
X17225000Y24365000D03*
X17225000Y23095000D03*
X22375000Y23095000D03*
X22375000Y24365000D03*
X22375000Y25635000D03*
X22375000Y26905000D03*
G04 #@! TD*
D31*
G04 #@! TO.C,U1*
X64250000Y40350000D03*
X64250000Y39850000D03*
X64250000Y39350000D03*
X64250000Y38850000D03*
X67350000Y38850000D03*
X67350000Y39350000D03*
X67350000Y39850000D03*
X67350000Y40350000D03*
G04 #@! TD*
D17*
G04 #@! TO.C,R47*
X26990000Y20700000D03*
X28010000Y20700000D03*
G04 #@! TD*
G04 #@! TO.C,R46*
X27790000Y31300000D03*
X28810000Y31300000D03*
G04 #@! TD*
G04 #@! TO.C,R57*
X49390000Y39400000D03*
X50410000Y39400000D03*
G04 #@! TD*
D32*
G04 #@! TO.C,U4*
X46437500Y26400000D03*
X45162500Y26400000D03*
X46437500Y25125000D03*
X45162500Y25125000D03*
D33*
X48400000Y29200000D03*
X48000000Y29200000D03*
X47600000Y29200000D03*
X47200000Y29200000D03*
X46800000Y29200000D03*
X46400000Y29200000D03*
X46000000Y29200000D03*
X45600000Y29200000D03*
X45200000Y29200000D03*
X44800000Y29200000D03*
X44400000Y29200000D03*
X44000000Y29200000D03*
X43600000Y29200000D03*
X43200000Y29200000D03*
D34*
X42362500Y28362500D03*
X42362500Y27962500D03*
X42362500Y27562500D03*
X42362500Y27162500D03*
X42362500Y26762500D03*
X42362500Y26362500D03*
X42362500Y25962500D03*
X42362500Y25562500D03*
X42362500Y25162500D03*
X42362500Y24762500D03*
X42362500Y24362500D03*
X42362500Y23962500D03*
X42362500Y23562500D03*
X42362500Y23162500D03*
D33*
X43200000Y22325000D03*
X43600000Y22325000D03*
X44000000Y22325000D03*
X44400000Y22325000D03*
X44800000Y22325000D03*
X45200000Y22325000D03*
X45600000Y22325000D03*
X46000000Y22325000D03*
X46400000Y22325000D03*
X46800000Y22325000D03*
X47200000Y22325000D03*
X47600000Y22325000D03*
X48000000Y22325000D03*
X48400000Y22325000D03*
D34*
X49237500Y23162500D03*
X49237500Y23562500D03*
X49237500Y23962500D03*
X49237500Y24362500D03*
X49237500Y24762500D03*
X49237500Y25162500D03*
X49237500Y25562500D03*
X49237500Y25962500D03*
X49237500Y26362500D03*
X49237500Y26762500D03*
X49237500Y27162500D03*
X49237500Y27562500D03*
X49237500Y27962500D03*
X49237500Y28362500D03*
G04 #@! TD*
D12*
G04 #@! TO.C,C3*
X55400000Y20620000D03*
X55400000Y21580000D03*
G04 #@! TD*
D35*
G04 #@! TO.C,R30*
X68187500Y41700000D03*
X70012500Y41700000D03*
G04 #@! TD*
D36*
G04 #@! TO.C,J5*
X77500000Y23600000D03*
X77500000Y26400000D03*
D37*
X73300000Y21900000D03*
X73300000Y22650000D03*
D38*
X73300000Y23250000D03*
X73300000Y24750000D03*
X73300000Y25750000D03*
X73300000Y26750000D03*
D37*
X73300000Y27350000D03*
X73300000Y28100000D03*
X73300000Y28100000D03*
X73300000Y27350000D03*
D38*
X73300000Y26250000D03*
X73300000Y25250000D03*
X73300000Y24250000D03*
X73300000Y23750000D03*
D37*
X73300000Y22650000D03*
X73300000Y21900000D03*
G04 #@! TD*
D14*
G04 #@! TO.C,R22*
X37700000Y14410000D03*
X37700000Y13390000D03*
G04 #@! TD*
D26*
G04 #@! TO.C,C23*
X21950000Y19700000D03*
X20050000Y19700000D03*
G04 #@! TD*
D29*
G04 #@! TO.C,R7*
X55910000Y25100000D03*
X54890000Y25100000D03*
G04 #@! TD*
G04 #@! TO.C,R50*
X43510000Y34400000D03*
X42490000Y34400000D03*
G04 #@! TD*
D39*
G04 #@! TO.C,SW1*
X60050000Y31300000D03*
X60050000Y32900000D03*
X64150000Y32900000D03*
X64150000Y31300000D03*
D40*
X62100000Y30675000D03*
G04 #@! TD*
D12*
G04 #@! TO.C,C2*
X68800000Y20120000D03*
X68800000Y21080000D03*
G04 #@! TD*
D29*
G04 #@! TO.C,R17*
X39110000Y35400000D03*
X38090000Y35400000D03*
G04 #@! TD*
D41*
G04 #@! TO.C,U18*
X26050000Y39350000D03*
X26050000Y38700000D03*
X26050000Y38050000D03*
X27950000Y38050000D03*
X27950000Y38700000D03*
X27950000Y39350000D03*
G04 #@! TD*
D13*
G04 #@! TO.C,R32*
X31000000Y6390000D03*
X31000000Y7410000D03*
G04 #@! TD*
D16*
G04 #@! TO.C,C60*
X32880000Y18800000D03*
X31920000Y18800000D03*
G04 #@! TD*
D42*
G04 #@! TO.C,U15*
X27625000Y23887500D03*
X28275000Y23887500D03*
X28925000Y23887500D03*
X29575000Y23887500D03*
X29575000Y28112500D03*
X28925000Y28112500D03*
X28275000Y28112500D03*
X27625000Y28112500D03*
G04 #@! TD*
D43*
G04 #@! TO.C,X1*
X39750000Y28300000D03*
X39750000Y26900000D03*
X40850000Y26900000D03*
X40850000Y28300000D03*
G04 #@! TD*
D28*
G04 #@! TO.C,U9*
X31300000Y19950000D03*
X31950000Y19950000D03*
X32600000Y19950000D03*
X32600000Y21850000D03*
X31950000Y21850000D03*
X31300000Y21850000D03*
G04 #@! TD*
D16*
G04 #@! TO.C,C52*
X43280000Y13150000D03*
X42320000Y13150000D03*
G04 #@! TD*
D29*
G04 #@! TO.C,R6*
X55910000Y26300000D03*
X54890000Y26300000D03*
G04 #@! TD*
D17*
G04 #@! TO.C,R12*
X73890000Y17900000D03*
X74910000Y17900000D03*
G04 #@! TD*
D16*
G04 #@! TO.C,C50*
X45180000Y12550000D03*
X44220000Y12550000D03*
G04 #@! TD*
D44*
G04 #@! TO.C,D3*
X71500000Y28085000D03*
X71500000Y27115000D03*
G04 #@! TD*
D16*
G04 #@! TO.C,C14*
X53280000Y26100000D03*
X52320000Y26100000D03*
G04 #@! TD*
D12*
G04 #@! TO.C,C44*
X25350000Y7320000D03*
X25350000Y8280000D03*
G04 #@! TD*
D13*
G04 #@! TO.C,R52*
X36800000Y22990000D03*
X36800000Y24010000D03*
G04 #@! TD*
D29*
G04 #@! TO.C,R4*
X69710000Y26000000D03*
X68690000Y26000000D03*
G04 #@! TD*
D15*
G04 #@! TO.C,D2*
X77975000Y32100000D03*
X76225000Y32100000D03*
G04 #@! TD*
D16*
G04 #@! TO.C,C18*
X53280000Y27100000D03*
X52320000Y27100000D03*
G04 #@! TD*
D11*
G04 #@! TO.C,C10*
X51220000Y22100000D03*
X52180000Y22100000D03*
G04 #@! TD*
D29*
G04 #@! TO.C,R27*
X28810000Y30300000D03*
X27790000Y30300000D03*
G04 #@! TD*
D13*
G04 #@! TO.C,R18*
X24000000Y27590000D03*
X24000000Y28610000D03*
G04 #@! TD*
D29*
G04 #@! TO.C,R5*
X69710000Y25000000D03*
X68690000Y25000000D03*
G04 #@! TD*
D16*
G04 #@! TO.C,C59*
X45280000Y4000000D03*
X44320000Y4000000D03*
G04 #@! TD*
D29*
G04 #@! TO.C,R16*
X41310000Y35400000D03*
X40290000Y35400000D03*
G04 #@! TD*
D26*
G04 #@! TO.C,C48*
X53050000Y13737500D03*
X51150000Y13737500D03*
G04 #@! TD*
D12*
G04 #@! TO.C,C66*
X36700000Y14520000D03*
X36700000Y15480000D03*
G04 #@! TD*
D14*
G04 #@! TO.C,R23*
X24000000Y24310000D03*
X24000000Y23290000D03*
G04 #@! TD*
D12*
G04 #@! TO.C,C51*
X45600000Y15470000D03*
X45600000Y16430000D03*
G04 #@! TD*
D45*
G04 #@! TO.C,C37*
X69800000Y19880000D03*
X69800000Y18920000D03*
G04 #@! TD*
D14*
G04 #@! TO.C,R9*
X54000000Y32310000D03*
X54000000Y31290000D03*
G04 #@! TD*
D16*
G04 #@! TO.C,C1*
X55180000Y29900000D03*
X54220000Y29900000D03*
G04 #@! TD*
D12*
G04 #@! TO.C,C31*
X26000000Y28520000D03*
X26000000Y29480000D03*
G04 #@! TD*
D11*
G04 #@! TO.C,C35*
X42520000Y36400000D03*
X43480000Y36400000D03*
G04 #@! TD*
D10*
G04 #@! TO.C,C11*
X47100000Y16900000D03*
X47100000Y15000000D03*
G04 #@! TD*
D26*
G04 #@! TO.C,C39*
X66550000Y43000000D03*
X64650000Y43000000D03*
G04 #@! TD*
D13*
G04 #@! TO.C,R41*
X52300000Y8327500D03*
X52300000Y9347500D03*
G04 #@! TD*
D45*
G04 #@! TO.C,C12*
X48600000Y31780000D03*
X48600000Y30820000D03*
G04 #@! TD*
D11*
G04 #@! TO.C,C15*
X39620000Y25600000D03*
X40580000Y25600000D03*
G04 #@! TD*
D46*
G04 #@! TO.C,U3*
X66950000Y18855000D03*
X66950000Y20125000D03*
X66950000Y21395000D03*
X66950000Y22665000D03*
X66950000Y23935000D03*
X66950000Y25205000D03*
X66950000Y26475000D03*
X66950000Y27745000D03*
X57650000Y27745000D03*
X57650000Y26475000D03*
X57650000Y25205000D03*
X57650000Y23935000D03*
X57650000Y22665000D03*
X57650000Y21395000D03*
X57650000Y20125000D03*
X57650000Y18855000D03*
G04 #@! TD*
D11*
G04 #@! TO.C,C46*
X57720000Y13337500D03*
X58680000Y13337500D03*
G04 #@! TD*
G04 #@! TO.C,C55*
X65320000Y41400000D03*
X66280000Y41400000D03*
G04 #@! TD*
D16*
G04 #@! TO.C,C65*
X34180000Y11800000D03*
X33220000Y11800000D03*
G04 #@! TD*
D11*
G04 #@! TO.C,C57*
X38120000Y36400000D03*
X39080000Y36400000D03*
G04 #@! TD*
D45*
G04 #@! TO.C,C26*
X47500000Y6480000D03*
X47500000Y5520000D03*
G04 #@! TD*
D16*
G04 #@! TO.C,C47*
X55280000Y13337500D03*
X54320000Y13337500D03*
G04 #@! TD*
D47*
G04 #@! TO.C,U13*
X44550000Y17500000D03*
X44050000Y17500000D03*
X43550000Y17500000D03*
X43050000Y17500000D03*
X43050000Y14400000D03*
X43550000Y14400000D03*
X44050000Y14400000D03*
X44550000Y14400000D03*
G04 #@! TD*
D29*
G04 #@! TO.C,R8*
X43510000Y35400000D03*
X42490000Y35400000D03*
G04 #@! TD*
D48*
G04 #@! TO.C,J7*
X74900000Y39600000D03*
D49*
X77500000Y36700000D03*
D50*
X72300000Y42500000D03*
G04 #@! TD*
D12*
G04 #@! TO.C,C16*
X45950000Y18170000D03*
X45950000Y19130000D03*
G04 #@! TD*
D11*
G04 #@! TO.C,C62*
X31820000Y33400000D03*
X32780000Y33400000D03*
G04 #@! TD*
D13*
G04 #@! TO.C,R37*
X52300000Y5527500D03*
X52300000Y6547500D03*
G04 #@! TD*
D17*
G04 #@! TO.C,R10*
X51190000Y25050000D03*
X52210000Y25050000D03*
G04 #@! TD*
D45*
G04 #@! TO.C,C34*
X26000000Y23280000D03*
X26000000Y22320000D03*
G04 #@! TD*
D13*
G04 #@! TO.C,R49*
X32900000Y22990000D03*
X32900000Y24010000D03*
G04 #@! TD*
D16*
G04 #@! TO.C,C17*
X51580000Y21100000D03*
X50620000Y21100000D03*
G04 #@! TD*
D17*
G04 #@! TO.C,R13*
X73890000Y32100000D03*
X74910000Y32100000D03*
G04 #@! TD*
D51*
G04 #@! TO.C,D4*
X73485000Y34400000D03*
X72515000Y34400000D03*
G04 #@! TD*
D14*
G04 #@! TO.C,R2*
X71500000Y23010000D03*
X71500000Y21990000D03*
G04 #@! TD*
D16*
G04 #@! TO.C,C64*
X36680000Y18800000D03*
X35720000Y18800000D03*
G04 #@! TD*
D12*
G04 #@! TO.C,C63*
X24900000Y37920000D03*
X24900000Y38880000D03*
G04 #@! TD*
D16*
G04 #@! TO.C,C20*
X21480000Y28500000D03*
X20520000Y28500000D03*
G04 #@! TD*
D52*
G04 #@! TO.C,U12*
X57900000Y9150000D03*
X56500000Y9150000D03*
X55100000Y9150000D03*
X57900000Y7650000D03*
X56500000Y7650000D03*
X55100000Y7650000D03*
D53*
X59425000Y11350000D03*
X58775000Y11350000D03*
X58125000Y11350000D03*
X57475000Y11350000D03*
X56825000Y11350000D03*
X56175000Y11350000D03*
X55525000Y11350000D03*
X54875000Y11350000D03*
X54225000Y11350000D03*
X53575000Y11350000D03*
X53575000Y5450000D03*
X54225000Y5450000D03*
X54875000Y5450000D03*
X55525000Y5450000D03*
X56175000Y5450000D03*
X56825000Y5450000D03*
X57475000Y5450000D03*
X58125000Y5450000D03*
X58775000Y5450000D03*
X59425000Y5450000D03*
D54*
X56500000Y8400000D03*
G04 #@! TD*
D55*
G04 #@! TO.C,R15*
X14202500Y25600000D03*
X15397500Y25600000D03*
G04 #@! TD*
D29*
G04 #@! TO.C,R34*
X31210000Y8400000D03*
X30190000Y8400000D03*
G04 #@! TD*
D45*
G04 #@! TO.C,C53*
X61900000Y40080000D03*
X61900000Y39120000D03*
G04 #@! TD*
D56*
G04 #@! TO.C,C42*
X25825000Y10000000D03*
X27375000Y10000000D03*
G04 #@! TD*
D17*
G04 #@! TO.C,R35*
X23990000Y6300000D03*
X25010000Y6300000D03*
G04 #@! TD*
D13*
G04 #@! TO.C,R19*
X25000000Y27590000D03*
X25000000Y28610000D03*
G04 #@! TD*
D45*
G04 #@! TO.C,C5*
X55400000Y19580000D03*
X55400000Y18620000D03*
G04 #@! TD*
D14*
G04 #@! TO.C,R55*
X27200000Y35810000D03*
X27200000Y34790000D03*
G04 #@! TD*
D13*
G04 #@! TO.C,R20*
X25000000Y29490000D03*
X25000000Y30510000D03*
G04 #@! TD*
D35*
G04 #@! TO.C,R31*
X68187500Y37500000D03*
X70012500Y37500000D03*
G04 #@! TD*
D13*
G04 #@! TO.C,R36*
X60800000Y5527500D03*
X60800000Y6547500D03*
G04 #@! TD*
D57*
G04 #@! TO.C,U17*
X30550000Y34862500D03*
X31500000Y34862500D03*
X32450000Y34862500D03*
X32450000Y37137500D03*
X30550000Y37137500D03*
G04 #@! TD*
D45*
G04 #@! TO.C,C43*
X29950000Y7380000D03*
X29950000Y6420000D03*
G04 #@! TD*
D29*
G04 #@! TO.C,R45*
X36910000Y35400000D03*
X35890000Y35400000D03*
G04 #@! TD*
D45*
G04 #@! TO.C,C29*
X34100000Y26880000D03*
X34100000Y25920000D03*
G04 #@! TD*
G04 #@! TO.C,C25*
X29800000Y20780000D03*
X29800000Y19820000D03*
G04 #@! TD*
D27*
G04 #@! TO.C,C49*
X59950000Y13737500D03*
X61850000Y13737500D03*
G04 #@! TD*
D29*
G04 #@! TO.C,R43*
X43310000Y12150000D03*
X42290000Y12150000D03*
G04 #@! TD*
D17*
G04 #@! TO.C,R25*
X33690000Y36400000D03*
X34710000Y36400000D03*
G04 #@! TD*
D58*
G04 #@! TO.C,U5*
X52850000Y32050000D03*
X52350000Y32050000D03*
X51850000Y32050000D03*
X51350000Y32050000D03*
X51350000Y29550000D03*
X51850000Y29550000D03*
X52350000Y29550000D03*
X52850000Y29550000D03*
D59*
X52100000Y30800000D03*
G04 #@! TD*
D60*
G04 #@! TO.C,L1*
X66900000Y3725000D03*
X66900000Y4875000D03*
X64100000Y4875000D03*
X64100000Y3725000D03*
G04 #@! TD*
D14*
G04 #@! TO.C,R33*
X24300000Y8310000D03*
X24300000Y7290000D03*
G04 #@! TD*
D11*
G04 #@! TO.C,C36*
X40320000Y36400000D03*
X41280000Y36400000D03*
G04 #@! TD*
D29*
G04 #@! TO.C,R48*
X28010000Y21700000D03*
X26990000Y21700000D03*
G04 #@! TD*
D16*
G04 #@! TO.C,C32*
X34680000Y35400000D03*
X33720000Y35400000D03*
G04 #@! TD*
D57*
G04 #@! TO.C,U8*
X44250000Y5462500D03*
X45200000Y5462500D03*
X46150000Y5462500D03*
X46150000Y7737500D03*
X44250000Y7737500D03*
G04 #@! TD*
D16*
G04 #@! TO.C,C7*
X53280000Y28100000D03*
X52320000Y28100000D03*
G04 #@! TD*
D11*
G04 #@! TO.C,C4*
X39820000Y29800000D03*
X40780000Y29800000D03*
G04 #@! TD*
D45*
G04 #@! TO.C,C33*
X24000000Y22380000D03*
X24000000Y21420000D03*
G04 #@! TD*
D14*
G04 #@! TO.C,R42*
X42000000Y15160000D03*
X42000000Y14140000D03*
G04 #@! TD*
D29*
G04 #@! TO.C,R1*
X58410000Y32300000D03*
X57390000Y32300000D03*
G04 #@! TD*
D11*
G04 #@! TO.C,C58*
X35920000Y36400000D03*
X36880000Y36400000D03*
G04 #@! TD*
M02*
