M48
INCH,TZ
T1C0.0100
T2C0.0100
T3C0.0118
T4C0.0236
T5C0.0394
T6C0.0591
T7C0.0625
T8C0.0630
T9C0.0709
T10C0.0728
T11C0.0236
T12C0.0669
T13C0.1260
%
G90
G05
T1
X315Y17717
X315Y17323
X315Y16929
X315Y16535
X315Y16142
X315Y15748
X315Y15354
X315Y14961
X315Y14567
X315Y14173
X315Y13780
X315Y13386
X315Y12992
X315Y12598
X315Y12205
X315Y11811
X315Y11417
X315Y11024
X315Y10630
X315Y10236
X315Y9843
X315Y9449
X315Y9055
X315Y8661
X315Y8268
X315Y7874
X315Y7480
X315Y7087
X315Y6693
X315Y6299
X315Y5906
X315Y5512
X315Y5118
X315Y4724
X315Y4331
X315Y3937
X315Y3543
X315Y3150
X315Y2756
X315Y2362
X315Y1969
X1969Y19370
X1969Y315
X2244Y10315
X2244Y9370
X2362Y19370
X2362Y315
X2598Y10512
X2598Y9173
X2756Y19370
X2756Y315
X2992Y10512
X2992Y9173
X3150Y19370
X3150Y315
X3386Y10512
X3386Y9173
X3543Y19370
X3543Y315
X3780Y10512
X3780Y9173
X3937Y19370
X3937Y315
X4173Y10512
X4173Y9173
X4331Y19370
X4331Y315
X4567Y10512
X4567Y9173
X4724Y19370
X4724Y315
X5118Y19370
X5118Y315
X5276Y10512
X5276Y9173
X5512Y19370
X5512Y315
X5866Y10512
X5866Y9173
X5906Y19370
X5906Y315
X6260Y10512
X6260Y9173
X6299Y19370
X6299Y315
X6693Y19370
X6693Y315
X6772Y7756
X7087Y19370
X7087Y315
X7480Y19370
X7480Y315
X7874Y19370
X7874Y315
X8071Y11496
X8071Y8740
X8071Y8228
X8079Y10945
X8268Y19370
X8268Y315
X8457Y8740
X8465Y11496
X8465Y10945
X8465Y8228
X8661Y19370
X8661Y315
X9055Y19370
X9055Y315
X9449Y19370
X9449Y315
X9764Y10591
X9843Y19370
X9843Y9843
X9843Y315
X10000Y3543
X10118Y2480
X10236Y19370
X10236Y315
X10276Y8228
X10315Y14213
X10394Y2087
X10529Y15235
X10529Y14995
X10551Y15512
X10630Y19370
X10630Y10984
X10630Y10362
X10630Y8858
X10630Y315
X10669Y12323
X10790Y3543
X10906Y11614
X11024Y19370
X11024Y315
X11042Y3542
X11102Y8858
X11378Y11614
X11417Y19370
X11417Y315
X11519Y2320
X11597Y3386
X11732Y14621
X11732Y14134
X11732Y8858
X11732Y7520
X11811Y19370
X11811Y315
X12008Y5709
X12126Y4528
X12205Y19370
X12205Y315
X12283Y7441
X12283Y6969
X12520Y12835
X12555Y2516
X12579Y8130
X12598Y19370
X12598Y4055
X12598Y315
X12717Y10472
X12913Y12835
X12992Y19370
X13071Y4921
X13088Y7835
X13307Y6614
X13307Y6102
X13386Y19370
X13465Y4921
X13701Y10591
X13701Y9724
X13740Y14646
X13780Y19370
X13780Y7441
X14094Y8150
X14165Y6094
X14173Y19370
X14173Y315
X14488Y9724
X14567Y19370
X14567Y315
X14606Y14646
X14606Y7854
X14803Y7441
X14843Y10394
X14843Y8150
X14961Y19370
X14961Y315
X15276Y10591
X15315Y10039
X15315Y9685
X15354Y19370
X15354Y315
X15394Y14606
X15669Y11496
X15748Y19370
X15748Y315
X16055Y11496
X16142Y19370
X16142Y315
X16260Y10059
X16299Y9488
X16339Y14646
X16496Y8701
X16535Y19370
X16535Y6240
X16535Y315
X16929Y19370
X16929Y315
X17008Y9882
X17008Y2480
X17126Y11850
X17323Y19370
X17323Y315
X17402Y14331
X17598Y11850
X17717Y19370
X17717Y315
X17756Y6673
X17756Y5886
X17756Y5197
X17795Y3307
X17795Y2559
X17796Y12835
X17851Y7795
X18031Y12598
X18110Y19370
X18110Y315
X18189Y11929
X18206Y13268
X18425Y7126
X18465Y13031
X18504Y19370
X18504Y315
X18701Y2874
X18701Y1929
X18858Y13307
X18898Y19370
X18898Y315
X18976Y6654
X18976Y5906
X19016Y10197
X19016Y9449
X19055Y8425
X19094Y2874
X19094Y1929
X19134Y12756
X19134Y11850
X19291Y19370
X19291Y315
X19409Y8780
X19449Y17126
X19449Y16496
X19449Y8425
X19685Y19370
X19685Y315
X19724Y8543
X19764Y8976
X20000Y6850
X20000Y6457
X20039Y12835
X20079Y19370
X20079Y315
X20118Y10276
X20157Y4961
X20197Y15512
X20315Y10157
X20472Y19370
X20472Y315
X20591Y8307
X20591Y4700
X20591Y3046
X20827Y9094
X20827Y8701
X20866Y19370
X20866Y4961
X20866Y315
X21102Y11772
X21220Y11063
X21220Y10669
X21220Y10276
X21260Y19370
X21260Y315
X21535Y17795
X21535Y16772
X21604Y4936
X21654Y19370
X21654Y315
X21772Y15512
X21860Y4936
X22008Y11772
X22047Y19370
X22047Y315
X22087Y10984
X22087Y9423
X22087Y8923
X22087Y8425
X22087Y8041
X22087Y7756
X22087Y7423
X22116Y3986
X22116Y2628
X22126Y15551
X22372Y3986
X22372Y2628
X22441Y19370
X22441Y315
X22628Y4936
X22835Y19370
X22835Y315
X22884Y4936
X23228Y19370
X23228Y315
X23268Y6850
X23268Y6457
X23465Y11693
X23583Y6850
X23622Y19370
X23622Y4961
X23622Y315
X23701Y11417
X23701Y9173
X23937Y4724
X23937Y3031
X24016Y19370
X24016Y315
X24134Y1319
X24331Y4961
X24409Y19370
X24409Y315
X24449Y15118
X24449Y11811
X24646Y7047
X24764Y15118
X24803Y19370
X24803Y315
X25039Y16929
X25157Y16496
X25197Y19370
X25197Y315
X25276Y15000
X25433Y16220
X25591Y19370
X25591Y315
X25630Y12638
X25630Y12323
X25984Y19370
X25984Y315
X26378Y19370
X26378Y16220
X26378Y315
X26772Y19370
X26772Y315
X27165Y19370
X27165Y315
X27559Y19370
X27559Y315
X27953Y19370
X27953Y315
X28268Y9812
X28268Y9358
X28346Y19370
X28346Y315
X28543Y13819
X28740Y19370
X28740Y315
X28937Y13819
X29134Y19370
X29134Y315
X29378Y17323
X29528Y19370
X29528Y13858
X29528Y315
X30669Y12244
X30709Y6654
X30748Y13465
X31181Y17717
X31181Y17323
X31181Y16929
X31181Y16535
X31181Y16142
X31181Y15748
X31181Y15354
X31181Y14961
X31181Y14567
X31181Y14173
X31181Y13780
X31181Y13386
X31181Y12992
X31181Y12598
X31181Y12205
X31181Y7480
X31181Y7087
X31181Y6693
X31181Y6299
X31181Y5906
X31181Y5512
X31181Y5118
X31181Y4724
X31181Y4331
X31181Y3937
X31181Y3543
X31181Y3150
X31181Y2756
X31181Y2362
X31181Y1969
T2
X17530Y10645
X17530Y10143
X17530Y9641
X18031Y10645
X18031Y10143
X18031Y9641
X18533Y10645
X18533Y10143
X18533Y9641
T3
X10492Y2913
X10886Y2913
X11280Y2913
T5
X19488Y14173
X20488Y14173
X21488Y14173
T6
X13504Y866
T7
X1756Y9843
X2756Y9843
T8
X25906Y4429
X27087Y6280
X28268Y4429
T9
X1256Y11133
X1256Y8553
X3836Y11133
X3836Y8553
T10
X2008Y6201
X2008Y3248
X3976Y6201
X3976Y3248
T11
X29291Y8661
T12
X27559Y15591
X30315Y15591
T13
X1181Y18504
X1181Y1181
X30315Y18504
X30315Y1181
T4
G00X28809Y11543
M15
G01X29203Y11543
M16
G05
G00X28809Y8142
M15
G01X29203Y8142
M16
G05
G00X30256Y11543
M15
G01X30768Y11543
M16
G05
G00X30256Y8142
M15
G01X30768Y8142
M16
G05
T11
G00X29291Y10974
M15
G01X29291Y11073
M16
G05
T0
M30
