G04 #@! TF.GenerationSoftware,KiCad,Pcbnew,7.0.6-7.0.6~ubuntu20.04.1*
G04 #@! TF.CreationDate,2023-10-16T12:06:56-07:00*
G04 #@! TF.ProjectId,harp_lick_detector_capactive,68617270-5f6c-4696-936b-5f6465746563,rev?*
G04 #@! TF.SameCoordinates,PX640a5a0PY7088980*
G04 #@! TF.FileFunction,Soldermask,Top*
G04 #@! TF.FilePolarity,Negative*
%FSLAX46Y46*%
G04 Gerber Fmt 4.6, Leading zero omitted, Abs format (unit mm)*
G04 Created by KiCad (PCBNEW 7.0.6-7.0.6~ubuntu20.04.1) date 2023-10-16 12:06:56*
%MOMM*%
%LPD*%
G01*
G04 APERTURE LIST*
G04 Aperture macros list*
%AMRoundRect*
0 Rectangle with rounded corners*
0 $1 Rounding radius*
0 $2 $3 $4 $5 $6 $7 $8 $9 X,Y pos of 4 corners*
0 Add a 4 corners polygon primitive as box body*
4,1,4,$2,$3,$4,$5,$6,$7,$8,$9,$2,$3,0*
0 Add four circle primitives for the rounded corners*
1,1,$1+$1,$2,$3*
1,1,$1+$1,$4,$5*
1,1,$1+$1,$6,$7*
1,1,$1+$1,$8,$9*
0 Add four rect primitives between the rounded corners*
20,1,$1+$1,$2,$3,$4,$5,0*
20,1,$1+$1,$4,$5,$6,$7,0*
20,1,$1+$1,$6,$7,$8,$9,0*
20,1,$1+$1,$8,$9,$2,$3,0*%
%AMFreePoly0*
4,1,40,6.515355,1.015355,6.530000,0.980000,6.530000,-1.460000,6.515355,-1.495355,6.480000,-1.510000,4.370000,-1.510000,4.367882,-1.509122,4.365698,-1.509814,4.350485,-1.501916,4.334645,-1.495355,4.333768,-1.493237,4.331734,-1.492182,4.233315,-1.375157,4.010127,-1.166713,3.760982,-0.990847,3.490207,-0.850543,3.202844,-0.748414,2.904254,-0.686367,2.599999,-0.665555,2.295745,-0.686367,
1.997154,-0.748415,1.709792,-0.850543,1.439022,-0.990844,1.189872,-1.166713,0.966684,-1.375157,0.868266,-1.492182,0.866231,-1.493237,0.865355,-1.495355,0.849514,-1.501916,0.834302,-1.509814,0.832117,-1.509122,0.830000,-1.510000,-1.280000,-1.510000,-1.315355,-1.495355,-1.330000,-1.460000,-1.330000,0.980000,-1.315355,1.015355,-1.280000,1.030000,6.480000,1.030000,6.515355,1.015355,
6.515355,1.015355,$1*%
G04 Aperture macros list end*
%ADD10C,3.000000*%
%ADD11C,0.150000*%
%ADD12C,2.200000*%
%ADD13C,2.300000*%
%ADD14RoundRect,0.140000X-0.140000X-0.170000X0.140000X-0.170000X0.140000X0.170000X-0.140000X0.170000X0*%
%ADD15RoundRect,0.135000X0.185000X-0.135000X0.185000X0.135000X-0.185000X0.135000X-0.185000X-0.135000X0*%
%ADD16RoundRect,0.237500X0.287500X0.237500X-0.287500X0.237500X-0.287500X-0.237500X0.287500X-0.237500X0*%
%ADD17RoundRect,0.140000X0.140000X0.170000X-0.140000X0.170000X-0.140000X-0.170000X0.140000X-0.170000X0*%
%ADD18R,2.600000X2.600000*%
%ADD19C,2.600000*%
%ADD20RoundRect,0.140000X-0.170000X0.140000X-0.170000X-0.140000X0.170000X-0.140000X0.170000X0.140000X0*%
%ADD21RoundRect,0.250000X-0.475000X0.250000X-0.475000X-0.250000X0.475000X-0.250000X0.475000X0.250000X0*%
%ADD22RoundRect,0.135000X0.135000X0.185000X-0.135000X0.185000X-0.135000X-0.185000X0.135000X-0.185000X0*%
%ADD23RoundRect,0.135000X-0.185000X0.135000X-0.185000X-0.135000X0.185000X-0.135000X0.185000X0.135000X0*%
%ADD24RoundRect,0.135000X-0.135000X-0.185000X0.135000X-0.185000X0.135000X0.185000X-0.135000X0.185000X0*%
%ADD25R,0.300000X0.300000*%
%ADD26RoundRect,0.250000X-0.625000X0.312500X-0.625000X-0.312500X0.625000X-0.312500X0.625000X0.312500X0*%
%ADD27RoundRect,0.140000X0.170000X-0.140000X0.170000X0.140000X-0.170000X0.140000X-0.170000X-0.140000X0*%
%ADD28R,0.250000X0.500000*%
%ADD29R,2.650000X1.000000*%
%ADD30RoundRect,0.250000X-0.250000X-0.475000X0.250000X-0.475000X0.250000X0.475000X-0.250000X0.475000X0*%
%ADD31RoundRect,0.250000X0.250000X0.475000X-0.250000X0.475000X-0.250000X-0.475000X0.250000X-0.475000X0*%
%ADD32RoundRect,0.150000X-0.725000X-0.150000X0.725000X-0.150000X0.725000X0.150000X-0.725000X0.150000X0*%
%ADD33R,0.800000X0.300000*%
%ADD34C,3.200000*%
%ADD35RoundRect,0.050000X-0.050000X0.387500X-0.050000X-0.387500X0.050000X-0.387500X0.050000X0.387500X0*%
%ADD36RoundRect,0.050000X-0.387500X0.050000X-0.387500X-0.050000X0.387500X-0.050000X0.387500X0.050000X0*%
%ADD37RoundRect,0.144000X-1.456000X1.456000X-1.456000X-1.456000X1.456000X-1.456000X1.456000X1.456000X0*%
%ADD38RoundRect,0.237500X-0.250000X-0.237500X0.250000X-0.237500X0.250000X0.237500X-0.250000X0.237500X0*%
%ADD39C,0.600000*%
%ADD40R,2.000000X1.000000*%
%ADD41O,0.600000X0.850000*%
%ADD42R,1.000000X0.520000*%
%ADD43R,1.000000X0.270000*%
%ADD44O,2.300000X1.300000*%
%ADD45O,2.600000X1.300000*%
%ADD46R,0.900000X1.000000*%
%ADD47R,1.700000X0.550000*%
%ADD48RoundRect,0.075000X-0.650000X-0.075000X0.650000X-0.075000X0.650000X0.075000X-0.650000X0.075000X0*%
%ADD49R,0.800000X0.900000*%
%ADD50RoundRect,0.147500X-0.172500X0.147500X-0.172500X-0.147500X0.172500X-0.147500X0.172500X0.147500X0*%
%ADD51C,1.000000*%
%ADD52RoundRect,0.150000X0.875000X0.150000X-0.875000X0.150000X-0.875000X-0.150000X0.875000X-0.150000X0*%
%ADD53C,2.050000*%
%ADD54FreePoly0,180.000000*%
%ADD55FreePoly0,0.000000*%
%ADD56RoundRect,0.147500X0.147500X0.172500X-0.147500X0.172500X-0.147500X-0.172500X0.147500X-0.172500X0*%
%ADD57R,0.450000X1.450000*%
%ADD58R,4.200000X3.000000*%
%ADD59RoundRect,0.160000X-0.197500X-0.160000X0.197500X-0.160000X0.197500X0.160000X-0.197500X0.160000X0*%
%ADD60C,2.750000*%
%ADD61RoundRect,0.225000X-0.225000X-0.250000X0.225000X-0.250000X0.225000X0.250000X-0.225000X0.250000X0*%
%ADD62R,1.700000X1.700000*%
%ADD63O,1.700000X1.700000*%
%ADD64R,0.300000X0.600000*%
%ADD65R,1.700000X0.300000*%
%ADD66RoundRect,0.100000X0.350000X0.100000X-0.350000X0.100000X-0.350000X-0.100000X0.350000X-0.100000X0*%
%ADD67RoundRect,0.150000X-0.512500X-0.150000X0.512500X-0.150000X0.512500X0.150000X-0.512500X0.150000X0*%
%ADD68R,1.000000X4.100000*%
%ADD69C,0.950000*%
%ADD70C,1.700000*%
G04 APERTURE END LIST*
D10*
X4650000Y25550000D02*
X16800000Y25550000D01*
X16800000Y24450000D01*
X4650000Y24450000D01*
X4650000Y25550000D01*
G36*
X4650000Y25550000D02*
G01*
X16800000Y25550000D01*
X16800000Y24450000D01*
X4650000Y24450000D01*
X4650000Y25550000D01*
G37*
D11*
X62189160Y1177800D02*
X62332017Y1130181D01*
X62332017Y1130181D02*
X62570112Y1130181D01*
X62570112Y1130181D02*
X62665350Y1177800D01*
X62665350Y1177800D02*
X62712969Y1225420D01*
X62712969Y1225420D02*
X62760588Y1320658D01*
X62760588Y1320658D02*
X62760588Y1415896D01*
X62760588Y1415896D02*
X62712969Y1511134D01*
X62712969Y1511134D02*
X62665350Y1558753D01*
X62665350Y1558753D02*
X62570112Y1606372D01*
X62570112Y1606372D02*
X62379636Y1653991D01*
X62379636Y1653991D02*
X62284398Y1701610D01*
X62284398Y1701610D02*
X62236779Y1749229D01*
X62236779Y1749229D02*
X62189160Y1844467D01*
X62189160Y1844467D02*
X62189160Y1939705D01*
X62189160Y1939705D02*
X62236779Y2034943D01*
X62236779Y2034943D02*
X62284398Y2082562D01*
X62284398Y2082562D02*
X62379636Y2130181D01*
X62379636Y2130181D02*
X62617731Y2130181D01*
X62617731Y2130181D02*
X62760588Y2082562D01*
X63332017Y1130181D02*
X63236779Y1177800D01*
X63236779Y1177800D02*
X63189160Y1225420D01*
X63189160Y1225420D02*
X63141541Y1320658D01*
X63141541Y1320658D02*
X63141541Y1606372D01*
X63141541Y1606372D02*
X63189160Y1701610D01*
X63189160Y1701610D02*
X63236779Y1749229D01*
X63236779Y1749229D02*
X63332017Y1796848D01*
X63332017Y1796848D02*
X63474874Y1796848D01*
X63474874Y1796848D02*
X63570112Y1749229D01*
X63570112Y1749229D02*
X63617731Y1701610D01*
X63617731Y1701610D02*
X63665350Y1606372D01*
X63665350Y1606372D02*
X63665350Y1320658D01*
X63665350Y1320658D02*
X63617731Y1225420D01*
X63617731Y1225420D02*
X63570112Y1177800D01*
X63570112Y1177800D02*
X63474874Y1130181D01*
X63474874Y1130181D02*
X63332017Y1130181D01*
X64093922Y1796848D02*
X64093922Y1130181D01*
X64093922Y1701610D02*
X64141541Y1749229D01*
X64141541Y1749229D02*
X64236779Y1796848D01*
X64236779Y1796848D02*
X64379636Y1796848D01*
X64379636Y1796848D02*
X64474874Y1749229D01*
X64474874Y1749229D02*
X64522493Y1653991D01*
X64522493Y1653991D02*
X64522493Y1130181D01*
X64903446Y1796848D02*
X65141541Y1130181D01*
X65379636Y1796848D02*
X65141541Y1130181D01*
X65141541Y1130181D02*
X65046303Y892086D01*
X65046303Y892086D02*
X64998684Y844467D01*
X64998684Y844467D02*
X64903446Y796848D01*
X66189160Y1130181D02*
X66189160Y1653991D01*
X66189160Y1653991D02*
X66141541Y1749229D01*
X66141541Y1749229D02*
X66046303Y1796848D01*
X66046303Y1796848D02*
X65855827Y1796848D01*
X65855827Y1796848D02*
X65760589Y1749229D01*
X66189160Y1177800D02*
X66093922Y1130181D01*
X66093922Y1130181D02*
X65855827Y1130181D01*
X65855827Y1130181D02*
X65760589Y1177800D01*
X65760589Y1177800D02*
X65712970Y1273039D01*
X65712970Y1273039D02*
X65712970Y1368277D01*
X65712970Y1368277D02*
X65760589Y1463515D01*
X65760589Y1463515D02*
X65855827Y1511134D01*
X65855827Y1511134D02*
X66093922Y1511134D01*
X66093922Y1511134D02*
X66189160Y1558753D01*
X67284399Y2130181D02*
X67617732Y1130181D01*
X67617732Y1130181D02*
X67951065Y2130181D01*
X68712970Y1130181D02*
X68712970Y1653991D01*
X68712970Y1653991D02*
X68665351Y1749229D01*
X68665351Y1749229D02*
X68570113Y1796848D01*
X68570113Y1796848D02*
X68379637Y1796848D01*
X68379637Y1796848D02*
X68284399Y1749229D01*
X68712970Y1177800D02*
X68617732Y1130181D01*
X68617732Y1130181D02*
X68379637Y1130181D01*
X68379637Y1130181D02*
X68284399Y1177800D01*
X68284399Y1177800D02*
X68236780Y1273039D01*
X68236780Y1273039D02*
X68236780Y1368277D01*
X68236780Y1368277D02*
X68284399Y1463515D01*
X68284399Y1463515D02*
X68379637Y1511134D01*
X68379637Y1511134D02*
X68617732Y1511134D01*
X68617732Y1511134D02*
X68712970Y1558753D01*
X69141542Y1177800D02*
X69236780Y1130181D01*
X69236780Y1130181D02*
X69427256Y1130181D01*
X69427256Y1130181D02*
X69522494Y1177800D01*
X69522494Y1177800D02*
X69570113Y1273039D01*
X69570113Y1273039D02*
X69570113Y1320658D01*
X69570113Y1320658D02*
X69522494Y1415896D01*
X69522494Y1415896D02*
X69427256Y1463515D01*
X69427256Y1463515D02*
X69284399Y1463515D01*
X69284399Y1463515D02*
X69189161Y1511134D01*
X69189161Y1511134D02*
X69141542Y1606372D01*
X69141542Y1606372D02*
X69141542Y1653991D01*
X69141542Y1653991D02*
X69189161Y1749229D01*
X69189161Y1749229D02*
X69284399Y1796848D01*
X69284399Y1796848D02*
X69427256Y1796848D01*
X69427256Y1796848D02*
X69522494Y1749229D01*
X70427256Y1796848D02*
X70427256Y796848D01*
X70427256Y1177800D02*
X70332018Y1130181D01*
X70332018Y1130181D02*
X70141542Y1130181D01*
X70141542Y1130181D02*
X70046304Y1177800D01*
X70046304Y1177800D02*
X69998685Y1225420D01*
X69998685Y1225420D02*
X69951066Y1320658D01*
X69951066Y1320658D02*
X69951066Y1606372D01*
X69951066Y1606372D02*
X69998685Y1701610D01*
X69998685Y1701610D02*
X70046304Y1749229D01*
X70046304Y1749229D02*
X70141542Y1796848D01*
X70141542Y1796848D02*
X70332018Y1796848D01*
X70332018Y1796848D02*
X70427256Y1749229D01*
X71332018Y1796848D02*
X71332018Y1130181D01*
X70903447Y1796848D02*
X70903447Y1273039D01*
X70903447Y1273039D02*
X70951066Y1177800D01*
X70951066Y1177800D02*
X71046304Y1130181D01*
X71046304Y1130181D02*
X71189161Y1130181D01*
X71189161Y1130181D02*
X71284399Y1177800D01*
X71284399Y1177800D02*
X71332018Y1225420D01*
X72189161Y1177800D02*
X72093923Y1130181D01*
X72093923Y1130181D02*
X71903447Y1130181D01*
X71903447Y1130181D02*
X71808209Y1177800D01*
X71808209Y1177800D02*
X71760590Y1273039D01*
X71760590Y1273039D02*
X71760590Y1653991D01*
X71760590Y1653991D02*
X71808209Y1749229D01*
X71808209Y1749229D02*
X71903447Y1796848D01*
X71903447Y1796848D02*
X72093923Y1796848D01*
X72093923Y1796848D02*
X72189161Y1749229D01*
X72189161Y1749229D02*
X72236780Y1653991D01*
X72236780Y1653991D02*
X72236780Y1558753D01*
X72236780Y1558753D02*
X71760590Y1463515D01*
X72570114Y1796848D02*
X73093923Y1796848D01*
X73093923Y1796848D02*
X72570114Y1130181D01*
X72570114Y1130181D02*
X73093923Y1130181D01*
D12*
G04 #@! TO.C,J3*
X7000000Y25000000D03*
X4460000Y25000000D03*
D13*
X3190000Y21723400D03*
X9743200Y21723400D03*
X3310000Y28276600D03*
X9743200Y28276600D03*
G04 #@! TD*
D14*
G04 #@! TO.C,C6*
X39620000Y24600000D03*
X40580000Y24600000D03*
G04 #@! TD*
G04 #@! TO.C,C30*
X25920000Y22200000D03*
X26880000Y22200000D03*
G04 #@! TD*
D15*
G04 #@! TO.C,R28*
X43600000Y19990000D03*
X43600000Y21010000D03*
G04 #@! TD*
G04 #@! TO.C,R24*
X34600000Y27790000D03*
X34600000Y28810000D03*
G04 #@! TD*
D16*
G04 #@! TO.C,D1*
X78775000Y17900000D03*
X77025000Y17900000D03*
G04 #@! TD*
D14*
G04 #@! TO.C,C21*
X21220000Y21800000D03*
X22180000Y21800000D03*
G04 #@! TD*
D17*
G04 #@! TO.C,C19*
X49380000Y20700000D03*
X48420000Y20700000D03*
G04 #@! TD*
D15*
G04 #@! TO.C,R40*
X60600000Y6590000D03*
X60600000Y7610000D03*
G04 #@! TD*
G04 #@! TO.C,R44*
X42600000Y19990000D03*
X42600000Y21010000D03*
G04 #@! TD*
D14*
G04 #@! TO.C,C9*
X51220000Y23100000D03*
X52180000Y23100000D03*
G04 #@! TD*
D18*
G04 #@! TO.C,J6*
X65800000Y11250000D03*
D19*
X71800000Y11250000D03*
X68800000Y15950000D03*
G04 #@! TD*
D17*
G04 #@! TO.C,C27*
X36380000Y3455000D03*
X35420000Y3455000D03*
G04 #@! TD*
D20*
G04 #@! TO.C,C38*
X34800000Y23380000D03*
X34800000Y22420000D03*
G04 #@! TD*
D21*
G04 #@! TO.C,C45*
X64100000Y4950000D03*
X64100000Y3050000D03*
G04 #@! TD*
D22*
G04 #@! TO.C,R26*
X33610000Y26900000D03*
X32590000Y26900000D03*
G04 #@! TD*
D23*
G04 #@! TO.C,R38*
X60600000Y9510000D03*
X60600000Y8490000D03*
G04 #@! TD*
G04 #@! TO.C,R21*
X33800000Y23410000D03*
X33800000Y22390000D03*
G04 #@! TD*
D14*
G04 #@! TO.C,C13*
X43220000Y30400000D03*
X44180000Y30400000D03*
G04 #@! TD*
D24*
G04 #@! TO.C,R11*
X51190000Y24100000D03*
X52210000Y24100000D03*
G04 #@! TD*
D14*
G04 #@! TO.C,C8*
X72020000Y33500000D03*
X72980000Y33500000D03*
G04 #@! TD*
D25*
G04 #@! TO.C,U2*
X70475000Y25350000D03*
X70475000Y24650000D03*
X71325000Y25000000D03*
G04 #@! TD*
D17*
G04 #@! TO.C,C41*
X28130000Y3650000D03*
X27170000Y3650000D03*
G04 #@! TD*
D15*
G04 #@! TO.C,R29*
X44600000Y19990000D03*
X44600000Y21010000D03*
G04 #@! TD*
D23*
G04 #@! TO.C,R39*
X52200000Y9510000D03*
X52200000Y8490000D03*
G04 #@! TD*
D26*
G04 #@! TO.C,R14*
X12300000Y28150000D03*
X12300000Y25225000D03*
G04 #@! TD*
D27*
G04 #@! TO.C,C28*
X39000000Y6720000D03*
X39000000Y7680000D03*
G04 #@! TD*
G04 #@! TO.C,C56*
X71500000Y18920000D03*
X71500000Y19880000D03*
G04 #@! TD*
D28*
G04 #@! TO.C,U11*
X28900000Y7100000D03*
X28400000Y7100000D03*
X27900000Y7100000D03*
X27400000Y7100000D03*
X26900000Y7100000D03*
X26400000Y7100000D03*
X26400000Y5200000D03*
X26900000Y5200000D03*
X27400000Y5200000D03*
X27900000Y5200000D03*
X28400000Y5200000D03*
X28900000Y5200000D03*
D29*
X27650000Y6150000D03*
G04 #@! TD*
D30*
G04 #@! TO.C,C22*
X17750000Y28700000D03*
X19650000Y28700000D03*
G04 #@! TD*
D31*
G04 #@! TO.C,C40*
X25480000Y3550000D03*
X23580000Y3550000D03*
G04 #@! TD*
D27*
G04 #@! TO.C,C54*
X59600000Y39120000D03*
X59600000Y40080000D03*
G04 #@! TD*
D15*
G04 #@! TO.C,R3*
X70500000Y27290000D03*
X70500000Y28310000D03*
G04 #@! TD*
D20*
G04 #@! TO.C,C24*
X25300000Y28080000D03*
X25300000Y27120000D03*
G04 #@! TD*
D32*
G04 #@! TO.C,U7*
X17225000Y26905000D03*
X17225000Y25635000D03*
X17225000Y24365000D03*
X17225000Y23095000D03*
X22375000Y23095000D03*
X22375000Y24365000D03*
X22375000Y25635000D03*
X22375000Y26905000D03*
G04 #@! TD*
D33*
G04 #@! TO.C,U1*
X61050000Y40350000D03*
X61050000Y39850000D03*
X61050000Y39350000D03*
X61050000Y38850000D03*
X64150000Y38850000D03*
X64150000Y39350000D03*
X64150000Y39850000D03*
X64150000Y40350000D03*
G04 #@! TD*
D22*
G04 #@! TO.C,R47*
X34610000Y25900000D03*
X33590000Y25900000D03*
G04 #@! TD*
D34*
G04 #@! TO.C,REF\u002A\u002A*
X77000000Y3000000D03*
G04 #@! TD*
D23*
G04 #@! TO.C,R46*
X24200000Y26210000D03*
X24200000Y25190000D03*
G04 #@! TD*
D35*
G04 #@! TO.C,U4*
X48400000Y29200000D03*
X48000000Y29200000D03*
X47600000Y29200000D03*
X47200000Y29200000D03*
X46800000Y29200000D03*
X46400000Y29200000D03*
X46000000Y29200000D03*
X45600000Y29200000D03*
X45200000Y29200000D03*
X44800000Y29200000D03*
X44400000Y29200000D03*
X44000000Y29200000D03*
X43600000Y29200000D03*
X43200000Y29200000D03*
D36*
X42362500Y28362500D03*
X42362500Y27962500D03*
X42362500Y27562500D03*
X42362500Y27162500D03*
X42362500Y26762500D03*
X42362500Y26362500D03*
X42362500Y25962500D03*
X42362500Y25562500D03*
X42362500Y25162500D03*
X42362500Y24762500D03*
X42362500Y24362500D03*
X42362500Y23962500D03*
X42362500Y23562500D03*
X42362500Y23162500D03*
D35*
X43200000Y22325000D03*
X43600000Y22325000D03*
X44000000Y22325000D03*
X44400000Y22325000D03*
X44800000Y22325000D03*
X45200000Y22325000D03*
X45600000Y22325000D03*
X46000000Y22325000D03*
X46400000Y22325000D03*
X46800000Y22325000D03*
X47200000Y22325000D03*
X47600000Y22325000D03*
X48000000Y22325000D03*
X48400000Y22325000D03*
D36*
X49237500Y23162500D03*
X49237500Y23562500D03*
X49237500Y23962500D03*
X49237500Y24362500D03*
X49237500Y24762500D03*
X49237500Y25162500D03*
X49237500Y25562500D03*
X49237500Y25962500D03*
X49237500Y26362500D03*
X49237500Y26762500D03*
X49237500Y27162500D03*
X49237500Y27562500D03*
X49237500Y27962500D03*
X49237500Y28362500D03*
D37*
X45800000Y25762500D03*
G04 #@! TD*
D34*
G04 #@! TO.C,REF\u002A\u002A*
X77000000Y47000000D03*
G04 #@! TD*
D27*
G04 #@! TO.C,C3*
X55400000Y20320000D03*
X55400000Y21280000D03*
G04 #@! TD*
D38*
G04 #@! TO.C,R30*
X68887500Y40400000D03*
X70712500Y40400000D03*
G04 #@! TD*
D39*
G04 #@! TO.C,J5*
X74400000Y22000000D03*
D40*
X77500000Y23600000D03*
X77500000Y26400000D03*
D41*
X74400000Y28000000D03*
D42*
X73300000Y21900000D03*
X73300000Y22650000D03*
D43*
X73300000Y23250000D03*
X73300000Y24750000D03*
X73300000Y25750000D03*
X73300000Y26750000D03*
D42*
X73300000Y27350000D03*
X73300000Y28100000D03*
X73300000Y28100000D03*
X73300000Y27350000D03*
D43*
X73300000Y26250000D03*
X73300000Y25250000D03*
X73300000Y24250000D03*
X73300000Y23750000D03*
D42*
X73300000Y22650000D03*
X73300000Y21900000D03*
D44*
X73675000Y20680000D03*
D45*
X77500000Y20680000D03*
D44*
X73675000Y29320000D03*
D45*
X77500000Y29320000D03*
G04 #@! TD*
D22*
G04 #@! TO.C,R22*
X31710000Y22200000D03*
X30690000Y22200000D03*
G04 #@! TD*
D31*
G04 #@! TO.C,C23*
X19650000Y21300000D03*
X17750000Y21300000D03*
G04 #@! TD*
D22*
G04 #@! TO.C,R7*
X55910000Y25300000D03*
X54890000Y25300000D03*
G04 #@! TD*
D46*
G04 #@! TO.C,SW1*
X60050000Y31300000D03*
X60050000Y32900000D03*
X64150000Y32900000D03*
X64150000Y31300000D03*
D47*
X62100000Y30675000D03*
G04 #@! TD*
D27*
G04 #@! TO.C,C2*
X68800000Y20120000D03*
X68800000Y21080000D03*
G04 #@! TD*
D22*
G04 #@! TO.C,R17*
X33910000Y32400000D03*
X32890000Y32400000D03*
G04 #@! TD*
D48*
G04 #@! TO.C,U6*
X26850000Y26750000D03*
X26850000Y26250000D03*
X26850000Y25750000D03*
X26850000Y25250000D03*
X26850000Y24750000D03*
X26850000Y24250000D03*
X26850000Y23750000D03*
X26850000Y23250000D03*
X31150000Y23250000D03*
X31150000Y23750000D03*
X31150000Y24250000D03*
X31150000Y24750000D03*
X31150000Y25250000D03*
X31150000Y25750000D03*
X31150000Y26250000D03*
X31150000Y26750000D03*
G04 #@! TD*
D15*
G04 #@! TO.C,R32*
X30900000Y5240000D03*
X30900000Y6260000D03*
G04 #@! TD*
D34*
G04 #@! TO.C,REF\u002A\u002A*
X3000000Y47000000D03*
G04 #@! TD*
D49*
G04 #@! TO.C,X1*
X39750000Y28300000D03*
X39750000Y26900000D03*
X40850000Y26900000D03*
X40850000Y28300000D03*
G04 #@! TD*
D27*
G04 #@! TO.C,C52*
X37700000Y18620000D03*
X37700000Y19580000D03*
G04 #@! TD*
D22*
G04 #@! TO.C,R6*
X55910000Y26400000D03*
X54890000Y26400000D03*
G04 #@! TD*
D24*
G04 #@! TO.C,R12*
X74490000Y17900000D03*
X75510000Y17900000D03*
G04 #@! TD*
D27*
G04 #@! TO.C,C50*
X37700000Y16620000D03*
X37700000Y17580000D03*
G04 #@! TD*
D50*
G04 #@! TO.C,D3*
X71500000Y28285000D03*
X71500000Y27315000D03*
G04 #@! TD*
D17*
G04 #@! TO.C,C14*
X53280000Y26100000D03*
X52320000Y26100000D03*
G04 #@! TD*
D27*
G04 #@! TO.C,C44*
X25350000Y6120000D03*
X25350000Y7080000D03*
G04 #@! TD*
D23*
G04 #@! TO.C,R52*
X32800000Y23410000D03*
X32800000Y22390000D03*
G04 #@! TD*
D34*
G04 #@! TO.C,REF\u002A\u002A*
X3000000Y3000000D03*
G04 #@! TD*
D22*
G04 #@! TO.C,R4*
X69710000Y26000000D03*
X68690000Y26000000D03*
G04 #@! TD*
D16*
G04 #@! TO.C,D2*
X78775000Y32100000D03*
X77025000Y32100000D03*
G04 #@! TD*
D17*
G04 #@! TO.C,C18*
X53280000Y27100000D03*
X52320000Y27100000D03*
G04 #@! TD*
D14*
G04 #@! TO.C,C10*
X51220000Y22100000D03*
X52180000Y22100000D03*
G04 #@! TD*
D23*
G04 #@! TO.C,R27*
X25300000Y24710000D03*
X25300000Y23690000D03*
G04 #@! TD*
G04 #@! TO.C,R18*
X24100000Y24110000D03*
X24100000Y23090000D03*
G04 #@! TD*
D22*
G04 #@! TO.C,R5*
X69710000Y25000000D03*
X68690000Y25000000D03*
G04 #@! TD*
D27*
G04 #@! TO.C,C59*
X33800000Y6700000D03*
X33800000Y7660000D03*
G04 #@! TD*
D22*
G04 #@! TO.C,R16*
X36910000Y32400000D03*
X35890000Y32400000D03*
G04 #@! TD*
D31*
G04 #@! TO.C,C48*
X55150000Y13800000D03*
X53250000Y13800000D03*
G04 #@! TD*
D24*
G04 #@! TO.C,R23*
X30590000Y29800000D03*
X31610000Y29800000D03*
G04 #@! TD*
D14*
G04 #@! TO.C,C51*
X40020000Y16300000D03*
X40980000Y16300000D03*
G04 #@! TD*
D20*
G04 #@! TO.C,C37*
X69800000Y19880000D03*
X69800000Y18920000D03*
G04 #@! TD*
D23*
G04 #@! TO.C,R9*
X54000000Y32310000D03*
X54000000Y31290000D03*
G04 #@! TD*
D51*
G04 #@! TO.C,FID2*
X73000000Y3000000D03*
G04 #@! TD*
D17*
G04 #@! TO.C,C1*
X55180000Y29900000D03*
X54220000Y29900000D03*
G04 #@! TD*
D14*
G04 #@! TO.C,C31*
X25920000Y21200000D03*
X26880000Y21200000D03*
G04 #@! TD*
D27*
G04 #@! TO.C,C35*
X37900000Y32420000D03*
X37900000Y33380000D03*
G04 #@! TD*
D31*
G04 #@! TO.C,C11*
X41450000Y14800000D03*
X39550000Y14800000D03*
G04 #@! TD*
G04 #@! TO.C,C39*
X63550000Y42900000D03*
X61650000Y42900000D03*
G04 #@! TD*
D15*
G04 #@! TO.C,R41*
X52200000Y6590000D03*
X52200000Y7610000D03*
G04 #@! TD*
D20*
G04 #@! TO.C,C12*
X48500000Y31780000D03*
X48500000Y30820000D03*
G04 #@! TD*
D14*
G04 #@! TO.C,C15*
X39620000Y25600000D03*
X40580000Y25600000D03*
G04 #@! TD*
D52*
G04 #@! TO.C,U3*
X66950000Y18855000D03*
X66950000Y20125000D03*
X66950000Y21395000D03*
X66950000Y22665000D03*
X66950000Y23935000D03*
X66950000Y25205000D03*
X66950000Y26475000D03*
X66950000Y27745000D03*
X57650000Y27745000D03*
X57650000Y26475000D03*
X57650000Y25205000D03*
X57650000Y23935000D03*
X57650000Y22665000D03*
X57650000Y21395000D03*
X57650000Y20125000D03*
X57650000Y18855000D03*
G04 #@! TD*
D14*
G04 #@! TO.C,C46*
X57620000Y12300000D03*
X58580000Y12300000D03*
G04 #@! TD*
G04 #@! TO.C,C55*
X62220000Y41400000D03*
X63180000Y41400000D03*
G04 #@! TD*
D27*
G04 #@! TO.C,C57*
X31900000Y32420000D03*
X31900000Y33380000D03*
G04 #@! TD*
D14*
G04 #@! TO.C,C26*
X35420000Y4455000D03*
X36380000Y4455000D03*
G04 #@! TD*
D17*
G04 #@! TO.C,C47*
X55180000Y12300000D03*
X54220000Y12300000D03*
G04 #@! TD*
D33*
G04 #@! TO.C,U13*
X42050000Y17350000D03*
X42050000Y17850000D03*
X42050000Y18350000D03*
X42050000Y18850000D03*
X38950000Y18850000D03*
X38950000Y18350000D03*
X38950000Y17850000D03*
X38950000Y17350000D03*
G04 #@! TD*
D22*
G04 #@! TO.C,R8*
X39910000Y32400000D03*
X38890000Y32400000D03*
G04 #@! TD*
D53*
G04 #@! TO.C,J7*
X75600000Y39600000D03*
D54*
X78200000Y36700000D03*
D55*
X73000000Y42500000D03*
G04 #@! TD*
D27*
G04 #@! TO.C,C16*
X45500000Y18020000D03*
X45500000Y18980000D03*
G04 #@! TD*
D15*
G04 #@! TO.C,R37*
X52200000Y3790000D03*
X52200000Y4810000D03*
G04 #@! TD*
D24*
G04 #@! TO.C,R10*
X51190000Y25050000D03*
X52210000Y25050000D03*
G04 #@! TD*
D20*
G04 #@! TO.C,C34*
X33600000Y28780000D03*
X33600000Y27820000D03*
G04 #@! TD*
D24*
G04 #@! TO.C,R49*
X30590000Y28800000D03*
X31610000Y28800000D03*
G04 #@! TD*
D17*
G04 #@! TO.C,C17*
X51580000Y21100000D03*
X50620000Y21100000D03*
G04 #@! TD*
D24*
G04 #@! TO.C,R13*
X74490000Y32100000D03*
X75510000Y32100000D03*
G04 #@! TD*
D56*
G04 #@! TO.C,D4*
X72985000Y34500000D03*
X72015000Y34500000D03*
G04 #@! TD*
D23*
G04 #@! TO.C,R2*
X71500000Y23010000D03*
X71500000Y21990000D03*
G04 #@! TD*
D17*
G04 #@! TO.C,C20*
X22180000Y28200000D03*
X21220000Y28200000D03*
G04 #@! TD*
D57*
G04 #@! TO.C,U12*
X59325000Y9612500D03*
X58675000Y9612500D03*
X58025000Y9612500D03*
X57375000Y9612500D03*
X56725000Y9612500D03*
X56075000Y9612500D03*
X55425000Y9612500D03*
X54775000Y9612500D03*
X54125000Y9612500D03*
X53475000Y9612500D03*
X53475000Y3712500D03*
X54125000Y3712500D03*
X54775000Y3712500D03*
X55425000Y3712500D03*
X56075000Y3712500D03*
X56725000Y3712500D03*
X57375000Y3712500D03*
X58025000Y3712500D03*
X58675000Y3712500D03*
X59325000Y3712500D03*
D58*
X56400000Y6662500D03*
G04 #@! TD*
D59*
G04 #@! TO.C,R15*
X14200000Y25700000D03*
X15395000Y25700000D03*
G04 #@! TD*
D22*
G04 #@! TO.C,R34*
X31210000Y7150000D03*
X30190000Y7150000D03*
G04 #@! TD*
D20*
G04 #@! TO.C,C53*
X58600000Y40080000D03*
X58600000Y39120000D03*
G04 #@! TD*
D60*
G04 #@! TO.C,H1*
X10100000Y15750000D03*
X5100000Y15750000D03*
X10100000Y8250000D03*
X5100000Y8250000D03*
G04 #@! TD*
D61*
G04 #@! TO.C,C42*
X27025000Y8750000D03*
X28575000Y8750000D03*
G04 #@! TD*
D24*
G04 #@! TO.C,R35*
X24090000Y5150000D03*
X25110000Y5150000D03*
G04 #@! TD*
D22*
G04 #@! TO.C,R19*
X26910000Y20200000D03*
X25890000Y20200000D03*
G04 #@! TD*
D20*
G04 #@! TO.C,C5*
X54400000Y20380000D03*
X54400000Y19420000D03*
G04 #@! TD*
D15*
G04 #@! TO.C,R20*
X27900000Y21190000D03*
X27900000Y22210000D03*
G04 #@! TD*
D38*
G04 #@! TO.C,R31*
X68887500Y38800000D03*
X70712500Y38800000D03*
G04 #@! TD*
D15*
G04 #@! TO.C,R36*
X60600000Y3790000D03*
X60600000Y4810000D03*
G04 #@! TD*
D20*
G04 #@! TO.C,C43*
X29950000Y6180000D03*
X29950000Y5220000D03*
G04 #@! TD*
D22*
G04 #@! TO.C,R45*
X30910000Y32400000D03*
X29890000Y32400000D03*
G04 #@! TD*
D14*
G04 #@! TO.C,C25*
X33220000Y24900000D03*
X34180000Y24900000D03*
G04 #@! TD*
D30*
G04 #@! TO.C,C49*
X57650000Y13800000D03*
X59550000Y13800000D03*
G04 #@! TD*
D15*
G04 #@! TO.C,R43*
X36700000Y18590000D03*
X36700000Y19610000D03*
G04 #@! TD*
D62*
G04 #@! TO.C,J2*
X49500000Y38400000D03*
D63*
X52040000Y38400000D03*
X54580000Y38400000D03*
G04 #@! TD*
D15*
G04 #@! TO.C,R25*
X26800000Y30490000D03*
X26800000Y31510000D03*
G04 #@! TD*
D51*
G04 #@! TO.C,FID1*
X7000000Y3000000D03*
G04 #@! TD*
D64*
G04 #@! TO.C,U5*
X52850000Y32050000D03*
X52350000Y32050000D03*
X51850000Y32050000D03*
X51350000Y32050000D03*
X51350000Y29550000D03*
X51850000Y29550000D03*
X52350000Y29550000D03*
X52850000Y29550000D03*
D65*
X52100000Y30800000D03*
G04 #@! TD*
D66*
G04 #@! TO.C,L1*
X68700000Y3425000D03*
X68700000Y4575000D03*
X65900000Y4575000D03*
X65900000Y3425000D03*
G04 #@! TD*
D23*
G04 #@! TO.C,R33*
X24300000Y7110000D03*
X24300000Y6090000D03*
G04 #@! TD*
D27*
G04 #@! TO.C,C36*
X34900000Y32420000D03*
X34900000Y33380000D03*
G04 #@! TD*
D24*
G04 #@! TO.C,R48*
X30590000Y27800000D03*
X31610000Y27800000D03*
G04 #@! TD*
D20*
G04 #@! TO.C,C32*
X27800000Y31480000D03*
X27800000Y30520000D03*
G04 #@! TD*
D51*
G04 #@! TO.C,FID3*
X73000000Y47000000D03*
G04 #@! TD*
D67*
G04 #@! TO.C,U8*
X35262500Y7650000D03*
X35262500Y6700000D03*
X35262500Y5750000D03*
X37537500Y5750000D03*
X37537500Y7650000D03*
G04 #@! TD*
D17*
G04 #@! TO.C,C7*
X53280000Y28100000D03*
X52320000Y28100000D03*
G04 #@! TD*
D14*
G04 #@! TO.C,C4*
X39820000Y29800000D03*
X40780000Y29800000D03*
G04 #@! TD*
D20*
G04 #@! TO.C,C33*
X32600000Y28780000D03*
X32600000Y27820000D03*
G04 #@! TD*
D22*
G04 #@! TO.C,R42*
X39710000Y19900000D03*
X38690000Y19900000D03*
G04 #@! TD*
D68*
G04 #@! TO.C,TP1*
X35200000Y17300000D03*
D69*
X35200000Y18750000D03*
G04 #@! TD*
D22*
G04 #@! TO.C,R1*
X58410000Y32300000D03*
X57390000Y32300000D03*
G04 #@! TD*
D27*
G04 #@! TO.C,C58*
X28900000Y32420000D03*
X28900000Y33380000D03*
G04 #@! TD*
D70*
G04 #@! TO.C,J4*
X66500000Y39600000D03*
X73500000Y39600000D03*
G04 #@! TD*
M02*
