M48
INCH,TZ
T1C0.0100
T2C0.0118
T3C0.0138
T4C0.0236
T5C0.0394
T6C0.0591
T7C0.0625
T8C0.0630
T9C0.0709
T10C0.0728
T11C0.0236
T12C0.0669
T13C0.1260
%
G90
G05
T1
X2244Y10315
X2244Y9370
X2598Y10512
X2598Y9173
X2992Y10512
X2992Y9173
X3386Y10512
X3386Y9173
X3780Y10512
X3780Y9173
X4173Y10512
X4173Y9173
X4567Y10512
X4567Y9173
X5276Y10512
X5276Y9173
X5866Y10512
X5866Y9173
X6260Y10512
X6260Y9173
X6614Y11299
X6614Y8386
X8110Y11142
X8110Y8543
X8937Y1693
X8976Y11142
X8976Y8543
X9528Y10709
X9685Y11063
X9961Y11299
X9961Y10433
X10000Y3701
X10118Y2323
X10276Y12402
X10353Y2009
X10512Y12677
X10630Y7638
X10985Y9273
X11024Y3543
X11260Y4331
X11279Y9567
X11378Y13425
X11462Y2244
X11693Y13189
X11811Y10000
X12559Y13425
X12598Y2756
X12874Y13189
X12913Y8583
X13622Y10591
X13740Y13425
X13819Y9843
X13917Y10256
X13937Y10945
X13976Y9205
X14055Y13189
X14055Y8622
X14055Y7480
X14843Y6260
X14921Y13425
X15197Y13189
X15197Y5827
X15276Y10591
X15315Y10039
X15315Y9646
X15433Y11732
X15512Y3693
X15551Y6614
X15551Y1654
X15591Y9409
X15591Y8150
X15669Y11496
X16055Y11496
X16102Y2638
X16260Y10059
X16260Y9434
X16339Y6614
X16693Y5827
X16732Y11929
X17008Y2953
X17402Y2953
X17638Y11850
X17717Y2244
X17835Y7717
X18071Y11929
X19055Y8425
X19094Y12835
X19094Y11850
X19449Y8425
X19724Y8543
X19764Y8976
X19764Y5394
X20039Y12835
X20118Y10276
X20315Y10157
X20591Y8307
X20591Y4700
X20591Y3046
X20827Y9094
X20827Y8701
X21102Y11772
X21339Y11063
X21339Y10669
X21339Y10433
X21604Y4936
X21860Y4936
X22008Y11772
X22047Y17008
X22087Y15906
X22087Y10984
X22087Y9370
X22087Y8976
X22116Y3986
X22116Y2628
X22126Y8425
X22126Y7913
X22126Y7441
X22372Y3986
X22372Y2628
X22628Y4936
X22884Y4936
X23110Y15079
X23425Y15079
X23465Y11693
X23583Y6850
X23898Y16808
X23898Y3046
X24016Y15000
X24213Y16220
X24331Y4488
X24449Y11811
X24646Y7047
X24724Y5394
X24724Y1319
X25148Y16250
X25630Y12638
X25630Y12323
X28268Y9812
X28268Y9358
X28543Y13819
X28937Y13819
X29378Y17323
X29528Y13858
X30748Y13465
X30984Y6654
X31024Y12244
T2
X10492Y2913
X10886Y2913
X11280Y2913
T3
X17530Y10645
X17530Y10143
X17530Y9641
X18031Y10645
X18031Y10143
X18031Y9641
X18533Y10645
X18533Y10143
X18533Y9641
T5
X19488Y15118
X20488Y15118
X21488Y15118
T6
X13504Y866
T7
X1756Y9843
X2756Y9843
T8
X25906Y4429
X27087Y6280
X28268Y4429
T9
X1256Y11133
X1256Y8553
X3836Y11133
X3836Y8553
T10
X2008Y6201
X2008Y3248
X3976Y6201
X3976Y3248
T11
X29291Y8661
T12
X27559Y15591
X30315Y15591
T13
X1181Y18504
X1181Y1181
X30315Y18504
X30315Y1181
T4
G00X28809Y11543
M15
G01X29203Y11543
M16
G05
G00X28809Y8142
M15
G01X29203Y8142
M16
G05
G00X30256Y11543
M15
G01X30768Y11543
M16
G05
G00X30256Y8142
M15
G01X30768Y8142
M16
G05
T11
G00X29291Y10974
M15
G01X29291Y11073
M16
G05
T0
M30
