G04 #@! TF.GenerationSoftware,KiCad,Pcbnew,7.0.6-7.0.6~ubuntu20.04.1*
G04 #@! TF.CreationDate,2024-01-10T11:24:14-08:00*
G04 #@! TF.ProjectId,harp_lick_detector_capactive,68617270-5f6c-4696-936b-5f6465746563,rev?*
G04 #@! TF.SameCoordinates,PX640a5a0PY7088980*
G04 #@! TF.FileFunction,Copper,L4,Bot*
G04 #@! TF.FilePolarity,Positive*
%FSLAX46Y46*%
G04 Gerber Fmt 4.6, Leading zero omitted, Abs format (unit mm)*
G04 Created by KiCad (PCBNEW 7.0.6-7.0.6~ubuntu20.04.1) date 2024-01-10 11:24:14*
%MOMM*%
%LPD*%
G01*
G04 APERTURE LIST*
G04 #@! TA.AperFunction,ComponentPad*
%ADD10C,2.200000*%
G04 #@! TD*
G04 #@! TA.AperFunction,ComponentPad*
%ADD11C,2.300000*%
G04 #@! TD*
G04 #@! TA.AperFunction,ComponentPad*
%ADD12R,2.600000X2.600000*%
G04 #@! TD*
G04 #@! TA.AperFunction,ComponentPad*
%ADD13C,2.600000*%
G04 #@! TD*
G04 #@! TA.AperFunction,ComponentPad*
%ADD14C,0.600000*%
G04 #@! TD*
G04 #@! TA.AperFunction,SMDPad,CuDef*
%ADD15R,2.650000X1.000000*%
G04 #@! TD*
G04 #@! TA.AperFunction,ComponentPad*
%ADD16O,2.300000X1.300000*%
G04 #@! TD*
G04 #@! TA.AperFunction,ComponentPad*
%ADD17O,2.600000X1.300000*%
G04 #@! TD*
G04 #@! TA.AperFunction,ComponentPad*
%ADD18C,2.750000*%
G04 #@! TD*
G04 #@! TA.AperFunction,ComponentPad*
%ADD19R,1.700000X1.700000*%
G04 #@! TD*
G04 #@! TA.AperFunction,ComponentPad*
%ADD20O,1.700000X1.700000*%
G04 #@! TD*
G04 #@! TA.AperFunction,ComponentPad*
%ADD21C,3.000000*%
G04 #@! TD*
G04 #@! TA.AperFunction,SMDPad,CuDef*
%ADD22R,2.200000X2.800000*%
G04 #@! TD*
G04 #@! TA.AperFunction,SMDPad,CuDef*
%ADD23R,2.800000X2.800000*%
G04 #@! TD*
G04 #@! TA.AperFunction,ViaPad*
%ADD24C,0.457200*%
G04 #@! TD*
G04 #@! TA.AperFunction,Conductor*
%ADD25C,0.152400*%
G04 #@! TD*
G04 #@! TA.AperFunction,Conductor*
%ADD26C,0.254000*%
G04 #@! TD*
G04 #@! TA.AperFunction,Conductor*
%ADD27C,0.250000*%
G04 #@! TD*
G04 APERTURE END LIST*
D10*
G04 #@! TO.P,J3,1,In*
G04 #@! TO.N,/Lick Detection Analog Front End/triax_core*
X7000000Y25000000D03*
G04 #@! TO.P,J3,2,Guard*
G04 #@! TO.N,/Lick Detection Analog Front End/triax_inner_shield*
X4460000Y25000000D03*
D11*
G04 #@! TO.P,J3,3,Shield*
G04 #@! TO.N,GND*
X3190000Y21723400D03*
X9743200Y21723400D03*
X3190000Y28276600D03*
X9743200Y28276600D03*
G04 #@! TD*
D12*
G04 #@! TO.P,J6,1*
G04 #@! TO.N,+12V*
X65800000Y11250000D03*
D13*
G04 #@! TO.P,J6,2*
G04 #@! TO.N,GND2*
X71800000Y11250000D03*
G04 #@! TO.P,J6,3*
G04 #@! TO.N,unconnected-(J6-Pad3)*
X68800000Y15950000D03*
G04 #@! TD*
D14*
G04 #@! TO.P,U11,13,PAD*
G04 #@! TO.N,GND*
X28650000Y7400000D03*
X27650000Y7400000D03*
D15*
X27650000Y7400000D03*
D14*
X26650000Y7400000D03*
G04 #@! TD*
G04 #@! TO.P,U4,57,GND*
G04 #@! TO.N,GND*
X47075000Y27037500D03*
X45800000Y27037500D03*
X44525000Y27037500D03*
X47075000Y25762500D03*
X45800000Y25762500D03*
X44525000Y25762500D03*
X47075000Y24487500D03*
X45800000Y24487500D03*
X44525000Y24487500D03*
G04 #@! TD*
D16*
G04 #@! TO.P,J5,S1,SHIELD*
G04 #@! TO.N,GND1*
X73675000Y20680000D03*
D17*
X77500000Y20680000D03*
D16*
X73675000Y29320000D03*
D17*
X77500000Y29320000D03*
G04 #@! TD*
D18*
G04 #@! TO.P,H1,1,1*
G04 #@! TO.N,GND*
X10100000Y15750000D03*
X5100000Y15750000D03*
X10100000Y8250000D03*
X5100000Y8250000D03*
G04 #@! TD*
D19*
G04 #@! TO.P,J2,1,Pin_1*
G04 #@! TO.N,/Harp Core RP2040 + Isolated USB/UART0_TXD*
X49500000Y38400000D03*
D20*
G04 #@! TO.P,J2,2,Pin_2*
G04 #@! TO.N,/Harp Core RP2040 + Isolated USB/UART0_RXD*
X52040000Y38400000D03*
G04 #@! TO.P,J2,3,Pin_3*
G04 #@! TO.N,GND*
X54580000Y38400000D03*
G04 #@! TD*
D21*
G04 #@! TO.P,TP1,1,1*
G04 #@! TO.N,Net-(R22-Pad1)*
X34300000Y2200000D03*
G04 #@! TD*
D22*
G04 #@! TO.P,J4,R*
G04 #@! TO.N,+3V3*
X76100000Y43300000D03*
G04 #@! TO.P,J4,S*
G04 #@! TO.N,GND*
X78100000Y35900000D03*
D23*
G04 #@! TO.P,J4,T*
G04 #@! TO.N,/Harp Core RP2040 + Isolated USB/HARP_CLK_SYNC*
X68700000Y35900000D03*
G04 #@! TD*
D24*
G04 #@! TO.N,GND*
X39400000Y9380000D03*
X74619498Y44000000D03*
X16800000Y21300000D03*
X28600000Y11000000D03*
X39500000Y16800000D03*
X59500000Y38300000D03*
X16800000Y28700000D03*
X39600000Y23900000D03*
X49400000Y21400000D03*
X78700000Y16900000D03*
X39200000Y29800000D03*
X37900000Y34100000D03*
X56200000Y20100000D03*
X39500000Y4200000D03*
X78800000Y31100000D03*
X78100000Y34200000D03*
X35350000Y26050000D03*
X54200000Y28100000D03*
X54200000Y26500000D03*
X65100000Y31300000D03*
X32800000Y21800000D03*
X31900000Y34100000D03*
X50900000Y32600000D03*
X56175000Y6675000D03*
X52300000Y7737500D03*
X22800000Y21700000D03*
X27000000Y19400000D03*
X60700000Y42692500D03*
X62100000Y30000000D03*
X38600000Y14800000D03*
X38900000Y24500000D03*
X56100000Y27900000D03*
X35400000Y27800000D03*
X28900000Y34100000D03*
X62800000Y13700000D03*
X56825000Y6675000D03*
X61500000Y41200000D03*
X38800000Y26900000D03*
X25300000Y28700000D03*
X24200000Y27200000D03*
X26700000Y32200000D03*
X75000000Y35200000D03*
X38900000Y25500000D03*
X29700000Y33500000D03*
X34900000Y34100000D03*
X52900000Y23100000D03*
X40900000Y6700000D03*
X62800000Y3350000D03*
X24600000Y28100000D03*
X35500000Y23380000D03*
X43200000Y7500000D03*
X22700000Y4300000D03*
X39800000Y29200000D03*
X60700000Y7737500D03*
X39600000Y20700000D03*
X73500000Y35100000D03*
X52300000Y21100000D03*
X52900000Y22100000D03*
X38600000Y33500000D03*
X58700000Y38300000D03*
X25700000Y5900000D03*
X48500000Y32600000D03*
X22800000Y28300000D03*
X56825000Y10125000D03*
X37700000Y15900000D03*
X56175000Y10125000D03*
X26100000Y31500000D03*
X44200000Y7500000D03*
X55900000Y29900000D03*
X61000000Y38100000D03*
X35700000Y33500000D03*
X50200000Y13700000D03*
X32700000Y33500000D03*
X35100000Y25000000D03*
X54200000Y27100000D03*
X34600000Y26900000D03*
X42500000Y30300000D03*
G04 #@! TO.N,+3V3*
X48500000Y30100000D03*
X56100000Y23800000D03*
X56100000Y40400000D03*
X51100000Y26100000D03*
X48400000Y21400000D03*
X40780000Y29200000D03*
X41500000Y16800000D03*
X41300000Y23962500D03*
X44800000Y30100000D03*
X56200000Y21400000D03*
X51600000Y25800000D03*
X56100000Y22800000D03*
X50200000Y22800000D03*
X56000000Y43200000D03*
X42400000Y14800000D03*
X50100000Y21700000D03*
X56200000Y18900000D03*
X54875000Y12537500D03*
X52300000Y11937500D03*
X53600000Y29900000D03*
X41300000Y25550000D03*
X55525000Y12537500D03*
X72500000Y35100000D03*
X45300000Y19600000D03*
G04 #@! TO.N,GND1*
X71800000Y24921900D03*
X71800000Y23769500D03*
G04 #@! TO.N,+2V5*
X32000000Y7000000D03*
X20600000Y28300000D03*
X25300000Y26500000D03*
G04 #@! TO.N,-2V5*
X25400000Y9400000D03*
X20600000Y21700000D03*
X30000000Y25400000D03*
G04 #@! TO.N,+5V*
X61800000Y11400000D03*
X26296225Y5103775D03*
X63875000Y41275000D03*
X28000000Y9000000D03*
X57475000Y12537500D03*
X58125000Y12537500D03*
X45000000Y5700000D03*
X29114175Y5700000D03*
G04 #@! TO.N,Net-(C30-Pad2)*
X27900914Y23553214D03*
X28648850Y24301150D03*
G04 #@! TO.N,VREF_1V25*
X35700000Y21900000D03*
X35700000Y19000000D03*
G04 #@! TO.N,/Lick Detection Analog Front End/triax_inner_shield*
X15900000Y26700000D03*
X7600000Y23300000D03*
X13400000Y26700000D03*
X9600000Y26700000D03*
X8600000Y26700000D03*
X10600000Y23300000D03*
X14900000Y26700000D03*
X11600000Y23300000D03*
X11600000Y26700000D03*
X7600000Y26700000D03*
X9600000Y23300000D03*
X6600000Y26700000D03*
X15900000Y23300000D03*
X8600000Y23300000D03*
X5700000Y26200000D03*
X10600000Y26700000D03*
X5700000Y23800000D03*
X13400000Y23300000D03*
X6600000Y23300000D03*
X14900000Y23300000D03*
G04 #@! TO.N,/Harp Core RP2040 + Isolated USB/HARP_CLK_SYNC*
X45900000Y30300000D03*
G04 #@! TO.N,Net-(U4-GPIO24)*
X62600000Y17900000D03*
X59900000Y17400000D03*
G04 #@! TO.N,Net-(U4-GPIO25)*
X59600000Y29700000D03*
X65100000Y32100000D03*
G04 #@! TD*
D25*
G04 #@! TO.N,GND*
X78100000Y35900000D02*
X78100000Y34200000D01*
D26*
G04 #@! TO.N,+3V3*
X76000000Y42800000D02*
X72500000Y39300000D01*
X72500000Y39300000D02*
X72500000Y35100000D01*
X76000000Y43200000D02*
X76000000Y42800000D01*
X76000000Y43200000D02*
X76100000Y43300000D01*
X56000000Y43200000D02*
X76000000Y43200000D01*
D25*
G04 #@! TO.N,GND1*
X77500000Y20680000D02*
X73675000Y20680000D01*
X71800000Y24921900D02*
X71800000Y23769500D01*
X77500000Y29320000D02*
X73675000Y29320000D01*
D27*
G04 #@! TO.N,+5V*
X29400000Y5985825D02*
X29400000Y8100000D01*
X29400000Y8100000D02*
X28500000Y9000000D01*
X28500000Y9000000D02*
X28000000Y9000000D01*
X29114175Y5700000D02*
X29400000Y5985825D01*
D25*
G04 #@! TO.N,Net-(C30-Pad2)*
X28648850Y24301150D02*
X27900914Y23553214D01*
G04 #@! TO.N,VREF_1V25*
X35700000Y19000000D02*
X35700000Y21900000D01*
D26*
G04 #@! TO.N,/Lick Detection Analog Front End/triax_inner_shield*
X8407107Y23707107D02*
X8146446Y23446446D01*
X8146447Y26553553D02*
X8407107Y26292893D01*
X5660000Y26200000D02*
X5700000Y26200000D01*
X4460000Y25000000D02*
X5660000Y26200000D01*
X4460000Y25000000D02*
X5660000Y23800000D01*
X8700000Y25585786D02*
X8700000Y24414214D01*
X6600000Y26700000D02*
X7600000Y26700000D01*
X5660000Y23800000D02*
X5700000Y23800000D01*
X6574214Y23300000D02*
X6600000Y23300000D01*
X7600000Y26700000D02*
X7792893Y26700000D01*
X5700000Y26240000D02*
X5867107Y26407107D01*
X5700000Y23760000D02*
X5867107Y23592893D01*
X6600000Y23300000D02*
X7600000Y23300000D01*
X5700000Y26200000D02*
X5700000Y26240000D01*
X6574214Y26700000D02*
X6600000Y26700000D01*
X7792893Y23300000D02*
X7600000Y23300000D01*
X5700000Y23800000D02*
X5700000Y23760000D01*
X5867100Y23592886D02*
G75*
G03*
X6574214Y23300000I707100J707114D01*
G01*
X8407114Y23707100D02*
G75*
G03*
X8700000Y24414214I-707114J707100D01*
G01*
X6574214Y26699990D02*
G75*
G03*
X5867107Y26407107I-14J-999990D01*
G01*
X8146450Y26553556D02*
G75*
G03*
X7792893Y26700000I-353550J-353556D01*
G01*
X7792893Y23300005D02*
G75*
G03*
X8146446Y23446446I7J499995D01*
G01*
X8699990Y25585786D02*
G75*
G03*
X8407107Y26292893I-999990J14D01*
G01*
D25*
G04 #@! TO.N,/Harp Core RP2040 + Isolated USB/HARP_CLK_SYNC*
X67400000Y34600000D02*
X68700000Y35900000D01*
X45900000Y30300000D02*
X45900000Y30585786D01*
X49914214Y34600000D02*
X67400000Y34600000D01*
X46192893Y31292893D02*
X49207107Y34307107D01*
X46192886Y31292900D02*
G75*
G03*
X45900000Y30585786I707114J-707100D01*
G01*
X49914214Y34599990D02*
G75*
G03*
X49207107Y34307107I-14J-999990D01*
G01*
G04 #@! TO.N,Net-(U4-GPIO24)*
X60814214Y17900000D02*
X62600000Y17900000D01*
X59900000Y17400000D02*
X60107107Y17607107D01*
X60814214Y17899990D02*
G75*
G03*
X60107107Y17607107I-14J-999990D01*
G01*
G04 #@! TO.N,Net-(U4-GPIO25)*
X62000000Y32100000D02*
X59600000Y29700000D01*
X65100000Y32100000D02*
X62000000Y32100000D01*
G04 #@! TD*
G04 #@! TA.AperFunction,Conductor*
G04 #@! TO.N,GND*
G36*
X77001735Y49618402D02*
G01*
X77132594Y49611054D01*
X77289712Y49602230D01*
X77296599Y49601454D01*
X77579234Y49553433D01*
X77586017Y49551885D01*
X77861495Y49472522D01*
X77868055Y49470225D01*
X77984861Y49421843D01*
X78132916Y49360517D01*
X78139173Y49357502D01*
X78390075Y49218833D01*
X78395967Y49215131D01*
X78629764Y49049243D01*
X78635205Y49044905D01*
X78848960Y48853881D01*
X78853880Y48848961D01*
X79044904Y48635206D01*
X79049242Y48629765D01*
X79215130Y48395968D01*
X79218832Y48390076D01*
X79357501Y48139174D01*
X79360521Y48132905D01*
X79470224Y47868056D01*
X79472523Y47861489D01*
X79551884Y47586018D01*
X79553432Y47579235D01*
X79601451Y47296617D01*
X79602230Y47289703D01*
X79618402Y47001737D01*
X79618500Y46998259D01*
X79618500Y37539632D01*
X79598815Y37472593D01*
X79546011Y37426838D01*
X79476853Y37416894D01*
X79413297Y37445919D01*
X79391398Y37470740D01*
X79383122Y37483125D01*
X79299104Y37539264D01*
X79299103Y37539265D01*
X79225021Y37554000D01*
X78227000Y37554000D01*
X78227000Y34246001D01*
X79225015Y34246001D01*
X79299106Y34260738D01*
X79299109Y34260739D01*
X79383123Y34316877D01*
X79391397Y34329258D01*
X79445009Y34374064D01*
X79514333Y34382773D01*
X79577361Y34352619D01*
X79614081Y34293176D01*
X79618500Y34260369D01*
X79618500Y3001742D01*
X79618402Y2998264D01*
X79602230Y2710298D01*
X79601451Y2703384D01*
X79553432Y2420766D01*
X79551884Y2413983D01*
X79472523Y2138512D01*
X79470224Y2131945D01*
X79360521Y1867096D01*
X79357501Y1860827D01*
X79218832Y1609925D01*
X79215130Y1604033D01*
X79049242Y1370236D01*
X79044904Y1364795D01*
X78853880Y1151040D01*
X78848960Y1146120D01*
X78635205Y955096D01*
X78629764Y950758D01*
X78395967Y784870D01*
X78390075Y781168D01*
X78139173Y642499D01*
X78132904Y639479D01*
X77868055Y529776D01*
X77861488Y527477D01*
X77586017Y448116D01*
X77579234Y446568D01*
X77296616Y398549D01*
X77289702Y397770D01*
X77001736Y381598D01*
X76998258Y381500D01*
X34851576Y381500D01*
X34784537Y401185D01*
X34738782Y453989D01*
X34728838Y523147D01*
X34757863Y586703D01*
X34808315Y620156D01*
X34807853Y621273D01*
X35052721Y722701D01*
X35274551Y858639D01*
X35274551Y858640D01*
X35274554Y858641D01*
X35472391Y1027609D01*
X35641359Y1225446D01*
X35670195Y1272501D01*
X35777299Y1447279D01*
X35876862Y1687646D01*
X35892225Y1751636D01*
X35937598Y1940630D01*
X35958011Y2200000D01*
X35937598Y2459370D01*
X35918025Y2540897D01*
X35876862Y2712355D01*
X35777299Y2952722D01*
X35707660Y3066363D01*
X75268687Y3066363D01*
X75278846Y2801301D01*
X75329350Y2540894D01*
X75419009Y2291257D01*
X75419012Y2291250D01*
X75545726Y2058228D01*
X75545729Y2058223D01*
X75706530Y1847272D01*
X75706534Y1847267D01*
X75897657Y1663330D01*
X76114617Y1510723D01*
X76352331Y1393024D01*
X76605225Y1312991D01*
X76867372Y1272500D01*
X76867376Y1272500D01*
X77066219Y1272500D01*
X77066220Y1272500D01*
X77264478Y1287721D01*
X77522756Y1348161D01*
X77577528Y1370236D01*
X77768774Y1447314D01*
X77768779Y1447317D01*
X77768782Y1447318D01*
X77996788Y1582869D01*
X78201430Y1751636D01*
X78377912Y1949664D01*
X78448215Y2058224D01*
X78522094Y2172306D01*
X78522094Y2172308D01*
X78522096Y2172310D01*
X78630604Y2414357D01*
X78700892Y2670131D01*
X78731313Y2933637D01*
X78721153Y3198699D01*
X78670650Y3459103D01*
X78641107Y3541359D01*
X78580990Y3708744D01*
X78580987Y3708751D01*
X78454273Y3941773D01*
X78454270Y3941778D01*
X78293469Y4152729D01*
X78293466Y4152733D01*
X78102343Y4336670D01*
X78102339Y4336673D01*
X77885382Y4489278D01*
X77647670Y4606976D01*
X77647667Y4606977D01*
X77394777Y4687009D01*
X77289916Y4703206D01*
X77132628Y4727500D01*
X76933780Y4727500D01*
X76735522Y4712279D01*
X76735518Y4712279D01*
X76477246Y4651840D01*
X76477236Y4651837D01*
X76231225Y4552687D01*
X76231216Y4552682D01*
X76003213Y4417132D01*
X75798571Y4248365D01*
X75622088Y4050337D01*
X75622081Y4050328D01*
X75477905Y3827695D01*
X75477904Y3827691D01*
X75369395Y3585643D01*
X75299108Y3329872D01*
X75268687Y3066363D01*
X35707660Y3066363D01*
X35641361Y3174552D01*
X35641357Y3174557D01*
X35580547Y3245756D01*
X35472391Y3372391D01*
X35364233Y3464766D01*
X35274556Y3541358D01*
X35274551Y3541362D01*
X35052721Y3677300D01*
X34812354Y3776863D01*
X34559373Y3837598D01*
X34300000Y3858011D01*
X34040626Y3837598D01*
X33787645Y3776863D01*
X33547278Y3677300D01*
X33325448Y3541362D01*
X33325443Y3541358D01*
X33127609Y3372391D01*
X32958642Y3174557D01*
X32958638Y3174552D01*
X32822700Y2952722D01*
X32723137Y2712355D01*
X32662402Y2459374D01*
X32641989Y2200000D01*
X32662402Y1940627D01*
X32723137Y1687646D01*
X32822700Y1447279D01*
X32958638Y1225449D01*
X32958642Y1225444D01*
X33018145Y1155775D01*
X33127609Y1027609D01*
X33254244Y919453D01*
X33325443Y858643D01*
X33325448Y858639D01*
X33547278Y722701D01*
X33792147Y621273D01*
X33791650Y620076D01*
X33844419Y583992D01*
X33871616Y519633D01*
X33859701Y450787D01*
X33812456Y399312D01*
X33748424Y381500D01*
X3001742Y381500D01*
X2998265Y381598D01*
X2710297Y397770D01*
X2703385Y398549D01*
X2663072Y405399D01*
X2420765Y446568D01*
X2413982Y448116D01*
X2138511Y527477D01*
X2131944Y529776D01*
X1906546Y623138D01*
X1867091Y639481D01*
X1860826Y642499D01*
X1609924Y781168D01*
X1604032Y784870D01*
X1370235Y950758D01*
X1364794Y955096D01*
X1151039Y1146120D01*
X1146119Y1151040D01*
X955095Y1364795D01*
X950757Y1370236D01*
X784869Y1604033D01*
X781167Y1609925D01*
X642498Y1860827D01*
X639483Y1867084D01*
X560309Y2058228D01*
X529775Y2131945D01*
X527476Y2138512D01*
X517740Y2172306D01*
X448115Y2413983D01*
X446567Y2420766D01*
X440007Y2459374D01*
X398546Y2703401D01*
X397770Y2710288D01*
X385227Y2933638D01*
X381598Y2998265D01*
X381500Y3001742D01*
X381500Y3066363D01*
X1268687Y3066363D01*
X1278846Y2801301D01*
X1329350Y2540894D01*
X1419009Y2291257D01*
X1419012Y2291250D01*
X1545726Y2058228D01*
X1545729Y2058223D01*
X1706530Y1847272D01*
X1706534Y1847267D01*
X1897657Y1663330D01*
X2114617Y1510723D01*
X2352331Y1393024D01*
X2605225Y1312991D01*
X2867372Y1272500D01*
X2867376Y1272500D01*
X3066219Y1272500D01*
X3066220Y1272500D01*
X3264478Y1287721D01*
X3522756Y1348161D01*
X3577528Y1370236D01*
X3768774Y1447314D01*
X3768779Y1447317D01*
X3768782Y1447318D01*
X3996788Y1582869D01*
X4201430Y1751636D01*
X4377912Y1949664D01*
X4448215Y2058224D01*
X4522094Y2172306D01*
X4522094Y2172308D01*
X4522096Y2172310D01*
X4630604Y2414357D01*
X4700892Y2670131D01*
X4731313Y2933637D01*
X4721153Y3198699D01*
X4670650Y3459103D01*
X4641107Y3541359D01*
X4580990Y3708744D01*
X4580987Y3708751D01*
X4454273Y3941773D01*
X4454270Y3941778D01*
X4293469Y4152729D01*
X4293466Y4152733D01*
X4102343Y4336670D01*
X4102339Y4336673D01*
X3885382Y4489278D01*
X3647670Y4606976D01*
X3647667Y4606977D01*
X3394777Y4687009D01*
X3289916Y4703206D01*
X3132628Y4727500D01*
X2933780Y4727500D01*
X2735522Y4712279D01*
X2735518Y4712279D01*
X2477246Y4651840D01*
X2477236Y4651837D01*
X2231225Y4552687D01*
X2231216Y4552682D01*
X2003213Y4417132D01*
X1798571Y4248365D01*
X1622088Y4050337D01*
X1622081Y4050328D01*
X1477905Y3827695D01*
X1477904Y3827691D01*
X1369395Y3585643D01*
X1299108Y3329872D01*
X1268687Y3066363D01*
X381500Y3066363D01*
X381500Y5103773D01*
X25909970Y5103773D01*
X25928873Y4984419D01*
X25983736Y4876742D01*
X26069191Y4791287D01*
X26176868Y4736424D01*
X26296223Y4717520D01*
X26296225Y4717520D01*
X26296227Y4717520D01*
X26415581Y4736424D01*
X26415582Y4736425D01*
X26415584Y4736425D01*
X26523260Y4791288D01*
X26608712Y4876740D01*
X26663575Y4984416D01*
X26663575Y4984418D01*
X26663576Y4984419D01*
X26682480Y5103773D01*
X26682480Y5103778D01*
X26663576Y5223132D01*
X26608713Y5330809D01*
X26523258Y5416264D01*
X26415581Y5471127D01*
X26296227Y5490030D01*
X26296223Y5490030D01*
X26176868Y5471127D01*
X26069191Y5416264D01*
X25983736Y5330809D01*
X25928873Y5223132D01*
X25909970Y5103778D01*
X25909970Y5103773D01*
X381500Y5103773D01*
X381500Y8250000D01*
X3465963Y8250000D01*
X3486081Y7994377D01*
X3545938Y7745053D01*
X3644061Y7508163D01*
X3778032Y7289542D01*
X3778033Y7289540D01*
X3861826Y7191432D01*
X4362193Y7691800D01*
X4408805Y7627645D01*
X4539536Y7509934D01*
X4041430Y7011828D01*
X4139539Y6928034D01*
X4139541Y6928033D01*
X4358162Y6794062D01*
X4595052Y6695939D01*
X4844376Y6636082D01*
X5099999Y6615964D01*
X5355623Y6636082D01*
X5604947Y6695939D01*
X5841837Y6794062D01*
X6060458Y6928033D01*
X6060459Y6928034D01*
X6158568Y7011828D01*
X5660462Y7509933D01*
X5791195Y7627645D01*
X5837805Y7691799D01*
X6338172Y7191432D01*
X6421966Y7289541D01*
X6421967Y7289542D01*
X6555938Y7508163D01*
X6654061Y7745053D01*
X6713918Y7994377D01*
X6734036Y8250000D01*
X8465963Y8250000D01*
X8486081Y7994377D01*
X8545938Y7745053D01*
X8644061Y7508163D01*
X8778032Y7289542D01*
X8778033Y7289540D01*
X8861826Y7191432D01*
X9362193Y7691800D01*
X9408805Y7627645D01*
X9539536Y7509934D01*
X9041430Y7011828D01*
X9139539Y6928034D01*
X9139541Y6928033D01*
X9358162Y6794062D01*
X9595052Y6695939D01*
X9844376Y6636082D01*
X10100000Y6615964D01*
X10355623Y6636082D01*
X10604947Y6695939D01*
X10841837Y6794062D01*
X11060458Y6928033D01*
X11060459Y6928034D01*
X11158568Y7011828D01*
X10660462Y7509933D01*
X10791195Y7627645D01*
X10837805Y7691799D01*
X11338172Y7191432D01*
X11421966Y7289541D01*
X11421967Y7289542D01*
X11555938Y7508163D01*
X11563741Y7527000D01*
X26071000Y7527000D01*
X26564869Y7527000D01*
X26515514Y7477646D01*
X26494709Y7400000D01*
X26515514Y7322355D01*
X26564869Y7273000D01*
X26071001Y7273000D01*
X26071001Y6874986D01*
X26085737Y6800894D01*
X26085738Y6800891D01*
X26141876Y6716877D01*
X26225895Y6660737D01*
X26225896Y6660736D01*
X26299980Y6646001D01*
X27522999Y6646001D01*
X27523000Y6646002D01*
X27523000Y7273000D01*
X26735131Y7273000D01*
X26784486Y7322354D01*
X26805291Y7400000D01*
X27494709Y7400000D01*
X27515514Y7322355D01*
X27572355Y7265514D01*
X27630254Y7250000D01*
X27669746Y7250000D01*
X27727645Y7265514D01*
X27776999Y7314869D01*
X27777000Y6646001D01*
X28998100Y6646001D01*
X29065139Y6626316D01*
X29110894Y6573512D01*
X29122100Y6522001D01*
X29122099Y6193417D01*
X29102414Y6126377D01*
X29049610Y6080622D01*
X29017501Y6070944D01*
X28994817Y6067351D01*
X28887141Y6012489D01*
X28801686Y5927034D01*
X28746823Y5819357D01*
X28727920Y5700003D01*
X28727920Y5699998D01*
X28746823Y5580644D01*
X28801686Y5472967D01*
X28887141Y5387512D01*
X28994818Y5332649D01*
X29114173Y5313745D01*
X29114175Y5313745D01*
X29114177Y5313745D01*
X29233531Y5332649D01*
X29233532Y5332650D01*
X29233534Y5332650D01*
X29341210Y5387513D01*
X29426662Y5472965D01*
X29481525Y5580641D01*
X29492855Y5652182D01*
X29515523Y5699998D01*
X44613745Y5699998D01*
X44632648Y5580644D01*
X44687511Y5472967D01*
X44772966Y5387512D01*
X44880643Y5332649D01*
X44999998Y5313745D01*
X45000000Y5313745D01*
X45000002Y5313745D01*
X45119356Y5332649D01*
X45119357Y5332650D01*
X45119359Y5332650D01*
X45227035Y5387513D01*
X45312487Y5472965D01*
X45367350Y5580641D01*
X45367350Y5580643D01*
X45367351Y5580644D01*
X45386255Y5699998D01*
X45386255Y5700003D01*
X45367351Y5819357D01*
X45312488Y5927034D01*
X45227033Y6012489D01*
X45119356Y6067352D01*
X45000002Y6086255D01*
X44999998Y6086255D01*
X44880643Y6067352D01*
X44772966Y6012489D01*
X44687511Y5927034D01*
X44632648Y5819357D01*
X44613745Y5700003D01*
X44613745Y5699998D01*
X29515523Y5699998D01*
X29522783Y5715313D01*
X29527647Y5720463D01*
X29555180Y5747996D01*
X29561668Y5753642D01*
X29570369Y5760213D01*
X29570373Y5760214D01*
X29600116Y5792842D01*
X29602023Y5794840D01*
X29614715Y5807530D01*
X29615927Y5809301D01*
X29621271Y5816048D01*
X29624288Y5819357D01*
X29640368Y5836995D01*
X29642290Y5841958D01*
X29655616Y5867240D01*
X29658625Y5871631D01*
X29665118Y5899242D01*
X29667654Y5907430D01*
X29677900Y5933876D01*
X29677900Y5939200D01*
X29681194Y5967591D01*
X29682412Y5972769D01*
X29678494Y6000851D01*
X29677900Y6009424D01*
X29677900Y6999998D01*
X31613745Y6999998D01*
X31632648Y6880644D01*
X31687511Y6772967D01*
X31772966Y6687512D01*
X31880643Y6632649D01*
X31999998Y6613745D01*
X32000000Y6613745D01*
X32000002Y6613745D01*
X32119356Y6632649D01*
X32119357Y6632650D01*
X32119359Y6632650D01*
X32227035Y6687513D01*
X32312487Y6772965D01*
X32367350Y6880641D01*
X32367350Y6880643D01*
X32367351Y6880644D01*
X32386255Y6999998D01*
X32386255Y7000003D01*
X32367351Y7119357D01*
X32312488Y7227034D01*
X32227033Y7312489D01*
X32119356Y7367352D01*
X32000002Y7386255D01*
X31999998Y7386255D01*
X31880643Y7367352D01*
X31772966Y7312489D01*
X31687511Y7227034D01*
X31632648Y7119357D01*
X31613745Y7000003D01*
X31613745Y6999998D01*
X29677900Y6999998D01*
X29677900Y8041558D01*
X29678495Y8050134D01*
X29680001Y8060936D01*
X29680003Y8060941D01*
X29677966Y8105000D01*
X29677900Y8107863D01*
X29677900Y8125751D01*
X29677900Y8125753D01*
X29677503Y8127872D01*
X29676513Y8136410D01*
X29675756Y8152779D01*
X29675204Y8164727D01*
X29673052Y8169599D01*
X29664600Y8196896D01*
X29663623Y8202128D01*
X29648688Y8226248D01*
X29644694Y8233824D01*
X29633238Y8259772D01*
X29629474Y8263536D01*
X29611728Y8285940D01*
X29608928Y8290463D01*
X29586298Y8307552D01*
X29579816Y8313194D01*
X28737831Y9155179D01*
X28732187Y9161665D01*
X28725610Y9170374D01*
X28693018Y9200086D01*
X28690946Y9202064D01*
X28678293Y9214717D01*
X28676512Y9215937D01*
X28669777Y9221273D01*
X28648830Y9240368D01*
X28643862Y9242293D01*
X28618588Y9255615D01*
X28614194Y9258625D01*
X28614193Y9258626D01*
X28614192Y9258626D01*
X28586591Y9265119D01*
X28578383Y9267661D01*
X28551950Y9277900D01*
X28551949Y9277900D01*
X28546626Y9277900D01*
X28518236Y9281194D01*
X28513057Y9282412D01*
X28484975Y9278495D01*
X28476402Y9277900D01*
X28312984Y9277900D01*
X28245945Y9297585D01*
X28231271Y9309410D01*
X28227034Y9312488D01*
X28119356Y9367352D01*
X28000002Y9386255D01*
X27999998Y9386255D01*
X27880643Y9367352D01*
X27772966Y9312489D01*
X27687511Y9227034D01*
X27632648Y9119357D01*
X27613744Y9000003D01*
X27613744Y8999998D01*
X27632648Y8880644D01*
X27687511Y8772967D01*
X27772966Y8687512D01*
X27880643Y8632649D01*
X27999998Y8613745D01*
X28000000Y8613745D01*
X28000002Y8613745D01*
X28119356Y8632649D01*
X28119357Y8632650D01*
X28119359Y8632650D01*
X28227035Y8687513D01*
X28227037Y8687516D01*
X28234926Y8693246D01*
X28236075Y8691664D01*
X28286626Y8719266D01*
X28312984Y8722100D01*
X28333529Y8722100D01*
X28400568Y8702415D01*
X28421210Y8685781D01*
X28741310Y8365681D01*
X28774795Y8304358D01*
X28769811Y8234666D01*
X28727939Y8178733D01*
X28662475Y8154316D01*
X28653629Y8154000D01*
X27777000Y8154000D01*
X27776999Y7485132D01*
X27727645Y7534486D01*
X27669746Y7550000D01*
X27630254Y7550000D01*
X27572355Y7534486D01*
X27515514Y7477646D01*
X27494709Y7400000D01*
X26805291Y7400000D01*
X26784486Y7477645D01*
X26735131Y7527000D01*
X27523000Y7527000D01*
X27523000Y8154000D01*
X26299985Y8154000D01*
X26225893Y8139263D01*
X26225890Y8139262D01*
X26141876Y8083124D01*
X26085736Y7999105D01*
X26085735Y7999104D01*
X26071000Y7925022D01*
X26071000Y7527000D01*
X11563741Y7527000D01*
X11654061Y7745053D01*
X11713918Y7994377D01*
X11734036Y8250000D01*
X11713918Y8505624D01*
X11654061Y8754948D01*
X11555938Y8991838D01*
X11421967Y9210459D01*
X11421966Y9210461D01*
X11338172Y9308570D01*
X10837804Y8808202D01*
X10791195Y8872355D01*
X10660462Y8990068D01*
X11070392Y9399998D01*
X25013744Y9399998D01*
X25032648Y9280644D01*
X25087511Y9172967D01*
X25172966Y9087512D01*
X25280643Y9032649D01*
X25399998Y9013745D01*
X25400000Y9013745D01*
X25400002Y9013745D01*
X25519356Y9032649D01*
X25519357Y9032650D01*
X25519359Y9032650D01*
X25627035Y9087513D01*
X25712487Y9172965D01*
X25767350Y9280641D01*
X25767350Y9280643D01*
X25767351Y9280644D01*
X25786255Y9399998D01*
X25786255Y9400003D01*
X25767351Y9519357D01*
X25712488Y9627034D01*
X25627033Y9712489D01*
X25519356Y9767352D01*
X25400002Y9786255D01*
X25399998Y9786255D01*
X25280643Y9767352D01*
X25172966Y9712489D01*
X25087511Y9627034D01*
X25032648Y9519357D01*
X25013744Y9400003D01*
X25013744Y9399998D01*
X11070392Y9399998D01*
X11158568Y9488174D01*
X11060460Y9571967D01*
X11060458Y9571968D01*
X10841837Y9705939D01*
X10604947Y9804062D01*
X10355623Y9863919D01*
X10100000Y9884037D01*
X9844376Y9863919D01*
X9595052Y9804062D01*
X9358162Y9705939D01*
X9139539Y9571966D01*
X9139534Y9571963D01*
X9041430Y9488174D01*
X9539537Y8990068D01*
X9408805Y8872355D01*
X9362194Y8808202D01*
X8861826Y9308570D01*
X8778037Y9210466D01*
X8778034Y9210461D01*
X8644061Y8991838D01*
X8545938Y8754948D01*
X8486081Y8505624D01*
X8465963Y8250000D01*
X6734036Y8250000D01*
X6713918Y8505624D01*
X6654061Y8754948D01*
X6555938Y8991838D01*
X6421967Y9210459D01*
X6421966Y9210461D01*
X6338172Y9308570D01*
X5837804Y8808203D01*
X5791195Y8872355D01*
X5660461Y8990068D01*
X6158568Y9488174D01*
X6060460Y9571967D01*
X6060458Y9571968D01*
X5841837Y9705939D01*
X5604947Y9804062D01*
X5355623Y9863919D01*
X5100000Y9884037D01*
X4844376Y9863919D01*
X4595052Y9804062D01*
X4358162Y9705939D01*
X4139539Y9571966D01*
X4139534Y9571963D01*
X4041430Y9488174D01*
X4539536Y8990067D01*
X4408805Y8872355D01*
X4362194Y8808202D01*
X3861826Y9308570D01*
X3778037Y9210466D01*
X3778034Y9210461D01*
X3644061Y8991838D01*
X3545938Y8754948D01*
X3486081Y8505624D01*
X3465963Y8250000D01*
X381500Y8250000D01*
X381500Y9934946D01*
X64347100Y9934946D01*
X64355972Y9890342D01*
X64355973Y9890339D01*
X64373627Y9863919D01*
X64389766Y9839766D01*
X64440342Y9805972D01*
X64440343Y9805972D01*
X64440345Y9805971D01*
X64462642Y9801536D01*
X64484943Y9797100D01*
X67115056Y9797101D01*
X67159658Y9805972D01*
X67210234Y9839766D01*
X67244028Y9890342D01*
X67252900Y9934943D01*
X67252900Y11249995D01*
X70342121Y11249995D01*
X70362004Y11010045D01*
X70362004Y11010042D01*
X70362005Y11010041D01*
X70421113Y10776627D01*
X70517834Y10556126D01*
X70649529Y10354552D01*
X70812605Y10177404D01*
X70812608Y10177402D01*
X70812611Y10177399D01*
X71002607Y10029519D01*
X71002613Y10029515D01*
X71002616Y10029513D01*
X71214377Y9914913D01*
X71442112Y9836732D01*
X71679609Y9797100D01*
X71679610Y9797100D01*
X71920390Y9797100D01*
X71920391Y9797100D01*
X72157888Y9836732D01*
X72385623Y9914913D01*
X72597384Y10029513D01*
X72787395Y10177404D01*
X72950471Y10354552D01*
X73082166Y10556126D01*
X73178887Y10776627D01*
X73237995Y11010041D01*
X73257879Y11250000D01*
X73237995Y11489959D01*
X73178887Y11723373D01*
X73082166Y11943874D01*
X72950471Y12145448D01*
X72787395Y12322596D01*
X72787390Y12322600D01*
X72787388Y12322602D01*
X72597392Y12470482D01*
X72597386Y12470486D01*
X72385624Y12585087D01*
X72385619Y12585089D01*
X72157890Y12663268D01*
X71973545Y12694030D01*
X71920391Y12702900D01*
X71679609Y12702900D01*
X71626455Y12694030D01*
X71442109Y12663268D01*
X71214380Y12585089D01*
X71214375Y12585087D01*
X71002613Y12470486D01*
X71002607Y12470482D01*
X70812611Y12322602D01*
X70812608Y12322599D01*
X70812605Y12322597D01*
X70812605Y12322596D01*
X70801438Y12310465D01*
X70649529Y12145448D01*
X70517832Y11943871D01*
X70421113Y11723374D01*
X70362004Y11489956D01*
X70342121Y11250006D01*
X70342121Y11249995D01*
X67252900Y11249995D01*
X67252899Y12565056D01*
X67244028Y12609658D01*
X67244026Y12609660D01*
X67244026Y12609662D01*
X67210234Y12660234D01*
X67159659Y12694027D01*
X67159658Y12694028D01*
X67159657Y12694029D01*
X67159656Y12694029D01*
X67159654Y12694030D01*
X67115059Y12702900D01*
X64484945Y12702900D01*
X64440341Y12694028D01*
X64440338Y12694027D01*
X64389766Y12660235D01*
X64355971Y12609657D01*
X64355970Y12609655D01*
X64347100Y12565060D01*
X64347100Y9934946D01*
X381500Y9934946D01*
X381500Y11399998D01*
X61413745Y11399998D01*
X61432648Y11280644D01*
X61487511Y11172967D01*
X61572966Y11087512D01*
X61680643Y11032649D01*
X61799998Y11013745D01*
X61800000Y11013745D01*
X61800002Y11013745D01*
X61919356Y11032649D01*
X61919357Y11032650D01*
X61919359Y11032650D01*
X62027035Y11087513D01*
X62112487Y11172965D01*
X62167350Y11280641D01*
X62167350Y11280643D01*
X62167351Y11280644D01*
X62186255Y11399998D01*
X62186255Y11400003D01*
X62167351Y11519357D01*
X62112488Y11627034D01*
X62027033Y11712489D01*
X61919356Y11767352D01*
X61800002Y11786255D01*
X61799998Y11786255D01*
X61680643Y11767352D01*
X61572966Y11712489D01*
X61487511Y11627034D01*
X61432648Y11519357D01*
X61413745Y11400003D01*
X61413745Y11399998D01*
X381500Y11399998D01*
X381500Y11937498D01*
X51913745Y11937498D01*
X51932648Y11818144D01*
X51987511Y11710467D01*
X52072966Y11625012D01*
X52180643Y11570149D01*
X52299998Y11551245D01*
X52300000Y11551245D01*
X52300002Y11551245D01*
X52419356Y11570149D01*
X52419357Y11570150D01*
X52419359Y11570150D01*
X52527035Y11625013D01*
X52612487Y11710465D01*
X52667350Y11818141D01*
X52667350Y11818143D01*
X52667351Y11818144D01*
X52686255Y11937498D01*
X52686255Y11937503D01*
X52667351Y12056857D01*
X52612488Y12164534D01*
X52527033Y12249989D01*
X52419356Y12304852D01*
X52300002Y12323755D01*
X52299998Y12323755D01*
X52180643Y12304852D01*
X52072966Y12249989D01*
X51987511Y12164534D01*
X51932648Y12056857D01*
X51913745Y11937503D01*
X51913745Y11937498D01*
X381500Y11937498D01*
X381500Y12537498D01*
X54488745Y12537498D01*
X54507648Y12418144D01*
X54562511Y12310467D01*
X54647966Y12225012D01*
X54755643Y12170149D01*
X54874998Y12151245D01*
X54875000Y12151245D01*
X54875002Y12151245D01*
X54994356Y12170149D01*
X54994357Y12170150D01*
X54994359Y12170150D01*
X55102035Y12225013D01*
X55112318Y12235298D01*
X55173642Y12268782D01*
X55243334Y12263798D01*
X55287681Y12235297D01*
X55297966Y12225012D01*
X55405643Y12170149D01*
X55524998Y12151245D01*
X55525000Y12151245D01*
X55525002Y12151245D01*
X55644356Y12170149D01*
X55644357Y12170150D01*
X55644359Y12170150D01*
X55752035Y12225013D01*
X55837487Y12310465D01*
X55892350Y12418141D01*
X55892350Y12418143D01*
X55892351Y12418144D01*
X55911255Y12537498D01*
X57088745Y12537498D01*
X57107648Y12418144D01*
X57162511Y12310467D01*
X57247966Y12225012D01*
X57355643Y12170149D01*
X57474998Y12151245D01*
X57475000Y12151245D01*
X57475002Y12151245D01*
X57594356Y12170149D01*
X57594357Y12170150D01*
X57594359Y12170150D01*
X57702035Y12225013D01*
X57712318Y12235298D01*
X57773642Y12268782D01*
X57843334Y12263798D01*
X57887681Y12235297D01*
X57897966Y12225012D01*
X58005643Y12170149D01*
X58124998Y12151245D01*
X58125000Y12151245D01*
X58125002Y12151245D01*
X58244356Y12170149D01*
X58244357Y12170150D01*
X58244359Y12170150D01*
X58352035Y12225013D01*
X58437487Y12310465D01*
X58492350Y12418141D01*
X58492350Y12418143D01*
X58492351Y12418144D01*
X58511255Y12537498D01*
X58511255Y12537503D01*
X58492351Y12656857D01*
X58437488Y12764534D01*
X58352033Y12849989D01*
X58244356Y12904852D01*
X58125002Y12923755D01*
X58124998Y12923755D01*
X58005643Y12904852D01*
X57897967Y12849990D01*
X57887679Y12839701D01*
X57826355Y12806218D01*
X57756663Y12811204D01*
X57712321Y12839701D01*
X57702032Y12849990D01*
X57594356Y12904852D01*
X57475002Y12923755D01*
X57474998Y12923755D01*
X57355643Y12904852D01*
X57247966Y12849989D01*
X57162511Y12764534D01*
X57107648Y12656857D01*
X57088745Y12537503D01*
X57088745Y12537498D01*
X55911255Y12537498D01*
X55911255Y12537503D01*
X55892351Y12656857D01*
X55837488Y12764534D01*
X55752033Y12849989D01*
X55644356Y12904852D01*
X55525002Y12923755D01*
X55524998Y12923755D01*
X55405643Y12904852D01*
X55297965Y12849988D01*
X55297964Y12849988D01*
X55287675Y12839699D01*
X55226350Y12806217D01*
X55156659Y12811206D01*
X55112318Y12839704D01*
X55102033Y12849989D01*
X54994356Y12904852D01*
X54875002Y12923755D01*
X54874998Y12923755D01*
X54755643Y12904852D01*
X54647966Y12849989D01*
X54562511Y12764534D01*
X54507648Y12656857D01*
X54488745Y12537503D01*
X54488745Y12537498D01*
X381500Y12537498D01*
X381500Y15750000D01*
X3465963Y15750000D01*
X3486081Y15494377D01*
X3545938Y15245053D01*
X3644061Y15008163D01*
X3778032Y14789542D01*
X3778033Y14789540D01*
X3861826Y14691432D01*
X4362193Y15191800D01*
X4408805Y15127645D01*
X4539536Y15009934D01*
X4041430Y14511828D01*
X4139539Y14428034D01*
X4139541Y14428033D01*
X4358162Y14294062D01*
X4595052Y14195939D01*
X4844376Y14136082D01*
X5100000Y14115964D01*
X5355623Y14136082D01*
X5604947Y14195939D01*
X5841837Y14294062D01*
X6060458Y14428033D01*
X6060459Y14428034D01*
X6158568Y14511828D01*
X5660462Y15009933D01*
X5791195Y15127645D01*
X5837805Y15191799D01*
X6338172Y14691432D01*
X6421966Y14789541D01*
X6421967Y14789542D01*
X6555938Y15008163D01*
X6654061Y15245053D01*
X6713918Y15494377D01*
X6734036Y15750000D01*
X8465963Y15750000D01*
X8486081Y15494377D01*
X8545938Y15245053D01*
X8644061Y15008163D01*
X8778032Y14789542D01*
X8778033Y14789540D01*
X8861826Y14691432D01*
X9362193Y15191800D01*
X9408805Y15127645D01*
X9539536Y15009934D01*
X9041430Y14511828D01*
X9139539Y14428034D01*
X9139541Y14428033D01*
X9358162Y14294062D01*
X9595052Y14195939D01*
X9844376Y14136082D01*
X10100000Y14115964D01*
X10355623Y14136082D01*
X10604947Y14195939D01*
X10841837Y14294062D01*
X11060458Y14428033D01*
X11060459Y14428034D01*
X11158568Y14511828D01*
X10660462Y15009933D01*
X10791195Y15127645D01*
X10837805Y15191799D01*
X11338172Y14691432D01*
X11421966Y14789541D01*
X11421967Y14789542D01*
X11428374Y14799998D01*
X42013745Y14799998D01*
X42032648Y14680644D01*
X42087511Y14572967D01*
X42172966Y14487512D01*
X42280643Y14432649D01*
X42399998Y14413745D01*
X42400000Y14413745D01*
X42400002Y14413745D01*
X42519356Y14432649D01*
X42519357Y14432650D01*
X42519359Y14432650D01*
X42627035Y14487513D01*
X42712487Y14572965D01*
X42767350Y14680641D01*
X42767350Y14680643D01*
X42767351Y14680644D01*
X42786255Y14799998D01*
X42786255Y14800003D01*
X42767351Y14919357D01*
X42712488Y15027034D01*
X42627033Y15112489D01*
X42519356Y15167352D01*
X42400002Y15186255D01*
X42399998Y15186255D01*
X42280643Y15167352D01*
X42172966Y15112489D01*
X42087511Y15027034D01*
X42032648Y14919357D01*
X42013745Y14800003D01*
X42013745Y14799998D01*
X11428374Y14799998D01*
X11555938Y15008163D01*
X11654061Y15245053D01*
X11713918Y15494377D01*
X11734036Y15750000D01*
X11718296Y15949995D01*
X67342121Y15949995D01*
X67362004Y15710045D01*
X67421113Y15476627D01*
X67505189Y15284952D01*
X67517834Y15256126D01*
X67649529Y15054552D01*
X67812605Y14877404D01*
X67812608Y14877402D01*
X67812611Y14877399D01*
X68002607Y14729519D01*
X68002613Y14729515D01*
X68002616Y14729513D01*
X68214377Y14614913D01*
X68442112Y14536732D01*
X68679609Y14497100D01*
X68679610Y14497100D01*
X68920390Y14497100D01*
X68920391Y14497100D01*
X69157888Y14536732D01*
X69385623Y14614913D01*
X69597384Y14729513D01*
X69787395Y14877404D01*
X69950471Y15054552D01*
X70082166Y15256126D01*
X70178887Y15476627D01*
X70237995Y15710041D01*
X70257879Y15950000D01*
X70250635Y16037415D01*
X70237995Y16189956D01*
X70237995Y16189959D01*
X70178887Y16423373D01*
X70082166Y16643874D01*
X69950471Y16845448D01*
X69787395Y17022596D01*
X69787390Y17022600D01*
X69787388Y17022602D01*
X69597392Y17170482D01*
X69597386Y17170486D01*
X69385624Y17285087D01*
X69385619Y17285089D01*
X69157890Y17363268D01*
X68934563Y17400535D01*
X68920391Y17402900D01*
X68679609Y17402900D01*
X68665437Y17400535D01*
X68442109Y17363268D01*
X68214380Y17285089D01*
X68214375Y17285087D01*
X68002613Y17170486D01*
X68002607Y17170482D01*
X67812611Y17022602D01*
X67812608Y17022599D01*
X67812605Y17022597D01*
X67812605Y17022596D01*
X67717569Y16919359D01*
X67649529Y16845448D01*
X67517832Y16643871D01*
X67421113Y16423374D01*
X67362004Y16189956D01*
X67342121Y15950006D01*
X67342121Y15949995D01*
X11718296Y15949995D01*
X11713918Y16005624D01*
X11654061Y16254948D01*
X11555938Y16491838D01*
X11421967Y16710459D01*
X11421966Y16710461D01*
X11345493Y16799998D01*
X41113745Y16799998D01*
X41132648Y16680644D01*
X41187511Y16572967D01*
X41272966Y16487512D01*
X41380643Y16432649D01*
X41499998Y16413745D01*
X41500000Y16413745D01*
X41500002Y16413745D01*
X41619356Y16432649D01*
X41619357Y16432650D01*
X41619359Y16432650D01*
X41727035Y16487513D01*
X41812487Y16572965D01*
X41867350Y16680641D01*
X41867350Y16680643D01*
X41867351Y16680644D01*
X41886255Y16799998D01*
X41886255Y16800003D01*
X41867351Y16919357D01*
X41812488Y17027034D01*
X41727033Y17112489D01*
X41619356Y17167352D01*
X41500002Y17186255D01*
X41499998Y17186255D01*
X41380643Y17167352D01*
X41272966Y17112489D01*
X41187511Y17027034D01*
X41132648Y16919357D01*
X41113745Y16800003D01*
X41113745Y16799998D01*
X11345493Y16799998D01*
X11338172Y16808570D01*
X10837804Y16308202D01*
X10791195Y16372355D01*
X10660462Y16490068D01*
X11158568Y16988174D01*
X11060460Y17071967D01*
X11060458Y17071968D01*
X10841837Y17205939D01*
X10604947Y17304062D01*
X10355623Y17363919D01*
X10100000Y17384037D01*
X9844376Y17363919D01*
X9595052Y17304062D01*
X9358162Y17205939D01*
X9139539Y17071966D01*
X9139534Y17071963D01*
X9041430Y16988174D01*
X9539537Y16490068D01*
X9408805Y16372355D01*
X9362194Y16308202D01*
X8861826Y16808570D01*
X8778037Y16710466D01*
X8778034Y16710461D01*
X8644061Y16491838D01*
X8545938Y16254948D01*
X8486081Y16005624D01*
X8465963Y15750000D01*
X6734036Y15750000D01*
X6713918Y16005624D01*
X6654061Y16254948D01*
X6555938Y16491838D01*
X6421967Y16710459D01*
X6421966Y16710461D01*
X6338172Y16808570D01*
X5837804Y16308203D01*
X5791195Y16372355D01*
X5660462Y16490068D01*
X6158568Y16988174D01*
X6060460Y17071967D01*
X6060458Y17071968D01*
X5841837Y17205939D01*
X5604947Y17304062D01*
X5355623Y17363919D01*
X5099999Y17384037D01*
X4844376Y17363919D01*
X4595052Y17304062D01*
X4358162Y17205939D01*
X4139539Y17071966D01*
X4139534Y17071963D01*
X4041430Y16988174D01*
X4539537Y16490068D01*
X4408805Y16372355D01*
X4362194Y16308202D01*
X3861826Y16808570D01*
X3778037Y16710466D01*
X3778034Y16710461D01*
X3644061Y16491838D01*
X3545938Y16254948D01*
X3486081Y16005624D01*
X3465963Y15750000D01*
X381500Y15750000D01*
X381500Y17399998D01*
X59513745Y17399998D01*
X59532648Y17280644D01*
X59587511Y17172967D01*
X59672966Y17087512D01*
X59780643Y17032649D01*
X59899998Y17013745D01*
X59900000Y17013745D01*
X59900002Y17013745D01*
X60019356Y17032649D01*
X60019357Y17032650D01*
X60019359Y17032650D01*
X60127035Y17087513D01*
X60212487Y17172965D01*
X60267350Y17280641D01*
X60267350Y17280643D01*
X60267351Y17280644D01*
X60286255Y17399998D01*
X60286255Y17400535D01*
X60286439Y17401164D01*
X60287782Y17409639D01*
X60288877Y17409466D01*
X60305940Y17467574D01*
X60331592Y17496389D01*
X60376483Y17533229D01*
X60396686Y17546730D01*
X60508439Y17606461D01*
X60530880Y17615756D01*
X60652140Y17652539D01*
X60675963Y17657277D01*
X60811276Y17670602D01*
X60817356Y17670900D01*
X60854607Y17670900D01*
X62238216Y17670900D01*
X62305255Y17651215D01*
X62325897Y17634581D01*
X62372966Y17587512D01*
X62480643Y17532649D01*
X62599998Y17513745D01*
X62600000Y17513745D01*
X62600002Y17513745D01*
X62719356Y17532649D01*
X62719357Y17532650D01*
X62719359Y17532650D01*
X62827035Y17587513D01*
X62912487Y17672965D01*
X62967350Y17780641D01*
X62967350Y17780643D01*
X62967351Y17780644D01*
X62986255Y17899998D01*
X62986255Y17900003D01*
X62967351Y18019357D01*
X62912488Y18127034D01*
X62827033Y18212489D01*
X62719356Y18267352D01*
X62600002Y18286255D01*
X62599998Y18286255D01*
X62480643Y18267352D01*
X62372966Y18212489D01*
X62325897Y18165419D01*
X62264574Y18131934D01*
X62238216Y18129100D01*
X60786822Y18129100D01*
X60786639Y18129092D01*
X60717487Y18129092D01*
X60717486Y18129092D01*
X60717485Y18129092D01*
X60526403Y18098830D01*
X60526399Y18098829D01*
X60526394Y18098828D01*
X60342412Y18039051D01*
X60170026Y17951220D01*
X60013510Y17837505D01*
X59998418Y17822414D01*
X59937093Y17788932D01*
X59909758Y17788143D01*
X59909758Y17786255D01*
X59899997Y17786255D01*
X59780643Y17767352D01*
X59672966Y17712489D01*
X59587511Y17627034D01*
X59532648Y17519357D01*
X59513745Y17400003D01*
X59513745Y17399998D01*
X381500Y17399998D01*
X381500Y18999998D01*
X35313745Y18999998D01*
X35332648Y18880644D01*
X35387511Y18772967D01*
X35472966Y18687512D01*
X35580643Y18632649D01*
X35699998Y18613745D01*
X35700000Y18613745D01*
X35700002Y18613745D01*
X35819356Y18632649D01*
X35819357Y18632650D01*
X35819359Y18632650D01*
X35927035Y18687513D01*
X36012487Y18772965D01*
X36067350Y18880641D01*
X36067350Y18880643D01*
X36067351Y18880644D01*
X36070416Y18899998D01*
X55813745Y18899998D01*
X55832648Y18780644D01*
X55887511Y18672967D01*
X55972966Y18587512D01*
X56080643Y18532649D01*
X56199998Y18513745D01*
X56200000Y18513745D01*
X56200002Y18513745D01*
X56319356Y18532649D01*
X56319357Y18532650D01*
X56319359Y18532650D01*
X56427035Y18587513D01*
X56512487Y18672965D01*
X56567350Y18780641D01*
X56567350Y18780643D01*
X56567351Y18780644D01*
X56586255Y18899998D01*
X56586255Y18900003D01*
X56567351Y19019357D01*
X56512488Y19127034D01*
X56427033Y19212489D01*
X56319356Y19267352D01*
X56200002Y19286255D01*
X56199998Y19286255D01*
X56080643Y19267352D01*
X55972966Y19212489D01*
X55887511Y19127034D01*
X55832648Y19019357D01*
X55813745Y18900003D01*
X55813745Y18899998D01*
X36070416Y18899998D01*
X36086255Y18999998D01*
X36086255Y19000003D01*
X36067351Y19119357D01*
X36012489Y19227033D01*
X35965417Y19274106D01*
X35931933Y19335430D01*
X35929100Y19361786D01*
X35929100Y19599998D01*
X44913745Y19599998D01*
X44932648Y19480644D01*
X44987511Y19372967D01*
X45072966Y19287512D01*
X45180643Y19232649D01*
X45299998Y19213745D01*
X45300000Y19213745D01*
X45300002Y19213745D01*
X45419356Y19232649D01*
X45419357Y19232650D01*
X45419359Y19232650D01*
X45527035Y19287513D01*
X45612487Y19372965D01*
X45667350Y19480641D01*
X45667350Y19480643D01*
X45667351Y19480644D01*
X45686255Y19599998D01*
X45686255Y19600003D01*
X45667351Y19719357D01*
X45612488Y19827034D01*
X45527033Y19912489D01*
X45419356Y19967352D01*
X45300002Y19986255D01*
X45299998Y19986255D01*
X45180643Y19967352D01*
X45072966Y19912489D01*
X44987511Y19827034D01*
X44932648Y19719357D01*
X44913745Y19600003D01*
X44913745Y19599998D01*
X35929100Y19599998D01*
X35929100Y20679998D01*
X72367020Y20679998D01*
X72387276Y20500211D01*
X72429896Y20378411D01*
X72447035Y20329431D01*
X72543296Y20176233D01*
X72671233Y20048296D01*
X72824431Y19952035D01*
X72937448Y19912489D01*
X72995210Y19892277D01*
X73081354Y19882572D01*
X73129909Y19877101D01*
X73129910Y19877100D01*
X73129914Y19877100D01*
X74220090Y19877100D01*
X74220090Y19877101D01*
X74281174Y19883984D01*
X74354789Y19892277D01*
X74354792Y19892278D01*
X74525569Y19952035D01*
X74678767Y20048296D01*
X74806704Y20176233D01*
X74902965Y20329431D01*
X74916409Y20367854D01*
X74957132Y20424630D01*
X75022084Y20450378D01*
X75033452Y20450900D01*
X75991548Y20450900D01*
X76058587Y20431215D01*
X76104342Y20378411D01*
X76108590Y20367854D01*
X76122034Y20329432D01*
X76122035Y20329431D01*
X76218296Y20176233D01*
X76346233Y20048296D01*
X76499431Y19952035D01*
X76612448Y19912489D01*
X76670210Y19892277D01*
X76756354Y19882572D01*
X76804909Y19877101D01*
X76804910Y19877100D01*
X76804914Y19877100D01*
X78195090Y19877100D01*
X78195090Y19877101D01*
X78256174Y19883984D01*
X78329789Y19892277D01*
X78329792Y19892278D01*
X78500569Y19952035D01*
X78653767Y20048296D01*
X78781704Y20176233D01*
X78877965Y20329431D01*
X78937722Y20500208D01*
X78937722Y20500209D01*
X78937723Y20500211D01*
X78957980Y20679998D01*
X78957980Y20680003D01*
X78937723Y20859790D01*
X78923377Y20900788D01*
X78877965Y21030569D01*
X78781704Y21183767D01*
X78653767Y21311704D01*
X78530153Y21389376D01*
X78500571Y21407964D01*
X78500570Y21407965D01*
X78500569Y21407965D01*
X78459573Y21422310D01*
X78329789Y21467724D01*
X78195090Y21482900D01*
X78195086Y21482900D01*
X76804914Y21482900D01*
X76804910Y21482900D01*
X76670210Y21467724D01*
X76499428Y21407964D01*
X76346232Y21311704D01*
X76218296Y21183768D01*
X76122034Y21030569D01*
X76108590Y20992146D01*
X76067868Y20935370D01*
X76002916Y20909622D01*
X75991548Y20909100D01*
X75033452Y20909100D01*
X74966413Y20928785D01*
X74920658Y20981589D01*
X74916410Y20992146D01*
X74902965Y21030569D01*
X74867185Y21087512D01*
X74806704Y21183767D01*
X74678767Y21311704D01*
X74555152Y21389377D01*
X74508862Y21441711D01*
X74498214Y21510765D01*
X74526589Y21574613D01*
X74567318Y21606087D01*
X74643540Y21642793D01*
X74738008Y21730447D01*
X74802444Y21842052D01*
X74831120Y21967692D01*
X74827248Y22019357D01*
X74821490Y22096201D01*
X74774408Y22216165D01*
X74694056Y22316922D01*
X74587581Y22389515D01*
X74587579Y22389516D01*
X74464436Y22427500D01*
X74464435Y22427500D01*
X74367961Y22427500D01*
X74367955Y22427500D01*
X74272569Y22413122D01*
X74156458Y22357207D01*
X74061992Y22269554D01*
X74061989Y22269549D01*
X73997557Y22157951D01*
X73997556Y22157948D01*
X73968880Y22032308D01*
X73968879Y22032307D01*
X73978509Y21903800D01*
X74025591Y21783836D01*
X74068164Y21730452D01*
X74105039Y21684212D01*
X74131447Y21619527D01*
X74118692Y21550831D01*
X74070821Y21499937D01*
X74008092Y21482900D01*
X73129910Y21482900D01*
X72995210Y21467724D01*
X72824428Y21407964D01*
X72671232Y21311704D01*
X72543296Y21183768D01*
X72447036Y21030572D01*
X72387276Y20859790D01*
X72367020Y20680003D01*
X72367020Y20679998D01*
X35929100Y20679998D01*
X35929100Y21399998D01*
X48013745Y21399998D01*
X48032648Y21280644D01*
X48087511Y21172967D01*
X48172966Y21087512D01*
X48280643Y21032649D01*
X48399998Y21013745D01*
X48400000Y21013745D01*
X48400002Y21013745D01*
X48519356Y21032649D01*
X48519357Y21032650D01*
X48519359Y21032650D01*
X48627035Y21087513D01*
X48712487Y21172965D01*
X48767350Y21280641D01*
X48767350Y21280643D01*
X48767351Y21280644D01*
X48786255Y21399998D01*
X48786255Y21400003D01*
X48767351Y21519357D01*
X48712488Y21627034D01*
X48639524Y21699998D01*
X49713745Y21699998D01*
X49732648Y21580644D01*
X49787511Y21472967D01*
X49872966Y21387512D01*
X49980643Y21332649D01*
X50099998Y21313745D01*
X50100000Y21313745D01*
X50100002Y21313745D01*
X50219356Y21332649D01*
X50219357Y21332650D01*
X50219359Y21332650D01*
X50327035Y21387513D01*
X50339520Y21399998D01*
X55813745Y21399998D01*
X55832648Y21280644D01*
X55887511Y21172967D01*
X55972966Y21087512D01*
X56080643Y21032649D01*
X56199998Y21013745D01*
X56200000Y21013745D01*
X56200002Y21013745D01*
X56319356Y21032649D01*
X56319357Y21032650D01*
X56319359Y21032650D01*
X56427035Y21087513D01*
X56512487Y21172965D01*
X56567350Y21280641D01*
X56567350Y21280643D01*
X56567351Y21280644D01*
X56586255Y21399998D01*
X56586255Y21400003D01*
X56567351Y21519357D01*
X56512488Y21627034D01*
X56427033Y21712489D01*
X56319356Y21767352D01*
X56200002Y21786255D01*
X56199998Y21786255D01*
X56080643Y21767352D01*
X55972966Y21712489D01*
X55887511Y21627034D01*
X55832648Y21519357D01*
X55813745Y21400003D01*
X55813745Y21399998D01*
X50339520Y21399998D01*
X50412487Y21472965D01*
X50467350Y21580641D01*
X50467350Y21580643D01*
X50467351Y21580644D01*
X50486255Y21699998D01*
X50486255Y21700003D01*
X50467351Y21819357D01*
X50412488Y21927034D01*
X50327033Y22012489D01*
X50219356Y22067352D01*
X50100002Y22086255D01*
X50099998Y22086255D01*
X49980643Y22067352D01*
X49872966Y22012489D01*
X49787511Y21927034D01*
X49732648Y21819357D01*
X49713745Y21700003D01*
X49713745Y21699998D01*
X48639524Y21699998D01*
X48627033Y21712489D01*
X48519356Y21767352D01*
X48400002Y21786255D01*
X48399998Y21786255D01*
X48280643Y21767352D01*
X48172966Y21712489D01*
X48087511Y21627034D01*
X48032648Y21519357D01*
X48013745Y21400003D01*
X48013745Y21399998D01*
X35929100Y21399998D01*
X35929100Y21538216D01*
X35948785Y21605255D01*
X35965419Y21625897D01*
X35982318Y21642796D01*
X36012487Y21672965D01*
X36067350Y21780641D01*
X36067350Y21780643D01*
X36067351Y21780644D01*
X36086255Y21899998D01*
X36086255Y21900003D01*
X36067351Y22019357D01*
X36012488Y22127034D01*
X35927033Y22212489D01*
X35819356Y22267352D01*
X35700002Y22286255D01*
X35699998Y22286255D01*
X35580643Y22267352D01*
X35472966Y22212489D01*
X35387511Y22127034D01*
X35332648Y22019357D01*
X35313745Y21900003D01*
X35313745Y21899998D01*
X35332648Y21780644D01*
X35387512Y21672967D01*
X35387516Y21672961D01*
X35434580Y21625898D01*
X35468066Y21564575D01*
X35470900Y21538216D01*
X35470900Y19361786D01*
X35451215Y19294747D01*
X35434583Y19274106D01*
X35387510Y19227033D01*
X35332648Y19119357D01*
X35313745Y19000003D01*
X35313745Y18999998D01*
X381500Y18999998D01*
X381500Y21723394D01*
X1781188Y21723394D01*
X1800401Y21491521D01*
X1857520Y21265962D01*
X1950987Y21052879D01*
X2078247Y20858093D01*
X2110283Y20823291D01*
X2110284Y20823291D01*
X2470091Y21183099D01*
X2517486Y21117866D01*
X2647239Y21001036D01*
X2290535Y20644332D01*
X2290535Y20644330D01*
X2419444Y20543996D01*
X2419455Y20543989D01*
X2624080Y20433252D01*
X2624094Y20433246D01*
X2844154Y20357698D01*
X3073661Y20319400D01*
X3306339Y20319400D01*
X3535845Y20357698D01*
X3755905Y20433246D01*
X3755919Y20433252D01*
X3960541Y20543987D01*
X3960544Y20543989D01*
X4089463Y20644332D01*
X3732760Y21001035D01*
X3862514Y21117866D01*
X3909907Y21183098D01*
X4269714Y20823291D01*
X4269715Y20823291D01*
X4301752Y20858093D01*
X4429012Y21052879D01*
X4522479Y21265962D01*
X4579598Y21491521D01*
X4598812Y21723394D01*
X4598812Y21723407D01*
X4579598Y21955280D01*
X4522479Y22180839D01*
X4429012Y22393920D01*
X4419698Y22408177D01*
X4399510Y22475066D01*
X4418689Y22542252D01*
X4471147Y22588403D01*
X4523506Y22600000D01*
X8409694Y22600000D01*
X8476733Y22580315D01*
X8522488Y22527511D01*
X8532432Y22458353D01*
X8513502Y22408177D01*
X8504187Y22393920D01*
X8410720Y22180839D01*
X8353601Y21955280D01*
X8334388Y21723407D01*
X8334388Y21723394D01*
X8353601Y21491521D01*
X8410720Y21265962D01*
X8504187Y21052879D01*
X8631447Y20858093D01*
X8663483Y20823291D01*
X8663484Y20823291D01*
X9023291Y21183099D01*
X9070686Y21117866D01*
X9200439Y21001036D01*
X8843735Y20644332D01*
X8843735Y20644330D01*
X8972644Y20543996D01*
X8972655Y20543989D01*
X9177280Y20433252D01*
X9177294Y20433246D01*
X9397354Y20357698D01*
X9626861Y20319400D01*
X9859539Y20319400D01*
X10089045Y20357698D01*
X10309105Y20433246D01*
X10309119Y20433252D01*
X10513741Y20543987D01*
X10513744Y20543989D01*
X10642663Y20644332D01*
X10285960Y21001035D01*
X10415714Y21117866D01*
X10463107Y21183098D01*
X10822914Y20823291D01*
X10822915Y20823291D01*
X10854952Y20858093D01*
X10982212Y21052879D01*
X11075679Y21265962D01*
X11132798Y21491521D01*
X11150073Y21699998D01*
X20213744Y21699998D01*
X20232648Y21580644D01*
X20287511Y21472967D01*
X20372966Y21387512D01*
X20480643Y21332649D01*
X20599998Y21313745D01*
X20600000Y21313745D01*
X20600002Y21313745D01*
X20719356Y21332649D01*
X20719357Y21332650D01*
X20719359Y21332650D01*
X20827035Y21387513D01*
X20912487Y21472965D01*
X20967350Y21580641D01*
X20967350Y21580643D01*
X20967351Y21580644D01*
X20986255Y21699998D01*
X20986255Y21700003D01*
X20967351Y21819357D01*
X20912488Y21927034D01*
X20827033Y22012489D01*
X20719356Y22067352D01*
X20600002Y22086255D01*
X20599998Y22086255D01*
X20480643Y22067352D01*
X20372966Y22012489D01*
X20287511Y21927034D01*
X20232648Y21819357D01*
X20213744Y21700003D01*
X20213744Y21699998D01*
X11150073Y21699998D01*
X11152012Y21723394D01*
X11152012Y21723407D01*
X11132798Y21955280D01*
X11075679Y22180839D01*
X10982212Y22393920D01*
X10972898Y22408177D01*
X10952710Y22475066D01*
X10971889Y22542252D01*
X11024347Y22588403D01*
X11076706Y22600000D01*
X18600000Y22600000D01*
X18600000Y22799998D01*
X49813745Y22799998D01*
X49832648Y22680644D01*
X49887511Y22572967D01*
X49972966Y22487512D01*
X50080643Y22432649D01*
X50199998Y22413745D01*
X50200000Y22413745D01*
X50200002Y22413745D01*
X50319356Y22432649D01*
X50319357Y22432650D01*
X50319359Y22432650D01*
X50427035Y22487513D01*
X50512487Y22572965D01*
X50567350Y22680641D01*
X50567350Y22680643D01*
X50567351Y22680644D01*
X50586255Y22799998D01*
X55713745Y22799998D01*
X55732648Y22680644D01*
X55787511Y22572967D01*
X55872966Y22487512D01*
X55980643Y22432649D01*
X56099998Y22413745D01*
X56100000Y22413745D01*
X56100002Y22413745D01*
X56219356Y22432649D01*
X56219357Y22432650D01*
X56219359Y22432650D01*
X56327035Y22487513D01*
X56412487Y22572965D01*
X56467350Y22680641D01*
X56467350Y22680643D01*
X56467351Y22680644D01*
X56486255Y22799998D01*
X56486255Y22800003D01*
X56467351Y22919357D01*
X56412488Y23027034D01*
X56327033Y23112489D01*
X56219356Y23167352D01*
X56155108Y23177527D01*
X56101027Y23203164D01*
X56044891Y23177527D01*
X55980643Y23167352D01*
X55872966Y23112489D01*
X55787511Y23027034D01*
X55732648Y22919357D01*
X55713745Y22800003D01*
X55713745Y22799998D01*
X50586255Y22799998D01*
X50586255Y22800003D01*
X50567351Y22919357D01*
X50512488Y23027034D01*
X50427033Y23112489D01*
X50319356Y23167352D01*
X50200002Y23186255D01*
X50199998Y23186255D01*
X50080643Y23167352D01*
X49972966Y23112489D01*
X49887511Y23027034D01*
X49832648Y22919357D01*
X49813745Y22800003D01*
X49813745Y22799998D01*
X18600000Y22799998D01*
X18600000Y23553212D01*
X27514659Y23553212D01*
X27533562Y23433858D01*
X27588425Y23326181D01*
X27673880Y23240726D01*
X27781557Y23185863D01*
X27900912Y23166959D01*
X27900914Y23166959D01*
X27900916Y23166959D01*
X28020270Y23185863D01*
X28020271Y23185864D01*
X28020273Y23185864D01*
X28127949Y23240727D01*
X28213401Y23326179D01*
X28268264Y23433855D01*
X28268264Y23433857D01*
X28268265Y23433858D01*
X28285466Y23542465D01*
X28287169Y23553214D01*
X28287168Y23553221D01*
X28287169Y23562973D01*
X28290922Y23562973D01*
X28297487Y23613836D01*
X28323329Y23651635D01*
X28550428Y23878734D01*
X28611749Y23912217D01*
X28639091Y23912996D01*
X28639091Y23914895D01*
X28648852Y23914895D01*
X28768206Y23933799D01*
X28768207Y23933800D01*
X28768209Y23933800D01*
X28824533Y23962498D01*
X40913745Y23962498D01*
X40932648Y23843144D01*
X40987511Y23735467D01*
X41072966Y23650012D01*
X41180643Y23595149D01*
X41299998Y23576245D01*
X41300000Y23576245D01*
X41300002Y23576245D01*
X41419356Y23595149D01*
X41419357Y23595150D01*
X41419359Y23595150D01*
X41527035Y23650013D01*
X41612487Y23735465D01*
X41645368Y23799998D01*
X55713745Y23799998D01*
X55732648Y23680644D01*
X55787511Y23572967D01*
X55872966Y23487512D01*
X55980643Y23432649D01*
X56044891Y23422473D01*
X56098971Y23396837D01*
X56155108Y23422473D01*
X56219356Y23432649D01*
X56219357Y23432650D01*
X56219359Y23432650D01*
X56327035Y23487513D01*
X56412487Y23572965D01*
X56467350Y23680641D01*
X56467350Y23680643D01*
X56467351Y23680644D01*
X56481424Y23769498D01*
X71413745Y23769498D01*
X71432648Y23650144D01*
X71487511Y23542467D01*
X71572966Y23457012D01*
X71680643Y23402149D01*
X71799998Y23383245D01*
X71800000Y23383245D01*
X71800002Y23383245D01*
X71919356Y23402149D01*
X71919357Y23402150D01*
X71919359Y23402150D01*
X72027035Y23457013D01*
X72112487Y23542465D01*
X72167350Y23650141D01*
X72167350Y23650143D01*
X72167351Y23650144D01*
X72186255Y23769498D01*
X72186255Y23769503D01*
X72167351Y23888857D01*
X72112488Y23996534D01*
X72065419Y24043603D01*
X72031934Y24104926D01*
X72029100Y24131284D01*
X72029100Y24560116D01*
X72048785Y24627155D01*
X72065420Y24647798D01*
X72112483Y24694861D01*
X72112483Y24694862D01*
X72112487Y24694865D01*
X72167350Y24802541D01*
X72167350Y24802543D01*
X72167351Y24802544D01*
X72186255Y24921898D01*
X72186255Y24921903D01*
X72167351Y25041257D01*
X72112488Y25148934D01*
X72027033Y25234389D01*
X71919356Y25289252D01*
X71800002Y25308155D01*
X71799998Y25308155D01*
X71680643Y25289252D01*
X71572966Y25234389D01*
X71487511Y25148934D01*
X71432648Y25041257D01*
X71413745Y24921903D01*
X71413745Y24921898D01*
X71432648Y24802544D01*
X71487511Y24694867D01*
X71534581Y24647797D01*
X71568066Y24586474D01*
X71570900Y24560116D01*
X71570900Y24131284D01*
X71551215Y24064245D01*
X71534581Y24043603D01*
X71487511Y23996534D01*
X71432648Y23888857D01*
X71413745Y23769503D01*
X71413745Y23769498D01*
X56481424Y23769498D01*
X56486255Y23799998D01*
X56486255Y23800003D01*
X56467351Y23919357D01*
X56412488Y24027034D01*
X56327033Y24112489D01*
X56219356Y24167352D01*
X56100002Y24186255D01*
X56099998Y24186255D01*
X55980643Y24167352D01*
X55872966Y24112489D01*
X55787511Y24027034D01*
X55732648Y23919357D01*
X55713745Y23800003D01*
X55713745Y23799998D01*
X41645368Y23799998D01*
X41667350Y23843141D01*
X41667350Y23843143D01*
X41667351Y23843144D01*
X41686255Y23962498D01*
X41686255Y23962503D01*
X41678035Y24014404D01*
X44231506Y24014404D01*
X44245610Y24003582D01*
X44245613Y24003581D01*
X44380373Y23947762D01*
X44380378Y23947760D01*
X44524999Y23928720D01*
X44525001Y23928720D01*
X44669621Y23947760D01*
X44669626Y23947762D01*
X44804385Y24003580D01*
X44804386Y24003580D01*
X44818491Y24014404D01*
X45506506Y24014404D01*
X45520610Y24003582D01*
X45520613Y24003581D01*
X45655373Y23947762D01*
X45655378Y23947760D01*
X45799999Y23928720D01*
X45800001Y23928720D01*
X45944621Y23947760D01*
X45944626Y23947762D01*
X46079385Y24003580D01*
X46079386Y24003580D01*
X46093491Y24014404D01*
X46781506Y24014404D01*
X46795610Y24003582D01*
X46795613Y24003581D01*
X46930373Y23947762D01*
X46930378Y23947760D01*
X47074999Y23928720D01*
X47075001Y23928720D01*
X47219621Y23947760D01*
X47219626Y23947762D01*
X47354385Y24003580D01*
X47354386Y24003580D01*
X47368491Y24014404D01*
X47368491Y24014405D01*
X47075001Y24307895D01*
X47075000Y24307895D01*
X46781506Y24014404D01*
X46093491Y24014404D01*
X46093491Y24014405D01*
X45800001Y24307895D01*
X45800000Y24307895D01*
X45506506Y24014404D01*
X44818491Y24014404D01*
X44818491Y24014405D01*
X44525001Y24307895D01*
X44525000Y24307895D01*
X44231506Y24014404D01*
X41678035Y24014404D01*
X41667351Y24081857D01*
X41612488Y24189534D01*
X41527033Y24274989D01*
X41419356Y24329852D01*
X41300002Y24348755D01*
X41299998Y24348755D01*
X41180643Y24329852D01*
X41072966Y24274989D01*
X40987511Y24189534D01*
X40932648Y24081857D01*
X40913745Y23962503D01*
X40913745Y23962498D01*
X28824533Y23962498D01*
X28875885Y23988663D01*
X28961337Y24074115D01*
X29016200Y24181791D01*
X29016200Y24181793D01*
X29016201Y24181794D01*
X29024413Y24233647D01*
X29035105Y24301150D01*
X29021806Y24385114D01*
X29016201Y24420507D01*
X28982067Y24487500D01*
X43966220Y24487500D01*
X43985259Y24342879D01*
X43985260Y24342877D01*
X44041081Y24208113D01*
X44041086Y24208105D01*
X44051901Y24194009D01*
X44345395Y24487500D01*
X44345395Y24487501D01*
X44323671Y24509225D01*
X44346077Y24509225D01*
X44356475Y24423587D01*
X44405481Y24352591D01*
X44481866Y24312500D01*
X44546247Y24312500D01*
X44608760Y24327908D01*
X44673332Y24385114D01*
X44703923Y24465775D01*
X44701285Y24487500D01*
X44704605Y24487500D01*
X44998095Y24194009D01*
X44998096Y24194009D01*
X45008918Y24208112D01*
X45047938Y24302316D01*
X45091779Y24356719D01*
X45158073Y24378785D01*
X45225772Y24361506D01*
X45273383Y24310370D01*
X45277061Y24302316D01*
X45316080Y24208115D01*
X45316086Y24208105D01*
X45326901Y24194009D01*
X45620395Y24487500D01*
X45598670Y24509225D01*
X45621077Y24509225D01*
X45631475Y24423587D01*
X45680481Y24352591D01*
X45756866Y24312500D01*
X45821247Y24312500D01*
X45883760Y24327908D01*
X45948332Y24385114D01*
X45978923Y24465775D01*
X45976285Y24487499D01*
X45979605Y24487499D01*
X46273095Y24194009D01*
X46273096Y24194009D01*
X46283918Y24208112D01*
X46322938Y24302316D01*
X46366779Y24356719D01*
X46433073Y24378785D01*
X46500772Y24361506D01*
X46548383Y24310370D01*
X46552061Y24302316D01*
X46591080Y24208115D01*
X46591086Y24208105D01*
X46601901Y24194009D01*
X46895395Y24487500D01*
X46895395Y24487501D01*
X46873671Y24509225D01*
X46896077Y24509225D01*
X46906475Y24423587D01*
X46955481Y24352591D01*
X47031866Y24312500D01*
X47096247Y24312500D01*
X47158760Y24327908D01*
X47223332Y24385114D01*
X47253923Y24465775D01*
X47251285Y24487499D01*
X47254605Y24487499D01*
X47548095Y24194009D01*
X47548096Y24194009D01*
X47558920Y24208114D01*
X47558920Y24208115D01*
X47614738Y24342874D01*
X47614740Y24342879D01*
X47633780Y24487500D01*
X47633780Y24487501D01*
X47614740Y24632122D01*
X47614738Y24632127D01*
X47558919Y24766887D01*
X47558918Y24766890D01*
X47548096Y24780994D01*
X47254605Y24487501D01*
X47254605Y24487499D01*
X47251285Y24487499D01*
X47243525Y24551413D01*
X47194519Y24622409D01*
X47118134Y24662500D01*
X47053753Y24662500D01*
X46991240Y24647092D01*
X46926668Y24589886D01*
X46896077Y24509225D01*
X46873671Y24509225D01*
X46601902Y24780993D01*
X46591081Y24766889D01*
X46552060Y24672684D01*
X46508219Y24618281D01*
X46441924Y24596216D01*
X46374225Y24613496D01*
X46326615Y24664633D01*
X46322937Y24672686D01*
X46283917Y24766890D01*
X46273096Y24780994D01*
X45979605Y24487501D01*
X45979605Y24487499D01*
X45976285Y24487499D01*
X45968525Y24551413D01*
X45919519Y24622409D01*
X45843134Y24662500D01*
X45778753Y24662500D01*
X45716240Y24647092D01*
X45651668Y24589886D01*
X45621077Y24509225D01*
X45598670Y24509225D01*
X45326902Y24780993D01*
X45316081Y24766889D01*
X45277060Y24672684D01*
X45233219Y24618281D01*
X45166924Y24596216D01*
X45099225Y24613496D01*
X45051615Y24664633D01*
X45047937Y24672686D01*
X45008917Y24766890D01*
X44998096Y24780994D01*
X44704605Y24487501D01*
X44704605Y24487500D01*
X44701285Y24487500D01*
X44693525Y24551413D01*
X44644519Y24622409D01*
X44568134Y24662500D01*
X44503753Y24662500D01*
X44441240Y24647092D01*
X44376668Y24589886D01*
X44346077Y24509225D01*
X44323671Y24509225D01*
X44051902Y24780993D01*
X44041080Y24766888D01*
X43985261Y24632127D01*
X43985259Y24632122D01*
X43966220Y24487501D01*
X43966220Y24487500D01*
X28982067Y24487500D01*
X28961338Y24528184D01*
X28875883Y24613639D01*
X28768206Y24668502D01*
X28648852Y24687405D01*
X28648848Y24687405D01*
X28529493Y24668502D01*
X28421816Y24613639D01*
X28336361Y24528184D01*
X28281498Y24420507D01*
X28262595Y24301154D01*
X28262595Y24291392D01*
X28258850Y24291392D01*
X28252250Y24240473D01*
X28226431Y24202730D01*
X27999334Y23975633D01*
X27938011Y23942148D01*
X27910672Y23941362D01*
X27910672Y23939469D01*
X27900911Y23939469D01*
X27781557Y23920566D01*
X27673880Y23865703D01*
X27588425Y23780248D01*
X27533562Y23672571D01*
X27514659Y23553217D01*
X27514659Y23553212D01*
X18600000Y23553212D01*
X18600000Y25399998D01*
X29613745Y25399998D01*
X29632648Y25280644D01*
X29687511Y25172967D01*
X29772966Y25087512D01*
X29880643Y25032649D01*
X29999998Y25013745D01*
X30000000Y25013745D01*
X30000002Y25013745D01*
X30119356Y25032649D01*
X30119357Y25032650D01*
X30119359Y25032650D01*
X30227035Y25087513D01*
X30312487Y25172965D01*
X30367350Y25280641D01*
X30367350Y25280643D01*
X30367351Y25280644D01*
X30386255Y25399998D01*
X30386255Y25400003D01*
X30367351Y25519357D01*
X30351739Y25549998D01*
X40913745Y25549998D01*
X40932648Y25430644D01*
X40987511Y25322967D01*
X41072966Y25237512D01*
X41180643Y25182649D01*
X41299998Y25163745D01*
X41300000Y25163745D01*
X41300002Y25163745D01*
X41419356Y25182649D01*
X41419357Y25182650D01*
X41419359Y25182650D01*
X41527035Y25237513D01*
X41578926Y25289404D01*
X44231506Y25289404D01*
X44245610Y25278583D01*
X44339814Y25239563D01*
X44394218Y25195722D01*
X44416284Y25129428D01*
X44399005Y25061729D01*
X44347869Y25014118D01*
X44339816Y25010440D01*
X44245611Y24971419D01*
X44231507Y24960598D01*
X44525000Y24667105D01*
X44525001Y24667105D01*
X44818492Y24960599D01*
X44804395Y24971414D01*
X44804385Y24971420D01*
X44710184Y25010439D01*
X44655780Y25054280D01*
X44633715Y25120574D01*
X44650994Y25188273D01*
X44702131Y25235884D01*
X44710184Y25239562D01*
X44804388Y25278582D01*
X44818491Y25289404D01*
X45506506Y25289404D01*
X45520610Y25278583D01*
X45614814Y25239563D01*
X45669218Y25195722D01*
X45691284Y25129428D01*
X45674005Y25061729D01*
X45622869Y25014118D01*
X45614816Y25010440D01*
X45520611Y24971419D01*
X45506507Y24960598D01*
X45800000Y24667105D01*
X45800001Y24667105D01*
X46093492Y24960599D01*
X46079395Y24971414D01*
X46079385Y24971420D01*
X45985184Y25010439D01*
X45930780Y25054280D01*
X45908715Y25120574D01*
X45925994Y25188273D01*
X45977131Y25235884D01*
X45985184Y25239562D01*
X46079388Y25278582D01*
X46093491Y25289404D01*
X46781506Y25289404D01*
X46795610Y25278583D01*
X46889814Y25239563D01*
X46944218Y25195722D01*
X46966284Y25129428D01*
X46949005Y25061729D01*
X46897869Y25014118D01*
X46889816Y25010440D01*
X46795611Y24971419D01*
X46781507Y24960598D01*
X47075000Y24667105D01*
X47075001Y24667105D01*
X47368492Y24960599D01*
X47354395Y24971414D01*
X47354385Y24971420D01*
X47260184Y25010439D01*
X47205780Y25054280D01*
X47183715Y25120574D01*
X47200994Y25188273D01*
X47252131Y25235884D01*
X47260184Y25239562D01*
X47354388Y25278582D01*
X47368491Y25289404D01*
X47368491Y25289405D01*
X47075001Y25582895D01*
X47075000Y25582895D01*
X46781506Y25289404D01*
X46093491Y25289404D01*
X46093491Y25289405D01*
X45800001Y25582895D01*
X45800000Y25582895D01*
X45506506Y25289404D01*
X44818491Y25289404D01*
X44818491Y25289405D01*
X44525001Y25582895D01*
X44525000Y25582895D01*
X44231506Y25289404D01*
X41578926Y25289404D01*
X41612487Y25322965D01*
X41667350Y25430641D01*
X41667350Y25430643D01*
X41667351Y25430644D01*
X41686255Y25549998D01*
X41686255Y25550003D01*
X41667351Y25669357D01*
X41619893Y25762500D01*
X43966220Y25762500D01*
X43985259Y25617879D01*
X43985260Y25617877D01*
X44041081Y25483113D01*
X44041086Y25483105D01*
X44051901Y25469009D01*
X44345395Y25762500D01*
X44345395Y25762501D01*
X44323671Y25784225D01*
X44346077Y25784225D01*
X44356475Y25698587D01*
X44405481Y25627591D01*
X44481866Y25587500D01*
X44546247Y25587500D01*
X44608760Y25602908D01*
X44673332Y25660114D01*
X44703923Y25740775D01*
X44701285Y25762500D01*
X44704605Y25762500D01*
X44998095Y25469009D01*
X44998096Y25469009D01*
X45008918Y25483112D01*
X45047938Y25577316D01*
X45091779Y25631719D01*
X45158073Y25653785D01*
X45225772Y25636506D01*
X45273383Y25585370D01*
X45277061Y25577316D01*
X45316080Y25483115D01*
X45316086Y25483105D01*
X45326901Y25469009D01*
X45620395Y25762500D01*
X45598670Y25784225D01*
X45621077Y25784225D01*
X45631475Y25698587D01*
X45680481Y25627591D01*
X45756866Y25587500D01*
X45821247Y25587500D01*
X45883760Y25602908D01*
X45948332Y25660114D01*
X45978923Y25740775D01*
X45976285Y25762499D01*
X45979605Y25762499D01*
X46273095Y25469009D01*
X46273096Y25469009D01*
X46283918Y25483112D01*
X46322938Y25577316D01*
X46366779Y25631719D01*
X46433073Y25653785D01*
X46500772Y25636506D01*
X46548383Y25585370D01*
X46552061Y25577316D01*
X46591080Y25483115D01*
X46591086Y25483105D01*
X46601901Y25469009D01*
X46895395Y25762500D01*
X46895395Y25762501D01*
X46873671Y25784225D01*
X46896077Y25784225D01*
X46906475Y25698587D01*
X46955481Y25627591D01*
X47031866Y25587500D01*
X47096247Y25587500D01*
X47158760Y25602908D01*
X47223332Y25660114D01*
X47253923Y25740775D01*
X47251285Y25762499D01*
X47254605Y25762499D01*
X47548095Y25469009D01*
X47548096Y25469009D01*
X47558920Y25483114D01*
X47558920Y25483115D01*
X47614738Y25617874D01*
X47614740Y25617879D01*
X47633780Y25762500D01*
X47633780Y25762501D01*
X47614740Y25907122D01*
X47614738Y25907127D01*
X47558919Y26041887D01*
X47558918Y26041890D01*
X47548096Y26055994D01*
X47254605Y25762501D01*
X47254605Y25762499D01*
X47251285Y25762499D01*
X47243525Y25826413D01*
X47194519Y25897409D01*
X47118134Y25937500D01*
X47053753Y25937500D01*
X46991240Y25922092D01*
X46926668Y25864886D01*
X46896077Y25784225D01*
X46873671Y25784225D01*
X46601902Y26055993D01*
X46591081Y26041889D01*
X46552060Y25947684D01*
X46508219Y25893281D01*
X46441924Y25871216D01*
X46374225Y25888496D01*
X46326615Y25939633D01*
X46322937Y25947686D01*
X46283917Y26041890D01*
X46273096Y26055994D01*
X45979605Y25762501D01*
X45979605Y25762499D01*
X45976285Y25762499D01*
X45968525Y25826413D01*
X45919519Y25897409D01*
X45843134Y25937500D01*
X45778753Y25937500D01*
X45716240Y25922092D01*
X45651668Y25864886D01*
X45621077Y25784225D01*
X45598670Y25784225D01*
X45326902Y26055993D01*
X45316081Y26041889D01*
X45277060Y25947684D01*
X45233219Y25893281D01*
X45166924Y25871216D01*
X45099225Y25888496D01*
X45051615Y25939633D01*
X45047937Y25947686D01*
X45008917Y26041890D01*
X44998096Y26055994D01*
X44704605Y25762501D01*
X44704605Y25762500D01*
X44701285Y25762500D01*
X44693525Y25826413D01*
X44644519Y25897409D01*
X44568134Y25937500D01*
X44503753Y25937500D01*
X44441240Y25922092D01*
X44376668Y25864886D01*
X44346077Y25784225D01*
X44323671Y25784225D01*
X44051902Y26055993D01*
X44041080Y26041888D01*
X43985261Y25907127D01*
X43985259Y25907122D01*
X43966220Y25762501D01*
X43966220Y25762500D01*
X41619893Y25762500D01*
X41612488Y25777034D01*
X41527033Y25862489D01*
X41419356Y25917352D01*
X41300002Y25936255D01*
X41299998Y25936255D01*
X41180643Y25917352D01*
X41072966Y25862489D01*
X40987511Y25777034D01*
X40932648Y25669357D01*
X40913745Y25550003D01*
X40913745Y25549998D01*
X30351739Y25549998D01*
X30312488Y25627034D01*
X30227033Y25712489D01*
X30119356Y25767352D01*
X30000002Y25786255D01*
X29999998Y25786255D01*
X29880643Y25767352D01*
X29772966Y25712489D01*
X29687511Y25627034D01*
X29632648Y25519357D01*
X29613745Y25400003D01*
X29613745Y25399998D01*
X18600000Y25399998D01*
X18600000Y26499998D01*
X24913744Y26499998D01*
X24932648Y26380644D01*
X24987511Y26272967D01*
X25072966Y26187512D01*
X25180643Y26132649D01*
X25299998Y26113745D01*
X25300000Y26113745D01*
X25300002Y26113745D01*
X25419356Y26132649D01*
X25419357Y26132650D01*
X25419359Y26132650D01*
X25527035Y26187513D01*
X25612487Y26272965D01*
X25667350Y26380641D01*
X25667350Y26380643D01*
X25667351Y26380644D01*
X25686255Y26499998D01*
X25686255Y26500003D01*
X25676055Y26564404D01*
X44231506Y26564404D01*
X44245610Y26553583D01*
X44339814Y26514563D01*
X44394218Y26470722D01*
X44416284Y26404428D01*
X44399005Y26336729D01*
X44347869Y26289118D01*
X44339816Y26285440D01*
X44245611Y26246419D01*
X44231507Y26235598D01*
X44525000Y25942105D01*
X44525001Y25942105D01*
X44818492Y26235599D01*
X44804395Y26246414D01*
X44804385Y26246420D01*
X44710184Y26285439D01*
X44655780Y26329280D01*
X44633715Y26395574D01*
X44650994Y26463273D01*
X44702131Y26510884D01*
X44710184Y26514562D01*
X44804388Y26553582D01*
X44818491Y26564404D01*
X45506506Y26564404D01*
X45520610Y26553583D01*
X45614814Y26514563D01*
X45669218Y26470722D01*
X45691284Y26404428D01*
X45674005Y26336729D01*
X45622869Y26289118D01*
X45614816Y26285440D01*
X45520611Y26246419D01*
X45506507Y26235598D01*
X45800000Y25942105D01*
X45800001Y25942105D01*
X46093492Y26235599D01*
X46079395Y26246414D01*
X46079385Y26246420D01*
X45985184Y26285439D01*
X45930780Y26329280D01*
X45908715Y26395574D01*
X45925994Y26463273D01*
X45977131Y26510884D01*
X45985184Y26514562D01*
X46079388Y26553582D01*
X46093491Y26564404D01*
X46781506Y26564404D01*
X46795610Y26553583D01*
X46889814Y26514563D01*
X46944218Y26470722D01*
X46966284Y26404428D01*
X46949005Y26336729D01*
X46897869Y26289118D01*
X46889816Y26285440D01*
X46795611Y26246419D01*
X46781507Y26235598D01*
X47075000Y25942105D01*
X47075001Y25942105D01*
X47232892Y26099998D01*
X50713745Y26099998D01*
X50732648Y25980644D01*
X50787511Y25872967D01*
X50872966Y25787512D01*
X50980643Y25732649D01*
X51058328Y25720346D01*
X51100000Y25713745D01*
X51118154Y25716621D01*
X51187443Y25707668D01*
X51240897Y25662674D01*
X51248033Y25650448D01*
X51264631Y25617874D01*
X51287512Y25572966D01*
X51372966Y25487512D01*
X51480643Y25432649D01*
X51599998Y25413745D01*
X51600000Y25413745D01*
X51600002Y25413745D01*
X51719356Y25432649D01*
X51719357Y25432650D01*
X51719359Y25432650D01*
X51827035Y25487513D01*
X51912487Y25572965D01*
X51967350Y25680641D01*
X51967350Y25680643D01*
X51967351Y25680644D01*
X51986255Y25799998D01*
X51986255Y25800003D01*
X51967351Y25919357D01*
X51912488Y26027034D01*
X51827033Y26112489D01*
X51719356Y26167352D01*
X51600002Y26186255D01*
X51599998Y26186255D01*
X51581842Y26183380D01*
X51512549Y26192337D01*
X51459098Y26237335D01*
X51451963Y26249560D01*
X51412488Y26327034D01*
X51327033Y26412489D01*
X51219356Y26467352D01*
X51100002Y26486255D01*
X51099998Y26486255D01*
X50980643Y26467352D01*
X50872966Y26412489D01*
X50787511Y26327034D01*
X50732648Y26219357D01*
X50713745Y26100003D01*
X50713745Y26099998D01*
X47232892Y26099998D01*
X47368492Y26235599D01*
X47354395Y26246414D01*
X47354385Y26246420D01*
X47260184Y26285439D01*
X47205780Y26329280D01*
X47183715Y26395574D01*
X47200994Y26463273D01*
X47252131Y26510884D01*
X47260184Y26514562D01*
X47354388Y26553582D01*
X47368491Y26564404D01*
X47368491Y26564405D01*
X47075001Y26857895D01*
X47075000Y26857895D01*
X46781506Y26564404D01*
X46093491Y26564404D01*
X46093491Y26564405D01*
X45800001Y26857895D01*
X45800000Y26857895D01*
X45506506Y26564404D01*
X44818491Y26564404D01*
X44818491Y26564405D01*
X44525001Y26857895D01*
X44525000Y26857895D01*
X44231506Y26564404D01*
X25676055Y26564404D01*
X25667351Y26619357D01*
X25612488Y26727034D01*
X25527033Y26812489D01*
X25419356Y26867352D01*
X25300002Y26886255D01*
X25299998Y26886255D01*
X25180643Y26867352D01*
X25072966Y26812489D01*
X24987511Y26727034D01*
X24932648Y26619357D01*
X24913744Y26500003D01*
X24913744Y26499998D01*
X18600000Y26499998D01*
X18600000Y27037500D01*
X43966220Y27037500D01*
X43985259Y26892879D01*
X43985260Y26892877D01*
X44041081Y26758113D01*
X44041086Y26758105D01*
X44051901Y26744009D01*
X44345395Y27037500D01*
X44345395Y27037501D01*
X44323671Y27059225D01*
X44346077Y27059225D01*
X44356475Y26973587D01*
X44405481Y26902591D01*
X44481866Y26862500D01*
X44546247Y26862500D01*
X44608760Y26877908D01*
X44673332Y26935114D01*
X44703923Y27015775D01*
X44701285Y27037500D01*
X44704605Y27037500D01*
X44998095Y26744009D01*
X44998096Y26744009D01*
X45008918Y26758112D01*
X45047938Y26852316D01*
X45091779Y26906719D01*
X45158073Y26928785D01*
X45225772Y26911506D01*
X45273383Y26860370D01*
X45277061Y26852316D01*
X45316080Y26758115D01*
X45316086Y26758105D01*
X45326901Y26744009D01*
X45620395Y27037500D01*
X45598670Y27059225D01*
X45621077Y27059225D01*
X45631475Y26973587D01*
X45680481Y26902591D01*
X45756866Y26862500D01*
X45821247Y26862500D01*
X45883760Y26877908D01*
X45948332Y26935114D01*
X45978923Y27015775D01*
X45976285Y27037499D01*
X45979605Y27037499D01*
X46273095Y26744009D01*
X46273096Y26744009D01*
X46283918Y26758112D01*
X46322938Y26852316D01*
X46366779Y26906719D01*
X46433073Y26928785D01*
X46500772Y26911506D01*
X46548383Y26860370D01*
X46552061Y26852316D01*
X46591080Y26758115D01*
X46591086Y26758105D01*
X46601901Y26744009D01*
X46895395Y27037500D01*
X46895395Y27037501D01*
X46873671Y27059225D01*
X46896077Y27059225D01*
X46906475Y26973587D01*
X46955481Y26902591D01*
X47031866Y26862500D01*
X47096247Y26862500D01*
X47158760Y26877908D01*
X47223332Y26935114D01*
X47253923Y27015775D01*
X47251285Y27037499D01*
X47254605Y27037499D01*
X47548095Y26744009D01*
X47548096Y26744009D01*
X47558920Y26758114D01*
X47558920Y26758115D01*
X47614738Y26892874D01*
X47614740Y26892879D01*
X47633780Y27037500D01*
X47633780Y27037501D01*
X47614740Y27182122D01*
X47614738Y27182127D01*
X47558919Y27316887D01*
X47558918Y27316890D01*
X47548096Y27330994D01*
X47254605Y27037501D01*
X47254605Y27037499D01*
X47251285Y27037499D01*
X47243525Y27101413D01*
X47194519Y27172409D01*
X47118134Y27212500D01*
X47053753Y27212500D01*
X46991240Y27197092D01*
X46926668Y27139886D01*
X46896077Y27059225D01*
X46873671Y27059225D01*
X46601902Y27330993D01*
X46591081Y27316889D01*
X46552060Y27222684D01*
X46508219Y27168281D01*
X46441924Y27146216D01*
X46374225Y27163496D01*
X46326615Y27214633D01*
X46322937Y27222686D01*
X46283917Y27316890D01*
X46273096Y27330994D01*
X45979605Y27037501D01*
X45979605Y27037499D01*
X45976285Y27037499D01*
X45968525Y27101413D01*
X45919519Y27172409D01*
X45843134Y27212500D01*
X45778753Y27212500D01*
X45716240Y27197092D01*
X45651668Y27139886D01*
X45621077Y27059225D01*
X45598670Y27059225D01*
X45326902Y27330993D01*
X45316081Y27316889D01*
X45277060Y27222684D01*
X45233219Y27168281D01*
X45166924Y27146216D01*
X45099225Y27163496D01*
X45051615Y27214633D01*
X45047937Y27222686D01*
X45008917Y27316890D01*
X44998096Y27330994D01*
X44704605Y27037501D01*
X44704605Y27037500D01*
X44701285Y27037500D01*
X44693525Y27101413D01*
X44644519Y27172409D01*
X44568134Y27212500D01*
X44503753Y27212500D01*
X44441240Y27197092D01*
X44376668Y27139886D01*
X44346077Y27059225D01*
X44323671Y27059225D01*
X44051902Y27330993D01*
X44041080Y27316888D01*
X43985261Y27182127D01*
X43985259Y27182122D01*
X43966220Y27037501D01*
X43966220Y27037500D01*
X18600000Y27037500D01*
X18600000Y27500000D01*
X11125479Y27500000D01*
X11089387Y27510598D01*
X44231507Y27510598D01*
X44525000Y27217105D01*
X44525001Y27217105D01*
X44818491Y27510598D01*
X45506507Y27510598D01*
X45800000Y27217105D01*
X45800001Y27217105D01*
X46093491Y27510598D01*
X46781507Y27510598D01*
X47075000Y27217105D01*
X47075001Y27217105D01*
X47368492Y27510599D01*
X47354395Y27521414D01*
X47354387Y27521419D01*
X47219623Y27577240D01*
X47219621Y27577241D01*
X47075001Y27596280D01*
X47074999Y27596280D01*
X46930378Y27577241D01*
X46930373Y27577239D01*
X46795612Y27521420D01*
X46781507Y27510598D01*
X46093491Y27510598D01*
X46093492Y27510599D01*
X46079395Y27521414D01*
X46079387Y27521419D01*
X45944623Y27577240D01*
X45944621Y27577241D01*
X45800001Y27596280D01*
X45799999Y27596280D01*
X45655378Y27577241D01*
X45655373Y27577239D01*
X45520612Y27521420D01*
X45506507Y27510598D01*
X44818491Y27510598D01*
X44818492Y27510599D01*
X44804395Y27521414D01*
X44804387Y27521419D01*
X44669623Y27577240D01*
X44669621Y27577241D01*
X44525001Y27596280D01*
X44524999Y27596280D01*
X44380378Y27577241D01*
X44380373Y27577239D01*
X44245612Y27521420D01*
X44231507Y27510598D01*
X11089387Y27510598D01*
X11058440Y27519685D01*
X11012685Y27572489D01*
X11002741Y27641647D01*
X11011923Y27673810D01*
X11075678Y27819159D01*
X11132798Y28044721D01*
X11152012Y28276594D01*
X11152012Y28276607D01*
X11150074Y28299998D01*
X20213744Y28299998D01*
X20232648Y28180644D01*
X20287511Y28072967D01*
X20372966Y27987512D01*
X20480643Y27932649D01*
X20599998Y27913745D01*
X20600000Y27913745D01*
X20600002Y27913745D01*
X20719356Y27932649D01*
X20719357Y27932650D01*
X20719359Y27932650D01*
X20827035Y27987513D01*
X20912487Y28072965D01*
X20967350Y28180641D01*
X20967350Y28180643D01*
X20967351Y28180644D01*
X20986255Y28299998D01*
X20986255Y28300003D01*
X20967351Y28419357D01*
X20912488Y28527034D01*
X20827033Y28612489D01*
X20719356Y28667352D01*
X20600002Y28686255D01*
X20599998Y28686255D01*
X20480643Y28667352D01*
X20372966Y28612489D01*
X20287511Y28527034D01*
X20232648Y28419357D01*
X20213744Y28300003D01*
X20213744Y28299998D01*
X11150074Y28299998D01*
X11132798Y28508480D01*
X11075679Y28734039D01*
X10982212Y28947122D01*
X10854952Y29141908D01*
X10822915Y29176711D01*
X10822914Y29176711D01*
X10463106Y28816904D01*
X10415714Y28882134D01*
X10285959Y28998967D01*
X10486991Y29199998D01*
X40393745Y29199998D01*
X40412648Y29080644D01*
X40467511Y28972967D01*
X40552966Y28887512D01*
X40660643Y28832649D01*
X40779998Y28813745D01*
X40780000Y28813745D01*
X40780002Y28813745D01*
X40899356Y28832649D01*
X40899357Y28832650D01*
X40899359Y28832650D01*
X41007035Y28887513D01*
X41092487Y28972965D01*
X41147350Y29080641D01*
X41147350Y29080643D01*
X41147351Y29080644D01*
X41166255Y29199998D01*
X41166255Y29200003D01*
X41147351Y29319357D01*
X41092488Y29427034D01*
X41007033Y29512489D01*
X40899356Y29567352D01*
X40780002Y29586255D01*
X40779998Y29586255D01*
X40660643Y29567352D01*
X40552966Y29512489D01*
X40467511Y29427034D01*
X40412648Y29319357D01*
X40393745Y29200003D01*
X40393745Y29199998D01*
X10486991Y29199998D01*
X10642663Y29355670D01*
X10642663Y29355672D01*
X10513755Y29456005D01*
X10513744Y29456012D01*
X10309119Y29566749D01*
X10309105Y29566755D01*
X10089045Y29642303D01*
X9859539Y29680600D01*
X9626861Y29680600D01*
X9397354Y29642303D01*
X9177294Y29566755D01*
X9177280Y29566749D01*
X8972655Y29456012D01*
X8972651Y29456010D01*
X8843735Y29355671D01*
X8843735Y29355670D01*
X9200439Y28998965D01*
X9070686Y28882134D01*
X9023292Y28816904D01*
X8663484Y29176712D01*
X8663483Y29176712D01*
X8631454Y29141917D01*
X8504186Y28947119D01*
X8410720Y28734039D01*
X8353601Y28508480D01*
X8334388Y28276607D01*
X8334388Y28276594D01*
X8353601Y28044721D01*
X8410721Y27819159D01*
X8474477Y27673810D01*
X8483380Y27604510D01*
X8453403Y27541398D01*
X8394064Y27504511D01*
X8360921Y27500000D01*
X4572279Y27500000D01*
X4505240Y27519685D01*
X4459485Y27572489D01*
X4449541Y27641647D01*
X4458723Y27673810D01*
X4522478Y27819159D01*
X4579598Y28044721D01*
X4598812Y28276594D01*
X4598812Y28276607D01*
X4579598Y28508480D01*
X4522479Y28734039D01*
X4429012Y28947122D01*
X4301752Y29141908D01*
X4269715Y29176711D01*
X4269714Y29176711D01*
X3909906Y28816904D01*
X3862514Y28882134D01*
X3732759Y28998966D01*
X4089463Y29355670D01*
X4089463Y29355672D01*
X3960555Y29456005D01*
X3960544Y29456012D01*
X3755919Y29566749D01*
X3755905Y29566755D01*
X3535845Y29642303D01*
X3306339Y29680600D01*
X3073661Y29680600D01*
X2844154Y29642303D01*
X2624094Y29566755D01*
X2624080Y29566749D01*
X2419455Y29456012D01*
X2419451Y29456010D01*
X2290535Y29355671D01*
X2290535Y29355670D01*
X2647239Y28998966D01*
X2517486Y28882134D01*
X2470092Y28816904D01*
X2110284Y29176712D01*
X2110283Y29176712D01*
X2078254Y29141917D01*
X1950986Y28947119D01*
X1857520Y28734039D01*
X1800401Y28508480D01*
X1781188Y28276607D01*
X1781188Y28276594D01*
X1800401Y28044721D01*
X1857520Y27819162D01*
X1950987Y27606079D01*
X2078247Y27411293D01*
X2110283Y27376491D01*
X2110284Y27376491D01*
X2470091Y27736299D01*
X2517486Y27671066D01*
X2647239Y27554236D01*
X2290535Y27197532D01*
X2290535Y27197530D01*
X2419444Y27097196D01*
X2419455Y27097189D01*
X2624080Y26986452D01*
X2624094Y26986446D01*
X2844154Y26910898D01*
X2896409Y26902178D01*
X2959294Y26871728D01*
X2995734Y26812114D01*
X3000000Y26779869D01*
X3000000Y23220132D01*
X2980315Y23153093D01*
X2927511Y23107338D01*
X2896410Y23097823D01*
X2844154Y23089103D01*
X2624094Y23013555D01*
X2624080Y23013549D01*
X2419455Y22902812D01*
X2419451Y22902810D01*
X2290535Y22802471D01*
X2290535Y22802470D01*
X2647239Y22445766D01*
X2517486Y22328934D01*
X2470092Y22263704D01*
X2110284Y22623512D01*
X2110283Y22623512D01*
X2078254Y22588717D01*
X1950986Y22393919D01*
X1857520Y22180839D01*
X1800401Y21955280D01*
X1781188Y21723407D01*
X1781188Y21723394D01*
X381500Y21723394D01*
X381500Y30099998D01*
X44413745Y30099998D01*
X44432648Y29980644D01*
X44487511Y29872967D01*
X44572966Y29787512D01*
X44680643Y29732649D01*
X44799998Y29713745D01*
X44800000Y29713745D01*
X44800002Y29713745D01*
X44919356Y29732649D01*
X44919357Y29732650D01*
X44919359Y29732650D01*
X45027035Y29787513D01*
X45112487Y29872965D01*
X45167350Y29980641D01*
X45167350Y29980643D01*
X45167351Y29980644D01*
X45186255Y30099998D01*
X45186255Y30100003D01*
X45167351Y30219357D01*
X45126263Y30299998D01*
X45513745Y30299998D01*
X45532648Y30180644D01*
X45587511Y30072967D01*
X45672966Y29987512D01*
X45780643Y29932649D01*
X45899998Y29913745D01*
X45900000Y29913745D01*
X45900002Y29913745D01*
X46019356Y29932649D01*
X46019357Y29932650D01*
X46019359Y29932650D01*
X46127035Y29987513D01*
X46212487Y30072965D01*
X46226261Y30099998D01*
X48113745Y30099998D01*
X48132648Y29980644D01*
X48187511Y29872967D01*
X48272966Y29787512D01*
X48380643Y29732649D01*
X48499998Y29713745D01*
X48500000Y29713745D01*
X48500002Y29713745D01*
X48619356Y29732649D01*
X48619357Y29732650D01*
X48619359Y29732650D01*
X48727035Y29787513D01*
X48812487Y29872965D01*
X48826261Y29899998D01*
X53213745Y29899998D01*
X53232648Y29780644D01*
X53287511Y29672967D01*
X53372966Y29587512D01*
X53480643Y29532649D01*
X53599998Y29513745D01*
X53600000Y29513745D01*
X53600002Y29513745D01*
X53719356Y29532649D01*
X53719357Y29532650D01*
X53719359Y29532650D01*
X53827035Y29587513D01*
X53912487Y29672965D01*
X53926261Y29699998D01*
X59213745Y29699998D01*
X59232648Y29580644D01*
X59287511Y29472967D01*
X59372966Y29387512D01*
X59480643Y29332649D01*
X59599998Y29313745D01*
X59600000Y29313745D01*
X59600002Y29313745D01*
X59639482Y29319998D01*
X72367020Y29319998D01*
X72387276Y29140211D01*
X72429896Y29018411D01*
X72445798Y28972965D01*
X72447036Y28969429D01*
X72532980Y28832650D01*
X72543296Y28816233D01*
X72671233Y28688296D01*
X72824431Y28592035D01*
X72929626Y28555226D01*
X72995210Y28532277D01*
X73081354Y28522572D01*
X73129909Y28517101D01*
X73129910Y28517100D01*
X73915304Y28517100D01*
X73982343Y28497415D01*
X74028098Y28444611D01*
X74038042Y28375453D01*
X74017759Y28323250D01*
X74010485Y28312582D01*
X74010484Y28312580D01*
X73972500Y28189437D01*
X73972500Y27842956D01*
X73986878Y27747570D01*
X74042793Y27631459D01*
X74075435Y27596280D01*
X74130447Y27536992D01*
X74242052Y27472556D01*
X74367692Y27443880D01*
X74496202Y27453510D01*
X74616164Y27500592D01*
X74716920Y27580942D01*
X74789515Y27687419D01*
X74827500Y27810565D01*
X74827500Y28157039D01*
X74813122Y28252431D01*
X74757207Y28368540D01*
X74757206Y28368541D01*
X74757206Y28368542D01*
X74669553Y28463008D01*
X74669546Y28463014D01*
X74665717Y28465224D01*
X74662362Y28468742D01*
X74662285Y28468804D01*
X74662293Y28468815D01*
X74617503Y28515792D01*
X74604282Y28584400D01*
X74630252Y28649264D01*
X74661744Y28677601D01*
X74678767Y28688296D01*
X74806704Y28816233D01*
X74902965Y28969431D01*
X74916409Y29007854D01*
X74957132Y29064630D01*
X75022084Y29090378D01*
X75033452Y29090900D01*
X75991548Y29090900D01*
X76058587Y29071215D01*
X76104342Y29018411D01*
X76108590Y29007854D01*
X76122034Y28969432D01*
X76207980Y28832650D01*
X76218296Y28816233D01*
X76346233Y28688296D01*
X76499431Y28592035D01*
X76604626Y28555226D01*
X76670210Y28532277D01*
X76756354Y28522572D01*
X76804909Y28517101D01*
X76804910Y28517100D01*
X76804914Y28517100D01*
X78195090Y28517100D01*
X78195090Y28517101D01*
X78256174Y28523984D01*
X78329789Y28532277D01*
X78329792Y28532278D01*
X78500569Y28592035D01*
X78653767Y28688296D01*
X78781704Y28816233D01*
X78877965Y28969431D01*
X78937722Y29140208D01*
X78937722Y29140209D01*
X78937723Y29140211D01*
X78957980Y29319998D01*
X78957980Y29320003D01*
X78937723Y29499790D01*
X78923377Y29540788D01*
X78877965Y29670569D01*
X78781704Y29823767D01*
X78653767Y29951704D01*
X78607714Y29980641D01*
X78500571Y30047964D01*
X78500570Y30047965D01*
X78500569Y30047965D01*
X78459573Y30062310D01*
X78329789Y30107724D01*
X78195090Y30122900D01*
X78195086Y30122900D01*
X76804914Y30122900D01*
X76804910Y30122900D01*
X76670210Y30107724D01*
X76499428Y30047964D01*
X76346232Y29951704D01*
X76218296Y29823768D01*
X76122034Y29670569D01*
X76108590Y29632146D01*
X76067868Y29575370D01*
X76002916Y29549622D01*
X75991548Y29549100D01*
X75033452Y29549100D01*
X74966413Y29568785D01*
X74920658Y29621589D01*
X74916410Y29632146D01*
X74902965Y29670569D01*
X74863957Y29732650D01*
X74806704Y29823767D01*
X74678767Y29951704D01*
X74632714Y29980641D01*
X74525571Y30047964D01*
X74525570Y30047965D01*
X74525569Y30047965D01*
X74484573Y30062310D01*
X74354789Y30107724D01*
X74220090Y30122900D01*
X74220086Y30122900D01*
X73129914Y30122900D01*
X73129910Y30122900D01*
X72995210Y30107724D01*
X72824428Y30047964D01*
X72671232Y29951704D01*
X72543296Y29823768D01*
X72447036Y29670572D01*
X72387276Y29499790D01*
X72367020Y29320003D01*
X72367020Y29319998D01*
X59639482Y29319998D01*
X59719356Y29332649D01*
X59719357Y29332650D01*
X59719359Y29332650D01*
X59827035Y29387513D01*
X59912487Y29472965D01*
X59967350Y29580641D01*
X59967350Y29580643D01*
X59967351Y29580644D01*
X59986255Y29699998D01*
X59986255Y29709759D01*
X59990008Y29709759D01*
X59996573Y29760622D01*
X60022415Y29798421D01*
X62058576Y31834581D01*
X62119900Y31868066D01*
X62146258Y31870900D01*
X64738216Y31870900D01*
X64805255Y31851215D01*
X64825897Y31834581D01*
X64872966Y31787512D01*
X64980643Y31732649D01*
X65099998Y31713745D01*
X65100000Y31713745D01*
X65100002Y31713745D01*
X65219356Y31732649D01*
X65219357Y31732650D01*
X65219359Y31732650D01*
X65327035Y31787513D01*
X65412487Y31872965D01*
X65467350Y31980641D01*
X65467350Y31980643D01*
X65467351Y31980644D01*
X65486255Y32099998D01*
X65486255Y32100003D01*
X65467351Y32219357D01*
X65412488Y32327034D01*
X65327033Y32412489D01*
X65219356Y32467352D01*
X65100002Y32486255D01*
X65099998Y32486255D01*
X64980643Y32467352D01*
X64872966Y32412489D01*
X64825897Y32365419D01*
X64764574Y32331934D01*
X64738216Y32329100D01*
X62007631Y32329100D01*
X62004388Y32329185D01*
X61983469Y32330282D01*
X61963362Y32331335D01*
X61963358Y32331335D01*
X61943833Y32323840D01*
X61925185Y32318317D01*
X61904736Y32313970D01*
X61904735Y32313970D01*
X61902940Y32312665D01*
X61874510Y32297229D01*
X61872438Y32296434D01*
X61872431Y32296430D01*
X61857648Y32281646D01*
X61842858Y32269013D01*
X61825940Y32256722D01*
X61824832Y32254801D01*
X61805131Y32229129D01*
X59698420Y30122419D01*
X59637097Y30088934D01*
X59609758Y30088148D01*
X59609758Y30086255D01*
X59599997Y30086255D01*
X59480643Y30067352D01*
X59372966Y30012489D01*
X59287511Y29927034D01*
X59232648Y29819357D01*
X59213745Y29700003D01*
X59213745Y29699998D01*
X53926261Y29699998D01*
X53967350Y29780641D01*
X53967350Y29780643D01*
X53967351Y29780644D01*
X53986255Y29899998D01*
X53986255Y29900003D01*
X53967351Y30019357D01*
X53912488Y30127034D01*
X53827033Y30212489D01*
X53719356Y30267352D01*
X53600002Y30286255D01*
X53599998Y30286255D01*
X53480643Y30267352D01*
X53372966Y30212489D01*
X53287511Y30127034D01*
X53232648Y30019357D01*
X53213745Y29900003D01*
X53213745Y29899998D01*
X48826261Y29899998D01*
X48867350Y29980641D01*
X48867350Y29980643D01*
X48867351Y29980644D01*
X48886255Y30099998D01*
X48886255Y30100003D01*
X48867351Y30219357D01*
X48812488Y30327034D01*
X48727033Y30412489D01*
X48619356Y30467352D01*
X48500002Y30486255D01*
X48499998Y30486255D01*
X48380643Y30467352D01*
X48272966Y30412489D01*
X48187511Y30327034D01*
X48132648Y30219357D01*
X48113745Y30100003D01*
X48113745Y30099998D01*
X46226261Y30099998D01*
X46267350Y30180641D01*
X46267350Y30180643D01*
X46267351Y30180644D01*
X46286255Y30299998D01*
X46286255Y30300003D01*
X46267351Y30419357D01*
X46212488Y30527034D01*
X46172777Y30566745D01*
X46139292Y30628068D01*
X46137055Y30666574D01*
X46142714Y30724036D01*
X46147456Y30747871D01*
X46157913Y30782347D01*
X46184234Y30869120D01*
X46193530Y30891565D01*
X46253260Y31003316D01*
X46266758Y31023518D01*
X46352901Y31128486D01*
X46356960Y31132964D01*
X46369175Y31145180D01*
X49354820Y34130825D01*
X49366969Y34142974D01*
X49371438Y34147023D01*
X49476485Y34233232D01*
X49496689Y34246731D01*
X49608439Y34306461D01*
X49630880Y34315756D01*
X49752140Y34352539D01*
X49775963Y34357277D01*
X49911276Y34370602D01*
X49917356Y34370900D01*
X49954607Y34370900D01*
X67180385Y34370900D01*
X67227568Y34357046D01*
X67229060Y34360645D01*
X67240340Y34355974D01*
X67240342Y34355972D01*
X67284943Y34347100D01*
X70115056Y34347101D01*
X70159658Y34355972D01*
X70210234Y34389766D01*
X70244028Y34440342D01*
X70252900Y34484943D01*
X70252899Y37315056D01*
X70244028Y37359658D01*
X70244026Y37359660D01*
X70244026Y37359662D01*
X70210234Y37410234D01*
X70200267Y37416894D01*
X70159658Y37444028D01*
X70159657Y37444029D01*
X70159656Y37444029D01*
X70159654Y37444030D01*
X70115059Y37452900D01*
X67284945Y37452900D01*
X67240341Y37444028D01*
X67240338Y37444027D01*
X67189766Y37410235D01*
X67155971Y37359657D01*
X67155970Y37359655D01*
X67147100Y37315060D01*
X67147101Y34953100D01*
X67127416Y34886061D01*
X67074613Y34840306D01*
X67023101Y34829100D01*
X49886822Y34829100D01*
X49886639Y34829092D01*
X49817487Y34829092D01*
X49817486Y34829092D01*
X49817485Y34829092D01*
X49626403Y34798830D01*
X49626399Y34798829D01*
X49626394Y34798828D01*
X49442412Y34739051D01*
X49270026Y34651220D01*
X49113510Y34537506D01*
X49079543Y34503540D01*
X49079543Y34503539D01*
X49045110Y34469107D01*
X49026467Y34450463D01*
X47554311Y32978308D01*
X46065262Y31489260D01*
X46065233Y31489245D01*
X45962488Y31386498D01*
X45962484Y31386493D01*
X45848771Y31229977D01*
X45760944Y31057603D01*
X45760939Y31057591D01*
X45701160Y30873602D01*
X45670898Y30682516D01*
X45670898Y30661784D01*
X45651213Y30594745D01*
X45634581Y30574104D01*
X45587510Y30527033D01*
X45532648Y30419357D01*
X45513745Y30300003D01*
X45513745Y30299998D01*
X45126263Y30299998D01*
X45112488Y30327034D01*
X45027033Y30412489D01*
X44919356Y30467352D01*
X44800002Y30486255D01*
X44799998Y30486255D01*
X44680643Y30467352D01*
X44572966Y30412489D01*
X44487511Y30327034D01*
X44432648Y30219357D01*
X44413745Y30100003D01*
X44413745Y30099998D01*
X381500Y30099998D01*
X381500Y37534946D01*
X48497100Y37534946D01*
X48505972Y37490342D01*
X48505973Y37490339D01*
X48539765Y37439767D01*
X48539766Y37439766D01*
X48590342Y37405972D01*
X48590343Y37405972D01*
X48590345Y37405971D01*
X48612642Y37401536D01*
X48634943Y37397100D01*
X50365056Y37397101D01*
X50409658Y37405972D01*
X50460234Y37439766D01*
X50494028Y37490342D01*
X50502900Y37534943D01*
X50502899Y38400000D01*
X51032247Y38400000D01*
X51051610Y38203401D01*
X51051610Y38203399D01*
X51051611Y38203397D01*
X51108958Y38014350D01*
X51170079Y37900000D01*
X51202086Y37840119D01*
X51327410Y37687411D01*
X51480118Y37562087D01*
X51480122Y37562084D01*
X51654350Y37468958D01*
X51843397Y37411611D01*
X52040000Y37392247D01*
X52236603Y37411611D01*
X52425650Y37468958D01*
X52599878Y37562084D01*
X52752589Y37687411D01*
X52877916Y37840122D01*
X52971042Y38014350D01*
X53028389Y38203397D01*
X53047753Y38400000D01*
X53035244Y38527001D01*
X53483037Y38527001D01*
X53483038Y38527000D01*
X54096182Y38527000D01*
X54080000Y38471889D01*
X54080000Y38328111D01*
X54096182Y38273000D01*
X53483038Y38273000D01*
X53490147Y38196273D01*
X53546139Y37999484D01*
X53546144Y37999471D01*
X53637339Y37816329D01*
X53760640Y37653051D01*
X53911836Y37515218D01*
X53911842Y37515214D01*
X54085793Y37407508D01*
X54085808Y37407501D01*
X54276574Y37333597D01*
X54453000Y37300619D01*
X54453000Y37913119D01*
X54544237Y37900000D01*
X54615763Y37900000D01*
X54707000Y37913119D01*
X54707000Y37300619D01*
X54883425Y37333597D01*
X55074191Y37407501D01*
X55074206Y37407508D01*
X55248157Y37515214D01*
X55248163Y37515218D01*
X55399359Y37653051D01*
X55522660Y37816329D01*
X55613855Y37999471D01*
X55613860Y37999484D01*
X55669852Y38196273D01*
X55676962Y38273000D01*
X55063818Y38273000D01*
X55080000Y38328111D01*
X55080000Y38471889D01*
X55063818Y38527000D01*
X55676962Y38527000D01*
X55676962Y38527001D01*
X55669852Y38603728D01*
X55613860Y38800517D01*
X55613855Y38800530D01*
X55522660Y38983672D01*
X55399359Y39146950D01*
X55248163Y39284783D01*
X55248157Y39284787D01*
X55074206Y39392493D01*
X55074200Y39392495D01*
X54883415Y39466405D01*
X54707000Y39499383D01*
X54707000Y38886882D01*
X54615763Y38900000D01*
X54544237Y38900000D01*
X54453000Y38886882D01*
X54453000Y39499383D01*
X54276584Y39466405D01*
X54276583Y39466405D01*
X54085799Y39392495D01*
X54085793Y39392493D01*
X53911842Y39284787D01*
X53911836Y39284783D01*
X53760640Y39146950D01*
X53637339Y38983672D01*
X53546144Y38800530D01*
X53546139Y38800517D01*
X53490147Y38603728D01*
X53483037Y38527001D01*
X53035244Y38527001D01*
X53028389Y38596603D01*
X52971042Y38785650D01*
X52877916Y38959878D01*
X52858389Y38983672D01*
X52752589Y39112590D01*
X52599881Y39237914D01*
X52599879Y39237915D01*
X52599878Y39237916D01*
X52425650Y39331042D01*
X52236603Y39388389D01*
X52236601Y39388390D01*
X52236599Y39388390D01*
X52040000Y39407753D01*
X51843400Y39388390D01*
X51654350Y39331042D01*
X51480118Y39237914D01*
X51327410Y39112590D01*
X51202086Y38959882D01*
X51108958Y38785650D01*
X51051610Y38596600D01*
X51032247Y38400000D01*
X50502899Y38400000D01*
X50502899Y39265056D01*
X50494028Y39309658D01*
X50494026Y39309660D01*
X50494026Y39309662D01*
X50460234Y39360234D01*
X50418097Y39388389D01*
X50409658Y39394028D01*
X50409657Y39394029D01*
X50409656Y39394029D01*
X50409654Y39394030D01*
X50365059Y39402900D01*
X48634945Y39402900D01*
X48590341Y39394028D01*
X48590338Y39394027D01*
X48539766Y39360235D01*
X48505971Y39309657D01*
X48505970Y39309655D01*
X48497100Y39265060D01*
X48497100Y37534946D01*
X381500Y37534946D01*
X381500Y39550235D01*
X69018720Y39550235D01*
X69048823Y39353732D01*
X69048827Y39353716D01*
X69098209Y39220382D01*
X69117870Y39167295D01*
X69223030Y38998581D01*
X69223031Y38998580D01*
X69223033Y38998577D01*
X69359996Y38854492D01*
X69359998Y38854491D01*
X69360000Y38854489D01*
X69437525Y38800530D01*
X69523169Y38740920D01*
X69523170Y38740920D01*
X69523171Y38740919D01*
X69705863Y38662519D01*
X69900598Y38622500D01*
X70049572Y38622500D01*
X70197785Y38637572D01*
X70277297Y38662519D01*
X70387471Y38697086D01*
X70561294Y38793566D01*
X70712139Y38923062D01*
X70833828Y39080271D01*
X70921380Y39258758D01*
X70945966Y39353716D01*
X70971209Y39451208D01*
X70971210Y39451214D01*
X70971211Y39451216D01*
X70981280Y39649765D01*
X70951175Y39846276D01*
X70882130Y40032705D01*
X70776970Y40201419D01*
X70776967Y40201422D01*
X70776966Y40201424D01*
X70640003Y40345509D01*
X70640001Y40345510D01*
X70476830Y40459081D01*
X70294135Y40537482D01*
X70099402Y40577500D01*
X69950429Y40577500D01*
X69950428Y40577500D01*
X69802214Y40562429D01*
X69612536Y40502917D01*
X69612527Y40502913D01*
X69438704Y40406433D01*
X69438703Y40406433D01*
X69287861Y40276940D01*
X69287860Y40276939D01*
X69166173Y40119732D01*
X69166171Y40119728D01*
X69078618Y39941239D01*
X69028790Y39748793D01*
X69028789Y39748787D01*
X69018720Y39550235D01*
X381500Y39550235D01*
X381500Y40399998D01*
X55713745Y40399998D01*
X55732648Y40280644D01*
X55787511Y40172967D01*
X55872966Y40087512D01*
X55980643Y40032649D01*
X56099998Y40013745D01*
X56100000Y40013745D01*
X56100002Y40013745D01*
X56219356Y40032649D01*
X56219357Y40032650D01*
X56219359Y40032650D01*
X56327035Y40087513D01*
X56412487Y40172965D01*
X56467350Y40280641D01*
X56467350Y40280643D01*
X56467351Y40280644D01*
X56486255Y40399998D01*
X56486255Y40400003D01*
X56467351Y40519357D01*
X56412488Y40627034D01*
X56327033Y40712489D01*
X56219356Y40767352D01*
X56100002Y40786255D01*
X56099998Y40786255D01*
X55980643Y40767352D01*
X55872966Y40712489D01*
X55787511Y40627034D01*
X55732648Y40519357D01*
X55713745Y40400003D01*
X55713745Y40399998D01*
X381500Y40399998D01*
X381500Y41274998D01*
X63488745Y41274998D01*
X63507648Y41155644D01*
X63562511Y41047967D01*
X63647966Y40962512D01*
X63755643Y40907649D01*
X63874998Y40888745D01*
X63875000Y40888745D01*
X63875002Y40888745D01*
X63994356Y40907649D01*
X63994357Y40907650D01*
X63994359Y40907650D01*
X64102035Y40962513D01*
X64187487Y41047965D01*
X64242350Y41155641D01*
X64242350Y41155643D01*
X64242351Y41155644D01*
X64261255Y41274998D01*
X64261255Y41275003D01*
X64242351Y41394357D01*
X64187488Y41502034D01*
X64102033Y41587489D01*
X63994356Y41642352D01*
X63875002Y41661255D01*
X63874998Y41661255D01*
X63755643Y41642352D01*
X63647966Y41587489D01*
X63562511Y41502034D01*
X63507648Y41394357D01*
X63488745Y41275003D01*
X63488745Y41274998D01*
X381500Y41274998D01*
X381500Y43199998D01*
X55613745Y43199998D01*
X55632648Y43080644D01*
X55687511Y42972967D01*
X55772966Y42887512D01*
X55880643Y42832649D01*
X55999998Y42813745D01*
X56000000Y42813745D01*
X56000002Y42813745D01*
X56119356Y42832649D01*
X56119357Y42832650D01*
X56119359Y42832650D01*
X56227035Y42887513D01*
X56227037Y42887516D01*
X56234926Y42893246D01*
X56236548Y42891014D01*
X56284626Y42917266D01*
X56310984Y42920100D01*
X74723101Y42920100D01*
X74790140Y42900415D01*
X74835895Y42847611D01*
X74847101Y42796100D01*
X74847100Y42094302D01*
X74827415Y42027262D01*
X74810781Y42006621D01*
X72343680Y39539520D01*
X72337198Y39533878D01*
X72328399Y39527234D01*
X72298468Y39494401D01*
X72296494Y39492333D01*
X72283741Y39479579D01*
X72283731Y39479568D01*
X72282486Y39477750D01*
X72277161Y39471030D01*
X72257903Y39449904D01*
X72257902Y39449902D01*
X72255925Y39444799D01*
X72242605Y39419530D01*
X72239518Y39415024D01*
X72239515Y39415018D01*
X72239514Y39415016D01*
X72233251Y39388390D01*
X72232969Y39387189D01*
X72230426Y39378980D01*
X72220100Y39352325D01*
X72220100Y39346858D01*
X72216807Y39318471D01*
X72215556Y39313154D01*
X72215556Y39313151D01*
X72219505Y39284844D01*
X72220100Y39276268D01*
X72220100Y35410985D01*
X72200415Y35343946D01*
X72193183Y35334972D01*
X72193246Y35334926D01*
X72187512Y35327035D01*
X72132648Y35219357D01*
X72113745Y35100003D01*
X72113745Y35099998D01*
X72132648Y34980644D01*
X72187511Y34872967D01*
X72272966Y34787512D01*
X72380643Y34732649D01*
X72499998Y34713745D01*
X72500000Y34713745D01*
X72500002Y34713745D01*
X72619356Y34732649D01*
X72619357Y34732650D01*
X72619359Y34732650D01*
X72727035Y34787513D01*
X72812487Y34872965D01*
X72867350Y34980641D01*
X72867350Y34980643D01*
X72867351Y34980644D01*
X72886255Y35099998D01*
X72886255Y35100003D01*
X72867351Y35219357D01*
X72812487Y35327035D01*
X72806754Y35334926D01*
X72808984Y35336547D01*
X72782730Y35384646D01*
X72779900Y35410985D01*
X72779900Y35773000D01*
X76746001Y35773000D01*
X76746001Y34474986D01*
X76760737Y34400894D01*
X76760738Y34400891D01*
X76816876Y34316877D01*
X76900895Y34260737D01*
X76900896Y34260736D01*
X76974980Y34246001D01*
X77972999Y34246001D01*
X77973000Y34246002D01*
X77973000Y35773000D01*
X76746001Y35773000D01*
X72779900Y35773000D01*
X72779900Y37325018D01*
X76745999Y37325018D01*
X76746000Y36027001D01*
X76746000Y36027000D01*
X77973000Y36027000D01*
X77973000Y37554000D01*
X76974985Y37554000D01*
X76900893Y37539263D01*
X76900890Y37539262D01*
X76816876Y37483124D01*
X76760736Y37399105D01*
X76760735Y37399104D01*
X76746000Y37325022D01*
X76745999Y37325018D01*
X72779900Y37325018D01*
X72779900Y39132701D01*
X72799585Y39199740D01*
X72816214Y39220377D01*
X73146072Y39550235D01*
X76018720Y39550235D01*
X76048823Y39353732D01*
X76048827Y39353716D01*
X76098209Y39220382D01*
X76117870Y39167295D01*
X76223030Y38998581D01*
X76223031Y38998580D01*
X76223033Y38998577D01*
X76359996Y38854492D01*
X76359998Y38854491D01*
X76360000Y38854489D01*
X76437525Y38800530D01*
X76523169Y38740920D01*
X76523170Y38740920D01*
X76523171Y38740919D01*
X76705863Y38662519D01*
X76900598Y38622500D01*
X77049572Y38622500D01*
X77197785Y38637572D01*
X77277297Y38662519D01*
X77387471Y38697086D01*
X77561294Y38793566D01*
X77712139Y38923062D01*
X77833828Y39080271D01*
X77921380Y39258758D01*
X77945966Y39353716D01*
X77971209Y39451208D01*
X77971210Y39451214D01*
X77971211Y39451216D01*
X77981280Y39649765D01*
X77951175Y39846276D01*
X77882130Y40032705D01*
X77776970Y40201419D01*
X77776967Y40201422D01*
X77776966Y40201424D01*
X77640003Y40345509D01*
X77640001Y40345510D01*
X77476830Y40459081D01*
X77294135Y40537482D01*
X77099402Y40577500D01*
X76950429Y40577500D01*
X76950428Y40577500D01*
X76802214Y40562429D01*
X76612536Y40502917D01*
X76612527Y40502913D01*
X76438704Y40406433D01*
X76438703Y40406433D01*
X76287861Y40276940D01*
X76287860Y40276939D01*
X76166173Y40119732D01*
X76166171Y40119728D01*
X76078618Y39941239D01*
X76028790Y39748793D01*
X76028789Y39748787D01*
X76018720Y39550235D01*
X73146072Y39550235D01*
X75306619Y41710783D01*
X75367942Y41744267D01*
X75394300Y41747101D01*
X77215055Y41747101D01*
X77215056Y41747101D01*
X77259658Y41755972D01*
X77310234Y41789766D01*
X77344028Y41840342D01*
X77352900Y41884943D01*
X77352899Y44715056D01*
X77344028Y44759658D01*
X77344026Y44759660D01*
X77344026Y44759662D01*
X77310234Y44810234D01*
X77259659Y44844027D01*
X77259658Y44844028D01*
X77259657Y44844029D01*
X77259656Y44844029D01*
X77259654Y44844030D01*
X77215059Y44852900D01*
X74984945Y44852900D01*
X74940341Y44844028D01*
X74940338Y44844027D01*
X74889766Y44810235D01*
X74855971Y44759657D01*
X74855970Y44759655D01*
X74847099Y44715060D01*
X74847100Y43603900D01*
X74827415Y43536861D01*
X74774611Y43491106D01*
X74723100Y43479900D01*
X56310984Y43479900D01*
X56243945Y43499585D01*
X56234971Y43506817D01*
X56234926Y43506754D01*
X56227034Y43512488D01*
X56119356Y43567352D01*
X56000002Y43586255D01*
X55999998Y43586255D01*
X55880643Y43567352D01*
X55772966Y43512489D01*
X55687511Y43427034D01*
X55632648Y43319357D01*
X55613745Y43200003D01*
X55613745Y43199998D01*
X381500Y43199998D01*
X381500Y46998259D01*
X381598Y47001736D01*
X385227Y47066363D01*
X1268687Y47066363D01*
X1278846Y46801301D01*
X1329350Y46540894D01*
X1419009Y46291257D01*
X1419012Y46291250D01*
X1545726Y46058228D01*
X1545729Y46058223D01*
X1628480Y45949664D01*
X1706534Y45847267D01*
X1897657Y45663330D01*
X2114617Y45510723D01*
X2352331Y45393024D01*
X2605225Y45312991D01*
X2867372Y45272500D01*
X2867376Y45272500D01*
X3066219Y45272500D01*
X3066220Y45272500D01*
X3264478Y45287721D01*
X3522756Y45348161D01*
X3568836Y45366734D01*
X3768774Y45447314D01*
X3768779Y45447317D01*
X3768782Y45447318D01*
X3996788Y45582869D01*
X4201430Y45751636D01*
X4377912Y45949664D01*
X4448215Y46058224D01*
X4522094Y46172306D01*
X4522094Y46172308D01*
X4522096Y46172310D01*
X4630604Y46414357D01*
X4700892Y46670131D01*
X4731313Y46933637D01*
X4726226Y47066363D01*
X75268687Y47066363D01*
X75278846Y46801301D01*
X75329350Y46540894D01*
X75419009Y46291257D01*
X75419012Y46291250D01*
X75545726Y46058228D01*
X75545729Y46058223D01*
X75628480Y45949664D01*
X75706534Y45847267D01*
X75897657Y45663330D01*
X76114617Y45510723D01*
X76352331Y45393024D01*
X76605225Y45312991D01*
X76867372Y45272500D01*
X76867376Y45272500D01*
X77066219Y45272500D01*
X77066220Y45272500D01*
X77264478Y45287721D01*
X77522756Y45348161D01*
X77568836Y45366734D01*
X77768774Y45447314D01*
X77768779Y45447317D01*
X77768782Y45447318D01*
X77996788Y45582869D01*
X78201430Y45751636D01*
X78377912Y45949664D01*
X78448215Y46058224D01*
X78522094Y46172306D01*
X78522094Y46172308D01*
X78522096Y46172310D01*
X78630604Y46414357D01*
X78700892Y46670131D01*
X78731313Y46933637D01*
X78721153Y47198699D01*
X78702829Y47293179D01*
X78670649Y47459107D01*
X78580990Y47708744D01*
X78580987Y47708751D01*
X78454273Y47941773D01*
X78454270Y47941778D01*
X78293469Y48152729D01*
X78293466Y48152733D01*
X78102343Y48336670D01*
X78018040Y48395968D01*
X77885382Y48489278D01*
X77647670Y48606976D01*
X77647667Y48606977D01*
X77394777Y48687009D01*
X77289916Y48703206D01*
X77132628Y48727500D01*
X76933780Y48727500D01*
X76735522Y48712279D01*
X76735518Y48712279D01*
X76477246Y48651840D01*
X76477236Y48651837D01*
X76231225Y48552687D01*
X76231216Y48552682D01*
X76003213Y48417132D01*
X75798571Y48248365D01*
X75622088Y48050337D01*
X75622081Y48050328D01*
X75477905Y47827695D01*
X75477904Y47827691D01*
X75369395Y47585643D01*
X75299108Y47329872D01*
X75268687Y47066363D01*
X4726226Y47066363D01*
X4721153Y47198699D01*
X4702829Y47293179D01*
X4670649Y47459107D01*
X4580990Y47708744D01*
X4580987Y47708751D01*
X4454273Y47941773D01*
X4454270Y47941778D01*
X4293469Y48152729D01*
X4293466Y48152733D01*
X4102343Y48336670D01*
X4018040Y48395968D01*
X3885382Y48489278D01*
X3647670Y48606976D01*
X3647667Y48606977D01*
X3394777Y48687009D01*
X3289916Y48703206D01*
X3132628Y48727500D01*
X2933780Y48727500D01*
X2735522Y48712279D01*
X2735518Y48712279D01*
X2477246Y48651840D01*
X2477236Y48651837D01*
X2231225Y48552687D01*
X2231216Y48552682D01*
X2003213Y48417132D01*
X1798571Y48248365D01*
X1622088Y48050337D01*
X1622081Y48050328D01*
X1477905Y47827695D01*
X1477904Y47827691D01*
X1369395Y47585643D01*
X1299108Y47329872D01*
X1268687Y47066363D01*
X385227Y47066363D01*
X388212Y47119520D01*
X397770Y47289715D01*
X398545Y47296598D01*
X446567Y47579239D01*
X448115Y47586018D01*
X527480Y47861502D01*
X529775Y47868056D01*
X560311Y47941776D01*
X639486Y48132924D01*
X642498Y48139174D01*
X683568Y48213484D01*
X781169Y48390081D01*
X784865Y48395962D01*
X950757Y48629765D01*
X955089Y48635199D01*
X1146121Y48848964D01*
X1151039Y48853881D01*
X1364801Y49044911D01*
X1370235Y49049243D01*
X1439294Y49098244D01*
X1604038Y49215135D01*
X1609919Y49218831D01*
X1860827Y49357503D01*
X1867076Y49360514D01*
X2090547Y49453079D01*
X2131944Y49470225D01*
X2138498Y49472520D01*
X2413986Y49551886D01*
X2420761Y49553433D01*
X2703402Y49601455D01*
X2710285Y49602230D01*
X2873089Y49611373D01*
X2998265Y49618402D01*
X3001742Y49618500D01*
X3054851Y49618500D01*
X76945149Y49618500D01*
X76998258Y49618500D01*
X77001735Y49618402D01*
G37*
G04 #@! TD.AperFunction*
G04 #@! TD*
M02*
