G04 #@! TF.GenerationSoftware,KiCad,Pcbnew,8.0.4-8.0.4-0~ubuntu22.04.1*
G04 #@! TF.CreationDate,2024-08-15T16:32:52-07:00*
G04 #@! TF.ProjectId,harp_lick_detector_capactive,68617270-5f6c-4696-936b-5f6465746563,rev?*
G04 #@! TF.SameCoordinates,PX640a5a0PY7088980*
G04 #@! TF.FileFunction,Copper,L3,Inr*
G04 #@! TF.FilePolarity,Positive*
%FSLAX46Y46*%
G04 Gerber Fmt 4.6, Leading zero omitted, Abs format (unit mm)*
G04 Created by KiCad (PCBNEW 8.0.4-8.0.4-0~ubuntu22.04.1) date 2024-08-15 16:32:52*
%MOMM*%
%LPD*%
G01*
G04 APERTURE LIST*
G04 #@! TA.AperFunction,ComponentPad*
%ADD10R,2.600000X2.600000*%
G04 #@! TD*
G04 #@! TA.AperFunction,ComponentPad*
%ADD11C,2.600000*%
G04 #@! TD*
G04 #@! TA.AperFunction,ComponentPad*
%ADD12C,2.200000*%
G04 #@! TD*
G04 #@! TA.AperFunction,ComponentPad*
%ADD13C,2.300000*%
G04 #@! TD*
G04 #@! TA.AperFunction,ComponentPad*
%ADD14C,0.600000*%
G04 #@! TD*
G04 #@! TA.AperFunction,HeatsinkPad*
%ADD15C,0.457200*%
G04 #@! TD*
G04 #@! TA.AperFunction,ComponentPad*
%ADD16O,2.300000X1.300000*%
G04 #@! TD*
G04 #@! TA.AperFunction,ComponentPad*
%ADD17O,2.600000X1.300000*%
G04 #@! TD*
G04 #@! TA.AperFunction,ComponentPad*
%ADD18C,2.750000*%
G04 #@! TD*
G04 #@! TA.AperFunction,ComponentPad*
%ADD19R,1.700000X1.700000*%
G04 #@! TD*
G04 #@! TA.AperFunction,ComponentPad*
%ADD20O,1.700000X1.700000*%
G04 #@! TD*
G04 #@! TA.AperFunction,ComponentPad*
%ADD21C,3.000000*%
G04 #@! TD*
G04 #@! TA.AperFunction,ViaPad*
%ADD22C,0.457200*%
G04 #@! TD*
G04 APERTURE END LIST*
D10*
G04 #@! TO.N,+12V*
G04 #@! TO.C,J6*
X65800000Y11250000D03*
D11*
G04 #@! TO.N,GND2*
X71800000Y11250000D03*
G04 #@! TO.N,unconnected-(J6-Pad3)*
X68800000Y15950000D03*
G04 #@! TD*
D12*
G04 #@! TO.N,/Lick Detection Analog Front End/triax_core*
G04 #@! TO.C,J3*
X7000000Y25000000D03*
G04 #@! TO.N,/Lick Detection Analog Front End/triax_inner_shield*
X4460000Y25000000D03*
D13*
G04 #@! TO.N,GND*
X3190000Y21723400D03*
X9743200Y21723400D03*
X3190000Y28276600D03*
X9743200Y28276600D03*
G04 #@! TD*
D14*
G04 #@! TO.N,GND*
G04 #@! TO.C,U11*
X25300000Y7000000D03*
X24300000Y7000000D03*
X23300000Y7000000D03*
G04 #@! TD*
D15*
G04 #@! TO.N,GND*
G04 #@! TO.C,U4*
X47075000Y27037500D03*
X45800000Y27037500D03*
X44525000Y27037500D03*
X47075000Y25762500D03*
X45800000Y25762500D03*
X44525000Y25762500D03*
X47075000Y24487500D03*
X45800000Y24487500D03*
X44525000Y24487500D03*
G04 #@! TD*
D16*
G04 #@! TO.N,GND1*
G04 #@! TO.C,J5*
X73675000Y20680000D03*
D17*
X77500000Y20680000D03*
D16*
X73675000Y29320000D03*
D17*
X77500000Y29320000D03*
G04 #@! TD*
D18*
G04 #@! TO.N,GND*
G04 #@! TO.C,H1*
X10100000Y15750000D03*
X5100000Y15750000D03*
X10100000Y8250000D03*
X5100000Y8250000D03*
G04 #@! TD*
D19*
G04 #@! TO.N,/Harp Core RP2040 + Isolated USB/UART0_TXD*
G04 #@! TO.C,J2*
X49500000Y36000000D03*
D20*
G04 #@! TO.N,/Harp Core RP2040 + Isolated USB/UART0_RXD*
X52040000Y36000000D03*
G04 #@! TO.N,GND*
X54580000Y36000000D03*
G04 #@! TD*
D21*
G04 #@! TO.N,Net-(R43-Pad2)*
G04 #@! TO.C,TP1*
X34300000Y2200000D03*
G04 #@! TD*
D22*
G04 #@! TO.N,GND*
X59100000Y17400000D03*
X33200000Y5800000D03*
X28300000Y36700000D03*
X27650000Y18200000D03*
X22400000Y31900000D03*
X74619498Y44000000D03*
X54700000Y45200000D03*
X32000000Y30600000D03*
X19600000Y27400000D03*
X43270866Y38500000D03*
X24055500Y8600000D03*
X45100000Y14950000D03*
X62900000Y38400000D03*
X49400000Y21400000D03*
X33500000Y33900000D03*
X78000000Y16900000D03*
X35270866Y38500000D03*
X27650000Y31950000D03*
X39850000Y12100000D03*
X18900000Y22500000D03*
X29600000Y8800000D03*
X56100000Y20425000D03*
X36600000Y6320000D03*
X45200000Y8400000D03*
X37400000Y15800000D03*
X77900000Y31100000D03*
X78100000Y34200000D03*
X34400000Y22800000D03*
X53900000Y28100000D03*
X26630366Y35988768D03*
X53900000Y26100000D03*
X65100000Y31300000D03*
X37270866Y38500000D03*
X24500000Y26700000D03*
X50900000Y32600000D03*
X56175000Y6675000D03*
X52300000Y7737500D03*
X39070866Y38500000D03*
X63700000Y43000000D03*
X62100000Y30000000D03*
X48200000Y15000000D03*
X38900000Y24500000D03*
X41270866Y38500000D03*
X33900000Y15794500D03*
X28450000Y9800000D03*
X56100000Y27900000D03*
X19500000Y5100000D03*
X27100000Y39000000D03*
X36600000Y5600000D03*
X22200000Y19100000D03*
X37000000Y19257200D03*
X30900000Y23100000D03*
X61800000Y12600000D03*
X59100000Y16400000D03*
X56825000Y6675000D03*
X48200000Y34000000D03*
X66380502Y40400000D03*
X38800000Y26900000D03*
X32500000Y18700000D03*
X24770866Y37400000D03*
X56100000Y19700000D03*
X75000000Y35200000D03*
X54700000Y42600000D03*
X38900000Y25500000D03*
X50800000Y17400000D03*
X52900000Y23100000D03*
X45200000Y6500000D03*
X61300000Y3350000D03*
X38900000Y19400000D03*
X30200000Y36820000D03*
X30900000Y26800000D03*
X17200000Y20500000D03*
X47500000Y7300000D03*
X39800000Y29200000D03*
X60800000Y7700000D03*
X41900000Y15850000D03*
X73500000Y35100000D03*
X34000000Y23500000D03*
X52300000Y21100000D03*
X45300000Y3300000D03*
X34500000Y25300000D03*
X60200000Y29000000D03*
X52900000Y22100000D03*
X62100000Y38400000D03*
X18800000Y21400000D03*
X22350000Y5900000D03*
X24200000Y23350000D03*
X48600000Y32400000D03*
X29070866Y36000000D03*
X56825000Y10125000D03*
X44700000Y13200000D03*
X33800000Y15200000D03*
X56175000Y10125000D03*
X50800000Y16400000D03*
X60200000Y23300000D03*
X41200000Y21600000D03*
X27575000Y11025000D03*
X29000000Y8800000D03*
X48500000Y7300000D03*
X33000000Y20400000D03*
X34400000Y27200000D03*
X46800000Y18200000D03*
X55900000Y29900000D03*
X64250000Y38300000D03*
X19100000Y28700000D03*
X51200000Y12600000D03*
X35675000Y21100000D03*
X18900000Y5100000D03*
X39256700Y12400000D03*
X26100000Y8000000D03*
X53900000Y27100000D03*
X41200000Y22600000D03*
X43500000Y30100000D03*
G04 #@! TO.N,GND1*
X71800000Y24921900D03*
X71800000Y23769500D03*
G04 #@! TO.N,+1V1*
X48300000Y24000000D03*
X43200000Y25100000D03*
X48300000Y25900000D03*
G04 #@! TO.N,+2V5*
X35000000Y19000000D03*
X30700000Y6300000D03*
X36700000Y7500000D03*
X28619500Y25500000D03*
X24770866Y38525000D03*
X32520000Y26200000D03*
X33800000Y18800000D03*
X21100000Y28700000D03*
X30200000Y37700000D03*
X30700000Y6800000D03*
X20700000Y26800000D03*
G04 #@! TO.N,-2V5*
X29200000Y17800000D03*
X34525000Y14000000D03*
X21000000Y21400000D03*
X32520000Y23800000D03*
X19700000Y8800000D03*
X25600000Y24500000D03*
X29700000Y14000000D03*
X20900000Y22500000D03*
X27070866Y37200000D03*
X31300000Y33850354D03*
X18600000Y8800000D03*
X36325000Y21341730D03*
X29500000Y23800000D03*
X26700000Y24500000D03*
G04 #@! TO.N,+5V*
X60800000Y12000000D03*
X22954467Y4891067D03*
X67000000Y41200000D03*
X24697936Y8596564D03*
X57475000Y12537500D03*
X58125000Y12537500D03*
X48500000Y4900000D03*
X25907443Y5492412D03*
X47500000Y4900000D03*
X60000000Y12600000D03*
X27400000Y5199651D03*
G04 #@! TO.N,Net-(C30-Pad2)*
X24350000Y31956700D03*
X24350000Y30950000D03*
G04 #@! TO.N,VREF_1V25*
X33800000Y8400000D03*
X33800000Y13300000D03*
G04 #@! TO.N,/Lick Detection Analog Front End/triax_inner_shield*
X15900000Y26700000D03*
X7600000Y23300000D03*
X13400000Y26700000D03*
X9600000Y26700000D03*
X8600000Y26700000D03*
X10600000Y23300000D03*
X14900000Y26700000D03*
X11600000Y23300000D03*
X11600000Y26700000D03*
X7600000Y26700000D03*
X9600000Y23300000D03*
X6600000Y26700000D03*
X15900000Y23300000D03*
X8600000Y23300000D03*
X5700000Y26200000D03*
X10600000Y26700000D03*
X5700000Y23800000D03*
X13400000Y23300000D03*
X6600000Y23300000D03*
X14900000Y23300000D03*
G04 #@! TO.N,/Harp Core RP2040 + Isolated USB/HARP_CLK_SYNC*
X46200000Y31750000D03*
G04 #@! TO.N,Net-(U4-GPIO24)*
X62600000Y17900000D03*
X59900000Y17400000D03*
G04 #@! TO.N,Net-(U4-GPIO25)*
X59600000Y29700000D03*
X65100000Y32100000D03*
G04 #@! TO.N,/Harp Core RP2040 + Isolated USB/FREQ_SEL_DIP*
X49400000Y43500000D03*
X46900000Y33900000D03*
X45600000Y32300000D03*
X49400000Y41900000D03*
G04 #@! TO.N,/Harp Core RP2040 + Isolated USB/GAIN_SEL_DIP*
X46300000Y34500000D03*
X45000000Y32900000D03*
G04 #@! TO.N,Net-(C33-Pad2)*
X24450000Y18999500D03*
X24450000Y18000000D03*
G04 #@! TO.N,+3.3V*
X48600000Y30100000D03*
X56100000Y23935000D03*
X63100000Y42300000D03*
X51100000Y26100000D03*
X40800000Y12400000D03*
X48400000Y21400000D03*
X40780000Y29200000D03*
X45100000Y16950000D03*
X41400000Y24100000D03*
X49300000Y22300000D03*
X44700000Y30100000D03*
X50200000Y22800000D03*
X56100000Y21400000D03*
X51600000Y25800000D03*
X56100000Y22665000D03*
X56000000Y39400000D03*
X50100000Y21700000D03*
X56100000Y18855000D03*
X51300000Y39400000D03*
X48200000Y16900000D03*
X55300000Y39700000D03*
X54875000Y12537500D03*
X52300000Y11937500D03*
X53600000Y29900000D03*
X53000000Y12600000D03*
X41300000Y25550000D03*
X55525000Y12537500D03*
X72500000Y35100000D03*
X45340397Y19800000D03*
G04 #@! TO.N,Net-(R43-Pad2)*
X36900000Y10900000D03*
G04 #@! TO.N,FREQ_SEL_2V5*
X38526047Y24019203D03*
X30100000Y24400000D03*
G04 #@! TO.N,GAIN_SEL_2V5*
X27100000Y38200000D03*
X33300000Y32700000D03*
G04 #@! TO.N,Net-(R51-Pad2)*
X30900000Y13300000D03*
X32300000Y12200000D03*
G04 #@! TD*
G04 #@! TA.AperFunction,Conductor*
G04 #@! TO.N,+1V1*
G36*
X45408488Y26080315D02*
G01*
X45454243Y26027511D01*
X45464187Y25958353D01*
X45451934Y25919706D01*
X45432648Y25881857D01*
X45413745Y25762503D01*
X45413745Y25762498D01*
X45432648Y25643144D01*
X45487511Y25535467D01*
X45572966Y25450012D01*
X45680643Y25395149D01*
X45799998Y25376245D01*
X45800000Y25376245D01*
X45800002Y25376245D01*
X45919356Y25395149D01*
X45919357Y25395150D01*
X45919359Y25395150D01*
X46027035Y25450013D01*
X46112487Y25535465D01*
X46167350Y25643141D01*
X46167350Y25643143D01*
X46167351Y25643144D01*
X46186255Y25762498D01*
X46186255Y25762503D01*
X46167351Y25881857D01*
X46148066Y25919706D01*
X46135170Y25988375D01*
X46161447Y26053115D01*
X46218553Y26093372D01*
X46258551Y26100000D01*
X46616449Y26100000D01*
X46683488Y26080315D01*
X46729243Y26027511D01*
X46739187Y25958353D01*
X46726934Y25919706D01*
X46707648Y25881857D01*
X46688745Y25762503D01*
X46688745Y25762498D01*
X46707648Y25643144D01*
X46762511Y25535467D01*
X46847966Y25450012D01*
X46955643Y25395149D01*
X47074998Y25376245D01*
X47075000Y25376245D01*
X47075002Y25376245D01*
X47194356Y25395149D01*
X47194357Y25395150D01*
X47194359Y25395150D01*
X47302035Y25450013D01*
X47387487Y25535465D01*
X47442350Y25643141D01*
X47442350Y25643143D01*
X47442351Y25643144D01*
X47461255Y25762498D01*
X47461255Y25762503D01*
X47442351Y25881857D01*
X47423066Y25919706D01*
X47410170Y25988375D01*
X47436447Y26053115D01*
X47493553Y26093372D01*
X47533551Y26100000D01*
X48776000Y26100000D01*
X48843039Y26080315D01*
X48888794Y26027511D01*
X48900000Y25976000D01*
X48900000Y23924000D01*
X48880315Y23856961D01*
X48827511Y23811206D01*
X48776000Y23800000D01*
X42824000Y23800000D01*
X42756961Y23819685D01*
X42711206Y23872489D01*
X42700000Y23924000D01*
X42700000Y24487503D01*
X44138745Y24487503D01*
X44138745Y24487498D01*
X44157648Y24368144D01*
X44212511Y24260467D01*
X44297966Y24175012D01*
X44405643Y24120149D01*
X44524998Y24101245D01*
X44525000Y24101245D01*
X44525002Y24101245D01*
X44644356Y24120149D01*
X44644357Y24120150D01*
X44644359Y24120150D01*
X44752035Y24175013D01*
X44837487Y24260465D01*
X44892350Y24368141D01*
X44892350Y24368143D01*
X44892351Y24368144D01*
X44911255Y24487498D01*
X44911255Y24487503D01*
X45413745Y24487503D01*
X45413745Y24487498D01*
X45432648Y24368144D01*
X45487511Y24260467D01*
X45572966Y24175012D01*
X45680643Y24120149D01*
X45799998Y24101245D01*
X45800000Y24101245D01*
X45800002Y24101245D01*
X45919356Y24120149D01*
X45919357Y24120150D01*
X45919359Y24120150D01*
X46027035Y24175013D01*
X46112487Y24260465D01*
X46167350Y24368141D01*
X46167350Y24368143D01*
X46167351Y24368144D01*
X46186255Y24487498D01*
X46186255Y24487503D01*
X46688745Y24487503D01*
X46688745Y24487498D01*
X46707648Y24368144D01*
X46762511Y24260467D01*
X46847966Y24175012D01*
X46955643Y24120149D01*
X47074998Y24101245D01*
X47075000Y24101245D01*
X47075002Y24101245D01*
X47194356Y24120149D01*
X47194357Y24120150D01*
X47194359Y24120150D01*
X47302035Y24175013D01*
X47387487Y24260465D01*
X47442350Y24368141D01*
X47442350Y24368143D01*
X47442351Y24368144D01*
X47461255Y24487498D01*
X47461255Y24487503D01*
X47442351Y24606857D01*
X47387488Y24714534D01*
X47302033Y24799989D01*
X47194356Y24854852D01*
X47075002Y24873755D01*
X47074998Y24873755D01*
X46955643Y24854852D01*
X46847966Y24799989D01*
X46762511Y24714534D01*
X46707648Y24606857D01*
X46688745Y24487503D01*
X46186255Y24487503D01*
X46167351Y24606857D01*
X46112488Y24714534D01*
X46027033Y24799989D01*
X45919356Y24854852D01*
X45800002Y24873755D01*
X45799998Y24873755D01*
X45680643Y24854852D01*
X45572966Y24799989D01*
X45487511Y24714534D01*
X45432648Y24606857D01*
X45413745Y24487503D01*
X44911255Y24487503D01*
X44892351Y24606857D01*
X44837488Y24714534D01*
X44752033Y24799989D01*
X44644356Y24854852D01*
X44525002Y24873755D01*
X44524998Y24873755D01*
X44405643Y24854852D01*
X44297966Y24799989D01*
X44212511Y24714534D01*
X44157648Y24606857D01*
X44138745Y24487503D01*
X42700000Y24487503D01*
X42700000Y25276000D01*
X42719685Y25343039D01*
X42772489Y25388794D01*
X42824000Y25400000D01*
X43900000Y25400000D01*
X43900000Y25694308D01*
X43919685Y25761347D01*
X43972489Y25807102D01*
X44041647Y25817046D01*
X44105203Y25788021D01*
X44142977Y25729243D01*
X44146473Y25713706D01*
X44157648Y25643144D01*
X44212511Y25535467D01*
X44297966Y25450012D01*
X44405643Y25395149D01*
X44524998Y25376245D01*
X44525000Y25376245D01*
X44525002Y25376245D01*
X44644356Y25395149D01*
X44644357Y25395150D01*
X44644359Y25395150D01*
X44752035Y25450013D01*
X44837487Y25535465D01*
X44892350Y25643141D01*
X44892350Y25643143D01*
X44892351Y25643144D01*
X44911255Y25762498D01*
X44911255Y25762503D01*
X44892351Y25881857D01*
X44873066Y25919706D01*
X44860170Y25988375D01*
X44886447Y26053115D01*
X44943553Y26093372D01*
X44983551Y26100000D01*
X45341449Y26100000D01*
X45408488Y26080315D01*
G37*
G04 #@! TD.AperFunction*
G04 #@! TD*
G04 #@! TA.AperFunction,Conductor*
G04 #@! TO.N,+2V5*
G36*
X26776154Y38780315D02*
G01*
X26796796Y38763681D01*
X26872796Y38687681D01*
X26906281Y38626358D01*
X26901297Y38556666D01*
X26872797Y38512319D01*
X26787510Y38427032D01*
X26732648Y38319357D01*
X26713745Y38200003D01*
X26713745Y38199998D01*
X26732648Y38080644D01*
X26787511Y37972967D01*
X26872966Y37887512D01*
X26926803Y37860082D01*
X26980641Y37832650D01*
X27030326Y37824781D01*
X27089363Y37796795D01*
X27140541Y37820166D01*
X27219356Y37832649D01*
X27219357Y37832650D01*
X27219359Y37832650D01*
X27327035Y37887513D01*
X27412487Y37972965D01*
X27467350Y38080641D01*
X27467350Y38080643D01*
X27467351Y38080644D01*
X27486255Y38199998D01*
X27486255Y38200003D01*
X27467351Y38319357D01*
X27412488Y38427034D01*
X27327203Y38512319D01*
X27293718Y38573642D01*
X27298702Y38643334D01*
X27327201Y38687680D01*
X27403204Y38763682D01*
X27464528Y38797166D01*
X27490885Y38800000D01*
X34793208Y38800000D01*
X34860247Y38780315D01*
X34906002Y38727511D01*
X34915946Y38658353D01*
X34906524Y38628637D01*
X34906530Y38628635D01*
X34906280Y38627869D01*
X34903693Y38619706D01*
X34903514Y38619357D01*
X34884611Y38500003D01*
X34884611Y38499998D01*
X34903514Y38380644D01*
X34958377Y38272967D01*
X35043832Y38187512D01*
X35151509Y38132649D01*
X35270864Y38113745D01*
X35270866Y38113745D01*
X35270868Y38113745D01*
X35390222Y38132649D01*
X35390223Y38132650D01*
X35390225Y38132650D01*
X35497901Y38187513D01*
X35583353Y38272965D01*
X35638216Y38380641D01*
X35638216Y38380643D01*
X35638217Y38380644D01*
X35657121Y38499998D01*
X35657121Y38500003D01*
X35638217Y38619357D01*
X35638039Y38619706D01*
X35637950Y38620178D01*
X35635202Y38628635D01*
X35636295Y38628991D01*
X35625143Y38688376D01*
X35651420Y38753116D01*
X35708527Y38793372D01*
X35748524Y38800000D01*
X36793208Y38800000D01*
X36860247Y38780315D01*
X36906002Y38727511D01*
X36915946Y38658353D01*
X36906524Y38628637D01*
X36906530Y38628635D01*
X36906280Y38627869D01*
X36903693Y38619706D01*
X36903514Y38619357D01*
X36884611Y38500003D01*
X36884611Y38499998D01*
X36903514Y38380644D01*
X36958377Y38272967D01*
X37043832Y38187512D01*
X37151509Y38132649D01*
X37270864Y38113745D01*
X37270866Y38113745D01*
X37270868Y38113745D01*
X37390222Y38132649D01*
X37390223Y38132650D01*
X37390225Y38132650D01*
X37497901Y38187513D01*
X37583353Y38272965D01*
X37638216Y38380641D01*
X37638216Y38380643D01*
X37638217Y38380644D01*
X37657121Y38499998D01*
X37657121Y38500003D01*
X37638217Y38619357D01*
X37638039Y38619706D01*
X37637950Y38620178D01*
X37635202Y38628635D01*
X37636295Y38628991D01*
X37625143Y38688376D01*
X37651420Y38753116D01*
X37708527Y38793372D01*
X37748524Y38800000D01*
X38276000Y38800000D01*
X38343039Y38780315D01*
X38388794Y38727511D01*
X38400000Y38676000D01*
X38400000Y24459134D01*
X38380315Y24392095D01*
X38332297Y24348650D01*
X38299011Y24331690D01*
X38299010Y24331689D01*
X38213557Y24246235D01*
X38158695Y24138560D01*
X38139792Y24019206D01*
X38139792Y24019201D01*
X38158695Y23899847D01*
X38213558Y23792170D01*
X38213560Y23792168D01*
X38299012Y23706716D01*
X38332293Y23689759D01*
X38383090Y23641785D01*
X38400000Y23579273D01*
X38400000Y6224000D01*
X38380315Y6156961D01*
X38327511Y6111206D01*
X38276000Y6100000D01*
X37096596Y6100000D01*
X37029557Y6119685D01*
X36983802Y6172489D01*
X36973858Y6241647D01*
X36974123Y6243398D01*
X36986255Y6319998D01*
X36986255Y6320003D01*
X36967351Y6439357D01*
X36912488Y6547034D01*
X36827033Y6632489D01*
X36719356Y6687352D01*
X36600002Y6706255D01*
X36599998Y6706255D01*
X36480643Y6687352D01*
X36372966Y6632489D01*
X36287511Y6547034D01*
X36232648Y6439357D01*
X36213745Y6320003D01*
X36213745Y6319998D01*
X36225877Y6243398D01*
X36216922Y6174104D01*
X36171926Y6120652D01*
X36105174Y6100013D01*
X36103404Y6100000D01*
X33481313Y6100000D01*
X33425020Y6113514D01*
X33319355Y6167352D01*
X33200002Y6186255D01*
X33199998Y6186255D01*
X33080644Y6167352D01*
X32974980Y6113514D01*
X32918687Y6100000D01*
X30324000Y6100000D01*
X30256961Y6119685D01*
X30211206Y6172489D01*
X30200000Y6224000D01*
X30200000Y8400003D01*
X33413745Y8400003D01*
X33413745Y8399998D01*
X33432648Y8280644D01*
X33487511Y8172967D01*
X33572966Y8087512D01*
X33680643Y8032649D01*
X33799998Y8013745D01*
X33800000Y8013745D01*
X33800002Y8013745D01*
X33919356Y8032649D01*
X33919357Y8032650D01*
X33919359Y8032650D01*
X34027035Y8087513D01*
X34088319Y8148797D01*
X34149642Y8182282D01*
X34219334Y8177298D01*
X34275267Y8135426D01*
X34299684Y8069962D01*
X34300000Y8061116D01*
X34300000Y7950000D01*
X35400000Y7950000D01*
X35400000Y9650000D01*
X34300000Y9650000D01*
X34300000Y8738884D01*
X34280315Y8671845D01*
X34227511Y8626090D01*
X34158353Y8616146D01*
X34094797Y8645171D01*
X34088319Y8651203D01*
X34027033Y8712489D01*
X33919356Y8767352D01*
X33800002Y8786255D01*
X33799998Y8786255D01*
X33680643Y8767352D01*
X33572966Y8712489D01*
X33487511Y8627034D01*
X33432648Y8519357D01*
X33413745Y8400003D01*
X30200000Y8400003D01*
X30200000Y10900003D01*
X36513745Y10900003D01*
X36513745Y10899998D01*
X36532648Y10780644D01*
X36587511Y10672967D01*
X36672966Y10587512D01*
X36780643Y10532649D01*
X36899998Y10513745D01*
X36900000Y10513745D01*
X36900002Y10513745D01*
X37019356Y10532649D01*
X37019357Y10532650D01*
X37019359Y10532650D01*
X37127035Y10587513D01*
X37212487Y10672965D01*
X37267350Y10780641D01*
X37267350Y10780643D01*
X37267351Y10780644D01*
X37286255Y10899998D01*
X37286255Y10900003D01*
X37267351Y11019357D01*
X37212488Y11127034D01*
X37127033Y11212489D01*
X37019356Y11267352D01*
X36900002Y11286255D01*
X36899998Y11286255D01*
X36780643Y11267352D01*
X36672966Y11212489D01*
X36587511Y11127034D01*
X36532648Y11019357D01*
X36513745Y10900003D01*
X30200000Y10900003D01*
X30200000Y12200003D01*
X31913745Y12200003D01*
X31913745Y12199998D01*
X31932648Y12080644D01*
X31987511Y11972967D01*
X32072966Y11887512D01*
X32180643Y11832649D01*
X32299998Y11813745D01*
X32300000Y11813745D01*
X32300002Y11813745D01*
X32419356Y11832649D01*
X32419357Y11832650D01*
X32419359Y11832650D01*
X32527035Y11887513D01*
X32612487Y11972965D01*
X32667350Y12080641D01*
X32667350Y12080643D01*
X32667351Y12080644D01*
X32686255Y12199998D01*
X32686255Y12200003D01*
X32667351Y12319357D01*
X32612488Y12427034D01*
X32527033Y12512489D01*
X32419356Y12567352D01*
X32300002Y12586255D01*
X32299998Y12586255D01*
X32180643Y12567352D01*
X32072966Y12512489D01*
X31987511Y12427034D01*
X31932648Y12319357D01*
X31913745Y12200003D01*
X30200000Y12200003D01*
X30200000Y13300003D01*
X30513745Y13300003D01*
X30513745Y13299998D01*
X30532648Y13180644D01*
X30587511Y13072967D01*
X30672966Y12987512D01*
X30780643Y12932649D01*
X30899998Y12913745D01*
X30900000Y12913745D01*
X30900002Y12913745D01*
X31019356Y12932649D01*
X31019357Y12932650D01*
X31019359Y12932650D01*
X31127035Y12987513D01*
X31212487Y13072965D01*
X31267350Y13180641D01*
X31267350Y13180643D01*
X31267351Y13180644D01*
X31286255Y13299998D01*
X31286255Y13300003D01*
X33413745Y13300003D01*
X33413745Y13299998D01*
X33432648Y13180644D01*
X33487511Y13072967D01*
X33572966Y12987512D01*
X33680643Y12932649D01*
X33799998Y12913745D01*
X33800000Y12913745D01*
X33800002Y12913745D01*
X33919356Y12932649D01*
X33919357Y12932650D01*
X33919359Y12932650D01*
X34027035Y12987513D01*
X34112487Y13072965D01*
X34167350Y13180641D01*
X34167350Y13180643D01*
X34167351Y13180644D01*
X34186255Y13299998D01*
X34186255Y13300003D01*
X34167351Y13419357D01*
X34108121Y13535604D01*
X34098156Y13588664D01*
X34076584Y13587739D01*
X34033507Y13607785D01*
X34027032Y13612489D01*
X33919356Y13667352D01*
X33800002Y13686255D01*
X33799998Y13686255D01*
X33680643Y13667352D01*
X33572966Y13612489D01*
X33487511Y13527034D01*
X33432648Y13419357D01*
X33413745Y13300003D01*
X31286255Y13300003D01*
X31267351Y13419357D01*
X31212488Y13527034D01*
X31127033Y13612489D01*
X31019356Y13667352D01*
X30900002Y13686255D01*
X30899998Y13686255D01*
X30780643Y13667352D01*
X30672966Y13612489D01*
X30587511Y13527034D01*
X30532648Y13419357D01*
X30513745Y13300003D01*
X30200000Y13300003D01*
X30200000Y14000003D01*
X34138745Y14000003D01*
X34138745Y13999998D01*
X34157648Y13880644D01*
X34216878Y13764397D01*
X34226842Y13711338D01*
X34248414Y13712262D01*
X34291493Y13692215D01*
X34297966Y13687512D01*
X34405643Y13632649D01*
X34524998Y13613745D01*
X34525000Y13613745D01*
X34525002Y13613745D01*
X34644356Y13632649D01*
X34644357Y13632650D01*
X34644359Y13632650D01*
X34752035Y13687513D01*
X34752039Y13687518D01*
X34753105Y13688291D01*
X34754635Y13688838D01*
X34760731Y13691943D01*
X34761132Y13691156D01*
X34818909Y13711777D01*
X34886965Y13695958D01*
X34935664Y13645857D01*
X34950000Y13587980D01*
X34950000Y12150000D01*
X36050000Y12150000D01*
X36050000Y13850000D01*
X35032683Y13850000D01*
X34965644Y13869685D01*
X34919889Y13922489D01*
X34909945Y13991647D01*
X34910209Y13993396D01*
X34911255Y14000000D01*
X34911255Y14000003D01*
X34892351Y14119357D01*
X34837488Y14227034D01*
X34752033Y14312489D01*
X34644356Y14367352D01*
X34525002Y14386255D01*
X34524998Y14386255D01*
X34405643Y14367352D01*
X34297966Y14312489D01*
X34212511Y14227034D01*
X34157648Y14119357D01*
X34138745Y14000003D01*
X30200000Y14000003D01*
X30200000Y15200003D01*
X33413745Y15200003D01*
X33413745Y15199998D01*
X33432648Y15080644D01*
X33487511Y14972967D01*
X33572966Y14887512D01*
X33680643Y14832649D01*
X33799998Y14813745D01*
X33800000Y14813745D01*
X33800002Y14813745D01*
X33919356Y14832649D01*
X33919357Y14832650D01*
X33919359Y14832650D01*
X34027035Y14887513D01*
X34112487Y14972965D01*
X34167350Y15080641D01*
X34167350Y15080643D01*
X34167351Y15080644D01*
X34186255Y15199998D01*
X34186255Y15200003D01*
X34167351Y15319356D01*
X34167350Y15319358D01*
X34167350Y15319359D01*
X34139738Y15373550D01*
X34126844Y15442218D01*
X34153121Y15506958D01*
X34162536Y15517515D01*
X34212487Y15567465D01*
X34267350Y15675141D01*
X34267350Y15675143D01*
X34267351Y15675144D01*
X34286255Y15794498D01*
X34286255Y15794503D01*
X34285384Y15800003D01*
X37013745Y15800003D01*
X37013745Y15799998D01*
X37032648Y15680644D01*
X37087511Y15572967D01*
X37172966Y15487512D01*
X37280643Y15432649D01*
X37399998Y15413745D01*
X37400000Y15413745D01*
X37400002Y15413745D01*
X37519356Y15432649D01*
X37519357Y15432650D01*
X37519359Y15432650D01*
X37627035Y15487513D01*
X37712487Y15572965D01*
X37767350Y15680641D01*
X37767350Y15680643D01*
X37767351Y15680644D01*
X37786255Y15799998D01*
X37786255Y15800003D01*
X37767351Y15919357D01*
X37712488Y16027034D01*
X37627033Y16112489D01*
X37519356Y16167352D01*
X37400002Y16186255D01*
X37399998Y16186255D01*
X37280643Y16167352D01*
X37172966Y16112489D01*
X37087511Y16027034D01*
X37032648Y15919357D01*
X37013745Y15800003D01*
X34285384Y15800003D01*
X34267351Y15913857D01*
X34212488Y16021534D01*
X34127033Y16106989D01*
X34019356Y16161852D01*
X33900002Y16180755D01*
X33899998Y16180755D01*
X33780643Y16161852D01*
X33672966Y16106989D01*
X33587511Y16021534D01*
X33532648Y15913857D01*
X33513745Y15794503D01*
X33513745Y15794498D01*
X33532648Y15675145D01*
X33560260Y15620953D01*
X33573155Y15552284D01*
X33546878Y15487544D01*
X33537457Y15476980D01*
X33487510Y15427033D01*
X33432648Y15319357D01*
X33413745Y15200003D01*
X30200000Y15200003D01*
X30200000Y18700003D01*
X32113745Y18700003D01*
X32113745Y18699998D01*
X32132648Y18580644D01*
X32187511Y18472967D01*
X32272966Y18387512D01*
X32380643Y18332649D01*
X32499998Y18313745D01*
X32500000Y18313745D01*
X32500002Y18313745D01*
X32619356Y18332649D01*
X32619357Y18332650D01*
X32619359Y18332650D01*
X32727035Y18387513D01*
X32812487Y18472965D01*
X32867350Y18580641D01*
X32867350Y18580643D01*
X32867351Y18580644D01*
X32886255Y18699998D01*
X32886255Y18700003D01*
X32867351Y18819357D01*
X32812488Y18927034D01*
X32727033Y19012489D01*
X32619356Y19067352D01*
X32500002Y19086255D01*
X32499998Y19086255D01*
X32380643Y19067352D01*
X32272966Y19012489D01*
X32187511Y18927034D01*
X32132648Y18819357D01*
X32113745Y18700003D01*
X30200000Y18700003D01*
X30200000Y19257203D01*
X36613745Y19257203D01*
X36613745Y19257198D01*
X36632648Y19137844D01*
X36687511Y19030167D01*
X36772966Y18944712D01*
X36880643Y18889849D01*
X36999998Y18870945D01*
X37000000Y18870945D01*
X37000002Y18870945D01*
X37119356Y18889849D01*
X37119357Y18889850D01*
X37119359Y18889850D01*
X37227035Y18944713D01*
X37312487Y19030165D01*
X37367350Y19137841D01*
X37367350Y19137843D01*
X37367351Y19137844D01*
X37386255Y19257198D01*
X37386255Y19257203D01*
X37367351Y19376557D01*
X37312488Y19484234D01*
X37227033Y19569689D01*
X37119356Y19624552D01*
X37000002Y19643455D01*
X36999998Y19643455D01*
X36880643Y19624552D01*
X36772966Y19569689D01*
X36687511Y19484234D01*
X36632648Y19376557D01*
X36613745Y19257203D01*
X30200000Y19257203D01*
X30200000Y20400003D01*
X32613745Y20400003D01*
X32613745Y20399998D01*
X32632648Y20280644D01*
X32687511Y20172967D01*
X32772966Y20087512D01*
X32880643Y20032649D01*
X32999998Y20013745D01*
X33000000Y20013745D01*
X33000002Y20013745D01*
X33119356Y20032649D01*
X33119357Y20032650D01*
X33119359Y20032650D01*
X33227035Y20087513D01*
X33312487Y20172965D01*
X33367350Y20280641D01*
X33367350Y20280643D01*
X33367351Y20280644D01*
X33386255Y20399998D01*
X33386255Y20400003D01*
X33367351Y20519357D01*
X33312488Y20627034D01*
X33227033Y20712489D01*
X33119356Y20767352D01*
X33000002Y20786255D01*
X32999998Y20786255D01*
X32880643Y20767352D01*
X32772966Y20712489D01*
X32687511Y20627034D01*
X32632648Y20519357D01*
X32613745Y20400003D01*
X30200000Y20400003D01*
X30200000Y21100003D01*
X35288745Y21100003D01*
X35288745Y21099998D01*
X35307648Y20980644D01*
X35362511Y20872967D01*
X35447966Y20787512D01*
X35555643Y20732649D01*
X35674998Y20713745D01*
X35675000Y20713745D01*
X35675002Y20713745D01*
X35794356Y20732649D01*
X35794357Y20732650D01*
X35794359Y20732650D01*
X35902035Y20787513D01*
X35987487Y20872965D01*
X36017178Y20931239D01*
X36065151Y20982034D01*
X36132971Y20998830D01*
X36183953Y20985431D01*
X36205641Y20974380D01*
X36205643Y20974380D01*
X36205645Y20974379D01*
X36324998Y20955475D01*
X36325000Y20955475D01*
X36325002Y20955475D01*
X36444356Y20974379D01*
X36444357Y20974380D01*
X36444359Y20974380D01*
X36552035Y21029243D01*
X36637487Y21114695D01*
X36692350Y21222371D01*
X36692350Y21222373D01*
X36692351Y21222374D01*
X36711255Y21341728D01*
X36711255Y21341733D01*
X36692351Y21461087D01*
X36637488Y21568764D01*
X36552033Y21654219D01*
X36444356Y21709082D01*
X36325002Y21727985D01*
X36324998Y21727985D01*
X36205643Y21709082D01*
X36097966Y21654219D01*
X36012512Y21568765D01*
X35982821Y21510492D01*
X35934846Y21459696D01*
X35867025Y21442901D01*
X35816042Y21456302D01*
X35794356Y21467352D01*
X35675002Y21486255D01*
X35674998Y21486255D01*
X35555643Y21467352D01*
X35447966Y21412489D01*
X35362511Y21327034D01*
X35307648Y21219357D01*
X35288745Y21100003D01*
X30200000Y21100003D01*
X30200000Y23100003D01*
X30513745Y23100003D01*
X30513745Y23099998D01*
X30532648Y22980644D01*
X30587511Y22872967D01*
X30672966Y22787512D01*
X30780643Y22732649D01*
X30899998Y22713745D01*
X30900000Y22713745D01*
X30900002Y22713745D01*
X31019356Y22732649D01*
X31019357Y22732650D01*
X31019359Y22732650D01*
X31127035Y22787513D01*
X31212487Y22872965D01*
X31267350Y22980641D01*
X31267350Y22980643D01*
X31267351Y22980644D01*
X31286255Y23099998D01*
X31286255Y23100003D01*
X31267351Y23219357D01*
X31212488Y23327034D01*
X31127033Y23412489D01*
X31019356Y23467352D01*
X30900002Y23486255D01*
X30899998Y23486255D01*
X30780643Y23467352D01*
X30672966Y23412489D01*
X30587511Y23327034D01*
X30532648Y23219357D01*
X30513745Y23100003D01*
X30200000Y23100003D01*
X30200000Y23800003D01*
X32133745Y23800003D01*
X32133745Y23799998D01*
X32152648Y23680644D01*
X32207511Y23572967D01*
X32292966Y23487512D01*
X32400643Y23432649D01*
X32519998Y23413745D01*
X32520000Y23413745D01*
X32520002Y23413745D01*
X32639356Y23432649D01*
X32639357Y23432650D01*
X32639359Y23432650D01*
X32747035Y23487513D01*
X32759525Y23500003D01*
X33613745Y23500003D01*
X33613745Y23499998D01*
X33632648Y23380644D01*
X33687511Y23272967D01*
X33772966Y23187512D01*
X33880643Y23132649D01*
X33953290Y23121143D01*
X34016424Y23091214D01*
X34053356Y23031903D01*
X34052358Y22962040D01*
X34044378Y22942378D01*
X34032649Y22919358D01*
X34013745Y22800003D01*
X34013745Y22799998D01*
X34032648Y22680644D01*
X34087511Y22572967D01*
X34172966Y22487512D01*
X34280643Y22432649D01*
X34399998Y22413745D01*
X34400000Y22413745D01*
X34400002Y22413745D01*
X34519356Y22432649D01*
X34519357Y22432650D01*
X34519359Y22432650D01*
X34627035Y22487513D01*
X34712487Y22572965D01*
X34767350Y22680641D01*
X34767350Y22680643D01*
X34767351Y22680644D01*
X34786255Y22799998D01*
X34786255Y22800003D01*
X34767351Y22919357D01*
X34712488Y23027034D01*
X34627033Y23112489D01*
X34557059Y23148142D01*
X34519359Y23167350D01*
X34519357Y23167351D01*
X34519356Y23167351D01*
X34446708Y23178858D01*
X34383574Y23208788D01*
X34346643Y23268100D01*
X34347641Y23337962D01*
X34355619Y23357619D01*
X34367350Y23380641D01*
X34372395Y23412489D01*
X34386255Y23499998D01*
X34386255Y23500003D01*
X34367351Y23619357D01*
X34312488Y23727034D01*
X34227033Y23812489D01*
X34119356Y23867352D01*
X34000002Y23886255D01*
X33999998Y23886255D01*
X33880643Y23867352D01*
X33772966Y23812489D01*
X33687511Y23727034D01*
X33632648Y23619357D01*
X33613745Y23500003D01*
X32759525Y23500003D01*
X32832487Y23572965D01*
X32887350Y23680641D01*
X32887350Y23680643D01*
X32887351Y23680644D01*
X32906255Y23799998D01*
X32906255Y23800003D01*
X32887351Y23919357D01*
X32832488Y24027034D01*
X32747033Y24112489D01*
X32639356Y24167352D01*
X32520002Y24186255D01*
X32519998Y24186255D01*
X32400643Y24167352D01*
X32292966Y24112489D01*
X32207511Y24027034D01*
X32152648Y23919357D01*
X32133745Y23800003D01*
X30200000Y23800003D01*
X30200000Y23946798D01*
X30219685Y24013837D01*
X30267706Y24057283D01*
X30327033Y24087512D01*
X30327032Y24087512D01*
X30327035Y24087513D01*
X30412487Y24172965D01*
X30467350Y24280641D01*
X30467350Y24280643D01*
X30467351Y24280644D01*
X30486255Y24399998D01*
X30486255Y24400003D01*
X30467351Y24519357D01*
X30412488Y24627034D01*
X30327033Y24712489D01*
X30267706Y24742717D01*
X30216910Y24790691D01*
X30200000Y24853202D01*
X30200000Y25200000D01*
X18724000Y25200000D01*
X18656961Y25219685D01*
X18611206Y25272489D01*
X18605220Y25300003D01*
X34113745Y25300003D01*
X34113745Y25299998D01*
X34132648Y25180644D01*
X34187511Y25072967D01*
X34272966Y24987512D01*
X34380643Y24932649D01*
X34499998Y24913745D01*
X34500000Y24913745D01*
X34500002Y24913745D01*
X34619356Y24932649D01*
X34619357Y24932650D01*
X34619359Y24932650D01*
X34727035Y24987513D01*
X34812487Y25072965D01*
X34867350Y25180641D01*
X34867350Y25180643D01*
X34867351Y25180644D01*
X34886255Y25299998D01*
X34886255Y25300003D01*
X34867351Y25419357D01*
X34812488Y25527034D01*
X34727033Y25612489D01*
X34619356Y25667352D01*
X34500002Y25686255D01*
X34499998Y25686255D01*
X34380643Y25667352D01*
X34272966Y25612489D01*
X34187511Y25527034D01*
X34132648Y25419357D01*
X34113745Y25300003D01*
X18605220Y25300003D01*
X18600000Y25324000D01*
X18600000Y26700003D01*
X24113745Y26700003D01*
X24113745Y26699998D01*
X24132648Y26580644D01*
X24187511Y26472967D01*
X24272966Y26387512D01*
X24380643Y26332649D01*
X24499998Y26313745D01*
X24500000Y26313745D01*
X24500002Y26313745D01*
X24619356Y26332649D01*
X24619357Y26332650D01*
X24619359Y26332650D01*
X24727035Y26387513D01*
X24812487Y26472965D01*
X24867350Y26580641D01*
X24867350Y26580643D01*
X24867351Y26580644D01*
X24886255Y26699998D01*
X24886255Y26700003D01*
X24870416Y26800003D01*
X30513745Y26800003D01*
X30513745Y26799998D01*
X30532648Y26680644D01*
X30587511Y26572967D01*
X30672966Y26487512D01*
X30780643Y26432649D01*
X30899998Y26413745D01*
X30900000Y26413745D01*
X30900002Y26413745D01*
X31019356Y26432649D01*
X31019357Y26432650D01*
X31019359Y26432650D01*
X31127035Y26487513D01*
X31212487Y26572965D01*
X31267350Y26680641D01*
X31267350Y26680643D01*
X31267351Y26680644D01*
X31286255Y26799998D01*
X31286255Y26800003D01*
X31267351Y26919357D01*
X31212488Y27027034D01*
X31127033Y27112489D01*
X31019356Y27167352D01*
X30900002Y27186255D01*
X30899998Y27186255D01*
X30780643Y27167352D01*
X30672966Y27112489D01*
X30587511Y27027034D01*
X30532648Y26919357D01*
X30513745Y26800003D01*
X24870416Y26800003D01*
X24867351Y26819357D01*
X24812488Y26927034D01*
X24727033Y27012489D01*
X24619356Y27067352D01*
X24500002Y27086255D01*
X24499998Y27086255D01*
X24380643Y27067352D01*
X24272966Y27012489D01*
X24187511Y26927034D01*
X24132648Y26819357D01*
X24113745Y26700003D01*
X18600000Y26700003D01*
X18600000Y27400003D01*
X19213745Y27400003D01*
X19213745Y27399998D01*
X19232648Y27280644D01*
X19287511Y27172967D01*
X19372966Y27087512D01*
X19480643Y27032649D01*
X19599998Y27013745D01*
X19600000Y27013745D01*
X19600002Y27013745D01*
X19719356Y27032649D01*
X19719357Y27032650D01*
X19719359Y27032650D01*
X19827035Y27087513D01*
X19839522Y27100000D01*
X26100000Y27100000D01*
X27250000Y27100000D01*
X28050000Y27100000D01*
X29200000Y27100000D01*
X29200000Y27200003D01*
X34013745Y27200003D01*
X34013745Y27199998D01*
X34032648Y27080644D01*
X34087511Y26972967D01*
X34172966Y26887512D01*
X34280643Y26832649D01*
X34399998Y26813745D01*
X34400000Y26813745D01*
X34400002Y26813745D01*
X34519356Y26832649D01*
X34519357Y26832650D01*
X34519359Y26832650D01*
X34627035Y26887513D01*
X34712487Y26972965D01*
X34767350Y27080641D01*
X34767350Y27080643D01*
X34767351Y27080644D01*
X34786255Y27199998D01*
X34786255Y27200003D01*
X34767351Y27319357D01*
X34712488Y27427034D01*
X34627033Y27512489D01*
X34519356Y27567352D01*
X34400002Y27586255D01*
X34399998Y27586255D01*
X34280643Y27567352D01*
X34172966Y27512489D01*
X34087511Y27427034D01*
X34032648Y27319357D01*
X34013745Y27200003D01*
X29200000Y27200003D01*
X29200000Y28650000D01*
X28050000Y28650000D01*
X28050000Y27100000D01*
X27250000Y27100000D01*
X27250000Y28650000D01*
X26100000Y28650000D01*
X26100000Y27100000D01*
X19839522Y27100000D01*
X19912487Y27172965D01*
X19967350Y27280641D01*
X19967350Y27280643D01*
X19967351Y27280644D01*
X19986255Y27399998D01*
X19986255Y27400003D01*
X19967351Y27519357D01*
X19912488Y27627034D01*
X19827033Y27712489D01*
X19719356Y27767352D01*
X19600002Y27786255D01*
X19599998Y27786255D01*
X19480643Y27767352D01*
X19372966Y27712489D01*
X19287511Y27627034D01*
X19232648Y27519357D01*
X19213745Y27400003D01*
X18600000Y27400003D01*
X18600000Y27500000D01*
X11013298Y27500000D01*
X10946259Y27519685D01*
X10900504Y27572489D01*
X10890560Y27641647D01*
X10900916Y27676404D01*
X10972199Y27829274D01*
X10972202Y27829280D01*
X11031207Y28049490D01*
X11051077Y28276600D01*
X11031207Y28503710D01*
X10978611Y28700003D01*
X18713745Y28700003D01*
X18713745Y28699998D01*
X18732648Y28580644D01*
X18787511Y28472967D01*
X18872966Y28387512D01*
X18980643Y28332649D01*
X19099998Y28313745D01*
X19100000Y28313745D01*
X19100002Y28313745D01*
X19219356Y28332649D01*
X19219357Y28332650D01*
X19219359Y28332650D01*
X19327035Y28387513D01*
X19412487Y28472965D01*
X19467350Y28580641D01*
X19467350Y28580643D01*
X19467351Y28580644D01*
X19486255Y28699998D01*
X19486255Y28700003D01*
X19467351Y28819357D01*
X19412488Y28927034D01*
X19327033Y29012489D01*
X19219356Y29067352D01*
X19100002Y29086255D01*
X19099998Y29086255D01*
X18980643Y29067352D01*
X18872966Y29012489D01*
X18787511Y28927034D01*
X18732648Y28819357D01*
X18713745Y28700003D01*
X10978611Y28700003D01*
X10972202Y28723920D01*
X10875855Y28930538D01*
X10875853Y28930541D01*
X10875852Y28930543D01*
X10745095Y29117283D01*
X10745090Y29117289D01*
X10583887Y29278492D01*
X10583881Y29278496D01*
X10397139Y29409255D01*
X10397135Y29409257D01*
X10190526Y29505600D01*
X10190512Y29505605D01*
X9970315Y29564606D01*
X9970305Y29564608D01*
X9743201Y29584477D01*
X9743199Y29584477D01*
X9516094Y29564608D01*
X9516084Y29564606D01*
X9295887Y29505605D01*
X9295873Y29505600D01*
X9089265Y29409257D01*
X9089257Y29409253D01*
X8902517Y29278496D01*
X8902511Y29278491D01*
X8741309Y29117289D01*
X8741304Y29117283D01*
X8610547Y28930543D01*
X8610543Y28930535D01*
X8514200Y28723927D01*
X8514195Y28723913D01*
X8455194Y28503716D01*
X8455192Y28503706D01*
X8435323Y28276601D01*
X8435323Y28276600D01*
X8455192Y28049495D01*
X8455194Y28049485D01*
X8514195Y27829288D01*
X8514200Y27829274D01*
X8585484Y27676404D01*
X8595976Y27607327D01*
X8567456Y27543543D01*
X8508979Y27505304D01*
X8473102Y27500000D01*
X4460098Y27500000D01*
X4393059Y27519685D01*
X4347304Y27572489D01*
X4337360Y27641647D01*
X4347716Y27676404D01*
X4418999Y27829274D01*
X4419002Y27829280D01*
X4478007Y28049490D01*
X4497877Y28276600D01*
X4478007Y28503710D01*
X4419002Y28723920D01*
X4322655Y28930538D01*
X4322653Y28930541D01*
X4322652Y28930543D01*
X4191895Y29117283D01*
X4191890Y29117289D01*
X4030687Y29278492D01*
X4030681Y29278496D01*
X3843939Y29409255D01*
X3843935Y29409257D01*
X3637326Y29505600D01*
X3637312Y29505605D01*
X3417115Y29564606D01*
X3417105Y29564608D01*
X3190001Y29584477D01*
X3189999Y29584477D01*
X2962894Y29564608D01*
X2962884Y29564606D01*
X2742687Y29505605D01*
X2742673Y29505600D01*
X2536065Y29409257D01*
X2536057Y29409253D01*
X2349317Y29278496D01*
X2349311Y29278491D01*
X2188109Y29117289D01*
X2188104Y29117283D01*
X2057347Y28930543D01*
X2057343Y28930535D01*
X1961000Y28723927D01*
X1960995Y28723913D01*
X1901994Y28503716D01*
X1901992Y28503706D01*
X1882123Y28276601D01*
X1882123Y28276600D01*
X1901992Y28049495D01*
X1901994Y28049485D01*
X1960995Y27829288D01*
X1961000Y27829274D01*
X2032284Y27676404D01*
X2057345Y27622661D01*
X2188108Y27435913D01*
X2349313Y27274708D01*
X2536061Y27143945D01*
X2657081Y27087513D01*
X2742673Y27047601D01*
X2742675Y27047601D01*
X2742680Y27047598D01*
X2742685Y27047597D01*
X2742687Y27047596D01*
X2804039Y27031157D01*
X2908093Y27003276D01*
X2967754Y26966911D01*
X2998283Y26904064D01*
X3000000Y26883501D01*
X3000000Y25324000D01*
X2980315Y25256961D01*
X2927511Y25211206D01*
X2876000Y25200000D01*
X505500Y25200000D01*
X438461Y25219685D01*
X392706Y25272489D01*
X381500Y25324000D01*
X381500Y30950003D01*
X23963745Y30950003D01*
X23963745Y30949998D01*
X23982648Y30830644D01*
X24037511Y30722967D01*
X24122966Y30637512D01*
X24230643Y30582649D01*
X24349998Y30563745D01*
X24350000Y30563745D01*
X24350002Y30563745D01*
X24469356Y30582649D01*
X24469357Y30582650D01*
X24469359Y30582650D01*
X24503417Y30600003D01*
X31613745Y30600003D01*
X31613745Y30599998D01*
X31632648Y30480644D01*
X31687511Y30372967D01*
X31772966Y30287512D01*
X31880643Y30232649D01*
X31999998Y30213745D01*
X32000000Y30213745D01*
X32000002Y30213745D01*
X32119356Y30232649D01*
X32119357Y30232650D01*
X32119359Y30232650D01*
X32227035Y30287513D01*
X32312487Y30372965D01*
X32367350Y30480641D01*
X32367350Y30480643D01*
X32367351Y30480644D01*
X32386255Y30599998D01*
X32386255Y30600003D01*
X32367351Y30719357D01*
X32312488Y30827034D01*
X32227033Y30912489D01*
X32119356Y30967352D01*
X32000002Y30986255D01*
X31999998Y30986255D01*
X31880643Y30967352D01*
X31772966Y30912489D01*
X31687511Y30827034D01*
X31632648Y30719357D01*
X31613745Y30600003D01*
X24503417Y30600003D01*
X24577035Y30637513D01*
X24662487Y30722965D01*
X24717350Y30830641D01*
X24717350Y30830643D01*
X24717351Y30830644D01*
X24736255Y30949998D01*
X24736255Y30950003D01*
X24717351Y31069357D01*
X24662488Y31177034D01*
X24577033Y31262489D01*
X24469356Y31317352D01*
X24383957Y31330877D01*
X24350633Y31346675D01*
X24316042Y31330877D01*
X24230643Y31317352D01*
X24122966Y31262489D01*
X24037511Y31177034D01*
X23982648Y31069357D01*
X23963745Y30950003D01*
X381500Y30950003D01*
X381500Y31900003D01*
X22013745Y31900003D01*
X22013745Y31899998D01*
X22032648Y31780644D01*
X22087511Y31672967D01*
X22172966Y31587512D01*
X22280643Y31532649D01*
X22399998Y31513745D01*
X22400000Y31513745D01*
X22400002Y31513745D01*
X22519356Y31532649D01*
X22519357Y31532650D01*
X22519359Y31532650D01*
X22627035Y31587513D01*
X22712487Y31672965D01*
X22767350Y31780641D01*
X22767350Y31780643D01*
X22767351Y31780644D01*
X22786255Y31899998D01*
X22786255Y31900003D01*
X22777275Y31956703D01*
X23963745Y31956703D01*
X23963745Y31956698D01*
X23982648Y31837344D01*
X24037511Y31729667D01*
X24122966Y31644212D01*
X24230643Y31589349D01*
X24316042Y31575823D01*
X24349365Y31560026D01*
X24383957Y31575823D01*
X24469356Y31589349D01*
X24469357Y31589350D01*
X24469359Y31589350D01*
X24577035Y31644213D01*
X24662487Y31729665D01*
X24717350Y31837341D01*
X24717350Y31837343D01*
X24717351Y31837344D01*
X24735195Y31950003D01*
X27263745Y31950003D01*
X27263745Y31949998D01*
X27282648Y31830644D01*
X27337511Y31722967D01*
X27422966Y31637512D01*
X27530643Y31582649D01*
X27649998Y31563745D01*
X27650000Y31563745D01*
X27650002Y31563745D01*
X27769356Y31582649D01*
X27769357Y31582650D01*
X27769359Y31582650D01*
X27877035Y31637513D01*
X27962487Y31722965D01*
X28017350Y31830641D01*
X28017350Y31830643D01*
X28017351Y31830644D01*
X28036255Y31949998D01*
X28036255Y31950003D01*
X28017351Y32069357D01*
X27962488Y32177034D01*
X27877033Y32262489D01*
X27769356Y32317352D01*
X27650002Y32336255D01*
X27649998Y32336255D01*
X27530643Y32317352D01*
X27422966Y32262489D01*
X27337511Y32177034D01*
X27282648Y32069357D01*
X27263745Y31950003D01*
X24735195Y31950003D01*
X24736255Y31956698D01*
X24736255Y31956703D01*
X24717351Y32076057D01*
X24662488Y32183734D01*
X24577033Y32269189D01*
X24469356Y32324052D01*
X24350002Y32342955D01*
X24349998Y32342955D01*
X24230643Y32324052D01*
X24122966Y32269189D01*
X24037511Y32183734D01*
X23982648Y32076057D01*
X23963745Y31956703D01*
X22777275Y31956703D01*
X22767351Y32019357D01*
X22712488Y32127034D01*
X22627033Y32212489D01*
X22519356Y32267352D01*
X22400002Y32286255D01*
X22399998Y32286255D01*
X22280643Y32267352D01*
X22172966Y32212489D01*
X22087511Y32127034D01*
X22032648Y32019357D01*
X22013745Y31900003D01*
X381500Y31900003D01*
X381500Y32700003D01*
X32913745Y32700003D01*
X32913745Y32699998D01*
X32932648Y32580644D01*
X32987511Y32472967D01*
X33072966Y32387512D01*
X33180643Y32332649D01*
X33299998Y32313745D01*
X33300000Y32313745D01*
X33300002Y32313745D01*
X33419356Y32332649D01*
X33419357Y32332650D01*
X33419359Y32332650D01*
X33527035Y32387513D01*
X33612487Y32472965D01*
X33667350Y32580641D01*
X33667350Y32580643D01*
X33667351Y32580644D01*
X33686255Y32699998D01*
X33686255Y32700003D01*
X33667351Y32819357D01*
X33612488Y32927034D01*
X33527033Y33012489D01*
X33419356Y33067352D01*
X33300002Y33086255D01*
X33299998Y33086255D01*
X33180643Y33067352D01*
X33072966Y33012489D01*
X32987511Y32927034D01*
X32932648Y32819357D01*
X32913745Y32700003D01*
X381500Y32700003D01*
X381500Y33850357D01*
X30913745Y33850357D01*
X30913745Y33850352D01*
X30932648Y33730998D01*
X30987511Y33623321D01*
X31072966Y33537866D01*
X31180643Y33483003D01*
X31299998Y33464099D01*
X31300000Y33464099D01*
X31300002Y33464099D01*
X31419356Y33483003D01*
X31419357Y33483004D01*
X31419359Y33483004D01*
X31527035Y33537867D01*
X31612487Y33623319D01*
X31667350Y33730995D01*
X31667350Y33730997D01*
X31667351Y33730998D01*
X31686255Y33850352D01*
X31686255Y33850357D01*
X31678392Y33900003D01*
X33113745Y33900003D01*
X33113745Y33899998D01*
X33132648Y33780644D01*
X33187511Y33672967D01*
X33272966Y33587512D01*
X33380643Y33532649D01*
X33499998Y33513745D01*
X33500000Y33513745D01*
X33500002Y33513745D01*
X33619356Y33532649D01*
X33619357Y33532650D01*
X33619359Y33532650D01*
X33727035Y33587513D01*
X33812487Y33672965D01*
X33867350Y33780641D01*
X33867350Y33780643D01*
X33867351Y33780644D01*
X33886255Y33899998D01*
X33886255Y33900003D01*
X33867351Y34019357D01*
X33812488Y34127034D01*
X33727033Y34212489D01*
X33619356Y34267352D01*
X33500002Y34286255D01*
X33499998Y34286255D01*
X33380643Y34267352D01*
X33272966Y34212489D01*
X33187511Y34127034D01*
X33132648Y34019357D01*
X33113745Y33900003D01*
X31678392Y33900003D01*
X31667351Y33969711D01*
X31612488Y34077388D01*
X31527033Y34162843D01*
X31419356Y34217706D01*
X31300002Y34236609D01*
X31299998Y34236609D01*
X31180643Y34217706D01*
X31072966Y34162843D01*
X30987511Y34077388D01*
X30932648Y33969711D01*
X30913745Y33850357D01*
X381500Y33850357D01*
X381500Y34650000D01*
X32500000Y34650000D01*
X33150000Y34650000D01*
X33150000Y36050000D01*
X32500000Y36050000D01*
X32500000Y34650000D01*
X381500Y34650000D01*
X381500Y35988771D01*
X26244111Y35988771D01*
X26244111Y35988766D01*
X26263014Y35869412D01*
X26317877Y35761735D01*
X26403332Y35676280D01*
X26511009Y35621417D01*
X26630364Y35602513D01*
X26630366Y35602513D01*
X26630368Y35602513D01*
X26749722Y35621417D01*
X26749723Y35621418D01*
X26749725Y35621418D01*
X26857401Y35676281D01*
X26942853Y35761733D01*
X26997716Y35869409D01*
X26997716Y35869411D01*
X26997717Y35869412D01*
X27016621Y35988766D01*
X27016621Y35988771D01*
X27014842Y36000003D01*
X28684611Y36000003D01*
X28684611Y35999998D01*
X28703514Y35880644D01*
X28758377Y35772967D01*
X28843832Y35687512D01*
X28951509Y35632649D01*
X29070864Y35613745D01*
X29070866Y35613745D01*
X29070868Y35613745D01*
X29190222Y35632649D01*
X29190223Y35632650D01*
X29190225Y35632650D01*
X29297901Y35687513D01*
X29383353Y35772965D01*
X29438216Y35880641D01*
X29438216Y35880643D01*
X29438217Y35880644D01*
X29457121Y35999998D01*
X29457121Y36000003D01*
X29438217Y36119357D01*
X29383354Y36227034D01*
X29297899Y36312489D01*
X29190222Y36367352D01*
X29070868Y36386255D01*
X29070864Y36386255D01*
X28951509Y36367352D01*
X28843832Y36312489D01*
X28758377Y36227034D01*
X28703514Y36119357D01*
X28684611Y36000003D01*
X27014842Y36000003D01*
X26997717Y36108125D01*
X26942854Y36215802D01*
X26857399Y36301257D01*
X26749722Y36356120D01*
X26630368Y36375023D01*
X26630364Y36375023D01*
X26511009Y36356120D01*
X26403332Y36301257D01*
X26317877Y36215802D01*
X26263014Y36108125D01*
X26244111Y35988771D01*
X381500Y35988771D01*
X381500Y36700003D01*
X27913745Y36700003D01*
X27913745Y36699998D01*
X27932648Y36580644D01*
X27987511Y36472967D01*
X28072966Y36387512D01*
X28180643Y36332649D01*
X28299998Y36313745D01*
X28300000Y36313745D01*
X28300002Y36313745D01*
X28419356Y36332649D01*
X28419357Y36332650D01*
X28419359Y36332650D01*
X28527035Y36387513D01*
X28612487Y36472965D01*
X28667350Y36580641D01*
X28667350Y36580643D01*
X28667351Y36580644D01*
X28686255Y36699998D01*
X28686255Y36700003D01*
X28667351Y36819357D01*
X28667022Y36820003D01*
X29813745Y36820003D01*
X29813745Y36819998D01*
X29832648Y36700644D01*
X29887511Y36592967D01*
X29972966Y36507512D01*
X30080643Y36452649D01*
X30199998Y36433745D01*
X30200000Y36433745D01*
X30200002Y36433745D01*
X30319356Y36452649D01*
X30319357Y36452650D01*
X30319359Y36452650D01*
X30427035Y36507513D01*
X30512487Y36592965D01*
X30567350Y36700641D01*
X30567350Y36700643D01*
X30567351Y36700644D01*
X30586255Y36819998D01*
X30586255Y36820003D01*
X30567351Y36939357D01*
X30561928Y36950000D01*
X32500000Y36950000D01*
X33150000Y36950000D01*
X33150000Y38350000D01*
X32500000Y38350000D01*
X32500000Y36950000D01*
X30561928Y36950000D01*
X30512488Y37047034D01*
X30427033Y37132489D01*
X30319356Y37187352D01*
X30200002Y37206255D01*
X30199998Y37206255D01*
X30080643Y37187352D01*
X29972966Y37132489D01*
X29887511Y37047034D01*
X29832648Y36939357D01*
X29813745Y36820003D01*
X28667022Y36820003D01*
X28612488Y36927034D01*
X28527033Y37012489D01*
X28419356Y37067352D01*
X28300002Y37086255D01*
X28299998Y37086255D01*
X28180643Y37067352D01*
X28072966Y37012489D01*
X27987511Y36927034D01*
X27932648Y36819357D01*
X27913745Y36700003D01*
X381500Y36700003D01*
X381500Y37400003D01*
X24384611Y37400003D01*
X24384611Y37399998D01*
X24403514Y37280644D01*
X24458377Y37172967D01*
X24543832Y37087512D01*
X24651509Y37032649D01*
X24770864Y37013745D01*
X24770866Y37013745D01*
X24770868Y37013745D01*
X24890222Y37032649D01*
X24890223Y37032650D01*
X24890225Y37032650D01*
X24997901Y37087513D01*
X25083353Y37172965D01*
X25097129Y37200003D01*
X26684611Y37200003D01*
X26684611Y37199998D01*
X26703514Y37080644D01*
X26758377Y36972967D01*
X26843832Y36887512D01*
X26951509Y36832649D01*
X27070864Y36813745D01*
X27070866Y36813745D01*
X27070868Y36813745D01*
X27190222Y36832649D01*
X27190223Y36832650D01*
X27190225Y36832650D01*
X27297901Y36887513D01*
X27383353Y36972965D01*
X27438216Y37080641D01*
X27438216Y37080643D01*
X27438217Y37080644D01*
X27457121Y37199998D01*
X27457121Y37200003D01*
X27438217Y37319357D01*
X27383354Y37427034D01*
X27297899Y37512489D01*
X27190222Y37567352D01*
X27140541Y37575220D01*
X27081501Y37603208D01*
X27030325Y37579835D01*
X26951509Y37567351D01*
X26843832Y37512489D01*
X26758377Y37427034D01*
X26703514Y37319357D01*
X26684611Y37200003D01*
X25097129Y37200003D01*
X25138216Y37280641D01*
X25138216Y37280643D01*
X25138217Y37280644D01*
X25157121Y37399998D01*
X25157121Y37400003D01*
X25138217Y37519357D01*
X25083354Y37627034D01*
X24997899Y37712489D01*
X24890222Y37767352D01*
X24770868Y37786255D01*
X24770864Y37786255D01*
X24651509Y37767352D01*
X24543832Y37712489D01*
X24458377Y37627034D01*
X24403514Y37519357D01*
X24384611Y37400003D01*
X381500Y37400003D01*
X381500Y38676000D01*
X401185Y38743039D01*
X453989Y38788794D01*
X505500Y38800000D01*
X26709115Y38800000D01*
X26776154Y38780315D01*
G37*
G04 #@! TD.AperFunction*
G04 #@! TD*
G04 #@! TA.AperFunction,Conductor*
G04 #@! TO.N,+3.3V*
G36*
X56343039Y49598815D02*
G01*
X56388794Y49546011D01*
X56400000Y49494500D01*
X56400000Y30238884D01*
X56380315Y30171845D01*
X56327511Y30126090D01*
X56258353Y30116146D01*
X56194797Y30145171D01*
X56188319Y30151203D01*
X56127033Y30212489D01*
X56019356Y30267352D01*
X55900002Y30286255D01*
X55899998Y30286255D01*
X55780643Y30267352D01*
X55672966Y30212489D01*
X55587511Y30127034D01*
X55532648Y30019357D01*
X55513745Y29900003D01*
X55513745Y29899998D01*
X55532648Y29780644D01*
X55587511Y29672967D01*
X55672966Y29587512D01*
X55780643Y29532649D01*
X55899998Y29513745D01*
X55900000Y29513745D01*
X55900002Y29513745D01*
X56019356Y29532649D01*
X56019357Y29532650D01*
X56019359Y29532650D01*
X56127035Y29587513D01*
X56188319Y29648797D01*
X56249642Y29682282D01*
X56319334Y29677298D01*
X56375267Y29635426D01*
X56399684Y29569962D01*
X56400000Y29561116D01*
X56400000Y28377659D01*
X56380315Y28310620D01*
X56327511Y28264865D01*
X56258353Y28254921D01*
X56228636Y28264342D01*
X56228635Y28264336D01*
X56227924Y28264568D01*
X56219716Y28267169D01*
X56219361Y28267350D01*
X56219357Y28267351D01*
X56100002Y28286255D01*
X56099998Y28286255D01*
X55980643Y28267352D01*
X55872966Y28212489D01*
X55787511Y28127034D01*
X55732648Y28019357D01*
X55713745Y27900003D01*
X55713745Y27899998D01*
X55732648Y27780644D01*
X55787511Y27672967D01*
X55872966Y27587512D01*
X55980643Y27532649D01*
X56099998Y27513745D01*
X56100000Y27513745D01*
X56100002Y27513745D01*
X56219356Y27532649D01*
X56219357Y27532650D01*
X56219359Y27532650D01*
X56219706Y27532828D01*
X56220177Y27532916D01*
X56228635Y27535664D01*
X56228990Y27534571D01*
X56288376Y27545723D01*
X56353116Y27519446D01*
X56393372Y27462339D01*
X56400000Y27422342D01*
X56400000Y20902659D01*
X56380315Y20835620D01*
X56327511Y20789865D01*
X56258353Y20779921D01*
X56228636Y20789342D01*
X56228635Y20789336D01*
X56227924Y20789568D01*
X56219716Y20792169D01*
X56219361Y20792350D01*
X56219357Y20792351D01*
X56100002Y20811255D01*
X56099998Y20811255D01*
X55980643Y20792352D01*
X55872966Y20737489D01*
X55787511Y20652034D01*
X55732648Y20544357D01*
X55713745Y20425003D01*
X55713745Y20424998D01*
X55732648Y20305644D01*
X55787511Y20197967D01*
X55835297Y20150181D01*
X55868782Y20088858D01*
X55863798Y20019166D01*
X55835297Y19974819D01*
X55787511Y19927034D01*
X55732648Y19819357D01*
X55713745Y19700003D01*
X55713745Y19699998D01*
X55732648Y19580644D01*
X55787511Y19472967D01*
X55872966Y19387512D01*
X55980643Y19332649D01*
X56099998Y19313745D01*
X56100000Y19313745D01*
X56100002Y19313745D01*
X56219356Y19332649D01*
X56219357Y19332650D01*
X56219359Y19332650D01*
X56219706Y19332828D01*
X56220177Y19332916D01*
X56228635Y19335664D01*
X56228990Y19334571D01*
X56288376Y19345723D01*
X56353116Y19319446D01*
X56393372Y19262339D01*
X56400000Y19222342D01*
X56400000Y10620804D01*
X56380315Y10553765D01*
X56327511Y10508010D01*
X56258353Y10498066D01*
X56256602Y10498331D01*
X56175002Y10511255D01*
X56174998Y10511255D01*
X56055643Y10492352D01*
X55947966Y10437489D01*
X55862511Y10352034D01*
X55807648Y10244357D01*
X55788745Y10125003D01*
X55788745Y10124998D01*
X55807648Y10005644D01*
X55862511Y9897967D01*
X55947966Y9812512D01*
X56055643Y9757649D01*
X56174998Y9738745D01*
X56175000Y9738745D01*
X56175001Y9738745D01*
X56200071Y9742716D01*
X56256602Y9751670D01*
X56325895Y9742716D01*
X56379347Y9697720D01*
X56399987Y9630969D01*
X56400000Y9629197D01*
X56400000Y7170804D01*
X56380315Y7103765D01*
X56327511Y7058010D01*
X56258353Y7048066D01*
X56256602Y7048331D01*
X56175002Y7061255D01*
X56174998Y7061255D01*
X56055643Y7042352D01*
X55947966Y6987489D01*
X55862511Y6902034D01*
X55807648Y6794357D01*
X55788745Y6675003D01*
X55788745Y6674998D01*
X55807648Y6555644D01*
X55862511Y6447967D01*
X55862513Y6447965D01*
X55947965Y6362513D01*
X55997767Y6337138D01*
X56048563Y6289165D01*
X56065359Y6221345D01*
X56042823Y6155209D01*
X55988108Y6111757D01*
X55940756Y6102655D01*
X45657626Y6162095D01*
X45590702Y6182167D01*
X45545253Y6235234D01*
X45535709Y6304449D01*
X45547855Y6342381D01*
X45567350Y6380641D01*
X45567351Y6380646D01*
X45586255Y6499998D01*
X45586255Y6500003D01*
X45567351Y6619357D01*
X45512488Y6727034D01*
X45427033Y6812489D01*
X45319356Y6867352D01*
X45200002Y6886255D01*
X45199998Y6886255D01*
X45080643Y6867352D01*
X44972966Y6812489D01*
X44887511Y6727034D01*
X44832648Y6619357D01*
X44813745Y6500003D01*
X44813745Y6499998D01*
X44832648Y6380644D01*
X44849433Y6347702D01*
X44862329Y6279032D01*
X44836052Y6214292D01*
X44778945Y6174036D01*
X44738231Y6167410D01*
X39223283Y6199288D01*
X39156359Y6219360D01*
X39110910Y6272427D01*
X39100000Y6323286D01*
X39100000Y7300003D01*
X47113745Y7300003D01*
X47113745Y7299998D01*
X47132648Y7180644D01*
X47187511Y7072967D01*
X47272966Y6987512D01*
X47380643Y6932649D01*
X47499998Y6913745D01*
X47500000Y6913745D01*
X47500002Y6913745D01*
X47619356Y6932649D01*
X47619357Y6932650D01*
X47619359Y6932650D01*
X47727035Y6987513D01*
X47812487Y7072965D01*
X47867350Y7180641D01*
X47867350Y7180643D01*
X47867351Y7180644D01*
X47877527Y7244892D01*
X47903163Y7298973D01*
X47902224Y7301029D01*
X48096836Y7301029D01*
X48122473Y7244892D01*
X48132648Y7180644D01*
X48187511Y7072967D01*
X48272966Y6987512D01*
X48380643Y6932649D01*
X48499998Y6913745D01*
X48500000Y6913745D01*
X48500002Y6913745D01*
X48619356Y6932649D01*
X48619357Y6932650D01*
X48619359Y6932650D01*
X48727035Y6987513D01*
X48812487Y7072965D01*
X48867350Y7180641D01*
X48867350Y7180643D01*
X48867351Y7180644D01*
X48886255Y7299998D01*
X48886255Y7300003D01*
X48867351Y7419357D01*
X48812488Y7527034D01*
X48727033Y7612489D01*
X48619356Y7667352D01*
X48500002Y7686255D01*
X48499998Y7686255D01*
X48380643Y7667352D01*
X48272966Y7612489D01*
X48187511Y7527034D01*
X48132648Y7419357D01*
X48122473Y7355109D01*
X48096836Y7301029D01*
X47902224Y7301029D01*
X47877527Y7355109D01*
X47867351Y7419357D01*
X47812488Y7527034D01*
X47727033Y7612489D01*
X47619356Y7667352D01*
X47500002Y7686255D01*
X47499998Y7686255D01*
X47380643Y7667352D01*
X47272966Y7612489D01*
X47187511Y7527034D01*
X47132648Y7419357D01*
X47113745Y7300003D01*
X39100000Y7300003D01*
X39100000Y7737503D01*
X51913745Y7737503D01*
X51913745Y7737498D01*
X51932648Y7618144D01*
X51987511Y7510467D01*
X52072966Y7425012D01*
X52180643Y7370149D01*
X52299998Y7351245D01*
X52300000Y7351245D01*
X52300002Y7351245D01*
X52419356Y7370149D01*
X52419357Y7370150D01*
X52419359Y7370150D01*
X52527035Y7425013D01*
X52612487Y7510465D01*
X52667350Y7618141D01*
X52667350Y7618143D01*
X52667351Y7618144D01*
X52686255Y7737498D01*
X52686255Y7737503D01*
X52667351Y7856857D01*
X52612488Y7964534D01*
X52527033Y8049989D01*
X52419356Y8104852D01*
X52300002Y8123755D01*
X52299998Y8123755D01*
X52180643Y8104852D01*
X52072966Y8049989D01*
X51987511Y7964534D01*
X51932648Y7856857D01*
X51913745Y7737503D01*
X39100000Y7737503D01*
X39100000Y8400003D01*
X44813745Y8400003D01*
X44813745Y8399998D01*
X44832648Y8280644D01*
X44887511Y8172967D01*
X44972966Y8087512D01*
X45080643Y8032649D01*
X45199998Y8013745D01*
X45200000Y8013745D01*
X45200002Y8013745D01*
X45319356Y8032649D01*
X45319357Y8032650D01*
X45319359Y8032650D01*
X45427035Y8087513D01*
X45512487Y8172965D01*
X45567350Y8280641D01*
X45567350Y8280643D01*
X45567351Y8280644D01*
X45586255Y8399998D01*
X45586255Y8400003D01*
X45567351Y8519357D01*
X45512488Y8627034D01*
X45427033Y8712489D01*
X45319356Y8767352D01*
X45200002Y8786255D01*
X45199998Y8786255D01*
X45080643Y8767352D01*
X44972966Y8712489D01*
X44887511Y8627034D01*
X44832648Y8519357D01*
X44813745Y8400003D01*
X39100000Y8400003D01*
X39100000Y11893379D01*
X39119685Y11960418D01*
X39172489Y12006173D01*
X39241647Y12016117D01*
X39243338Y12015862D01*
X39256700Y12013745D01*
X39256700Y12013746D01*
X39256701Y12013745D01*
X39256702Y12013745D01*
X39361187Y12030294D01*
X39430480Y12021340D01*
X39483932Y11976343D01*
X39491070Y11964115D01*
X39537511Y11872967D01*
X39622966Y11787512D01*
X39730643Y11732649D01*
X39849998Y11713745D01*
X39850000Y11713745D01*
X39850002Y11713745D01*
X39969356Y11732649D01*
X39969357Y11732650D01*
X39969359Y11732650D01*
X40077035Y11787513D01*
X40162487Y11872965D01*
X40217350Y11980641D01*
X40217350Y11980643D01*
X40217351Y11980644D01*
X40236255Y12099998D01*
X40236255Y12100003D01*
X40217351Y12219357D01*
X40162488Y12327034D01*
X40077033Y12412489D01*
X39969356Y12467352D01*
X39850002Y12486255D01*
X39850000Y12486255D01*
X39819672Y12481452D01*
X39745511Y12469706D01*
X39676218Y12478662D01*
X39622766Y12523659D01*
X39615633Y12535879D01*
X39582960Y12600003D01*
X50813745Y12600003D01*
X50813745Y12599998D01*
X50832648Y12480644D01*
X50887511Y12372967D01*
X50972966Y12287512D01*
X51080643Y12232649D01*
X51199998Y12213745D01*
X51200000Y12213745D01*
X51200002Y12213745D01*
X51319356Y12232649D01*
X51319357Y12232650D01*
X51319359Y12232650D01*
X51427035Y12287513D01*
X51512487Y12372965D01*
X51567350Y12480641D01*
X51567350Y12480643D01*
X51567351Y12480644D01*
X51586255Y12599998D01*
X51586255Y12600003D01*
X51567351Y12719357D01*
X51512488Y12827034D01*
X51427033Y12912489D01*
X51319356Y12967352D01*
X51200002Y12986255D01*
X51199998Y12986255D01*
X51080643Y12967352D01*
X50972966Y12912489D01*
X50887511Y12827034D01*
X50832648Y12719357D01*
X50813745Y12600003D01*
X39582960Y12600003D01*
X39569187Y12627035D01*
X39483735Y12712487D01*
X39483733Y12712489D01*
X39376056Y12767352D01*
X39256702Y12786255D01*
X39256700Y12786255D01*
X39243395Y12784148D01*
X39174102Y12793105D01*
X39120651Y12838102D01*
X39100013Y12904854D01*
X39100000Y12906622D01*
X39100000Y13200003D01*
X44313745Y13200003D01*
X44313745Y13199998D01*
X44332648Y13080644D01*
X44387511Y12972967D01*
X44472966Y12887512D01*
X44580643Y12832649D01*
X44699998Y12813745D01*
X44700000Y12813745D01*
X44700002Y12813745D01*
X44819356Y12832649D01*
X44819357Y12832650D01*
X44819359Y12832650D01*
X44927035Y12887513D01*
X45012487Y12972965D01*
X45067350Y13080641D01*
X45067350Y13080643D01*
X45067351Y13080644D01*
X45086255Y13199998D01*
X45086255Y13200003D01*
X45067351Y13319357D01*
X45012488Y13427034D01*
X44927033Y13512489D01*
X44819356Y13567352D01*
X44700002Y13586255D01*
X44699998Y13586255D01*
X44580643Y13567352D01*
X44472966Y13512489D01*
X44387511Y13427034D01*
X44332648Y13319357D01*
X44313745Y13200003D01*
X39100000Y13200003D01*
X39100000Y14950003D01*
X44713745Y14950003D01*
X44713745Y14949998D01*
X44732648Y14830644D01*
X44787511Y14722967D01*
X44872966Y14637512D01*
X44980643Y14582649D01*
X45099998Y14563745D01*
X45100000Y14563745D01*
X45100002Y14563745D01*
X45219356Y14582649D01*
X45219357Y14582650D01*
X45219359Y14582650D01*
X45327035Y14637513D01*
X45412487Y14722965D01*
X45467350Y14830641D01*
X45467350Y14830643D01*
X45467351Y14830644D01*
X45486255Y14949998D01*
X45486255Y14950003D01*
X45478336Y15000003D01*
X47813745Y15000003D01*
X47813745Y14999998D01*
X47832648Y14880644D01*
X47887511Y14772967D01*
X47972966Y14687512D01*
X48080643Y14632649D01*
X48199998Y14613745D01*
X48200000Y14613745D01*
X48200002Y14613745D01*
X48319356Y14632649D01*
X48319357Y14632650D01*
X48319359Y14632650D01*
X48427035Y14687513D01*
X48512487Y14772965D01*
X48567350Y14880641D01*
X48567350Y14880643D01*
X48567351Y14880644D01*
X48586255Y14999998D01*
X48586255Y15000003D01*
X48567351Y15119357D01*
X48512488Y15227034D01*
X48427033Y15312489D01*
X48319356Y15367352D01*
X48200002Y15386255D01*
X48199998Y15386255D01*
X48080643Y15367352D01*
X47972966Y15312489D01*
X47887511Y15227034D01*
X47832648Y15119357D01*
X47813745Y15000003D01*
X45478336Y15000003D01*
X45467351Y15069357D01*
X45412488Y15177034D01*
X45327033Y15262489D01*
X45219356Y15317352D01*
X45100002Y15336255D01*
X45099998Y15336255D01*
X44980643Y15317352D01*
X44872966Y15262489D01*
X44787511Y15177034D01*
X44732648Y15069357D01*
X44713745Y14950003D01*
X39100000Y14950003D01*
X39100000Y15850003D01*
X41513745Y15850003D01*
X41513745Y15849998D01*
X41532648Y15730644D01*
X41587511Y15622967D01*
X41672966Y15537512D01*
X41780643Y15482649D01*
X41899998Y15463745D01*
X41900000Y15463745D01*
X41900002Y15463745D01*
X42019356Y15482649D01*
X42019357Y15482650D01*
X42019359Y15482650D01*
X42127035Y15537513D01*
X42212487Y15622965D01*
X42267350Y15730641D01*
X42267350Y15730643D01*
X42267351Y15730644D01*
X42286255Y15849998D01*
X42286255Y15850003D01*
X42267351Y15969357D01*
X42212488Y16077034D01*
X42127033Y16162489D01*
X42019356Y16217352D01*
X41900002Y16236255D01*
X41899998Y16236255D01*
X41780643Y16217352D01*
X41672966Y16162489D01*
X41587511Y16077034D01*
X41532648Y15969357D01*
X41513745Y15850003D01*
X39100000Y15850003D01*
X39100000Y16400003D01*
X50413745Y16400003D01*
X50413745Y16399998D01*
X50432648Y16280644D01*
X50487511Y16172967D01*
X50572966Y16087512D01*
X50680643Y16032649D01*
X50799998Y16013745D01*
X50800000Y16013745D01*
X50800002Y16013745D01*
X50919356Y16032649D01*
X50919357Y16032650D01*
X50919359Y16032650D01*
X51027035Y16087513D01*
X51112487Y16172965D01*
X51167350Y16280641D01*
X51167350Y16280643D01*
X51167351Y16280644D01*
X51186255Y16399998D01*
X51186255Y16400003D01*
X51167351Y16519357D01*
X51112488Y16627034D01*
X51027033Y16712489D01*
X50919356Y16767352D01*
X50855108Y16777527D01*
X50801027Y16803164D01*
X50744891Y16777527D01*
X50680643Y16767352D01*
X50572966Y16712489D01*
X50487511Y16627034D01*
X50432648Y16519357D01*
X50413745Y16400003D01*
X39100000Y16400003D01*
X39100000Y17400003D01*
X50413745Y17400003D01*
X50413745Y17399998D01*
X50432648Y17280644D01*
X50487511Y17172967D01*
X50572966Y17087512D01*
X50680643Y17032649D01*
X50744891Y17022473D01*
X50798971Y16996837D01*
X50855108Y17022473D01*
X50919356Y17032649D01*
X50919357Y17032650D01*
X50919359Y17032650D01*
X51027035Y17087513D01*
X51112487Y17172965D01*
X51167350Y17280641D01*
X51167350Y17280643D01*
X51167351Y17280644D01*
X51186255Y17399998D01*
X51186255Y17400003D01*
X51167351Y17519357D01*
X51112488Y17627034D01*
X51027033Y17712489D01*
X50919356Y17767352D01*
X50800002Y17786255D01*
X50799998Y17786255D01*
X50680643Y17767352D01*
X50572966Y17712489D01*
X50487511Y17627034D01*
X50432648Y17519357D01*
X50413745Y17400003D01*
X39100000Y17400003D01*
X39100000Y18200003D01*
X46413745Y18200003D01*
X46413745Y18199998D01*
X46432648Y18080644D01*
X46487511Y17972967D01*
X46572966Y17887512D01*
X46680643Y17832649D01*
X46799998Y17813745D01*
X46800000Y17813745D01*
X46800002Y17813745D01*
X46919356Y17832649D01*
X46919357Y17832650D01*
X46919359Y17832650D01*
X47027035Y17887513D01*
X47112487Y17972965D01*
X47167350Y18080641D01*
X47167350Y18080643D01*
X47167351Y18080644D01*
X47186255Y18199998D01*
X47186255Y18200003D01*
X47167351Y18319357D01*
X47112488Y18427034D01*
X47027033Y18512489D01*
X46919356Y18567352D01*
X46800002Y18586255D01*
X46799998Y18586255D01*
X46680643Y18567352D01*
X46572966Y18512489D01*
X46487511Y18427034D01*
X46432648Y18319357D01*
X46413745Y18200003D01*
X39100000Y18200003D01*
X39100000Y19009116D01*
X39119685Y19076155D01*
X39136319Y19096797D01*
X39158381Y19118859D01*
X39212487Y19172965D01*
X39267350Y19280641D01*
X39267350Y19280643D01*
X39267351Y19280644D01*
X39286255Y19399998D01*
X39286255Y19400003D01*
X39267351Y19519357D01*
X39212489Y19627032D01*
X39212488Y19627033D01*
X39212487Y19627035D01*
X39136318Y19703204D01*
X39102834Y19764528D01*
X39100000Y19790885D01*
X39100000Y21600003D01*
X40813745Y21600003D01*
X40813745Y21599998D01*
X40832648Y21480644D01*
X40887511Y21372967D01*
X40972966Y21287512D01*
X41080643Y21232649D01*
X41199998Y21213745D01*
X41200000Y21213745D01*
X41200002Y21213745D01*
X41319356Y21232649D01*
X41319357Y21232650D01*
X41319359Y21232650D01*
X41427035Y21287513D01*
X41512487Y21372965D01*
X41526263Y21400003D01*
X49013745Y21400003D01*
X49013745Y21399998D01*
X49032648Y21280644D01*
X49087511Y21172967D01*
X49172966Y21087512D01*
X49280643Y21032649D01*
X49399998Y21013745D01*
X49400000Y21013745D01*
X49400002Y21013745D01*
X49519356Y21032649D01*
X49519357Y21032650D01*
X49519359Y21032650D01*
X49627035Y21087513D01*
X49639525Y21100003D01*
X51913745Y21100003D01*
X51913745Y21099998D01*
X51932648Y20980644D01*
X51987511Y20872967D01*
X52072966Y20787512D01*
X52180643Y20732649D01*
X52299998Y20713745D01*
X52300000Y20713745D01*
X52300002Y20713745D01*
X52419356Y20732649D01*
X52419357Y20732650D01*
X52419359Y20732650D01*
X52527035Y20787513D01*
X52612487Y20872965D01*
X52667350Y20980641D01*
X52667350Y20980643D01*
X52667351Y20980644D01*
X52686255Y21099998D01*
X52686255Y21100003D01*
X52667351Y21219357D01*
X52612488Y21327034D01*
X52527033Y21412489D01*
X52419356Y21467352D01*
X52300002Y21486255D01*
X52299998Y21486255D01*
X52180643Y21467352D01*
X52072966Y21412489D01*
X51987511Y21327034D01*
X51932648Y21219357D01*
X51913745Y21100003D01*
X49639525Y21100003D01*
X49712487Y21172965D01*
X49767350Y21280641D01*
X49767350Y21280643D01*
X49767351Y21280644D01*
X49786255Y21399998D01*
X49786255Y21400003D01*
X49767351Y21519357D01*
X49712488Y21627034D01*
X49627033Y21712489D01*
X49519356Y21767352D01*
X49400002Y21786255D01*
X49399998Y21786255D01*
X49280643Y21767352D01*
X49172966Y21712489D01*
X49087511Y21627034D01*
X49032648Y21519357D01*
X49013745Y21400003D01*
X41526263Y21400003D01*
X41567350Y21480641D01*
X41567350Y21480643D01*
X41567351Y21480644D01*
X41586255Y21599998D01*
X41586255Y21600003D01*
X41567351Y21719357D01*
X41512488Y21827034D01*
X41427033Y21912489D01*
X41319356Y21967352D01*
X41255108Y21977527D01*
X41201027Y22003164D01*
X41144891Y21977527D01*
X41080643Y21967352D01*
X40972966Y21912489D01*
X40887511Y21827034D01*
X40832648Y21719357D01*
X40813745Y21600003D01*
X39100000Y21600003D01*
X39100000Y22100003D01*
X52513745Y22100003D01*
X52513745Y22099998D01*
X52532648Y21980644D01*
X52587511Y21872967D01*
X52672966Y21787512D01*
X52780643Y21732649D01*
X52899998Y21713745D01*
X52900000Y21713745D01*
X52900002Y21713745D01*
X53019356Y21732649D01*
X53019357Y21732650D01*
X53019359Y21732650D01*
X53127035Y21787513D01*
X53212487Y21872965D01*
X53267350Y21980641D01*
X53267350Y21980643D01*
X53267351Y21980644D01*
X53286255Y22099998D01*
X53286255Y22100003D01*
X53267351Y22219357D01*
X53212488Y22327034D01*
X53127033Y22412489D01*
X53019356Y22467352D01*
X52955108Y22477527D01*
X52901027Y22503164D01*
X52844891Y22477527D01*
X52780643Y22467352D01*
X52672966Y22412489D01*
X52587511Y22327034D01*
X52532648Y22219357D01*
X52513745Y22100003D01*
X39100000Y22100003D01*
X39100000Y22600003D01*
X40813745Y22600003D01*
X40813745Y22599998D01*
X40832648Y22480644D01*
X40887511Y22372967D01*
X40972966Y22287512D01*
X41080643Y22232649D01*
X41144891Y22222473D01*
X41198971Y22196837D01*
X41255108Y22222473D01*
X41319356Y22232649D01*
X41319357Y22232650D01*
X41319359Y22232650D01*
X41427035Y22287513D01*
X41512487Y22372965D01*
X41567350Y22480641D01*
X41567350Y22480643D01*
X41567351Y22480644D01*
X41586255Y22599998D01*
X41586255Y22600003D01*
X41567351Y22719357D01*
X41512488Y22827034D01*
X41427033Y22912489D01*
X41319356Y22967352D01*
X41200002Y22986255D01*
X41199998Y22986255D01*
X41080643Y22967352D01*
X40972966Y22912489D01*
X40887511Y22827034D01*
X40832648Y22719357D01*
X40813745Y22600003D01*
X39100000Y22600003D01*
X39100000Y23100003D01*
X52513745Y23100003D01*
X52513745Y23099998D01*
X52532648Y22980644D01*
X52587511Y22872967D01*
X52672966Y22787512D01*
X52780643Y22732649D01*
X52844891Y22722473D01*
X52898971Y22696837D01*
X52955108Y22722473D01*
X53019356Y22732649D01*
X53019357Y22732650D01*
X53019359Y22732650D01*
X53127035Y22787513D01*
X53212487Y22872965D01*
X53267350Y22980641D01*
X53267350Y22980643D01*
X53267351Y22980644D01*
X53286255Y23099998D01*
X53286255Y23100003D01*
X53267351Y23219357D01*
X53212488Y23327034D01*
X53127033Y23412489D01*
X53019356Y23467352D01*
X52900002Y23486255D01*
X52899998Y23486255D01*
X52780643Y23467352D01*
X52672966Y23412489D01*
X52587511Y23327034D01*
X52532648Y23219357D01*
X52513745Y23100003D01*
X39100000Y23100003D01*
X39100000Y24109116D01*
X39119685Y24176155D01*
X39136319Y24196797D01*
X39212487Y24272965D01*
X39267350Y24380641D01*
X39267350Y24380643D01*
X39267351Y24380644D01*
X39286255Y24499998D01*
X39286255Y24500003D01*
X39267351Y24619357D01*
X39212489Y24727032D01*
X39212488Y24727033D01*
X39212487Y24727035D01*
X39136318Y24803204D01*
X39102834Y24864528D01*
X39100000Y24890885D01*
X39100000Y25109116D01*
X39119685Y25176155D01*
X39136319Y25196797D01*
X39212487Y25272965D01*
X39214035Y25276003D01*
X42542100Y25276003D01*
X42542100Y23923993D01*
X42545708Y23890437D01*
X42556915Y23838923D01*
X42576398Y23800001D01*
X42591873Y23769086D01*
X42637628Y23716282D01*
X42642683Y23710722D01*
X42712474Y23668181D01*
X42779513Y23648496D01*
X42824000Y23642100D01*
X48132324Y23642100D01*
X48170472Y23632938D01*
X48171359Y23635665D01*
X48180640Y23632650D01*
X48299998Y23613745D01*
X48300000Y23613745D01*
X48300002Y23613745D01*
X48419359Y23632650D01*
X48428641Y23635665D01*
X48429527Y23632938D01*
X48467676Y23642100D01*
X48775991Y23642100D01*
X48776000Y23642100D01*
X48809565Y23645709D01*
X48861076Y23656915D01*
X48930914Y23691873D01*
X48983718Y23737628D01*
X48989278Y23742683D01*
X49031819Y23812474D01*
X49051504Y23879513D01*
X49057900Y23924000D01*
X49057900Y25976000D01*
X49054291Y26009565D01*
X49043085Y26061076D01*
X49023600Y26100003D01*
X53513745Y26100003D01*
X53513745Y26099998D01*
X53532648Y25980644D01*
X53587511Y25872967D01*
X53672966Y25787512D01*
X53780643Y25732649D01*
X53899998Y25713745D01*
X53900000Y25713745D01*
X53900002Y25713745D01*
X54019356Y25732649D01*
X54019357Y25732650D01*
X54019359Y25732650D01*
X54127035Y25787513D01*
X54212487Y25872965D01*
X54267350Y25980641D01*
X54267350Y25980643D01*
X54267351Y25980644D01*
X54286255Y26099998D01*
X54286255Y26100003D01*
X54267351Y26219357D01*
X54212488Y26327034D01*
X54127033Y26412489D01*
X54019356Y26467352D01*
X53955108Y26477527D01*
X53901027Y26503164D01*
X53844891Y26477527D01*
X53780643Y26467352D01*
X53672966Y26412489D01*
X53587511Y26327034D01*
X53532648Y26219357D01*
X53513745Y26100003D01*
X49023600Y26100003D01*
X49008127Y26130914D01*
X48962372Y26183718D01*
X48957317Y26189278D01*
X48887526Y26231819D01*
X48820487Y26251504D01*
X48820484Y26251505D01*
X48776002Y26257900D01*
X48776000Y26257900D01*
X48467676Y26257900D01*
X48429527Y26267063D01*
X48428641Y26264335D01*
X48419359Y26267351D01*
X48300002Y26286255D01*
X48299998Y26286255D01*
X48180640Y26267351D01*
X48171359Y26264335D01*
X48170472Y26267063D01*
X48132324Y26257900D01*
X47533551Y26257900D01*
X47510964Y26256042D01*
X47507737Y26255776D01*
X47467740Y26249149D01*
X47402573Y26222428D01*
X47345473Y26182176D01*
X47339431Y26177697D01*
X47339431Y26177696D01*
X47335030Y26171875D01*
X47278896Y26130273D01*
X47209181Y26125624D01*
X47197803Y26128731D01*
X47194355Y26129852D01*
X47075002Y26148755D01*
X47074998Y26148755D01*
X46955635Y26129850D01*
X46950997Y26128343D01*
X46881156Y26126353D01*
X46821326Y26162439D01*
X46818976Y26165074D01*
X46802825Y26183713D01*
X46802821Y26183718D01*
X46797766Y26189278D01*
X46727975Y26231819D01*
X46660936Y26251504D01*
X46660933Y26251505D01*
X46616451Y26257900D01*
X46616449Y26257900D01*
X46258551Y26257900D01*
X46235964Y26256042D01*
X46232737Y26255776D01*
X46192740Y26249149D01*
X46127573Y26222428D01*
X46070473Y26182176D01*
X46064431Y26177697D01*
X46064431Y26177696D01*
X46060030Y26171875D01*
X46003896Y26130273D01*
X45934181Y26125624D01*
X45922803Y26128731D01*
X45919355Y26129852D01*
X45800002Y26148755D01*
X45799998Y26148755D01*
X45680635Y26129850D01*
X45675997Y26128343D01*
X45606156Y26126353D01*
X45546326Y26162439D01*
X45543976Y26165074D01*
X45527825Y26183713D01*
X45527821Y26183718D01*
X45522766Y26189278D01*
X45452975Y26231819D01*
X45385936Y26251504D01*
X45385933Y26251505D01*
X45341451Y26257900D01*
X45341449Y26257900D01*
X44983551Y26257900D01*
X44960964Y26256042D01*
X44957737Y26255776D01*
X44917740Y26249149D01*
X44852573Y26222428D01*
X44795473Y26182176D01*
X44789431Y26177697D01*
X44789431Y26177696D01*
X44785030Y26171875D01*
X44728896Y26130273D01*
X44659181Y26125624D01*
X44647803Y26128731D01*
X44644355Y26129852D01*
X44525002Y26148755D01*
X44524998Y26148755D01*
X44405643Y26129852D01*
X44297966Y26074989D01*
X44219001Y25996025D01*
X44157678Y25962540D01*
X44109268Y25963690D01*
X44109136Y25962583D01*
X44100331Y25963636D01*
X44059953Y25968464D01*
X44019176Y25973339D01*
X44019175Y25973339D01*
X44019174Y25973339D01*
X43999784Y25970552D01*
X43949990Y25963392D01*
X43942607Y25962151D01*
X43942606Y25962150D01*
X43869086Y25926436D01*
X43816287Y25880685D01*
X43810722Y25875625D01*
X43810720Y25875623D01*
X43768181Y25805834D01*
X43748495Y25738793D01*
X43742100Y25694311D01*
X43742100Y25681900D01*
X43722415Y25614861D01*
X43669611Y25569106D01*
X43618100Y25557900D01*
X42823992Y25557900D01*
X42790436Y25554292D01*
X42738922Y25543085D01*
X42669091Y25508130D01*
X42669088Y25508129D01*
X42669086Y25508127D01*
X42669085Y25508126D01*
X42616287Y25462377D01*
X42610722Y25457317D01*
X42610720Y25457315D01*
X42568181Y25387526D01*
X42548495Y25320485D01*
X42542100Y25276003D01*
X39214035Y25276003D01*
X39267350Y25380641D01*
X39267350Y25380643D01*
X39267351Y25380644D01*
X39286255Y25499998D01*
X39286255Y25500003D01*
X39267351Y25619357D01*
X39212489Y25727032D01*
X39212488Y25727033D01*
X39212487Y25727035D01*
X39136318Y25803204D01*
X39102834Y25864528D01*
X39100000Y25890885D01*
X39100000Y26618688D01*
X39113515Y26674982D01*
X39142898Y26732650D01*
X39167350Y26780641D01*
X39167350Y26780643D01*
X39167351Y26780644D01*
X39186255Y26899998D01*
X39186255Y26900003D01*
X39167351Y27019356D01*
X39167350Y27019358D01*
X39167350Y27019359D01*
X39158105Y27037503D01*
X44138745Y27037503D01*
X44138745Y27037498D01*
X44157648Y26918144D01*
X44212511Y26810467D01*
X44297966Y26725012D01*
X44405643Y26670149D01*
X44524998Y26651245D01*
X44525000Y26651245D01*
X44525002Y26651245D01*
X44644356Y26670149D01*
X44644357Y26670150D01*
X44644359Y26670150D01*
X44752035Y26725013D01*
X44837487Y26810465D01*
X44892350Y26918141D01*
X44892350Y26918143D01*
X44892351Y26918144D01*
X44911255Y27037498D01*
X44911255Y27037503D01*
X45413745Y27037503D01*
X45413745Y27037498D01*
X45432648Y26918144D01*
X45487511Y26810467D01*
X45572966Y26725012D01*
X45680643Y26670149D01*
X45799998Y26651245D01*
X45800000Y26651245D01*
X45800002Y26651245D01*
X45919356Y26670149D01*
X45919357Y26670150D01*
X45919359Y26670150D01*
X46027035Y26725013D01*
X46112487Y26810465D01*
X46167350Y26918141D01*
X46167350Y26918143D01*
X46167351Y26918144D01*
X46186255Y27037498D01*
X46186255Y27037503D01*
X46688745Y27037503D01*
X46688745Y27037498D01*
X46707648Y26918144D01*
X46762511Y26810467D01*
X46847966Y26725012D01*
X46955643Y26670149D01*
X47074998Y26651245D01*
X47075000Y26651245D01*
X47075002Y26651245D01*
X47194356Y26670149D01*
X47194357Y26670150D01*
X47194359Y26670150D01*
X47302035Y26725013D01*
X47387487Y26810465D01*
X47442350Y26918141D01*
X47442350Y26918143D01*
X47442351Y26918144D01*
X47461255Y27037498D01*
X47461255Y27037503D01*
X47451356Y27100003D01*
X53513745Y27100003D01*
X53513745Y27099998D01*
X53532648Y26980644D01*
X53587511Y26872967D01*
X53672966Y26787512D01*
X53780643Y26732649D01*
X53844891Y26722473D01*
X53898971Y26696837D01*
X53955108Y26722473D01*
X54019356Y26732649D01*
X54019357Y26732650D01*
X54019359Y26732650D01*
X54127035Y26787513D01*
X54212487Y26872965D01*
X54267350Y26980641D01*
X54267350Y26980643D01*
X54267351Y26980644D01*
X54286255Y27099998D01*
X54286255Y27100003D01*
X54267351Y27219357D01*
X54212488Y27327034D01*
X54127033Y27412489D01*
X54019356Y27467352D01*
X53955108Y27477527D01*
X53901027Y27503164D01*
X53844891Y27477527D01*
X53780643Y27467352D01*
X53672966Y27412489D01*
X53587511Y27327034D01*
X53532648Y27219357D01*
X53513745Y27100003D01*
X47451356Y27100003D01*
X47442351Y27156857D01*
X47387488Y27264534D01*
X47302033Y27349989D01*
X47194356Y27404852D01*
X47075002Y27423755D01*
X47074998Y27423755D01*
X46955643Y27404852D01*
X46847966Y27349989D01*
X46762511Y27264534D01*
X46707648Y27156857D01*
X46688745Y27037503D01*
X46186255Y27037503D01*
X46167351Y27156857D01*
X46112488Y27264534D01*
X46027033Y27349989D01*
X45919356Y27404852D01*
X45800002Y27423755D01*
X45799998Y27423755D01*
X45680643Y27404852D01*
X45572966Y27349989D01*
X45487511Y27264534D01*
X45432648Y27156857D01*
X45413745Y27037503D01*
X44911255Y27037503D01*
X44892351Y27156857D01*
X44837488Y27264534D01*
X44752033Y27349989D01*
X44644356Y27404852D01*
X44525002Y27423755D01*
X44524998Y27423755D01*
X44405643Y27404852D01*
X44297966Y27349989D01*
X44212511Y27264534D01*
X44157648Y27156857D01*
X44138745Y27037503D01*
X39158105Y27037503D01*
X39113514Y27125020D01*
X39100000Y27181313D01*
X39100000Y28100003D01*
X53513745Y28100003D01*
X53513745Y28099998D01*
X53532648Y27980644D01*
X53587511Y27872967D01*
X53672966Y27787512D01*
X53780643Y27732649D01*
X53844891Y27722473D01*
X53898971Y27696837D01*
X53955108Y27722473D01*
X54019356Y27732649D01*
X54019357Y27732650D01*
X54019359Y27732650D01*
X54127035Y27787513D01*
X54212487Y27872965D01*
X54267350Y27980641D01*
X54267350Y27980643D01*
X54267351Y27980644D01*
X54286255Y28099998D01*
X54286255Y28100003D01*
X54267351Y28219357D01*
X54212488Y28327034D01*
X54127033Y28412489D01*
X54019356Y28467352D01*
X53900002Y28486255D01*
X53899998Y28486255D01*
X53780643Y28467352D01*
X53672966Y28412489D01*
X53587511Y28327034D01*
X53532648Y28219357D01*
X53513745Y28100003D01*
X39100000Y28100003D01*
X39100000Y29200003D01*
X39413745Y29200003D01*
X39413745Y29199998D01*
X39432648Y29080644D01*
X39487511Y28972967D01*
X39572966Y28887512D01*
X39680643Y28832649D01*
X39799998Y28813745D01*
X39800000Y28813745D01*
X39800002Y28813745D01*
X39919356Y28832649D01*
X39919357Y28832650D01*
X39919359Y28832650D01*
X40027035Y28887513D01*
X40112487Y28972965D01*
X40167350Y29080641D01*
X40167350Y29080643D01*
X40167351Y29080644D01*
X40186255Y29199998D01*
X40186255Y29200003D01*
X40167351Y29319357D01*
X40112488Y29427034D01*
X40027033Y29512489D01*
X39919356Y29567352D01*
X39800002Y29586255D01*
X39799998Y29586255D01*
X39680643Y29567352D01*
X39572966Y29512489D01*
X39487511Y29427034D01*
X39432648Y29319357D01*
X39413745Y29200003D01*
X39100000Y29200003D01*
X39100000Y30100003D01*
X43113745Y30100003D01*
X43113745Y30099998D01*
X43132648Y29980644D01*
X43187511Y29872967D01*
X43272966Y29787512D01*
X43380643Y29732649D01*
X43499998Y29713745D01*
X43500000Y29713745D01*
X43500002Y29713745D01*
X43619356Y29732649D01*
X43619357Y29732650D01*
X43619359Y29732650D01*
X43727035Y29787513D01*
X43812487Y29872965D01*
X43867350Y29980641D01*
X43867350Y29980643D01*
X43867351Y29980644D01*
X43886255Y30099998D01*
X43886255Y30100003D01*
X43867351Y30219357D01*
X43812488Y30327034D01*
X43727033Y30412489D01*
X43619356Y30467352D01*
X43500002Y30486255D01*
X43499998Y30486255D01*
X43380643Y30467352D01*
X43272966Y30412489D01*
X43187511Y30327034D01*
X43132648Y30219357D01*
X43113745Y30100003D01*
X39100000Y30100003D01*
X39100000Y32900003D01*
X44613745Y32900003D01*
X44613745Y32899998D01*
X44632648Y32780644D01*
X44687511Y32672967D01*
X44772966Y32587512D01*
X44880643Y32532649D01*
X44999998Y32513745D01*
X45000000Y32513745D01*
X45000002Y32513745D01*
X45085399Y32527271D01*
X45154692Y32518317D01*
X45208144Y32473321D01*
X45228784Y32406569D01*
X45227270Y32385401D01*
X45213745Y32300004D01*
X45213745Y32299998D01*
X45232648Y32180644D01*
X45287511Y32072967D01*
X45372966Y31987512D01*
X45480643Y31932649D01*
X45599998Y31913745D01*
X45600000Y31913745D01*
X45677277Y31925985D01*
X45746568Y31917031D01*
X45800021Y31872035D01*
X45820661Y31805284D01*
X45819148Y31784116D01*
X45814943Y31757569D01*
X45813746Y31750003D01*
X45813745Y31749999D01*
X45813745Y31749998D01*
X45832648Y31630644D01*
X45887511Y31522967D01*
X45972966Y31437512D01*
X46080643Y31382649D01*
X46199998Y31363745D01*
X46200000Y31363745D01*
X46200002Y31363745D01*
X46319356Y31382649D01*
X46319357Y31382650D01*
X46319359Y31382650D01*
X46427035Y31437513D01*
X46512487Y31522965D01*
X46567350Y31630641D01*
X46567350Y31630643D01*
X46567351Y31630644D01*
X46586255Y31749998D01*
X46586255Y31750003D01*
X46567351Y31869357D01*
X46512488Y31977034D01*
X46427033Y32062489D01*
X46319356Y32117352D01*
X46200002Y32136255D01*
X46199998Y32136255D01*
X46122723Y32124016D01*
X46053429Y32132971D01*
X45999977Y32177967D01*
X45979338Y32244719D01*
X45980852Y32265888D01*
X45986255Y32300000D01*
X45986255Y32300003D01*
X45970416Y32400003D01*
X48213745Y32400003D01*
X48213745Y32399998D01*
X48232648Y32280644D01*
X48287511Y32172967D01*
X48372966Y32087512D01*
X48480643Y32032649D01*
X48599998Y32013745D01*
X48600000Y32013745D01*
X48600002Y32013745D01*
X48719356Y32032649D01*
X48719357Y32032650D01*
X48719359Y32032650D01*
X48827035Y32087513D01*
X48912487Y32172965D01*
X48967350Y32280641D01*
X48967350Y32280643D01*
X48967351Y32280644D01*
X48986255Y32399998D01*
X48986255Y32400003D01*
X48967351Y32519357D01*
X48926261Y32600003D01*
X50513745Y32600003D01*
X50513745Y32599998D01*
X50532648Y32480644D01*
X50587511Y32372967D01*
X50672966Y32287512D01*
X50780643Y32232649D01*
X50899998Y32213745D01*
X50900000Y32213745D01*
X50900002Y32213745D01*
X51019356Y32232649D01*
X51019357Y32232650D01*
X51019359Y32232650D01*
X51127035Y32287513D01*
X51212487Y32372965D01*
X51267350Y32480641D01*
X51267350Y32480643D01*
X51267351Y32480644D01*
X51286255Y32599998D01*
X51286255Y32600003D01*
X51267351Y32719357D01*
X51212488Y32827034D01*
X51127033Y32912489D01*
X51019356Y32967352D01*
X50900002Y32986255D01*
X50899998Y32986255D01*
X50780643Y32967352D01*
X50672966Y32912489D01*
X50587511Y32827034D01*
X50532648Y32719357D01*
X50513745Y32600003D01*
X48926261Y32600003D01*
X48912488Y32627034D01*
X48827033Y32712489D01*
X48719356Y32767352D01*
X48600002Y32786255D01*
X48599998Y32786255D01*
X48480643Y32767352D01*
X48372966Y32712489D01*
X48287511Y32627034D01*
X48232648Y32519357D01*
X48213745Y32400003D01*
X45970416Y32400003D01*
X45967351Y32419357D01*
X45912488Y32527034D01*
X45827033Y32612489D01*
X45719356Y32667352D01*
X45600002Y32686255D01*
X45599996Y32686255D01*
X45514599Y32672730D01*
X45445306Y32681685D01*
X45391854Y32726682D01*
X45371215Y32793433D01*
X45372729Y32814601D01*
X45386255Y32899999D01*
X45386255Y32900003D01*
X45367351Y33019357D01*
X45312488Y33127034D01*
X45227033Y33212489D01*
X45119356Y33267352D01*
X45000002Y33286255D01*
X44999998Y33286255D01*
X44880643Y33267352D01*
X44772966Y33212489D01*
X44687511Y33127034D01*
X44632648Y33019357D01*
X44613745Y32900003D01*
X39100000Y32900003D01*
X39100000Y34500003D01*
X45913745Y34500003D01*
X45913745Y34499998D01*
X45932648Y34380644D01*
X45987511Y34272967D01*
X46072966Y34187512D01*
X46180643Y34132649D01*
X46299998Y34113745D01*
X46300000Y34113745D01*
X46300002Y34113745D01*
X46385399Y34127271D01*
X46454692Y34118317D01*
X46508144Y34073321D01*
X46528784Y34006569D01*
X46527270Y33985401D01*
X46513745Y33900004D01*
X46513745Y33899998D01*
X46532648Y33780644D01*
X46587511Y33672967D01*
X46672966Y33587512D01*
X46780643Y33532649D01*
X46899998Y33513745D01*
X46900000Y33513745D01*
X46900002Y33513745D01*
X47019356Y33532649D01*
X47019357Y33532650D01*
X47019359Y33532650D01*
X47127035Y33587513D01*
X47212487Y33672965D01*
X47267350Y33780641D01*
X47267350Y33780643D01*
X47267351Y33780644D01*
X47286255Y33899998D01*
X47286255Y33900003D01*
X47270416Y34000003D01*
X47813745Y34000003D01*
X47813745Y33999998D01*
X47832648Y33880644D01*
X47887511Y33772967D01*
X47972966Y33687512D01*
X48080643Y33632649D01*
X48199998Y33613745D01*
X48200000Y33613745D01*
X48200002Y33613745D01*
X48319356Y33632649D01*
X48319357Y33632650D01*
X48319359Y33632650D01*
X48427035Y33687513D01*
X48512487Y33772965D01*
X48567350Y33880641D01*
X48567350Y33880643D01*
X48567351Y33880644D01*
X48586255Y33999998D01*
X48586255Y34000003D01*
X48567351Y34119357D01*
X48512488Y34227034D01*
X48427033Y34312489D01*
X48319356Y34367352D01*
X48200002Y34386255D01*
X48199998Y34386255D01*
X48080643Y34367352D01*
X47972966Y34312489D01*
X47887511Y34227034D01*
X47832648Y34119357D01*
X47813745Y34000003D01*
X47270416Y34000003D01*
X47267351Y34019357D01*
X47212488Y34127034D01*
X47127033Y34212489D01*
X47019356Y34267352D01*
X46900002Y34286255D01*
X46899996Y34286255D01*
X46814599Y34272730D01*
X46745306Y34281685D01*
X46691854Y34326682D01*
X46671215Y34393433D01*
X46672729Y34414601D01*
X46686255Y34499999D01*
X46686255Y34500003D01*
X46667351Y34619357D01*
X46612488Y34727034D01*
X46527033Y34812489D01*
X46419356Y34867352D01*
X46300002Y34886255D01*
X46299998Y34886255D01*
X46180643Y34867352D01*
X46072966Y34812489D01*
X45987511Y34727034D01*
X45932648Y34619357D01*
X45913745Y34500003D01*
X39100000Y34500003D01*
X39100000Y36865060D01*
X48497100Y36865060D01*
X48497100Y35134946D01*
X48505972Y35090342D01*
X48505973Y35090339D01*
X48520260Y35068958D01*
X48539766Y35039766D01*
X48590342Y35005972D01*
X48590343Y35005972D01*
X48590345Y35005971D01*
X48612642Y35001536D01*
X48634943Y34997100D01*
X50365056Y34997101D01*
X50409658Y35005972D01*
X50460234Y35039766D01*
X50494028Y35090342D01*
X50502900Y35134943D01*
X50502899Y36000000D01*
X51032247Y36000000D01*
X51051610Y35803401D01*
X51051610Y35803399D01*
X51051611Y35803397D01*
X51108958Y35614350D01*
X51202084Y35440122D01*
X51202086Y35440119D01*
X51327410Y35287411D01*
X51480118Y35162087D01*
X51480122Y35162084D01*
X51654350Y35068958D01*
X51843397Y35011611D01*
X52040000Y34992247D01*
X52236603Y35011611D01*
X52425650Y35068958D01*
X52599878Y35162084D01*
X52752589Y35287411D01*
X52877916Y35440122D01*
X52971042Y35614350D01*
X53028389Y35803397D01*
X53047753Y36000000D01*
X53572247Y36000000D01*
X53591610Y35803401D01*
X53591610Y35803399D01*
X53591611Y35803397D01*
X53648958Y35614350D01*
X53742084Y35440122D01*
X53742086Y35440119D01*
X53867410Y35287411D01*
X54020118Y35162087D01*
X54020122Y35162084D01*
X54194350Y35068958D01*
X54383397Y35011611D01*
X54580000Y34992247D01*
X54776603Y35011611D01*
X54965650Y35068958D01*
X55139878Y35162084D01*
X55292589Y35287411D01*
X55417916Y35440122D01*
X55511042Y35614350D01*
X55568389Y35803397D01*
X55587753Y36000000D01*
X55568389Y36196603D01*
X55511042Y36385650D01*
X55417916Y36559878D01*
X55417913Y36559882D01*
X55292589Y36712590D01*
X55139881Y36837914D01*
X55139879Y36837915D01*
X55139878Y36837916D01*
X54965650Y36931042D01*
X54776603Y36988389D01*
X54776601Y36988390D01*
X54776599Y36988390D01*
X54580000Y37007753D01*
X54383400Y36988390D01*
X54194350Y36931042D01*
X54020118Y36837914D01*
X53867410Y36712590D01*
X53742086Y36559882D01*
X53648958Y36385650D01*
X53591610Y36196600D01*
X53572247Y36000000D01*
X53047753Y36000000D01*
X53028389Y36196603D01*
X52971042Y36385650D01*
X52877916Y36559878D01*
X52877913Y36559882D01*
X52752589Y36712590D01*
X52599881Y36837914D01*
X52599879Y36837915D01*
X52599878Y36837916D01*
X52425650Y36931042D01*
X52236603Y36988389D01*
X52236601Y36988390D01*
X52236599Y36988390D01*
X52040000Y37007753D01*
X51843400Y36988390D01*
X51654350Y36931042D01*
X51480118Y36837914D01*
X51327410Y36712590D01*
X51202086Y36559882D01*
X51108958Y36385650D01*
X51051610Y36196600D01*
X51032247Y36000000D01*
X50502899Y36000000D01*
X50502899Y36865056D01*
X50494028Y36909658D01*
X50494026Y36909660D01*
X50494026Y36909662D01*
X50460234Y36960234D01*
X50418097Y36988389D01*
X50409658Y36994028D01*
X50409657Y36994029D01*
X50409656Y36994029D01*
X50409654Y36994030D01*
X50365059Y37002900D01*
X48634945Y37002900D01*
X48590341Y36994028D01*
X48590338Y36994027D01*
X48539766Y36960235D01*
X48505971Y36909657D01*
X48505970Y36909655D01*
X48497100Y36865060D01*
X39100000Y36865060D01*
X39100000Y38013243D01*
X39119685Y38080282D01*
X39172489Y38126037D01*
X39185687Y38131176D01*
X39190216Y38132649D01*
X39190225Y38132650D01*
X39297901Y38187513D01*
X39383353Y38272965D01*
X39438216Y38380641D01*
X39438216Y38380643D01*
X39438217Y38380644D01*
X39457121Y38499998D01*
X39457121Y38500003D01*
X40884611Y38500003D01*
X40884611Y38499998D01*
X40903514Y38380644D01*
X40958377Y38272967D01*
X41043832Y38187512D01*
X41151509Y38132649D01*
X41270864Y38113745D01*
X41270866Y38113745D01*
X41270868Y38113745D01*
X41390222Y38132649D01*
X41390223Y38132650D01*
X41390225Y38132650D01*
X41497901Y38187513D01*
X41583353Y38272965D01*
X41638216Y38380641D01*
X41638216Y38380643D01*
X41638217Y38380644D01*
X41657121Y38499998D01*
X41657121Y38500003D01*
X42884611Y38500003D01*
X42884611Y38499998D01*
X42903514Y38380644D01*
X42958377Y38272967D01*
X43043832Y38187512D01*
X43151509Y38132649D01*
X43270864Y38113745D01*
X43270866Y38113745D01*
X43270868Y38113745D01*
X43390222Y38132649D01*
X43390223Y38132650D01*
X43390225Y38132650D01*
X43497901Y38187513D01*
X43583353Y38272965D01*
X43638216Y38380641D01*
X43638216Y38380643D01*
X43638217Y38380644D01*
X43657121Y38499998D01*
X43657121Y38500003D01*
X43638217Y38619357D01*
X43583354Y38727034D01*
X43497899Y38812489D01*
X43390222Y38867352D01*
X43270868Y38886255D01*
X43270864Y38886255D01*
X43151509Y38867352D01*
X43043832Y38812489D01*
X42958377Y38727034D01*
X42903514Y38619357D01*
X42884611Y38500003D01*
X41657121Y38500003D01*
X41638217Y38619357D01*
X41583354Y38727034D01*
X41497899Y38812489D01*
X41390222Y38867352D01*
X41270868Y38886255D01*
X41270864Y38886255D01*
X41151509Y38867352D01*
X41043832Y38812489D01*
X40958377Y38727034D01*
X40903514Y38619357D01*
X40884611Y38500003D01*
X39457121Y38500003D01*
X39438217Y38619357D01*
X39383354Y38727034D01*
X39297899Y38812489D01*
X39227925Y38848142D01*
X39190225Y38867350D01*
X39190223Y38867351D01*
X39190222Y38867351D01*
X39185672Y38868830D01*
X39128000Y38908273D01*
X39100807Y38972634D01*
X39100000Y38986758D01*
X39100000Y39200000D01*
X27490885Y39200000D01*
X27423846Y39219685D01*
X27403204Y39236318D01*
X27367033Y39272489D01*
X27327035Y39312487D01*
X27327032Y39312489D01*
X27327031Y39312490D01*
X27219356Y39367352D01*
X27100002Y39386255D01*
X27099998Y39386255D01*
X26980643Y39367352D01*
X26872968Y39312490D01*
X26796796Y39236318D01*
X26735472Y39202834D01*
X26709115Y39200000D01*
X618392Y39200000D01*
X551353Y39219685D01*
X505598Y39272489D01*
X494525Y39318265D01*
X381633Y41756723D01*
X381500Y41762458D01*
X381500Y41900003D01*
X49013745Y41900003D01*
X49013745Y41899998D01*
X49032648Y41780644D01*
X49087511Y41672967D01*
X49172966Y41587512D01*
X49280643Y41532649D01*
X49399998Y41513745D01*
X49400000Y41513745D01*
X49400002Y41513745D01*
X49519356Y41532649D01*
X49519357Y41532650D01*
X49519359Y41532650D01*
X49627035Y41587513D01*
X49712487Y41672965D01*
X49767350Y41780641D01*
X49767350Y41780643D01*
X49767351Y41780644D01*
X49786255Y41899998D01*
X49786255Y41900003D01*
X49767351Y42019357D01*
X49712488Y42127034D01*
X49627033Y42212489D01*
X49519356Y42267352D01*
X49400002Y42286255D01*
X49399998Y42286255D01*
X49280643Y42267352D01*
X49172966Y42212489D01*
X49087511Y42127034D01*
X49032648Y42019357D01*
X49013745Y41900003D01*
X381500Y41900003D01*
X381500Y42600003D01*
X54313745Y42600003D01*
X54313745Y42599998D01*
X54332648Y42480644D01*
X54387511Y42372967D01*
X54472966Y42287512D01*
X54580643Y42232649D01*
X54699998Y42213745D01*
X54700000Y42213745D01*
X54700002Y42213745D01*
X54819356Y42232649D01*
X54819357Y42232650D01*
X54819359Y42232650D01*
X54927035Y42287513D01*
X55012487Y42372965D01*
X55067350Y42480641D01*
X55067350Y42480643D01*
X55067351Y42480644D01*
X55086255Y42599998D01*
X55086255Y42600003D01*
X55067351Y42719357D01*
X55012488Y42827034D01*
X54927033Y42912489D01*
X54819356Y42967352D01*
X54700002Y42986255D01*
X54699998Y42986255D01*
X54580643Y42967352D01*
X54472966Y42912489D01*
X54387511Y42827034D01*
X54332648Y42719357D01*
X54313745Y42600003D01*
X381500Y42600003D01*
X381500Y43500003D01*
X49013745Y43500003D01*
X49013745Y43499998D01*
X49032648Y43380644D01*
X49087511Y43272967D01*
X49172966Y43187512D01*
X49280643Y43132649D01*
X49399998Y43113745D01*
X49400000Y43113745D01*
X49400002Y43113745D01*
X49519356Y43132649D01*
X49519357Y43132650D01*
X49519359Y43132650D01*
X49627035Y43187513D01*
X49712487Y43272965D01*
X49767350Y43380641D01*
X49767350Y43380643D01*
X49767351Y43380644D01*
X49786255Y43499998D01*
X49786255Y43500003D01*
X49767351Y43619357D01*
X49712488Y43727034D01*
X49627033Y43812489D01*
X49519356Y43867352D01*
X49400002Y43886255D01*
X49399998Y43886255D01*
X49280643Y43867352D01*
X49172966Y43812489D01*
X49087511Y43727034D01*
X49032648Y43619357D01*
X49013745Y43500003D01*
X381500Y43500003D01*
X381500Y45200003D01*
X54313745Y45200003D01*
X54313745Y45199998D01*
X54332648Y45080644D01*
X54387511Y44972967D01*
X54472966Y44887512D01*
X54580643Y44832649D01*
X54699998Y44813745D01*
X54700000Y44813745D01*
X54700002Y44813745D01*
X54819356Y44832649D01*
X54819357Y44832650D01*
X54819359Y44832650D01*
X54927035Y44887513D01*
X55012487Y44972965D01*
X55067350Y45080641D01*
X55067350Y45080643D01*
X55067351Y45080644D01*
X55086255Y45199998D01*
X55086255Y45200003D01*
X55067351Y45319357D01*
X55012488Y45427034D01*
X54927033Y45512489D01*
X54819356Y45567352D01*
X54700002Y45586255D01*
X54699998Y45586255D01*
X54580643Y45567352D01*
X54472966Y45512489D01*
X54387511Y45427034D01*
X54332648Y45319357D01*
X54313745Y45200003D01*
X381500Y45200003D01*
X381500Y46996520D01*
X381695Y47003473D01*
X387858Y47113220D01*
X1272500Y47113220D01*
X1272500Y46886781D01*
X1272501Y46886765D01*
X1302056Y46662269D01*
X1302057Y46662264D01*
X1302058Y46662258D01*
X1302059Y46662256D01*
X1360667Y46443524D01*
X1447322Y46234319D01*
X1447329Y46234304D01*
X1560553Y46038194D01*
X1698408Y45858538D01*
X1698414Y45858531D01*
X1858530Y45698415D01*
X1858537Y45698409D01*
X2038193Y45560554D01*
X2234303Y45447330D01*
X2234318Y45447323D01*
X2342507Y45402510D01*
X2443522Y45360668D01*
X2662258Y45302058D01*
X2886774Y45272500D01*
X2886781Y45272500D01*
X3113219Y45272500D01*
X3113226Y45272500D01*
X3337742Y45302058D01*
X3556478Y45360668D01*
X3765693Y45447328D01*
X3961807Y45560554D01*
X4141464Y45698410D01*
X4301590Y45858536D01*
X4439446Y46038193D01*
X4552672Y46234307D01*
X4639332Y46443522D01*
X4697942Y46662258D01*
X4727500Y46886774D01*
X4727500Y47113226D01*
X4697942Y47337742D01*
X4639332Y47556478D01*
X4552672Y47765693D01*
X4439446Y47961807D01*
X4301590Y48141464D01*
X4301585Y48141470D01*
X4141469Y48301586D01*
X4141462Y48301592D01*
X3961806Y48439447D01*
X3765696Y48552671D01*
X3765681Y48552678D01*
X3556476Y48639333D01*
X3447110Y48668637D01*
X3337742Y48697942D01*
X3337736Y48697943D01*
X3337731Y48697944D01*
X3113235Y48727499D01*
X3113232Y48727500D01*
X3113226Y48727500D01*
X2886774Y48727500D01*
X2886768Y48727500D01*
X2886764Y48727499D01*
X2662268Y48697944D01*
X2662261Y48697943D01*
X2662258Y48697942D01*
X2616031Y48685556D01*
X2443523Y48639333D01*
X2234318Y48552678D01*
X2234303Y48552671D01*
X2038193Y48439447D01*
X1858537Y48301592D01*
X1858530Y48301586D01*
X1698414Y48141470D01*
X1698408Y48141463D01*
X1560553Y47961807D01*
X1447329Y47765697D01*
X1447322Y47765682D01*
X1360667Y47556477D01*
X1302059Y47337745D01*
X1302056Y47337732D01*
X1272501Y47113236D01*
X1272500Y47113220D01*
X387858Y47113220D01*
X397575Y47286242D01*
X399129Y47300032D01*
X445985Y47575813D01*
X449078Y47589361D01*
X499875Y47765682D01*
X526515Y47858151D01*
X531106Y47871271D01*
X533230Y47876398D01*
X638153Y48129705D01*
X644176Y48142212D01*
X779485Y48387032D01*
X786882Y48398805D01*
X948750Y48626938D01*
X957405Y48637792D01*
X1143810Y48846378D01*
X1153622Y48856190D01*
X1362208Y49042595D01*
X1373062Y49051250D01*
X1601200Y49213122D01*
X1612968Y49220515D01*
X1631153Y49230566D01*
X1857788Y49355824D01*
X1870295Y49361847D01*
X2128736Y49468897D01*
X2141849Y49473485D01*
X2410644Y49550924D01*
X2424187Y49554015D01*
X2699968Y49600871D01*
X2713758Y49602425D01*
X2996528Y49618305D01*
X3003481Y49618500D01*
X56276000Y49618500D01*
X56343039Y49598815D01*
G37*
G04 #@! TD.AperFunction*
G04 #@! TD*
G04 #@! TA.AperFunction,Conductor*
G04 #@! TO.N,-2V5*
G36*
X2943039Y24780315D02*
G01*
X2988794Y24727511D01*
X3000000Y24676000D01*
X3000000Y23116500D01*
X2980315Y23049461D01*
X2927511Y23003706D01*
X2908094Y22996725D01*
X2742685Y22952404D01*
X2742673Y22952400D01*
X2536065Y22856057D01*
X2536057Y22856053D01*
X2349317Y22725296D01*
X2349311Y22725291D01*
X2188109Y22564089D01*
X2188104Y22564083D01*
X2057347Y22377343D01*
X2057343Y22377335D01*
X1961000Y22170727D01*
X1960995Y22170713D01*
X1901994Y21950516D01*
X1901992Y21950506D01*
X1882123Y21723401D01*
X1882123Y21723400D01*
X1901992Y21496295D01*
X1901994Y21496285D01*
X1960995Y21276088D01*
X1961000Y21276074D01*
X2030758Y21126478D01*
X2057345Y21069461D01*
X2188108Y20882713D01*
X2349313Y20721508D01*
X2536061Y20590745D01*
X2659751Y20533068D01*
X2742673Y20494401D01*
X2742675Y20494401D01*
X2742680Y20494398D01*
X2962890Y20435393D01*
X3144578Y20419497D01*
X3189999Y20415523D01*
X3190000Y20415523D01*
X3190001Y20415523D01*
X3227851Y20418835D01*
X3417110Y20435393D01*
X3637320Y20494398D01*
X3843939Y20590745D01*
X4030687Y20721508D01*
X4191892Y20882713D01*
X4322655Y21069461D01*
X4419002Y21276080D01*
X4478007Y21496290D01*
X4497877Y21723400D01*
X4478007Y21950510D01*
X4419002Y22170720D01*
X4411171Y22187513D01*
X4322656Y22377335D01*
X4322655Y22377338D01*
X4303373Y22404876D01*
X4281045Y22471082D01*
X4298055Y22538849D01*
X4349002Y22586663D01*
X4404947Y22600000D01*
X8528253Y22600000D01*
X8595292Y22580315D01*
X8641047Y22527511D01*
X8650991Y22458353D01*
X8629827Y22404876D01*
X8610549Y22377345D01*
X8610543Y22377335D01*
X8514200Y22170727D01*
X8514195Y22170713D01*
X8455194Y21950516D01*
X8455192Y21950506D01*
X8435323Y21723401D01*
X8435323Y21723400D01*
X8455192Y21496295D01*
X8455194Y21496285D01*
X8514195Y21276088D01*
X8514200Y21276074D01*
X8583958Y21126478D01*
X8610545Y21069461D01*
X8741308Y20882713D01*
X8902513Y20721508D01*
X9089261Y20590745D01*
X9212951Y20533068D01*
X9295873Y20494401D01*
X9295875Y20494401D01*
X9295880Y20494398D01*
X9516090Y20435393D01*
X9697778Y20419497D01*
X9743199Y20415523D01*
X9743200Y20415523D01*
X9743201Y20415523D01*
X9781051Y20418835D01*
X9970310Y20435393D01*
X10190520Y20494398D01*
X10202540Y20500003D01*
X16813745Y20500003D01*
X16813745Y20499998D01*
X16832648Y20380644D01*
X16887511Y20272967D01*
X16972966Y20187512D01*
X17080643Y20132649D01*
X17199998Y20113745D01*
X17200000Y20113745D01*
X17200002Y20113745D01*
X17319356Y20132649D01*
X17319357Y20132650D01*
X17319359Y20132650D01*
X17427035Y20187513D01*
X17512487Y20272965D01*
X17567350Y20380641D01*
X17567350Y20380643D01*
X17567351Y20380644D01*
X17586255Y20499998D01*
X17586255Y20500003D01*
X17567351Y20619357D01*
X17512488Y20727034D01*
X17427033Y20812489D01*
X17319356Y20867352D01*
X17200002Y20886255D01*
X17199998Y20886255D01*
X17080643Y20867352D01*
X16972966Y20812489D01*
X16887511Y20727034D01*
X16832648Y20619357D01*
X16813745Y20500003D01*
X10202540Y20500003D01*
X10397139Y20590745D01*
X10583887Y20721508D01*
X10745092Y20882713D01*
X10875855Y21069461D01*
X10972202Y21276080D01*
X11005407Y21400003D01*
X18413745Y21400003D01*
X18413745Y21399998D01*
X18432648Y21280644D01*
X18487511Y21172967D01*
X18572966Y21087512D01*
X18680643Y21032649D01*
X18799998Y21013745D01*
X18800000Y21013745D01*
X18800002Y21013745D01*
X18919356Y21032649D01*
X18919357Y21032650D01*
X18919359Y21032650D01*
X19027035Y21087513D01*
X19112487Y21172965D01*
X19167350Y21280641D01*
X19167350Y21280643D01*
X19167351Y21280644D01*
X19178336Y21350000D01*
X26100000Y21350000D01*
X27250000Y21350000D01*
X28050000Y21350000D01*
X29200000Y21350000D01*
X29200000Y22900000D01*
X28050000Y22900000D01*
X28050000Y21350000D01*
X27250000Y21350000D01*
X27250000Y22900000D01*
X26100000Y22900000D01*
X26100000Y21350000D01*
X19178336Y21350000D01*
X19186255Y21399998D01*
X19186255Y21400003D01*
X19167351Y21519357D01*
X19112488Y21627034D01*
X19027033Y21712489D01*
X18919356Y21767352D01*
X18800002Y21786255D01*
X18799998Y21786255D01*
X18680643Y21767352D01*
X18572966Y21712489D01*
X18487511Y21627034D01*
X18432648Y21519357D01*
X18413745Y21400003D01*
X11005407Y21400003D01*
X11031207Y21496290D01*
X11051077Y21723400D01*
X11031207Y21950510D01*
X10972202Y22170720D01*
X10964371Y22187513D01*
X10875856Y22377335D01*
X10875855Y22377338D01*
X10856573Y22404876D01*
X10834245Y22471082D01*
X10851255Y22538849D01*
X10902202Y22586663D01*
X10958147Y22600000D01*
X18392001Y22600000D01*
X18459040Y22580315D01*
X18504795Y22527511D01*
X18514474Y22495397D01*
X18532648Y22380644D01*
X18587511Y22272967D01*
X18672966Y22187512D01*
X18780643Y22132649D01*
X18899998Y22113745D01*
X18900000Y22113745D01*
X18900002Y22113745D01*
X19019356Y22132649D01*
X19019357Y22132650D01*
X19019359Y22132650D01*
X19127035Y22187513D01*
X19212487Y22272965D01*
X19267350Y22380641D01*
X19267350Y22380643D01*
X19267351Y22380644D01*
X19286255Y22499998D01*
X19286255Y22500003D01*
X19267351Y22619357D01*
X19212488Y22727034D01*
X19127033Y22812489D01*
X19019356Y22867352D01*
X18900002Y22886255D01*
X18899998Y22886255D01*
X18780642Y22867351D01*
X18780638Y22867350D01*
X18780284Y22867169D01*
X18779807Y22867080D01*
X18771365Y22864336D01*
X18771010Y22865429D01*
X18711613Y22854279D01*
X18646876Y22880562D01*
X18606624Y22937672D01*
X18600000Y22977659D01*
X18600000Y23350003D01*
X23813745Y23350003D01*
X23813745Y23349998D01*
X23832648Y23230644D01*
X23887511Y23122967D01*
X23972966Y23037512D01*
X24080643Y22982649D01*
X24199998Y22963745D01*
X24200000Y22963745D01*
X24200002Y22963745D01*
X24319356Y22982649D01*
X24319357Y22982650D01*
X24319359Y22982650D01*
X24427035Y23037513D01*
X24512487Y23122965D01*
X24567350Y23230641D01*
X24567350Y23230643D01*
X24567351Y23230644D01*
X24586255Y23349998D01*
X24586255Y23350003D01*
X24567351Y23469357D01*
X24512488Y23577034D01*
X24427033Y23662489D01*
X24319356Y23717352D01*
X24200002Y23736255D01*
X24199998Y23736255D01*
X24080643Y23717352D01*
X23972966Y23662489D01*
X23887511Y23577034D01*
X23832648Y23469357D01*
X23813745Y23350003D01*
X18600000Y23350003D01*
X18600000Y24676000D01*
X18619685Y24743039D01*
X18672489Y24788794D01*
X18724000Y24800000D01*
X29673294Y24800000D01*
X29740333Y24780315D01*
X29786088Y24727511D01*
X29796032Y24658353D01*
X29783779Y24619706D01*
X29732648Y24519357D01*
X29713745Y24400003D01*
X29713745Y24399998D01*
X29732648Y24280644D01*
X29790165Y24167759D01*
X29803678Y24112128D01*
X29882964Y9285525D01*
X29863638Y9218381D01*
X29811080Y9172345D01*
X29741976Y9162032D01*
X29720642Y9166933D01*
X29719354Y9167352D01*
X29600002Y9186255D01*
X29599998Y9186255D01*
X29480643Y9167352D01*
X29372964Y9112488D01*
X29372884Y9112429D01*
X29372769Y9112389D01*
X29364269Y9108057D01*
X29363709Y9109156D01*
X29307077Y9088950D01*
X29239024Y9104776D01*
X29227116Y9112429D01*
X29227035Y9112488D01*
X29119356Y9167352D01*
X29000002Y9186255D01*
X28999998Y9186255D01*
X28880643Y9167352D01*
X28772966Y9112489D01*
X28687511Y9027034D01*
X28632648Y8919357D01*
X28613745Y8800003D01*
X28613745Y8799998D01*
X28632648Y8680644D01*
X28687511Y8572967D01*
X28772966Y8487512D01*
X28880643Y8432649D01*
X28999998Y8413745D01*
X29000000Y8413745D01*
X29000002Y8413745D01*
X29119356Y8432649D01*
X29119357Y8432650D01*
X29119359Y8432650D01*
X29227035Y8487513D01*
X29227038Y8487516D01*
X29227108Y8487566D01*
X29227216Y8487605D01*
X29235731Y8491943D01*
X29236291Y8490844D01*
X29292913Y8511050D01*
X29360968Y8495230D01*
X29372892Y8487566D01*
X29372968Y8487511D01*
X29480643Y8432649D01*
X29599998Y8413745D01*
X29600000Y8413745D01*
X29600002Y8413745D01*
X29650935Y8421813D01*
X29719359Y8432650D01*
X29719369Y8432656D01*
X29725815Y8434749D01*
X29795656Y8436750D01*
X29855492Y8400675D01*
X29886325Y8337976D01*
X29888141Y8317484D01*
X29899333Y6224663D01*
X29880007Y6157519D01*
X29827449Y6111483D01*
X29775335Y6100000D01*
X22740885Y6100000D01*
X22673846Y6119685D01*
X22653204Y6136318D01*
X22617033Y6172489D01*
X22577035Y6212487D01*
X22577032Y6212489D01*
X22577031Y6212490D01*
X22469356Y6267352D01*
X22350002Y6286255D01*
X22349998Y6286255D01*
X22230643Y6267352D01*
X22122968Y6212490D01*
X22046796Y6136318D01*
X21985472Y6102834D01*
X21959115Y6100000D01*
X505500Y6100000D01*
X438461Y6119685D01*
X392706Y6172489D01*
X381500Y6224000D01*
X381500Y8250000D01*
X3567375Y8250000D01*
X3586243Y8010248D01*
X3642385Y7776396D01*
X3734418Y7554207D01*
X3734420Y7554204D01*
X3860078Y7349149D01*
X3860081Y7349144D01*
X3930880Y7266249D01*
X4016270Y7166270D01*
X4133329Y7066293D01*
X4199143Y7010082D01*
X4199148Y7010079D01*
X4404203Y6884421D01*
X4404206Y6884419D01*
X4626395Y6792386D01*
X4724426Y6768852D01*
X4860245Y6736244D01*
X5100000Y6717375D01*
X5339755Y6736244D01*
X5508181Y6776680D01*
X5573604Y6792386D01*
X5573605Y6792387D01*
X5573607Y6792387D01*
X5665637Y6830508D01*
X5795793Y6884419D01*
X5795794Y6884420D01*
X5795797Y6884421D01*
X6000854Y7010080D01*
X6183730Y7166270D01*
X6339920Y7349146D01*
X6465579Y7554203D01*
X6557613Y7776393D01*
X6613756Y8010245D01*
X6632625Y8250000D01*
X8567375Y8250000D01*
X8586243Y8010248D01*
X8642385Y7776396D01*
X8734418Y7554207D01*
X8734420Y7554204D01*
X8860078Y7349149D01*
X8860081Y7349144D01*
X8930880Y7266249D01*
X9016270Y7166270D01*
X9133329Y7066293D01*
X9199143Y7010082D01*
X9199148Y7010079D01*
X9404203Y6884421D01*
X9404206Y6884419D01*
X9626395Y6792386D01*
X9724426Y6768852D01*
X9860245Y6736244D01*
X10100000Y6717375D01*
X10339755Y6736244D01*
X10508181Y6776680D01*
X10573604Y6792386D01*
X10573605Y6792387D01*
X10573607Y6792387D01*
X10665637Y6830508D01*
X10795793Y6884419D01*
X10795794Y6884420D01*
X10795797Y6884421D01*
X10984405Y7000000D01*
X22842443Y7000000D01*
X22860976Y6871092D01*
X22879689Y6830118D01*
X22915079Y6752626D01*
X23000364Y6654201D01*
X23000366Y6654200D01*
X23000366Y6654199D01*
X23044188Y6626038D01*
X23109924Y6583792D01*
X23211765Y6553888D01*
X23234882Y6547100D01*
X23234883Y6547100D01*
X23365118Y6547100D01*
X23384625Y6552829D01*
X23490076Y6583792D01*
X23599636Y6654201D01*
X23684921Y6752626D01*
X23687205Y6757627D01*
X23732958Y6810432D01*
X23799997Y6830118D01*
X23867037Y6810435D01*
X23912793Y6757632D01*
X23912795Y6757627D01*
X23915077Y6752629D01*
X23915078Y6752628D01*
X23915079Y6752626D01*
X24000364Y6654201D01*
X24000366Y6654200D01*
X24000366Y6654199D01*
X24044188Y6626038D01*
X24109924Y6583792D01*
X24211765Y6553888D01*
X24234882Y6547100D01*
X24234883Y6547100D01*
X24365118Y6547100D01*
X24384625Y6552829D01*
X24490076Y6583792D01*
X24599636Y6654201D01*
X24684921Y6752626D01*
X24687205Y6757627D01*
X24732958Y6810432D01*
X24799997Y6830118D01*
X24867037Y6810435D01*
X24912793Y6757632D01*
X24912795Y6757627D01*
X24915077Y6752629D01*
X24915078Y6752628D01*
X24915079Y6752626D01*
X25000364Y6654201D01*
X25000366Y6654200D01*
X25000366Y6654199D01*
X25044188Y6626038D01*
X25109924Y6583792D01*
X25211765Y6553888D01*
X25234882Y6547100D01*
X25234883Y6547100D01*
X25365118Y6547100D01*
X25384625Y6552829D01*
X25490076Y6583792D01*
X25599636Y6654201D01*
X25684921Y6752626D01*
X25739023Y6871091D01*
X25757557Y7000000D01*
X25739023Y7128909D01*
X25684921Y7247374D01*
X25599636Y7345799D01*
X25599633Y7345801D01*
X25599633Y7345802D01*
X25533900Y7388045D01*
X25490076Y7416208D01*
X25406770Y7440670D01*
X25365118Y7452900D01*
X25365117Y7452900D01*
X25234883Y7452900D01*
X25234882Y7452900D01*
X25172403Y7434554D01*
X25109924Y7416208D01*
X25109921Y7416206D01*
X25000366Y7345802D01*
X25000366Y7345801D01*
X24915079Y7247375D01*
X24915078Y7247373D01*
X24912794Y7242371D01*
X24867039Y7189567D01*
X24799999Y7169883D01*
X24732960Y7189568D01*
X24687206Y7242371D01*
X24684921Y7247373D01*
X24684920Y7247375D01*
X24599636Y7345799D01*
X24599633Y7345801D01*
X24599633Y7345802D01*
X24533900Y7388045D01*
X24490076Y7416208D01*
X24406770Y7440670D01*
X24365118Y7452900D01*
X24365117Y7452900D01*
X24234883Y7452900D01*
X24234882Y7452900D01*
X24172403Y7434554D01*
X24109924Y7416208D01*
X24109921Y7416206D01*
X24000366Y7345802D01*
X24000366Y7345801D01*
X23915079Y7247375D01*
X23915078Y7247373D01*
X23912794Y7242371D01*
X23867039Y7189567D01*
X23799999Y7169883D01*
X23732960Y7189568D01*
X23687206Y7242371D01*
X23684921Y7247373D01*
X23684920Y7247375D01*
X23599636Y7345799D01*
X23599633Y7345801D01*
X23599633Y7345802D01*
X23533900Y7388045D01*
X23490076Y7416208D01*
X23406770Y7440670D01*
X23365118Y7452900D01*
X23365117Y7452900D01*
X23234883Y7452900D01*
X23234882Y7452900D01*
X23172403Y7434554D01*
X23109924Y7416208D01*
X23109921Y7416206D01*
X23000366Y7345802D01*
X23000366Y7345801D01*
X22915079Y7247375D01*
X22915078Y7247373D01*
X22860976Y7128909D01*
X22842443Y7000000D01*
X10984405Y7000000D01*
X11000854Y7010080D01*
X11183730Y7166270D01*
X11339920Y7349146D01*
X11465579Y7554203D01*
X11557613Y7776393D01*
X11611297Y8000003D01*
X25713745Y8000003D01*
X25713745Y7999998D01*
X25732648Y7880644D01*
X25787511Y7772967D01*
X25872966Y7687512D01*
X25980643Y7632649D01*
X26099998Y7613745D01*
X26100000Y7613745D01*
X26100002Y7613745D01*
X26219356Y7632649D01*
X26219357Y7632650D01*
X26219359Y7632650D01*
X26327035Y7687513D01*
X26412487Y7772965D01*
X26467350Y7880641D01*
X26467350Y7880643D01*
X26467351Y7880644D01*
X26486255Y7999998D01*
X26486255Y8000003D01*
X26467351Y8119357D01*
X26412488Y8227034D01*
X26327033Y8312489D01*
X26219356Y8367352D01*
X26100002Y8386255D01*
X26099998Y8386255D01*
X25980643Y8367352D01*
X25872966Y8312489D01*
X25787511Y8227034D01*
X25732648Y8119357D01*
X25713745Y8000003D01*
X11611297Y8000003D01*
X11613756Y8010245D01*
X11632625Y8250000D01*
X11613756Y8489755D01*
X11587287Y8600003D01*
X23669245Y8600003D01*
X23669245Y8599998D01*
X23688148Y8480644D01*
X23743011Y8372967D01*
X23828466Y8287512D01*
X23936143Y8232649D01*
X24055498Y8213745D01*
X24055500Y8213745D01*
X24055502Y8213745D01*
X24174856Y8232649D01*
X24174857Y8232650D01*
X24174859Y8232650D01*
X24242146Y8266934D01*
X24282532Y8287511D01*
X24282532Y8287512D01*
X24282535Y8287513D01*
X24287316Y8292295D01*
X24348636Y8325781D01*
X24418328Y8320800D01*
X24462677Y8292300D01*
X24470901Y8284077D01*
X24578579Y8229213D01*
X24697934Y8210309D01*
X24697936Y8210309D01*
X24697938Y8210309D01*
X24817292Y8229213D01*
X24817293Y8229214D01*
X24817295Y8229214D01*
X24924971Y8284077D01*
X25010423Y8369529D01*
X25065286Y8477205D01*
X25065286Y8477207D01*
X25065287Y8477208D01*
X25084191Y8596562D01*
X25084191Y8596567D01*
X25065287Y8715921D01*
X25010424Y8823598D01*
X24924969Y8909053D01*
X24817292Y8963916D01*
X24697938Y8982819D01*
X24697934Y8982819D01*
X24578579Y8963916D01*
X24470901Y8909052D01*
X24466113Y8904264D01*
X24404789Y8870782D01*
X24335097Y8875769D01*
X24290758Y8904265D01*
X24282534Y8912488D01*
X24174856Y8967352D01*
X24055502Y8986255D01*
X24055498Y8986255D01*
X23936143Y8967352D01*
X23828466Y8912489D01*
X23743011Y8827034D01*
X23688148Y8719357D01*
X23669245Y8600003D01*
X11587287Y8600003D01*
X11580720Y8627358D01*
X11557614Y8723605D01*
X11465581Y8945794D01*
X11465579Y8945797D01*
X11377855Y9088950D01*
X11339920Y9150854D01*
X11339919Y9150855D01*
X11339918Y9150857D01*
X11282247Y9218381D01*
X11183730Y9333730D01*
X11067909Y9432650D01*
X11000856Y9489919D01*
X11000851Y9489922D01*
X10795796Y9615580D01*
X10795793Y9615582D01*
X10573604Y9707615D01*
X10339751Y9763757D01*
X10339752Y9763757D01*
X10100000Y9782625D01*
X9860247Y9763757D01*
X9626395Y9707615D01*
X9404206Y9615582D01*
X9404203Y9615580D01*
X9199148Y9489922D01*
X9199143Y9489919D01*
X9016270Y9333730D01*
X8860081Y9150857D01*
X8860078Y9150852D01*
X8734420Y8945797D01*
X8734418Y8945794D01*
X8642385Y8723605D01*
X8586243Y8489753D01*
X8567375Y8250000D01*
X6632625Y8250000D01*
X6613756Y8489755D01*
X6580720Y8627358D01*
X6557614Y8723605D01*
X6465581Y8945794D01*
X6465579Y8945797D01*
X6377855Y9088950D01*
X6339920Y9150854D01*
X6339919Y9150855D01*
X6339918Y9150857D01*
X6282247Y9218381D01*
X6183730Y9333730D01*
X6067909Y9432650D01*
X6000856Y9489919D01*
X6000851Y9489922D01*
X5795796Y9615580D01*
X5795793Y9615582D01*
X5573604Y9707615D01*
X5339751Y9763757D01*
X5339752Y9763757D01*
X5100000Y9782625D01*
X4860247Y9763757D01*
X4626395Y9707615D01*
X4404206Y9615582D01*
X4404203Y9615580D01*
X4199148Y9489922D01*
X4199143Y9489919D01*
X4016270Y9333730D01*
X3860081Y9150857D01*
X3860078Y9150852D01*
X3734420Y8945797D01*
X3734418Y8945794D01*
X3642385Y8723605D01*
X3586243Y8489753D01*
X3567375Y8250000D01*
X381500Y8250000D01*
X381500Y9800003D01*
X28063745Y9800003D01*
X28063745Y9799998D01*
X28082648Y9680644D01*
X28137511Y9572967D01*
X28222966Y9487512D01*
X28330643Y9432649D01*
X28449998Y9413745D01*
X28450000Y9413745D01*
X28450002Y9413745D01*
X28569356Y9432649D01*
X28569357Y9432650D01*
X28569359Y9432650D01*
X28677035Y9487513D01*
X28762487Y9572965D01*
X28817350Y9680641D01*
X28817350Y9680643D01*
X28817351Y9680644D01*
X28836255Y9799998D01*
X28836255Y9800003D01*
X28817351Y9919357D01*
X28762488Y10027034D01*
X28677033Y10112489D01*
X28569356Y10167352D01*
X28450002Y10186255D01*
X28449998Y10186255D01*
X28330643Y10167352D01*
X28222966Y10112489D01*
X28137511Y10027034D01*
X28082648Y9919357D01*
X28063745Y9800003D01*
X381500Y9800003D01*
X381500Y11025003D01*
X27188745Y11025003D01*
X27188745Y11024998D01*
X27207648Y10905644D01*
X27262511Y10797967D01*
X27347966Y10712512D01*
X27455643Y10657649D01*
X27574998Y10638745D01*
X27575000Y10638745D01*
X27575002Y10638745D01*
X27694356Y10657649D01*
X27694357Y10657650D01*
X27694359Y10657650D01*
X27802035Y10712513D01*
X27887487Y10797965D01*
X27942350Y10905641D01*
X27942350Y10905643D01*
X27942351Y10905644D01*
X27961255Y11024998D01*
X27961255Y11025003D01*
X27942351Y11144357D01*
X27887488Y11252034D01*
X27802033Y11337489D01*
X27694356Y11392352D01*
X27575002Y11411255D01*
X27574998Y11411255D01*
X27455643Y11392352D01*
X27347966Y11337489D01*
X27262511Y11252034D01*
X27207648Y11144357D01*
X27188745Y11025003D01*
X381500Y11025003D01*
X381500Y15750000D01*
X3567375Y15750000D01*
X3586243Y15510248D01*
X3642385Y15276396D01*
X3734418Y15054207D01*
X3734420Y15054204D01*
X3860078Y14849149D01*
X3860081Y14849144D01*
X3930880Y14766249D01*
X4016270Y14666270D01*
X4133329Y14566293D01*
X4199143Y14510082D01*
X4199148Y14510079D01*
X4404203Y14384421D01*
X4404206Y14384419D01*
X4626395Y14292386D01*
X4724426Y14268852D01*
X4860245Y14236244D01*
X5100000Y14217375D01*
X5339755Y14236244D01*
X5508181Y14276680D01*
X5573604Y14292386D01*
X5573605Y14292387D01*
X5573607Y14292387D01*
X5665637Y14330508D01*
X5795793Y14384419D01*
X5795794Y14384420D01*
X5795797Y14384421D01*
X6000854Y14510080D01*
X6183730Y14666270D01*
X6339920Y14849146D01*
X6465579Y15054203D01*
X6470853Y15066934D01*
X6557614Y15276396D01*
X6594049Y15428160D01*
X6613756Y15510245D01*
X6632625Y15750000D01*
X8567375Y15750000D01*
X8586243Y15510248D01*
X8642385Y15276396D01*
X8734418Y15054207D01*
X8734420Y15054204D01*
X8860078Y14849149D01*
X8860081Y14849144D01*
X8930880Y14766249D01*
X9016270Y14666270D01*
X9133329Y14566293D01*
X9199143Y14510082D01*
X9199148Y14510079D01*
X9404203Y14384421D01*
X9404206Y14384419D01*
X9626395Y14292386D01*
X9724426Y14268852D01*
X9860245Y14236244D01*
X10100000Y14217375D01*
X10339755Y14236244D01*
X10508181Y14276680D01*
X10573604Y14292386D01*
X10573605Y14292387D01*
X10573607Y14292387D01*
X10665637Y14330508D01*
X10795793Y14384419D01*
X10795794Y14384420D01*
X10795797Y14384421D01*
X11000854Y14510080D01*
X11183730Y14666270D01*
X11339920Y14849146D01*
X11465579Y15054203D01*
X11470853Y15066934D01*
X11557614Y15276396D01*
X11594049Y15428160D01*
X11613756Y15510245D01*
X11632625Y15750000D01*
X11613756Y15989755D01*
X11586798Y16102039D01*
X11557614Y16223605D01*
X11465581Y16445794D01*
X11465579Y16445797D01*
X11339921Y16650852D01*
X11339918Y16650857D01*
X11283707Y16716671D01*
X11183730Y16833730D01*
X11083751Y16919120D01*
X11000856Y16989919D01*
X11000851Y16989922D01*
X10795796Y17115580D01*
X10795793Y17115582D01*
X10573604Y17207615D01*
X10339751Y17263757D01*
X10339752Y17263757D01*
X10100000Y17282625D01*
X9860247Y17263757D01*
X9626395Y17207615D01*
X9404206Y17115582D01*
X9404203Y17115580D01*
X9199148Y16989922D01*
X9199143Y16989919D01*
X9016270Y16833730D01*
X8860081Y16650857D01*
X8860078Y16650852D01*
X8734420Y16445797D01*
X8734418Y16445794D01*
X8642385Y16223605D01*
X8586243Y15989753D01*
X8567375Y15750000D01*
X6632625Y15750000D01*
X6613756Y15989755D01*
X6586798Y16102039D01*
X6557614Y16223605D01*
X6465581Y16445794D01*
X6465579Y16445797D01*
X6339921Y16650852D01*
X6339918Y16650857D01*
X6283707Y16716671D01*
X6183730Y16833730D01*
X6083751Y16919120D01*
X6000856Y16989919D01*
X6000851Y16989922D01*
X5795796Y17115580D01*
X5795793Y17115582D01*
X5573604Y17207615D01*
X5339751Y17263757D01*
X5339752Y17263757D01*
X5100000Y17282625D01*
X4860247Y17263757D01*
X4626395Y17207615D01*
X4404206Y17115582D01*
X4404203Y17115580D01*
X4199148Y16989922D01*
X4199143Y16989919D01*
X4016270Y16833730D01*
X3860081Y16650857D01*
X3860078Y16650852D01*
X3734420Y16445797D01*
X3734418Y16445794D01*
X3642385Y16223605D01*
X3586243Y15989753D01*
X3567375Y15750000D01*
X381500Y15750000D01*
X381500Y18000003D01*
X24063745Y18000003D01*
X24063745Y17999998D01*
X24082648Y17880644D01*
X24137511Y17772967D01*
X24222966Y17687512D01*
X24330643Y17632649D01*
X24449998Y17613745D01*
X24450000Y17613745D01*
X24450002Y17613745D01*
X24569356Y17632649D01*
X24569357Y17632650D01*
X24569359Y17632650D01*
X24677035Y17687513D01*
X24762487Y17772965D01*
X24817350Y17880641D01*
X24817350Y17880643D01*
X24817351Y17880644D01*
X24836255Y17999998D01*
X24836255Y18000003D01*
X24817351Y18119357D01*
X24776261Y18200003D01*
X27263745Y18200003D01*
X27263745Y18199998D01*
X27282648Y18080644D01*
X27337511Y17972967D01*
X27422966Y17887512D01*
X27530643Y17832649D01*
X27649998Y17813745D01*
X27650000Y17813745D01*
X27650002Y17813745D01*
X27769356Y17832649D01*
X27769357Y17832650D01*
X27769359Y17832650D01*
X27877035Y17887513D01*
X27962487Y17972965D01*
X28017350Y18080641D01*
X28017350Y18080643D01*
X28017351Y18080644D01*
X28036255Y18199998D01*
X28036255Y18200003D01*
X28017351Y18319357D01*
X27962488Y18427034D01*
X27877033Y18512489D01*
X27769356Y18567352D01*
X27650002Y18586255D01*
X27649998Y18586255D01*
X27530643Y18567352D01*
X27422966Y18512489D01*
X27337511Y18427034D01*
X27282648Y18319357D01*
X27263745Y18200003D01*
X24776261Y18200003D01*
X24762488Y18227034D01*
X24677033Y18312489D01*
X24569356Y18367352D01*
X24506686Y18377277D01*
X24451057Y18403648D01*
X24393313Y18377277D01*
X24330643Y18367352D01*
X24222966Y18312489D01*
X24137511Y18227034D01*
X24082648Y18119357D01*
X24063745Y18000003D01*
X381500Y18000003D01*
X381500Y19100003D01*
X21813745Y19100003D01*
X21813745Y19099998D01*
X21832648Y18980644D01*
X21887511Y18872967D01*
X21972966Y18787512D01*
X22080643Y18732649D01*
X22199998Y18713745D01*
X22200000Y18713745D01*
X22200002Y18713745D01*
X22319356Y18732649D01*
X22319357Y18732650D01*
X22319359Y18732650D01*
X22427035Y18787513D01*
X22512487Y18872965D01*
X22567350Y18980641D01*
X22567350Y18980643D01*
X22567351Y18980644D01*
X22570338Y18999503D01*
X24063745Y18999503D01*
X24063745Y18999498D01*
X24082648Y18880144D01*
X24137511Y18772467D01*
X24222966Y18687012D01*
X24330643Y18632149D01*
X24393313Y18622223D01*
X24448941Y18595853D01*
X24506686Y18622223D01*
X24569356Y18632149D01*
X24569357Y18632150D01*
X24569359Y18632150D01*
X24677035Y18687013D01*
X24762487Y18772465D01*
X24817350Y18880141D01*
X24817350Y18880143D01*
X24817351Y18880144D01*
X24836255Y18999498D01*
X24836255Y18999503D01*
X24817351Y19118857D01*
X24762488Y19226534D01*
X24677033Y19311989D01*
X24569356Y19366852D01*
X24450002Y19385755D01*
X24449998Y19385755D01*
X24330643Y19366852D01*
X24222966Y19311989D01*
X24137511Y19226534D01*
X24082648Y19118857D01*
X24063745Y18999503D01*
X22570338Y18999503D01*
X22586255Y19099998D01*
X22586255Y19100003D01*
X22567351Y19219357D01*
X22512488Y19327034D01*
X22427033Y19412489D01*
X22319356Y19467352D01*
X22200002Y19486255D01*
X22199998Y19486255D01*
X22080643Y19467352D01*
X21972966Y19412489D01*
X21887511Y19327034D01*
X21832648Y19219357D01*
X21813745Y19100003D01*
X381500Y19100003D01*
X381500Y24676000D01*
X401185Y24743039D01*
X453989Y24788794D01*
X505500Y24800000D01*
X2876000Y24800000D01*
X2943039Y24780315D01*
G37*
G04 #@! TD.AperFunction*
G04 #@! TD*
G04 #@! TA.AperFunction,Conductor*
G04 #@! TO.N,+5V*
G36*
X77003472Y49618305D02*
G01*
X77286239Y49602425D01*
X77300033Y49600871D01*
X77575808Y49554015D01*
X77589360Y49550922D01*
X77858144Y49473487D01*
X77871269Y49468895D01*
X78129697Y49361850D01*
X78142219Y49355819D01*
X78387031Y49220515D01*
X78398804Y49213118D01*
X78626927Y49051257D01*
X78637799Y49042587D01*
X78846366Y48856200D01*
X78856199Y48846367D01*
X79042586Y48637800D01*
X79051256Y48626928D01*
X79213117Y48398805D01*
X79220514Y48387032D01*
X79355818Y48142220D01*
X79361852Y48129691D01*
X79468893Y47871271D01*
X79473486Y47858145D01*
X79550921Y47589361D01*
X79554015Y47575805D01*
X79600868Y47300047D01*
X79602425Y47286229D01*
X79618305Y47003473D01*
X79618500Y46996520D01*
X79618500Y3003481D01*
X79618305Y2996528D01*
X79602425Y2713772D01*
X79600868Y2699954D01*
X79554015Y2424196D01*
X79550921Y2410640D01*
X79473486Y2141856D01*
X79468893Y2128730D01*
X79361852Y1870310D01*
X79355818Y1857781D01*
X79220514Y1612969D01*
X79213117Y1601196D01*
X79051256Y1373073D01*
X79042586Y1362201D01*
X78856199Y1153634D01*
X78846366Y1143801D01*
X78637799Y957414D01*
X78626927Y948744D01*
X78398804Y786883D01*
X78387031Y779486D01*
X78142219Y644182D01*
X78129690Y638148D01*
X77871270Y531107D01*
X77858144Y526514D01*
X77589360Y449079D01*
X77575804Y445985D01*
X77300046Y399132D01*
X77286228Y397575D01*
X77003472Y381695D01*
X76996519Y381500D01*
X34851576Y381500D01*
X34784537Y401185D01*
X34738782Y453989D01*
X34728838Y523147D01*
X34757863Y586703D01*
X34808315Y620156D01*
X34807853Y621273D01*
X35052721Y722701D01*
X35274551Y858639D01*
X35274551Y858640D01*
X35274554Y858641D01*
X35472391Y1027609D01*
X35641359Y1225446D01*
X35688307Y1302057D01*
X35777299Y1447279D01*
X35876862Y1687646D01*
X35879447Y1698415D01*
X35937598Y1940630D01*
X35958011Y2200000D01*
X35937598Y2459370D01*
X35928981Y2495261D01*
X35876862Y2712355D01*
X35777299Y2952722D01*
X35641361Y3174552D01*
X35641357Y3174557D01*
X35534218Y3300000D01*
X35534215Y3300003D01*
X44913745Y3300003D01*
X44913745Y3299998D01*
X44932648Y3180644D01*
X44987511Y3072967D01*
X45072966Y2987512D01*
X45180643Y2932649D01*
X45299998Y2913745D01*
X45300000Y2913745D01*
X45300002Y2913745D01*
X45419356Y2932649D01*
X45419357Y2932650D01*
X45419359Y2932650D01*
X45527035Y2987513D01*
X45612487Y3072965D01*
X45667350Y3180641D01*
X45667350Y3180643D01*
X45667351Y3180644D01*
X45686255Y3299998D01*
X45686255Y3300003D01*
X45678336Y3350003D01*
X60913745Y3350003D01*
X60913745Y3349998D01*
X60932648Y3230644D01*
X60987511Y3122967D01*
X61072966Y3037512D01*
X61180643Y2982649D01*
X61299998Y2963745D01*
X61300000Y2963745D01*
X61300002Y2963745D01*
X61419356Y2982649D01*
X61419357Y2982650D01*
X61419359Y2982650D01*
X61527035Y3037513D01*
X61602742Y3113220D01*
X75272500Y3113220D01*
X75272500Y2886781D01*
X75272501Y2886765D01*
X75302056Y2662269D01*
X75302057Y2662264D01*
X75302058Y2662258D01*
X75302059Y2662256D01*
X75360667Y2443524D01*
X75447322Y2234319D01*
X75447329Y2234304D01*
X75560553Y2038194D01*
X75698408Y1858538D01*
X75698414Y1858531D01*
X75858530Y1698415D01*
X75858537Y1698409D01*
X76038193Y1560554D01*
X76234303Y1447330D01*
X76234318Y1447323D01*
X76342507Y1402510D01*
X76443522Y1360668D01*
X76662258Y1302058D01*
X76886774Y1272500D01*
X76886781Y1272500D01*
X77113219Y1272500D01*
X77113226Y1272500D01*
X77337742Y1302058D01*
X77556478Y1360668D01*
X77765693Y1447328D01*
X77961807Y1560554D01*
X78141464Y1698410D01*
X78301590Y1858536D01*
X78439446Y2038193D01*
X78552672Y2234307D01*
X78639332Y2443522D01*
X78697942Y2662258D01*
X78727500Y2886774D01*
X78727500Y3113226D01*
X78697942Y3337742D01*
X78639332Y3556478D01*
X78589286Y3677300D01*
X78552677Y3765682D01*
X78552670Y3765697D01*
X78439446Y3961807D01*
X78301591Y4141463D01*
X78301585Y4141470D01*
X78141469Y4301586D01*
X78141462Y4301592D01*
X77961806Y4439447D01*
X77765696Y4552671D01*
X77765681Y4552678D01*
X77556476Y4639333D01*
X77447110Y4668637D01*
X77337742Y4697942D01*
X77337736Y4697943D01*
X77337731Y4697944D01*
X77113235Y4727499D01*
X77113232Y4727500D01*
X77113226Y4727500D01*
X76886774Y4727500D01*
X76886768Y4727500D01*
X76886764Y4727499D01*
X76662268Y4697944D01*
X76662261Y4697943D01*
X76662258Y4697942D01*
X76616031Y4685556D01*
X76443523Y4639333D01*
X76234318Y4552678D01*
X76234303Y4552671D01*
X76038193Y4439447D01*
X75858537Y4301592D01*
X75858530Y4301586D01*
X75698414Y4141470D01*
X75698408Y4141463D01*
X75560553Y3961807D01*
X75447329Y3765697D01*
X75447322Y3765682D01*
X75360667Y3556477D01*
X75302059Y3337745D01*
X75302056Y3337732D01*
X75272501Y3113236D01*
X75272500Y3113220D01*
X61602742Y3113220D01*
X61612487Y3122965D01*
X61667350Y3230641D01*
X61667350Y3230643D01*
X61667351Y3230644D01*
X61686255Y3349998D01*
X61686255Y3350003D01*
X61667351Y3469357D01*
X61612488Y3577034D01*
X61527033Y3662489D01*
X61419356Y3717352D01*
X61300002Y3736255D01*
X61299998Y3736255D01*
X61180643Y3717352D01*
X61072966Y3662489D01*
X60987511Y3577034D01*
X60932648Y3469357D01*
X60913745Y3350003D01*
X45678336Y3350003D01*
X45667351Y3419357D01*
X45612488Y3527034D01*
X45527033Y3612489D01*
X45419356Y3667352D01*
X45300002Y3686255D01*
X45299998Y3686255D01*
X45180643Y3667352D01*
X45072966Y3612489D01*
X44987511Y3527034D01*
X44932648Y3419357D01*
X44913745Y3300003D01*
X35534215Y3300003D01*
X35472391Y3372391D01*
X35358856Y3469359D01*
X35274556Y3541358D01*
X35274551Y3541362D01*
X35052721Y3677300D01*
X34812354Y3776863D01*
X34559373Y3837598D01*
X34300000Y3858011D01*
X34040626Y3837598D01*
X33787645Y3776863D01*
X33547278Y3677300D01*
X33325448Y3541362D01*
X33325443Y3541358D01*
X33127609Y3372391D01*
X32958642Y3174557D01*
X32958638Y3174552D01*
X32822700Y2952722D01*
X32723137Y2712355D01*
X32662402Y2459374D01*
X32641989Y2200000D01*
X32662402Y1940627D01*
X32723137Y1687646D01*
X32822700Y1447279D01*
X32958638Y1225449D01*
X32958642Y1225444D01*
X33018145Y1155775D01*
X33127609Y1027609D01*
X33254244Y919453D01*
X33325443Y858643D01*
X33325448Y858639D01*
X33547278Y722701D01*
X33792147Y621273D01*
X33791650Y620076D01*
X33844419Y583992D01*
X33871616Y519633D01*
X33859701Y450787D01*
X33812456Y399312D01*
X33748424Y381500D01*
X3003481Y381500D01*
X2996528Y381695D01*
X2713771Y397575D01*
X2699953Y399132D01*
X2424195Y445985D01*
X2410639Y449079D01*
X2141855Y526514D01*
X2128729Y531107D01*
X1870309Y638148D01*
X1857780Y644182D01*
X1612968Y779486D01*
X1601195Y786883D01*
X1373072Y948744D01*
X1362200Y957414D01*
X1153633Y1143801D01*
X1143800Y1153634D01*
X957413Y1362201D01*
X948743Y1373073D01*
X786882Y1601196D01*
X779485Y1612969D01*
X644181Y1857781D01*
X638150Y1870303D01*
X531105Y2128731D01*
X526513Y2141856D01*
X499878Y2234307D01*
X449077Y2410641D01*
X445984Y2424196D01*
X399129Y2699967D01*
X397575Y2713761D01*
X381695Y2996528D01*
X381500Y3003481D01*
X381500Y3113220D01*
X1272500Y3113220D01*
X1272500Y2886781D01*
X1272501Y2886765D01*
X1302056Y2662269D01*
X1302057Y2662264D01*
X1302058Y2662258D01*
X1302059Y2662256D01*
X1360667Y2443524D01*
X1447322Y2234319D01*
X1447329Y2234304D01*
X1560553Y2038194D01*
X1698408Y1858538D01*
X1698414Y1858531D01*
X1858530Y1698415D01*
X1858537Y1698409D01*
X2038193Y1560554D01*
X2234303Y1447330D01*
X2234318Y1447323D01*
X2342507Y1402510D01*
X2443522Y1360668D01*
X2662258Y1302058D01*
X2886774Y1272500D01*
X2886781Y1272500D01*
X3113219Y1272500D01*
X3113226Y1272500D01*
X3337742Y1302058D01*
X3556478Y1360668D01*
X3765693Y1447328D01*
X3961807Y1560554D01*
X4141464Y1698410D01*
X4301590Y1858536D01*
X4439446Y2038193D01*
X4552672Y2234307D01*
X4639332Y2443522D01*
X4697942Y2662258D01*
X4727500Y2886774D01*
X4727500Y3113226D01*
X4697942Y3337742D01*
X4639332Y3556478D01*
X4589286Y3677300D01*
X4552677Y3765682D01*
X4552670Y3765697D01*
X4439446Y3961807D01*
X4301591Y4141463D01*
X4301585Y4141470D01*
X4141469Y4301586D01*
X4141462Y4301592D01*
X3961806Y4439447D01*
X3765696Y4552671D01*
X3765681Y4552678D01*
X3556476Y4639333D01*
X3447110Y4668637D01*
X3337742Y4697942D01*
X3337736Y4697943D01*
X3337731Y4697944D01*
X3113235Y4727499D01*
X3113232Y4727500D01*
X3113226Y4727500D01*
X2886774Y4727500D01*
X2886768Y4727500D01*
X2886764Y4727499D01*
X2662268Y4697944D01*
X2662261Y4697943D01*
X2662258Y4697942D01*
X2616031Y4685556D01*
X2443523Y4639333D01*
X2234318Y4552678D01*
X2234303Y4552671D01*
X2038193Y4439447D01*
X1858537Y4301592D01*
X1858530Y4301586D01*
X1698414Y4141470D01*
X1698408Y4141463D01*
X1560553Y3961807D01*
X1447329Y3765697D01*
X1447322Y3765682D01*
X1360667Y3556477D01*
X1302059Y3337745D01*
X1302056Y3337732D01*
X1272501Y3113236D01*
X1272500Y3113220D01*
X381500Y3113220D01*
X381500Y5576000D01*
X401185Y5643039D01*
X453989Y5688794D01*
X505500Y5700000D01*
X18720746Y5700000D01*
X18787785Y5680315D01*
X18833540Y5627511D01*
X18843484Y5558353D01*
X18814459Y5494797D01*
X18777040Y5465515D01*
X18672966Y5412489D01*
X18587511Y5327034D01*
X18532648Y5219357D01*
X18513745Y5100003D01*
X18513745Y5099998D01*
X18532648Y4980644D01*
X18587511Y4872967D01*
X18672966Y4787512D01*
X18780643Y4732649D01*
X18899998Y4713745D01*
X18900000Y4713745D01*
X18900002Y4713745D01*
X19019356Y4732649D01*
X19019357Y4732650D01*
X19019359Y4732650D01*
X19127035Y4787513D01*
X19127038Y4787516D01*
X19127108Y4787566D01*
X19127216Y4787605D01*
X19135731Y4791943D01*
X19136291Y4790844D01*
X19192913Y4811050D01*
X19260968Y4795230D01*
X19272892Y4787566D01*
X19272968Y4787511D01*
X19380643Y4732649D01*
X19499998Y4713745D01*
X19500000Y4713745D01*
X19500002Y4713745D01*
X19619356Y4732649D01*
X19619357Y4732650D01*
X19619359Y4732650D01*
X19727035Y4787513D01*
X19812487Y4872965D01*
X19867350Y4980641D01*
X19867350Y4980643D01*
X19867351Y4980644D01*
X19886255Y5099998D01*
X19886255Y5100003D01*
X19867351Y5219357D01*
X19812488Y5327034D01*
X19727033Y5412489D01*
X19622960Y5465515D01*
X19572164Y5513488D01*
X19555368Y5581309D01*
X19577905Y5647444D01*
X19632619Y5690896D01*
X19679254Y5700000D01*
X21959115Y5700000D01*
X22026154Y5680315D01*
X22046796Y5663682D01*
X22122965Y5587513D01*
X22122967Y5587512D01*
X22122968Y5587511D01*
X22230643Y5532649D01*
X22349998Y5513745D01*
X22350000Y5513745D01*
X22350002Y5513745D01*
X22469356Y5532649D01*
X22469357Y5532650D01*
X22469359Y5532650D01*
X22577035Y5587513D01*
X22653204Y5663682D01*
X22714528Y5697166D01*
X22740885Y5700000D01*
X32746798Y5700000D01*
X32813837Y5680315D01*
X32857283Y5632294D01*
X32887511Y5572967D01*
X32972966Y5487512D01*
X33080643Y5432649D01*
X33199998Y5413745D01*
X33200000Y5413745D01*
X33200002Y5413745D01*
X33319356Y5432649D01*
X33319357Y5432650D01*
X33319359Y5432650D01*
X33427035Y5487513D01*
X33512487Y5572965D01*
X33514033Y5576000D01*
X33542717Y5632294D01*
X33590691Y5683090D01*
X33653202Y5700000D01*
X36092001Y5700000D01*
X36159040Y5680315D01*
X36204795Y5627511D01*
X36214474Y5595397D01*
X36232648Y5480644D01*
X36287511Y5372967D01*
X36372966Y5287512D01*
X36480643Y5232649D01*
X36599998Y5213745D01*
X36600000Y5213745D01*
X36600002Y5213745D01*
X36719356Y5232649D01*
X36719357Y5232650D01*
X36719359Y5232650D01*
X36827035Y5287513D01*
X36912487Y5372965D01*
X36967350Y5480641D01*
X36967350Y5480643D01*
X36967351Y5480644D01*
X36985526Y5595397D01*
X37015455Y5658532D01*
X37074766Y5695464D01*
X37107999Y5700000D01*
X56800000Y5700000D01*
X56800000Y6178880D01*
X56819685Y6245919D01*
X56872489Y6291674D01*
X56904596Y6301353D01*
X56944359Y6307650D01*
X57052035Y6362513D01*
X57137487Y6447965D01*
X57192350Y6555641D01*
X57192350Y6555643D01*
X57192351Y6555644D01*
X57211255Y6674998D01*
X57211255Y6675003D01*
X57192351Y6794357D01*
X57137488Y6902034D01*
X57052033Y6987489D01*
X56974417Y7027035D01*
X56944359Y7042350D01*
X56944357Y7042351D01*
X56944356Y7042351D01*
X56904601Y7048648D01*
X56841467Y7078578D01*
X56804536Y7137890D01*
X56800000Y7171121D01*
X56800000Y7700003D01*
X60413745Y7700003D01*
X60413745Y7699998D01*
X60432648Y7580644D01*
X60487511Y7472967D01*
X60572966Y7387512D01*
X60680643Y7332649D01*
X60799998Y7313745D01*
X60800000Y7313745D01*
X60800002Y7313745D01*
X60919356Y7332649D01*
X60919357Y7332650D01*
X60919359Y7332650D01*
X61027035Y7387513D01*
X61112487Y7472965D01*
X61167350Y7580641D01*
X61167350Y7580643D01*
X61167351Y7580644D01*
X61186255Y7699998D01*
X61186255Y7700003D01*
X61167351Y7819357D01*
X61112488Y7927034D01*
X61027033Y8012489D01*
X60919356Y8067352D01*
X60800002Y8086255D01*
X60799998Y8086255D01*
X60680643Y8067352D01*
X60572966Y8012489D01*
X60487511Y7927034D01*
X60432648Y7819357D01*
X60413745Y7700003D01*
X56800000Y7700003D01*
X56800000Y9628880D01*
X56819685Y9695919D01*
X56872489Y9741674D01*
X56904596Y9751353D01*
X56944359Y9757650D01*
X57052035Y9812513D01*
X57137487Y9897965D01*
X57192350Y10005641D01*
X57192350Y10005643D01*
X57192351Y10005644D01*
X57211255Y10124998D01*
X57211255Y10125003D01*
X57192351Y10244357D01*
X57137488Y10352034D01*
X57052033Y10437489D01*
X56982059Y10473142D01*
X56944359Y10492350D01*
X56944357Y10492351D01*
X56944356Y10492351D01*
X56904601Y10498648D01*
X56841467Y10528578D01*
X56804536Y10587890D01*
X56800000Y10621121D01*
X56800000Y12600003D01*
X61413745Y12600003D01*
X61413745Y12599998D01*
X61432648Y12480644D01*
X61487511Y12372967D01*
X61572966Y12287512D01*
X61680643Y12232649D01*
X61799998Y12213745D01*
X61800000Y12213745D01*
X61800002Y12213745D01*
X61919356Y12232649D01*
X61919357Y12232650D01*
X61919359Y12232650D01*
X62027035Y12287513D01*
X62112487Y12372965D01*
X62167350Y12480641D01*
X62167350Y12480643D01*
X62167351Y12480644D01*
X62180721Y12565060D01*
X64347100Y12565060D01*
X64347100Y9934946D01*
X64355972Y9890342D01*
X64355973Y9890339D01*
X64389765Y9839767D01*
X64389766Y9839766D01*
X64440342Y9805972D01*
X64440343Y9805972D01*
X64440345Y9805971D01*
X64462642Y9801536D01*
X64484943Y9797100D01*
X67115056Y9797101D01*
X67159658Y9805972D01*
X67210234Y9839766D01*
X67244028Y9890342D01*
X67252900Y9934943D01*
X67252899Y11250006D01*
X70342121Y11250006D01*
X70342121Y11249995D01*
X70362004Y11010045D01*
X70421113Y10776627D01*
X70466583Y10672965D01*
X70517834Y10556126D01*
X70649529Y10354552D01*
X70812605Y10177404D01*
X70812608Y10177402D01*
X70812611Y10177399D01*
X71002607Y10029519D01*
X71002613Y10029515D01*
X71002616Y10029513D01*
X71176366Y9935484D01*
X71206161Y9919359D01*
X71214377Y9914913D01*
X71442112Y9836732D01*
X71679609Y9797100D01*
X71679610Y9797100D01*
X71920390Y9797100D01*
X71920391Y9797100D01*
X72157888Y9836732D01*
X72385623Y9914913D01*
X72597384Y10029513D01*
X72787395Y10177404D01*
X72950471Y10354552D01*
X73082166Y10556126D01*
X73178887Y10776627D01*
X73237995Y11010041D01*
X73257879Y11250000D01*
X73257710Y11252035D01*
X73237995Y11489956D01*
X73237995Y11489959D01*
X73178887Y11723373D01*
X73082166Y11943874D01*
X72950471Y12145448D01*
X72787395Y12322596D01*
X72787390Y12322600D01*
X72787388Y12322602D01*
X72597392Y12470482D01*
X72597386Y12470486D01*
X72385624Y12585087D01*
X72385619Y12585089D01*
X72157890Y12663268D01*
X71973545Y12694030D01*
X71920391Y12702900D01*
X71679609Y12702900D01*
X71626455Y12694030D01*
X71442109Y12663268D01*
X71214380Y12585089D01*
X71214375Y12585087D01*
X71002613Y12470486D01*
X71002607Y12470482D01*
X70812611Y12322602D01*
X70812608Y12322599D01*
X70649529Y12145448D01*
X70517832Y11943871D01*
X70421113Y11723374D01*
X70362004Y11489956D01*
X70342121Y11250006D01*
X67252899Y11250006D01*
X67252899Y12565056D01*
X67244028Y12609658D01*
X67244026Y12609660D01*
X67244026Y12609662D01*
X67210234Y12660234D01*
X67159659Y12694027D01*
X67159658Y12694028D01*
X67159657Y12694029D01*
X67159656Y12694029D01*
X67159654Y12694030D01*
X67115059Y12702900D01*
X64484945Y12702900D01*
X64440341Y12694028D01*
X64440338Y12694027D01*
X64389766Y12660235D01*
X64355971Y12609657D01*
X64355970Y12609655D01*
X64347100Y12565060D01*
X62180721Y12565060D01*
X62186255Y12599998D01*
X62186255Y12600003D01*
X62167351Y12719357D01*
X62112488Y12827034D01*
X62027033Y12912489D01*
X61919356Y12967352D01*
X61800002Y12986255D01*
X61799998Y12986255D01*
X61680643Y12967352D01*
X61572966Y12912489D01*
X61487511Y12827034D01*
X61432648Y12719357D01*
X61413745Y12600003D01*
X56800000Y12600003D01*
X56800000Y15950006D01*
X67342121Y15950006D01*
X67342121Y15949995D01*
X67362004Y15710045D01*
X67421113Y15476627D01*
X67490978Y15317350D01*
X67517834Y15256126D01*
X67649529Y15054552D01*
X67812605Y14877404D01*
X67812608Y14877402D01*
X67812611Y14877399D01*
X68002607Y14729519D01*
X68002613Y14729515D01*
X68002616Y14729513D01*
X68214377Y14614913D01*
X68442112Y14536732D01*
X68679609Y14497100D01*
X68679610Y14497100D01*
X68920390Y14497100D01*
X68920391Y14497100D01*
X69157888Y14536732D01*
X69385623Y14614913D01*
X69597384Y14729513D01*
X69787395Y14877404D01*
X69950471Y15054552D01*
X70082166Y15256126D01*
X70178887Y15476627D01*
X70237995Y15710041D01*
X70249593Y15850000D01*
X70257879Y15949995D01*
X70257879Y15950006D01*
X70239403Y16172967D01*
X70237995Y16189959D01*
X70178887Y16423373D01*
X70082166Y16643874D01*
X69950471Y16845448D01*
X69900250Y16900003D01*
X77613745Y16900003D01*
X77613745Y16899998D01*
X77632648Y16780644D01*
X77687511Y16672967D01*
X77772966Y16587512D01*
X77880643Y16532649D01*
X77999998Y16513745D01*
X78000000Y16513745D01*
X78000002Y16513745D01*
X78119356Y16532649D01*
X78119357Y16532650D01*
X78119359Y16532650D01*
X78227035Y16587513D01*
X78312487Y16672965D01*
X78367350Y16780641D01*
X78367350Y16780643D01*
X78367351Y16780644D01*
X78386255Y16899998D01*
X78386255Y16900003D01*
X78367351Y17019357D01*
X78312488Y17127034D01*
X78227033Y17212489D01*
X78119356Y17267352D01*
X78000002Y17286255D01*
X77999998Y17286255D01*
X77880643Y17267352D01*
X77772966Y17212489D01*
X77687511Y17127034D01*
X77632648Y17019357D01*
X77613745Y16900003D01*
X69900250Y16900003D01*
X69787395Y17022596D01*
X69787390Y17022600D01*
X69787388Y17022602D01*
X69597392Y17170482D01*
X69597386Y17170486D01*
X69385624Y17285087D01*
X69385619Y17285089D01*
X69157890Y17363268D01*
X68937751Y17400003D01*
X68920391Y17402900D01*
X68679609Y17402900D01*
X68662249Y17400003D01*
X68442109Y17363268D01*
X68214380Y17285089D01*
X68214375Y17285087D01*
X68002613Y17170486D01*
X68002607Y17170482D01*
X67812611Y17022602D01*
X67812608Y17022599D01*
X67812605Y17022597D01*
X67812605Y17022596D01*
X67804457Y17013745D01*
X67649529Y16845448D01*
X67517832Y16643871D01*
X67421113Y16423374D01*
X67362004Y16189956D01*
X67342121Y15950006D01*
X56800000Y15950006D01*
X56800000Y16400003D01*
X58713745Y16400003D01*
X58713745Y16399998D01*
X58732648Y16280644D01*
X58787511Y16172967D01*
X58872966Y16087512D01*
X58980643Y16032649D01*
X59099998Y16013745D01*
X59100000Y16013745D01*
X59100002Y16013745D01*
X59219356Y16032649D01*
X59219357Y16032650D01*
X59219359Y16032650D01*
X59327035Y16087513D01*
X59412487Y16172965D01*
X59467350Y16280641D01*
X59467350Y16280643D01*
X59467351Y16280644D01*
X59486255Y16399998D01*
X59486255Y16400003D01*
X59467351Y16519357D01*
X59412488Y16627034D01*
X59327033Y16712489D01*
X59219356Y16767352D01*
X59155108Y16777527D01*
X59101027Y16803164D01*
X59044891Y16777527D01*
X58980643Y16767352D01*
X58872966Y16712489D01*
X58787511Y16627034D01*
X58732648Y16519357D01*
X58713745Y16400003D01*
X56800000Y16400003D01*
X56800000Y17400003D01*
X58713745Y17400003D01*
X58713745Y17399998D01*
X58732648Y17280644D01*
X58787511Y17172967D01*
X58872966Y17087512D01*
X58980643Y17032649D01*
X59044891Y17022473D01*
X59098971Y16996837D01*
X59155108Y17022473D01*
X59219356Y17032649D01*
X59219357Y17032650D01*
X59219359Y17032650D01*
X59327035Y17087513D01*
X59412319Y17172797D01*
X59473642Y17206282D01*
X59543334Y17201298D01*
X59587681Y17172797D01*
X59672966Y17087512D01*
X59780643Y17032649D01*
X59899998Y17013745D01*
X59900000Y17013745D01*
X59900002Y17013745D01*
X60019356Y17032649D01*
X60019357Y17032650D01*
X60019359Y17032650D01*
X60127035Y17087513D01*
X60212487Y17172965D01*
X60267350Y17280641D01*
X60267350Y17280643D01*
X60267351Y17280644D01*
X60286255Y17399998D01*
X60286255Y17400003D01*
X60267351Y17519357D01*
X60212488Y17627034D01*
X60127033Y17712489D01*
X60019356Y17767352D01*
X59900002Y17786255D01*
X59899998Y17786255D01*
X59780643Y17767352D01*
X59672966Y17712489D01*
X59587681Y17627203D01*
X59526358Y17593718D01*
X59456666Y17598702D01*
X59412319Y17627203D01*
X59327033Y17712489D01*
X59219356Y17767352D01*
X59100002Y17786255D01*
X59099998Y17786255D01*
X58980643Y17767352D01*
X58872966Y17712489D01*
X58787511Y17627034D01*
X58732648Y17519357D01*
X58713745Y17400003D01*
X56800000Y17400003D01*
X56800000Y17900003D01*
X62213745Y17900003D01*
X62213745Y17899998D01*
X62232648Y17780644D01*
X62287511Y17672967D01*
X62372966Y17587512D01*
X62480643Y17532649D01*
X62599998Y17513745D01*
X62600000Y17513745D01*
X62600002Y17513745D01*
X62719356Y17532649D01*
X62719357Y17532650D01*
X62719359Y17532650D01*
X62827035Y17587513D01*
X62912487Y17672965D01*
X62967350Y17780641D01*
X62967350Y17780643D01*
X62967351Y17780644D01*
X62986255Y17899998D01*
X62986255Y17900003D01*
X62967351Y18019357D01*
X62912488Y18127034D01*
X62827033Y18212489D01*
X62719356Y18267352D01*
X62600002Y18286255D01*
X62599998Y18286255D01*
X62480643Y18267352D01*
X62372966Y18212489D01*
X62287511Y18127034D01*
X62232648Y18019357D01*
X62213745Y17900003D01*
X56800000Y17900003D01*
X56800000Y20759084D01*
X72372100Y20759084D01*
X72372100Y20600917D01*
X72402952Y20445811D01*
X72402955Y20445802D01*
X72463475Y20299691D01*
X72463482Y20299678D01*
X72551346Y20168182D01*
X72551349Y20168178D01*
X72663177Y20056350D01*
X72663181Y20056347D01*
X72794677Y19968483D01*
X72794690Y19968476D01*
X72894739Y19927035D01*
X72940803Y19907955D01*
X72940805Y19907955D01*
X72940810Y19907953D01*
X73095916Y19877101D01*
X73095919Y19877100D01*
X73095921Y19877100D01*
X74254081Y19877100D01*
X74254082Y19877101D01*
X74305785Y19887385D01*
X74409189Y19907953D01*
X74409192Y19907955D01*
X74409197Y19907955D01*
X74555316Y19968479D01*
X74686819Y20056347D01*
X74798653Y20168181D01*
X74886521Y20299684D01*
X74888989Y20305641D01*
X74928073Y20400000D01*
X74947045Y20445803D01*
X74957826Y20500000D01*
X74977899Y20600917D01*
X74977900Y20600919D01*
X74977900Y20759082D01*
X74977899Y20759084D01*
X76047100Y20759084D01*
X76047100Y20600917D01*
X76077952Y20445811D01*
X76077955Y20445802D01*
X76138475Y20299691D01*
X76138482Y20299678D01*
X76226346Y20168182D01*
X76226349Y20168178D01*
X76338177Y20056350D01*
X76338181Y20056347D01*
X76469677Y19968483D01*
X76469690Y19968476D01*
X76569739Y19927035D01*
X76615803Y19907955D01*
X76615805Y19907955D01*
X76615810Y19907953D01*
X76770916Y19877101D01*
X76770919Y19877100D01*
X76770921Y19877100D01*
X78229081Y19877100D01*
X78229082Y19877101D01*
X78280785Y19887385D01*
X78384189Y19907953D01*
X78384192Y19907955D01*
X78384197Y19907955D01*
X78530316Y19968479D01*
X78661819Y20056347D01*
X78773653Y20168181D01*
X78861521Y20299684D01*
X78863989Y20305641D01*
X78903073Y20400000D01*
X78922045Y20445803D01*
X78932826Y20500000D01*
X78952899Y20600917D01*
X78952900Y20600919D01*
X78952900Y20759082D01*
X78952899Y20759084D01*
X78922047Y20914190D01*
X78922044Y20914199D01*
X78861524Y21060310D01*
X78861517Y21060323D01*
X78773653Y21191819D01*
X78773650Y21191823D01*
X78661822Y21303651D01*
X78661818Y21303654D01*
X78530322Y21391518D01*
X78530309Y21391525D01*
X78384198Y21452045D01*
X78384189Y21452048D01*
X78229082Y21482900D01*
X78229079Y21482900D01*
X76770921Y21482900D01*
X76770918Y21482900D01*
X76615810Y21452048D01*
X76615801Y21452045D01*
X76469690Y21391525D01*
X76469677Y21391518D01*
X76338181Y21303654D01*
X76338177Y21303651D01*
X76226349Y21191823D01*
X76226346Y21191819D01*
X76138482Y21060323D01*
X76138475Y21060310D01*
X76077955Y20914199D01*
X76077952Y20914190D01*
X76047100Y20759084D01*
X74977899Y20759084D01*
X74947047Y20914190D01*
X74947044Y20914199D01*
X74886524Y21060310D01*
X74886517Y21060323D01*
X74798653Y21191819D01*
X74798650Y21191823D01*
X74686822Y21303651D01*
X74686818Y21303654D01*
X74556918Y21390451D01*
X74512113Y21444063D01*
X74503406Y21513388D01*
X74533561Y21576416D01*
X74563808Y21600940D01*
X74565007Y21601633D01*
X74565009Y21601633D01*
X74662491Y21657915D01*
X74742085Y21737509D01*
X74798367Y21834991D01*
X74827500Y21943719D01*
X74827500Y22056281D01*
X74798367Y22165009D01*
X74742085Y22262491D01*
X74662491Y22342085D01*
X74595711Y22380641D01*
X74565010Y22398367D01*
X74486664Y22419359D01*
X74456281Y22427500D01*
X74343719Y22427500D01*
X74234989Y22398367D01*
X74137509Y22342085D01*
X74137506Y22342083D01*
X74057917Y22262494D01*
X74057915Y22262491D01*
X74001633Y22165011D01*
X73987897Y22113745D01*
X73972500Y22056281D01*
X73972500Y21943719D01*
X73987066Y21889355D01*
X74001633Y21834990D01*
X74006226Y21827035D01*
X74057915Y21737509D01*
X74057917Y21737507D01*
X74100843Y21694581D01*
X74134328Y21633258D01*
X74129344Y21563566D01*
X74087472Y21507633D01*
X74022008Y21483216D01*
X74013162Y21482900D01*
X73095918Y21482900D01*
X72940810Y21452048D01*
X72940801Y21452045D01*
X72794690Y21391525D01*
X72794677Y21391518D01*
X72663181Y21303654D01*
X72663177Y21303651D01*
X72551349Y21191823D01*
X72551346Y21191819D01*
X72463482Y21060323D01*
X72463475Y21060310D01*
X72402955Y20914199D01*
X72402952Y20914190D01*
X72372100Y20759084D01*
X56800000Y20759084D01*
X56800000Y23300003D01*
X59813745Y23300003D01*
X59813745Y23299998D01*
X59832648Y23180644D01*
X59887511Y23072967D01*
X59972966Y22987512D01*
X60080643Y22932649D01*
X60199998Y22913745D01*
X60200000Y22913745D01*
X60200002Y22913745D01*
X60319356Y22932649D01*
X60319357Y22932650D01*
X60319359Y22932650D01*
X60427035Y22987513D01*
X60512487Y23072965D01*
X60567350Y23180641D01*
X60567350Y23180643D01*
X60567351Y23180644D01*
X60586255Y23299998D01*
X60586255Y23300003D01*
X60567351Y23419357D01*
X60512488Y23527034D01*
X60427033Y23612489D01*
X60319356Y23667352D01*
X60200002Y23686255D01*
X60199998Y23686255D01*
X60080643Y23667352D01*
X59972966Y23612489D01*
X59887511Y23527034D01*
X59832648Y23419357D01*
X59813745Y23300003D01*
X56800000Y23300003D01*
X56800000Y23769503D01*
X71413745Y23769503D01*
X71413745Y23769498D01*
X71432648Y23650144D01*
X71487511Y23542467D01*
X71572966Y23457012D01*
X71680643Y23402149D01*
X71799998Y23383245D01*
X71800000Y23383245D01*
X71800002Y23383245D01*
X71919356Y23402149D01*
X71919357Y23402150D01*
X71919359Y23402150D01*
X72027035Y23457013D01*
X72112487Y23542465D01*
X72167350Y23650141D01*
X72167350Y23650143D01*
X72167351Y23650144D01*
X72186255Y23769498D01*
X72186255Y23769503D01*
X72167351Y23888857D01*
X72112488Y23996534D01*
X72027033Y24081989D01*
X71919356Y24136852D01*
X71800002Y24155755D01*
X71799998Y24155755D01*
X71680643Y24136852D01*
X71572966Y24081989D01*
X71487511Y23996534D01*
X71432648Y23888857D01*
X71413745Y23769503D01*
X56800000Y23769503D01*
X56800000Y24921903D01*
X71413745Y24921903D01*
X71413745Y24921898D01*
X71432648Y24802544D01*
X71487511Y24694867D01*
X71572966Y24609412D01*
X71680643Y24554549D01*
X71799998Y24535645D01*
X71800000Y24535645D01*
X71800002Y24535645D01*
X71919356Y24554549D01*
X71919357Y24554550D01*
X71919359Y24554550D01*
X72027035Y24609413D01*
X72112487Y24694865D01*
X72167350Y24802541D01*
X72167350Y24802543D01*
X72167351Y24802544D01*
X72186255Y24921898D01*
X72186255Y24921903D01*
X72167351Y25041257D01*
X72112488Y25148934D01*
X72027033Y25234389D01*
X71919356Y25289252D01*
X71800002Y25308155D01*
X71799998Y25308155D01*
X71680643Y25289252D01*
X71572966Y25234389D01*
X71487511Y25148934D01*
X71432648Y25041257D01*
X71413745Y24921903D01*
X56800000Y24921903D01*
X56800000Y29700003D01*
X59213745Y29700003D01*
X59213745Y29699998D01*
X59232648Y29580644D01*
X59287511Y29472967D01*
X59372966Y29387512D01*
X59480643Y29332649D01*
X59599998Y29313745D01*
X59600000Y29313745D01*
X59600001Y29313745D01*
X59640929Y29320228D01*
X59719359Y29332650D01*
X59719359Y29332651D01*
X59720443Y29332822D01*
X59789737Y29323868D01*
X59843189Y29278872D01*
X59863829Y29212120D01*
X59850329Y29154058D01*
X59832648Y29119356D01*
X59813745Y29000003D01*
X59813745Y28999998D01*
X59832648Y28880644D01*
X59887511Y28772967D01*
X59972966Y28687512D01*
X60080643Y28632649D01*
X60199998Y28613745D01*
X60200000Y28613745D01*
X60200002Y28613745D01*
X60319356Y28632649D01*
X60319357Y28632650D01*
X60319359Y28632650D01*
X60427035Y28687513D01*
X60512487Y28772965D01*
X60567350Y28880641D01*
X60567350Y28880643D01*
X60567351Y28880644D01*
X60586255Y28999998D01*
X60586255Y29000003D01*
X60567351Y29119357D01*
X60512488Y29227034D01*
X60427033Y29312489D01*
X60319356Y29367352D01*
X60200002Y29386255D01*
X60199998Y29386255D01*
X60079555Y29367179D01*
X60010261Y29376134D01*
X59982998Y29399084D01*
X72372100Y29399084D01*
X72372100Y29240917D01*
X72402952Y29085811D01*
X72402955Y29085802D01*
X72463475Y28939691D01*
X72463482Y28939678D01*
X72551346Y28808182D01*
X72551349Y28808178D01*
X72663177Y28696350D01*
X72663181Y28696347D01*
X72794677Y28608483D01*
X72794690Y28608476D01*
X72861891Y28580641D01*
X72940803Y28547955D01*
X72940805Y28547955D01*
X72940810Y28547953D01*
X73095916Y28517101D01*
X73095919Y28517100D01*
X73095921Y28517100D01*
X73917970Y28517100D01*
X73985009Y28497415D01*
X74030764Y28444611D01*
X74040708Y28375453D01*
X74025356Y28331099D01*
X74001635Y28290015D01*
X74001634Y28290013D01*
X74001633Y28290009D01*
X73972500Y28181281D01*
X73972500Y27818719D01*
X73981199Y27786255D01*
X74001633Y27709990D01*
X74023010Y27672965D01*
X74057915Y27612509D01*
X74137509Y27532915D01*
X74234991Y27476633D01*
X74343719Y27447500D01*
X74343721Y27447500D01*
X74456279Y27447500D01*
X74456281Y27447500D01*
X74565009Y27476633D01*
X74662491Y27532915D01*
X74742085Y27612509D01*
X74798367Y27709991D01*
X74827500Y27818719D01*
X74827500Y28181281D01*
X74798367Y28290009D01*
X74742085Y28387491D01*
X74662491Y28467085D01*
X74662488Y28467087D01*
X74656042Y28472033D01*
X74657149Y28473477D01*
X74615950Y28516686D01*
X74602728Y28585294D01*
X74628696Y28650158D01*
X74657271Y28676604D01*
X74686819Y28696347D01*
X74798653Y28808181D01*
X74886521Y28939684D01*
X74947045Y29085803D01*
X74953720Y29119357D01*
X74977899Y29240917D01*
X74977900Y29240919D01*
X74977900Y29399082D01*
X74977899Y29399084D01*
X76047100Y29399084D01*
X76047100Y29240917D01*
X76077952Y29085811D01*
X76077955Y29085802D01*
X76138475Y28939691D01*
X76138482Y28939678D01*
X76226346Y28808182D01*
X76226349Y28808178D01*
X76338177Y28696350D01*
X76338181Y28696347D01*
X76469677Y28608483D01*
X76469690Y28608476D01*
X76536891Y28580641D01*
X76615803Y28547955D01*
X76615805Y28547955D01*
X76615810Y28547953D01*
X76770916Y28517101D01*
X76770919Y28517100D01*
X76770921Y28517100D01*
X78229081Y28517100D01*
X78229082Y28517101D01*
X78280785Y28527385D01*
X78384189Y28547953D01*
X78384192Y28547955D01*
X78384197Y28547955D01*
X78530316Y28608479D01*
X78661819Y28696347D01*
X78773653Y28808181D01*
X78861521Y28939684D01*
X78922045Y29085803D01*
X78928720Y29119357D01*
X78952899Y29240917D01*
X78952900Y29240919D01*
X78952900Y29399082D01*
X78952899Y29399084D01*
X78922047Y29554190D01*
X78922044Y29554199D01*
X78861524Y29700310D01*
X78861517Y29700323D01*
X78773653Y29831819D01*
X78773650Y29831823D01*
X78661822Y29943651D01*
X78661818Y29943654D01*
X78530322Y30031518D01*
X78530309Y30031525D01*
X78384198Y30092045D01*
X78384189Y30092048D01*
X78229082Y30122900D01*
X78229079Y30122900D01*
X76770921Y30122900D01*
X76770918Y30122900D01*
X76615810Y30092048D01*
X76615801Y30092045D01*
X76469690Y30031525D01*
X76469677Y30031518D01*
X76338181Y29943654D01*
X76338177Y29943651D01*
X76226349Y29831823D01*
X76226346Y29831819D01*
X76138482Y29700323D01*
X76138475Y29700310D01*
X76077955Y29554199D01*
X76077952Y29554190D01*
X76047100Y29399084D01*
X74977899Y29399084D01*
X74947047Y29554190D01*
X74947044Y29554199D01*
X74886524Y29700310D01*
X74886517Y29700323D01*
X74798653Y29831819D01*
X74798650Y29831823D01*
X74686822Y29943651D01*
X74686818Y29943654D01*
X74555322Y30031518D01*
X74555309Y30031525D01*
X74409198Y30092045D01*
X74409189Y30092048D01*
X74254082Y30122900D01*
X74254079Y30122900D01*
X73095921Y30122900D01*
X73095918Y30122900D01*
X72940810Y30092048D01*
X72940801Y30092045D01*
X72794690Y30031525D01*
X72794677Y30031518D01*
X72663181Y29943654D01*
X72663177Y29943651D01*
X72551349Y29831823D01*
X72551346Y29831819D01*
X72463482Y29700323D01*
X72463475Y29700310D01*
X72402955Y29554199D01*
X72402952Y29554190D01*
X72372100Y29399084D01*
X59982998Y29399084D01*
X59956809Y29421130D01*
X59936170Y29487882D01*
X59949672Y29545946D01*
X59967350Y29580641D01*
X59967350Y29580643D01*
X59967351Y29580644D01*
X59986255Y29699998D01*
X59986255Y29700003D01*
X59967351Y29819357D01*
X59912488Y29927034D01*
X59839519Y30000003D01*
X61713745Y30000003D01*
X61713745Y29999998D01*
X61732648Y29880644D01*
X61787511Y29772967D01*
X61872966Y29687512D01*
X61980643Y29632649D01*
X62099998Y29613745D01*
X62100000Y29613745D01*
X62100002Y29613745D01*
X62219356Y29632649D01*
X62219357Y29632650D01*
X62219359Y29632650D01*
X62327035Y29687513D01*
X62412487Y29772965D01*
X62467350Y29880641D01*
X62467350Y29880643D01*
X62467351Y29880644D01*
X62486255Y29999998D01*
X62486255Y30000003D01*
X62467351Y30119357D01*
X62412488Y30227034D01*
X62327033Y30312489D01*
X62219356Y30367352D01*
X62100002Y30386255D01*
X62099998Y30386255D01*
X61980643Y30367352D01*
X61872966Y30312489D01*
X61787511Y30227034D01*
X61732648Y30119357D01*
X61713745Y30000003D01*
X59839519Y30000003D01*
X59827033Y30012489D01*
X59719356Y30067352D01*
X59600002Y30086255D01*
X59599998Y30086255D01*
X59480643Y30067352D01*
X59372966Y30012489D01*
X59287511Y29927034D01*
X59232648Y29819357D01*
X59213745Y29700003D01*
X56800000Y29700003D01*
X56800000Y32100003D01*
X64713745Y32100003D01*
X64713745Y32099998D01*
X64732648Y31980644D01*
X64787511Y31872967D01*
X64872797Y31787681D01*
X64906282Y31726358D01*
X64901298Y31656666D01*
X64872797Y31612319D01*
X64787511Y31527034D01*
X64732648Y31419357D01*
X64713745Y31300003D01*
X64713745Y31299998D01*
X64732648Y31180644D01*
X64787511Y31072967D01*
X64872966Y30987512D01*
X64980643Y30932649D01*
X65099998Y30913745D01*
X65100000Y30913745D01*
X65100002Y30913745D01*
X65219356Y30932649D01*
X65219357Y30932650D01*
X65219359Y30932650D01*
X65327035Y30987513D01*
X65412487Y31072965D01*
X65426263Y31100003D01*
X77513745Y31100003D01*
X77513745Y31099998D01*
X77532648Y30980644D01*
X77587511Y30872967D01*
X77672966Y30787512D01*
X77780643Y30732649D01*
X77899998Y30713745D01*
X77900000Y30713745D01*
X77900002Y30713745D01*
X78019356Y30732649D01*
X78019357Y30732650D01*
X78019359Y30732650D01*
X78127035Y30787513D01*
X78212487Y30872965D01*
X78267350Y30980641D01*
X78267350Y30980643D01*
X78267351Y30980644D01*
X78286255Y31099998D01*
X78286255Y31100003D01*
X78267351Y31219357D01*
X78212488Y31327034D01*
X78127033Y31412489D01*
X78019356Y31467352D01*
X77900002Y31486255D01*
X77899998Y31486255D01*
X77780643Y31467352D01*
X77672966Y31412489D01*
X77587511Y31327034D01*
X77532648Y31219357D01*
X77513745Y31100003D01*
X65426263Y31100003D01*
X65467350Y31180641D01*
X65467350Y31180643D01*
X65467351Y31180644D01*
X65486255Y31299998D01*
X65486255Y31300003D01*
X65467351Y31419357D01*
X65412488Y31527034D01*
X65327203Y31612319D01*
X65293718Y31673642D01*
X65298702Y31743334D01*
X65327203Y31787681D01*
X65412487Y31872965D01*
X65467350Y31980641D01*
X65467350Y31980643D01*
X65467351Y31980644D01*
X65486255Y32099998D01*
X65486255Y32100003D01*
X65467351Y32219357D01*
X65412488Y32327034D01*
X65327033Y32412489D01*
X65219356Y32467352D01*
X65100002Y32486255D01*
X65099998Y32486255D01*
X64980643Y32467352D01*
X64872966Y32412489D01*
X64787511Y32327034D01*
X64732648Y32219357D01*
X64713745Y32100003D01*
X56800000Y32100003D01*
X56800000Y34200003D01*
X77713745Y34200003D01*
X77713745Y34199998D01*
X77732648Y34080644D01*
X77787511Y33972967D01*
X77872966Y33887512D01*
X77980643Y33832649D01*
X78099998Y33813745D01*
X78100000Y33813745D01*
X78100002Y33813745D01*
X78219356Y33832649D01*
X78219357Y33832650D01*
X78219359Y33832650D01*
X78327035Y33887513D01*
X78412487Y33972965D01*
X78467350Y34080641D01*
X78467350Y34080643D01*
X78467351Y34080644D01*
X78486255Y34199998D01*
X78486255Y34200003D01*
X78467351Y34319357D01*
X78412488Y34427034D01*
X78327033Y34512489D01*
X78219356Y34567352D01*
X78100002Y34586255D01*
X78099998Y34586255D01*
X77980643Y34567352D01*
X77872966Y34512489D01*
X77787511Y34427034D01*
X77732648Y34319357D01*
X77713745Y34200003D01*
X56800000Y34200003D01*
X56800000Y35100003D01*
X72113745Y35100003D01*
X72113745Y35099998D01*
X72132648Y34980644D01*
X72187511Y34872967D01*
X72272966Y34787512D01*
X72380643Y34732649D01*
X72499998Y34713745D01*
X72500000Y34713745D01*
X72500002Y34713745D01*
X72619356Y34732649D01*
X72619357Y34732650D01*
X72619359Y34732650D01*
X72727035Y34787513D01*
X72812487Y34872965D01*
X72867350Y34980641D01*
X72867350Y34980643D01*
X72867351Y34980644D01*
X72877527Y35044892D01*
X72903163Y35098973D01*
X72902224Y35101029D01*
X73096836Y35101029D01*
X73122473Y35044892D01*
X73132648Y34980644D01*
X73187511Y34872967D01*
X73272966Y34787512D01*
X73380643Y34732649D01*
X73499998Y34713745D01*
X73500000Y34713745D01*
X73500002Y34713745D01*
X73619356Y34732649D01*
X73619357Y34732650D01*
X73619359Y34732650D01*
X73727035Y34787513D01*
X73812487Y34872965D01*
X73867350Y34980641D01*
X73867350Y34980643D01*
X73867351Y34980644D01*
X73886255Y35099998D01*
X73886255Y35100003D01*
X73870416Y35200003D01*
X74613745Y35200003D01*
X74613745Y35199998D01*
X74632648Y35080644D01*
X74687511Y34972967D01*
X74772966Y34887512D01*
X74880643Y34832649D01*
X74999998Y34813745D01*
X75000000Y34813745D01*
X75000002Y34813745D01*
X75119356Y34832649D01*
X75119357Y34832650D01*
X75119359Y34832650D01*
X75227035Y34887513D01*
X75312487Y34972965D01*
X75367350Y35080641D01*
X75367350Y35080643D01*
X75367351Y35080644D01*
X75386255Y35199998D01*
X75386255Y35200003D01*
X75367351Y35319357D01*
X75312488Y35427034D01*
X75227033Y35512489D01*
X75119356Y35567352D01*
X75000002Y35586255D01*
X74999998Y35586255D01*
X74880643Y35567352D01*
X74772966Y35512489D01*
X74687511Y35427034D01*
X74632648Y35319357D01*
X74613745Y35200003D01*
X73870416Y35200003D01*
X73867351Y35219357D01*
X73812488Y35327034D01*
X73727033Y35412489D01*
X73619356Y35467352D01*
X73500002Y35486255D01*
X73499998Y35486255D01*
X73380643Y35467352D01*
X73272966Y35412489D01*
X73187511Y35327034D01*
X73132648Y35219357D01*
X73122473Y35155109D01*
X73096836Y35101029D01*
X72902224Y35101029D01*
X72877527Y35155109D01*
X72867351Y35219357D01*
X72812488Y35327034D01*
X72727033Y35412489D01*
X72619356Y35467352D01*
X72500002Y35486255D01*
X72499998Y35486255D01*
X72380643Y35467352D01*
X72272966Y35412489D01*
X72187511Y35327034D01*
X72132648Y35219357D01*
X72113745Y35100003D01*
X56800000Y35100003D01*
X56800000Y38400003D01*
X61713745Y38400003D01*
X61713745Y38399998D01*
X61732648Y38280644D01*
X61787511Y38172967D01*
X61872966Y38087512D01*
X61980643Y38032649D01*
X62099998Y38013745D01*
X62100000Y38013745D01*
X62100002Y38013745D01*
X62219356Y38032649D01*
X62219357Y38032650D01*
X62219359Y38032650D01*
X62327035Y38087513D01*
X62412319Y38172797D01*
X62473642Y38206282D01*
X62543334Y38201298D01*
X62587681Y38172797D01*
X62672966Y38087512D01*
X62780643Y38032649D01*
X62899998Y38013745D01*
X62900000Y38013745D01*
X62900002Y38013745D01*
X63019356Y38032649D01*
X63019357Y38032650D01*
X63019359Y38032650D01*
X63127035Y38087513D01*
X63212487Y38172965D01*
X63267350Y38280641D01*
X63267350Y38280643D01*
X63267351Y38280644D01*
X63270417Y38300003D01*
X63863745Y38300003D01*
X63863745Y38299998D01*
X63882648Y38180644D01*
X63937511Y38072967D01*
X64022966Y37987512D01*
X64130643Y37932649D01*
X64249998Y37913745D01*
X64250000Y37913745D01*
X64250002Y37913745D01*
X64369356Y37932649D01*
X64369357Y37932650D01*
X64369359Y37932650D01*
X64477035Y37987513D01*
X64562487Y38072965D01*
X64617350Y38180641D01*
X64617350Y38180643D01*
X64617351Y38180644D01*
X64636255Y38299998D01*
X64636255Y38300003D01*
X64617351Y38419357D01*
X64562488Y38527034D01*
X64477033Y38612489D01*
X64369356Y38667352D01*
X64250002Y38686255D01*
X64249998Y38686255D01*
X64130643Y38667352D01*
X64022966Y38612489D01*
X63937511Y38527034D01*
X63882648Y38419357D01*
X63863745Y38300003D01*
X63270417Y38300003D01*
X63286255Y38399998D01*
X63286255Y38400003D01*
X63267351Y38519357D01*
X63212488Y38627034D01*
X63127033Y38712489D01*
X63019356Y38767352D01*
X62900002Y38786255D01*
X62899998Y38786255D01*
X62780643Y38767352D01*
X62672966Y38712489D01*
X62587681Y38627203D01*
X62526358Y38593718D01*
X62456666Y38598702D01*
X62412319Y38627203D01*
X62327033Y38712489D01*
X62219356Y38767352D01*
X62100002Y38786255D01*
X62099998Y38786255D01*
X61980643Y38767352D01*
X61872966Y38712489D01*
X61787511Y38627034D01*
X61732648Y38519357D01*
X61713745Y38400003D01*
X56800000Y38400003D01*
X56800000Y39696280D01*
X69022500Y39696280D01*
X69022500Y39503721D01*
X69060062Y39314882D01*
X69060066Y39314868D01*
X69133746Y39136987D01*
X69133753Y39136974D01*
X69240725Y38976881D01*
X69240728Y38976877D01*
X69376876Y38840729D01*
X69376880Y38840726D01*
X69536973Y38733754D01*
X69536986Y38733747D01*
X69588313Y38712487D01*
X69714874Y38660064D01*
X69880081Y38627203D01*
X69903720Y38622501D01*
X69903724Y38622500D01*
X69903725Y38622500D01*
X70096276Y38622500D01*
X70096277Y38622501D01*
X70285126Y38660064D01*
X70463020Y38733750D01*
X70623120Y38840726D01*
X70759274Y38976880D01*
X70866250Y39136980D01*
X70939936Y39314874D01*
X70977500Y39503725D01*
X70977500Y39696275D01*
X70977499Y39696280D01*
X76022500Y39696280D01*
X76022500Y39503721D01*
X76060062Y39314882D01*
X76060066Y39314868D01*
X76133746Y39136987D01*
X76133753Y39136974D01*
X76240725Y38976881D01*
X76240728Y38976877D01*
X76376876Y38840729D01*
X76376880Y38840726D01*
X76536973Y38733754D01*
X76536986Y38733747D01*
X76588313Y38712487D01*
X76714874Y38660064D01*
X76880081Y38627203D01*
X76903720Y38622501D01*
X76903724Y38622500D01*
X76903725Y38622500D01*
X77096276Y38622500D01*
X77096277Y38622501D01*
X77285126Y38660064D01*
X77463020Y38733750D01*
X77623120Y38840726D01*
X77759274Y38976880D01*
X77866250Y39136980D01*
X77939936Y39314874D01*
X77977500Y39503725D01*
X77977500Y39696275D01*
X77939936Y39885126D01*
X77922577Y39927035D01*
X77866253Y40063014D01*
X77866246Y40063027D01*
X77759274Y40223120D01*
X77759271Y40223124D01*
X77623123Y40359272D01*
X77623119Y40359275D01*
X77463026Y40466247D01*
X77463013Y40466254D01*
X77285132Y40539934D01*
X77285128Y40539936D01*
X77285126Y40539936D01*
X77285122Y40539937D01*
X77285118Y40539938D01*
X77096279Y40577500D01*
X77096275Y40577500D01*
X76903725Y40577500D01*
X76903720Y40577500D01*
X76714881Y40539938D01*
X76714867Y40539934D01*
X76536986Y40466254D01*
X76536973Y40466247D01*
X76376880Y40359275D01*
X76376876Y40359272D01*
X76240728Y40223124D01*
X76240725Y40223120D01*
X76133753Y40063027D01*
X76133746Y40063014D01*
X76060066Y39885133D01*
X76060062Y39885119D01*
X76022500Y39696280D01*
X70977499Y39696280D01*
X70939936Y39885126D01*
X70922577Y39927035D01*
X70866253Y40063014D01*
X70866246Y40063027D01*
X70759274Y40223120D01*
X70759271Y40223124D01*
X70623123Y40359272D01*
X70623119Y40359275D01*
X70463026Y40466247D01*
X70463013Y40466254D01*
X70285132Y40539934D01*
X70285128Y40539936D01*
X70285126Y40539936D01*
X70285122Y40539937D01*
X70285118Y40539938D01*
X70096279Y40577500D01*
X70096275Y40577500D01*
X69903725Y40577500D01*
X69903720Y40577500D01*
X69714881Y40539938D01*
X69714867Y40539934D01*
X69536986Y40466254D01*
X69536973Y40466247D01*
X69376880Y40359275D01*
X69376876Y40359272D01*
X69240728Y40223124D01*
X69240725Y40223120D01*
X69133753Y40063027D01*
X69133746Y40063014D01*
X69060066Y39885133D01*
X69060062Y39885119D01*
X69022500Y39696280D01*
X56800000Y39696280D01*
X56800000Y40400003D01*
X65994247Y40400003D01*
X65994247Y40399998D01*
X66013150Y40280644D01*
X66068013Y40172967D01*
X66153468Y40087512D01*
X66261145Y40032649D01*
X66380500Y40013745D01*
X66380502Y40013745D01*
X66380504Y40013745D01*
X66499858Y40032649D01*
X66499859Y40032650D01*
X66499861Y40032650D01*
X66607537Y40087513D01*
X66692989Y40172965D01*
X66747852Y40280641D01*
X66747852Y40280643D01*
X66747853Y40280644D01*
X66766757Y40399998D01*
X66766757Y40400003D01*
X66747853Y40519357D01*
X66692990Y40627034D01*
X66607535Y40712489D01*
X66499858Y40767352D01*
X66380504Y40786255D01*
X66380500Y40786255D01*
X66261145Y40767352D01*
X66153468Y40712489D01*
X66068013Y40627034D01*
X66013150Y40519357D01*
X65994247Y40400003D01*
X56800000Y40400003D01*
X56800000Y42300003D01*
X62713745Y42300003D01*
X62713745Y42299998D01*
X62732648Y42180644D01*
X62787511Y42072967D01*
X62872966Y41987512D01*
X62980643Y41932649D01*
X63099998Y41913745D01*
X63100000Y41913745D01*
X63100002Y41913745D01*
X63219356Y41932649D01*
X63219357Y41932650D01*
X63219359Y41932650D01*
X63327035Y41987513D01*
X63412487Y42072965D01*
X63467350Y42180641D01*
X63467350Y42180643D01*
X63467351Y42180644D01*
X63486255Y42299998D01*
X63486255Y42300003D01*
X63467351Y42419356D01*
X63467350Y42419358D01*
X63467350Y42419359D01*
X63449670Y42454057D01*
X63436776Y42522725D01*
X63463054Y42587465D01*
X63520161Y42627721D01*
X63579556Y42632822D01*
X63580640Y42632651D01*
X63580641Y42632650D01*
X63611761Y42627721D01*
X63699999Y42613745D01*
X63700000Y42613745D01*
X63700002Y42613745D01*
X63819356Y42632649D01*
X63819357Y42632650D01*
X63819359Y42632650D01*
X63927035Y42687513D01*
X64012487Y42772965D01*
X64067350Y42880641D01*
X64067350Y42880643D01*
X64067351Y42880644D01*
X64086255Y42999998D01*
X64086255Y43000003D01*
X64067351Y43119357D01*
X64012488Y43227034D01*
X63927033Y43312489D01*
X63819356Y43367352D01*
X63700002Y43386255D01*
X63699998Y43386255D01*
X63580643Y43367352D01*
X63472966Y43312489D01*
X63387511Y43227034D01*
X63332648Y43119357D01*
X63313745Y43000003D01*
X63313745Y42999998D01*
X63332649Y42880644D01*
X63332649Y42880643D01*
X63332650Y42880641D01*
X63339729Y42866746D01*
X63350328Y42845944D01*
X63363223Y42777275D01*
X63336945Y42712535D01*
X63279837Y42672279D01*
X63220444Y42667179D01*
X63100002Y42686255D01*
X63099998Y42686255D01*
X62980643Y42667352D01*
X62872966Y42612489D01*
X62787511Y42527034D01*
X62732648Y42419357D01*
X62713745Y42300003D01*
X56800000Y42300003D01*
X56800000Y44000003D01*
X74233243Y44000003D01*
X74233243Y43999998D01*
X74252146Y43880644D01*
X74307009Y43772967D01*
X74392464Y43687512D01*
X74500141Y43632649D01*
X74619496Y43613745D01*
X74619498Y43613745D01*
X74619500Y43613745D01*
X74738854Y43632649D01*
X74738855Y43632650D01*
X74738857Y43632650D01*
X74846533Y43687513D01*
X74931985Y43772965D01*
X74986848Y43880641D01*
X74986848Y43880643D01*
X74986849Y43880644D01*
X75005753Y43999998D01*
X75005753Y44000003D01*
X74986849Y44119357D01*
X74931986Y44227034D01*
X74846531Y44312489D01*
X74738854Y44367352D01*
X74619500Y44386255D01*
X74619496Y44386255D01*
X74500141Y44367352D01*
X74392464Y44312489D01*
X74307009Y44227034D01*
X74252146Y44119357D01*
X74233243Y44000003D01*
X56800000Y44000003D01*
X56800000Y47113220D01*
X75272500Y47113220D01*
X75272500Y46886781D01*
X75272501Y46886765D01*
X75302056Y46662269D01*
X75302057Y46662264D01*
X75302058Y46662258D01*
X75302059Y46662256D01*
X75360667Y46443524D01*
X75447322Y46234319D01*
X75447329Y46234304D01*
X75560553Y46038194D01*
X75698408Y45858538D01*
X75698414Y45858531D01*
X75858530Y45698415D01*
X75858537Y45698409D01*
X76038193Y45560554D01*
X76234303Y45447330D01*
X76234318Y45447323D01*
X76283298Y45427035D01*
X76443522Y45360668D01*
X76662258Y45302058D01*
X76886774Y45272500D01*
X76886781Y45272500D01*
X77113219Y45272500D01*
X77113226Y45272500D01*
X77337742Y45302058D01*
X77556478Y45360668D01*
X77765693Y45447328D01*
X77961807Y45560554D01*
X78141464Y45698410D01*
X78301590Y45858536D01*
X78439446Y46038193D01*
X78552672Y46234307D01*
X78639332Y46443522D01*
X78697942Y46662258D01*
X78727500Y46886774D01*
X78727500Y47113226D01*
X78697942Y47337742D01*
X78639332Y47556478D01*
X78552672Y47765693D01*
X78439446Y47961807D01*
X78301590Y48141464D01*
X78301585Y48141470D01*
X78141469Y48301586D01*
X78141462Y48301592D01*
X77961806Y48439447D01*
X77765696Y48552671D01*
X77765681Y48552678D01*
X77556476Y48639333D01*
X77447110Y48668637D01*
X77337742Y48697942D01*
X77337736Y48697943D01*
X77337731Y48697944D01*
X77113235Y48727499D01*
X77113232Y48727500D01*
X77113226Y48727500D01*
X76886774Y48727500D01*
X76886768Y48727500D01*
X76886764Y48727499D01*
X76662268Y48697944D01*
X76662261Y48697943D01*
X76662258Y48697942D01*
X76616031Y48685556D01*
X76443523Y48639333D01*
X76234318Y48552678D01*
X76234303Y48552671D01*
X76038193Y48439447D01*
X75858537Y48301592D01*
X75858530Y48301586D01*
X75698414Y48141470D01*
X75698408Y48141463D01*
X75560553Y47961807D01*
X75447329Y47765697D01*
X75447322Y47765682D01*
X75360667Y47556477D01*
X75302059Y47337745D01*
X75302056Y47337732D01*
X75272501Y47113236D01*
X75272500Y47113220D01*
X56800000Y47113220D01*
X56800000Y49494500D01*
X56819685Y49561539D01*
X56872489Y49607294D01*
X56924000Y49618500D01*
X76945149Y49618500D01*
X76996519Y49618500D01*
X77003472Y49618305D01*
G37*
G04 #@! TD.AperFunction*
G04 #@! TD*
M02*
