M48
INCH,TZ
T1C0.0100
T2C0.0100
T3C0.0118
T4C0.0236
T5C0.0394
T6C0.0591
T7C0.0625
T8C0.0630
T9C0.0709
T10C0.0728
T11C0.0236
T12C0.0669
T13C0.1260
%
G90
G05
T1
X2244Y10315
X2244Y9370
X2598Y10512
X2598Y9173
X2992Y10512
X2992Y9173
X3386Y10512
X3386Y9173
X3780Y10512
X3780Y9173
X4173Y10512
X4173Y9173
X4567Y10512
X4567Y9173
X5276Y10512
X5276Y9173
X5866Y10512
X5866Y9173
X6260Y10512
X6260Y9173
X6772Y8071
X7323Y3465
X7402Y8425
X7441Y8858
X7441Y2008
X7520Y11299
X7677Y2008
X7717Y10787
X7756Y3465
X8150Y10551
X8228Y8858
X8268Y8425
X8307Y11299
X8740Y7520
X8799Y2323
X8819Y12559
X9037Y1926
X9471Y3386
X9528Y9193
X9587Y12581
X9587Y12185
X9626Y7480
X9626Y7087
X9646Y10512
X9724Y3384
X9752Y15167
X9752Y14724
X10079Y9646
X10200Y2162
X10276Y3150
X10484Y14169
X10512Y9646
X10658Y14646
X10669Y15354
X10669Y15039
X10787Y2047
X10856Y4341
X10886Y12579
X10886Y7165
X11142Y14449
X11201Y3858
X11268Y10039
X11417Y3465
X11445Y14173
X11496Y7008
X11614Y9370
X11654Y3465
X11693Y5512
X11850Y9606
X11890Y14843
X11890Y14496
X12087Y2677
X12087Y2480
X12165Y10551
X12165Y9094
X12165Y5236
X12323Y13327
X12598Y12047
X12717Y4803
X12795Y7362
X12803Y10315
X12803Y9370
X12992Y8031
X13071Y2283
X13110Y12874
X13189Y13346
X13307Y7402
X13307Y5984
X13307Y5236
X13307Y3307
X13346Y6218
X13386Y9252
X13543Y10709
X13543Y8976
X13583Y9961
X13593Y5512
X13780Y7480
X13886Y15157
X14045Y8307
X14301Y8402
X14409Y2488
X14409Y2205
X14449Y2953
X14528Y4291
X14567Y7582
X14674Y15157
X14724Y6220
X15168Y9456
X15276Y10591
X15315Y10039
X15315Y9646
X15315Y7638
X15382Y15157
X15455Y4882
X15669Y11496
X15689Y4764
X16055Y11496
X16063Y4882
X16220Y8898
X16220Y8504
X16248Y15157
X16260Y10059
X16299Y9488
X16496Y6240
X17008Y9882
X17036Y15157
X17126Y11850
X17598Y11850
X17598Y5197
X17717Y12953
X17756Y6673
X17756Y5886
X17795Y3307
X17795Y2559
X17835Y1299
X17851Y7795
X17953Y12717
X18189Y12500
X18228Y13583
X18425Y7165
X18465Y13346
X18701Y2874
X18701Y1929
X18976Y13386
X18976Y6654
X18976Y5906
X19016Y10197
X19016Y9449
X19055Y8425
X19094Y2874
X19094Y1929
X19134Y12756
X19134Y11850
X19409Y8780
X19449Y17126
X19449Y16496
X19449Y8425
X19724Y8543
X19764Y8976
X20000Y6850
X20000Y6457
X20039Y12835
X20118Y10276
X20157Y4961
X20197Y15512
X20315Y10157
X20591Y8307
X20591Y4700
X20591Y3046
X20827Y9094
X20827Y8701
X20866Y4961
X21102Y11772
X21220Y11063
X21220Y10669
X21220Y10276
X21535Y17795
X21535Y16772
X21604Y4936
X21772Y15630
X21860Y4936
X22008Y11772
X22047Y15512
X22087Y10984
X22087Y9423
X22087Y8923
X22087Y8425
X22087Y8041
X22087Y7756
X22087Y7423
X22116Y3986
X22116Y2628
X22372Y3986
X22372Y2628
X22628Y4936
X22884Y4936
X23268Y6850
X23268Y6457
X23465Y11693
X23583Y6850
X23622Y4961
X23701Y11417
X23701Y9173
X23937Y4724
X23937Y3031
X24134Y1319
X24331Y4961
X24449Y15118
X24449Y11811
X24646Y7047
X24764Y15118
X24843Y16654
X25079Y16929
X25295Y15079
X25630Y12638
X25630Y12323
X26134Y15906
X26378Y16220
X28268Y9812
X28268Y9358
X28543Y13819
X28937Y13819
X29378Y17323
X29528Y13858
X30669Y12244
X30709Y6654
X30748Y13465
T2
X17530Y10645
X17530Y10143
X17530Y9641
X18031Y10645
X18031Y10143
X18031Y9641
X18533Y10645
X18533Y10143
X18533Y9641
T3
X9173Y2756
X9567Y2756
X9961Y2756
T5
X19488Y14173
X20488Y14173
X21488Y14173
T6
X13504Y866
T7
X1756Y9843
X2756Y9843
T8
X25906Y4429
X27087Y6280
X28268Y4429
T9
X1256Y11133
X1256Y8553
X3836Y11133
X3836Y8553
T10
X2008Y6201
X2008Y3248
X3976Y6201
X3976Y3248
T11
X29291Y8661
T12
X27559Y15591
X30315Y15591
T13
X1181Y18504
X1181Y1181
X30315Y18504
X30315Y1181
T4
G00X28809Y11543
M15
G01X29203Y11543
M16
G05
G00X28809Y8142
M15
G01X29203Y8142
M16
G05
G00X30256Y11543
M15
G01X30768Y11543
M16
G05
G00X30256Y8142
M15
G01X30768Y8142
M16
G05
T11
G00X29291Y10974
M15
G01X29291Y11073
M16
G05
M30
