M48
INCH,TZ
T1C0.0100
T2C0.1260
%
G90
G05
T1
X55945Y-31693
X56181Y-33031
X57205Y-32362
X57409Y-32362
X57638Y-31417
X57953Y-33031
X57992Y-32638
X58268Y-32205
X58484Y-30413
X58484Y-30591
X58504Y-32677
X58504Y-32874
X58530Y-31116
X58858Y-31693
X58976Y-31102
X59429Y-31102
X59724Y-31850
X59874Y-32079
X59921Y-30591
X59921Y-32795
X60079Y-31102
X60827Y-30709
X61024Y-32283
X61024Y-32677
X61063Y-31378
T2
X54528Y-31693
M30
