G04 #@! TF.GenerationSoftware,KiCad,Pcbnew,8.0.7-8.0.7-0~ubuntu22.04.1*
G04 #@! TF.CreationDate,2025-02-11T14:43:41-08:00*
G04 #@! TF.ProjectId,cable_buffer_board,6361626c-655f-4627-9566-6665725f626f,rev?*
G04 #@! TF.SameCoordinates,Original*
G04 #@! TF.FileFunction,Copper,L3,Inr*
G04 #@! TF.FilePolarity,Positive*
%FSLAX46Y46*%
G04 Gerber Fmt 4.6, Leading zero omitted, Abs format (unit mm)*
G04 Created by KiCad (PCBNEW 8.0.7-8.0.7-0~ubuntu22.04.1) date 2025-02-11 14:43:41*
%MOMM*%
%LPD*%
G01*
G04 APERTURE LIST*
G04 #@! TA.AperFunction,ComponentPad*
%ADD10C,3.600000*%
G04 #@! TD*
G04 #@! TA.AperFunction,ViaPad*
%ADD11C,0.457200*%
G04 #@! TD*
G04 APERTURE END LIST*
D10*
G04 #@! TO.N,Net-(J1-Pin_1)*
G04 #@! TO.C,J1*
X138500000Y-80500000D03*
G04 #@! TD*
D11*
G04 #@! TO.N,+2V5*
X155100000Y-79700000D03*
X148550000Y-77250000D03*
X150950000Y-79000000D03*
X149800000Y-79000000D03*
X148550000Y-77700000D03*
G04 #@! TO.N,GND*
X152200000Y-83300000D03*
X147300000Y-82900000D03*
X151700000Y-80900000D03*
X152200000Y-77700000D03*
X155000000Y-83000000D03*
G04 #@! TO.N,-2V5*
X145300000Y-82200000D03*
X148600000Y-83500000D03*
X155000000Y-82000000D03*
X145818000Y-82200000D03*
X148000000Y-81800000D03*
X148600000Y-83000000D03*
G04 #@! TO.N,Net-(J1-Pin_1)*
X142100000Y-80500000D03*
G04 #@! TO.N,/VBUF*
X146400000Y-79800000D03*
X152600000Y-79000000D03*
X147200000Y-83900000D03*
G04 #@! TO.N,/VSINE*
X152081000Y-81481000D03*
X154500000Y-78000000D03*
G04 #@! TO.N,/shield*
X142700000Y-83900000D03*
G04 #@! TO.N,Net-(U2B--)*
X148664998Y-79035002D03*
X149500000Y-80500000D03*
G04 #@! TD*
G04 #@! TA.AperFunction,Conductor*
G04 #@! TO.N,/shield*
G36*
X142980790Y-76401185D02*
G01*
X143026545Y-76453989D01*
X143037750Y-76506051D01*
X143026666Y-78999999D01*
X143026666Y-79000000D01*
X142700000Y-79000000D01*
X142700000Y-80084488D01*
X142673640Y-80042537D01*
X142557463Y-79926360D01*
X142520765Y-79903301D01*
X142418347Y-79838947D01*
X142263265Y-79784682D01*
X142263261Y-79784681D01*
X142100004Y-79766287D01*
X142099996Y-79766287D01*
X141936738Y-79784681D01*
X141936734Y-79784682D01*
X141781652Y-79838947D01*
X141642536Y-79926360D01*
X141526360Y-80042536D01*
X141438947Y-80181652D01*
X141384682Y-80336734D01*
X141384681Y-80336738D01*
X141366287Y-80499996D01*
X141366287Y-80500003D01*
X141384681Y-80663261D01*
X141384682Y-80663265D01*
X141438947Y-80818347D01*
X141526360Y-80957463D01*
X141642537Y-81073640D01*
X141781654Y-81161053D01*
X141936733Y-81215317D01*
X141936734Y-81215317D01*
X141936738Y-81215318D01*
X142099996Y-81233713D01*
X142100000Y-81233713D01*
X142100004Y-81233713D01*
X142263261Y-81215318D01*
X142263263Y-81215317D01*
X142263267Y-81215317D01*
X142418346Y-81161053D01*
X142557463Y-81073640D01*
X142673640Y-80957463D01*
X142700000Y-80915511D01*
X142700000Y-82000000D01*
X143013333Y-82000000D01*
X143002244Y-84495053D01*
X142982262Y-84562002D01*
X142929256Y-84607522D01*
X142878246Y-84618500D01*
X138502961Y-84618500D01*
X138497061Y-84618360D01*
X138114409Y-84600131D01*
X138102662Y-84599009D01*
X137726417Y-84544913D01*
X137714830Y-84542680D01*
X137345422Y-84453064D01*
X137334099Y-84449739D01*
X136974883Y-84325412D01*
X136963929Y-84321026D01*
X136618171Y-84163124D01*
X136607682Y-84157717D01*
X136278484Y-83967655D01*
X136268557Y-83961275D01*
X135958928Y-83740789D01*
X135949652Y-83733495D01*
X135662373Y-83484566D01*
X135653833Y-83476423D01*
X135391524Y-83201322D01*
X135383796Y-83192404D01*
X135148816Y-82893602D01*
X135141972Y-82883990D01*
X135091488Y-82805436D01*
X134936470Y-82564223D01*
X134930569Y-82554003D01*
X134756387Y-82216136D01*
X134751485Y-82205402D01*
X134669254Y-82000000D01*
X134610204Y-81852499D01*
X134606351Y-81841367D01*
X134499253Y-81476625D01*
X134496478Y-81465186D01*
X134424538Y-81091929D01*
X134422859Y-81080250D01*
X134411134Y-80957463D01*
X134386726Y-80701841D01*
X134386165Y-80690054D01*
X134386165Y-80500000D01*
X136194564Y-80500000D01*
X136214287Y-80800918D01*
X136214288Y-80800930D01*
X136273118Y-81096683D01*
X136273122Y-81096698D01*
X136370053Y-81382247D01*
X136370062Y-81382268D01*
X136503431Y-81652713D01*
X136503435Y-81652720D01*
X136670973Y-81903459D01*
X136869810Y-82130189D01*
X137096540Y-82329026D01*
X137347279Y-82496564D01*
X137347286Y-82496568D01*
X137617731Y-82629937D01*
X137617736Y-82629939D01*
X137617748Y-82629945D01*
X137903309Y-82726880D01*
X138050574Y-82756173D01*
X138199069Y-82785711D01*
X138199070Y-82785711D01*
X138199080Y-82785713D01*
X138500000Y-82805436D01*
X138800920Y-82785713D01*
X139096691Y-82726880D01*
X139382252Y-82629945D01*
X139652718Y-82496566D01*
X139903461Y-82329025D01*
X140130189Y-82130189D01*
X140329025Y-81903461D01*
X140496566Y-81652718D01*
X140629945Y-81382252D01*
X140726880Y-81096691D01*
X140785713Y-80800920D01*
X140805436Y-80500000D01*
X140785713Y-80199080D01*
X140726880Y-79903309D01*
X140629945Y-79617748D01*
X140589053Y-79534828D01*
X140496568Y-79347286D01*
X140496564Y-79347279D01*
X140329026Y-79096540D01*
X140130189Y-78869810D01*
X139903459Y-78670973D01*
X139652720Y-78503435D01*
X139652713Y-78503431D01*
X139382268Y-78370062D01*
X139382247Y-78370053D01*
X139096698Y-78273122D01*
X139096692Y-78273120D01*
X139096691Y-78273120D01*
X139096689Y-78273119D01*
X139096683Y-78273118D01*
X138800930Y-78214288D01*
X138800921Y-78214287D01*
X138800920Y-78214287D01*
X138500000Y-78194564D01*
X138199080Y-78214287D01*
X138199079Y-78214287D01*
X138199069Y-78214288D01*
X137903316Y-78273118D01*
X137903301Y-78273122D01*
X137617752Y-78370053D01*
X137617731Y-78370062D01*
X137347286Y-78503431D01*
X137347279Y-78503435D01*
X137096540Y-78670973D01*
X136869810Y-78869810D01*
X136670973Y-79096540D01*
X136503435Y-79347279D01*
X136503431Y-79347286D01*
X136370062Y-79617731D01*
X136370053Y-79617752D01*
X136273122Y-79903301D01*
X136273118Y-79903316D01*
X136214288Y-80199069D01*
X136214287Y-80199081D01*
X136194564Y-80500000D01*
X134386165Y-80500000D01*
X134386165Y-80309945D01*
X134386726Y-80298158D01*
X134397851Y-80181652D01*
X134422859Y-79919744D01*
X134424539Y-79908069D01*
X134425455Y-79903316D01*
X134496479Y-79534809D01*
X134499252Y-79523379D01*
X134606353Y-79158625D01*
X134610201Y-79147506D01*
X134751489Y-78794587D01*
X134756382Y-78783872D01*
X134930573Y-78445987D01*
X134936464Y-78435785D01*
X135141982Y-78115994D01*
X135148805Y-78106412D01*
X135383805Y-77807584D01*
X135391513Y-77798688D01*
X135653841Y-77523567D01*
X135662364Y-77515441D01*
X135949659Y-77266497D01*
X135958920Y-77259215D01*
X136268571Y-77038714D01*
X136278468Y-77032353D01*
X136607688Y-76842278D01*
X136618163Y-76836878D01*
X136963937Y-76678969D01*
X136974874Y-76674590D01*
X137334117Y-76550254D01*
X137345402Y-76546940D01*
X137714835Y-76457318D01*
X137726413Y-76455086D01*
X138102664Y-76400989D01*
X138114407Y-76399868D01*
X138497061Y-76381639D01*
X138502961Y-76381500D01*
X142913751Y-76381500D01*
X142980790Y-76401185D01*
G37*
G04 #@! TD.AperFunction*
G04 #@! TD*
G04 #@! TA.AperFunction,Conductor*
G04 #@! TO.N,/shield*
G36*
X144414273Y-79019685D02*
G01*
X144460028Y-79072489D01*
X144471227Y-79122758D01*
X144483807Y-80380642D01*
X144498748Y-81874760D01*
X144479735Y-81941993D01*
X144427391Y-81988274D01*
X144374754Y-82000000D01*
X142700000Y-82000000D01*
X142700000Y-79000000D01*
X143026667Y-79000000D01*
X144347234Y-79000000D01*
X144414273Y-79019685D01*
G37*
G04 #@! TD.AperFunction*
G04 #@! TD*
G04 #@! TA.AperFunction,Conductor*
G04 #@! TO.N,+2V5*
G36*
X158061539Y-76401185D02*
G01*
X158107294Y-76453989D01*
X158118500Y-76505500D01*
X158118500Y-79876000D01*
X158098815Y-79943039D01*
X158046011Y-79988794D01*
X157994500Y-80000000D01*
X146947861Y-80000000D01*
X146880822Y-79980315D01*
X146835067Y-79927511D01*
X146825123Y-79858353D01*
X146833513Y-79800000D01*
X146815953Y-79677865D01*
X146764694Y-79565625D01*
X146683891Y-79472373D01*
X146580088Y-79405663D01*
X146580086Y-79405662D01*
X146580084Y-79405661D01*
X146580085Y-79405661D01*
X146461697Y-79370900D01*
X146461695Y-79370900D01*
X146338305Y-79370900D01*
X146338302Y-79370900D01*
X146219914Y-79405661D01*
X146116110Y-79472372D01*
X146035306Y-79565625D01*
X146035305Y-79565626D01*
X145984046Y-79677865D01*
X145966487Y-79799999D01*
X145974877Y-79858353D01*
X145964933Y-79927512D01*
X145919178Y-79980316D01*
X145852139Y-80000000D01*
X144808277Y-80000000D01*
X144741238Y-79980315D01*
X144695483Y-79927511D01*
X144684283Y-79877240D01*
X144684094Y-79858353D01*
X144676717Y-79120703D01*
X144671810Y-79078072D01*
X144662215Y-79035002D01*
X148231485Y-79035002D01*
X148249044Y-79157136D01*
X148284318Y-79234373D01*
X148300304Y-79269377D01*
X148381107Y-79362629D01*
X148484910Y-79429339D01*
X148484913Y-79429340D01*
X148484912Y-79429340D01*
X148603300Y-79464101D01*
X148603302Y-79464102D01*
X148603303Y-79464102D01*
X148726694Y-79464102D01*
X148726694Y-79464101D01*
X148845086Y-79429339D01*
X148948889Y-79362629D01*
X149029692Y-79269377D01*
X149080951Y-79157137D01*
X149098511Y-79035002D01*
X149093479Y-79000000D01*
X152166487Y-79000000D01*
X152184046Y-79122134D01*
X152200032Y-79157137D01*
X152235306Y-79234375D01*
X152316109Y-79327627D01*
X152419912Y-79394337D01*
X152419915Y-79394338D01*
X152419914Y-79394338D01*
X152538302Y-79429099D01*
X152538304Y-79429100D01*
X152538305Y-79429100D01*
X152661696Y-79429100D01*
X152661696Y-79429099D01*
X152780088Y-79394337D01*
X152883891Y-79327627D01*
X152964694Y-79234375D01*
X153015953Y-79122135D01*
X153033513Y-79000000D01*
X153015953Y-78877865D01*
X152964694Y-78765625D01*
X152883891Y-78672373D01*
X152780088Y-78605663D01*
X152780086Y-78605662D01*
X152780084Y-78605661D01*
X152780085Y-78605661D01*
X152661697Y-78570900D01*
X152661695Y-78570900D01*
X152538305Y-78570900D01*
X152538302Y-78570900D01*
X152419914Y-78605661D01*
X152316110Y-78672372D01*
X152235306Y-78765625D01*
X152235305Y-78765626D01*
X152184046Y-78877865D01*
X152166487Y-79000000D01*
X149093479Y-79000000D01*
X149080951Y-78912867D01*
X149029692Y-78800627D01*
X148948889Y-78707375D01*
X148845086Y-78640665D01*
X148845084Y-78640664D01*
X148845082Y-78640663D01*
X148845083Y-78640663D01*
X148726695Y-78605902D01*
X148726693Y-78605902D01*
X148603303Y-78605902D01*
X148603300Y-78605902D01*
X148484912Y-78640663D01*
X148381108Y-78707374D01*
X148300304Y-78800627D01*
X148300303Y-78800628D01*
X148249044Y-78912867D01*
X148231485Y-79035002D01*
X144662215Y-79035002D01*
X144660611Y-79027803D01*
X144658344Y-79018627D01*
X144615334Y-78937915D01*
X144569579Y-78885111D01*
X144569573Y-78885104D01*
X144551991Y-78867160D01*
X144551990Y-78867159D01*
X144551988Y-78867157D01*
X144551986Y-78867156D01*
X144551984Y-78867154D01*
X144472174Y-78822511D01*
X144472169Y-78822509D01*
X144405137Y-78802826D01*
X144405133Y-78802825D01*
X144405132Y-78802825D01*
X144347234Y-78794500D01*
X143664000Y-78794500D01*
X143596961Y-78774815D01*
X143551206Y-78722011D01*
X143540000Y-78670500D01*
X143540000Y-77700000D01*
X151766487Y-77700000D01*
X151784046Y-77822134D01*
X151809498Y-77877865D01*
X151835306Y-77934375D01*
X151916109Y-78027627D01*
X152019912Y-78094337D01*
X152019915Y-78094338D01*
X152019914Y-78094338D01*
X152138302Y-78129099D01*
X152138304Y-78129100D01*
X152138305Y-78129100D01*
X152261696Y-78129100D01*
X152261696Y-78129099D01*
X152380088Y-78094337D01*
X152483891Y-78027627D01*
X152507830Y-78000000D01*
X154066487Y-78000000D01*
X154084046Y-78122134D01*
X154135305Y-78234373D01*
X154135306Y-78234375D01*
X154216109Y-78327627D01*
X154319912Y-78394337D01*
X154319915Y-78394338D01*
X154319914Y-78394338D01*
X154438302Y-78429099D01*
X154438304Y-78429100D01*
X154438305Y-78429100D01*
X154561696Y-78429100D01*
X154561696Y-78429099D01*
X154680088Y-78394337D01*
X154783891Y-78327627D01*
X154864694Y-78234375D01*
X154915953Y-78122135D01*
X154933513Y-78000000D01*
X154915953Y-77877865D01*
X154864694Y-77765625D01*
X154783891Y-77672373D01*
X154680088Y-77605663D01*
X154680086Y-77605662D01*
X154680084Y-77605661D01*
X154680085Y-77605661D01*
X154561697Y-77570900D01*
X154561695Y-77570900D01*
X154438305Y-77570900D01*
X154438302Y-77570900D01*
X154319914Y-77605661D01*
X154216110Y-77672372D01*
X154135306Y-77765625D01*
X154135305Y-77765626D01*
X154084046Y-77877865D01*
X154066487Y-78000000D01*
X152507830Y-78000000D01*
X152564694Y-77934375D01*
X152615953Y-77822135D01*
X152633513Y-77700000D01*
X152615953Y-77577865D01*
X152564694Y-77465625D01*
X152483891Y-77372373D01*
X152380088Y-77305663D01*
X152380086Y-77305662D01*
X152380084Y-77305661D01*
X152380085Y-77305661D01*
X152261697Y-77270900D01*
X152261695Y-77270900D01*
X152138305Y-77270900D01*
X152138302Y-77270900D01*
X152019914Y-77305661D01*
X151916110Y-77372372D01*
X151835306Y-77465625D01*
X151835305Y-77465626D01*
X151784046Y-77577865D01*
X151766487Y-77700000D01*
X143540000Y-77700000D01*
X143540000Y-76505500D01*
X143559685Y-76438461D01*
X143612489Y-76392706D01*
X143664000Y-76381500D01*
X157994500Y-76381500D01*
X158061539Y-76401185D01*
G37*
G04 #@! TD.AperFunction*
G04 #@! TD*
G04 #@! TA.AperFunction,Conductor*
G04 #@! TO.N,-2V5*
G36*
X151261287Y-81019685D02*
G01*
X151307042Y-81072487D01*
X151335306Y-81134375D01*
X151416109Y-81227627D01*
X151519912Y-81294337D01*
X151519915Y-81294338D01*
X151519914Y-81294338D01*
X151564975Y-81307569D01*
X151623753Y-81345343D01*
X151652779Y-81408898D01*
X151652779Y-81444192D01*
X151647487Y-81480999D01*
X151665046Y-81603134D01*
X151672311Y-81619041D01*
X151716306Y-81715375D01*
X151797109Y-81808627D01*
X151900912Y-81875337D01*
X151900915Y-81875338D01*
X151900914Y-81875338D01*
X152019302Y-81910099D01*
X152019304Y-81910100D01*
X152019305Y-81910100D01*
X152142696Y-81910100D01*
X152142696Y-81910099D01*
X152261088Y-81875337D01*
X152364891Y-81808627D01*
X152445694Y-81715375D01*
X152496953Y-81603135D01*
X152514513Y-81481000D01*
X152496953Y-81358865D01*
X152445694Y-81246625D01*
X152409800Y-81205201D01*
X152380776Y-81141648D01*
X152390719Y-81072489D01*
X152436474Y-81019685D01*
X152503513Y-81000000D01*
X157994500Y-81000000D01*
X158061539Y-81019685D01*
X158107294Y-81072489D01*
X158118500Y-81124000D01*
X158118500Y-84494500D01*
X158098815Y-84561539D01*
X158046011Y-84607294D01*
X157994500Y-84618500D01*
X143631753Y-84618500D01*
X143564714Y-84598815D01*
X143518959Y-84546011D01*
X143507754Y-84493949D01*
X143510394Y-83900000D01*
X146766487Y-83900000D01*
X146784046Y-84022134D01*
X146826698Y-84115526D01*
X146835306Y-84134375D01*
X146916109Y-84227627D01*
X147019912Y-84294337D01*
X147019915Y-84294338D01*
X147019914Y-84294338D01*
X147138302Y-84329099D01*
X147138304Y-84329100D01*
X147138305Y-84329100D01*
X147261696Y-84329100D01*
X147261696Y-84329099D01*
X147380088Y-84294337D01*
X147483891Y-84227627D01*
X147564694Y-84134375D01*
X147615953Y-84022135D01*
X147633513Y-83900000D01*
X147615953Y-83777865D01*
X147564694Y-83665625D01*
X147483891Y-83572373D01*
X147483888Y-83572371D01*
X147483886Y-83572369D01*
X147414162Y-83527560D01*
X147368407Y-83474756D01*
X147358463Y-83405598D01*
X147387488Y-83342042D01*
X147446266Y-83304268D01*
X147446266Y-83304267D01*
X147460800Y-83300000D01*
X151766487Y-83300000D01*
X151784046Y-83422134D01*
X151821837Y-83504883D01*
X151835306Y-83534375D01*
X151916109Y-83627627D01*
X152019912Y-83694337D01*
X152019915Y-83694338D01*
X152019914Y-83694338D01*
X152138302Y-83729099D01*
X152138304Y-83729100D01*
X152138305Y-83729100D01*
X152261696Y-83729100D01*
X152261696Y-83729099D01*
X152380088Y-83694337D01*
X152483891Y-83627627D01*
X152564694Y-83534375D01*
X152615953Y-83422135D01*
X152633513Y-83300000D01*
X152615953Y-83177865D01*
X152564694Y-83065625D01*
X152507830Y-83000000D01*
X154566487Y-83000000D01*
X154584046Y-83122134D01*
X154600100Y-83157286D01*
X154635306Y-83234375D01*
X154716109Y-83327627D01*
X154819912Y-83394337D01*
X154819915Y-83394338D01*
X154819914Y-83394338D01*
X154938302Y-83429099D01*
X154938304Y-83429100D01*
X154938305Y-83429100D01*
X155061696Y-83429100D01*
X155061696Y-83429099D01*
X155180088Y-83394337D01*
X155283891Y-83327627D01*
X155364694Y-83234375D01*
X155415953Y-83122135D01*
X155433513Y-83000000D01*
X155415953Y-82877865D01*
X155364694Y-82765625D01*
X155283891Y-82672373D01*
X155180088Y-82605663D01*
X155180086Y-82605662D01*
X155180084Y-82605661D01*
X155180085Y-82605661D01*
X155061697Y-82570900D01*
X155061695Y-82570900D01*
X154938305Y-82570900D01*
X154938302Y-82570900D01*
X154819914Y-82605661D01*
X154716110Y-82672372D01*
X154635306Y-82765625D01*
X154635305Y-82765626D01*
X154584046Y-82877865D01*
X154566487Y-83000000D01*
X152507830Y-83000000D01*
X152483891Y-82972373D01*
X152380088Y-82905663D01*
X152380086Y-82905662D01*
X152380084Y-82905661D01*
X152380085Y-82905661D01*
X152261697Y-82870900D01*
X152261695Y-82870900D01*
X152138305Y-82870900D01*
X152138302Y-82870900D01*
X152019914Y-82905661D01*
X151916110Y-82972372D01*
X151835306Y-83065625D01*
X151835305Y-83065626D01*
X151784046Y-83177865D01*
X151766487Y-83300000D01*
X147460800Y-83300000D01*
X147480088Y-83294337D01*
X147583891Y-83227627D01*
X147664694Y-83134375D01*
X147715953Y-83022135D01*
X147733513Y-82900000D01*
X147715953Y-82777865D01*
X147664694Y-82665625D01*
X147583891Y-82572373D01*
X147480088Y-82505663D01*
X147480086Y-82505662D01*
X147480084Y-82505661D01*
X147480085Y-82505661D01*
X147361697Y-82470900D01*
X147361695Y-82470900D01*
X147238305Y-82470900D01*
X147238302Y-82470900D01*
X147119914Y-82505661D01*
X147016110Y-82572372D01*
X146935306Y-82665625D01*
X146935305Y-82665626D01*
X146884046Y-82777865D01*
X146866487Y-82900000D01*
X146884046Y-83022134D01*
X146903908Y-83065625D01*
X146935306Y-83134375D01*
X147016109Y-83227627D01*
X147085837Y-83272438D01*
X147131592Y-83325242D01*
X147141536Y-83394401D01*
X147112511Y-83457956D01*
X147053735Y-83495731D01*
X147019912Y-83505662D01*
X146916110Y-83572372D01*
X146835306Y-83665625D01*
X146835305Y-83665626D01*
X146784046Y-83777865D01*
X146766487Y-83900000D01*
X143510394Y-83900000D01*
X143512150Y-83504883D01*
X143517376Y-82328947D01*
X143537359Y-82261998D01*
X143590365Y-82216478D01*
X143641375Y-82205500D01*
X144374755Y-82205500D01*
X144382095Y-82204692D01*
X144419438Y-82200583D01*
X144472075Y-82188857D01*
X144483234Y-82186041D01*
X144563511Y-82142227D01*
X144615855Y-82095946D01*
X144633634Y-82078174D01*
X144677480Y-81997914D01*
X144696493Y-81930681D01*
X144704238Y-81872705D01*
X144696763Y-81125238D01*
X144715776Y-81058007D01*
X144768120Y-81011726D01*
X144820757Y-81000000D01*
X151194248Y-81000000D01*
X151261287Y-81019685D01*
G37*
G04 #@! TD.AperFunction*
G04 #@! TD*
M02*
