G04 #@! TF.GenerationSoftware,KiCad,Pcbnew,8.0.7-8.0.7-0~ubuntu22.04.1*
G04 #@! TF.CreationDate,2025-02-11T14:43:41-08:00*
G04 #@! TF.ProjectId,cable_buffer_board,6361626c-655f-4627-9566-6665725f626f,rev?*
G04 #@! TF.SameCoordinates,Original*
G04 #@! TF.FileFunction,Copper,L4,Bot*
G04 #@! TF.FilePolarity,Positive*
%FSLAX46Y46*%
G04 Gerber Fmt 4.6, Leading zero omitted, Abs format (unit mm)*
G04 Created by KiCad (PCBNEW 8.0.7-8.0.7-0~ubuntu22.04.1) date 2025-02-11 14:43:41*
%MOMM*%
%LPD*%
G01*
G04 APERTURE LIST*
G04 #@! TA.AperFunction,ComponentPad*
%ADD10C,3.600000*%
G04 #@! TD*
G04 #@! TA.AperFunction,ConnectorPad*
%ADD11C,6.400000*%
G04 #@! TD*
G04 #@! TA.AperFunction,ViaPad*
%ADD12C,0.457200*%
G04 #@! TD*
G04 #@! TA.AperFunction,Conductor*
%ADD13C,0.600000*%
G04 #@! TD*
G04 #@! TA.AperFunction,Conductor*
%ADD14C,0.400000*%
G04 #@! TD*
G04 APERTURE END LIST*
D10*
G04 #@! TO.P,J1,1,Pin_1*
G04 #@! TO.N,Net-(J1-Pin_1)*
X138500000Y-80500000D03*
D11*
X138500000Y-80500000D03*
G04 #@! TD*
D12*
G04 #@! TO.N,+2V5*
X155100000Y-79700000D03*
X148550000Y-77250000D03*
X150950000Y-79000000D03*
X149800000Y-79000000D03*
X148550000Y-77700000D03*
G04 #@! TO.N,GND*
X152200000Y-83300000D03*
X147300000Y-82900000D03*
X151700000Y-80900000D03*
X152200000Y-77700000D03*
X155000000Y-83000000D03*
G04 #@! TO.N,-2V5*
X145300000Y-82200000D03*
X148600000Y-83500000D03*
X155000000Y-82000000D03*
X145818000Y-82200000D03*
X148000000Y-81800000D03*
X148600000Y-83000000D03*
G04 #@! TO.N,Net-(J1-Pin_1)*
X142100000Y-80500000D03*
G04 #@! TO.N,/VBUF*
X146400000Y-79800000D03*
X152600000Y-79000000D03*
X147200000Y-83900000D03*
G04 #@! TO.N,/VSINE*
X152081000Y-81481000D03*
X154500000Y-78000000D03*
G04 #@! TO.N,/shield*
X142700000Y-83900000D03*
G04 #@! TO.N,Net-(U2B--)*
X148664998Y-79035002D03*
X149500000Y-80500000D03*
G04 #@! TD*
D13*
G04 #@! TO.N,Net-(J1-Pin_1)*
X142100000Y-80500000D02*
X138500000Y-80500000D01*
D14*
G04 #@! TO.N,/VBUF*
X147200000Y-83900000D02*
X146399000Y-83099000D01*
X146400000Y-79800000D02*
X147800000Y-78400000D01*
X146399000Y-79801000D02*
X146400000Y-79800000D01*
X152000000Y-78400000D02*
X152600000Y-79000000D01*
X146399000Y-83099000D02*
X146399000Y-79801000D01*
X147800000Y-78400000D02*
X152000000Y-78400000D01*
G04 #@! TO.N,/VSINE*
X152081000Y-81481000D02*
X153619000Y-81481000D01*
X153619000Y-81481000D02*
X154500000Y-80600000D01*
X154500000Y-80600000D02*
X154500000Y-78000000D01*
G04 #@! TO.N,Net-(U2B--)*
X148664998Y-79035002D02*
X148664998Y-79364998D01*
X149500000Y-80200000D02*
X149500000Y-80500000D01*
X148664998Y-79364998D02*
X149500000Y-80200000D01*
G04 #@! TD*
G04 #@! TA.AperFunction,Conductor*
G04 #@! TO.N,/shield*
G36*
X142980790Y-76401185D02*
G01*
X143026545Y-76453989D01*
X143037750Y-76506051D01*
X143026666Y-78999999D01*
X143026666Y-79000000D01*
X142700000Y-79000000D01*
X142700000Y-79967921D01*
X142610292Y-79878213D01*
X142610288Y-79878210D01*
X142479185Y-79790609D01*
X142479172Y-79790602D01*
X142333501Y-79730264D01*
X142333491Y-79730261D01*
X142188664Y-79701453D01*
X142126753Y-79669068D01*
X142093082Y-79611931D01*
X142024214Y-79354913D01*
X141885214Y-78992806D01*
X141709125Y-78647211D01*
X141698046Y-78630151D01*
X141497877Y-78321917D01*
X141253784Y-78020488D01*
X141253781Y-78020484D01*
X140979516Y-77746219D01*
X140699296Y-77519301D01*
X140678082Y-77502122D01*
X140352793Y-77290877D01*
X140007197Y-77114787D01*
X139645094Y-76975788D01*
X139645087Y-76975786D01*
X139270433Y-76875398D01*
X139270429Y-76875397D01*
X139270428Y-76875397D01*
X138887339Y-76814722D01*
X138500001Y-76794422D01*
X138499999Y-76794422D01*
X138112660Y-76814722D01*
X137729572Y-76875397D01*
X137729570Y-76875397D01*
X137354905Y-76975788D01*
X136992802Y-77114787D01*
X136647206Y-77290877D01*
X136321917Y-77502122D01*
X136020488Y-77746215D01*
X136020480Y-77746222D01*
X135746222Y-78020480D01*
X135746215Y-78020488D01*
X135502122Y-78321917D01*
X135290877Y-78647206D01*
X135114787Y-78992802D01*
X134975788Y-79354905D01*
X134875397Y-79729570D01*
X134875397Y-79729572D01*
X134814722Y-80112660D01*
X134794422Y-80499999D01*
X134794422Y-80500000D01*
X134814722Y-80887339D01*
X134865730Y-81209390D01*
X134875398Y-81270433D01*
X134952332Y-81557557D01*
X134975788Y-81645094D01*
X135114787Y-82007197D01*
X135290877Y-82352793D01*
X135502122Y-82678082D01*
X135672891Y-82888964D01*
X135746219Y-82979516D01*
X136020484Y-83253781D01*
X136020488Y-83253784D01*
X136321917Y-83497877D01*
X136647206Y-83709122D01*
X136647211Y-83709125D01*
X136992806Y-83885214D01*
X137354913Y-84024214D01*
X137729567Y-84124602D01*
X138112662Y-84185278D01*
X138478576Y-84204455D01*
X138499999Y-84205578D01*
X138500000Y-84205578D01*
X138500001Y-84205578D01*
X138520301Y-84204514D01*
X138887338Y-84185278D01*
X139270433Y-84124602D01*
X139645087Y-84024214D01*
X140007194Y-83885214D01*
X140352789Y-83709125D01*
X140678084Y-83497876D01*
X140979516Y-83253781D01*
X141253781Y-82979516D01*
X141497876Y-82678084D01*
X141709125Y-82352789D01*
X141885214Y-82007194D01*
X142024214Y-81645087D01*
X142093082Y-81388066D01*
X142129446Y-81328409D01*
X142188665Y-81298546D01*
X142333497Y-81269737D01*
X142479179Y-81209394D01*
X142610289Y-81121789D01*
X142700000Y-81032078D01*
X142700000Y-82000000D01*
X143013333Y-82000000D01*
X143002244Y-84495053D01*
X142982262Y-84562002D01*
X142929256Y-84607522D01*
X142878246Y-84618500D01*
X138502961Y-84618500D01*
X138497061Y-84618360D01*
X138114409Y-84600131D01*
X138102662Y-84599009D01*
X137726417Y-84544913D01*
X137714830Y-84542680D01*
X137345422Y-84453064D01*
X137334099Y-84449739D01*
X136974883Y-84325412D01*
X136963929Y-84321026D01*
X136618171Y-84163124D01*
X136607682Y-84157717D01*
X136278484Y-83967655D01*
X136268557Y-83961275D01*
X135958928Y-83740789D01*
X135949652Y-83733495D01*
X135662373Y-83484566D01*
X135653833Y-83476423D01*
X135391524Y-83201322D01*
X135383796Y-83192404D01*
X135216382Y-82979519D01*
X135148812Y-82893597D01*
X135141972Y-82883990D01*
X134936470Y-82564223D01*
X134930569Y-82554003D01*
X134756387Y-82216136D01*
X134751485Y-82205402D01*
X134610204Y-81852499D01*
X134606351Y-81841367D01*
X134499253Y-81476625D01*
X134496478Y-81465186D01*
X134424538Y-81091929D01*
X134422859Y-81080250D01*
X134404438Y-80887338D01*
X134386726Y-80701841D01*
X134386165Y-80690054D01*
X134386165Y-80309945D01*
X134386726Y-80298158D01*
X134403660Y-80120814D01*
X134422859Y-79919744D01*
X134424539Y-79908069D01*
X134496479Y-79534809D01*
X134499252Y-79523379D01*
X134606353Y-79158625D01*
X134610201Y-79147506D01*
X134751489Y-78794587D01*
X134756382Y-78783872D01*
X134930573Y-78445987D01*
X134936464Y-78435785D01*
X135141982Y-78115994D01*
X135148805Y-78106412D01*
X135383805Y-77807584D01*
X135391513Y-77798688D01*
X135653841Y-77523567D01*
X135662364Y-77515441D01*
X135949659Y-77266497D01*
X135958920Y-77259215D01*
X136268571Y-77038714D01*
X136278468Y-77032353D01*
X136607688Y-76842278D01*
X136618163Y-76836878D01*
X136963937Y-76678969D01*
X136974874Y-76674590D01*
X137334117Y-76550254D01*
X137345402Y-76546940D01*
X137714835Y-76457318D01*
X137726413Y-76455086D01*
X138102664Y-76400989D01*
X138114407Y-76399868D01*
X138497061Y-76381639D01*
X138502961Y-76381500D01*
X142913751Y-76381500D01*
X142980790Y-76401185D01*
G37*
G04 #@! TD.AperFunction*
G04 #@! TD*
G04 #@! TA.AperFunction,Conductor*
G04 #@! TO.N,GND*
G36*
X158061539Y-76401185D02*
G01*
X158107294Y-76453989D01*
X158118500Y-76505500D01*
X158118500Y-84494500D01*
X158098815Y-84561539D01*
X158046011Y-84607294D01*
X157994500Y-84618500D01*
X143674000Y-84618500D01*
X143606961Y-84598815D01*
X143561206Y-84546011D01*
X143550000Y-84494500D01*
X143550000Y-82329500D01*
X143569685Y-82262461D01*
X143622489Y-82216706D01*
X143674000Y-82205500D01*
X144374755Y-82205500D01*
X144382095Y-82204692D01*
X144419438Y-82200583D01*
X144472075Y-82188857D01*
X144483234Y-82186041D01*
X144563511Y-82142227D01*
X144615855Y-82095946D01*
X144633634Y-82078174D01*
X144644118Y-82058982D01*
X144672405Y-82030705D01*
X144835894Y-82030705D01*
X144869128Y-82075115D01*
X144875677Y-82136074D01*
X144866487Y-82199998D01*
X144866487Y-82199999D01*
X144884046Y-82322134D01*
X144917021Y-82394337D01*
X144935306Y-82434375D01*
X145016109Y-82527627D01*
X145119912Y-82594337D01*
X145119915Y-82594338D01*
X145119914Y-82594338D01*
X145238302Y-82629099D01*
X145238304Y-82629100D01*
X145238305Y-82629100D01*
X145361696Y-82629100D01*
X145361696Y-82629099D01*
X145480088Y-82594337D01*
X145491959Y-82586708D01*
X145558998Y-82567022D01*
X145626035Y-82586704D01*
X145626040Y-82586707D01*
X145626041Y-82586708D01*
X145637912Y-82594337D01*
X145637914Y-82594338D01*
X145756302Y-82629099D01*
X145756304Y-82629100D01*
X145874500Y-82629100D01*
X145941539Y-82648785D01*
X145987294Y-82701589D01*
X145998500Y-82753100D01*
X145998500Y-83151726D01*
X146025793Y-83253589D01*
X146033910Y-83267647D01*
X146078520Y-83344913D01*
X146078522Y-83344915D01*
X146792019Y-84058412D01*
X146817131Y-84094579D01*
X146835306Y-84134375D01*
X146916109Y-84227627D01*
X147019912Y-84294337D01*
X147019915Y-84294338D01*
X147019914Y-84294338D01*
X147138302Y-84329099D01*
X147138304Y-84329100D01*
X147138305Y-84329100D01*
X147261696Y-84329100D01*
X147261696Y-84329099D01*
X147380088Y-84294337D01*
X147483891Y-84227627D01*
X147564694Y-84134375D01*
X147615953Y-84022135D01*
X147633513Y-83900000D01*
X147615953Y-83777865D01*
X147564694Y-83665625D01*
X147483891Y-83572373D01*
X147380088Y-83505663D01*
X147380087Y-83505662D01*
X147372628Y-83500869D01*
X147373386Y-83499688D01*
X147349484Y-83483091D01*
X146866393Y-83000000D01*
X148166487Y-83000000D01*
X148184046Y-83122132D01*
X148184046Y-83122133D01*
X148184047Y-83122135D01*
X148207249Y-83172940D01*
X148218917Y-83198489D01*
X148228860Y-83267647D01*
X148218917Y-83301511D01*
X148184046Y-83377867D01*
X148166487Y-83500000D01*
X148184046Y-83622134D01*
X148203908Y-83665625D01*
X148235306Y-83734375D01*
X148316109Y-83827627D01*
X148419912Y-83894337D01*
X148419915Y-83894338D01*
X148419914Y-83894338D01*
X148538302Y-83929099D01*
X148538304Y-83929100D01*
X148538305Y-83929100D01*
X148661696Y-83929100D01*
X148661696Y-83929099D01*
X148753568Y-83902123D01*
X148780085Y-83894338D01*
X148780085Y-83894337D01*
X148780088Y-83894337D01*
X148883891Y-83827627D01*
X148964694Y-83734375D01*
X149015953Y-83622135D01*
X149033513Y-83500000D01*
X149015953Y-83377865D01*
X148981082Y-83301511D01*
X148971139Y-83232354D01*
X148981083Y-83198488D01*
X149015953Y-83122135D01*
X149033513Y-83000000D01*
X149015953Y-82877865D01*
X148964694Y-82765625D01*
X148883891Y-82672373D01*
X148780088Y-82605663D01*
X148780086Y-82605662D01*
X148780084Y-82605661D01*
X148780085Y-82605661D01*
X148661697Y-82570900D01*
X148661695Y-82570900D01*
X148538305Y-82570900D01*
X148538302Y-82570900D01*
X148419914Y-82605661D01*
X148316110Y-82672372D01*
X148235306Y-82765625D01*
X148235305Y-82765626D01*
X148184046Y-82877865D01*
X148166487Y-83000000D01*
X146866393Y-83000000D01*
X146835819Y-82969426D01*
X146802334Y-82908103D01*
X146799500Y-82881745D01*
X146799500Y-81800000D01*
X147566487Y-81800000D01*
X147584046Y-81922134D01*
X147633630Y-82030705D01*
X147635306Y-82034375D01*
X147716109Y-82127627D01*
X147819912Y-82194337D01*
X147819915Y-82194338D01*
X147819914Y-82194338D01*
X147938302Y-82229099D01*
X147938304Y-82229100D01*
X147938305Y-82229100D01*
X148061696Y-82229100D01*
X148061696Y-82229099D01*
X148158823Y-82200581D01*
X148180085Y-82194338D01*
X148180085Y-82194337D01*
X148180088Y-82194337D01*
X148283891Y-82127627D01*
X148364694Y-82034375D01*
X148380393Y-82000000D01*
X154566487Y-82000000D01*
X154584046Y-82122134D01*
X154619873Y-82200582D01*
X154635306Y-82234375D01*
X154716109Y-82327627D01*
X154819912Y-82394337D01*
X154819915Y-82394338D01*
X154819914Y-82394338D01*
X154938302Y-82429099D01*
X154938304Y-82429100D01*
X154938305Y-82429100D01*
X155061696Y-82429100D01*
X155061696Y-82429099D01*
X155180088Y-82394337D01*
X155283891Y-82327627D01*
X155364694Y-82234375D01*
X155415953Y-82122135D01*
X155433513Y-82000000D01*
X155415953Y-81877865D01*
X155364694Y-81765625D01*
X155283891Y-81672373D01*
X155180088Y-81605663D01*
X155180086Y-81605662D01*
X155180084Y-81605661D01*
X155180085Y-81605661D01*
X155061697Y-81570900D01*
X155061695Y-81570900D01*
X154938305Y-81570900D01*
X154938302Y-81570900D01*
X154819914Y-81605661D01*
X154716110Y-81672372D01*
X154716109Y-81672372D01*
X154716109Y-81672373D01*
X154678849Y-81715374D01*
X154635306Y-81765625D01*
X154635305Y-81765626D01*
X154584046Y-81877865D01*
X154566487Y-82000000D01*
X148380393Y-82000000D01*
X148415953Y-81922135D01*
X148433513Y-81800000D01*
X148415953Y-81677865D01*
X148364694Y-81565625D01*
X148291366Y-81481000D01*
X151647487Y-81481000D01*
X151665046Y-81603134D01*
X151715650Y-81713939D01*
X151716306Y-81715375D01*
X151797109Y-81808627D01*
X151900912Y-81875337D01*
X151900915Y-81875338D01*
X151900914Y-81875338D01*
X152019302Y-81910099D01*
X152019304Y-81910100D01*
X152019305Y-81910100D01*
X152142695Y-81910100D01*
X152222992Y-81886522D01*
X152257926Y-81881500D01*
X153671725Y-81881500D01*
X153671727Y-81881500D01*
X153773588Y-81854207D01*
X153864913Y-81801480D01*
X154820480Y-80845913D01*
X154873207Y-80754588D01*
X154900500Y-80652727D01*
X154900500Y-80547273D01*
X154900500Y-80252390D01*
X154920185Y-80185351D01*
X154972989Y-80139596D01*
X155029436Y-80131479D01*
X155029436Y-80129100D01*
X155161696Y-80129100D01*
X155161696Y-80129099D01*
X155280088Y-80094337D01*
X155383891Y-80027627D01*
X155464694Y-79934375D01*
X155515953Y-79822135D01*
X155533513Y-79700000D01*
X155515953Y-79577865D01*
X155464694Y-79465625D01*
X155383891Y-79372373D01*
X155280088Y-79305663D01*
X155280086Y-79305662D01*
X155280084Y-79305661D01*
X155280085Y-79305661D01*
X155161697Y-79270900D01*
X155161695Y-79270900D01*
X155038305Y-79270900D01*
X155029436Y-79270900D01*
X155029436Y-79268522D01*
X154972973Y-79260396D01*
X154920175Y-79214634D01*
X154900500Y-79147609D01*
X154900500Y-78182946D01*
X154911705Y-78131435D01*
X154915953Y-78122135D01*
X154933513Y-78000000D01*
X154915953Y-77877865D01*
X154864694Y-77765625D01*
X154783891Y-77672373D01*
X154680088Y-77605663D01*
X154680086Y-77605662D01*
X154680084Y-77605661D01*
X154680085Y-77605661D01*
X154561697Y-77570900D01*
X154561695Y-77570900D01*
X154438305Y-77570900D01*
X154438302Y-77570900D01*
X154319914Y-77605661D01*
X154216110Y-77672372D01*
X154135306Y-77765625D01*
X154135305Y-77765626D01*
X154084046Y-77877865D01*
X154066487Y-78000000D01*
X154084046Y-78122130D01*
X154084046Y-78122133D01*
X154084047Y-78122135D01*
X154088294Y-78131435D01*
X154099500Y-78182946D01*
X154099500Y-80382745D01*
X154079815Y-80449784D01*
X154063181Y-80470426D01*
X153489426Y-81044181D01*
X153428103Y-81077666D01*
X153401745Y-81080500D01*
X152257926Y-81080500D01*
X152222992Y-81075477D01*
X152182908Y-81063707D01*
X152142696Y-81051900D01*
X152142695Y-81051900D01*
X152019305Y-81051900D01*
X152019302Y-81051900D01*
X151900914Y-81086661D01*
X151797110Y-81153372D01*
X151716306Y-81246625D01*
X151716305Y-81246626D01*
X151665046Y-81358865D01*
X151647487Y-81481000D01*
X148291366Y-81481000D01*
X148283891Y-81472373D01*
X148180088Y-81405663D01*
X148180086Y-81405662D01*
X148180084Y-81405661D01*
X148180085Y-81405661D01*
X148061697Y-81370900D01*
X148061695Y-81370900D01*
X147938305Y-81370900D01*
X147938302Y-81370900D01*
X147819914Y-81405661D01*
X147716110Y-81472372D01*
X147635306Y-81565625D01*
X147635305Y-81565626D01*
X147584046Y-81677865D01*
X147566487Y-81800000D01*
X146799500Y-81800000D01*
X146799500Y-80018255D01*
X146819185Y-79951216D01*
X146835819Y-79930574D01*
X147929574Y-78836819D01*
X147990897Y-78803334D01*
X148017255Y-78800500D01*
X148122097Y-78800500D01*
X148189136Y-78820185D01*
X148234891Y-78872989D01*
X148244835Y-78942146D01*
X148231485Y-79035001D01*
X148249044Y-79157132D01*
X148249044Y-79157135D01*
X148249045Y-79157137D01*
X148253292Y-79166437D01*
X148264498Y-79217948D01*
X148264498Y-79312271D01*
X148264498Y-79417725D01*
X148277333Y-79465626D01*
X148291791Y-79519587D01*
X148317385Y-79563915D01*
X148344518Y-79610911D01*
X148344520Y-79610913D01*
X149043604Y-80309997D01*
X149077089Y-80371320D01*
X149078661Y-80415324D01*
X149066487Y-80499999D01*
X149084046Y-80622134D01*
X149098018Y-80652727D01*
X149135306Y-80734375D01*
X149216109Y-80827627D01*
X149319912Y-80894337D01*
X149319915Y-80894338D01*
X149319914Y-80894338D01*
X149438302Y-80929099D01*
X149438304Y-80929100D01*
X149438305Y-80929100D01*
X149561696Y-80929100D01*
X149561696Y-80929099D01*
X149680088Y-80894337D01*
X149783891Y-80827627D01*
X149864694Y-80734375D01*
X149915953Y-80622135D01*
X149933513Y-80500000D01*
X149915953Y-80377865D01*
X149911705Y-80368563D01*
X149900500Y-80317053D01*
X149900500Y-80147275D01*
X149900500Y-80147273D01*
X149886316Y-80094337D01*
X149873207Y-80045412D01*
X149820480Y-79954087D01*
X149430308Y-79563915D01*
X149396823Y-79502592D01*
X149401807Y-79432900D01*
X149443679Y-79376967D01*
X149509143Y-79352550D01*
X149577416Y-79367402D01*
X149585029Y-79371919D01*
X149619913Y-79394338D01*
X149738302Y-79429099D01*
X149738304Y-79429100D01*
X149738305Y-79429100D01*
X149861696Y-79429100D01*
X149861696Y-79429099D01*
X149961861Y-79399689D01*
X149980085Y-79394338D01*
X149980085Y-79394337D01*
X149980088Y-79394337D01*
X150083891Y-79327627D01*
X150164694Y-79234375D01*
X150215953Y-79122135D01*
X150233513Y-79000000D01*
X150225195Y-78942146D01*
X150235139Y-78872988D01*
X150280894Y-78820184D01*
X150347933Y-78800500D01*
X150402067Y-78800500D01*
X150469106Y-78820185D01*
X150514861Y-78872989D01*
X150524805Y-78942147D01*
X150516487Y-79000000D01*
X150534046Y-79122134D01*
X150576290Y-79214634D01*
X150585306Y-79234375D01*
X150666109Y-79327627D01*
X150769912Y-79394337D01*
X150769915Y-79394338D01*
X150769914Y-79394338D01*
X150888302Y-79429099D01*
X150888304Y-79429100D01*
X150888305Y-79429100D01*
X151011696Y-79429100D01*
X151011696Y-79429099D01*
X151111861Y-79399689D01*
X151130085Y-79394338D01*
X151130085Y-79394337D01*
X151130088Y-79394337D01*
X151233891Y-79327627D01*
X151314694Y-79234375D01*
X151365953Y-79122135D01*
X151383513Y-79000000D01*
X151375195Y-78942146D01*
X151385139Y-78872988D01*
X151430894Y-78820184D01*
X151497933Y-78800500D01*
X151782745Y-78800500D01*
X151849784Y-78820185D01*
X151870426Y-78836819D01*
X152192019Y-79158412D01*
X152217131Y-79194579D01*
X152235306Y-79234375D01*
X152316109Y-79327627D01*
X152419912Y-79394337D01*
X152419915Y-79394338D01*
X152419914Y-79394338D01*
X152538302Y-79429099D01*
X152538304Y-79429100D01*
X152538305Y-79429100D01*
X152661696Y-79429100D01*
X152661696Y-79429099D01*
X152761861Y-79399689D01*
X152780085Y-79394338D01*
X152780085Y-79394337D01*
X152780088Y-79394337D01*
X152883891Y-79327627D01*
X152964694Y-79234375D01*
X153015953Y-79122135D01*
X153033513Y-79000000D01*
X153015953Y-78877865D01*
X152964694Y-78765625D01*
X152883891Y-78672373D01*
X152780088Y-78605663D01*
X152780087Y-78605662D01*
X152772628Y-78600869D01*
X152773386Y-78599688D01*
X152749484Y-78583091D01*
X152245915Y-78079522D01*
X152245913Y-78079520D01*
X152200250Y-78053156D01*
X152154589Y-78026793D01*
X152103657Y-78013146D01*
X152052727Y-77999500D01*
X152052726Y-77999500D01*
X149077901Y-77999500D01*
X149010862Y-77979815D01*
X148965107Y-77927011D01*
X148955163Y-77857853D01*
X148965105Y-77823991D01*
X148965953Y-77822135D01*
X148983513Y-77700000D01*
X148965953Y-77577865D01*
X148942499Y-77526510D01*
X148932556Y-77457354D01*
X148942499Y-77423490D01*
X148965953Y-77372135D01*
X148983513Y-77250000D01*
X148965953Y-77127865D01*
X148914694Y-77015625D01*
X148833891Y-76922373D01*
X148730088Y-76855663D01*
X148730086Y-76855662D01*
X148730084Y-76855661D01*
X148730085Y-76855661D01*
X148611697Y-76820900D01*
X148611695Y-76820900D01*
X148488305Y-76820900D01*
X148488302Y-76820900D01*
X148369914Y-76855661D01*
X148266110Y-76922372D01*
X148185306Y-77015625D01*
X148185305Y-77015626D01*
X148134046Y-77127865D01*
X148116487Y-77250000D01*
X148134046Y-77372133D01*
X148134048Y-77372138D01*
X148157499Y-77423490D01*
X148167442Y-77492648D01*
X148157499Y-77526510D01*
X148134048Y-77577861D01*
X148134046Y-77577866D01*
X148116487Y-77700000D01*
X148134046Y-77822132D01*
X148134895Y-77823991D01*
X148135185Y-77826012D01*
X148136545Y-77830642D01*
X148135879Y-77830837D01*
X148144836Y-77893150D01*
X148115810Y-77956705D01*
X148057031Y-77994478D01*
X148022099Y-77999500D01*
X147747273Y-77999500D01*
X147645410Y-78026793D01*
X147554087Y-78079520D01*
X147554084Y-78079522D01*
X146250514Y-79383091D01*
X146226614Y-79399689D01*
X146227372Y-79400868D01*
X146116111Y-79472371D01*
X146035306Y-79565625D01*
X146035305Y-79565626D01*
X145984046Y-79677865D01*
X145966487Y-79800000D01*
X145984046Y-79922133D01*
X145987293Y-79929242D01*
X145998500Y-79980756D01*
X145998500Y-81646900D01*
X145978815Y-81713939D01*
X145926011Y-81759694D01*
X145874500Y-81770900D01*
X145756302Y-81770900D01*
X145637915Y-81805661D01*
X145637912Y-81805662D01*
X145626035Y-81813295D01*
X145558995Y-81832977D01*
X145491965Y-81813295D01*
X145480087Y-81805662D01*
X145480084Y-81805661D01*
X145361697Y-81770900D01*
X145361695Y-81770900D01*
X145238305Y-81770900D01*
X145238302Y-81770900D01*
X145119914Y-81805661D01*
X145016110Y-81872372D01*
X145016109Y-81872372D01*
X145016109Y-81872373D01*
X144972991Y-81922134D01*
X144935306Y-81965625D01*
X144930512Y-81973085D01*
X144928384Y-81971717D01*
X144891371Y-82014424D01*
X144835894Y-82030705D01*
X144672405Y-82030705D01*
X144693531Y-82009587D01*
X144743673Y-81998687D01*
X144711543Y-81961598D01*
X144701436Y-81893679D01*
X144703063Y-81881499D01*
X144704238Y-81872705D01*
X144692239Y-80672763D01*
X144676717Y-79120703D01*
X144671810Y-79078072D01*
X144660611Y-79027803D01*
X144658344Y-79018627D01*
X144615334Y-78937915D01*
X144569579Y-78885111D01*
X144569573Y-78885104D01*
X144551991Y-78867160D01*
X144551990Y-78867159D01*
X144551988Y-78867157D01*
X144551986Y-78867156D01*
X144551984Y-78867154D01*
X144472174Y-78822511D01*
X144472169Y-78822509D01*
X144405137Y-78802826D01*
X144405133Y-78802825D01*
X144405132Y-78802825D01*
X144347234Y-78794500D01*
X143674000Y-78794500D01*
X143606961Y-78774815D01*
X143561206Y-78722011D01*
X143550000Y-78670500D01*
X143550000Y-76505500D01*
X143569685Y-76438461D01*
X143622489Y-76392706D01*
X143674000Y-76381500D01*
X157994500Y-76381500D01*
X158061539Y-76401185D01*
G37*
G04 #@! TD.AperFunction*
G04 #@! TD*
G04 #@! TA.AperFunction,Conductor*
G04 #@! TO.N,/shield*
G36*
X144414273Y-79019685D02*
G01*
X144460028Y-79072489D01*
X144471227Y-79122758D01*
X144486749Y-80674818D01*
X144498748Y-81874760D01*
X144479735Y-81941993D01*
X144427391Y-81988274D01*
X144374754Y-82000000D01*
X142700000Y-82000000D01*
X142700000Y-79000000D01*
X143026667Y-79000000D01*
X144347234Y-79000000D01*
X144414273Y-79019685D01*
G37*
G04 #@! TD.AperFunction*
G04 #@! TD*
M02*
