G04 #@! TF.GenerationSoftware,KiCad,Pcbnew,8.0.7-8.0.7-0~ubuntu22.04.1*
G04 #@! TF.CreationDate,2025-02-11T14:43:41-08:00*
G04 #@! TF.ProjectId,cable_buffer_board,6361626c-655f-4627-9566-6665725f626f,rev?*
G04 #@! TF.SameCoordinates,Original*
G04 #@! TF.FileFunction,Soldermask,Top*
G04 #@! TF.FilePolarity,Negative*
%FSLAX46Y46*%
G04 Gerber Fmt 4.6, Leading zero omitted, Abs format (unit mm)*
G04 Created by KiCad (PCBNEW 8.0.7-8.0.7-0~ubuntu22.04.1) date 2025-02-11 14:43:41*
%MOMM*%
%LPD*%
G01*
G04 APERTURE LIST*
G04 Aperture macros list*
%AMRoundRect*
0 Rectangle with rounded corners*
0 $1 Rounding radius*
0 $2 $3 $4 $5 $6 $7 $8 $9 X,Y pos of 4 corners*
0 Add a 4 corners polygon primitive as box body*
4,1,4,$2,$3,$4,$5,$6,$7,$8,$9,$2,$3,0*
0 Add four circle primitives for the rounded corners*
1,1,$1+$1,$2,$3*
1,1,$1+$1,$4,$5*
1,1,$1+$1,$6,$7*
1,1,$1+$1,$8,$9*
0 Add four rect primitives between the rounded corners*
20,1,$1+$1,$2,$3,$4,$5,0*
20,1,$1+$1,$4,$5,$6,$7,0*
20,1,$1+$1,$6,$7,$8,$9,0*
20,1,$1+$1,$8,$9,$2,$3,0*%
G04 Aperture macros list end*
%ADD10RoundRect,0.140000X-0.140000X-0.170000X0.140000X-0.170000X0.140000X0.170000X-0.140000X0.170000X0*%
%ADD11RoundRect,0.135000X-0.185000X0.135000X-0.185000X-0.135000X0.185000X-0.135000X0.185000X0.135000X0*%
%ADD12C,1.500000*%
%ADD13RoundRect,0.150000X0.625000X-0.150000X0.625000X0.150000X-0.625000X0.150000X-0.625000X-0.150000X0*%
%ADD14RoundRect,0.250000X0.650000X-0.350000X0.650000X0.350000X-0.650000X0.350000X-0.650000X-0.350000X0*%
%ADD15RoundRect,0.250000X-0.250000X-0.475000X0.250000X-0.475000X0.250000X0.475000X-0.250000X0.475000X0*%
%ADD16RoundRect,0.160000X-0.197500X-0.160000X0.197500X-0.160000X0.197500X0.160000X-0.197500X0.160000X0*%
%ADD17RoundRect,0.250000X0.250000X0.475000X-0.250000X0.475000X-0.250000X-0.475000X0.250000X-0.475000X0*%
%ADD18RoundRect,0.140000X0.170000X-0.140000X0.170000X0.140000X-0.170000X0.140000X-0.170000X-0.140000X0*%
%ADD19RoundRect,0.100000X-0.625000X-0.100000X0.625000X-0.100000X0.625000X0.100000X-0.625000X0.100000X0*%
%ADD20R,1.680000X1.880000*%
%ADD21RoundRect,0.155000X0.212500X0.155000X-0.212500X0.155000X-0.212500X-0.155000X0.212500X-0.155000X0*%
%ADD22C,3.600000*%
G04 APERTURE END LIST*
D10*
G04 #@! TO.C,C2*
X145720000Y-82900000D03*
X146680000Y-82900000D03*
G04 #@! TD*
D11*
G04 #@! TO.C,R1*
X144000000Y-78490000D03*
X144000000Y-79510000D03*
G04 #@! TD*
D12*
G04 #@! TO.C,*
X157500000Y-82500000D03*
G04 #@! TD*
D13*
G04 #@! TO.C,J2*
X153500000Y-83000000D03*
X153500000Y-82000000D03*
X153500000Y-81000000D03*
X153500000Y-80000000D03*
X153500000Y-79000000D03*
X153500000Y-78000000D03*
D14*
X157375000Y-84300000D03*
X157375000Y-76700000D03*
G04 #@! TD*
D12*
G04 #@! TO.C,*
X157500000Y-78500000D03*
G04 #@! TD*
D15*
G04 #@! TO.C,C4*
X149550000Y-83300000D03*
X151450000Y-83300000D03*
G04 #@! TD*
D16*
G04 #@! TO.C,R3*
X145402500Y-83900000D03*
X146597500Y-83900000D03*
G04 #@! TD*
D17*
G04 #@! TO.C,C3*
X151450000Y-77700000D03*
X149550000Y-77700000D03*
G04 #@! TD*
D12*
G04 #@! TO.C,REF\u002A\u002A*
X146000000Y-77000000D03*
G04 #@! TD*
D18*
G04 #@! TO.C,C1*
X151700000Y-80280000D03*
X151700000Y-79320000D03*
G04 #@! TD*
D19*
G04 #@! TO.C,U2*
X145850000Y-79525000D03*
X145850000Y-80175000D03*
X145850000Y-80825000D03*
X145850000Y-81475000D03*
X150150000Y-81475000D03*
X150150000Y-80825000D03*
X150150000Y-80175000D03*
X150150000Y-79525000D03*
D20*
X148000000Y-80500000D03*
G04 #@! TD*
D21*
G04 #@! TO.C,C5*
X143967500Y-80500000D03*
X142832500Y-80500000D03*
G04 #@! TD*
D22*
G04 #@! TO.C,J1*
X138500000Y-80500000D03*
G04 #@! TD*
G36*
X144443039Y-79069685D02*
G01*
X144488794Y-79122489D01*
X144500000Y-79174000D01*
X144500000Y-79900000D01*
X144514644Y-79935355D01*
X144549999Y-79949999D01*
X144550001Y-79950000D01*
X144826000Y-79950000D01*
X144893039Y-79969685D01*
X144938794Y-80022489D01*
X144950000Y-80074000D01*
X144950000Y-80550000D01*
X144964644Y-80585355D01*
X144999999Y-80599999D01*
X145000001Y-80600000D01*
X145126000Y-80600000D01*
X145193039Y-80619685D01*
X145238794Y-80672489D01*
X145250000Y-80724000D01*
X145250000Y-80926000D01*
X145230315Y-80993039D01*
X145177511Y-81038794D01*
X145126000Y-81050000D01*
X141874000Y-81050000D01*
X141806961Y-81030315D01*
X141761206Y-80977511D01*
X141750000Y-80926000D01*
X141750000Y-80074000D01*
X141769685Y-80006961D01*
X141822489Y-79961206D01*
X141874000Y-79950000D01*
X143449999Y-79950000D01*
X143450000Y-79949999D01*
X143485355Y-79935355D01*
X143499999Y-79900000D01*
X143500000Y-79899999D01*
X143500000Y-79174000D01*
X143519685Y-79106961D01*
X143572489Y-79061206D01*
X143624000Y-79050000D01*
X144376000Y-79050000D01*
X144443039Y-79069685D01*
G37*
M02*
