<?xml version="1.0" encoding="UTF-8" standalone="no"?>
<svg
   viewBox="0 0 793.7007874015749 1122.5196850393702"
   width="793.7007874015749"
   height="1122.5196850393702"
   version="1.1"
   id="svg20"
   inkscape:version="1.3 (0e150ed6c4, 2023-07-21)"
   sodipodi:docname="lickety_split_lid_bottom_offset.svg"
   xmlns:inkscape="http://www.inkscape.org/namespaces/inkscape"
   xmlns:sodipodi="http://sodipodi.sourceforge.net/DTD/sodipodi-0.dtd"
   xmlns="http://www.w3.org/2000/svg"
   xmlns:svg="http://www.w3.org/2000/svg">
  <sodipodi:namedview
     id="namedview20"
     pagecolor="#ffffff"
     bordercolor="#000000"
     borderopacity="0.25"
     inkscape:showpageshadow="2"
     inkscape:pageopacity="0.0"
     inkscape:pagecheckerboard="0"
     inkscape:deskcolor="#d1d1d1"
     showgrid="false"
     inkscape:zoom="3.2925927"
     inkscape:cx="253.14398"
     inkscape:cy="576.74914"
     inkscape:window-width="1280"
     inkscape:window-height="658"
     inkscape:window-x="-6"
     inkscape:window-y="1074"
     inkscape:window-maximized="1"
     inkscape:current-layer="g20" />
  <desc
     id="desc1">lickety_split_enclosure_lid_bottom_offset.DXF - scale = 1.000000, origin = (0.000000, 0.000000), method = manual</desc>
  <defs
     id="defs4">
    <marker
       id="DistanceX"
       orient="auto"
       refX="0.0"
       refY="0.0"
       style="overflow:visible">
      <path
         d="M 3,-3 L -3,3 M 0,-5 L  0,5"
         style="stroke:#000000; stroke-width:0.5"
         id="path1" />
    </marker>
    <pattern
       id="Hatch"
       patternUnits="userSpaceOnUse"
       width="8"
       height="8"
       x="0"
       y="0">
      <path
         d="M8 4 l-4,4"
         stroke="#000000"
         stroke-width="0.25"
         linecap="square"
         id="path2" />
      <path
         d="M6 2 l-4,4"
         stroke="#000000"
         stroke-width="0.25"
         linecap="square"
         id="path3" />
      <path
         d="M4 0 l-4,4"
         stroke="#000000"
         stroke-width="0.25"
         linecap="square"
         id="path4" />
    </pattern>
    <symbol
       id="*Model_Space" />
    <symbol
       id="*Paper_Space" />
    <symbol
       id="*Paper_Space0" />
  </defs>
  <g
     inkscape:groupmode="layer"
     inkscape:label="0"
     id="g20">
    <path
       d="m 524.63438,598.5152 a 7.649008,7.649008 0 0 0 -15.29802,0 7.649008,7.649008 0 0 0 15.29802,0 z"
       style="fill:none;stroke:#ff0000;stroke-width:0.096;stroke-linecap:round;stroke-opacity:1;stroke-dasharray:none"
       id="path9" />
    <path
       d="m 244.94934,598.5152 a 7.649008,7.649008 0 0 0 -15.29802,0 7.649008,7.649008 0 0 0 15.29802,0 z"
       style="fill:none;stroke:#ff0000;stroke-width:0.096;stroke-linecap:round;stroke-opacity:1;stroke-dasharray:none"
       id="path10" />
    <path
       d="m 524.63438,432.21599 a 7.649008,7.649008 0 0 0 -15.29802,0 7.649008,7.649008 0 0 0 15.29802,0 z"
       style="fill:none;stroke:#ff0000;stroke-width:0.096;stroke-linecap:round;stroke-opacity:1;stroke-dasharray:none"
       id="path11" />
    <path
       d="m 244.94934,432.21599 a 7.649008,7.649008 0 0 0 -15.29802,0 7.649008,7.649008 0 0 0 15.29802,0 z"
       style="fill:none;stroke:#ff0000;stroke-width:0.096;stroke-linecap:round;stroke-opacity:1;stroke-dasharray:none"
       id="path12" />
    <path
       d="M 516.98537,616.75596 A 18.240756,18.240756 0 0 0 535.22613,598.5152"
       style="fill:none;stroke:#ff0000;stroke-width:0.096;stroke-linecap:round;stroke-opacity:1;stroke-dasharray:none"
       id="path13" />
    <path
       style="fill:none;stroke:#ff0000;stroke-width:0.096;stroke-linecap:round;stroke-opacity:1;stroke-dasharray:none"
       d="M 535.22575,598.5141 V 432.2161"
       id="path14" />
    <path
       d="M 535.22613,432.21599 A 18.240756,18.240756 0 0 0 516.98537,413.97523"
       style="fill:none;stroke:#ff0000;stroke-width:0.096;stroke-linecap:round;stroke-opacity:1;stroke-dasharray:none"
       id="path15" />
    <path
       style="fill:none;stroke:#ff0000;stroke-width:0.096;stroke-linecap:round;stroke-opacity:1;stroke-dasharray:none"
       d="M 516.98575,413.9751 H 237.30035"
       id="path16" />
    <path
       d="m 237.30033,413.97523 a 18.240756,18.240756 0 0 0 -18.24075,18.24076"
       style="fill:none;stroke:#ff0000;stroke-width:0.096;stroke-linecap:round;stroke-opacity:1;stroke-dasharray:none"
       id="path17" />
    <path
       style="fill:none;stroke:#ff0000;stroke-width:0.096;stroke-linecap:round;stroke-opacity:1;stroke-dasharray:none"
       d="m 219.05958,432.2161 v 166.298"
       id="path18" />
    <path
       d="m 219.05958,598.5152 a 18.240756,18.240756 0 0 0 18.24075,18.24076"
       style="fill:none;stroke:#ff0000;stroke-width:0.096;stroke-linecap:round;stroke-opacity:1;stroke-dasharray:none"
       id="path19" />
    <path
       style="fill:none;stroke:#ff0000;stroke-width:0.096;stroke-linecap:round;stroke-opacity:1;stroke-dasharray:none"
       d="m 237.30035,616.7541 h 279.6854"
       id="path20" />
  </g>
</svg>
